#N canvas 176 31 952 836 10;
#X obj 129 289 angriff bass.txt;
#X obj 376 289 angriff hihat.txt;
#X obj 129 113 r beat;
#X obj 376 118 r beat;
#X obj 640 289 angriff snare.txt;
#X obj 640 132 r beat;
#X obj 376 139 spigot;
#X obj 430 118 tgl 15 1 empty dr2 F2 0 -6 64 8 -262144 -1 -1 1 1;
#X obj 640 153 spigot;
#X obj 693 132 tgl 15 1 empty dr3 F3 0 -6 64 8 -262144 -1 -1 1 1;
#X obj 129 134 spigot;
#X obj 182 113 tgl 15 1 empty dr1 F1 0 -6 64 8 -262144 -1 -1 1 1;
#X obj 66 241 127;
#X obj 66 222 bng 15 250 50 0 empty empty empty 0 -6 0 8 -262144 -1
-1;
#X obj 36 736 f 0;
#X obj 71 740 + 1;
#X obj 36 757 mod 8;
#X floatatom 36 778 5 0 0 0 - - -;
#X obj 36 796 s beat;
#X obj 36 696 tgl 15 0 empty empty empty 0 -6 0 8 -24198 -1 -1 1 1
;
#X obj 36 715 metro 120;
#N canvas 0 0 450 300 keys 0;
#X obj 222 9 keyname;
#X obj 231 50 select F1 F2 F3;
#X obj 186 74 spigot;
#X obj 234 75 spigot;
#X obj 283 75 spigot;
#X obj 182 109 s dr1;
#X obj 282 110 s dr3;
#X obj 233 110 s dr2;
#X connect 0 0 2 1;
#X connect 0 0 3 1;
#X connect 0 0 4 1;
#X connect 0 1 1 0;
#X connect 1 0 2 0;
#X connect 1 1 3 0;
#X connect 1 2 4 0;
#X connect 2 0 5 0;
#X connect 3 0 7 0;
#X connect 4 0 6 0;
#X restore 870 606 pd keys;
#X text 186 12 _ __angriff_ _;
#X text 300 9 graph-on-parent drumkit capable of analogue modelling
electro drums. Can save and load settings \, first argument is used
to find startup settings. Comments to: fbar@footils.org;
#X msg 116 685 120;
#X floatatom 116 706 5 0 0 0 - - -;
#X obj 451 706 catch~ \$0-sig;
#X obj 639 658 throw~ \$0-sig;
#X obj 376 659 throw~ \$0-sig;
#X obj 640 174 sseq seq-snare.txt;
#X obj 376 160 sseq seq-hh.txt;
#X obj 129 157 sseq seq-bass.txt;
#X obj 129 657 throw~ \$0-sig;
#X obj 452 791 dac~;
#X obj 452 766 *~ 0;
#X obj 609 751 tgl 20 0 \$0-d \$0-d DSP 0 -6 1728 8 -260818 -123526
-33289 0 1;
#X msg 609 779 \; pd dsp \$1;
#X obj 613 689 hsl 64 10 0 1 0 0 \$0-v \$0-v volume -2 -6 1728 8 -260818
-123526 -1 3400 1;
#X obj 510 732 r \$0-v;
#X obj 648 712 r pd;
#X obj 648 734 route dsp;
#X text 501 103 sseq is part of my sequencer collection "sseq" available
on footil.org;
#X connect 0 0 32 0;
#X connect 1 0 28 0;
#X connect 2 0 10 0;
#X connect 3 0 6 0;
#X connect 4 0 27 0;
#X connect 5 0 8 0;
#X connect 6 0 30 0;
#X connect 7 0 6 1;
#X connect 8 0 29 0;
#X connect 9 0 8 1;
#X connect 10 0 31 0;
#X connect 11 0 10 1;
#X connect 12 0 0 0;
#X connect 13 0 12 0;
#X connect 14 0 15 0;
#X connect 14 0 16 0;
#X connect 15 0 14 1;
#X connect 16 0 17 0;
#X connect 17 0 18 0;
#X connect 19 0 20 0;
#X connect 20 0 14 0;
#X connect 24 0 25 0;
#X connect 25 0 20 1;
#X connect 26 0 34 0;
#X connect 29 0 4 0;
#X connect 30 0 1 0;
#X connect 31 0 0 0;
#X connect 34 0 33 0;
#X connect 34 0 33 1;
#X connect 35 0 36 0;
#X connect 38 0 34 1;
#X connect 39 0 40 0;
#X connect 40 0 35 0;
