#N canvas 523 127 781 660 10;
#X obj 32 504 test_waveshape;
#X obj 32 606 dac~;
#X obj 77 46 tgl 15 0 empty empty empty 0 -6 0 8 -262144 -1 -1 1 1
;
#X obj 78 72 metro 300;
#X obj 501 128 mtof;
#X obj 388 54 bng 15 250 50 0 empty empty empty 0 -6 0 8 -262144 -1
-1;
#X obj 376 31 r localtime;
#X obj 288 9 r mainkey;
#X msg 219 117 0 0 50;
#X obj 505 31 r harmonics;
#X obj 130 46 * 8;
#X msg 205 185 10 5 5 100 25;
#X obj 282 49 loadbang;
#X obj 19 224 envelope;
#X obj 19 139 multi_osc;
#X obj 152 357 flanger;
#X obj 31 574 *~ 1;
#X obj 73 576 hsl 128 15 0 1 0 0 empty empty empty -2 -6 0 8 -262144
-1 -1 12700 1;
#X text 100 576 volume;
#X obj 205 299 unpack f f f f f f;
#X msg 205 276 0 0 0 0 0 0;
#X obj 268 78 bng 30 250 50 0 empty empty empty 0 -6 0 8 -258699 -1
-1;
#X msg 314 186 1;
#X floatatom 376 77 5 0 0 0 - - -;
#X obj 52 117 hsl 128 15 0 6 0 0 empty empty empty -2 -6 0 8 -262144
-1 -1 7100 1;
#X obj 131 5 r tempo;
#X floatatom 215 64 5 0 0 0 - - -;
#X text 104 116 tempo_ratio;
#X obj 174 63 pow 2;
#X floatatom 63 118 5 0 0 0 - - -;
#X obj 206 40 int;
#X msg 172 38 2;
#X text 299 82 RESET !!;
#X obj 566 143 route;
#X obj 594 30 print;
#X obj 172 84 t b f;
#X obj 505 56 unpack f;
#X msg 184 113 4;
#X text 22 103 Adjust metro here :-;
#X connect 0 0 16 0;
#X connect 2 0 3 0;
#X connect 3 0 13 1;
#X connect 4 0 14 0;
#X connect 6 0 5 0;
#X connect 6 0 23 0;
#X connect 8 0 14 1;
#X connect 8 0 37 0;
#X connect 9 0 34 0;
#X connect 9 0 36 0;
#X connect 10 0 3 1;
#X connect 11 0 13 2;
#X connect 12 0 21 0;
#X connect 13 0 15 0;
#X connect 13 0 0 0;
#X connect 14 0 13 0;
#X connect 15 0 0 0;
#X connect 16 0 1 0;
#X connect 16 0 1 1;
#X connect 17 0 16 1;
#X connect 19 0 15 1;
#X connect 19 1 15 2;
#X connect 19 2 15 3;
#X connect 19 3 15 4;
#X connect 19 4 15 5;
#X connect 19 5 15 6;
#X connect 20 0 19 0;
#X connect 21 0 8 0;
#X connect 21 0 11 0;
#X connect 21 0 20 0;
#X connect 21 0 22 0;
#X connect 21 0 0 1;
#X connect 22 0 17 0;
#X connect 22 0 2 0;
#X connect 24 0 29 0;
#X connect 24 0 30 0;
#X connect 24 0 31 0;
#X connect 25 0 10 0;
#X connect 25 0 24 0;
#X connect 28 0 26 0;
#X connect 28 0 35 0;
#X connect 30 0 28 1;
#X connect 31 0 28 0;
#X connect 35 0 10 0;
#X connect 35 1 10 1;
#X connect 36 0 4 0;
#X connect 37 0 24 0;
