#N canvas 119 215 561 670 10;
#X floatatom 184 216 5 0 0 0 - - -;
#X floatatom 245 216 5 0 0 0 - - -;
#X floatatom 266 290 5 0 0 0 - - -;
#X floatatom 327 194 5 0 0 0 - - -;
#X obj 184 238 pack 10 200;
#X obj 266 268 del;
#X obj 264 185 bng 15 250 50 0 empty empty empty 0 -6 0 8 -262144 -1
-1;
#X obj 266 309 pack 1 2500;
#X msg 378 278 0;
#X floatatom 433 280 5 0 0 0 - - -;
#X obj 271 525 *~;
#X obj 266 351 line~;
#X obj 378 304 pack 0 200;
#X obj 378 254 del;
#X obj 266 373 /~ 10;
#X obj 51 31 unpack 0 0 0 0 0;
#X msg 189 81 10 100 4 600 300;
#X msg 188 53 10 5 5 100 100;
#X msg 190 28 10 5 5 300 50;
#X msg 191 102 10 6 5 20 10;
#X obj 54 65 hsl 128 15 1 20 0 0 empty empty empty -2 -6 0 8 -262144
-1 -1 6016 1;
#X obj 54 84 hsl 128 15 1 200 0 0 empty empty empty -2 -6 0 8 -262144
-1 -1 255 1;
#X obj 52 104 hsl 128 15 0 20 0 0 empty empty empty -2 -6 0 8 -262144
-1 -1 3175 1;
#X obj 53 123 hsl 128 15 10 1500 0 0 empty empty empty -2 -6 0 8 -262144
-1 -1 767 1;
#X obj 53 144 hsl 128 15 0 500 0 0 empty empty empty -2 -6 0 8 -262144
-1 -1 635 1;
#X text 55 64 attack gain;
#X text 56 83 attack time;
#X text 53 103 sustain gain;
#X text 52 121 sustain time;
#X text 54 143 decay time;
#X text 195 254 attack;
#X text 272 321 sustain;
#X text 377 319 decay;
#X floatatom 151 59 5 0 0 0 - - -;
#X floatatom 152 81 5 0 0 0 - - -;
#X floatatom 149 100 5 0 0 0 - - -;
#X floatatom 150 118 5 0 0 0 - - -;
#X floatatom 151 139 5 0 0 0 - - -;
#X obj 30 289 pack 0 0 0 0 0;
#X obj 51 492 qlist;
#X obj 53 332 openpanel;
#X obj 53 352 symbol;
#X msg 53 373 read \$1;
#X obj 110 332 savepanel;
#X obj 53 313 bng 15 250 50 0 empty empty empty 0 -6 0 8 -262144 -1
-1;
#X msg 30 419 add \$1 \$2 \$3 \$4 \$5;
#X obj 110 352 symbol;
#X msg 110 373 write \$1;
#X obj 110 311 bng 15 250 50 0 empty empty empty 0 -6 0 8 -262144 -1
-1;
#X msg 87 464 print;
#X obj 29 261 bng 15 250 50 0 empty empty empty 0 -6 0 8 -262144 -1
-1;
#X obj 31 441 print;
#X obj 270 555 outlet~;
#X obj 19 6 inlet~;
#X obj 299 110 inlet;
#X obj 300 33 loadbang;
#X obj 371 62 inlet;
#X text 422 60 input envelope;
#X text 420 73 5 param:-;
#X text 418 84 1 attack gain;
#X text 418 138 5 decay time.;
#X text 420 124 4 sustain time.;
#X text 420 110 3 sustain gain.;
#X text 418 98 2 atack time.;
#X obj 208 147 del 1;
#X obj 206 128 bng 15 250 50 0 empty empty empty 0 -6 0 8 -262144 -1
-1;
#X obj 373 550 outlet;
#X text 335 107 trigger;
#X text 371 45 input env params;
#X text 63 7 audio in;
#X connect 0 0 4 0;
#X connect 1 0 4 1;
#X connect 1 0 5 1;
#X connect 2 0 7 0;
#X connect 3 0 7 1;
#X connect 3 0 13 1;
#X connect 4 0 11 0;
#X connect 5 0 2 0;
#X connect 5 0 13 0;
#X connect 6 0 0 0;
#X connect 6 0 5 0;
#X connect 7 0 11 0;
#X connect 8 0 12 0;
#X connect 9 0 12 1;
#X connect 10 0 52 0;
#X connect 11 0 14 0;
#X connect 12 0 11 0;
#X connect 13 0 8 0;
#X connect 14 0 10 1;
#X connect 15 0 20 0;
#X connect 15 1 21 0;
#X connect 15 2 22 0;
#X connect 15 3 23 0;
#X connect 15 4 24 0;
#X connect 16 0 15 0;
#X connect 16 0 65 0;
#X connect 17 0 15 0;
#X connect 17 0 65 0;
#X connect 18 0 15 0;
#X connect 18 0 65 0;
#X connect 19 0 15 0;
#X connect 19 0 65 0;
#X connect 20 0 0 0;
#X connect 20 0 33 0;
#X connect 21 0 1 0;
#X connect 21 0 34 0;
#X connect 22 0 2 0;
#X connect 22 0 35 0;
#X connect 23 0 3 0;
#X connect 23 0 36 0;
#X connect 24 0 9 0;
#X connect 24 0 37 0;
#X connect 33 0 38 0;
#X connect 34 0 38 1;
#X connect 35 0 38 2;
#X connect 36 0 38 3;
#X connect 37 0 38 4;
#X connect 38 0 66 0;
#X connect 40 0 41 0;
#X connect 41 0 42 0;
#X connect 42 0 39 0;
#X connect 43 0 46 0;
#X connect 44 0 40 0;
#X connect 45 0 39 0;
#X connect 46 0 47 0;
#X connect 47 0 39 0;
#X connect 48 0 43 0;
#X connect 49 0 39 0;
#X connect 50 0 38 0;
#X connect 53 0 10 0;
#X connect 54 0 6 0;
#X connect 55 0 17 0;
#X connect 56 0 15 0;
#X connect 64 0 6 0;
#X connect 65 0 64 0;
#X coords 0 -1 1 1 150 120 1 40 50;
