#N canvas 534 450 684 411 10;
#X obj 29 79 hsl 128 15 0 400 0 0 empty empty empty -2 -6 0 8 -262144
-1 -1 0 1;
#X obj 339 80 * 1;
#X floatatom 364 80 8 0 0 0 - - -;
#X obj 152 99 osc~;
#X obj 27 39 hsl 128 15 0 100 0 0 empty empty empty -2 -6 0 8 -262144
-1 -1 1800 1;
#X obj 154 130 *~ 1;
#X obj 27 58 hsl 128 15 0 127 0 0 empty empty empty -2 -6 0 8 -262144
-1 -1 10500 1;
#X obj 162 164 +~ 1;
#X obj 183 107 / 60;
#X obj 202 5 inlet;
#X obj 152 7 inlet;
#X obj 339 13 inlet;
#X obj 15 186 delwrite~ \$0-delay1 500;
#X obj 161 215 vd~ \$0-delay1;
#X obj 14 12 inlet~;
#X obj 162 311 outlet~;
#X text 64 9 signal;
#X text 32 36 osc_freq;
#X text 32 57 depth;
#X text 25 79 offset;
#X obj 30 142 hsl 128 15 0 127 0 0 empty empty empty -2 -6 0 8 -262144
-1 -1 0 1;
#X obj 159 284 *~ 1;
#X obj 181 261 / 127;
#X obj 316 219 loadbang;
#X obj 506 13 inlet;
#X msg 317 240 62;
#X obj 341 122 pack 0 5;
#X obj 342 154 line~;
#X msg 393 101 20;
#X obj 28 100 hsl 128 15 0 127 0 0 empty empty empty -2 -6 0 8 -262144
-1 -1 0 1;
#X obj 282 262 / 127;
#X obj 259 282 *~ 0;
#X obj 384 12 inlet;
#X text 381 34 feedback;
#X text 523 34 vol;
#X obj 236 312 simple_delay;
#X obj 30 120 hsl 128 15 0 300 0 0 empty empty empty -2 -6 0 8 -262144
-1 -1 0 1;
#X obj 405 183 * 1;
#X floatatom 430 183 8 0 0 0 - - -;
#X obj 407 225 pack 0 5;
#X obj 409 258 line;
#X floatatom 447 294 5 0 0 0 - - -;
#X obj 441 15 inlet;
#X text 438 33 feedback_del;
#X text 41 97 feedback;
#X msg 459 204 50;
#X text 37 122 feedback_delay;
#X obj 569 179;
#X text 37 143 volume;
#X connect 0 0 1 0;
#X connect 1 0 2 0;
#X connect 1 0 26 0;
#X connect 3 0 5 0;
#X connect 4 0 3 0;
#X connect 5 0 7 0;
#X connect 6 0 8 0;
#X connect 7 0 13 0;
#X connect 8 0 5 1;
#X connect 9 0 4 0;
#X connect 10 0 6 0;
#X connect 11 0 0 0;
#X connect 13 0 21 0;
#X connect 13 0 31 0;
#X connect 14 0 12 0;
#X connect 20 0 22 0;
#X connect 21 0 15 0;
#X connect 22 0 21 1;
#X connect 23 0 25 0;
#X connect 24 0 20 0;
#X connect 25 0 20 0;
#X connect 26 0 27 0;
#X connect 27 0 7 0;
#X connect 28 0 26 1;
#X connect 29 0 30 0;
#X connect 30 0 31 1;
#X connect 31 0 35 0;
#X connect 32 0 30 0;
#X connect 32 0 29 0;
#X connect 35 0 12 0;
#X connect 36 0 37 0;
#X connect 37 0 38 0;
#X connect 37 0 39 0;
#X connect 39 0 40 0;
#X connect 40 0 35 1;
#X connect 40 0 41 0;
#X connect 42 0 36 0;
#X connect 45 0 39 1;
#X coords 0 -1 1 1 148 140 1 20 20;
