#N canvas 3 1 401 203 10;
#N canvas 181 264 582 456 master1 0;
#X obj 100 100 cnv 15 400 200 empty empty OSCmaster 20 12 1 20 -233017
-259347 0;
#X obj 182 169 hsl 256 32 0 127 0 0 \$0-mastertempo empty tempo 100
16 1 10 -195568 -1 -1 0 1;
#X obj 182 209 hsl 256 32 12 72 0 0 \$0-masterkey empty pitch 100 16
1 10 -195568 -1 -1 0 1;
#X obj 182 249 hsl 256 32 0 127 0 0 \$0-mastercontrol empty complexity
100 16 1 10 -195568 -1 -1 0 1;
#N canvas 62 296 1066 472 OSC 0;
#X obj 26 172 sendOSC;
#X floatatom 26 199 5 0 0 0 - - -;
#X msg 44 119 disconnect;
#X msg 26 93 connect localhost 9999;
#X floatatom 70 198 5 0 0 0 - - -;
#X obj 26 66 del 100;
#X obj 26 39 loadbang;
#X obj 103 34 sel 1 0;
#X obj 103 12 r \$0-connectnet;
#X obj 219 12 r \$0-mastertempo;
#X obj 341 12 r \$0-masterkey;
#X obj 449 12 r \$0-mastercontrol;
#X msg 219 86 send /ol3/peckham/tempo \$1;
#X msg 341 65 send /ol3/peckham/key \$1;
#X msg 449 43 send /ol3/peckham/control \$1;
#N canvas 0 0 450 300 timebase 0;
#X obj 164 197 f 0;
#X obj 197 196 + 1;
#X obj 164 172 metro 100;
#X obj 164 228 outlet;
#X msg 198 107 0;
#X obj 198 39 inlet reset;
#X obj 103 45 inlet start;
#X obj 295 62 inlet tempo;
#N canvas 694 548 450 300 bpm2ms 0;
#X obj 118 22 inlet bpm;
#X obj 118 51 / 60;
#X obj 118 120 /;
#X msg 118 97 1;
#X obj 118 74 t b f;
#X obj 118 143 * 250;
#X obj 118 213 outlet ms bar;
#X obj 118 166 max 10;
#X obj 118 188 min 3000;
#X connect 0 0 1 0;
#X connect 1 0 4 0;
#X connect 2 0 5 0;
#X connect 3 0 2 0;
#X connect 4 0 3 0;
#X connect 4 1 2 1;
#X connect 5 0 7 0;
#X connect 7 0 8 0;
#X connect 8 0 6 0;
#X restore 296 85 pd bpm2ms;
#X obj 296 110 / 2;
#X connect 0 0 1 0;
#X connect 0 0 3 0;
#X connect 1 0 0 1;
#X connect 2 0 0 0;
#X connect 4 0 0 0;
#X connect 5 0 4 0;
#X connect 6 0 2 0;
#X connect 7 0 8 0;
#X connect 8 0 9 0;
#X connect 9 0 2 1;
#X restore -160 69 pd timebase;
#X msg -160 92 send /ol3/peckham/time \$1;
#X obj -160 16 r \$0-timebaseon;
#X obj -141 125 s \$0-timedisplay;
#X obj -124 44 r \$0-timebasereset;
#X obj 674 12 r \$0-harmonics;
#X msg 542 75 send /ol3/peckham/harmonics \$1 \$2 \$3 \$4 \$5 \$6 \$7
\$8;
#X obj -141 149 s \$0-time;
#X obj 341 37 int;
#X obj 375 112 s \$0-composerkey;
#X connect 0 0 1 0;
#X connect 0 1 4 0;
#X connect 2 0 0 0;
#X connect 3 0 0 0;
#X connect 5 0 3 0;
#X connect 6 0 5 0;
#X connect 7 0 3 0;
#X connect 7 1 2 0;
#X connect 8 0 7 0;
#X connect 9 0 12 0;
#X connect 9 0 15 2;
#X connect 10 0 23 0;
#X connect 11 0 14 0;
#X connect 12 0 0 0;
#X connect 13 0 0 0;
#X connect 14 0 0 0;
#X connect 15 0 16 0;
#X connect 15 0 18 0;
#X connect 15 0 22 0;
#X connect 16 0 0 0;
#X connect 17 0 15 0;
#X connect 19 0 15 1;
#X connect 20 0 21 0;
#X connect 21 0 0 0;
#X connect 23 0 13 0;
#X connect 23 0 24 0;
#X restore 313 354 pd OSC sender;
#X obj 117 152 tgl 15 0 \$0-connectnet empty connect 0 -6 1 8 -195568
-258699 -1 1 1;
#X obj 117 188 tgl 15 0 \$0-timebaseon empty clock 0 -6 1 8 -195568
-258699 -1 1 1;
#X obj 116 223 bng 15 250 50 0 \$0-timebasereset empty reset 0 -6 1
8 -195568 -258699 -1;
#X obj 115 263 nbx 5 14 -1e+37 1e+37 0 0 empty \$0-timedisplay time
0 -6 1 10 -166441 -33289 -1 2048 256;
#X coords 0 -1 1 1 400 200 1 100 100;
#X restore 1 -1 pd master1;
#N canvas 4 247 198 346 composer 1;
#N canvas 556 241 510 437 harmonic 0;
#X obj 317 238 s \$0-harmonics;
#X obj 0 0 cnv 15 200 340 empty empty composer 20 12 1 14 -233017 -258699
0;
#X obj 0 189 cnv 15 200 150 empty empty interval 20 12 1 12 -195568
-258699 0;
#X obj 18 212 vradio 15 1 0 8 \$0-randof0 empty empty 0 -6 0 8 -166441
-258699 -1 2;
#X obj 38 212 vradio 15 1 0 8 \$0-randof1 empty empty 0 -6 0 8 -166441
-258699 -1 2;
#X obj 58 212 vradio 15 1 0 8 \$0-randof2 empty empty 0 -6 0 8 -166441
-258699 -1 2;
#X obj 78 212 vradio 15 1 0 8 \$0-randof3 empty empty 0 -6 0 8 -166441
-258699 -1 2;
#X obj 98 212 vradio 15 1 0 8 \$0-randof4 empty empty 0 -6 0 8 -166441
-258699 -1 2;
#X obj 118 212 vradio 15 1 0 8 \$0-randof5 empty empty 0 -6 0 8 -166441
-258699 -1 2;
#X obj 138 212 vradio 15 1 0 8 \$0-randof6 empty empty 0 -6 0 8 -166441
-258699 -1 2;
#X obj 158 212 vradio 15 1 0 8 \$0-randof7 empty empty 0 -6 0 8 -166441
-258699 -1 2;
#X obj 0 38 cnv 15 200 150 empty empty jump 20 12 1 12 -195568 -258699
0;
#X obj 22 59 vradio 15 1 0 8 \$0-randmt0 empty empty 0 -6 0 8 -166441
-258699 -1 2;
#X obj 42 59 vradio 15 1 0 8 \$0-randmt1 empty empty 0 -6 0 8 -166441
-258699 -1 0;
#X obj 62 59 vradio 15 1 0 8 \$0-randmt2 empty empty 0 -6 0 8 -166441
-258699 -1 2;
#X obj 82 59 vradio 15 1 0 8 \$0-randmt3 empty empty 0 -6 0 8 -166441
-258699 -1 2;
#X obj 102 59 vradio 15 1 0 8 \$0-randmt4 empty empty 0 -6 0 8 -166441
-258699 -1 0;
#X obj 122 59 vradio 15 1 0 8 \$0-randmt5 empty empty 0 -6 0 8 -166441
-258699 -1 2;
#X obj 142 59 vradio 15 1 0 8 \$0-randmt6 empty empty 0 -6 0 8 -166441
-258699 -1 2;
#X obj 162 59 vradio 15 1 0 8 \$0-randmt7 empty empty 0 -6 0 8 -166441
-258699 -1 3;
#N canvas 0 0 550 374 sequence 0;
#N canvas 749 268 497 509 nextrandomkey 0;
#X obj 139 243 sel 0;
#X obj 139 128 inlet;
#X obj 139 297 outlet;
#X obj 139 271 + 48;
#X obj 139 221 mod 16;
#X floatatom 192 298 5 0 0 0 - - -;
#X obj 194 220 r \$0-composerkey;
#X obj 184 128 swap 2;
#X obj 185 152 pow;
#X obj 186 175 + 1;
#X obj 190 8 r \$0-mastercontrol;
#X obj 189 30 / 127;
#X obj 189 105 * 8;
#X obj 186 197 int;
#X obj 189 57 swap 1;
#X obj 189 77 -;
#X floatatom 212 250 5 0 0 0 - - -;
#X connect 0 0 3 0;
#X connect 1 0 4 0;
#X connect 3 0 2 0;
#X connect 3 0 5 0;
#X connect 4 0 0 0;
#X connect 6 0 3 1;
#X connect 7 0 8 0;
#X connect 7 1 8 1;
#X connect 8 0 9 0;
#X connect 9 0 13 0;
#X connect 10 0 11 0;
#X connect 11 0 14 0;
#X connect 12 0 7 0;
#X connect 13 0 4 1;
#X connect 13 0 16 0;
#X connect 14 0 15 0;
#X connect 14 1 15 1;
#X connect 15 0 12 0;
#X restore 19 81 pd nextrandomkey;
#X obj 19 139 outlet tree;
#X obj 19 24 inlet time;
#N canvas 572 22 665 756 random 0;
#X obj 32 596 outlet;
#X obj 93 247 inlet;
#X obj 32 567 pack f f f f f f f f;
#X obj 32 388 +;
#X obj 68 466 +;
#X obj 107 465 +;
#X obj 146 463 +;
#X obj 186 463 +;
#X obj 221 463 +;
#X obj 261 462 +;
#X obj 32 414 t f f;
#X obj 103 334 random 2;
#X obj 93 273 t f b;
#X obj 166 334 random 3;
#X obj 292 334 random 3;
#X obj 230 334 random 3;
#X obj 229 357 * 3;
#X obj 419 334 random 3;
#X obj 357 334 random 3;
#X obj 292 357 * 5;
#X obj 356 357 * 7;
#X obj 419 357 * 9;
#X obj 166 357 * 7;
#X obj 103 357 * 6;
#X obj 42 334 random 2;
#X obj 42 357 * 6;
#X obj 302 462 +;
#X obj 481 332 random 3;
#X obj 481 355 * 9;
#X obj 290 51 r \$0-randmt1;
#X obj 199 51 r \$0-randmt0;
#X obj 384 51 r \$0-randmt2;
#X obj 475 51 r \$0-randmt3;
#X obj 199 104 r \$0-randmt4;
#X obj 290 104 r \$0-randmt5;
#X obj 384 104 r \$0-randmt6;
#X obj 475 104 r \$0-randmt7;
#X obj 200 160 r \$0-randof0;
#X obj 290 160 r \$0-randof1;
#X obj 380 160 r \$0-randof2;
#X obj 470 160 r \$0-randof3;
#X obj 200 213 r \$0-randof4;
#X obj 290 213 r \$0-randof5;
#X obj 380 213 r \$0-randof6;
#X obj 470 213 r \$0-randof7;
#X obj 199 74 + 1;
#X obj 290 74 + 1;
#X obj 384 74 + 1;
#X obj 475 74 + 1;
#X obj 200 128 + 1;
#X obj 291 128 + 1;
#X obj 385 128 + 1;
#X obj 476 128 + 1;
#X obj 200 184 + 1;
#X obj 291 184 + 1;
#X obj 385 184 + 1;
#X obj 476 184 + 1;
#X obj 200 237 + 1;
#X obj 291 237 + 1;
#X obj 385 237 + 1;
#X obj 476 237 + 1;
#X connect 1 0 12 0;
#X connect 2 0 0 0;
#X connect 3 0 10 0;
#X connect 4 0 5 0;
#X connect 4 0 2 1;
#X connect 5 0 6 0;
#X connect 5 0 2 2;
#X connect 6 0 7 0;
#X connect 6 0 2 3;
#X connect 7 0 8 0;
#X connect 7 0 2 4;
#X connect 8 0 9 0;
#X connect 8 0 2 5;
#X connect 9 0 26 0;
#X connect 9 0 2 6;
#X connect 10 0 2 0;
#X connect 10 1 4 0;
#X connect 11 0 23 0;
#X connect 12 0 3 0;
#X connect 12 1 11 0;
#X connect 12 1 13 0;
#X connect 12 1 15 0;
#X connect 12 1 14 0;
#X connect 12 1 18 0;
#X connect 12 1 17 0;
#X connect 12 1 24 0;
#X connect 12 1 27 0;
#X connect 13 0 22 0;
#X connect 14 0 19 0;
#X connect 15 0 16 0;
#X connect 16 0 6 1;
#X connect 17 0 21 0;
#X connect 18 0 20 0;
#X connect 19 0 7 1;
#X connect 20 0 8 1;
#X connect 21 0 9 1;
#X connect 22 0 5 1;
#X connect 23 0 4 1;
#X connect 24 0 25 0;
#X connect 25 0 3 1;
#X connect 26 0 2 7;
#X connect 27 0 28 0;
#X connect 28 0 26 1;
#X connect 29 0 46 0;
#X connect 30 0 45 0;
#X connect 31 0 47 0;
#X connect 32 0 48 0;
#X connect 33 0 14 1;
#X connect 33 0 49 0;
#X connect 34 0 50 0;
#X connect 35 0 51 0;
#X connect 36 0 52 0;
#X connect 37 0 53 0;
#X connect 38 0 54 0;
#X connect 39 0 55 0;
#X connect 40 0 56 0;
#X connect 41 0 57 0;
#X connect 42 0 58 0;
#X connect 43 0 59 0;
#X connect 44 0 60 0;
#X connect 45 0 24 1;
#X connect 46 0 11 1;
#X connect 47 0 13 1;
#X connect 48 0 15 1;
#X connect 50 0 18 1;
#X connect 51 0 17 1;
#X connect 52 0 27 1;
#X connect 53 0 25 1;
#X connect 54 0 23 1;
#X connect 55 0 22 1;
#X connect 56 0 16 1;
#X connect 57 0 19 1;
#X connect 58 0 20 1;
#X connect 59 0 21 1;
#X connect 60 0 28 1;
#X restore 19 113 pd random sequence selector;
#X floatatom 34 52 5 0 0 0 - - -;
#X connect 0 0 3 0;
#X connect 2 0 0 0;
#X connect 2 0 4 0;
#X connect 3 0 1 0;
#X restore 317 217 pd sequence generator;
#X obj 317 195 r \$0-time;
#X connect 20 0 0 0;
#X connect 21 0 20 0;
#X coords 0 -1 1 1 200 340 1 0 0;
#X restore 0 0 pd harmonic tree translator;
#X restore 180 30 pd composer;
