#N canvas 0 0 908 695 10;
#N canvas 0 0 1253 916 moogerslooger 0;
#X obj 100 100 cnv 15 560 300 empty empty squeaker 20 16 1 22 -233017
-259347 0;
#X obj 390 172 hsl 256 32 0 127 0 0 \$0-sploogsize empty size 100 16
1 10 -195568 -258699 -1 2200 1;
#X obj 390 301 hsl 256 32 0 127 0 0 \$0-sploogfat empty fatness 100
16 1 10 -195568 -258699 -1 12600 1;
#X obj 390 341 hsl 256 32 0 127 0 0 \$0-sploogwet empty wetness 100
16 1 10 -195568 -258699 -1 17300 1;
#X obj 256 114 tgl 15 0 \$0-moogermute empty on/off 0 -6 1 8 -195568
-258699 -1 1 1;
#X obj 390 132 hsl 256 32 0 127 0 0 \$0-sploogvol empty volume 100
16 1 10 -195568 -258699 -1 3300 1;
#N canvas 490 96 714 746 gubbins 0;
#X obj 235 53 r \$0-sploogfat;
#X obj 255 444 r \$0-sploogvol;
#X obj 569 47 r \$0-sploogsize;
#X obj 433 49 r \$0-sploogwet;
#X obj 90 257 phasor~;
#X obj 90 233 lop~ 4;
#X obj 169 255 phasor~;
#X obj 169 231 lop~ 4;
#X obj 89 161 sig~ 100;
#X obj 168 209 +~;
#X obj 186 159 osc~ 2;
#X obj 185 183 *~;
#X obj 235 76 / 127;
#X obj 235 159 sig~ 1;
#X obj 186 126 + 1;
#X obj 186 104 * 3.5;
#X obj 168 345 cos~;
#X obj 170 286 -~ 0.5;
#X obj 169 319 pow~;
#X obj 325 145 * 0.5;
#X obj 433 72 / 127;
#X obj 433 118 -;
#X obj 433 94 swap 1;
#X obj 235 101 * 2;
#X obj 432 170 + 0.001;
#X obj 432 141 * 0.125;
#X obj 89 289 -~ 0.5;
#X obj 89 320 pow~;
#X obj 90 347 clip~ 0 1;
#X obj 123 320 * -1;
#X obj 298 176 + 0.5;
#X obj 325 123 -;
#X obj 325 99 swap 1;
#X obj 90 446 *~;
#X obj 124 393 -;
#X obj 124 368 swap 2;
#X obj 124 418 *;
#X obj 89 387 cos~;
#X obj 90 492 *~ 0.25;
#X obj 152 455 line~;
#X msg 153 432 \$1 100;
#X obj 201 489 line~;
#X msg 202 466 \$1 100;
#X obj 90 518 moog~ 3000 1;
#X obj 487 93 * 2;
#X obj 569 72 / 127;
#X obj 570 98 * 5000;
#X obj 571 123 + 200;
#X obj 91 567 *~;
#X obj 255 540 line~;
#X msg 255 515 \$1 100;
#X obj 255 465 / 127;
#X obj 125 48 t b f;
#X obj 275 363 vline~;
#X msg 275 341 1 \$1 0 \, 0 \$1 \$1;
#X obj 92 593 *~;
#X obj 296 387 sqrt~;
#X obj 275 318 + 20;
#X obj 275 294 f;
#X obj 525 99 * 200;
#X obj 152 478 +~;
#X obj 219 412 *~;
#X obj 236 388 *~ 1000;
#X obj 125 3 r moogersploogernote;
#X obj 620 122 -;
#X obj 620 98 swap 1;
#X obj 92 626 outlet~;
#X obj 361 444 r \$0-moogermute;
#X obj 255 490 *;
#X obj 296 465 t b f;
#X obj 622 145 * 10;
#X obj 622 168 + 3;
#X connect 0 0 12 0;
#X connect 1 0 51 0;
#X connect 2 0 45 0;
#X connect 3 0 20 0;
#X connect 4 0 26 0;
#X connect 5 0 4 0;
#X connect 6 0 17 0;
#X connect 7 0 6 0;
#X connect 8 0 9 0;
#X connect 8 0 5 0;
#X connect 9 0 7 0;
#X connect 10 0 11 0;
#X connect 11 0 9 1;
#X connect 12 0 15 0;
#X connect 12 0 23 0;
#X connect 12 0 32 0;
#X connect 13 0 11 1;
#X connect 13 0 61 0;
#X connect 14 0 10 0;
#X connect 15 0 14 0;
#X connect 16 0 38 0;
#X connect 17 0 18 0;
#X connect 18 0 16 0;
#X connect 19 0 30 0;
#X connect 20 0 22 0;
#X connect 20 0 44 0;
#X connect 21 0 25 0;
#X connect 22 0 21 0;
#X connect 22 1 21 1;
#X connect 23 0 13 0;
#X connect 24 0 18 1;
#X connect 24 0 27 1;
#X connect 25 0 24 0;
#X connect 26 0 27 0;
#X connect 27 0 28 0;
#X connect 28 0 37 0;
#X connect 29 0 28 1;
#X connect 30 0 28 2;
#X connect 30 0 29 0;
#X connect 30 0 35 0;
#X connect 31 0 19 0;
#X connect 32 0 31 0;
#X connect 32 1 31 1;
#X connect 33 0 38 0;
#X connect 34 0 36 0;
#X connect 34 0 36 1;
#X connect 35 0 34 0;
#X connect 35 1 34 1;
#X connect 36 0 33 1;
#X connect 37 0 33 0;
#X connect 38 0 43 0;
#X connect 39 0 60 0;
#X connect 40 0 39 0;
#X connect 41 0 43 2;
#X connect 42 0 41 0;
#X connect 43 0 48 0;
#X connect 44 0 42 0;
#X connect 45 0 46 0;
#X connect 45 0 59 0;
#X connect 45 0 65 0;
#X connect 46 0 47 0;
#X connect 47 0 40 0;
#X connect 48 0 55 0;
#X connect 49 0 48 1;
#X connect 50 0 49 0;
#X connect 51 0 68 0;
#X connect 52 0 58 0;
#X connect 52 1 8 0;
#X connect 53 0 56 0;
#X connect 53 0 62 0;
#X connect 54 0 53 0;
#X connect 55 0 66 0;
#X connect 56 0 55 1;
#X connect 57 0 54 0;
#X connect 58 0 57 0;
#X connect 59 0 58 1;
#X connect 60 0 43 1;
#X connect 61 0 60 1;
#X connect 62 0 61 1;
#X connect 63 0 52 0;
#X connect 64 0 70 0;
#X connect 65 0 64 0;
#X connect 65 1 64 1;
#X connect 67 0 69 0;
#X connect 68 0 50 0;
#X connect 69 0 68 0;
#X connect 69 1 68 1;
#X connect 70 0 71 0;
#X connect 71 0 7 1;
#X connect 71 0 5 1;
#X restore 363 546 pd gubbins;
#X obj 362 583 dac~;
#N canvas 456 81 773 763 crystal 0;
#X obj 101 101 cnv 15 240 240 empty empty empty 20 12 0 14 -1 -66577
0;
#X obj 120 118 bng 20 100 50 0 \$0-00 \$0-00 empty 0 -6 0 8 -1 -262144
-1;
#X obj 115 113 cnv 5 4 212 empty empty empty 20 12 0 14 -128992 -66577
0;
#X obj 172 118 bng 20 100 50 0 \$0-02 \$0-02 empty 0 -6 0 8 -1 -262144
-1;
#X obj 146 118 bng 20 100 50 0 \$0-01 \$0-01 empty 0 -6 0 8 -1 -262144
-1;
#X obj 198 118 bng 20 100 50 0 \$0-03 \$0-03 empty 0 -6 0 8 -1 -262144
-1;
#X obj 224 118 bng 20 100 50 0 \$0-04 \$0-04 empty 0 -6 0 8 -1 -262144
-1;
#X obj 276 118 bng 20 100 50 0 \$0-06 \$0-06 empty 0 -6 0 8 -1 -262144
-1;
#X obj 250 118 bng 20 100 50 0 \$0-05 \$0-05 empty 0 -6 0 8 -1 -262144
-1;
#X obj 302 118 bng 20 100 50 0 \$0-07 \$0-07 empty 0 -6 0 8 -1 -262144
-1;
#X obj 115 113 cnv 5 206 4 empty empty empty 20 12 0 14 -128992 -66577
0;
#X obj 120 321 cnv 4 206 4 empty empty empty 20 12 0 14 -128992 -66577
0;
#X obj 167 113 cnv 5 4 212 empty empty empty 20 12 0 14 -128992 -66577
0;
#X obj 193 113 cnv 5 4 212 empty empty empty 20 12 0 14 -128992 -66577
0;
#X obj 219 113 cnv 5 4 212 empty empty empty 20 12 0 14 -128992 -66577
0;
#X obj 245 113 cnv 5 4 212 empty empty empty 20 12 0 14 -128992 -66577
0;
#X obj 271 113 cnv 5 4 212 empty empty empty 20 12 0 14 -128992 -66577
0;
#X obj 297 113 cnv 5 4 212 empty empty empty 20 12 0 14 -128992 -66577
0;
#X obj 322 113 cnv 4 4 212 empty empty empty 20 12 0 14 -128992 -66577
0;
#X obj 141 113 cnv 5 4 212 empty empty empty 20 12 0 14 -128992 -66577
0;
#X obj 120 139 cnv 15 206 4 empty empty empty 20 12 0 14 -128992 -66577
0;
#X obj 120 165 cnv 15 206 4 empty empty empty 20 12 0 14 -128992 -66577
0;
#X obj 120 191 cnv 15 206 4 empty empty empty 20 12 0 14 -128992 -66577
0;
#X obj 120 217 cnv 15 206 4 empty empty empty 20 12 0 14 -128992 -66577
0;
#X obj 120 243 cnv 15 206 4 empty empty empty 20 12 0 14 -128992 -66577
0;
#X obj 120 269 cnv 15 206 4 empty empty empty 20 12 0 14 -128992 -66577
0;
#X obj 120 295 cnv 15 206 4 empty empty empty 20 12 0 14 -128992 -66577
0;
#X obj 120 144 bng 20 100 50 0 \$0-10 \$0-10 empty 0 -6 0 8 -1 -262144
-1;
#X obj 172 144 bng 20 100 50 0 \$0-12 \$0-12 empty 0 -6 0 8 -1 -262144
-1;
#X obj 146 144 bng 20 100 50 0 \$0-11 \$0-11 empty 0 -6 0 8 -1 -262144
-1;
#X obj 198 144 bng 20 100 50 0 \$0-13 \$0-13 empty 0 -6 0 8 -1 -262144
-1;
#X obj 224 144 bng 20 100 50 0 \$0-14 \$0-14 empty 0 -6 0 8 -1 -262144
-1;
#X obj 276 144 bng 20 100 50 0 \$0-16 \$0-16 empty 0 -6 0 8 -1 -262144
-1;
#X obj 250 144 bng 20 100 50 0 \$0-15 \$0-15 empty 0 -6 0 8 -1 -262144
-1;
#X obj 302 144 bng 20 100 50 0 \$0-17 \$0-17 empty 0 -6 0 8 -1 -262144
-1;
#X obj 120 170 bng 20 100 50 0 \$0-20 \$0-20 empty 0 -6 0 8 -1 -262144
-1;
#X obj 172 170 bng 20 100 50 0 \$0-22 \$0-22 empty 0 -6 0 8 -1 -262144
-1;
#X obj 146 170 bng 20 100 50 0 \$0-21 \$0-21 empty 0 -6 0 8 -1 -262144
-1;
#X obj 198 170 bng 20 100 50 0 \$0-23 \$0-23 empty 0 -6 0 8 -1 -262144
-1;
#X obj 224 170 bng 20 100 50 0 \$0-24 \$0-24 empty 0 -6 0 8 -1 -262144
-1;
#X obj 276 170 bng 20 100 50 0 \$0-26 \$0-26 empty 0 -6 0 8 -1 -262144
-1;
#X obj 250 170 bng 20 100 50 0 \$0-25 \$0-25 empty 0 -6 0 8 -1 -262144
-1;
#X obj 302 170 bng 20 100 50 0 \$0-27 \$0-27 empty 0 -6 0 8 -1 -262144
-1;
#X obj 120 196 bng 20 100 50 0 \$0-30 \$0-30 empty 0 -6 0 8 -1 -262144
-1;
#X obj 172 196 bng 20 100 50 0 \$0-32 \$0-32 empty 0 -6 0 8 -1 -262144
-1;
#X obj 146 196 bng 20 100 50 0 \$0-31 \$0-31 empty 0 -6 0 8 -1 -262144
-1;
#X obj 198 196 bng 20 100 50 0 \$0-33 \$0-33 empty 0 -6 0 8 -1 -262144
-1;
#X obj 224 196 bng 20 100 50 0 \$0-34 \$0-34 empty 0 -6 0 8 -1 -262144
-1;
#X obj 276 196 bng 20 100 50 0 \$0-36 \$0-36 empty 0 -6 0 8 -1 -262144
-1;
#X obj 250 196 bng 20 100 50 0 \$0-35 \$0-35 empty 0 -6 0 8 -1 -262144
-1;
#X obj 302 196 bng 20 100 50 0 \$0-37 \$0-37 empty 0 -6 0 8 -1 -262144
-1;
#X obj 120 222 bng 20 100 50 0 \$0-40 \$0-40 empty 0 -6 0 8 -1 -262144
-1;
#X obj 172 222 bng 20 100 50 0 \$0-42 \$0-42 empty 0 -6 0 8 -1 -262144
-1;
#X obj 146 222 bng 20 100 50 0 \$0-41 \$0-41 empty 0 -6 0 8 -1 -262144
-1;
#X obj 198 222 bng 20 100 50 0 \$0-43 \$0-43 empty 0 -6 0 8 -1 -262144
-1;
#X obj 224 222 bng 20 100 50 0 \$0-44 \$0-44 empty 0 -6 0 8 -1 -262144
-1;
#X obj 276 222 bng 20 100 50 0 \$0-46 \$0-46 empty 0 -6 0 8 -1 -262144
-1;
#X obj 250 222 bng 20 100 50 0 \$0-45 \$0-45 empty 0 -6 0 8 -1 -262144
-1;
#X obj 302 222 bng 20 100 50 0 \$0-47 \$0-47 empty 0 -6 0 8 -1 -262144
-1;
#X obj 120 248 bng 20 100 50 0 \$0-50 \$0-50 empty 0 -6 0 8 -1 -262144
-1;
#X obj 172 248 bng 20 100 50 0 \$0-52 \$0-52 empty 0 -6 0 8 -1 -262144
-1;
#X obj 146 248 bng 20 100 50 0 \$0-51 \$0-51 empty 0 -6 0 8 -1 -262144
-1;
#X obj 198 248 bng 20 100 50 0 \$0-53 \$0-53 empty 0 -6 0 8 -1 -262144
-1;
#X obj 224 248 bng 20 100 50 0 \$0-54 \$0-54 empty 0 -6 0 8 -1 -262144
-1;
#X obj 276 248 bng 20 100 50 0 \$0-56 \$0-56 empty 0 -6 0 8 -1 -262144
-1;
#X obj 250 248 bng 20 100 50 0 \$0-55 \$0-55 empty 0 -6 0 8 -1 -262144
-1;
#X obj 302 248 bng 20 100 50 0 \$0-57 \$0-57 empty 0 -6 0 8 -1 -262144
-1;
#X obj 120 274 bng 20 100 50 0 \$0-60 \$0-60 empty 0 -6 0 8 -1 -262144
-1;
#X obj 172 274 bng 20 100 50 0 \$0-62 \$0-62 empty 0 -6 0 8 -1 -262144
-1;
#X obj 146 274 bng 20 100 50 0 \$0-61 \$0-61 empty 0 -6 0 8 -1 -262144
-1;
#X obj 198 274 bng 20 100 50 0 \$0-63 \$0-63 empty 0 -6 0 8 -1 -262144
-1;
#X obj 224 274 bng 20 100 50 0 \$0-64 \$0-64 empty 0 -6 0 8 -1 -262144
-1;
#X obj 276 274 bng 20 100 50 0 \$0-66 \$0-66 empty 0 -6 0 8 -1 -262144
-1;
#X obj 250 274 bng 20 100 50 0 \$0-65 \$0-65 empty 0 -6 0 8 -1 -262144
-1;
#X obj 302 274 bng 20 100 50 0 \$0-67 \$0-67 empty 0 -6 0 8 -1 -262144
-1;
#X obj 120 300 bng 20 100 50 0 \$0-70 \$0-70 empty 0 -6 0 8 -1 -262144
-1;
#X obj 172 300 bng 20 100 50 0 \$0-72 \$0-72 empty 0 -6 0 8 -1 -262144
-1;
#X obj 146 300 bng 20 100 50 0 \$0-71 \$0-71 empty 0 -6 0 8 -1 -262144
-1;
#X obj 198 300 bng 20 100 50 0 \$0-73 \$0-73 empty 0 -6 0 8 -1 -262144
-1;
#X obj 224 300 bng 20 100 50 0 \$0-74 \$0-74 empty 0 -6 0 8 -1 -262144
-1;
#X obj 276 300 bng 20 100 50 0 \$0-76 \$0-76 empty 0 -6 0 8 -1 -262144
-1;
#X obj 250 300 bng 20 100 50 0 \$0-75 \$0-75 empty 0 -6 0 8 -1 -262144
-1;
#X obj 302 300 bng 20 100 50 0 \$0-77 \$0-77 empty 0 -6 0 8 -1 -262144
-1;
#N canvas 0 0 621 528 get 0;
#X obj 69 41 r \$0-00;
#X obj 129 41 r \$0-01;
#X obj 189 41 r \$0-02;
#X obj 249 41 r \$0-03;
#X obj 309 41 r \$0-04;
#X obj 369 41 r \$0-05;
#X obj 429 41 r \$0-06;
#X obj 489 41 r \$0-07;
#X obj 69 61 r \$0-10;
#X obj 129 61 r \$0-11;
#X obj 189 61 r \$0-12;
#X obj 249 61 r \$0-13;
#X obj 309 61 r \$0-14;
#X obj 369 61 r \$0-15;
#X obj 429 61 r \$0-16;
#X obj 489 61 r \$0-17;
#X obj 69 81 r \$0-20;
#X obj 129 81 r \$0-21;
#X obj 189 81 r \$0-22;
#X obj 249 81 r \$0-23;
#X obj 307 81 r \$0-24;
#X obj 369 81 r \$0-25;
#X obj 429 81 r \$0-26;
#X obj 489 81 r \$0-27;
#X obj 69 101 r \$0-30;
#X obj 129 101 r \$0-31;
#X obj 189 101 r \$0-32;
#X obj 249 101 r \$0-33;
#X obj 309 101 r \$0-34;
#X obj 369 101 r \$0-35;
#X obj 429 101 r \$0-36;
#X obj 489 101 r \$0-37;
#X obj 69 121 r \$0-40;
#X obj 129 121 r \$0-41;
#X obj 189 121 r \$0-42;
#X obj 249 121 r \$0-43;
#X obj 309 121 r \$0-44;
#X obj 369 121 r \$0-45;
#X obj 429 121 r \$0-46;
#X obj 489 121 r \$0-47;
#X obj 69 141 r \$0-50;
#X obj 129 141 r \$0-51;
#X obj 189 141 r \$0-52;
#X obj 249 141 r \$0-53;
#X obj 309 141 r \$0-54;
#X obj 369 141 r \$0-55;
#X obj 429 140 r \$0-56;
#X obj 489 141 r \$0-57;
#X obj 69 161 r \$0-60;
#X obj 129 161 r \$0-61;
#X obj 189 161 r \$0-62;
#X obj 249 161 r \$0-63;
#X obj 309 161 r \$0-64;
#X obj 369 161 r \$0-65;
#X obj 429 161 r \$0-66;
#X obj 489 161 r \$0-67;
#X obj 69 181 r \$0-70;
#X obj 129 181 r \$0-71;
#X obj 189 181 r \$0-72;
#X obj 249 181 r \$0-73;
#X obj 309 181 r \$0-74;
#X obj 369 181 r \$0-75;
#X obj 429 181 r \$0-76;
#X obj 489 181 r \$0-77;
#X msg 148 229 1;
#X msg 188 229 2;
#X msg 228 230 3;
#X msg 268 229 4;
#X msg 308 229 5;
#X msg 348 229 6;
#X msg 389 229 7;
#X msg 428 229 8;
#X msg 149 252 9;
#X msg 189 252 10;
#X msg 229 252 11;
#X msg 269 252 12;
#X msg 309 252 13;
#X msg 349 252 14;
#X msg 389 252 15;
#X msg 429 252 16;
#X msg 149 272 17;
#X msg 189 272 18;
#X msg 229 272 19;
#X msg 269 272 20;
#X msg 309 272 21;
#X msg 349 272 22;
#X msg 389 272 23;
#X msg 429 272 24;
#X msg 149 292 25;
#X msg 190 292 26;
#X msg 229 292 27;
#X msg 269 292 28;
#X msg 309 292 29;
#X msg 349 292 30;
#X msg 389 292 31;
#X msg 429 292 32;
#X msg 149 312 33;
#X msg 189 312 34;
#X msg 229 311 35;
#X msg 269 312 36;
#X msg 309 312 37;
#X msg 349 312 38;
#X msg 389 312 39;
#X msg 429 312 40;
#X msg 149 332 41;
#X msg 189 332 42;
#X msg 230 332 43;
#X msg 269 332 44;
#X msg 309 332 45;
#X msg 349 332 46;
#X msg 389 332 47;
#X msg 429 332 48;
#X msg 149 352 49;
#X msg 189 352 50;
#X msg 229 352 51;
#X msg 269 352 52;
#X msg 309 352 53;
#X msg 349 351 54;
#X msg 389 352 55;
#X msg 429 352 56;
#X msg 189 371 58;
#X msg 229 372 59;
#X msg 269 372 60;
#X msg 309 372 61;
#X msg 349 372 62;
#X msg 389 372 63;
#X msg 429 372 64;
#X msg 148 372 57;
#X text 216 9 64 bang enumerator;
#X obj 269 450 - 1;
#X obj 269 477 outlet;
#X connect 0 0 64 0;
#X connect 1 0 65 0;
#X connect 2 0 66 0;
#X connect 3 0 67 0;
#X connect 4 0 68 0;
#X connect 5 0 69 0;
#X connect 6 0 70 0;
#X connect 7 0 71 0;
#X connect 8 0 72 0;
#X connect 9 0 73 0;
#X connect 10 0 74 0;
#X connect 11 0 75 0;
#X connect 12 0 76 0;
#X connect 13 0 77 0;
#X connect 14 0 78 0;
#X connect 15 0 79 0;
#X connect 16 0 80 0;
#X connect 17 0 81 0;
#X connect 18 0 82 0;
#X connect 19 0 83 0;
#X connect 20 0 84 0;
#X connect 21 0 85 0;
#X connect 22 0 86 0;
#X connect 23 0 87 0;
#X connect 24 0 88 0;
#X connect 25 0 89 0;
#X connect 26 0 90 0;
#X connect 27 0 91 0;
#X connect 28 0 92 0;
#X connect 29 0 93 0;
#X connect 30 0 94 0;
#X connect 31 0 95 0;
#X connect 32 0 96 0;
#X connect 33 0 97 0;
#X connect 34 0 98 0;
#X connect 35 0 99 0;
#X connect 36 0 100 0;
#X connect 37 0 101 0;
#X connect 38 0 102 0;
#X connect 39 0 103 0;
#X connect 40 0 104 0;
#X connect 41 0 105 0;
#X connect 42 0 106 0;
#X connect 43 0 107 0;
#X connect 44 0 108 0;
#X connect 45 0 109 0;
#X connect 46 0 110 0;
#X connect 47 0 111 0;
#X connect 48 0 112 0;
#X connect 49 0 113 0;
#X connect 50 0 114 0;
#X connect 51 0 115 0;
#X connect 52 0 116 0;
#X connect 53 0 117 0;
#X connect 54 0 118 0;
#X connect 55 0 119 0;
#X connect 56 0 127 0;
#X connect 57 0 120 0;
#X connect 58 0 121 0;
#X connect 59 0 122 0;
#X connect 60 0 123 0;
#X connect 61 0 124 0;
#X connect 62 0 125 0;
#X connect 63 0 126 0;
#X connect 64 0 129 0;
#X connect 65 0 129 0;
#X connect 66 0 129 0;
#X connect 67 0 129 0;
#X connect 68 0 129 0;
#X connect 69 0 129 0;
#X connect 70 0 129 0;
#X connect 71 0 129 0;
#X connect 72 0 129 0;
#X connect 73 0 129 0;
#X connect 74 0 129 0;
#X connect 75 0 129 0;
#X connect 76 0 129 0;
#X connect 77 0 129 0;
#X connect 78 0 129 0;
#X connect 79 0 129 0;
#X connect 80 0 129 0;
#X connect 81 0 129 0;
#X connect 82 0 129 0;
#X connect 83 0 129 0;
#X connect 84 0 129 0;
#X connect 85 0 129 0;
#X connect 86 0 129 0;
#X connect 87 0 129 0;
#X connect 88 0 129 0;
#X connect 89 0 129 0;
#X connect 90 0 129 0;
#X connect 91 0 129 0;
#X connect 92 0 129 0;
#X connect 93 0 129 0;
#X connect 94 0 129 0;
#X connect 95 0 129 0;
#X connect 96 0 129 0;
#X connect 97 0 129 0;
#X connect 98 0 129 0;
#X connect 99 0 129 0;
#X connect 100 0 129 0;
#X connect 101 0 129 0;
#X connect 102 0 129 0;
#X connect 103 0 129 0;
#X connect 104 0 129 0;
#X connect 105 0 129 0;
#X connect 106 0 129 0;
#X connect 107 0 129 0;
#X connect 108 0 129 0;
#X connect 109 0 129 0;
#X connect 110 0 129 0;
#X connect 111 0 129 0;
#X connect 112 0 129 0;
#X connect 113 0 129 0;
#X connect 114 0 129 0;
#X connect 115 0 129 0;
#X connect 116 0 129 0;
#X connect 117 0 129 0;
#X connect 118 0 129 0;
#X connect 119 0 129 0;
#X connect 120 0 129 0;
#X connect 121 0 129 0;
#X connect 122 0 129 0;
#X connect 123 0 129 0;
#X connect 124 0 129 0;
#X connect 125 0 129 0;
#X connect 126 0 129 0;
#X connect 127 0 129 0;
#X connect 129 0 130 0;
#X restore 518 47 pd get bangs from grid;
#X obj 518 168 spigot;
#X obj 544 115 del 10;
#X msg 544 140 1;
#X obj 544 90 t b b;
#X msg 574 140 0;
#X obj 544 68 r \$0-sendingblank;
#X obj 493 267 list append;
#X obj 610 210 list split 8;
#X obj 565 239 list append;
#N canvas 0 0 719 541 display 0;
#X obj 65 198 f;
#X obj 95 198 f;
#X obj 125 198 f;
#X obj 155 198 f;
#X obj 185 198 f;
#X obj 215 198 f;
#X obj 245 198 f;
#X obj 275 198 f;
#X obj 136 159 sel 0 1 2 3 4 5 6 7;
#X obj 161 129 mod 8;
#X obj 318 23 r \$0-seqlist;
#X obj 318 54 unpack f f f f f f f f;
#N canvas 0 0 829 574 send 0;
#X obj 122 222 s \$0-01;
#X obj 182 222 s \$0-02;
#X obj 242 222 s \$0-03;
#X obj 302 222 s \$0-04;
#X obj 362 222 s \$0-05;
#X obj 422 223 s \$0-06;
#X obj 482 222 s \$0-07;
#X obj 482 242 s \$0-17;
#X obj 422 242 s \$0-16;
#X obj 362 242 s \$0-15;
#X obj 302 242 s \$0-14;
#X obj 242 242 s \$0-13;
#X obj 182 242 s \$0-12;
#X obj 122 242 s \$0-11;
#X obj 62 242 s \$0-10;
#X obj 62 262 s \$0-20;
#X obj 122 262 s \$0-21;
#X obj 182 262 s \$0-22;
#X obj 242 262 s \$0-23;
#X obj 302 262 s \$0-24;
#X obj 362 262 s \$0-25;
#X obj 421 263 s \$0-26;
#X obj 482 262 s \$0-27;
#X obj 482 282 s \$0-37;
#X obj 422 282 s \$0-36;
#X obj 362 282 s \$0-35;
#X obj 302 282 s \$0-34;
#X obj 242 282 s \$0-33;
#X obj 182 282 s \$0-32;
#X obj 122 282 s \$0-31;
#X obj 62 282 s \$0-30;
#X obj 62 302 s \$0-40;
#X obj 122 302 s \$0-41;
#X obj 182 302 s \$0-42;
#X obj 242 302 s \$0-43;
#X obj 302 302 s \$0-44;
#X obj 362 302 s \$0-45;
#X obj 422 302 s \$0-46;
#X obj 482 302 s \$0-47;
#X obj 62 322 s \$0-50;
#X obj 122 322 s \$0-51;
#X obj 182 322 s \$0-52;
#X obj 242 322 s \$0-53;
#X obj 302 322 s \$0-54;
#X obj 362 322 s \$0-55;
#X obj 422 321 s \$0-56;
#X obj 482 322 s \$0-57;
#X obj 62 342 s \$0-60;
#X obj 122 342 s \$0-61;
#X obj 182 342 s \$0-62;
#X obj 242 342 s \$0-63;
#X obj 302 342 s \$0-64;
#X obj 362 342 s \$0-65;
#X obj 422 342 s \$0-66;
#X obj 482 342 s \$0-67;
#X obj 62 362 s \$0-70;
#X obj 122 362 s \$0-71;
#X obj 182 362 s \$0-72;
#X obj 242 362 s \$0-73;
#X obj 302 362 s \$0-74;
#X obj 362 362 s \$0-75;
#X obj 422 362 s \$0-76;
#X obj 482 362 s \$0-77;
#X obj 62 222 s \$0-00;
#X obj 108 165 select 0 1 2 3 4 5 6 7 8 9 10 11 12 13 14 15 16 17 18
19 20 21 22 23 24 25 26 27 28 29 30 31;
#X obj 160 127 select 0 1 2 3 4 5 6 7 8 9 10 11 12 13 14 15 16 17 18
19 20 21 22 23 24 25 26 27 28 29 30 31;
#X obj 108 81 moses 32;
#X obj 159 103 - 32;
#X obj 108 35 inlet;
#X obj 108 58 clip 0 63;
#X connect 64 0 63 0;
#X connect 64 1 0 0;
#X connect 64 2 1 0;
#X connect 64 3 2 0;
#X connect 64 4 3 0;
#X connect 64 5 4 0;
#X connect 64 6 5 0;
#X connect 64 7 6 0;
#X connect 64 8 14 0;
#X connect 64 9 13 0;
#X connect 64 10 12 0;
#X connect 64 11 11 0;
#X connect 64 12 10 0;
#X connect 64 13 9 0;
#X connect 64 14 8 0;
#X connect 64 15 7 0;
#X connect 64 16 15 0;
#X connect 64 17 16 0;
#X connect 64 18 17 0;
#X connect 64 19 18 0;
#X connect 64 20 19 0;
#X connect 64 21 20 0;
#X connect 64 22 21 0;
#X connect 64 23 22 0;
#X connect 64 24 30 0;
#X connect 64 25 29 0;
#X connect 64 26 28 0;
#X connect 64 27 27 0;
#X connect 64 28 26 0;
#X connect 64 29 25 0;
#X connect 64 30 24 0;
#X connect 64 31 23 0;
#X connect 65 0 31 0;
#X connect 65 1 32 0;
#X connect 65 2 33 0;
#X connect 65 3 34 0;
#X connect 65 4 35 0;
#X connect 65 5 36 0;
#X connect 65 6 37 0;
#X connect 65 7 38 0;
#X connect 65 8 39 0;
#X connect 65 9 40 0;
#X connect 65 10 41 0;
#X connect 65 11 42 0;
#X connect 65 12 43 0;
#X connect 65 13 44 0;
#X connect 65 14 45 0;
#X connect 65 15 46 0;
#X connect 65 16 47 0;
#X connect 65 17 48 0;
#X connect 65 18 49 0;
#X connect 65 19 50 0;
#X connect 65 20 51 0;
#X connect 65 21 52 0;
#X connect 65 22 53 0;
#X connect 65 23 54 0;
#X connect 65 24 55 0;
#X connect 65 25 56 0;
#X connect 65 26 57 0;
#X connect 65 27 58 0;
#X connect 65 28 59 0;
#X connect 65 29 60 0;
#X connect 65 30 61 0;
#X connect 65 31 62 0;
#X connect 66 0 64 0;
#X connect 66 1 67 0;
#X connect 67 0 65 0;
#X connect 68 0 69 0;
#X connect 69 0 66 0;
#X restore 168 303 pd send bangs to grid;
#X obj 168 255 t f b;
#X obj 198 280 s \$0-sendingblank;
#X obj 168 233 + 0;
#X obj 338 161 sel 7;
#X obj 338 187 outlet done;
#X obj 71 304 outlet notes;
#X obj 161 23 inlet time;
#X connect 0 0 15 0;
#X connect 1 0 15 0;
#X connect 2 0 15 0;
#X connect 3 0 15 0;
#X connect 4 0 15 0;
#X connect 5 0 15 0;
#X connect 6 0 15 0;
#X connect 7 0 15 0;
#X connect 8 0 0 0;
#X connect 8 1 1 0;
#X connect 8 2 2 0;
#X connect 8 3 3 0;
#X connect 8 4 4 0;
#X connect 8 5 5 0;
#X connect 8 6 6 0;
#X connect 8 7 7 0;
#X connect 9 0 8 0;
#X connect 9 0 16 0;
#X connect 10 0 11 0;
#X connect 11 0 0 1;
#X connect 11 1 1 1;
#X connect 11 2 2 1;
#X connect 11 3 3 1;
#X connect 11 4 4 1;
#X connect 11 5 5 1;
#X connect 11 6 6 1;
#X connect 11 7 7 1;
#X connect 13 0 12 0;
#X connect 13 1 14 0;
#X connect 15 0 13 0;
#X connect 15 0 18 0;
#X connect 16 0 17 0;
#X connect 19 0 9 0;
#X restore 372 233 pd display scanner;
#X obj 493 296 s \$0-seqlist;
#X obj 512 320 outlet list;
#X obj 372 325 outlet notes;
#X obj 372 182 inlet time;
#X connect 83 0 84 0;
#X connect 84 0 92 0;
#X connect 85 0 86 0;
#X connect 86 0 84 1;
#X connect 87 0 85 0;
#X connect 87 1 88 0;
#X connect 88 0 84 1;
#X connect 89 0 87 0;
#X connect 90 0 94 0;
#X connect 90 0 95 0;
#X connect 91 0 92 1;
#X connect 91 2 92 1;
#X connect 92 0 90 1;
#X connect 92 0 91 0;
#X connect 93 0 96 0;
#X connect 93 1 90 0;
#X connect 97 0 93 0;
#X coords 0 -1 1 1 240 240 1 100 100;
#X restore 139 133 pd crystal interface;
#X obj 139 583 s moogersploogernote;
#X obj 302 459 int;
#X obj 302 437 r mainkey;
#X obj 115 42 r localtime;
#N canvas 569 455 453 342 distribute 0;
#X obj 95 134 r harmonics;
#X obj 95 164 unpack f f f f f f f f;
#X obj 155 57 div 8;
#X obj 112 57 mod 8;
#X floatatom 112 81 5 0 0 0 - - -;
#X obj 57 199 f;
#X obj 87 199 f;
#X obj 117 199 f;
#X obj 147 199 f;
#X obj 177 199 f;
#X obj 207 199 f;
#X obj 237 199 f;
#X obj 267 199 f;
#X obj 71 106 sel 0 1 2 3 4 5 6 7;
#X obj 159 78 * 12;
#X obj 122 239 +;
#X obj 112 0 inlet;
#X obj 112 23 t f f;
#X obj 122 263 outlet;
#X connect 0 0 1 0;
#X connect 1 0 5 1;
#X connect 1 1 6 1;
#X connect 1 2 7 1;
#X connect 1 3 8 1;
#X connect 1 4 9 1;
#X connect 1 5 10 1;
#X connect 1 6 11 1;
#X connect 1 7 12 1;
#X connect 2 0 14 0;
#X connect 3 0 4 0;
#X connect 3 0 13 0;
#X connect 5 0 15 0;
#X connect 6 0 15 0;
#X connect 7 0 15 0;
#X connect 8 0 15 0;
#X connect 9 0 15 0;
#X connect 10 0 15 0;
#X connect 11 0 15 0;
#X connect 12 0 15 0;
#X connect 13 0 5 0;
#X connect 13 1 6 0;
#X connect 13 2 7 0;
#X connect 13 3 8 0;
#X connect 13 4 9 0;
#X connect 13 5 10 0;
#X connect 13 6 11 0;
#X connect 13 7 12 0;
#X connect 14 0 15 1;
#X connect 15 0 18 0;
#X connect 16 0 17 0;
#X connect 17 0 3 0;
#X connect 17 1 2 0;
#X restore 139 439 pd distribute grid key;
#X obj 139 561 mtof;
#X obj 139 482 +;
#X obj 390 260 hsl 256 32 0 12 0 0 \$0-sploogoct empty pitch 100 16
1 10 -195568 -258699 -1 0 1;
#X obj 375 411 r \$0-sploogoct;
#X obj 375 433 int;
#X obj 139 518 +;
#X obj 375 455 * 12;
#X obj 375 478 - 60;
#X obj 390 212 hsl 256 32 8 0 0 0 \$0-clockspeed empty speed 100 16
1 10 -195568 -258699 -1 25300 1;
#X obj 137 70 /;
#X obj 234 29 r \$0-clockspeed;
#X obj 234 51 int;
#X obj 234 73 + 1;
#X connect 6 0 7 0;
#X connect 6 0 7 1;
#X connect 8 0 13 0;
#X connect 10 0 15 1;
#X connect 11 0 10 0;
#X connect 12 0 23 0;
#X connect 13 0 15 0;
#X connect 14 0 9 0;
#X connect 15 0 19 0;
#X connect 17 0 18 0;
#X connect 18 0 20 0;
#X connect 19 0 14 0;
#X connect 20 0 21 0;
#X connect 21 0 19 1;
#X connect 23 0 8 0;
#X connect 24 0 25 0;
#X connect 25 0 26 0;
#X connect 26 0 23 1;
#X coords 0 -1 1 1 560 300 1 100 100;
#X restore 100 100 pd moogerslooger;
#X coords 0 -1 1 1 560 300 1 100 100;
