#N canvas 815 386 393 307 10;
#N canvas 74 241 931 760 6s-3cos-synth 0;
#N canvas 759 117 455 763 6s3cos1 0;
#X obj 115 200 osc~;
#X obj 64 200 osc~;
#X obj 6 200 osc~;
#X obj 64 485 clip~ -1 1;
#X obj 48 570 cos~;
#X obj 49 545 +~;
#X obj 7 414 *~ 0.3;
#X obj 64 414 *~ 0.3;
#X obj 114 414 *~ 0.3;
#X obj 48 648 *~ 0.16;
#X obj 65 458 +~;
#X obj 96 458 * -1;
#X obj 49 519 +~;
#X obj 115 171 *;
#X obj 115 146 t b f;
#X obj 8 485 *~ 0.25;
#X obj 48 623 *~;
#X obj 195 191 vline~;
#X obj 195 311 *~;
#X obj 195 333 *~;
#X obj 47 596 hip~ 10;
#X msg 196 159 0 \$1;
#X obj 237 43 * 3000;
#X obj 196 136 f 100;
#X obj 196 108 t b b;
#X obj 37 15 inlet;
#X obj 87 15 inlet;
#X obj 137 15 inlet;
#X obj 187 15 inlet;
#X obj 237 15 inlet;
#X obj -13 15 inlet;
#X obj -13 46 mtof;
#X obj -13 70 t b f f f;
#X obj 64 388 *~;
#X obj 115 390 *~;
#X obj 165 334 *~;
#X obj 137 334 *~;
#X obj 137 308 sig~;
#X obj 295 14 inlet;
#X obj 49 673 outlet~;
#X msg 238 159 1 0;
#X obj 195 283 lop~ 5;
#X obj 344 16 inlet tempo;
#N canvas 694 548 450 300 bpm2s 0;
#X obj 118 22 inlet bpm;
#X obj 118 51 / 60;
#X obj 118 120 /;
#X msg 118 97 1;
#X obj 118 74 t b f;
#X obj 118 213 outlet s;
#X connect 0 0 1 0;
#X connect 1 0 4 0;
#X connect 2 0 5 0;
#X connect 3 0 2 0;
#X connect 4 0 3 0;
#X connect 4 1 2 1;
#X restore 344 45 pd bpm2s;
#X obj 64 177 +;
#X obj 79 152 * 4;
#X obj 37 38 int;
#X obj 61 67 t b f;
#X obj 267 198 vline~;
#X msg 268 166 0 \$1;
#X obj 268 100 t b b;
#X obj 310 143 f;
#X obj 268 143 f;
#X msg 309 166 1 \$1;
#X obj 267 121 del;
#X obj 337 74 * 1000;
#X obj 194 259 *~ 0.7;
#X connect 0 0 34 0;
#X connect 1 0 33 0;
#X connect 2 0 6 0;
#X connect 3 0 12 1;
#X connect 4 0 20 0;
#X connect 5 0 4 0;
#X connect 6 0 10 0;
#X connect 6 0 15 0;
#X connect 7 0 10 0;
#X connect 8 0 10 0;
#X connect 9 0 39 0;
#X connect 10 0 3 0;
#X connect 11 0 3 1;
#X connect 12 0 5 0;
#X connect 13 0 0 0;
#X connect 14 0 13 0;
#X connect 14 1 13 1;
#X connect 15 0 12 0;
#X connect 16 0 9 0;
#X connect 17 0 56 0;
#X connect 18 0 19 0;
#X connect 18 0 19 1;
#X connect 18 0 35 1;
#X connect 19 0 16 1;
#X connect 20 0 16 0;
#X connect 21 0 17 0;
#X connect 22 0 23 1;
#X connect 23 0 21 0;
#X connect 24 0 23 0;
#X connect 24 1 40 0;
#X connect 25 0 46 0;
#X connect 26 0 14 0;
#X connect 27 0 3 2;
#X connect 27 0 11 0;
#X connect 28 0 5 1;
#X connect 29 0 22 0;
#X connect 30 0 31 0;
#X connect 31 0 32 0;
#X connect 32 0 24 0;
#X connect 32 0 50 0;
#X connect 32 1 2 0;
#X connect 32 2 44 0;
#X connect 32 3 13 0;
#X connect 33 0 7 0;
#X connect 34 0 8 0;
#X connect 35 0 34 1;
#X connect 36 0 33 1;
#X connect 37 0 36 0;
#X connect 37 0 35 0;
#X connect 38 0 37 0;
#X connect 40 0 17 0;
#X connect 41 0 18 1;
#X connect 41 0 18 0;
#X connect 41 0 36 1;
#X connect 42 0 43 0;
#X connect 43 0 45 0;
#X connect 43 0 55 0;
#X connect 44 0 1 0;
#X connect 45 0 44 1;
#X connect 46 0 47 0;
#X connect 47 0 45 0;
#X connect 47 1 45 1;
#X connect 48 0 56 0;
#X connect 49 0 48 0;
#X connect 50 0 54 0;
#X connect 50 1 51 0;
#X connect 51 0 53 0;
#X connect 52 0 49 0;
#X connect 53 0 48 0;
#X connect 54 0 52 0;
#X connect 55 0 51 1;
#X connect 55 0 52 1;
#X connect 55 0 54 1;
#X connect 56 0 41 0;
#X restore -292 471 pd 6s3cos1;
#X obj -283 394 r \$0-foffset1-s;
#X obj -151 394 r \$0-foffset2-s;
#X obj -264 418 r \$0-clip-s;
#X obj -150 417 r \$0-shape-s;
#X obj -263 442 r \$0-decay-s;
#X obj -149 440 r \$0-mod-s;
#X obj 100 100 cnv 15 400 300 empty empty warble-o-tron 20 16 1 22
-233017 -259347 0;
#X obj 283 233 hsl 192 32 0 1 0 0 \$0-clip-s empty clip 100 16 1 10
-195568 -258699 -1 6100 1;
#X obj 283 193 hsl 192 32 1.9 2.2 0 0 \$0-foffset2-s empty F2 100 16
1 10 -195568 -258699 -1 10100 1;
#X obj 283 273 hsl 192 32 0 0.25 0 0 \$0-shape-s empty shape 100 16
1 10 -195568 -258699 -1 4100 1;
#X obj 251 142 tgl 15 0 \$0-drumboxmute empty on/off 0 -6 1 8 -195568
-258699 -1 1 1;
#X obj 283 153 hsl 192 32 1 4 0 0 \$0-foffset1-s empty F1 100 16 1
10 -195568 -258699 -1 400 1;
#X obj -292 585 *~;
#X obj -275 562 line~;
#X obj -277 495 t b f;
#X obj -275 519 *;
#X msg -275 539 \$1 100;
#X obj -214 472 r \$0-3cosvol;
#X obj 283 313 hsl 192 32 0 1 0 0 \$0-decay-s empty decay 100 16 1
10 -195568 -258699 -1 1100 1;
#X obj 283 353 hsl 192 32 0 1 0 0 \$0-mod-s empty mod 100 16 1 10 -195568
-258699 -1 15200 1;
#X obj 115 161 vsl 48 224 0 1 0 0 \$0-3cosvol empty volume 0 -8 1 12
-166441 -258699 -258699 7400 1;
#X obj 179 161 vsl 48 224 0 6 0 0 \$0-3coswob empty wobble 0 -8 1 12
-166441 -258699 -258699 0 1;
#X obj -292 617 dac~;
#X obj -510 24 r tempo;
#X obj -108 -62 r mainkey;
#X obj -25 -63 r control;
#X obj -287 -61 r localtime;
#X obj -199 -61 r harmonics;
#X obj -347 -60 r tempo;
#N canvas 0 0 586 424 bsseq 0;
#X obj -154 252 f;
#X obj -146 54 mod 16;
#X obj -109 -57 r \$0-3coswob;
#X obj -109 6 swap 2;
#X obj -109 29 pow;
#X obj -109 -16 int;
#X obj -154 274 mod 12;
#X obj -58 -11 unpack f f f;
#X obj -117 251 f;
#X obj -146 178 sel 0 1 2;
#X obj -85 251 f;
#X obj -146 74 sel 0;
#X obj -146 94 random 100;
#X obj -146 136 sel 1;
#X obj -146 115 > 30;
#X obj -154 298 + 36;
#X obj -146 156 random 4;
#N canvas 0 0 450 300 of3 0;
#X obj -254 155 sel 0;
#X obj -254 178 outlet;
#X obj -254 49 inlet;
#X obj -254 133 random 3;
#X connect 0 0 1 0;
#X connect 2 0 3 0;
#X connect 3 0 0 0;
#X restore -127 214 pd of3;
#N canvas 0 0 450 300 of3 0;
#X obj -254 155 sel 0;
#X obj -254 178 outlet;
#X obj -254 49 inlet;
#X obj -254 133 random 3;
#X connect 0 0 1 0;
#X connect 2 0 3 0;
#X connect 3 0 0 0;
#X restore -74 214 pd of3;
#X obj -155 -80 inlet time;
#X obj -3 -80 inlet harmonics;
#X obj -154 319 outlet notes;
#X connect 0 0 6 0;
#X connect 1 0 11 0;
#X connect 2 0 5 0;
#X connect 3 0 4 0;
#X connect 3 1 4 1;
#X connect 4 0 1 1;
#X connect 5 0 3 0;
#X connect 6 0 15 0;
#X connect 7 0 0 1;
#X connect 7 1 8 1;
#X connect 7 2 10 1;
#X connect 8 0 6 0;
#X connect 9 0 0 0;
#X connect 9 1 17 0;
#X connect 9 2 18 0;
#X connect 10 0 6 0;
#X connect 11 0 12 0;
#X connect 12 0 14 0;
#X connect 13 0 16 0;
#X connect 14 0 13 0;
#X connect 15 0 21 0;
#X connect 16 0 9 0;
#X connect 17 0 8 0;
#X connect 18 0 10 0;
#X connect 19 0 1 0;
#X connect 20 0 7 0;
#X restore -247 32 pd bsseq;
#X connect 0 0 13 0;
#X connect 1 0 0 1;
#X connect 2 0 0 2;
#X connect 3 0 0 3;
#X connect 4 0 0 4;
#X connect 5 0 0 5;
#X connect 6 0 0 6;
#X connect 11 0 15 0;
#X connect 13 0 23 0;
#X connect 13 0 23 1;
#X connect 14 0 13 1;
#X connect 15 0 16 0;
#X connect 15 1 16 1;
#X connect 16 0 17 0;
#X connect 17 0 14 0;
#X connect 18 0 16 0;
#X connect 27 0 30 0;
#X connect 28 0 30 1;
#X connect 29 0 0 7;
#X connect 30 0 0 0;
#X coords 0 -1 1 1 400 300 1 100 100;
#X restore 0 0 pd 6s-3cos-synth;
