#N canvas 901 629 307 301 10;
#N canvas 0 0 1253 916 ghandi 0;
#X obj 489 440 *~;
#X obj 477 394 hip~ 200;
#N canvas 0 0 1257 895 delement3 0;
#X obj 1 218 +~;
#X obj 19 160 *~ 0.333;
#X obj 19 139 hip~ 10;
#X obj 110 163 + 0.8;
#X obj 3 95 inlet~;
#X obj 31 215 outlet~;
#X obj 19 116 delread~ \$0-d3 50;
#X obj 1 242 delwrite~ \$0-d3 100;
#X obj 109 72 inlet;
#X obj 161 71 inlet;
#X obj 19 184 clip~ -1 1;
#X connect 0 0 7 0;
#X connect 1 0 10 0;
#X connect 2 0 1 0;
#X connect 3 0 1 1;
#X connect 4 0 0 0;
#X connect 6 0 2 0;
#X connect 8 0 6 0;
#X connect 9 0 3 0;
#X connect 10 0 0 1;
#X connect 10 0 5 0;
#X coords 0 0 1 1 100 100 0;
#X restore 370 578 pd delement3;
#X obj 636 254 mtof;
#X obj 636 199 unpack 1 2 3;
#X obj 685 253 mtof;
#X obj 735 253 mtof;
#N canvas 0 0 1257 895 delement3 0;
#X obj 3 229 +~;
#X obj 19 160 *~ 0.333;
#X obj 19 139 hip~ 10;
#X obj 110 163 + 0.8;
#X obj 3 95 inlet~;
#X obj 47 234 outlet~;
#X obj 109 72 inlet;
#X obj 19 116 delread~ \$0-d1 50;
#X obj 3 253 delwrite~ \$0-d1 100;
#X obj 157 30 inlet;
#X obj 21 196 clip~ -1 1;
#X connect 0 0 8 0;
#X connect 1 0 10 0;
#X connect 2 0 1 0;
#X connect 3 0 1 1;
#X connect 4 0 0 0;
#X connect 6 0 7 0;
#X connect 7 0 2 0;
#X connect 9 0 3 0;
#X connect 10 0 5 0;
#X connect 10 0 0 1;
#X coords 0 0 1 1 100 100 0;
#X restore 490 577 pd delement3;
#X obj 584 356 * 1000;
#X obj 685 350 * 1000;
#X obj 735 349 * 1000;
#N canvas 0 0 1257 895 delement3 0;
#X obj 3 223 +~;
#X obj 19 160 *~ 0.333;
#X obj 19 139 hip~ 10;
#X obj 110 163 + 0.8;
#X obj 3 95 inlet~;
#X obj 35 208 outlet~;
#X obj 109 72 inlet;
#X obj 19 116 delread~ \$0-d2 50;
#X obj 3 247 delwrite~ \$0-d2 100;
#X obj 185 42 inlet;
#X obj 18 181 clip~ -1 1;
#X connect 0 0 8 0;
#X connect 1 0 10 0;
#X connect 2 0 1 0;
#X connect 3 0 1 1;
#X connect 4 0 0 0;
#X connect 6 0 7 0;
#X connect 7 0 2 0;
#X connect 9 0 3 0;
#X connect 10 0 5 0;
#X connect 10 0 0 1;
#X coords 0 0 1 1 100 100 0;
#X restore 612 578 pd delement3;
#X obj 577 438 line;
#X obj 685 391 line;
#X obj 735 389 line;
#X obj 584 333 * 0.25;
#X obj 685 326 * 0.25;
#X obj 735 325 * 0.25;
#X obj 611 625 lop~ 5000;
#X obj 611 647 lop~ 5000;
#X obj 612 600 hip~ 100;
#X obj 490 597 hip~ 100;
#X obj 371 600 hip~ 100;
#X obj 490 623 bp~ 1000 1;
#X obj 371 626 bp~ 1000 1;
#X obj 633 414 * 4;
#X obj 785 412 * 8;
#X obj 633 392 line;
#X obj 785 387 line;
#X obj 100 100 cnv 15 300 300 empty empty ghandipluck 20 16 1 22 -233017
-259347 0;
#X obj 275 120 tgl 15 0 \$0-ghandimute empty on/off 0 -6 1 8 -195568
-258699 -1 1 1;
#X obj 175 234 hsl 192 32 0 110 0 0 \$0-ghandi1 empty i1 100 16 1 10
-195568 -258699 -1 18500 1;
#X obj 108 155 vsl 48 224 0 0.5 0 0 \$0-ghandipluck empty pluck 0 -8
1 12 -166441 -258699 -258699 19500 1;
#X obj 449 513 r \$0-ghandi1;
#X obj 569 514 r \$0-ghandi2;
#X obj 691 514 r \$0-ghandi3;
#X obj 449 533 / 127;
#X obj 449 553 * 0.2;
#X obj 569 535 / 127;
#X obj 569 556 * 0.2;
#X obj 691 535 / 127;
#X obj 691 556 * 0.2;
#X obj 735 276 swap 1;
#X obj 735 298 /;
#X obj 685 276 swap 1;
#X obj 685 298 /;
#X obj 636 277 swap 1;
#X obj 636 300 /;
#X obj 529 874 dac~;
#X obj 511 418 sig~;
#X obj 427 147 r \$0-ghandipluck;
#X obj 175 274 hsl 192 32 0 100 0 0 \$0-ghandi2 empty i2 100 16 1 10
-195568 -258699 -1 18500 1;
#X obj 175 314 hsl 192 32 0 110 0 0 \$0-ghandi3 empty i3 100 16 1 10
-195568 -258699 -1 18700 1;
#X obj 531 850 *~;
#X obj 799 621 line~;
#X msg 800 601 \$1 100;
#X obj 800 579 *;
#X obj 800 556 t b f;
#X obj 786 535 r \$0-ghandivolume;
#X obj 788 514 r \$0-ghandimute;
#X obj 176 156 hsl 192 32 0 1 0 0 \$0-ghandivolume empty volume 100
16 1 10 -233017 -258699 -1 18200 1;
#X obj 561 68 r mainkey;
#X obj 633 67 r control;
#X obj 477 259 r localtime;
#X obj 636 177 r harmonics;
#X obj 502 69 r tempo;
#X obj 477 283 mod 16;
#X obj 477 305 sel 0;
#X obj 175 194 hsl 192 32 0 127 0 0 \$0-ghandispeed empty speed 100
16 1 10 -195568 -258699 -1 7400 1;
#X obj 513 180 r \$0-ghandispeed;
#X obj 513 200 / 127;
#X obj 513 220 * 16;
#X obj 513 239 + 1;
#N canvas 0 0 450 300 plk 0;
#X obj 107 70 vline~;
#X msg 107 45 1 0 0 \, 0 \$1 1;
#X obj 106 95 clip~ 0 1;
#X obj 107 120 *~;
#X obj 108 142 outlet~;
#X obj 107 19 inlet;
#X connect 0 0 2 0;
#X connect 1 0 0 0;
#X connect 2 0 3 0;
#X connect 2 0 3 1;
#X connect 3 0 4 0;
#X connect 5 0 1 0;
#X restore 461 360 pd plk;
#X obj 461 336 f;
#X floatatom 463 231 5 0 0 0 - - -;
#X obj 428 183 * 300;
#X obj 511 370 + 0.0125;
#X obj 511 345 / 8;
#X obj 489 462 clip~ 0 0.5;
#X obj 554 710 env~;
#X obj 554 753 sig~;
#X obj 532 797 pow~;
#X obj 554 775 +~ 1;
#X msg 577 418 \$1 10;
#X msg 633 373 \$1 10;
#X msg 685 372 \$1 10;
#X msg 735 370 \$1 10;
#X msg 785 368 \$1 10;
#X obj 554 732 / 20;
#X floatatom 646 235 5 0 0 0 - - -;
#X floatatom 691 234 5 0 0 0 - - -;
#X floatatom 738 232 5 0 0 0 - - -;
#X obj 544 689 hip~ 10;
#X obj 532 819 hip~ 20;
#X connect 0 0 79 0;
#X connect 1 0 0 0;
#X connect 2 0 22 0;
#X connect 3 0 85 0;
#X connect 3 0 46 0;
#X connect 4 0 3 0;
#X connect 4 0 90 0;
#X connect 4 1 5 0;
#X connect 4 1 91 0;
#X connect 4 2 6 0;
#X connect 4 2 92 0;
#X connect 5 0 88 0;
#X connect 5 0 44 0;
#X connect 6 0 42 0;
#X connect 7 0 21 0;
#X connect 8 0 84 0;
#X connect 9 0 86 0;
#X connect 10 0 87 0;
#X connect 11 0 20 0;
#X connect 12 0 2 1;
#X connect 13 0 7 1;
#X connect 14 0 11 1;
#X connect 15 0 8 0;
#X connect 16 0 9 0;
#X connect 17 0 10 0;
#X connect 18 0 19 0;
#X connect 19 0 93 0;
#X connect 20 0 18 0;
#X connect 21 0 23 0;
#X connect 22 0 24 0;
#X connect 23 0 93 0;
#X connect 24 0 93 0;
#X connect 25 0 24 1;
#X connect 26 0 23 1;
#X connect 27 0 25 0;
#X connect 28 0 26 0;
#X connect 33 0 36 0;
#X connect 34 0 38 0;
#X connect 35 0 40 0;
#X connect 36 0 37 0;
#X connect 37 0 2 2;
#X connect 38 0 39 0;
#X connect 39 0 7 2;
#X connect 40 0 41 0;
#X connect 41 0 11 2;
#X connect 42 0 43 0;
#X connect 42 1 43 1;
#X connect 43 0 17 0;
#X connect 44 0 45 0;
#X connect 44 1 45 1;
#X connect 45 0 16 0;
#X connect 46 0 47 0;
#X connect 46 1 47 1;
#X connect 47 0 15 0;
#X connect 49 0 0 1;
#X connect 50 0 76 0;
#X connect 50 0 78 0;
#X connect 53 0 48 0;
#X connect 53 0 48 1;
#X connect 54 0 53 1;
#X connect 55 0 54 0;
#X connect 56 0 55 0;
#X connect 57 0 56 0;
#X connect 57 1 56 1;
#X connect 58 0 56 0;
#X connect 59 0 57 0;
#X connect 63 0 66 0;
#X connect 64 0 4 0;
#X connect 66 0 67 0;
#X connect 67 0 74 0;
#X connect 69 0 70 0;
#X connect 70 0 71 0;
#X connect 71 0 72 0;
#X connect 72 0 66 1;
#X connect 73 0 1 0;
#X connect 74 0 73 0;
#X connect 75 0 74 1;
#X connect 76 0 75 0;
#X connect 77 0 49 0;
#X connect 78 0 77 0;
#X connect 79 0 2 0;
#X connect 79 0 7 0;
#X connect 79 0 11 0;
#X connect 80 0 89 0;
#X connect 81 0 83 0;
#X connect 82 0 94 0;
#X connect 83 0 82 1;
#X connect 84 0 12 0;
#X connect 85 0 27 0;
#X connect 86 0 13 0;
#X connect 87 0 14 0;
#X connect 88 0 28 0;
#X connect 89 0 81 0;
#X connect 93 0 80 0;
#X connect 93 0 82 0;
#X connect 94 0 53 0;
#X coords 0 -1 1 1 300 300 1 100 100;
#X restore 3 -43 pd ghandi;
