#N canvas 544 503 509 206 10;
#N canvas 0 0 1253 916 oldstring 0;
#X obj -88 333 r mainkey;
#X obj -5 332 r control;
#X obj -340 340 r localtime;
#X obj -179 334 r harmonics;
#X obj -255 340 r tempo;
#X obj -249 547 phasor~;
#X obj -250 498 sig~;
#X obj -250 521 +~;
#X obj -180 361 unpack f f f f;
#X obj -199 429 r \$0-warble;
#X obj -216 451 noise~;
#X obj -215 474 lop~ 4;
#X obj -215 497 *~;
#X obj -146 1062 dac~;
#X obj -166 547 phasor~;
#X obj -167 498 sig~;
#X obj -167 521 +~;
#X obj -116 429 r \$0-warble;
#X obj -133 451 noise~;
#X obj -132 474 lop~ 4;
#X obj -132 497 *~;
#X obj -81 547 phasor~;
#X obj -82 498 sig~;
#X obj -82 521 +~;
#X obj -31 429 r \$0-warble;
#X obj -48 451 noise~;
#X obj -47 474 lop~ 4;
#X obj -47 497 *~;
#X obj 2 547 phasor~;
#X obj 1 498 sig~;
#X obj 1 521 +~;
#X obj 52 429 r \$0-warble;
#X obj 35 451 noise~;
#X obj 36 474 lop~ 4;
#X obj 36 497 *~;
#X obj -250 474 mtof;
#X obj -167 474 mtof;
#X obj -82 474 mtof;
#X obj 1 474 mtof;
#X obj -165 693 *~ 0.125;
#X obj -166 672 vcf~;
#X obj -340 582 line~;
#X msg -239 630 2;
#X obj -340 363 mod 32;
#X obj -255 364 / 60;
#X obj -255 386 swap 1;
#X obj -255 408 /;
#X obj -340 387 / 32;
#X obj -340 430 cos;
#X obj -340 451 + 1;
#X obj -340 410 * 6.283;
#X obj -340 513 + 100;
#X obj -340 490 * 3000;
#X obj -255 231 r \$0-lfo1;
#X obj -254 316 t f f;
#X obj -255 253 swap 2;
#X obj -254 274 pow;
#X obj -254 293 + 1;
#X obj -340 538 pack f 100;
#X obj -255 429 * 125;
#X obj -166 627 pow~;
#X obj -167 596 *~ 0.12;
#X obj -339 607 *~;
#X obj -322 559 r \$0-flux;
#X obj -339 635 +~;
#X obj -300 581 r \$0-filterbase;
#X obj -110 596 + 1;
#X obj -110 573 r \$0-powermod;
#X obj -180 383 mod 12;
#X obj -130 383 mod 12;
#X obj -83 383 mod 12;
#X obj -33 383 mod 12;
#X obj -58 758 r \$0-stringvolume;
#X obj -12 780 t b f;
#X obj -12 804 *;
#X obj -12 850 line~;
#X msg -12 826 \$1 100;
#X obj -12 736 r \$0-stringmute;
#X obj -415 230 r \$0-amplfospeed;
#X obj -477 559 r \$0-amplfo;
#X obj -500 340 r localtime;
#X obj -415 340 r tempo;
#X obj -500 582 line~;
#X obj -500 365 mod 32;
#X obj -415 362 / 60;
#X obj -415 384 swap 1;
#X obj -415 406 /;
#X obj -500 389 / 32;
#X obj -500 437 cos;
#X obj -500 460 + 1;
#X obj -500 413 * 6.283;
#X obj -414 316 t f f;
#X obj -415 253 swap 2;
#X obj -414 274 pow;
#X obj -414 293 + 1;
#X obj -500 538 pack f 100;
#X obj -415 427 * 125;
#X obj -499 607 *~;
#X obj -499 652 sqrt~;
#X obj -499 630 lop~ 12;
#X obj -63 913 *~;
#X obj -499 675 +~ 0.5;
#X obj -130 627 r \$0-filterres;
#X obj -239 609 loadbang;
#X obj 100 100 cnv 15 500 200 empty empty oldestryng 20 12 1 18 -233017
-258699 0;
#X obj 189 185 hsl 192 32 1 100 0 1 \$0-warble empty old 80 16 1 10
-195568 -258699 -1 2900 1;
#X obj 403 241 hradio 15 1 1 8 \$0-lfo1 empty filter-lfo-speed 0 -10
1 10 -166441 -258699 -1 2;
#X obj 402 108 hsl 192 32 1 32 0 1 \$0-powermod empty power 80 16 1
10 -195568 -258699 -1 6800 1;
#X obj 403 186 hsl 192 32 0 1 0 1 \$0-flux empty filter-lfo 80 16 1
10 -195568 -258699 -1 8900 1;
#X obj 402 147 hsl 192 32 1 1000 0 1 \$0-filterbase empty filter 80
16 1 10 -195568 -258699 -1 16200 1;
#X obj 189 147 hsl 192 32 0 1 0 1 \$0-stringvolume empty volume 80
16 1 10 -195568 -258699 -1 15700 1;
#X obj 124 134 tgl 15 0 \$0-stringmute empty on/off 0 -6 1 10 -262144
-1 -1 1 1;
#X obj 189 223 hsl 192 32 0 1 0 1 \$0-amplfo empty amp-lfo 80 16 1
10 -195568 -258699 -1 12600 1;
#X obj 191 277 hradio 15 1 1 8 \$0-amplfospeed empty amp-lfo-speed
0 -10 1 10 -166441 -258699 -1 4;
#X obj 403 276 hradio 15 1 1 8 \$0-filterres empty filter-Q 0 -10 1
10 -166441 -258699 -1 2;
#X obj -130 648 + 1;
#X obj -162 962 hip~ 20;
#X obj -127 938 hip~ 20;
#N canvas 0 0 817 563 cmreverb 0;
#X obj 31 116 inlet~;
#X obj 91 116 inlet~;
#X obj 403 99 inlet;
#X obj 245 182 delread~ \$0-A 100;
#X obj 275 202 delread~ \$0-B 161.8;
#X obj 305 222 delread~ \$0-C 261.8;
#X obj 335 242 delread~ \$0-D 61.8;
#X obj 191 236 +~;
#X obj 233 236 +~;
#X obj 28 307 outlet~;
#X obj 98 307 outlet~;
#X obj 176 286 +~;
#X obj 280 287 +~;
#X obj 218 286 -~;
#X obj 320 286 -~;
#X obj 175 342 +~;
#X obj 219 343 +~;
#X obj 263 344 -~;
#X obj 302 344 -~;
#X obj 262 426 *~ 0;
#X obj 220 425 *~ 0;
#X obj 175 424 *~ 0;
#X obj 303 427 *~ 0;
#X obj 302 447 delwrite~ \$0-D 1000;
#X obj 263 470 delwrite~ \$0-C 1000;
#X obj 221 493 delwrite~ \$0-B 1000;
#X obj 176 515 delwrite~ \$0-A 1000;
#X obj 402 284 min 100;
#X obj 402 308 max 0;
#X obj 402 332 / 200;
#X obj 245 161 * 1;
#X obj 275 161 * 1.618;
#X obj 335 161 * 2.618;
#X obj 395 161 / 1.618;
#X obj 403 125 route /feedback /delay;
#X msg 737 79 /delay 100;
#X obj 551 -16 r \$0-reverb;
#X obj 552 10 sel 0 1 2 3;
#X msg 738 58 /feedback 80;
#X msg 622 58 /feedback 60;
#X msg 621 79 /delay 50;
#X msg 527 57 /feedback 20;
#X msg 525 78 /delay 30;
#X msg 435 58 /feedback 5;
#X msg 432 79 /delay 10;
#X connect 0 0 7 0;
#X connect 1 0 8 0;
#X connect 2 0 34 0;
#X connect 3 0 7 1;
#X connect 4 0 8 1;
#X connect 5 0 14 0;
#X connect 5 0 12 0;
#X connect 6 0 14 1;
#X connect 6 0 12 1;
#X connect 7 0 9 0;
#X connect 7 0 11 0;
#X connect 7 0 13 0;
#X connect 8 0 10 0;
#X connect 8 0 11 1;
#X connect 8 0 13 1;
#X connect 11 0 15 0;
#X connect 11 0 17 0;
#X connect 12 0 17 1;
#X connect 12 0 15 1;
#X connect 13 0 16 0;
#X connect 13 0 18 0;
#X connect 14 0 16 1;
#X connect 14 0 18 1;
#X connect 15 0 21 0;
#X connect 16 0 20 0;
#X connect 17 0 19 0;
#X connect 18 0 22 0;
#X connect 19 0 24 0;
#X connect 20 0 25 0;
#X connect 21 0 26 0;
#X connect 22 0 23 0;
#X connect 27 0 28 0;
#X connect 28 0 29 0;
#X connect 29 0 22 1;
#X connect 29 0 19 1;
#X connect 29 0 20 1;
#X connect 29 0 21 1;
#X connect 30 0 3 0;
#X connect 31 0 4 0;
#X connect 32 0 5 0;
#X connect 33 0 6 0;
#X connect 34 0 27 0;
#X connect 34 1 33 0;
#X connect 34 1 32 0;
#X connect 34 1 31 0;
#X connect 34 1 30 0;
#X connect 35 0 34 0;
#X connect 36 0 37 0;
#X connect 37 0 43 0;
#X connect 37 0 44 0;
#X connect 37 1 41 0;
#X connect 37 1 42 0;
#X connect 37 2 39 0;
#X connect 37 2 40 0;
#X connect 37 3 38 0;
#X connect 37 3 35 0;
#X connect 38 0 34 0;
#X connect 39 0 34 0;
#X connect 40 0 34 0;
#X connect 41 0 34 0;
#X connect 42 0 34 0;
#X connect 43 0 34 0;
#X connect 44 0 34 0;
#X restore -162 994 pd cmreverb;
#X obj -164 736 hip~ 6;
#N canvas 224 385 681 530 chorus 0;
#X obj 84 213 cos~;
#X obj 84 236 +~ 1;
#X obj 171 157 +~ 0.25;
#X obj 171 212 cos~;
#X obj 171 235 +~ 1;
#X obj 84 339 outlet~;
#X obj 171 340 outlet~;
#X obj 270 156 +~ 0.25;
#X obj 270 211 cos~;
#X obj 270 234 +~ 1;
#X obj 365 154 +~ 0.25;
#X obj 365 209 cos~;
#X obj 365 232 +~ 1;
#X obj 85 50 inlet;
#X obj 14 -10 inlet~;
#X obj 430 217 line~;
#X obj 430 196 pack 0 50;
#X obj 365 293 *~;
#X obj 270 295 *~;
#X obj 171 296 *~;
#X obj 84 297 *~;
#X obj 85 100 line~;
#X obj 85 79 pack 0 50;
#X obj 270 338 outlet~;
#X obj 365 335 outlet~;
#X obj 430 153 inlet;
#X text 434 128 modulation;
#X text 79 34 frequence;
#X obj 84 318 vd~ \$0-chr1;
#X obj 171 317 vd~ \$0-chr1;
#X obj 270 316 vd~ \$0-chr1;
#X obj 365 314 vd~ \$0-chr1;
#X obj 14 15 delwrite~ \$0-chr1 1000;
#X obj 84 124 phasor~ 4;
#X connect 0 0 1 0;
#X connect 1 0 20 0;
#X connect 2 0 3 0;
#X connect 2 0 7 0;
#X connect 3 0 4 0;
#X connect 4 0 19 0;
#X connect 7 0 8 0;
#X connect 7 0 10 0;
#X connect 8 0 9 0;
#X connect 9 0 18 0;
#X connect 10 0 11 0;
#X connect 11 0 12 0;
#X connect 12 0 17 0;
#X connect 13 0 22 0;
#X connect 14 0 32 0;
#X connect 15 0 17 1;
#X connect 15 0 18 1;
#X connect 15 0 19 1;
#X connect 15 0 20 1;
#X connect 16 0 15 0;
#X connect 17 0 31 0;
#X connect 18 0 30 0;
#X connect 19 0 29 0;
#X connect 20 0 28 0;
#X connect 21 0 33 0;
#X connect 22 0 21 0;
#X connect 25 0 16 0;
#X connect 28 0 5 0;
#X connect 29 0 6 0;
#X connect 30 0 23 0;
#X connect 31 0 24 0;
#X connect 33 0 0 0;
#X connect 33 0 2 0;
#X restore -163 810 pd chorus;
#X obj 532 241 hradio 15 1 1 4 \$0-chorus empty chorus 0 -10 1 10 -166441
-258699 -1 2;
#X obj -115 715 r \$0-chorus;
#X obj -116 736 + 1;
#X obj -116 758 * 2;
#X obj -87 759 / 8;
#X obj -87 781 + 0.5;
#X obj -99 1031 *~;
#X obj -162 1032 *~;
#X obj -180 403 + 36;
#X obj -130 403 + 48;
#X obj -83 403 + 60;
#X obj -33 403 + 72;
#X obj 534 275 hradio 15 1 1 4 \$0-reverb empty reverb 0 -10 1 10 -166441
-258699 -1 2;
#X connect 2 0 43 0;
#X connect 3 0 8 0;
#X connect 4 0 44 0;
#X connect 5 0 61 0;
#X connect 6 0 7 0;
#X connect 7 0 5 0;
#X connect 8 0 68 0;
#X connect 8 1 69 0;
#X connect 8 2 70 0;
#X connect 8 3 71 0;
#X connect 9 0 12 1;
#X connect 10 0 11 0;
#X connect 11 0 12 0;
#X connect 12 0 7 1;
#X connect 14 0 61 0;
#X connect 15 0 16 0;
#X connect 16 0 14 0;
#X connect 17 0 20 1;
#X connect 18 0 19 0;
#X connect 19 0 20 0;
#X connect 20 0 16 1;
#X connect 21 0 61 0;
#X connect 22 0 23 0;
#X connect 23 0 21 0;
#X connect 24 0 27 1;
#X connect 25 0 26 0;
#X connect 26 0 27 0;
#X connect 27 0 23 1;
#X connect 28 0 61 0;
#X connect 29 0 30 0;
#X connect 30 0 28 0;
#X connect 31 0 34 1;
#X connect 32 0 33 0;
#X connect 33 0 34 0;
#X connect 34 0 30 1;
#X connect 35 0 6 0;
#X connect 36 0 15 0;
#X connect 37 0 22 0;
#X connect 38 0 29 0;
#X connect 39 0 119 0;
#X connect 40 0 39 0;
#X connect 41 0 62 0;
#X connect 42 0 40 2;
#X connect 43 0 47 0;
#X connect 44 0 45 0;
#X connect 45 0 46 0;
#X connect 45 1 46 1;
#X connect 46 0 59 0;
#X connect 47 0 50 0;
#X connect 48 0 49 0;
#X connect 49 0 52 0;
#X connect 50 0 48 0;
#X connect 51 0 58 0;
#X connect 52 0 51 0;
#X connect 53 0 55 0;
#X connect 54 0 43 1;
#X connect 54 1 47 1;
#X connect 55 0 56 0;
#X connect 55 1 56 1;
#X connect 56 0 57 0;
#X connect 57 0 54 0;
#X connect 58 0 41 0;
#X connect 59 0 58 1;
#X connect 60 0 40 0;
#X connect 61 0 60 0;
#X connect 62 0 64 0;
#X connect 63 0 62 1;
#X connect 64 0 40 1;
#X connect 65 0 64 1;
#X connect 66 0 60 1;
#X connect 67 0 66 0;
#X connect 68 0 129 0;
#X connect 69 0 130 0;
#X connect 70 0 131 0;
#X connect 71 0 132 0;
#X connect 72 0 74 0;
#X connect 73 0 74 0;
#X connect 73 1 74 1;
#X connect 74 0 76 0;
#X connect 75 0 100 1;
#X connect 76 0 75 0;
#X connect 77 0 73 0;
#X connect 78 0 92 0;
#X connect 79 0 97 1;
#X connect 80 0 83 0;
#X connect 81 0 84 0;
#X connect 82 0 97 0;
#X connect 83 0 87 0;
#X connect 84 0 85 0;
#X connect 85 0 86 0;
#X connect 85 1 86 1;
#X connect 86 0 96 0;
#X connect 87 0 90 0;
#X connect 88 0 89 0;
#X connect 89 0 95 0;
#X connect 90 0 88 0;
#X connect 91 0 83 1;
#X connect 91 1 87 1;
#X connect 92 0 93 0;
#X connect 92 1 93 1;
#X connect 93 0 94 0;
#X connect 94 0 91 0;
#X connect 95 0 82 0;
#X connect 96 0 95 1;
#X connect 97 0 99 0;
#X connect 98 0 101 0;
#X connect 99 0 98 0;
#X connect 100 0 128 1;
#X connect 100 0 127 1;
#X connect 101 0 100 0;
#X connect 102 0 115 0;
#X connect 103 0 42 0;
#X connect 115 0 40 2;
#X connect 116 0 118 0;
#X connect 117 0 118 1;
#X connect 118 0 128 0;
#X connect 118 1 127 0;
#X connect 119 0 120 0;
#X connect 120 0 116 0;
#X connect 120 1 127 0;
#X connect 120 2 117 0;
#X connect 120 3 127 0;
#X connect 122 0 123 0;
#X connect 123 0 124 0;
#X connect 123 0 125 0;
#X connect 124 0 120 1;
#X connect 125 0 126 0;
#X connect 126 0 120 2;
#X connect 127 0 13 1;
#X connect 128 0 13 0;
#X connect 129 0 35 0;
#X connect 130 0 36 0;
#X connect 131 0 37 0;
#X connect 132 0 38 0;
#X coords 0 -1 1 1 500 200 1 100 100;
#X restore -239 -158 pd oldstring;
