#N canvas 756 13 205 203 10;
#N canvas 0 0 522 546 lostpno 0;
#X obj 100 100 cnv 15 200 200 empty empty mouse-organ 20 12 1 16 -233017
-258699 0;
#N canvas 0 0 816 577 stampblips 0;
#N canvas 0 0 528 439 blip 0;
#X obj 153 236 osc~;
#X obj 190 236 vline~;
#X obj 189 262 *~;
#X obj 172 285 *~;
#X obj 153 26 inlet;
#X obj 172 331 outlet~;
#X msg 190 202 1 2 0 \, 0 \$1 3;
#X obj 190 108 log;
#X obj 190 85 pow 4;
#X obj 190 151 * 1e+06;
#X obj 190 130 pow -3;
#X obj 190 174 * 2;
#X obj 259 25 inlet;
#X obj 265 87 pow -1;
#X obj 265 112 * 1000;
#X obj 153 56 t f f f;
#X obj 265 136 log;
#X obj 265 159 min 3;
#X obj 173 307 *~;
#X connect 0 0 3 0;
#X connect 1 0 2 0;
#X connect 1 0 2 1;
#X connect 2 0 3 1;
#X connect 3 0 18 0;
#X connect 4 0 15 0;
#X connect 6 0 1 0;
#X connect 7 0 10 0;
#X connect 8 0 7 0;
#X connect 9 0 11 0;
#X connect 10 0 9 0;
#X connect 11 0 6 0;
#X connect 12 0 11 1;
#X connect 13 0 14 0;
#X connect 14 0 16 0;
#X connect 15 0 0 0;
#X connect 15 1 8 0;
#X connect 15 2 13 0;
#X connect 16 0 17 0;
#X connect 17 0 18 1;
#X connect 18 0 5 0;
#X restore 148 281 pd blip;
#N canvas 0 0 528 439 blip 0;
#X obj 153 236 osc~;
#X obj 190 236 vline~;
#X obj 189 262 *~;
#X obj 172 285 *~;
#X obj 153 26 inlet;
#X obj 172 331 outlet~;
#X msg 190 202 1 2 0 \, 0 \$1 3;
#X obj 190 108 log;
#X obj 190 85 pow 4;
#X obj 190 151 * 1e+06;
#X obj 190 130 pow -3;
#X obj 190 174 * 2;
#X obj 259 25 inlet;
#X obj 265 87 pow -1;
#X obj 265 112 * 1000;
#X obj 153 56 t f f f;
#X obj 265 136 log;
#X obj 265 159 min 3;
#X obj 173 307 *~;
#X connect 0 0 3 0;
#X connect 1 0 2 0;
#X connect 1 0 2 1;
#X connect 2 0 3 1;
#X connect 3 0 18 0;
#X connect 4 0 15 0;
#X connect 6 0 1 0;
#X connect 7 0 10 0;
#X connect 8 0 7 0;
#X connect 9 0 11 0;
#X connect 10 0 9 0;
#X connect 11 0 6 0;
#X connect 12 0 11 1;
#X connect 13 0 14 0;
#X connect 14 0 16 0;
#X connect 15 0 0 0;
#X connect 15 1 8 0;
#X connect 15 2 13 0;
#X connect 16 0 17 0;
#X connect 17 0 18 1;
#X connect 18 0 5 0;
#X restore 207 281 pd blip;
#N canvas 0 0 528 439 blip 0;
#X obj 153 236 osc~;
#X obj 190 236 vline~;
#X obj 189 262 *~;
#X obj 172 285 *~;
#X obj 153 26 inlet;
#X obj 172 331 outlet~;
#X msg 190 202 1 2 0 \, 0 \$1 3;
#X obj 190 108 log;
#X obj 190 85 pow 4;
#X obj 190 151 * 1e+06;
#X obj 190 130 pow -3;
#X obj 190 174 * 2;
#X obj 259 25 inlet;
#X obj 265 87 pow -1;
#X obj 265 112 * 1000;
#X obj 153 56 t f f f;
#X obj 265 136 log;
#X obj 265 159 min 3;
#X obj 173 307 *~;
#X connect 0 0 3 0;
#X connect 1 0 2 0;
#X connect 1 0 2 1;
#X connect 2 0 3 1;
#X connect 3 0 18 0;
#X connect 4 0 15 0;
#X connect 6 0 1 0;
#X connect 7 0 10 0;
#X connect 8 0 7 0;
#X connect 9 0 11 0;
#X connect 10 0 9 0;
#X connect 11 0 6 0;
#X connect 12 0 11 1;
#X connect 13 0 14 0;
#X connect 14 0 16 0;
#X connect 15 0 0 0;
#X connect 15 1 8 0;
#X connect 15 2 13 0;
#X connect 16 0 17 0;
#X connect 17 0 18 1;
#X connect 18 0 5 0;
#X restore 91 282 pd blip;
#N canvas 0 0 528 439 blip 0;
#X obj 153 236 osc~;
#X obj 190 236 vline~;
#X obj 189 262 *~;
#X obj 172 285 *~;
#X obj 153 26 inlet;
#X obj 172 331 outlet~;
#X msg 190 202 1 2 0 \, 0 \$1 3;
#X obj 190 108 log;
#X obj 190 85 pow 4;
#X obj 190 151 * 1e+06;
#X obj 190 130 pow -3;
#X obj 190 174 * 2;
#X obj 259 25 inlet;
#X obj 265 87 pow -1;
#X obj 265 112 * 1000;
#X obj 153 56 t f f f;
#X obj 265 136 log;
#X obj 265 159 min 3;
#X obj 173 307 *~;
#X connect 0 0 3 0;
#X connect 1 0 2 0;
#X connect 1 0 2 1;
#X connect 2 0 3 1;
#X connect 3 0 18 0;
#X connect 4 0 15 0;
#X connect 6 0 1 0;
#X connect 7 0 10 0;
#X connect 8 0 7 0;
#X connect 9 0 11 0;
#X connect 10 0 9 0;
#X connect 11 0 6 0;
#X connect 12 0 11 1;
#X connect 13 0 14 0;
#X connect 14 0 16 0;
#X connect 15 0 0 0;
#X connect 15 1 8 0;
#X connect 15 2 13 0;
#X connect 16 0 17 0;
#X connect 17 0 18 1;
#X connect 18 0 5 0;
#X restore 380 280 pd blip;
#N canvas 0 0 528 439 blip 0;
#X obj 153 236 osc~;
#X obj 190 236 vline~;
#X obj 189 262 *~;
#X obj 172 285 *~;
#X obj 153 26 inlet;
#X obj 172 331 outlet~;
#X msg 190 202 1 2 0 \, 0 \$1 3;
#X obj 190 108 log;
#X obj 190 85 pow 4;
#X obj 190 151 * 1e+06;
#X obj 190 130 pow -3;
#X obj 190 174 * 2;
#X obj 259 25 inlet;
#X obj 265 87 pow -1;
#X obj 265 112 * 1000;
#X obj 153 56 t f f f;
#X obj 265 136 log;
#X obj 265 159 min 3;
#X obj 173 307 *~;
#X connect 0 0 3 0;
#X connect 1 0 2 0;
#X connect 1 0 2 1;
#X connect 2 0 3 1;
#X connect 3 0 18 0;
#X connect 4 0 15 0;
#X connect 6 0 1 0;
#X connect 7 0 10 0;
#X connect 8 0 7 0;
#X connect 9 0 11 0;
#X connect 10 0 9 0;
#X connect 11 0 6 0;
#X connect 12 0 11 1;
#X connect 13 0 14 0;
#X connect 14 0 16 0;
#X connect 15 0 0 0;
#X connect 15 1 8 0;
#X connect 15 2 13 0;
#X connect 16 0 17 0;
#X connect 17 0 18 1;
#X connect 18 0 5 0;
#X restore 439 280 pd blip;
#N canvas 0 0 528 439 blip 0;
#X obj 153 236 osc~;
#X obj 190 236 vline~;
#X obj 189 262 *~;
#X obj 172 285 *~;
#X obj 153 26 inlet;
#X obj 172 331 outlet~;
#X msg 190 202 1 2 0 \, 0 \$1 3;
#X obj 190 108 log;
#X obj 190 85 pow 4;
#X obj 190 151 * 1e+06;
#X obj 190 130 pow -3;
#X obj 190 174 * 2;
#X obj 259 25 inlet;
#X obj 265 87 pow -1;
#X obj 265 112 * 1000;
#X obj 153 56 t f f f;
#X obj 265 136 log;
#X obj 265 159 min 3;
#X obj 173 307 *~;
#X connect 0 0 3 0;
#X connect 1 0 2 0;
#X connect 1 0 2 1;
#X connect 2 0 3 1;
#X connect 3 0 18 0;
#X connect 4 0 15 0;
#X connect 6 0 1 0;
#X connect 7 0 10 0;
#X connect 8 0 7 0;
#X connect 9 0 11 0;
#X connect 10 0 9 0;
#X connect 11 0 6 0;
#X connect 12 0 11 1;
#X connect 13 0 14 0;
#X connect 14 0 16 0;
#X connect 15 0 0 0;
#X connect 15 1 8 0;
#X connect 15 2 13 0;
#X connect 16 0 17 0;
#X connect 17 0 18 1;
#X connect 18 0 5 0;
#X restore 264 281 pd blip;
#N canvas 0 0 528 439 blip 0;
#X obj 153 236 osc~;
#X obj 190 236 vline~;
#X obj 189 262 *~;
#X obj 172 285 *~;
#X obj 153 26 inlet;
#X obj 172 331 outlet~;
#X msg 190 202 1 2 0 \, 0 \$1 3;
#X obj 190 108 log;
#X obj 190 85 pow 4;
#X obj 190 151 * 1e+06;
#X obj 190 130 pow -3;
#X obj 190 174 * 2;
#X obj 259 25 inlet;
#X obj 265 87 pow -1;
#X obj 265 112 * 1000;
#X obj 153 56 t f f f;
#X obj 265 136 log;
#X obj 265 159 min 3;
#X obj 173 307 *~;
#X connect 0 0 3 0;
#X connect 1 0 2 0;
#X connect 1 0 2 1;
#X connect 2 0 3 1;
#X connect 3 0 18 0;
#X connect 4 0 15 0;
#X connect 6 0 1 0;
#X connect 7 0 10 0;
#X connect 8 0 7 0;
#X connect 9 0 11 0;
#X connect 10 0 9 0;
#X connect 11 0 6 0;
#X connect 12 0 11 1;
#X connect 13 0 14 0;
#X connect 14 0 16 0;
#X connect 15 0 0 0;
#X connect 15 1 8 0;
#X connect 15 2 13 0;
#X connect 16 0 17 0;
#X connect 17 0 18 1;
#X connect 18 0 5 0;
#X restore 323 281 pd blip;
#N canvas 0 0 528 439 blip 0;
#X obj 153 236 osc~;
#X obj 190 236 vline~;
#X obj 189 262 *~;
#X obj 172 285 *~;
#X obj 153 26 inlet;
#X obj 172 331 outlet~;
#X msg 190 202 1 2 0 \, 0 \$1 3;
#X obj 190 108 log;
#X obj 190 85 pow 4;
#X obj 190 151 * 1e+06;
#X obj 190 130 pow -3;
#X obj 190 174 * 2;
#X obj 259 25 inlet;
#X obj 265 87 pow -1;
#X obj 265 112 * 1000;
#X obj 153 56 t f f f;
#X obj 265 136 log;
#X obj 265 159 min 3;
#X obj 173 307 *~;
#X connect 0 0 3 0;
#X connect 1 0 2 0;
#X connect 1 0 2 1;
#X connect 2 0 3 1;
#X connect 3 0 18 0;
#X connect 4 0 15 0;
#X connect 6 0 1 0;
#X connect 7 0 10 0;
#X connect 8 0 7 0;
#X connect 9 0 11 0;
#X connect 10 0 9 0;
#X connect 11 0 6 0;
#X connect 12 0 11 1;
#X connect 13 0 14 0;
#X connect 14 0 16 0;
#X connect 15 0 0 0;
#X connect 15 1 8 0;
#X connect 15 2 13 0;
#X connect 16 0 17 0;
#X connect 17 0 18 1;
#X connect 18 0 5 0;
#X restore 32 282 pd blip;
#X obj 246 99 unpack f f f f f f f f;
#X obj 208 377 outlet~;
#X obj 413 97 inlet decay;
#X obj 246 69 inlet freqlist;
#X obj 208 352 *~ 0.04;
#X obj 265 377 outlet~;
#X obj 265 352 *~ 0.04;
#X obj 104 98 sel 0 1 2 3 4 5 6 7;
#X obj 118 148 f;
#X obj 148 148 f;
#X obj 178 148 f;
#X obj 208 148 f;
#X obj 238 148 f;
#X obj 268 148 f;
#X obj 298 148 f;
#X obj 328 148 f;
#X obj 104 74 mod 6;
#X obj 133 6 r \$0-modscan;
#X obj 133 28 + 1;
#X obj 104 50 r localtime;
#X obj 60 190 mtof;
#X obj 110 190 mtof;
#X obj 160 190 mtof;
#X obj 210 190 mtof;
#X obj 260 190 mtof;
#X obj 310 190 mtof;
#X obj 360 190 mtof;
#X obj 410 190 mtof;
#X obj 60 227 *;
#X obj 110 227 *;
#X obj 160 227 *;
#X obj 210 227 *;
#X obj 260 227 *;
#X obj 310 227 *;
#X obj 360 227 *;
#X obj 410 227 *;
#X obj 501 96 * 1;
#X obj 500 47 swap 2;
#X obj 502 72 pow;
#X obj 500 23 r \$0-stboctave;
#X connect 0 0 12 0;
#X connect 1 0 14 0;
#X connect 2 0 14 0;
#X connect 3 0 12 0;
#X connect 4 0 14 0;
#X connect 5 0 12 0;
#X connect 6 0 14 0;
#X connect 7 0 12 0;
#X connect 8 0 16 1;
#X connect 8 1 17 1;
#X connect 8 2 18 1;
#X connect 8 3 19 1;
#X connect 8 4 20 1;
#X connect 8 5 21 1;
#X connect 8 6 22 1;
#X connect 8 7 23 1;
#X connect 10 0 4 1;
#X connect 10 0 3 1;
#X connect 10 0 6 1;
#X connect 10 0 1 1;
#X connect 10 0 0 1;
#X connect 10 0 2 1;
#X connect 10 0 7 1;
#X connect 10 0 5 1;
#X connect 11 0 8 0;
#X connect 12 0 9 0;
#X connect 14 0 13 0;
#X connect 15 0 16 0;
#X connect 15 1 17 0;
#X connect 15 2 18 0;
#X connect 15 3 19 0;
#X connect 15 4 20 0;
#X connect 15 5 21 0;
#X connect 15 6 22 0;
#X connect 15 7 23 0;
#X connect 16 0 28 0;
#X connect 17 0 29 0;
#X connect 18 0 30 0;
#X connect 19 0 31 0;
#X connect 20 0 32 0;
#X connect 21 0 33 0;
#X connect 22 0 34 0;
#X connect 23 0 35 0;
#X connect 24 0 15 0;
#X connect 25 0 26 0;
#X connect 26 0 24 1;
#X connect 27 0 24 0;
#X connect 28 0 36 0;
#X connect 29 0 37 0;
#X connect 30 0 38 0;
#X connect 31 0 39 0;
#X connect 32 0 40 0;
#X connect 33 0 41 0;
#X connect 34 0 42 0;
#X connect 35 0 43 0;
#X connect 36 0 7 0;
#X connect 37 0 2 0;
#X connect 38 0 0 0;
#X connect 39 0 1 0;
#X connect 40 0 5 0;
#X connect 41 0 6 0;
#X connect 42 0 3 0;
#X connect 43 0 4 0;
#X connect 44 0 43 1;
#X connect 44 0 42 1;
#X connect 44 0 41 1;
#X connect 44 0 40 1;
#X connect 44 0 39 1;
#X connect 44 0 38 1;
#X connect 44 0 37 1;
#X connect 44 0 36 1;
#X connect 45 0 46 0;
#X connect 45 1 46 1;
#X connect 46 0 44 0;
#X connect 47 0 45 0;
#X restore 6 383 pd stampblips;
#X obj 172 162 vsl 32 128 0 1 0 1 empty \$0-decaylost dec 0 -12 1 14
-195568 -258699 -1 2000 1;
#X obj 124 162 vsl 32 128 0.01 1 1 1 empty \$0-volumelost vol 0 -12
1 16 -195568 -258699 -1 12700 1;
#X obj 14 469 dac~;
#X obj 92 360 * 24;
#X obj 222 163 vradio 16 1 1 8 \$0-modscan empty num 0 -12 1 14 -233017
-258699 -1 3;
#X obj 7 182 r harmonics;
#X obj 256 401 r tempo;
#X obj 312 400 r mainkey;
#X obj 386 399 r control;
#X text 308 376 unused;
#X obj 156 384 line~;
#X msg 155 362 \$1 100;
#X obj 92 416 *~;
#X obj 7 417 *~;
#X obj 156 336 *;
#X obj 157 312 t b f;
#X obj 254 116 tgl 15 0 empty empty on/off 0 -6 1 8 -262144 -1 -1 1
1;
#X obj 263 163 vradio 16 1 1 8 \$0-stboctave empty oct 0 -12 1 14 -233017
-258699 -1 4;
#X connect 1 0 15 0;
#X connect 1 1 14 0;
#X connect 2 0 5 0;
#X connect 3 0 16 0;
#X connect 5 0 1 1;
#X connect 7 0 1 0;
#X connect 12 0 14 1;
#X connect 12 0 15 1;
#X connect 13 0 12 0;
#X connect 14 0 4 1;
#X connect 15 0 4 0;
#X connect 16 0 13 0;
#X connect 17 0 16 0;
#X connect 17 1 16 1;
#X connect 18 0 17 0;
#X coords 0 -1 1 1 200 200 1 100 100;
#X restore 1 -1 pd lostpno;
