#N canvas 903 542 432 328 8;
#X obj 50 -1 cnv 15 300 100 empty empty empty 20 12 0 14 -233017 -66577
0;
#X obj 75 246 ../efftest/waveshape;
#X obj 67 -72 loadbang;
#X msg 137 -26 40;
#X floatatom 82 162 5 0 0 0 - - -;
#X obj 73 270 outlet~;
#X obj 168 271 outlet~;
#X obj 121 153 tgl 15 0 empty empty empty 0 -6 0 8 -262144 -1 -1 1
1;
#X obj 61 10 hradio 15 1 0 17 empty empty empty 0 -6 0 8 -262144 -1
-1 2;
#X obj 193 110 hsl 128 15 1 3 0 0 empty empty empty -2 -6 0 8 -262144
-1 -1 2700 1;
#X obj 194 132 hsl 128 15 0.1 127 1 0 empty empty empty -2 -6 0 8 -262144
-1 -1 6600 1;
#X obj 216 155 bng 15 250 50 0 empty empty empty 0 -6 0 8 -262144 -1
-1;
#X floatatom 238 158 5 0 0 0 - - -;
#X floatatom 143 154 5 0 0 0 - - -;
#X text 121 141 exp_morph;
#X text 267 158 linear_morph;
#X text 83 11 waveform;
#X text 290 110 vars;
#X text 314 109 1;
#X text 315 133 2;
#X obj 16 23 inlet~;
#X text 290 133 vars;
#X msg 199 -24 20;
#X obj 129 189 pack f f f;
#X floatatom 174 154 5 0 0 0 - - -;
#X msg 223 -23 10;
#X obj 163 -22 t b b;
#X obj 78 33 hsl 128 15 0 127 0 0 empty empty empty -2 -6 0 8 -262144
-1 -1 5700 1;
#X text 154 36 mod_index;
#X floatatom 91 35 5 0 0 0 - - -;
#X msg 250 -26 1;
#X msg 68 -13 1;
#X obj 212 -67 inlet;
#X obj 171 -68 bng 15 250 50 0 empty empty empty 0 -6 0 8 -262144 -1
-1;
#X text 242 -67 reset;
#X connect 1 0 5 0;
#X connect 1 1 6 0;
#X connect 2 0 33 0;
#X connect 3 0 27 0;
#X connect 4 0 1 4;
#X connect 7 0 23 0;
#X connect 8 0 4 0;
#X connect 9 0 1 5;
#X connect 10 0 1 6;
#X connect 11 0 1 7;
#X connect 12 0 1 8;
#X connect 13 0 23 1;
#X connect 20 0 1 0;
#X connect 20 0 1 1;
#X connect 22 0 13 0;
#X connect 23 0 1 3;
#X connect 24 0 23 2;
#X connect 25 0 24 0;
#X connect 26 0 30 0;
#X connect 26 1 22 0;
#X connect 26 1 25 0;
#X connect 27 0 1 2;
#X connect 27 0 29 0;
#X connect 30 0 7 0;
#X connect 31 0 8 0;
#X connect 32 0 33 0;
#X connect 33 0 31 0;
#X connect 33 0 3 0;
#X connect 33 0 26 0;
#X coords 0 -1 1 1 300 50 1 50 0;
