#N canvas 49 69 1322 820 10;
#X obj 71 254 ../drm/kick;
#X obj 522 259 ../drm/snare;
#X obj 729 266 ../drm/snare;
#X obj 194 220 OSCroute /d1;
#X obj 685 228 OSCroute /d3;
#X obj 822 226 OSCroute /d4;
#X msg 119 201 3 847 108 55 251 2.7;
#X obj 78 405 ../cmp/flanger_st;
#X obj 287 260 ../drm/kick;
#X msg 335 207 3 847 108 55 251 2.7;
#X obj 294 411 ../cmp/flanger_st;
#X obj 524 405 ../cmp/flanger_st;
#X obj 730 411 ../cmp/flanger_st;
#X obj 260 25 OSCroute /drum;
#X obj 261 -3 dumpOSC 10001;
#X obj 410 226 OSCroute /d2;
#X obj 294 609 ../cmp/mixer a bit wider;
#X obj 635 785 dac~;
#X obj 412 37 expr 60000/$f1;
#X floatatom 413 13 5 0 0 0 - - -;
#X floatatom 412 64 5 0 0 0 - - -;
#X obj 177 172 metro 1;
#X obj 227 39 hsl 128 15 -4 16 0 0 empty empty empty -2 -6 0 8 -262144
-1 -1 2400 1;
#X obj 178 141 tgl 15 0 empty empty empty 0 -6 0 8 -262144 -1 -1 1
1;
#X obj 228 58 int;
#X floatatom 260 60 5 0 0 0 - - -;
#X floatatom 258 116 5 0 0 0 - - -;
#X obj 208 112 pow;
#X obj 218 76 t b f;
#X msg 208 94 2;
#X obj 210 132 t b f;
#X obj 236 155 / 1;
#X floatatom 283 174 5 0 0 0 - - -;
#X obj 539 167 metro 1;
#X obj 589 34 hsl 128 15 -4 16 0 0 empty empty empty -2 -6 0 8 -262144
-1 -1 1100 1;
#X obj 540 136 tgl 15 0 empty empty empty 0 -6 0 8 -262144 -1 -1 1
1;
#X obj 590 53 int;
#X floatatom 622 55 5 0 0 0 - - -;
#X floatatom 620 111 5 0 0 0 - - -;
#X obj 570 107 pow;
#X obj 580 71 t b f;
#X msg 570 89 2;
#X obj 572 127 t b f;
#X obj 598 150 / 1;
#X floatatom 645 169 5 0 0 0 - - -;
#X obj 462 64 bng 15 250 50 0 empty empty empty 0 -6 0 8 -262144 -1
-1;
#X text 460 13 bpm;
#X obj 996 203 ../cmp/bird_chirp;
#X obj 989 159 metro 1;
#X obj 1039 26 hsl 128 15 -4 16 0 0 empty empty empty -2 -6 0 8 -262144
-1 -1 1900 1;
#X obj 990 128 tgl 15 0 empty empty empty 0 -6 0 8 -262144 -1 -1 1
1;
#X obj 1040 45 int;
#X floatatom 1072 47 5 0 0 0 - - -;
#X floatatom 1070 103 5 0 0 0 - - -;
#X obj 1020 99 pow;
#X obj 1030 63 t b f;
#X msg 1020 81 2;
#X obj 1022 119 t b f;
#X obj 1048 142 / 1;
#X floatatom 1095 161 5 0 0 0 - - -;
#X obj 690 726 dbtorms;
#X obj 691 700 hsl 128 15 0 127 0 0 empty empty empty -2 -6 0 8 -262144
-1 -1 3900 1;
#X obj 611 756 *~ 1;
#X obj 666 756 *~ 1;
#X obj 1025 649 ../cmp/bell;
#X obj 1129 601 metro 1;
#X obj 1179 468 hsl 128 15 -4 16 0 0 empty empty empty -2 -6 0 8 -262144
-1 -1 2700 1;
#X obj 1130 570 tgl 15 0 empty empty empty 0 -6 0 8 -262144 -1 -1 1
1;
#X obj 1180 487 int;
#X floatatom 1212 489 5 0 0 0 - - -;
#X floatatom 1210 545 5 0 0 0 - - -;
#X obj 1160 541 pow;
#X obj 1170 505 t b f;
#X msg 1160 523 2;
#X obj 1162 561 t b f;
#X obj 1188 584 / 1;
#X floatatom 1235 603 5 0 0 0 - - -;
#X obj 995 594 del 100;
#X obj 964 564 hsl 128 15 0 127 0 0 empty empty empty -2 -6 0 8 -262144
-1 -1 12700 1;
#X obj 429 160 del 100;
#X obj 398 130 hsl 128 15 0 127 0 0 empty empty empty -2 -6 0 8 -262144
-1 -1 12100 1;
#X connect 0 0 7 0;
#X connect 1 0 11 0;
#X connect 2 0 12 0;
#X connect 3 0 0 3;
#X connect 4 0 1 3;
#X connect 5 0 2 3;
#X connect 6 0 0 1;
#X connect 7 0 16 0;
#X connect 7 1 16 1;
#X connect 8 0 10 0;
#X connect 9 0 8 1;
#X connect 11 0 16 4;
#X connect 11 1 16 5;
#X connect 13 0 3 0;
#X connect 13 0 15 0;
#X connect 13 0 4 0;
#X connect 13 0 5 0;
#X connect 14 0 13 0;
#X connect 15 0 8 3;
#X connect 16 0 62 0;
#X connect 16 1 63 0;
#X connect 18 0 20 0;
#X connect 19 0 18 0;
#X connect 20 0 31 0;
#X connect 20 0 43 0;
#X connect 20 0 58 0;
#X connect 20 0 75 0;
#X connect 21 0 0 0;
#X connect 22 0 24 0;
#X connect 23 0 21 0;
#X connect 24 0 28 0;
#X connect 24 0 25 0;
#X connect 27 0 26 0;
#X connect 27 0 30 0;
#X connect 28 0 29 0;
#X connect 28 1 27 1;
#X connect 29 0 27 0;
#X connect 30 0 31 0;
#X connect 30 1 31 1;
#X connect 31 0 21 1;
#X connect 31 0 32 0;
#X connect 33 0 1 0;
#X connect 33 0 79 0;
#X connect 34 0 36 0;
#X connect 35 0 33 0;
#X connect 36 0 40 0;
#X connect 36 0 37 0;
#X connect 39 0 38 0;
#X connect 39 0 42 0;
#X connect 40 0 41 0;
#X connect 40 1 39 1;
#X connect 41 0 39 0;
#X connect 42 0 43 0;
#X connect 42 1 43 1;
#X connect 43 0 33 1;
#X connect 43 0 44 0;
#X connect 45 0 20 0;
#X connect 47 0 16 6;
#X connect 47 0 16 7;
#X connect 48 0 47 4;
#X connect 49 0 51 0;
#X connect 50 0 48 0;
#X connect 51 0 55 0;
#X connect 51 0 52 0;
#X connect 54 0 53 0;
#X connect 54 0 57 0;
#X connect 55 0 56 0;
#X connect 55 1 54 1;
#X connect 56 0 54 0;
#X connect 57 0 58 0;
#X connect 57 1 58 1;
#X connect 58 0 48 1;
#X connect 58 0 59 0;
#X connect 60 0 62 1;
#X connect 60 0 63 1;
#X connect 61 0 60 0;
#X connect 62 0 17 0;
#X connect 63 0 17 1;
#X connect 64 0 16 2;
#X connect 64 0 16 3;
#X connect 65 0 64 0;
#X connect 65 0 77 0;
#X connect 66 0 68 0;
#X connect 67 0 65 0;
#X connect 68 0 72 0;
#X connect 68 0 69 0;
#X connect 71 0 70 0;
#X connect 71 0 74 0;
#X connect 72 0 73 0;
#X connect 72 1 71 1;
#X connect 73 0 71 0;
#X connect 74 0 75 0;
#X connect 74 1 75 1;
#X connect 75 0 65 1;
#X connect 75 0 76 0;
#X connect 77 0 64 0;
#X connect 78 0 77 1;
#X connect 79 0 1 0;
#X connect 80 0 79 1;
