#N canvas 56 25 871 710 10;
#X msg 230 286 bang;
#X obj 230 266 metro 500;
#X obj 125 240 tgl 15 0 empty empty empty 0 -6 0 8 -262144 -1 -1 1
1;
#X msg 470 496 0 0;
#X obj 470 473 t b b;
#X obj 418 622 alpha;
#X obj 470 454 loadbang;
#X msg 48 120 destroy;
#N canvas 0 30 749 590 moving 0;
#X obj 193 81 gemhead;
#X obj 276 67 t b b;
#X obj 276 104 random 100;
#X obj 276 39 inlet;
#X obj 276 181 / 100;
#X obj 276 201 * 8;
#X obj 276 221 - 4;
#X obj 375 104 random 100;
#X obj 375 181 / 100;
#X obj 375 201 * 8;
#X obj 375 221 - 4;
#X obj 191 47 inlet;
#X obj 193 384 translateXYZ 0 0 1;
#X obj 276 159 line3 500 10;
#X obj 375 159 line3 500 10;
#X obj 276 135 pack 0 5000;
#X obj 375 135 pack 0 5000;
#X obj 194 411 sphere 0.1;
#X obj 235 517 color 0.5 0.5 0.5;
#X floatatom 404 285 5 0 0 0 - - -;
#X obj 193 356 colorRGB 0.65 0.65 0.65;
#X connect 0 0 20 0;
#X connect 1 0 2 0;
#X connect 1 1 7 0;
#X connect 2 0 15 0;
#X connect 3 0 1 0;
#X connect 4 0 5 0;
#X connect 5 0 6 0;
#X connect 6 0 12 1;
#X connect 7 0 16 0;
#X connect 8 0 9 0;
#X connect 9 0 10 0;
#X connect 10 0 12 2;
#X connect 11 0 0 0;
#X connect 12 0 17 0;
#X connect 13 0 4 0;
#X connect 14 0 8 0;
#X connect 15 0 13 0;
#X connect 16 0 14 0;
#X connect 19 0 20 1;
#X connect 19 0 20 2;
#X connect 19 0 20 3;
#X connect 20 0 12 0;
#X restore 123 315 pd moving object;
#X obj 29 143 gemwin;
#X msg 338 94 print;
#X obj 382 429 glsl_program;
#X obj 456 325 pack 0 0;
#X msg 340 206 print;
#X obj 477 305 t b f;
#X obj 477 260 change;
#X obj 455 135 change;
#X msg 456 365 link \$1 \$2;
#X msg 338 372 print;
#X floatatom 477 286 2 0 0 0 ID - -;
#X floatatom 455 158 2 0 0 0 ID - -;
#X obj 474 386 print linking;
#X obj 383 240 glsl_fragment;
#X obj 383 116 glsl_vertex;
#X obj 478 39 bng 15 250 50 0 empty empty empty 0 -6 0 8 -262144 -1
-1;
#X obj 417 645 colorRGB 1 1 1 1;
#X msg 397 94 open game.vert;
#X msg 394 210 open game.frag;
#X obj 35 345 tgl 15 0 empty empty empty 17 7 0 10 -262144 -1 -1 1
1;
#X obj 35 367 gemhead 50;
#X obj 384 10 tgl 15 0 empty empty empty 17 7 0 10 -262144 -1 -1 0
1;
#X text 229 36 <- 1;
#X text 227 69 <- 2;
#X text 514 40 <- 3;
#X msg 26 39 dimen 1024 768;
#X msg 516 495 1024 768;
#X obj 325 531 t b a;
#X obj 381 597 pix_snap2tex;
#X floatatom 577 244 5 0 0 0 - - -;
#X msg 49 69 create \, 1 \, lighting 0;
#X obj 37 424 color 0.5 0.5 0.5;
#X msg 396 561 quality 1;
#X obj 325 477 tgl 15 0 empty empty empty 17 7 0 10 -262144 -1 -1 0
1;
#X obj 384 36 gemhead 88;
#X obj 325 503 gemhead 99;
#X obj 381 672 rectangle 5.33333 4;
#X obj 37 445 rectangle 5 1;
#X obj 36 490 rectangle 5 1;
#X obj 36 548 rectangle 1 5;
#X obj 35 606 rectangle 1 5;
#X obj 36 397 translateXYZ 0 3.9 1;
#X obj 36 468 translateXYZ 0 -7.8 0;
#X obj 36 524 translateXYZ 4.9 3.9 0;
#X obj 35 585 translateXYZ -9.8 0 0;
#X floatatom 693 248 5 0 0 0 - - -;
#X floatatom 628 246 5 0 0 0 - - -;
#X msg 576 271 K1 \$1;
#X msg 627 273 K3 \$1;
#X msg 692 275 D1 \$1;
#X obj 128 190 loadbang;
#X msg 127 211 1;
#X msg 621 201 0.02;
#X msg 697 216 0.02;
#X msg 575 197 0.25;
#X text 758 218 <- 4;
#X connect 0 0 8 1;
#X connect 1 0 0 0;
#X connect 2 0 1 0;
#X connect 2 0 8 0;
#X connect 3 0 37 1;
#X connect 4 0 3 0;
#X connect 4 1 35 0;
#X connect 5 0 25 0;
#X connect 6 0 4 0;
#X connect 7 0 9 0;
#X connect 10 0 23 0;
#X connect 11 0 37 0;
#X connect 12 0 17 0;
#X connect 13 0 22 0;
#X connect 14 0 12 0;
#X connect 14 1 12 1;
#X connect 15 0 19 0;
#X connect 16 0 20 0;
#X connect 17 0 11 0;
#X connect 17 0 21 0;
#X connect 18 0 11 0;
#X connect 19 0 14 0;
#X connect 20 0 12 0;
#X connect 22 0 11 0;
#X connect 22 1 15 0;
#X connect 23 0 22 0;
#X connect 23 1 16 0;
#X connect 24 0 26 0;
#X connect 24 0 27 0;
#X connect 25 0 45 0;
#X connect 26 0 23 0;
#X connect 27 0 22 0;
#X connect 28 0 29 0;
#X connect 29 0 50 0;
#X connect 30 0 43 0;
#X connect 34 0 9 0;
#X connect 35 0 37 2;
#X connect 36 0 37 0;
#X connect 37 0 45 0;
#X connect 38 0 56 0;
#X connect 39 0 9 0;
#X connect 40 0 46 0;
#X connect 41 0 37 0;
#X connect 42 0 44 0;
#X connect 43 0 23 0;
#X connect 44 0 36 0;
#X connect 46 0 51 0;
#X connect 47 0 52 0;
#X connect 48 0 53 0;
#X connect 50 0 40 0;
#X connect 51 0 47 0;
#X connect 52 0 48 0;
#X connect 53 0 49 0;
#X connect 54 0 58 0;
#X connect 55 0 57 0;
#X connect 56 0 11 0;
#X connect 57 0 11 0;
#X connect 58 0 11 0;
#X connect 59 0 60 0;
#X connect 60 0 2 0;
#X connect 61 0 55 0;
#X connect 62 0 54 0;
#X connect 63 0 38 0;
