#N canvas 142 202 528 537 10;
#X floatatom 59 107 5 0 0 0 - - -;
#X obj 103 135 >;
#X obj 58 134 <;
#X obj 119 108 f;
#X obj 119 86 del 1;
#X floatatom 53 158 5 0 0 0 - - -;
#X floatatom 100 160 5 0 0 0 - - -;
#X obj 96 184 spigot;
#X obj 98 208 bng 15 250 50 0 empty empty empty 0 -6 0 8 -262144 -1
-1;
#X obj 48 184 spigot;
#X obj 49 207 bng 15 250 50 0 empty empty empty 0 -6 0 8 -262144 -1
-1;
#X msg 97 235 127;
#X msg 48 233 1;
#X obj 62 278 outlet;
#X obj 64 52 inlet;
#X floatatom 146 278 5 0 0 0 - - -;
#X connect 0 0 3 1;
#X connect 0 0 4 0;
#X connect 0 0 2 0;
#X connect 0 0 1 0;
#X connect 1 0 6 0;
#X connect 2 0 5 0;
#X connect 3 0 2 1;
#X connect 3 0 1 1;
#X connect 4 0 3 0;
#X connect 5 0 9 0;
#X connect 5 0 9 1;
#X connect 6 0 7 1;
#X connect 6 0 7 0;
#X connect 7 0 8 0;
#X connect 8 0 11 0;
#X connect 9 0 10 0;
#X connect 10 0 12 0;
#X connect 11 0 13 0;
#X connect 11 0 15 0;
#X connect 12 0 13 0;
#X connect 12 0 15 0;
#X connect 14 0 0 0;
