#N canvas 21 238 545 495 8;
#X obj 202 417 dac~;
#X obj 286 22 herc_joystk;
#X obj 165 12 dumpOSC 10001;
#X obj 72 24 bng 15 250 50 0 empty empty empty 0 -6 0 8 -262144 -1
-1;
#X obj 251 198 ../drums/drum_sampler;
#X obj 262 321 OSCroute /main;
#X obj 376 171 OSCroute /preview;
#X obj 384 223 ../effects/sampler_st_osc;
#X obj 269 355 loadbang;
#X msg 271 372 8 8 8 8;
#X obj 46 318 ../effects/mixer;
#X obj 385 195 spigot;
#X obj 423 191 tgl 15 0 empty empty empty 0 -6 0 8 -262144 -1 -1 0
1;
#X obj 249 166 OSCroute /mov;
#X obj 158 372 ../effects/mixer main;
#X connect 2 0 3 0;
#X connect 2 0 5 0;
#X connect 2 0 6 0;
#X connect 2 0 13 0;
#X connect 4 1 14 2;
#X connect 4 2 14 3;
#X connect 5 0 14 8;
#X connect 6 0 11 0;
#X connect 7 0 14 6;
#X connect 7 1 14 7;
#X connect 8 0 9 0;
#X connect 9 0 14 9;
#X connect 10 0 14 0;
#X connect 10 1 14 1;
#X connect 11 0 7 0;
#X connect 12 0 11 1;
#X connect 13 0 4 0;
#X connect 14 0 0 0;
#X connect 14 1 0 1;
