#N canvas 669 222 603 495 8;
#X obj 127 163 ../oc/envelope;
#X obj 120 223 ../oc/distortion_st;
#X obj 175 63 ../oc/pitch_in;
#X obj 188 437 dac~;
#X obj 187 36 OSCroute /synth1;
#X obj 213 126 bng 15 250 50 0 empty empty empty 0 -6 0 8 -262144 -1
-1;
#X obj 286 22 herc_joystk;
#X obj 157 94 hsl 128 15 0 2000 0 0 empty empty empty -2 -6 0 8 -262144
-1 -1 370 1;
#X obj 165 12 dumpOSC 10001;
#X obj 112 247 ../oc/flange_st;
#X obj 111 274 ../oc/compressor_st;
#X obj 276 132 ../oc/multi_osc;
#X floatatom 336 66 5 0 0 0 - - -;
#X msg 367 100 * 2;
#X obj 276 116 * 2;
#X obj 357 116 * 4;
#X msg 344 43 2;
#X msg 367 43 4;
#X msg 393 43 8;
#X msg 419 42 16;
#X msg 443 42 32;
#X msg 467 42 64;
#X obj 125 120 ../oc/multi_osc;
#X obj 357 132 ../oc/multi_osc;
#X obj 353 20 OSCroute /harmonic;
#X obj 367 67 pack f f;
#X obj 419 66 hsl 75 15 0 1000 0 0 empty empty empty -2 -6 0 8 -262144
-1 -1 0 1;
#X obj 72 24 bng 15 250 50 0 empty empty empty 0 -6 0 8 -262144 -1
-1;
#X obj 205 183 ../drums/drum_sampler;
#X obj 158 372 ../effects/mixer;
#X obj 235 292 OSCroute /main;
#X obj 376 171 OSCroute /preview;
#X obj 384 223 ../effects/sampler_st_osc;
#X obj 262 354 loadbang;
#X msg 262 372 8 8 8 8;
#X obj 96 326 ../effects/mixer;
#X obj 385 195 spigot;
#X obj 423 191 tgl 15 0 empty empty empty 0 -6 0 8 -262144 -1 -1 0
1;
#X obj 18 121 metro 500;
#X obj 17 102 tgl 15 0 empty empty empty 0 -6 0 8 -262144 -1 -1 0 1
;
#X obj 367 83 line 0 10;
#X obj 266 257 ../drums/drum_sampler;
#X obj 294 212 OSCroute /mov;
#X obj 176 406 *~ 1;
#X obj 206 406 *~ 1;
#X obj 264 408 hsl 128 15 0 1 0 0 empty empty empty -2 -6 0 8 -262144
-1 -1 3251 1;
#X obj 261 392 OSCroute /master_vol;
#X connect 0 0 35 2;
#X connect 0 0 35 3;
#X connect 0 0 1 0;
#X connect 0 0 1 1;
#X connect 1 0 9 0;
#X connect 1 0 35 4;
#X connect 1 0 35 5;
#X connect 1 1 9 1;
#X connect 2 0 7 0;
#X connect 2 0 14 0;
#X connect 2 0 15 0;
#X connect 4 0 2 0;
#X connect 4 0 0 2;
#X connect 4 0 0 1;
#X connect 4 0 1 2;
#X connect 4 0 9 2;
#X connect 4 0 10 2;
#X connect 4 0 11 1;
#X connect 4 0 22 1;
#X connect 4 0 23 1;
#X connect 4 0 24 0;
#X connect 4 0 35 8;
#X connect 5 0 0 1;
#X connect 7 0 22 0;
#X connect 8 0 4 0;
#X connect 8 0 27 0;
#X connect 8 0 28 0;
#X connect 8 0 30 0;
#X connect 8 0 31 0;
#X connect 8 0 42 0;
#X connect 8 0 46 0;
#X connect 9 0 10 0;
#X connect 9 1 10 1;
#X connect 10 0 35 0;
#X connect 10 1 35 1;
#X connect 11 0 0 0;
#X connect 12 0 25 0;
#X connect 13 0 15 1;
#X connect 14 0 11 0;
#X connect 15 0 23 0;
#X connect 16 0 12 0;
#X connect 17 0 12 0;
#X connect 18 0 12 0;
#X connect 19 0 12 0;
#X connect 20 0 12 0;
#X connect 21 0 12 0;
#X connect 22 0 0 0;
#X connect 23 0 0 0;
#X connect 24 0 12 0;
#X connect 25 0 40 0;
#X connect 26 0 25 1;
#X connect 28 1 29 2;
#X connect 28 2 29 3;
#X connect 29 0 43 0;
#X connect 29 1 44 0;
#X connect 30 0 29 8;
#X connect 31 0 36 0;
#X connect 32 0 29 6;
#X connect 32 1 29 7;
#X connect 33 0 34 0;
#X connect 34 0 29 9;
#X connect 35 0 29 0;
#X connect 35 1 29 1;
#X connect 36 0 32 0;
#X connect 37 0 36 1;
#X connect 38 0 5 0;
#X connect 39 0 38 0;
#X connect 40 0 14 1;
#X connect 40 0 13 0;
#X connect 41 1 29 4;
#X connect 41 2 29 5;
#X connect 42 0 41 0;
#X connect 43 0 3 0;
#X connect 44 0 3 1;
#X connect 45 0 44 1;
#X connect 45 0 43 1;
#X connect 46 0 45 0;
