#N canvas 310 5 620 730 8;
#X obj 113 615 dac~;
#X obj 183 422 ../effects/distortion;
#X obj 225 393 hsl 128 15 0 1 0 0 empty empty empty -2 -6 0 8 -262144
-1 -1 10200 1;
#X obj 207 448 ../effects/distortion;
#X obj 195 315 ../effects/multi_osc;
#X obj 195 335 ../effects/envelope;
#X obj 221 156 dumpOSC 10001;
#X obj 199 220 OSCroute /osc;
#X obj 239 270 OSCroute /sin;
#X obj 212 237 OSCroute /sq;
#X obj 227 254 OSCroute /saw;
#X obj 206 291 pack f f f;
#X obj 300 216 OSCroute /env;
#X obj 341 269 OSCroute /sus gn;
#X obj 372 302 OSCroute /decay;
#X obj 357 286 OSCroute /sus_tm;
#X obj 185 286 bng 15 250 50 0 empty empty empty 0 -6 0 8 -262144 -1
-1;
#X obj 476 343 hsl 128 15 0 2000 0 0 empty empty empty -2 -6 0 8 -262144
-1 -1 5920 1;
#X obj 381 214 OSCroute /trig;
#X obj 620 319 OSCroute /base;
#X obj 477 260 hsl 128 15 -50 50 0 0 empty empty empty -2 -6 0 4 -262144
-1 -1 9652 0;
#X text 476 260 pitch;
#X floatatom 577 264 5 0 0 0 - - -;
#X obj 461 109 OSCroute /pitch;
#X floatatom 462 142 8 0 0 0 - - -;
#X obj 463 154 t f b;
#X floatatom 463 205 5 0 0 0 - - -;
#X msg 483 172 60;
#X obj 463 188 - 60;
#X obj 474 220 pack f f;
#X obj 474 238 line;
#X obj 494 190 hsl 128 15 0 400 0 0 empty empty empty -2 -6 0 8 -262144
-1 -1 540 1;
#X floatatom 594 194 5 0 0 0 - - -;
#X obj 467 125 unpack f f;
#X text 497 193 portamento;
#X obj 473 327 mtof;
#X obj 484 288 hsl 128 15 0 127 0 0 empty empty empty -2 -6 0 8 -262144
-1 -1 5600 1;
#X obj 473 310 + 0;
#X msg 588 289 37;
#X text 479 345 freq;
#X obj 448 125 bng 15 250 50 0 empty empty empty 0 -6 0 8 -262144 -1
-1;
#X obj 99 561 ../effects/mixer;
#X obj 325 253 OSCroute /att_tm;
#X obj 309 238 OSCroute /att_gn;
#X obj 309 320 pack f f f f f;
#X floatatom 561 290 5 0 0 0 - - -;
#X connect 1 0 41 2;
#X connect 2 0 1 1;
#X connect 2 0 3 1;
#X connect 3 0 41 3;
#X connect 4 0 5 0;
#X connect 5 0 41 0;
#X connect 5 0 41 1;
#X connect 5 0 1 0;
#X connect 5 0 3 0;
#X connect 6 0 7 0;
#X connect 6 0 12 0;
#X connect 7 0 8 0;
#X connect 7 0 9 0;
#X connect 7 0 10 0;
#X connect 7 0 23 0;
#X connect 8 0 11 2;
#X connect 8 0 16 0;
#X connect 9 0 11 0;
#X connect 9 0 16 0;
#X connect 10 0 11 1;
#X connect 10 0 16 0;
#X connect 11 0 4 1;
#X connect 12 0 13 0;
#X connect 12 0 15 0;
#X connect 12 0 14 0;
#X connect 12 0 18 0;
#X connect 12 0 43 0;
#X connect 12 0 42 0;
#X connect 13 0 44 2;
#X connect 14 0 44 4;
#X connect 15 0 44 3;
#X connect 16 0 11 0;
#X connect 17 0 4 0;
#X connect 18 0 5 1;
#X connect 20 0 22 0;
#X connect 20 0 37 0;
#X connect 23 0 33 0;
#X connect 23 0 40 0;
#X connect 24 0 25 0;
#X connect 25 0 28 0;
#X connect 25 1 27 0;
#X connect 26 0 29 0;
#X connect 27 0 28 1;
#X connect 28 0 26 0;
#X connect 29 0 30 0;
#X connect 30 0 20 0;
#X connect 31 0 29 1;
#X connect 31 0 32 0;
#X connect 33 0 24 0;
#X connect 33 1 31 0;
#X connect 35 0 17 0;
#X connect 36 0 37 1;
#X connect 36 0 45 0;
#X connect 37 0 35 0;
#X connect 38 0 36 0;
#X connect 40 0 5 1;
#X connect 41 0 0 0;
#X connect 41 1 0 1;
#X connect 42 0 44 1;
#X connect 43 0 44 0;
#X connect 44 0 5 2;
