#N canvas 401 26 374 270 10;
#X obj 20 166 sendOSC;
#X msg 200 66 connect localhost 10012;
#X obj 11 11 inlet;
#X obj 200 12 inlet;
#X obj 241 16 bng 15 250 50 0 empty empty empty 0 -6 0 8 -262144 -1
-1;
#X obj 121 11 keyIn;
#X obj 19 194 print so1;
#X obj 57 220 print s02;
#X msg 11 113 send /in \$1 \$2 \$3 \$4;
#X obj 121 34 spigot;
#X obj 158 10 inlet;
#X obj 19 64 unpack f f f f f f f f;
#X obj 10 88 pack f f f f;
#X obj 90 91 pack f f f f;
#X msg 90 134 send /in1 \$1 \$2 \$3 \$4;
#X msg 80 36 send /in \$1;
#X obj 80 10 inlet;
#X obj 47 11 inlet;
#X connect 0 0 6 0;
#X connect 0 1 7 0;
#X connect 1 0 0 0;
#X connect 2 0 11 0;
#X connect 3 0 1 0;
#X connect 4 0 1 0;
#X connect 5 0 9 0;
#X connect 8 0 0 0;
#X connect 9 0 0 0;
#X connect 10 0 9 1;
#X connect 11 0 12 0;
#X connect 11 1 12 1;
#X connect 11 2 12 2;
#X connect 11 3 12 3;
#X connect 11 4 13 0;
#X connect 11 5 13 1;
#X connect 11 6 13 2;
#X connect 11 7 13 3;
#X connect 12 0 8 0;
#X connect 13 0 14 0;
#X connect 14 0 0 0;
#X connect 15 0 0 0;
#X connect 16 0 15 0;
#X connect 17 0 8 0;
