#N canvas 376 283 153 184 10;
#X msg 28 65 /key;
#X obj 28 24 keyname;
#X obj 28 44 t b f;
#X obj 28 133 outlet;
#X msg 28 106 send \$1 \$2 \$3;
#X obj 28 86 pack s s f;
#X obj 74 132 print;
#X connect 0 0 5 0;
#X connect 1 0 2 0;
#X connect 1 1 5 1;
#X connect 2 0 0 0;
#X connect 2 1 5 2;
#X connect 4 0 3 0;
#X connect 4 0 6 0;
#X connect 5 0 4 0;
