#N canvas 787 116 578 493 8;
#X obj 109 261 sendOSC;
#X floatatom 95 307 5 0 0 0 - - -;
#X floatatom 144 307 5 0 0 0 - - -;
#X obj 131 169 int;
#X obj 135 125 hsl 128 15 -20 20 0 0 empty empty empty -2 -6 0 8 -262144
-1 -1 0 1;
#X obj 98 26 osc~;
#X obj 101 2 hsl 128 15 0 2 0 0 empty empty empty -2 -6 0 8 -262144
-1 -1 0 1;
#X obj 98 71 *~ 1;
#X obj 138 25 hsl 128 15 0 20 0 0 empty empty empty -2 -6 0 8 -262144
-1 -1 0 1;
#X obj 97 48 +~ 1;
#X obj 100 97 snapshot~;
#X obj 148 66 metro 500;
#X obj 148 47 tgl 15 0 empty empty empty 0 -6 0 8 -262144 -1 -1 0 1
;
#X obj 199 45 hsl 128 15 50 500 0 0 empty empty empty -2 -6 0 8 -262144
-1 -1 0 1;
#X obj 201 419 sendOSC;
#X msg 325 414 connect localhost 10002;
#X floatatom 292 308 5 0 0 0 - - -;
#X floatatom 213 345 5 0 0 0 - - -;
#X floatatom 82 142 5 0 0 0 - - -;
#X obj 217 308 / 100;
#X floatatom 256 285 5 0 0 0 - - -;
#X msg 212 366 send /playbackrate \$1;
#X obj 255 334 + 0.02;
#X obj 242 265 hsl 128 15 0 1270 0 0 empty empty empty -2 -6 0 8 -262144
-1 -1 0 1;
#X obj 52 337 bng 15 250 50 0 empty empty empty 0 -6 0 8 -262144 -1
-1;
#X msg 212 366 send /playbackrate \$1;
#X msg 53 379 send /pos \$1;
#X msg 53 355 0;
#X msg 34 419 send /startstop \$1;
#X obj 29 397 tgl 15 0 empty empty empty 0 -6 0 8 -262144 -1 -1 0 1
;
#X msg 220 391 send /trans \$1;
#X obj 246 437 hsl 128 15 -30 30 0 0 empty empty empty -2 -6 0 8 -262144
-1 -1 0 1;
#X msg 6 235 send /next 1;
#X obj 6 215 bng 15 250 50 0 empty empty empty 0 -6 0 8 -262144 -1
-1;
#X obj 10 266 tgl 15 0 empty empty empty 0 -6 0 8 -262144 -1 -1 0 1
;
#X msg 10 285 send /hold \$1;
#X obj 8 164 bng 15 250 50 0 empty empty empty 0 -6 0 8 -262144 -1
-1;
#X msg 8 188 send /last 1;
#X msg 382 333 send /width \$1;
#X msg 370 159 send /y \$1;
#X obj 371 67 hsl 128 15 0 127 0 0 empty empty empty -2 -6 0 8 -262144
-1 -1 0 1;
#X obj 376 118 hsl 128 15 0 127 0 0 empty empty empty -2 -6 0 8 -262144
-1 -1 0 1;
#X obj 379 260 hsl 128 15 0 127 0 0 empty empty empty -2 -6 0 8 -262144
-1 -1 0 1;
#X obj 385 306 hsl 128 15 0 127 0 0 empty empty empty -2 -6 0 8 -262144
-1 -1 0 1;
#X msg 371 91 send /x \$1;
#X obj 364 186 hsl 128 15 0 8 0 0 empty empty empty -2 -6 0 8 -262144
-1 -1 0 1;
#X obj 380 66 * 8;
#X obj 404 258 * 8;
#X obj 398 307 * 8;
#X msg 500 186 4;
#X text 499 205 320;
#X text 370 132 val*max/aspect;
#X obj 380 119 * 6;
#X text 376 52 val*max;
#X msg 529 187 2;
#X text 528 206 640;
#X floatatom 468 67 5 0 0 0 - - -;
#X floatatom 473 121 5 0 0 0 - - -;
#X floatatom 477 261 5 0 0 0 - - -;
#X floatatom 478 308 5 0 0 0 - - -;
#X msg 377 285 send /height \$1;
#X obj 417 218 * 0.75;
#X obj 369 -2 r env;
#X obj 370 20 * 500;
#X obj 407 -1 hsl 128 15 0 640 0 0 empty empty empty -2 -6 0 8 -262144
-1 -1 0 1;
#X obj 423 31 hsl 128 15 0 127 0 0 empty empty empty -2 -6 0 8 -262144
-1 -1 0 1;
#X floatatom 234 123 5 0 0 0 - - -;
#X obj 392 240 hsl 128 15 0 127 0 0 empty empty empty -2 -6 0 8 -262144
-1 -1 0 1;
#X obj 184 149 hsl 128 15 -20 20 0 0 empty empty empty -2 -6 0 8 -262144
-1 -1 0 1;
#X floatatom 283 147 5 0 0 0 - - -;
#X msg 215 201 send /yinc \$1;
#X msg 107 195 send /xinc \$1;
#X obj 208 170 int;
#X obj 175 96 hsl 128 15 -20 20 0 0 empty empty empty -2 -6 0 8 -262144
-1 -1 0 1;
#X msg 7 129 send /repeatFrame \$1;
#X obj 15 100 hsl 128 15 1 10 0 0 empty empty empty -2 -6 0 8 -262144
-1 -1 0 1;
#X msg 134 230 connect localhost 10012;
#X msg 16 30 20 30 f;
#X msg 14 62 send /t 20 30 f;
#X connect 0 0 1 0;
#X connect 0 1 2 0;
#X connect 3 0 71 0;
#X connect 4 0 3 0;
#X connect 4 0 66 0;
#X connect 5 0 9 0;
#X connect 6 0 5 0;
#X connect 7 0 10 0;
#X connect 8 0 7 1;
#X connect 9 0 7 0;
#X connect 10 0 71 0;
#X connect 10 0 18 0;
#X connect 11 0 10 0;
#X connect 12 0 11 0;
#X connect 13 0 11 1;
#X connect 15 0 14 0;
#X connect 17 0 21 0;
#X connect 18 0 3 0;
#X connect 19 0 16 0;
#X connect 19 0 22 0;
#X connect 20 0 19 1;
#X connect 21 0 14 0;
#X connect 22 0 17 0;
#X connect 23 0 19 1;
#X connect 24 0 27 0;
#X connect 26 0 14 0;
#X connect 27 0 26 0;
#X connect 29 0 28 0;
#X connect 31 0 30 0;
#X connect 32 0 0 0;
#X connect 33 0 32 0;
#X connect 34 0 35 0;
#X connect 35 0 0 0;
#X connect 36 0 37 0;
#X connect 37 0 0 0;
#X connect 38 0 0 0;
#X connect 39 0 0 0;
#X connect 40 0 46 0;
#X connect 41 0 52 0;
#X connect 42 0 47 0;
#X connect 43 0 48 0;
#X connect 44 0 0 0;
#X connect 45 0 46 1;
#X connect 45 0 48 1;
#X connect 45 0 61 0;
#X connect 46 0 44 0;
#X connect 46 0 56 0;
#X connect 47 0 60 0;
#X connect 47 0 58 0;
#X connect 48 0 38 0;
#X connect 48 0 59 0;
#X connect 49 0 45 0;
#X connect 52 0 39 0;
#X connect 52 0 57 0;
#X connect 54 0 45 0;
#X connect 60 0 0 0;
#X connect 61 0 52 1;
#X connect 61 0 47 1;
#X connect 62 0 63 0;
#X connect 64 0 63 1;
#X connect 65 0 40 0;
#X connect 65 0 52 0;
#X connect 67 0 42 0;
#X connect 67 0 43 0;
#X connect 68 0 69 0;
#X connect 68 0 72 0;
#X connect 70 0 0 0;
#X connect 71 0 0 0;
#X connect 72 0 70 0;
#X connect 73 0 4 0;
#X connect 73 0 68 0;
#X connect 74 0 0 0;
#X connect 75 0 74 0;
#X connect 76 0 0 0;
#X connect 77 0 78 0;
#X connect 78 0 0 0;
