#N canvas 372 232 1036 605 10;
#X obj 549 287 *~ 1;
#X obj 589 289 hsl 128 15 0 1 0 0 empty empty empty -2 -6 0 8 -262144
-1 -1 0 1;
#X obj 364 316 hsl 128 15 0 127 0 0 empty empty empty -2 -6 0 8 -262144
-1 -1 3900 1;
#X obj 365 337 hsl 128 15 0 100 0 0 empty empty empty -2 -6 0 8 -262144
-1 -1 5800 1;
#X obj 364 357 hsl 128 15 1 400 1 0 empty empty empty -2 -6 0 8 -262144
-1 -1 1200 1;
#X obj 364 411 hsl 128 15 0 127 0 0 empty empty empty -2 -6 0 8 -262144
-1 -1 0 1;
#X text 374 409 volume;
#X text 365 355 offset;
#X text 370 336 LFO Freq;
#X text 364 315 depth;
#X obj 363 375 hsl 128 15 0 127 0 0 empty empty empty -2 -6 0 8 -262144
-1 -1 4000 1;
#X text 368 374 feedback;
#X obj 363 393 hsl 128 15 0 127 0 0 empty empty empty -2 -6 0 8 -262144
-1 -1 900 1;
#X text 366 391 feedback delay;
#X floatatom 460 318 5 0 0 0 - - -;
#X floatatom 461 337 5 0 0 0 - - -;
#X floatatom 460 358 5 0 0 0 - - -;
#X floatatom 461 377 5 0 0 0 - - -;
#X floatatom 462 392 5 0 0 0 - - -;
#X floatatom 460 410 5 0 0 0 - - -;
#X obj 358 431 ../openlab_radio/flanger;
#X obj 780 -2 ../openlab_radio/sequence;
#X obj 780 19 ../openlab_radio/multi_osc;
#X obj 781 40 ../openlab_radio/envelope;
#X obj 782 73 *~ 1;
#X obj 822 75 hsl 128 15 0 1 0 0 empty empty empty -2 -6 0 8 -262144
-1 -1 0 1;
#X obj 529 498 dac~;
#X obj 593 152 hsl 128 15 0 127 0 0 empty empty empty -2 -6 0 8 -262144
-1 -1 0 1;
#X obj 594 173 hsl 128 15 0 100 0 0 empty empty empty -2 -6 0 8 -262144
-1 -1 0 1;
#X obj 593 193 hsl 128 15 1 400 1 0 empty empty empty -2 -6 0 8 -262144
-1 -1 0 1;
#X obj 593 246 hsl 128 15 0 127 0 0 empty empty empty -2 -6 0 8 -262144
-1 -1 0 1;
#X text 603 245 volume;
#X text 594 191 offset;
#X text 599 172 LFO Freq;
#X text 593 151 depth;
#X obj 592 211 hsl 128 15 0 127 0 0 empty empty empty -2 -6 0 8 -262144
-1 -1 0 1;
#X text 597 210 feedback;
#X obj 592 229 hsl 128 15 0 127 0 0 empty empty empty -2 -6 0 8 -262144
-1 -1 0 1;
#X text 595 227 feedback delay;
#X floatatom 689 154 5 0 0 0 - - -;
#X floatatom 690 173 5 0 0 0 - - -;
#X floatatom 689 194 5 0 0 0 - - -;
#X floatatom 690 213 5 0 0 0 - - -;
#X floatatom 691 228 5 0 0 0 - - -;
#X floatatom 689 246 5 0 0 0 - - -;
#X obj 587 267 ../openlab_radio/flanger;
#X obj 161 337 ../openlab_radio/bird_chirp;
#X obj 161 360 *~ 1;
#X obj 197 361 hsl 128 15 0 1 0 0 empty empty empty -2 -6 0 8 -262144
-1 -1 8890 1;
#X obj 28 -36 bng 15 250 50 0 empty empty empty 0 -6 0 8 -262144 -1
-1;
#X obj 48 -38 OSCroute /player1_file;
#X obj 29 -17 bng 15 250 50 0 empty empty empty 0 -6 0 8 -262144 -1
-1;
#X obj 48 -18 OSCroute /player1_start;
#X obj 30 25 bng 15 250 50 0 empty empty empty 0 -6 0 8 -262144 -1
-1;
#X obj 31 46 bng 15 250 50 0 empty empty empty 0 -6 0 8 -262144 -1
-1;
#X obj 33 67 bng 15 250 50 0 empty empty empty 0 -6 0 8 -262144 -1
-1;
#X obj 50 67 OSCroute /player2_vol;
#X obj 49 46 OSCroute /player2_start;
#X obj 49 25 OSCroute /player2_file;
#X obj 589 126 ../openlab_radio/player;
#X obj -3 196 bng 15 250 50 0 empty empty empty 0 -6 0 8 -262144 -1
-1;
#X obj 15 196 OSCroute /bird_freq;
#X obj -2 217 bng 15 250 50 0 empty empty empty 0 -6 0 8 -262144 -1
-1;
#X obj 15 216 OSCroute /bird_mult;
#X obj -2 236 bng 15 250 50 0 empty empty empty 0 -6 0 8 -262144 -1
-1;
#X obj 14 235 OSCroute /bird_offset;
#X obj -2 257 bng 15 250 50 0 empty empty empty 0 -6 0 8 -262144 -1
-1;
#X obj -1 276 bng 15 250 50 0 empty empty empty 0 -6 0 8 -262144 -1
-1;
#X obj 19 275 OSCroute /bird_on;
#X obj 0 295 bng 15 250 50 0 empty empty empty 0 -6 0 8 -262144 -1
-1;
#X obj 19 294 OSCroute /bird_cross;
#X obj 16 256 OSCroute /bird_env_freq;
#X obj 0 315 bng 15 250 50 0 empty empty empty 0 -6 0 8 -262144 -1
-1;
#X obj 19 314 OSCroute /bird_vol;
#X obj 164 100 bng 15 250 50 0 empty empty empty 0 -6 0 8 -262144 -1
-1;
#X obj 165 121 bng 15 250 50 0 empty empty empty 0 -6 0 8 -262144 -1
-1;
#X obj 167 142 bng 15 250 50 0 empty empty empty 0 -6 0 8 -262144 -1
-1;
#X obj 165 162 bng 15 250 50 0 empty empty empty 0 -6 0 8 -262144 -1
-1;
#X obj 170 186 bng 15 250 50 0 empty empty empty 0 -6 0 8 -262144 -1
-1;
#X obj 183 100 OSCroute /p1_fl_depth;
#X obj 183 121 OSCroute /p1_fl_lfo;
#X obj 184 142 OSCroute /p1_fl_offset;
#X obj 185 164 OSCroute /p1_fl_fb;
#X obj 186 186 OSCroute /p1_fl_fbdel;
#X obj 355 80 OSCroute /p1_fl_all;
#X obj 357 114 unpack f f f f f f;
#X floatatom 357 137 5 0 0 0 - - -;
#X floatatom 375 161 5 0 0 0 - - -;
#X floatatom 398 137 5 0 0 0 - - -;
#X floatatom 421 162 5 0 0 0 - - -;
#X floatatom 440 139 5 0 0 0 - - -;
#X floatatom 463 160 5 0 0 0 - - -;
#X obj 699 421 print ---------------------;
#X obj 681 421 bng 15 250 50 0 empty empty empty 0 -6 0 8 -262144 -1
-1;
#X obj 201 226 bng 15 250 50 0 empty empty empty 0 -6 0 8 -262144 -1
-1;
#X obj 220 225 OSCroute /bird;
#X obj 0 118 ../openlab_radio/player;
#X obj 585 32 ../openlab_radio/player;
#X obj 351 283 pack f f;
#X obj 134 315 line;
#X obj 272 -51 bng 15 250 50 0 empty empty empty 0 -6 0 8 -262144 -1
-1;
#X obj 273 -32 bng 15 250 50 0 empty empty empty 0 -6 0 8 -262144 -1
-1;
#X obj 293 -53 OSCroute /kick;
#X obj 292 -33 OSCroute /kick_set;
#X obj 408 -32 s kick_set;
#X obj 273 -10 bng 15 250 50 0 empty empty empty 0 -6 0 8 -262144 -1
-1;
#X obj 292 -11 OSCroute /kick_comp;
#X obj 408 -10 s kick_comp;
#X obj 135 216 line;
#X obj 13 -70 dumpOSC 10001;
#X obj 418 285 bng 15 250 50 0 empty empty empty 0 -6 0 8 -262144 -1
-1;
#X obj 399 -57 s kick;
#X obj 221 255 unpack f f f f f f f f;
#X text 449 -57 0 doesnt seem to to give bang messages?;
#X obj 324 17 bng 15 250 50 0 empty empty empty 0 -6 0 8 -262144 -1
-1;
#X obj 345 15 OSCroute /snare;
#X obj 451 11 s snare;
#X obj 324 37 bng 15 250 50 0 empty empty empty 0 -6 0 8 -262144 -1
-1;
#X obj 343 36 OSCroute /snare_set;
#X obj 465 37 s snare_set;
#X connect 0 0 26 0;
#X connect 0 0 26 1;
#X connect 1 0 0 1;
#X connect 2 0 14 0;
#X connect 2 0 20 2;
#X connect 3 0 15 0;
#X connect 3 0 20 1;
#X connect 4 0 16 0;
#X connect 4 0 20 3;
#X connect 5 0 19 0;
#X connect 5 0 20 6;
#X connect 10 0 17 0;
#X connect 10 0 20 4;
#X connect 12 0 18 0;
#X connect 12 0 20 5;
#X connect 20 0 26 1;
#X connect 20 0 26 0;
#X connect 21 0 22 0;
#X connect 22 0 23 0;
#X connect 23 0 24 0;
#X connect 25 0 24 1;
#X connect 27 0 39 0;
#X connect 27 0 45 2;
#X connect 28 0 40 0;
#X connect 28 0 45 1;
#X connect 29 0 41 0;
#X connect 29 0 45 3;
#X connect 30 0 44 0;
#X connect 30 0 45 6;
#X connect 35 0 42 0;
#X connect 35 0 45 4;
#X connect 37 0 43 0;
#X connect 37 0 45 5;
#X connect 45 0 0 0;
#X connect 46 0 47 0;
#X connect 47 0 20 0;
#X connect 48 0 47 1;
#X connect 50 0 49 0;
#X connect 50 0 59 2;
#X connect 52 0 51 0;
#X connect 52 0 59 0;
#X connect 56 0 55 0;
#X connect 56 0 96 3;
#X connect 57 0 54 0;
#X connect 57 0 96 0;
#X connect 58 0 53 0;
#X connect 58 0 96 2;
#X connect 59 0 45 0;
#X connect 61 0 60 0;
#X connect 61 0 46 0;
#X connect 63 0 62 0;
#X connect 63 0 108 0;
#X connect 65 0 64 0;
#X connect 65 0 46 2;
#X connect 68 0 67 0;
#X connect 68 0 46 4;
#X connect 70 0 69 0;
#X connect 70 0 46 5;
#X connect 71 0 66 0;
#X connect 71 0 46 3;
#X connect 73 0 72 0;
#X connect 73 0 99 0;
#X connect 79 0 74 0;
#X connect 79 0 27 0;
#X connect 80 0 75 0;
#X connect 80 0 28 0;
#X connect 81 0 76 0;
#X connect 81 0 29 0;
#X connect 82 0 77 0;
#X connect 82 0 35 0;
#X connect 83 0 78 0;
#X connect 83 0 37 0;
#X connect 84 0 85 0;
#X connect 85 0 86 0;
#X connect 85 1 87 0;
#X connect 85 2 88 0;
#X connect 85 3 89 0;
#X connect 85 4 90 0;
#X connect 85 5 91 0;
#X connect 93 0 92 0;
#X connect 95 0 94 0;
#X connect 95 0 112 0;
#X connect 96 0 0 0;
#X connect 97 0 0 0;
#X connect 98 0 99 0;
#X connect 98 0 110 0;
#X connect 99 0 48 0;
#X connect 100 0 111 0;
#X connect 102 0 100 0;
#X connect 103 0 101 0;
#X connect 103 0 104 0;
#X connect 106 0 105 0;
#X connect 106 0 107 0;
#X connect 108 0 46 1;
#X connect 109 0 50 0;
#X connect 109 0 52 0;
#X connect 109 0 56 0;
#X connect 109 0 57 0;
#X connect 109 0 58 0;
#X connect 109 0 61 0;
#X connect 109 0 63 0;
#X connect 109 0 65 0;
#X connect 109 0 71 0;
#X connect 109 0 68 0;
#X connect 109 0 70 0;
#X connect 109 0 73 0;
#X connect 109 0 79 0;
#X connect 109 0 80 0;
#X connect 109 0 81 0;
#X connect 109 0 82 0;
#X connect 109 0 83 0;
#X connect 109 0 84 0;
#X connect 109 0 95 0;
#X connect 109 0 103 0;
#X connect 109 0 106 0;
#X connect 109 0 100 0;
#X connect 109 0 115 0;
#X connect 109 0 118 0;
#X connect 112 0 46 0;
#X connect 112 1 46 1;
#X connect 112 2 46 2;
#X connect 112 3 46 3;
#X connect 112 4 46 4;
#X connect 112 5 46 5;
#X connect 112 6 48 0;
#X connect 112 6 98 0;
#X connect 112 7 98 1;
#X connect 114 0 116 0;
#X connect 115 0 114 0;
#X connect 118 0 117 0;
#X connect 118 0 119 0;
