#N canvas 101 3 718 450 8;
#X text 313 41 set the number per frame;
#X obj 22 106 hsl 128 15 0 1 0 1 empty empty empty -2 -6 0 8 -262144
-1 -1 12700 1;
#X obj 21 125 hsl 128 15 0 1 0 1 empty empty empty -2 -6 0 8 -262144
-1 -1 4200 1;
#X obj 22 145 hsl 128 15 0 1 0 1 empty empty empty -2 -6 0 8 -262144
-1 -1 6600 1;
#X floatatom 24 109 5 0 0 0 - - -;
#X floatatom 24 126 5 0 0 0 - - -;
#X floatatom 26 147 5 0 0 0 - - -;
#X obj 17 61 unpack f f f;
#X obj 9 40 OSCroute /s;
#X obj 326 8 OSCroute /t;
#X obj 304 114 pack f f;
#X obj 363 112 pack f f;
#X obj 423 107 pack f f;
#X obj 84 40 OSCroute /x;
#X obj 158 40 OSCroute /y;
#X obj 228 39 OSCroute /z;
#X text 134 108 x;
#X text 138 127 y;
#X text 142 145 z;
#X obj 51 14 inlet;
#X obj 318 147 outlet;
#X obj 364 148 outlet;
#X obj 424 150 outlet;
#X obj 188 107 * \$1;
#X obj 224 106 + \$2;
#X obj 256 107 * 1;
#X obj 257 126 * 1;
#X obj 260 150 * 1;
#X obj 189 126 * \$3;
#X obj 224 125 + \$4;
#X obj 191 152 * \$5;
#X obj 227 151 + \$6;
#X obj 433 70 * 1;
#X obj 435 17 loadbang;
#X obj 435 53 * \$7;
#X msg 435 36 1;
#X floatatom 131 161 5 0 0 0 - - #0-time;
#X text 77 160 time;
#X obj 102 6 inlet;
#X obj 136 6 inlet;
#X obj 169 10 inlet;
#X obj 202 11 inlet;
#X floatatom 478 67 5 0 0 0 - - -;
#X obj 471 47 * \$5;
#X obj 422 128 line 0 10;
#X obj 361 130 line 0 10;
#X obj 304 131 line 0 10;
#X floatatom 397 70 5 0 0 0 - #0-time -;
#X connect 1 0 23 0;
#X connect 2 0 28 0;
#X connect 3 0 30 0;
#X connect 7 0 25 0;
#X connect 7 1 26 0;
#X connect 7 2 27 0;
#X connect 8 0 7 0;
#X connect 9 0 32 0;
#X connect 10 0 46 0;
#X connect 11 0 45 0;
#X connect 12 0 44 0;
#X connect 13 0 25 0;
#X connect 14 0 26 0;
#X connect 15 0 27 0;
#X connect 19 0 9 0;
#X connect 19 0 8 0;
#X connect 19 0 13 0;
#X connect 19 0 14 0;
#X connect 19 0 15 0;
#X connect 23 0 24 0;
#X connect 24 0 25 0;
#X connect 25 0 4 0;
#X connect 25 0 10 0;
#X connect 26 0 11 0;
#X connect 26 0 5 0;
#X connect 27 0 12 0;
#X connect 27 0 6 0;
#X connect 28 0 29 0;
#X connect 29 0 26 0;
#X connect 30 0 31 0;
#X connect 31 0 27 0;
#X connect 32 0 36 0;
#X connect 32 0 12 1;
#X connect 32 0 11 1;
#X connect 32 0 10 1;
#X connect 33 0 35 0;
#X connect 34 0 32 0;
#X connect 35 0 34 0;
#X connect 35 0 43 0;
#X connect 38 0 25 0;
#X connect 39 0 26 0;
#X connect 40 0 27 0;
#X connect 41 0 32 0;
#X connect 43 0 42 0;
#X connect 44 0 22 0;
#X connect 45 0 21 0;
#X connect 46 0 20 0;
#X connect 47 0 32 0;
#X coords 0 -1 1 1 150 80 1 10 92;
