#N canvas 720 103 632 573 10;
#X obj 16 22 cnv 15 160 335 empty empty empty 20 12 0 14 -233017 -66577
0;
#X obj 22 29 hsl 128 15 1 1000 1 0 empty empty frequency -2 8 1 8 -258699
-143491 -241291 10000 1;
#X obj -14 176 +~;
#X obj 21 172 hsl 128 15 1 10000 1 0 empty empty off -2 8 1 8 -250685
-90133 -143491 3300 1;
#X obj -13 152 *~;
#X obj 23 153 hsl 128 15 1 10000 1 0 empty empty mult -2 8 1 8 -42246
-24198 -260818 8300 1;
#X floatatom 113 31 5 0 0 0 - - -;
#X floatatom 106 153 5 0 0 0 - - -;
#X floatatom 107 172 5 0 0 0 - - -;
#X obj 20 -14 inlet;
#X obj 229 -5 inlet;
#X obj 182 -2 inlet;
#X obj 274 -2 inlet;
#X obj 398 -4 inlet;
#X obj 9 471 outlet~;
#X obj 119 -1 inlet;
#X obj 458 8 inlet;
#X floatatom 458 31 5 0 0 0 - - -;
#X obj 340 -1 inlet;
#X text 336 17 envelope;
#X text 109 -15 multi_osc;
#X text 458 -8 trans_time;
#X text 395 11 crossfade;
#X text 181 15 offset;
#X obj 60 190 bng 15 250 50 0 empty empty trig 17 8 1 8 -62784 -44926
-355;
#X obj 24 334 ../cmp/crossfade_st;
#X text 269 15 env trig;
#X obj 510 9 inlet;
#X obj 505 39 OSCroute /f;
#X obj 505 64 OSCroute /osc;
#X obj 504 87 OSCroute /off;
#X obj 505 109 OSCroute /mult;
#X obj 507 130 OSCroute /trig;
#X obj 506 152 OSCroute /env;
#X obj 507 173 OSCroute /x;
#X text 549 9 osc;
#X obj 20 6 line 0 10;
#X obj 158 151 line 0 10;
#X obj 157 173 line 0 10;
#X obj 22 51 ../cmp/multi_osc1 osc;
#X obj 18 207 ../cmp/envelope env;
#X floatatom 283 349 5 0 0 0 - - -;
#X obj 277 323 snapshot~;
#X obj 237 359 bng 15 250 50 0 empty empty empty 17 7 0 10 -262144
-1 -1;
#X obj 9 400 osc~;
#X obj 14 433 -~ 1;
#X connect 1 0 6 0;
#X connect 1 0 39 0;
#X connect 2 0 40 0;
#X connect 2 0 25 0;
#X connect 3 0 2 1;
#X connect 3 0 8 0;
#X connect 4 0 2 0;
#X connect 5 0 4 1;
#X connect 5 0 7 0;
#X connect 9 0 36 0;
#X connect 12 0 24 0;
#X connect 13 0 25 4;
#X connect 15 0 39 1;
#X connect 16 0 17 0;
#X connect 17 0 36 1;
#X connect 17 0 38 1;
#X connect 18 0 40 2;
#X connect 24 0 40 1;
#X connect 25 0 44 0;
#X connect 27 0 28 0;
#X connect 27 0 29 0;
#X connect 27 0 30 0;
#X connect 27 0 31 0;
#X connect 27 0 32 0;
#X connect 27 0 33 0;
#X connect 27 0 34 0;
#X connect 28 0 36 0;
#X connect 29 0 39 1;
#X connect 30 0 38 0;
#X connect 31 0 37 0;
#X connect 32 0 24 0;
#X connect 33 0 40 3;
#X connect 34 0 25 4;
#X connect 36 0 1 0;
#X connect 37 0 5 0;
#X connect 38 0 3 0;
#X connect 39 0 4 0;
#X connect 40 0 25 2;
#X connect 42 0 41 0;
#X connect 43 0 42 0;
#X connect 44 0 45 0;
#X connect 45 0 14 0;
#X connect 45 0 42 0;
#X coords 0 -1 1 1 160 340 1 15 20;
