#N canvas 484 45 883 745 10;
#X obj 222 247 chorus;
#X obj 140 294 vcf~;
#X obj 227 225 hsl 128 15 0 50 0 0 empty empty /vcf/q -2 8 1 10 -24198
-42246 -1109 12700 1;
#X obj 226 206 hsl 128 15 10 10000 1 0 empty empty /vcf/f -2 8 1 10
-258699 -260818 -241291 4233 1;
#X obj 233 66 hsl 128 15 10 10000 1 0 empty empty /f -2 8 1 10 -258699
-261689 -1 7861 1;
#X obj 203 453 ../cmp/normalise;
#X obj 179 25 hsl 128 15 10 10000 1 0 empty empty empty -2 -8 0 10
-262144 -1 -1 0 1;
#X obj 144 260 line~ 0 10;
#X msg 142 240 \$1 1000;
#X obj 205 531 ../cmp/envelope;
#X obj 74 68 OSCroute /buzz;
#X obj 77 26 inlet;
#X obj 84 95 OSCroute /f;
#X obj 85 118 OSCroute /osc;
#X obj 87 141 OSCroute /vcf;
#X obj 103 164 OSCroute /f;
#X obj 94 207 OSCroute /q;
#X obj 227 83 ../cmp/multi_osc1 osc;
#X obj 96 320 OSCroute /chorus;
#X obj 94 454 OSCroute /norm;
#X obj 92 528 OSCroute /env;
#X msg 431 395 1;
#X msg 460 395 12;
#X msg 489 395 0.5;
#X msg 521 394 0.6;
#X obj 478 347 loadbang;
#X obj 213 681 outlet~;
#X obj 362 532 bng 15 250 50 0 empty empty /t 0 22 1 10 -195568 -66577
-128992;
#X obj 80 555 OSCroute /t;
#X obj 217 655 ../cmp/crossfade_st;
#X obj 79 606 OSCroute /x;
#X obj 218 182 ../cmp/crossfade_st;
#X obj 428 124 noise~;
#X obj 105 186 line 0 10;
#X text 200 184 osc;
#X text 339 190 nz;
#X obj 2 175 OSCroute /osc_nz;
#X floatatom 318 208 5 0 0 0 - - -;
#X obj 97 340 OSCroute /lfo;
#X connect 0 0 5 0;
#X connect 0 1 5 1;
#X connect 1 0 0 0;
#X connect 1 0 0 1;
#X connect 2 0 1 2;
#X connect 3 0 8 0;
#X connect 3 0 37 0;
#X connect 4 0 17 0;
#X connect 5 0 9 0;
#X connect 5 0 29 2;
#X connect 6 0 4 0;
#X connect 6 0 3 0;
#X connect 7 0 1 1;
#X connect 8 0 7 0;
#X connect 9 0 29 0;
#X connect 11 0 10 0;
#X connect 11 0 12 0;
#X connect 11 0 13 0;
#X connect 11 0 14 0;
#X connect 11 0 18 0;
#X connect 11 0 19 0;
#X connect 11 0 20 0;
#X connect 11 0 28 0;
#X connect 11 0 30 0;
#X connect 11 0 36 0;
#X connect 12 0 4 0;
#X connect 13 0 17 2;
#X connect 14 0 15 0;
#X connect 14 0 16 0;
#X connect 15 0 33 0;
#X connect 16 0 2 0;
#X connect 17 0 31 0;
#X connect 18 0 0 4;
#X connect 18 0 38 0;
#X connect 19 0 5 6;
#X connect 20 0 9 3;
#X connect 21 0 5 2;
#X connect 22 0 5 4;
#X connect 23 0 5 3;
#X connect 24 0 5 5;
#X connect 25 0 21 0;
#X connect 25 0 22 0;
#X connect 25 0 23 0;
#X connect 25 0 24 0;
#X connect 27 0 9 1;
#X connect 28 0 27 0;
#X connect 29 0 26 0;
#X connect 30 0 29 4;
#X connect 31 0 1 0;
#X connect 32 0 31 2;
#X connect 33 0 3 0;
#X connect 36 0 31 4;
#X coords 0 -1 1 1 180 610 1 200 65;
