#N canvas 547 25 853 760 10;
#X obj 496 108 gemhead;
#X obj 246 625 text3d hello world;
#X text 127 1 3-D polygonal text;
#X obj 434 592 loadbang;
#X obj 98 54 OSCroute /text;
#X obj 222 58 bng 15 250 50 0 empty empty empty 0 -6 0 8 -262144 -1
-1;
#X obj 435 471 translateXYZ 0 0 1;
#X obj 71 288 OSCroute /text;
#X obj 433 261 cnv 15 160 120 empty empty empty 20 12 0 14 -24198 -66577
0;
#X obj 520 191 bng 15 250 50 0 empty empty pix_load 20 8 0 8 -262144
-1 -1;
#N canvas 0 0 1367 760 image 0;
#X obj 77 48 inlet;
#X obj 77 344 outlet;
#X obj 223 55 inlet;
#X msg 223 123 open \$1;
#X obj 223 100 openpanel;
#X obj 77 205 pix_image ../gem.doc/data/temp2.JPG;
#X connect 0 0 5 0;
#X connect 2 0 4 0;
#X connect 3 0 5 0;
#X connect 4 0 3 0;
#X connect 5 0 1 0;
#X restore 476 211 pd image;
#X text 539 212 open an image;
#X text 532 225 (JPEG \, TIFF \, ..);
#X obj 434 386 pix_texture;
#X obj 476 188 alpha;
#X floatatom 489 232 5 0 1 1 pass - -;
#X floatatom 463 285 5 0 1 1 other - -;
#X obj 434 359 pix_alpha;
#X obj 141 107 OSCroute /alpha;
#X obj 141 129 unpack f f;
#X obj 143 152 hsl 128 15 0 1 0 0 empty empty empty -2 -6 0 8 -262144
-1 -1 3300 1;
#X text 230 151 alpha;
#X floatatom 157 152 5 0 0 0 - - -;
#X obj 642 182 OSCroute /font;
#X obj 464 263 line 0 50;
#X obj 89 18 inlet;
#X obj 476 155 spigot;
#X obj 506 137 tgl 15 0 empty empty empty 0 -6 0 8 -262144 -1 -1 1
1;
#X obj 573 104 inlet;
#X msg 434 614 font fnt/arial.ttf;
#X obj 499 447 hsl 128 15 -10 10 0 0 empty empty empty -2 -8 0 10 -262144
-1 -1 3800 1;
#X obj 499 418 hsl 128 15 -10 10 0 0 empty empty empty -2 -8 0 10 -262144
-1 -1 8700 1;
#X obj 533 397 hsl 128 15 -20 20 0 0 empty empty empty -2 -8 0 10 -262144
-1 -1 5400 1;
#X msg 208 412 text text;
#X msg 492 334 0 0 0;
#X msg 477 310 1 1 1;
#X connect 0 0 26 0;
#X connect 3 0 29 0;
#X connect 4 0 5 0;
#X connect 4 0 7 0;
#X connect 4 0 18 0;
#X connect 4 0 23 0;
#X connect 6 0 1 0;
#X connect 7 0 1 0;
#X connect 9 0 10 1;
#X connect 10 0 17 0;
#X connect 13 0 6 0;
#X connect 14 0 10 0;
#X connect 15 0 17 1;
#X connect 16 0 17 2;
#X connect 17 0 13 0;
#X connect 18 0 19 0;
#X connect 19 0 20 0;
#X connect 19 1 24 1;
#X connect 20 0 22 0;
#X connect 20 0 24 0;
#X connect 23 0 29 0;
#X connect 24 0 16 0;
#X connect 25 0 4 0;
#X connect 26 0 14 0;
#X connect 27 0 26 1;
#X connect 28 0 27 0;
#X connect 29 0 1 0;
#X connect 30 0 6 1;
#X connect 31 0 6 2;
#X connect 32 0 6 3;
#X connect 33 0 1 0;
#X connect 34 0 17 4;
#X connect 35 0 17 3;
