#N canvas 123 330 458 308 8;
#X obj 15 17 inlet~;
#X text 65 14 signal;
#X floatatom 250 51 5 0 0 0 - - -;
#X msg 244 31 1;
#X obj 245 3 loadbang;
#X obj 128 14 inlet;
#X obj 223 204 outlet~;
#X obj 31 36 inlet~;
#X text 81 33 signal;
#X obj 307 10 inlet;
#X obj 320 66 OSCroute /amp;
#X obj 17 59 delwrite~ \$0-delay1_l 500;
#X obj 32 80 delwrite~ \$0-delay1_r 500;
#X obj 332 204 outlet~;
#X obj 222 184 *~ 1;
#X obj 332 185 *~ 1;
#X obj 38 105 hsl 128 15 1 1000 1 0 empty empty /del -2 8 1 6 -261689
-258699 -143491 0 1;
#X obj 41 271 hsl 128 15 0 1 0 0 empty empty amp -2 8 0 6 -261681 -260818
-143491 12700 1;
#X floatatom 135 105 5 0 0 0 - - -;
#X obj 308 42 OSCroute /del;
#X floatatom 136 272 5 0 0 0 - - -;
#X obj 223 165 vd~ \$0-delay1_l;
#X obj 331 166 vd~ \$0-delay1_r;
#X obj 35 138 ../cmp/multi_osc1;
#X obj 247 107 +~;
#X obj 332 86 OSCroute /lfo;
#X obj 331 107 sig~;
#X obj 324 130 OSCroute /osc;
#X obj 194 236 *~;
#X obj 42 241 hsl 128 15 0 10 0 0 empty empty mult -2 8 0 6 -261681
-260818 -143491 8100 1;
#X floatatom 133 243 5 0 0 0 - - -;
#X obj 38 122 hsl 128 15 0 127 0 0 empty empty /lfo -2 8 1 10 -261681
-99865 -42246 0 1;
#X obj 243 85 line~ 0 10;
#X msg 255 66 \$1 10;
#X obj 193 7 inlet~;
#X floatatom 135 123 5 0 0 0 - - -;
#X obj 366 107 OSCroute /mult;
#X connect 0 0 11 0;
#X connect 2 0 33 0;
#X connect 3 0 17 0;
#X connect 3 0 16 0;
#X connect 4 0 3 0;
#X connect 5 0 16 0;
#X connect 7 0 12 0;
#X connect 9 0 19 0;
#X connect 9 0 10 0;
#X connect 9 0 25 0;
#X connect 9 0 27 0;
#X connect 9 0 36 0;
#X connect 10 0 17 0;
#X connect 14 0 6 0;
#X connect 15 0 13 0;
#X connect 16 0 2 0;
#X connect 16 0 18 0;
#X connect 17 0 14 1;
#X connect 17 0 15 1;
#X connect 17 0 20 0;
#X connect 19 0 2 0;
#X connect 21 0 14 0;
#X connect 22 0 15 0;
#X connect 23 0 28 0;
#X connect 24 0 21 0;
#X connect 24 0 22 0;
#X connect 25 0 26 0;
#X connect 25 0 35 0;
#X connect 26 0 23 3;
#X connect 27 0 23 2;
#X connect 28 0 24 1;
#X connect 29 0 30 0;
#X connect 29 0 28 1;
#X connect 31 0 23 0;
#X connect 31 0 35 0;
#X connect 32 0 24 0;
#X connect 33 0 32 0;
#X connect 34 0 23 3;
#X connect 36 0 29 0;
#X coords 0 -1 1 1 150 200 1 30 100;
