#N canvas 522 334 825 595 10;
#X obj 32 187 *~;
#X obj 138 27 sig~;
#X obj 9 28 hsl 128 15 20 500 1 0 empty empty empty -2 -8 0 10 -262144
-1 -1 4589 1;
#X floatatom 94 28 5 0 0 0 - - -;
#X obj 33 219 +~ 1;
#X obj 51 168 hsl 128 15 0 40 0 0 empty empty empty -2 -8 0 10 -262144
-1 -1 5645 1;
#X obj 33 269 *~;
#X obj 59 327 vcf~;
#X obj 92 302 hsl 50 15 0 5 0 0 empty empty empty -2 -8 0 10 -262144
-1 -1 980 1;
#X text 95 300 q;
#X floatatom 106 302 5 0 0 0 - - -;
#X obj 223 149 sig~;
#X obj 88 150 hsl 128 15 20 500 1 0 empty empty empty -2 -8 0 10 -262144
-1 -1 2954 1;
#X floatatom 179 150 5 0 0 0 - - -;
#X text 61 168 mod_index;
#X floatatom 142 168 5 0 0 0 - - -;
#X obj 267 392 osc~;
#X obj 267 431 lop~;
#X obj 319 183 bng 15 250 50 0 empty empty empty 17 7 0 10 -262144
-1 -1;
#X obj 113 346 *~;
#X obj 179 347 *~ 1;
#X obj 192 320 hsl 50 15 0.1 10 1 0 empty empty empty -2 -8 0 10 -262144
-1 -1 2450 1;
#X floatatom 210 322 5 0 0 0 - - -;
#X obj 296 150 sig~;
#X msg 296 116 1;
#X obj 292 496 env~;
#X floatatom 299 549 5 0 0 0 - - -;
#X obj 308 345 hsl 50 15 0.1 500 1 0 empty empty empty -2 -8 0 10 -262144
-1 -1 3913 1;
#X floatatom 326 347 5 0 0 0 - - -;
#X obj 266 345 *~ 1;
#X obj 299 522 dbtorms;
#X obj 282 215 ../cmp/envelope;
#X obj 350 549 max;
#X floatatom 385 553 5 0 0 0 - - -;
#X msg 378 528 0;
#X obj 322 401 hsl 50 15 0.1 500 1 0 empty empty empty -2 -8 0 10 -262144
-1 -1 3717 1;
#X floatatom 340 403 5 0 0 0 - - -;
#X text 159 4 Works nice but the low freq dont come thru too well in
the output.;
#X obj 364 53 loadbang;
#X obj 364 103 unpack f f f f f f f;
#X obj 267 369 +~ 0;
#X text 68 30 f1;
#X text 139 151 f2;
#X text 366 343 osc_peak;
#X text 159 321 gain;
#X text 149 301 q;
#X msg 199 35 f1 f2 mod_index osc_peak gain q;
#X msg 361 77 47 32 14 90 1 1;
#X msg 176 453 90 0 0 0;
#X obj 54 570 outlet~;
#X obj 122 570 outlet~;
#X obj 484 45 OSCroute /f1;
#X obj 497 66 OSCroute /f2;
#X obj 510 88 OSCroute /env;
#X obj 497 20 inlet;
#X obj 527 111 OSCroute /t;
#X msg 435 178 10 4 0 300 0;
#X obj 57 379 ../cmp/mixer;
#X obj 32 53 ../cmp/multi_osc1;
#X obj 79 188 ../cmp/multi_osc1;
#X obj 614 24 inlet;
#X connect 0 0 4 0;
#X connect 1 0 7 1;
#X connect 1 0 58 3;
#X connect 2 0 1 0;
#X connect 2 0 3 0;
#X connect 2 0 35 0;
#X connect 4 0 6 0;
#X connect 5 0 0 1;
#X connect 5 0 15 0;
#X connect 6 0 7 0;
#X connect 7 0 19 0;
#X connect 7 0 57 2;
#X connect 7 0 57 3;
#X connect 8 0 7 2;
#X connect 8 0 10 0;
#X connect 11 0 59 3;
#X connect 12 0 11 0;
#X connect 12 0 13 0;
#X connect 16 0 17 0;
#X connect 17 0 19 0;
#X connect 17 0 57 4;
#X connect 17 0 57 5;
#X connect 18 0 31 1;
#X connect 19 0 57 1;
#X connect 19 0 57 0;
#X connect 20 0 19 1;
#X connect 21 0 20 1;
#X connect 21 0 22 0;
#X connect 23 0 31 0;
#X connect 24 0 23 0;
#X connect 25 0 30 0;
#X connect 26 0 32 0;
#X connect 27 0 28 0;
#X connect 27 0 29 1;
#X connect 29 0 40 0;
#X connect 30 0 26 0;
#X connect 31 0 20 0;
#X connect 31 0 29 0;
#X connect 32 0 33 0;
#X connect 33 0 32 1;
#X connect 34 0 33 0;
#X connect 35 0 36 0;
#X connect 35 0 17 1;
#X connect 38 0 47 0;
#X connect 38 0 56 0;
#X connect 38 0 48 0;
#X connect 38 0 24 0;
#X connect 39 0 2 0;
#X connect 39 1 12 0;
#X connect 39 2 5 0;
#X connect 39 3 27 0;
#X connect 39 4 21 0;
#X connect 39 5 8 0;
#X connect 40 0 16 0;
#X connect 47 0 39 0;
#X connect 48 0 57 9;
#X connect 51 0 2 0;
#X connect 52 0 12 0;
#X connect 53 0 31 3;
#X connect 54 0 51 0;
#X connect 54 0 52 0;
#X connect 54 0 53 0;
#X connect 54 0 55 0;
#X connect 55 0 18 0;
#X connect 56 0 31 2;
#X connect 57 0 49 0;
#X connect 57 1 25 0;
#X connect 57 1 50 0;
#X connect 58 0 0 0;
#X connect 59 0 6 1;
#X connect 60 0 18 0;
