#N canvas 547 50 820 846 10;
#X obj 116 19 cnv 15 170 526 empty empty empty 20 12 0 14 -233017 -66577
0;
#X obj 141 117 bng 15 250 50 0 empty empty empty 0 -6 0 8 -262144 -1
-1;
#X obj 57 329 +~;
#X obj 85 336 +~;
#X obj 55 355 +~;
#X obj 83 362 +~;
#X obj 34 145 OSCroute /t;
#X msg 303 257 38;
#X msg 315 358 418;
#X obj 360 249 loadbang;
#X obj 127 135 ../cmp/envelope;
#X obj 130 19 ../cmp/multi_osc1;
#X text 30 0 pulse;
#X obj 37 18 inlet;
#X obj 51 561 outlet~;
#X obj 323 561 outlet~;
#X obj 321 93 hsl 128 15 10 10000 1 0 empty empty empty -2 -8 0 10
-262144 -1 -1 0 1;
#X obj 320 130 sig~;
#X floatatom 410 93 5 0 0 0 - - -;
#X obj 13 59 OSCroute /osc;
#X obj 10 244 OSCroute /del1;
#X obj 6 388 OSCroute /del2;
#X obj 5 420 OSCroute /flange;
#X obj 133 263 ../cmp/echo del1;
#X obj 132 333 ../cmp/echo del2;
#X obj 127 -8 inlet;
#X obj 179 -8 inlet;
#X obj 135 400 ../cmp/flanger_st;
#X obj 11 86 OSCroute /env;
#X connect 1 0 10 1;
#X connect 2 0 4 0;
#X connect 3 0 5 0;
#X connect 4 0 27 0;
#X connect 5 0 27 1;
#X connect 6 0 1 0;
#X connect 7 0 23 2;
#X connect 8 0 24 2;
#X connect 9 0 8 0;
#X connect 9 0 7 0;
#X connect 10 0 2 0;
#X connect 10 0 3 0;
#X connect 10 0 23 1;
#X connect 11 0 10 0;
#X connect 13 0 6 0;
#X connect 13 0 19 0;
#X connect 13 0 20 0;
#X connect 13 0 21 0;
#X connect 13 0 22 0;
#X connect 13 0 28 0;
#X connect 16 0 17 0;
#X connect 17 0 11 3;
#X connect 19 0 11 2;
#X connect 20 0 23 3;
#X connect 21 0 24 3;
#X connect 22 0 27 8;
#X connect 23 0 2 1;
#X connect 23 1 3 1;
#X connect 23 1 24 1;
#X connect 24 0 5 1;
#X connect 24 1 4 1;
#X connect 25 0 11 0;
#X connect 26 0 1 0;
#X connect 27 0 14 0;
#X connect 27 1 15 0;
#X connect 28 0 10 3;
#X coords 0 -1 1 1 170 534 1 115 15;
