#N canvas 139 65 1108 860 10;
#X obj 101 798 dac~;
#X obj 77 16 dumpOSC 10001;
#X obj 6 99 OSCroute /kick1;
#X obj 6 63 OSCroute /kick2;
#X obj 222 17 OSCroute /bird1;
#X obj 41 27 bng 15 250 50 0 empty empty empty 17 7 0 10 -262144 -1
-1;
#X obj 694 -3 OSCroute /pulse;
#X obj 846 -4 OSCroute /pulse2;
#X obj 5 146 KickDrum;
#X obj 94 579 ../cmp/mixer;
#X obj 906 -24 hsl 128 15 0 127 0 0 empty empty empty -2 -8 0 10 -262144
-1 -1 0 1;
#X obj 670 30 pulse;
#X obj 816 -29 metro 300;
#X obj 789 -34 tgl 15 0 empty empty empty 17 7 0 10 -262144 -1 -1 0
1;
#X obj 781 577 ../cmp/mixer;
#X obj 308 44 bird_chirp;
#X obj 362 20 OSCroute /bird2;
#X obj 136 41 bird_chirp;
#X obj 72 146 KickDrum;
#X obj 22 -7 metro 500;
#X obj 71 -29 hsl 128 15 0 1000 0 0 empty empty empty -2 -8 0 10 -262144
-1 -1 0 1;
#X obj 24 -31 tgl 15 0 empty empty empty 17 7 0 10 -262144 -1 -1 0
1;
#X obj 28 773 *~ 1;
#X obj 62 774 *~ 1;
#X obj 30 602 vsl 15 128 0.01 1 1 0 empty empty empty 0 -9 0 10 -262144
-1 -1 6177 1;
#X obj 32 525 OSCroute /mix1;
#X obj 903 580 OSCroute /mix2;
#X obj 476 13 buzz;
#X obj 476 -13 OSCroute /buzz;
#X obj 531 629 cnv 15 200 150 empty empty empty 20 12 0 14 -233017
-66577 0;
#X obj 544 693 s rec_data;
#X obj 643 713 s rec_msg;
#X floatatom 542 663 5 0 0 0 - - -;
#X msg 645 659 /bang1;
#X obj 552 736 recOsc;
#X text 530 633 to record signals to timeline;
#X obj 849 31 pulse;
#X obj 5 455 OSCroute /main;
#X obj 41 487 bng 15 250 50 0 empty empty empty 17 7 0 10 -262144 -1
-1;
#X connect 1 0 2 0;
#X connect 1 0 3 0;
#X connect 1 0 4 0;
#X connect 1 0 5 0;
#X connect 1 0 6 0;
#X connect 1 0 7 0;
#X connect 1 0 16 0;
#X connect 1 0 26 0;
#X connect 1 0 25 0;
#X connect 1 0 28 0;
#X connect 1 0 37 0;
#X connect 2 0 8 0;
#X connect 3 0 18 0;
#X connect 4 0 17 8;
#X connect 6 0 11 0;
#X connect 7 0 36 0;
#X connect 8 0 9 0;
#X connect 8 1 9 1;
#X connect 9 0 22 0;
#X connect 9 1 23 0;
#X connect 10 0 36 1;
#X connect 11 0 14 0;
#X connect 11 1 14 1;
#X connect 12 0 36 2;
#X connect 13 0 12 0;
#X connect 14 0 22 0;
#X connect 14 1 23 0;
#X connect 15 0 9 4;
#X connect 15 0 9 5;
#X connect 16 0 15 8;
#X connect 17 0 9 4;
#X connect 17 0 9 5;
#X connect 18 0 9 2;
#X connect 18 1 9 3;
#X connect 19 0 8 1;
#X connect 20 0 19 1;
#X connect 21 0 19 0;
#X connect 22 0 0 0;
#X connect 23 0 0 1;
#X connect 24 0 22 1;
#X connect 24 0 23 1;
#X connect 25 0 9 8;
#X connect 26 0 14 8;
#X connect 27 0 9 6;
#X connect 27 0 9 7;
#X connect 28 0 27 0;
#X connect 32 0 30 0;
#X connect 33 0 31 0;
#X connect 36 0 14 2;
#X connect 36 1 14 3;
#X connect 37 0 24 0;
#X connect 37 0 38 0;
