#N canvas 736 25 661 760 8;
#X obj 14 10 cnv 15 200 250 empty empty empty 20 12 0 14 -233017 -66577
0;
#X msg 23 52 800 600 0 0;
#X msg 26 98 320 240 0 0;
#X msg 99 51 800 600 1440 -1;
#X msg 24 74 1024 768 0 0;
#X msg 108 71 1024 768 1440 -1;
#X msg 22 143 offset \$3 \$4;
#X msg 105 143 dimen \$1 \$2;
#X obj 38 164 t b b;
#X msg 81 210 destroy;
#X obj 142 189 tgl 15 0 empty empty empty 0 -6 0 8 -262144 -1 -1 0
1;
#X text 156 187 render;
#X msg 85 191 0;
#X msg 34 191 1;
#X obj 136 210 gemwin 20;
#X msg 21 32 640 480 0 0;
#X msg 98 31 640 480 1440 -1;
#X msg 107 95 400 300 0 0;
#X msg 16 121 1440 900 0 -1;
#X text 38 11 open window;
#X obj 318 0 bng 15 250 50 0 empty empty empty 0 -6 0 8 -262144 -1
-1;
#X msg 121 163 lighting \$1;
#X obj 100 163 tgl 15 0 empty empty empty 0 -6 0 8 -262144 -1 -1 0
1;
#X text 192 114 fullscreen;
#X msg 385 9 0;
#X msg 424 10 1;
#X msg 24 233 create;
#X msg 112 117 800 600 -1 -1;
#X obj 478 15 gemhead;
#X obj 478 37 world_light;
#X msg 396 69 fullscreen 1;
#X obj 372 31 bng 15 250 50 0 empty empty empty 0 -6 0 8 -262144 -1
-1;
#X obj 395 31 bng 15 250 50 0 empty empty empty 0 -6 0 8 -262144 -1
-1;
#X obj 419 34 bng 15 250 50 0 empty empty empty 0 -6 0 8 -262144 -1
-1;
#X msg 383 87 fullscreen 0;
#X obj 234 2 dumpOSC 10002;
#X obj 34 462 cnv 15 170 250 empty empty empty 20 12 0 14 -228992 -66577
0;
#X obj 26 361 gemhead;
#N canvas 0 0 587 366 image 0;
#X obj 77 48 inlet;
#X obj 77 344 outlet;
#X obj 77 205 pix_image ../../doc/gem/examples/data/fractal.JPG;
#X obj 223 55 inlet;
#X msg 223 123 open \$1;
#X obj 223 100 openpanel;
#X obj 261 52 inlet;
#X connect 0 0 2 0;
#X connect 2 0 1 0;
#X connect 3 0 5 0;
#X connect 4 0 2 0;
#X connect 5 0 4 0;
#X connect 6 0 2 0;
#X restore 13 642 pd image;
#X text 78 614 open an image;
#X text 71 627 (JPEG \, TIFF \, ..);
#X obj 14 668 pix_texture;
#X obj 13 619 alpha;
#X obj 31 472 translateXYZ;
#X msg 93 640 open \$1;
#X msg 179 619 img/houselights;
#X obj 29 688 3wayline 30 0 30 0 1 0 300;
#X obj 395 209 ChangeText;
#X obj 480 159 tgl 15 0 empty empty empty 0 -6 0 8 -262144 -1 -1 0
1;
#X obj 38 296 OSCroute /data;
#X floatatom 150 370 5 0 0 0 - - -;
#X obj 38 315 symbol;
#X obj 112 311 OSCroute /wid;
#X obj 150 332 OSCroute /hgt;
#X floatatom 112 348 5 0 0 0 - - -;
#X obj 263 46 print;
#X obj 112 330 float;
#X obj 361 157 OSCroute /tag;
#X obj 361 185 symbol;
#X obj 150 351 float;
#X obj 333 584 cnv 15 170 250 empty empty empty 20 12 0 14 -228992
-66577 0;
#X obj 329 481 gemhead;
#N canvas 0 0 587 366 image 0;
#X obj 77 48 inlet;
#X obj 77 344 outlet;
#X obj 77 205 pix_image ../../doc/gem/examples/data/fractal.JPG;
#X obj 223 55 inlet;
#X msg 223 123 open \$1;
#X obj 223 100 openpanel;
#X obj 261 52 inlet;
#X connect 0 0 2 0;
#X connect 2 0 1 0;
#X connect 3 0 5 0;
#X connect 4 0 2 0;
#X connect 5 0 4 0;
#X connect 6 0 2 0;
#X restore 329 642 pd image;
#X text 394 614 open an image;
#X text 387 627 (JPEG \, TIFF \, ..);
#X obj 330 668 pix_texture;
#X obj 329 619 alpha;
#X obj 330 594 translateXYZ;
#X obj 330 793 rectangle;
#X msg 409 640 open \$1;
#X msg 495 619 img/houselights;
#X obj 345 688 3wayline 30 0 30 0 1 0 300;
#X obj 342 365 OSCroute /data;
#X floatatom 454 445 5 0 0 0 - - -;
#X obj 342 384 symbol;
#X obj 416 386 OSCroute /wid;
#X obj 454 407 OSCroute /hgt;
#X floatatom 416 423 5 0 0 0 - - -;
#X obj 416 405 float;
#X obj 454 426 float;
#X obj 340 341 OSCroute /pic2;
#X obj 36 271 OSCroute /pic1;
#X obj 462 329 print;
#X obj 461 293 bng 15 250 50 0 empty empty empty 17 7 0 10 -262144
-1 -1;
#X obj 113 242 bng 15 250 50 0 empty empty empty 17 7 0 10 -262144
-1 -1;
#X obj 350 502 3wayline 20 -10 6 -3 20 -20 200;
#X obj 51 380 3wayline 20 -10 6 -3 20 -20 200;
#X obj 140 285 OSCroute /rpos;
#X obj 218 306 OSCroute /rsize;
#X obj 440 359 OSCroute /rpos;
#X obj 508 378 OSCroute /rsize;
#X obj 14 793 rectangle;
#X obj 9 593 rotateXYZ;
#X obj 21 502 3wayline 360 0 360 0 360 0 200;
#X obj 210 268 OSCroute /rpos;
#X connect 1 0 6 0;
#X connect 1 0 7 0;
#X connect 1 0 8 0;
#X connect 2 0 6 0;
#X connect 2 0 7 0;
#X connect 2 0 8 0;
#X connect 3 0 6 0;
#X connect 3 0 7 0;
#X connect 3 0 8 0;
#X connect 4 0 6 0;
#X connect 4 0 7 0;
#X connect 4 0 8 0;
#X connect 5 0 7 0;
#X connect 5 0 6 0;
#X connect 5 0 8 0;
#X connect 6 0 14 0;
#X connect 7 0 14 0;
#X connect 8 0 26 0;
#X connect 8 0 13 0;
#X connect 8 1 9 0;
#X connect 8 1 12 0;
#X connect 9 0 14 0;
#X connect 10 0 14 0;
#X connect 12 0 10 0;
#X connect 12 0 22 0;
#X connect 13 0 10 0;
#X connect 13 0 22 0;
#X connect 15 0 6 0;
#X connect 15 0 7 0;
#X connect 15 0 8 0;
#X connect 16 0 8 0;
#X connect 17 0 6 0;
#X connect 17 0 7 0;
#X connect 17 0 8 0;
#X connect 18 0 7 0;
#X connect 18 0 6 0;
#X connect 18 0 8 0;
#X connect 21 0 14 0;
#X connect 22 0 21 0;
#X connect 24 0 30 0;
#X connect 24 0 34 0;
#X connect 25 0 30 0;
#X connect 26 0 14 0;
#X connect 27 0 7 0;
#X connect 27 0 8 0;
#X connect 27 0 25 0;
#X connect 28 0 29 0;
#X connect 30 0 14 0;
#X connect 33 0 9 0;
#X connect 34 0 14 0;
#X connect 35 0 20 0;
#X connect 35 0 81 0;
#X connect 35 0 80 0;
#X connect 37 0 43 0;
#X connect 38 0 41 0;
#X connect 41 0 91 0;
#X connect 42 0 38 0;
#X connect 43 0 92 0;
#X connect 44 0 38 2;
#X connect 45 0 44 0;
#X connect 46 0 91 1;
#X connect 46 1 91 2;
#X connect 48 0 47 1;
#X connect 49 0 51 0;
#X connect 51 0 44 0;
#X connect 52 0 56 0;
#X connect 53 0 59 0;
#X connect 56 0 54 0;
#X connect 57 0 58 0;
#X connect 58 0 47 0;
#X connect 59 0 50 0;
#X connect 61 0 67 0;
#X connect 62 0 65 0;
#X connect 65 0 68 0;
#X connect 66 0 62 0;
#X connect 67 0 66 0;
#X connect 69 0 62 2;
#X connect 70 0 69 0;
#X connect 71 0 68 1;
#X connect 71 1 68 2;
#X connect 72 0 74 0;
#X connect 74 0 69 0;
#X connect 75 0 78 0;
#X connect 76 0 79 0;
#X connect 78 0 77 0;
#X connect 79 0 73 0;
#X connect 80 0 72 0;
#X connect 80 0 75 0;
#X connect 80 0 76 0;
#X connect 80 0 83 0;
#X connect 80 0 89 0;
#X connect 80 0 90 0;
#X connect 81 0 49 0;
#X connect 81 0 52 0;
#X connect 81 0 53 0;
#X connect 81 0 84 0;
#X connect 81 0 87 0;
#X connect 81 0 88 0;
#X connect 81 0 94 0;
#X connect 85 0 67 1;
#X connect 85 1 67 2;
#X connect 85 2 67 3;
#X connect 86 0 43 1;
#X connect 86 1 43 2;
#X connect 86 2 43 3;
#X connect 87 0 86 0;
#X connect 88 0 46 0;
#X connect 89 0 85 0;
#X connect 90 0 71 0;
#X connect 92 0 42 0;
#X connect 93 0 92 1;
#X connect 93 1 92 2;
#X connect 93 2 92 3;
#X connect 94 0 93 0;
