#N canvas 274 104 661 760 8;
#X obj 14 10 cnv 15 200 250 empty empty empty 20 12 0 14 -233017 -66577
0;
#X msg 23 52 800 600 0 0;
#X msg 26 98 320 240 0 0;
#X msg 99 51 800 600 1440 -1;
#X msg 24 74 1024 768 0 0;
#X msg 108 71 1024 768 1440 -1;
#X msg 22 143 offset \$3 \$4;
#X msg 105 143 dimen \$1 \$2;
#X obj 38 164 t b b;
#X msg 81 210 destroy;
#X obj 142 189 tgl 15 0 empty empty empty 0 -6 0 8 -262144 -1 -1 1
1;
#X text 156 187 render;
#X msg 85 191 0;
#X msg 34 191 1;
#X obj 140 218 gemwin 20;
#X msg 21 32 640 480 0 0;
#X msg 98 31 640 480 1440 -1;
#X msg 107 95 400 300 0 0;
#X text 38 11 open window;
#X obj 328 6 bng 15 250 50 0 empty empty empty 0 -6 0 8 -262144 -1
-1;
#X msg 121 163 lighting \$1;
#X obj 100 163 tgl 15 0 empty empty empty 0 -6 0 8 -262144 -1 -1 1
1;
#X text 192 114 fullscreen;
#X msg 385 9 0;
#X msg 424 10 1;
#X msg 112 117 800 600 -1 -1;
#X obj 478 15 gemhead;
#X obj 478 37 world_light;
#X msg 396 69 fullscreen 1;
#X obj 372 31 bng 15 250 50 0 empty empty empty 0 -6 0 8 -262144 -1
-1;
#X obj 395 31 bng 15 250 50 0 empty empty empty 0 -6 0 8 -262144 -1
-1;
#X obj 419 34 bng 15 250 50 0 empty empty empty 0 -6 0 8 -262144 -1
-1;
#X msg 383 87 fullscreen 0;
#X obj 244 3 dumpOSC 10002;
#X obj 263 46 print;
#X obj 29 340 OSCroute /pic2;
#X obj 23 293 OSCroute /pic1;
#X obj 122 337 bng 15 250 50 0 empty empty empty 17 7 0 10 -262144
-1 -1;
#X obj 117 291 bng 15 250 50 0 empty empty empty 17 7 0 10 -262144
-1 -1;
#X obj 29 365 videoPicsSide;
#X obj 273 382 OSCroute /circle2;
#X obj 272 316 OSCroute /circle1;
#X obj 275 442 OSCroute /circle3;
#X obj 271 496 OSCroute /circle4;
#X obj 23 314 videoPicsSide;
#X obj 271 341 videoPicsCentre;
#X text 274 292 had to disconnect these because of crash;
#X msg 362 149 border 0;
#X msg 16 121 1440 900 0 0;
#X msg 24 233 create :0.0;
#X obj 433 128 bng 15 250 50 0 empty empty empty 17 7 0 10 -262144
-1 -1;
#X obj 440 152 t b b;
#X text 466 128 <== LAUNCH;
#X obj 274 405 videoPicsCentre;
#X obj 272 519 videoPicsCentre;
#X obj 276 465 videoPicsCentre;
#X connect 1 0 6 0;
#X connect 1 0 7 0;
#X connect 1 0 8 0;
#X connect 2 0 6 0;
#X connect 2 0 7 0;
#X connect 2 0 8 0;
#X connect 3 0 6 0;
#X connect 3 0 7 0;
#X connect 3 0 8 0;
#X connect 4 0 6 0;
#X connect 4 0 7 0;
#X connect 4 0 8 0;
#X connect 5 0 7 0;
#X connect 5 0 6 0;
#X connect 5 0 8 0;
#X connect 6 0 14 0;
#X connect 7 0 14 0;
#X connect 8 0 49 0;
#X connect 8 0 13 0;
#X connect 8 1 9 0;
#X connect 8 1 12 0;
#X connect 9 0 14 0;
#X connect 10 0 14 0;
#X connect 12 0 10 0;
#X connect 12 0 21 0;
#X connect 13 0 10 0;
#X connect 13 0 21 0;
#X connect 15 0 6 0;
#X connect 15 0 7 0;
#X connect 15 0 8 0;
#X connect 16 0 8 0;
#X connect 17 0 6 0;
#X connect 17 0 7 0;
#X connect 17 0 8 0;
#X connect 20 0 14 0;
#X connect 21 0 20 0;
#X connect 23 0 28 0;
#X connect 23 0 32 0;
#X connect 24 0 28 0;
#X connect 25 0 7 0;
#X connect 25 0 8 0;
#X connect 25 0 24 0;
#X connect 26 0 27 0;
#X connect 28 0 14 0;
#X connect 31 0 9 0;
#X connect 32 0 14 0;
#X connect 33 0 19 0;
#X connect 33 0 36 0;
#X connect 33 0 35 0;
#X connect 33 0 41 0;
#X connect 33 0 40 0;
#X connect 33 0 42 0;
#X connect 33 0 43 0;
#X connect 35 0 37 0;
#X connect 35 0 39 0;
#X connect 36 0 38 0;
#X connect 36 0 44 0;
#X connect 40 0 53 0;
#X connect 41 0 45 0;
#X connect 42 0 55 0;
#X connect 43 0 54 0;
#X connect 47 0 14 0;
#X connect 48 0 7 0;
#X connect 48 0 6 0;
#X connect 48 0 8 0;
#X connect 49 0 14 0;
#X connect 50 0 51 0;
#X connect 51 0 4 0;
#X connect 51 1 47 0;
