#N canvas 531 58 583 727 10;
#X obj 155 394 cnv 15 170 250 empty empty empty 20 12 0 14 -228992
-66577 0;
#X obj 151 291 gemhead;
#N canvas 0 0 587 366 image 0;
#X obj 77 48 inlet;
#X obj 77 344 outlet;
#X obj 77 205 pix_image ../../doc/gem/examples/data/fractal.JPG;
#X obj 223 55 inlet;
#X msg 223 123 open \$1;
#X obj 223 100 openpanel;
#X obj 261 52 inlet;
#X connect 0 0 2 0;
#X connect 2 0 1 0;
#X connect 3 0 5 0;
#X connect 4 0 2 0;
#X connect 5 0 4 0;
#X connect 6 0 2 0;
#X restore 151 452 pd image;
#X text 216 424 open an image;
#X text 209 437 (JPEG \, TIFF \, ..);
#X obj 152 478 pix_texture;
#X obj 152 404 translateXYZ;
#X obj 152 603 rectangle;
#X msg 231 450 open \$1;
#X msg 317 429 img/houselights;
#X obj 167 498 3wayline 30 0 30 0 1 0 300;
#X obj 164 175 OSCroute /data;
#X floatatom 276 255 5 0 0 0 - - -;
#X obj 164 194 symbol;
#X obj 238 196 OSCroute /wid;
#X obj 276 217 OSCroute /hgt;
#X floatatom 238 233 5 0 0 0 - - -;
#X obj 238 215 float;
#X obj 276 236 float;
#X obj 284 139 print;
#X obj 172 312 3wayline 20 -10 6 -3 20 -20 200;
#X obj 262 169 OSCroute /rpos;
#X obj 330 188 OSCroute /rsize;
#X obj 155 75 inlet;
#X obj 144 252 tgl 15 0 empty empty empty 17 7 0 10 -262144 -1 -1 1
1;
#X obj 120 226 OSCroute /on;
#X connect 1 0 6 0;
#X connect 2 0 5 0;
#X connect 5 0 7 0;
#X connect 6 0 2 0;
#X connect 8 0 2 2;
#X connect 9 0 8 0;
#X connect 10 0 7 1;
#X connect 10 1 7 2;
#X connect 11 0 13 0;
#X connect 13 0 8 0;
#X connect 14 0 17 0;
#X connect 15 0 18 0;
#X connect 17 0 16 0;
#X connect 18 0 12 0;
#X connect 20 0 6 1;
#X connect 20 1 6 2;
#X connect 20 2 6 3;
#X connect 21 0 20 0;
#X connect 22 0 10 0;
#X connect 23 0 11 0;
#X connect 23 0 14 0;
#X connect 23 0 15 0;
#X connect 23 0 21 0;
#X connect 23 0 22 0;
#X connect 23 0 25 0;
#X connect 24 0 1 0;
#X connect 25 0 24 0;
