#N canvas 689 58 583 727 10;
#X obj 49 298 cnv 15 170 250 empty empty empty 20 12 0 14 -228992 -66577
0;
#X obj 45 195 gemhead;
#N canvas 0 0 587 366 image 0;
#X obj 77 48 inlet;
#X obj 77 344 outlet;
#X obj 77 205 pix_image ../../doc/gem/examples/data/fractal.JPG;
#X obj 223 55 inlet;
#X msg 223 123 open \$1;
#X obj 223 100 openpanel;
#X obj 261 52 inlet;
#X connect 0 0 2 0;
#X connect 2 0 1 0;
#X connect 3 0 5 0;
#X connect 4 0 2 0;
#X connect 5 0 4 0;
#X connect 6 0 2 0;
#X restore 59 377 pd image;
#X text 110 328 open an image;
#X text 103 341 (JPEG \, TIFF \, ..);
#X obj 146 579 pix_texture;
#X obj 46 308 translateXYZ;
#X msg 125 354 open \$1;
#X obj 42 91 OSCroute /data;
#X floatatom 170 193 5 0 0 0 - - -;
#X obj 58 132 symbol;
#X obj 132 134 OSCroute /wid;
#X obj 170 155 OSCroute /hgt;
#X floatatom 132 171 5 0 0 0 - - -;
#X obj 132 153 float;
#X obj 170 174 float;
#X obj 178 77 print;
#X obj 77 215 3wayline 20 -10 6 -3 20 -20 200;
#X obj 156 107 OSCroute /rpos;
#X obj 224 126 OSCroute /rsize;
#X obj 49 13 inlet;
#X obj 268 374 openpanel;
#X obj 273 353 bng 15 250 50 0 empty empty empty 17 7 0 10 -262144
-1 -1;
#X obj 42 416 pix_alpha;
#X obj 146 704 circle;
#X obj 204 427 hsl 128 15 0 1 0 0 empty empty empty -2 -8 0 10 -262144
-1 -1 0 1;
#X obj 207 454 hsl 128 15 0 1 0 0 empty empty empty -2 -8 0 10 -262144
-1 -1 0 1;
#X floatatom 295 431 5 0 0 0 - - -;
#X floatatom 294 454 5 0 0 0 - - -;
#X obj 51 345 alpha;
#X obj 344 249 rotateXYZ;
#X obj 375 156 3wayline 360 0 360 0 360 0 1000;
#X obj 374 124 OSCroute /rrot;
#X obj 161 599 3wayline 30 0 30 0 1 0 300;
#X obj 367 301 OSCroute /alpha;
#X obj 360 475 loadbang;
#X obj 366 342 unpack f f;
#X obj 480 125 bng 15 250 50 0 empty empty empty 17 7 0 10 -262144
-1 -1;
#X msg 239 482 1 1 1;
#X msg 240 513 0 0 0;
#X obj 405 394 OSCroute /fadeout;
#X obj 437 446 del;
#X obj 426 531 line 0 10;
#X obj 428 421 t b f;
#X floatatom 442 563 5 0 0 0 - - -;
#X msg 426 500 \$1 1000;
#X msg 423 468 0;
#X msg 215 315 img/white.jpg;
#X connect 1 0 30 0;
#X connect 2 0 23 0;
#X connect 5 0 24 0;
#X connect 6 0 29 0;
#X connect 7 0 2 2;
#X connect 8 0 10 0;
#X connect 10 0 7 0;
#X connect 11 0 14 0;
#X connect 12 0 15 0;
#X connect 14 0 13 0;
#X connect 15 0 9 0;
#X connect 17 0 6 1;
#X connect 17 1 6 2;
#X connect 17 2 6 3;
#X connect 18 0 17 0;
#X connect 19 0 33 0;
#X connect 20 0 8 0;
#X connect 20 0 11 0;
#X connect 20 0 12 0;
#X connect 20 0 18 0;
#X connect 20 0 19 0;
#X connect 20 0 32 0;
#X connect 20 0 34 0;
#X connect 20 0 40 0;
#X connect 21 0 7 0;
#X connect 22 0 21 0;
#X connect 23 0 5 0;
#X connect 25 0 23 1;
#X connect 25 0 27 0;
#X connect 26 0 23 2;
#X connect 26 0 28 0;
#X connect 29 0 2 0;
#X connect 30 0 6 0;
#X connect 31 0 30 1;
#X connect 31 1 30 2;
#X connect 31 2 30 3;
#X connect 32 0 31 0;
#X connect 32 0 37 0;
#X connect 33 0 24 1;
#X connect 34 0 36 0;
#X connect 35 0 38 0;
#X connect 35 0 39 0;
#X connect 35 0 47 0;
#X connect 36 0 45 0;
#X connect 36 1 26 0;
#X connect 38 0 23 3;
#X connect 39 0 23 4;
#X connect 40 0 43 0;
#X connect 41 0 46 0;
#X connect 42 0 25 0;
#X connect 42 0 44 0;
#X connect 43 0 41 0;
#X connect 43 1 41 1;
#X connect 45 0 42 0;
#X connect 46 0 45 0;
#X connect 47 0 7 0;
