#N canvas 748 150 587 810 10;
#X obj 228 70 hsl 128 15 0 127 0 0 empty empty empty -2 -8 0 10 -262144
-1 -1 200 1;
#X obj 127 29 hsl 128 15 20 5000 1 0 empty empty empty -2 -8 0 10 -262144
-1 -1 4696 1;
#X floatatom 218 30 5 0 0 0 - - -;
#X floatatom 318 71 5 0 0 0 - - -;
#X obj 125 7 t b;
#X obj 125 69 sig~;
#X obj 207 95 +~;
#X obj 189 120 +~;
#X obj 377 79 hsl 128 15 0 20 0 0 empty empty empty -2 -8 0 10 -262144
-1 -1 800 1;
#X floatatom 470 80 5 0 0 0 - - -;
#X obj 85 540 ../cmp/mixer wider;
#X obj 187 187 ../cmp/multi_osc1;
#X obj 386 291 *~ 1;
#X obj 418 262 hsl 128 15 0 128 0 0 empty empty empty -2 -8 0 10 -262144
-1 -1 299 1;
#X floatatom 512 264 5 0 0 0 - - -;
#X obj 315 444 samphold~;
#X obj 377 411 phasor~;
#X obj 308 393 noise~;
#X obj 383 370 hsl 128 15 0 127 0 0 empty empty empty -2 -8 0 10 -262144
-1 -1 1300 1;
#X obj 467 454 lop~;
#X obj 391 576 osc~;
#X obj 392 552 +~ 50;
#X obj 392 523 *~ 30;
#X obj 443 505 hsl 128 15 0 127 0 0 empty empty empty -2 -8 0 10 -262144
-1 -1 0 1;
#X obj 446 534 hsl 128 15 20 1000 1 0 empty empty empty -2 -8 0 10
-262144 -1 -1 0 1;
#X floatatom 470 373 5 0 0 0 - - -;
#X obj 93 346 *~ 1;
#X obj 98 386 ../cmp/envelope;
#X obj 183 335 metro 1000;
#X obj 189 309 tgl 15 0 empty empty empty 17 7 0 10 -262144 -1 -1 0
1;
#X msg 267 341 10 60 10 400 400;
#X obj 21 191 ../cmp/multi_osc1;
#X obj 385 130 ../cmp/multi_osc1;
#X msg 62 130 0 89 0 0;
#X msg 255 528 90 90 0 0;
#X obj 15 21 bng 15 250 50 0 empty empty empty 17 7 0 10 -262144 -1
-1;
#X obj 15 43 bang;
#X obj 14 -2 loadbang;
#X msg 179 5 200;
#X msg 313 8 2;
#X obj 78 742 outlet~;
#X obj 169 749 outlet~;
#X obj 525 -4 inlet;
#X obj 421 17 OSCroute /f;
#X obj 473 45 OSCroute /t;
#X msg 416 239 1;
#X obj 356 9 mtof;
#X obj 419 53 bng 15 250 50 0 empty empty empty 17 7 0 10 -262144 -1
-1;
#X obj 385 -5 OSCroute /m;
#X obj 338 41 * 1;
#X obj 368 41 hsl 50 15 0.1 10 1 0 empty empty empty -2 -8 0 10 -262144
-1 -1 3000 1;
#X floatatom 385 41 5 0 0 0 - - -;
#X obj 106 157 OSCroute /o1;
#X obj 263 153 OSCroute /o2;
#X obj 535 88;
#X obj 498 68 OSCroute /mt;
#X floatatom 535 117 5 0 0 0 - - -;
#X obj 548 25 bng 15 250 50 0 empty empty empty 17 7 0 10 -262144 -1
-1;
#X obj 544 171 * 132;
#X obj 509 98 bng 15 250 50 0 empty empty empty 17 7 0 10 -262144 -1
-1;
#X obj 440 313 hsl 128 15 0 127 0 0 empty empty empty -2 -8 0 10 -262144
-1 -1 10700 1;
#X connect 0 0 3 0;
#X connect 0 0 4 0;
#X connect 0 0 6 1;
#X connect 1 0 2 0;
#X connect 2 0 5 0;
#X connect 2 0 7 0;
#X connect 4 0 1 0;
#X connect 5 0 31 3;
#X connect 6 0 7 1;
#X connect 7 0 11 3;
#X connect 8 0 9 0;
#X connect 8 0 32 0;
#X connect 10 0 40 0;
#X connect 10 1 41 0;
#X connect 11 0 26 0;
#X connect 12 0 6 0;
#X connect 13 0 12 1;
#X connect 13 0 14 0;
#X connect 15 0 19 0;
#X connect 16 0 15 1;
#X connect 17 0 15 0;
#X connect 18 0 16 0;
#X connect 18 0 19 1;
#X connect 18 0 25 0;
#X connect 19 0 22 0;
#X connect 19 0 12 0;
#X connect 20 0 10 4;
#X connect 20 0 10 5;
#X connect 21 0 20 0;
#X connect 22 0 21 0;
#X connect 23 0 22 1;
#X connect 24 0 21 1;
#X connect 26 0 27 0;
#X connect 27 0 10 0;
#X connect 27 0 10 1;
#X connect 28 0 27 1;
#X connect 29 0 28 0;
#X connect 30 0 27 2;
#X connect 31 0 26 0;
#X connect 33 0 31 1;
#X connect 33 0 11 1;
#X connect 34 0 10 9;
#X connect 35 0 36 0;
#X connect 36 0 33 0;
#X connect 36 0 30 0;
#X connect 36 0 34 0;
#X connect 36 0 39 0;
#X connect 36 0 38 0;
#X connect 36 0 45 0;
#X connect 37 0 35 0;
#X connect 38 0 1 0;
#X connect 39 0 0 0;
#X connect 42 0 43 0;
#X connect 42 0 44 0;
#X connect 42 0 48 0;
#X connect 42 0 52 0;
#X connect 42 0 53 0;
#X connect 42 0 55 0;
#X connect 42 0 57 0;
#X connect 43 0 47 0;
#X connect 43 0 49 0;
#X connect 44 0 27 1;
#X connect 45 0 13 0;
#X connect 46 0 1 0;
#X connect 47 0 27 1;
#X connect 48 0 46 0;
#X connect 49 0 2 0;
#X connect 50 0 49 1;
#X connect 50 0 51 0;
#X connect 52 0 31 2;
#X connect 53 0 11 2;
#X connect 55 0 56 0;
#X connect 55 0 59 0;
#X connect 56 0 58 0;
#X connect 58 0 49 0;
#X connect 59 0 47 0;
#X connect 60 0 58 1;
