#N canvas 692 205 274 385 10;
#X obj 24 0 inlet~;
#X obj 35 30 inlet;
#X obj 30 172 vcf~;
#X obj 39 55 osc~;
#X obj 164 28 inlet;
#X obj 22 229 outlet~;
#X obj 40 86 *~;
#X obj 42 114 +~;
#X obj 81 30 inlet;
#X obj 123 26 inlet;
#X connect 0 0 2 0;
#X connect 1 0 3 0;
#X connect 2 0 5 0;
#X connect 3 0 6 0;
#X connect 4 0 2 2;
#X connect 6 0 7 0;
#X connect 7 0 2 1;
#X connect 8 0 6 1;
#X connect 9 0 7 1;
