#N canvas 31 414 450 300 10;
#X floatatom 14 82 5 0 0 0 - - -;
#X obj 51 114 +;
#X floatatom 82 114 5 0 0 0 - - -;
#X floatatom 44 158 5 0 0 0 - - -;
#X msg 13 133 1;
#X obj 79 209 /;
#X msg 82 90 0;
#X obj 82 71 bng 15 250 50 0 empty empty empty 0 -6 0 8 -262144 -1
-1;
#X floatatom 79 232 5 0 0 0 - - -;
#X obj 14 57 inlet;
#X obj 81 49 inlet;
#X obj 79 252 outlet;
#X obj 15 159 + 0;
#X obj 125 177 t b f;
#X obj 118 138 + 0;
#X msg 149 110 0;
#X connect 0 0 1 0;
#X connect 0 0 4 0;
#X connect 1 0 2 0;
#X connect 2 0 1 1;
#X connect 2 0 14 1;
#X connect 3 0 12 1;
#X connect 3 0 13 0;
#X connect 4 0 12 0;
#X connect 5 0 8 0;
#X connect 6 0 3 0;
#X connect 6 0 2 0;
#X connect 7 0 6 0;
#X connect 8 0 11 0;
#X connect 9 0 0 0;
#X connect 10 0 7 0;
#X connect 12 0 3 0;
#X connect 13 0 15 0;
#X connect 13 1 5 1;
#X connect 14 0 5 0;
#X connect 15 0 14 0;
