#N canvas 112 275 686 391 10;
#X obj -75 97 cnv 15 400 200 empty empty empty 20 12 0 14 -233017 -66577
0;
#X msg 267 200 print;
#X msg 181 201 start;
#X msg 226 198 stop;
#X text 78 321 writesf~ -- write audio signals to a soundfile;
#X text 89 280 creation argument is number of channels;
#X text 93 272 (1 to 64).;
#X obj 47 298 writesf~ 2;
#X text 118 299 makes 24-bit soundfile;
#X obj -26 164 *~ 1;
#X obj 30 143 hsl 128 15 0 127 0 0 empty empty empty -2 -6 0 8 -262144
-1 -1 7000 1;
#X obj -9 142 / 127;
#X obj 194 145 loadbang;
#X obj 128 44 adc~ 1 2 3 4;
#X msg 168 144 70;
#X msg 190 168 0;
#X obj -26 105 inlet~;
#X obj 127 85 *~ 1;
#X obj 168 69 hsl 128 15 0 5 0 0 empty empty empty -2 -6 0 8 -262144
-1 -1 0 1;
#X obj 194 115 dac~;
#X obj 322 187 bng 15 250 50 0 empty empty empty 0 -6 0 8 -262144 -1
-1;
#X text 322 170 rec both channel;
#X obj 377 120 bng 15 250 50 0 empty empty empty 0 -6 0 8 -262144 -1
-1;
#X obj 408 117 bng 15 250 50 0 empty empty empty 0 -6 0 8 -262144 -1
-1;
#X floatatom 262 70 5 0 0 0 - - -;
#X obj 388 147 delay 2;
#X msg 354 196 open f:/media/output/song5-2.wav;
#X msg -25 191 open f:/media/output/song5-1.wav;
#X connect 1 0 7 0;
#X connect 2 0 7 0;
#X connect 3 0 7 0;
#X connect 9 0 7 0;
#X connect 9 0 7 1;
#X connect 9 0 19 0;
#X connect 9 0 19 1;
#X connect 10 0 11 0;
#X connect 11 0 9 1;
#X connect 12 0 14 0;
#X connect 12 0 15 0;
#X connect 13 0 17 0;
#X connect 13 1 17 0;
#X connect 14 0 10 0;
#X connect 16 0 9 0;
#X connect 17 0 19 0;
#X connect 17 0 19 1;
#X connect 18 0 17 1;
#X connect 18 0 24 0;
#X connect 22 0 27 0;
#X connect 22 0 25 0;
#X connect 25 0 26 0;
#X connect 27 0 7 0;
