#N canvas 728 36 655 786 10;
#X floatatom 18 532 5 0 0 0 - - -;
#X obj 55 438 + 1;
#X obj 20 437 f;
#X floatatom 19 469 5 0 0 0 - - -;
#X obj 37 137 route 0 1 2 3;
#X obj 102 185 bng 15 250 50 0 empty empty empty 0 -6 0 8 -262144 -1
-1;
#X obj 122 185 bng 15 250 50 0 empty empty empty 0 -6 0 8 -262144 -1
-1;
#X floatatom 66 96 5 0 0 0 - - -;
#X obj 38 72 random 4;
#X obj 57 458 mod 8;
#X msg 85 415 4;
#X msg 146 418 16;
#X msg 114 417 8;
#X obj 19 487 + 0;
#X obj 74 486 hsl 128 15 0 12 0 0 empty empty empty -2 -6 0 8 -262144
-1 -1 458 1;
#X floatatom 172 487 5 0 0 0 - - -;
#X obj 38 51 switch_bang;
#X text 76 484 start beat pos;
#X obj 18 507 tabread \$0-sequ;
#X obj 20 10 inlet;
#X obj 37 94 + 0;
#X obj 18 592 outlet;
#X msg 80 344 \; \$1 0 50 60 100 680 450 870 160 400;
#X obj 111 93 symbol \$0-sequ;
#X obj 113 70 bng 15 250 50 0 empty empty empty 0 -6 0 8 -262144 -1
-1;
#X msg 76 309 \; \$1 0 50 60 100 480 365 570 100 760;
#X msg 76 261 \; \$1 0 50 60 100 320 505 999 300 780 230 450 780 900
345 123 567 540;
#X msg 76 208 \; \$1 0 50 60 100 440 365 700 300 250 200 250 260 280
560 740 120 780;
#X obj 36 117 pack f s;
#X obj 32 209 symbol;
#X obj 33 262 symbol;
#X obj 34 310 symbol;
#X obj 35 344 symbol;
#X obj 204 48 loadbang;
#X msg 138 24 0;
#X msg 165 23 1;
#X msg 190 25 2;
#X msg 213 23 3;
#X obj 35 550 hsl 128 15 0.2 5 0 0 empty empty empty -2 -6 0 8 -262144
-1 -1 517 1;
#X obj 19 569 * 1;
#X floatatom 128 549 5 0 0 0 - - -;
#X msg 87 389 2;
#X floatatom 78 596 5 0 0 0 - - -;
#X msg 39 409 0;
#X obj 98 5 inlet;
#X text 132 2 randomise;
#X msg 129 153;
#X obj 315 43 table \$0-sequ;
#X obj 257 99 inlet;
#X obj 401 111 inlet;
#X text 434 105 control input;
#X text 435 118 1 beats/bar;
#X text 436 130 2 start beat;
#X text 436 142 3 multiplier;
#X obj 253 617 tabwrite \$0-sequ;
#X obj 233 452 t f b;
#X obj 249 495 t f b;
#X obj 263 540 t f b;
#X obj 308 450 t f b;
#X obj 313 494 t f b;
#X obj 364 446 t f b;
#X obj 343 548 t f b;
#X obj 386 487 t f b;
#X msg 258 473 0;
#X msg 275 517 1;
#X msg 289 564 2;
#X msg 332 470 3;
#X msg 337 516 4;
#X msg 368 568 5;
#X msg 390 467 6;
#X msg 406 512 7;
#X obj 410 446 t f b;
#X obj 426 489 t f b;
#X obj 440 534 t f b;
#X obj 485 444 t f b;
#X obj 490 488 t f b;
#X obj 541 440 t f b;
#X obj 520 542 t f b;
#X obj 563 481 t f b;
#X msg 435 467 8;
#X msg 452 511 9;
#X msg 466 558 10;
#X msg 509 464 11;
#X msg 514 510 12;
#X msg 545 562 13;
#X msg 567 461 14;
#X msg 583 506 15;
#X obj 261 417 unpack f f f f f f f f f f f f f f f f;
#X obj 80 640 print;
#X text 294 85 sequence input (up to 16 notes);
#X obj 423 169 unpack f f f;
#X obj 45 486 int;
#X msg 273 377 234 456 43 787 343 323 676 232 878 3434 767 3434 76
2323 988 232;
#X floatatom 456 223 5 0 0 0 - - -;
#X floatatom 535 216 5 0 0 0 - - -;
#X floatatom 501 213 5 0 0 0 - - -;
#X obj 372 145 bng 15 250 50 0 empty empty empty 0 -6 0 8 -262144 -1
-1;
#X floatatom 85 438 5 0 0 0 - - -;
#X connect 0 0 39 0;
#X connect 1 0 9 0;
#X connect 2 0 3 0;
#X connect 2 0 1 0;
#X connect 3 0 13 0;
#X connect 4 0 5 0;
#X connect 4 0 29 0;
#X connect 4 1 6 0;
#X connect 4 1 30 0;
#X connect 4 2 31 0;
#X connect 4 3 32 0;
#X connect 8 0 7 0;
#X connect 8 0 20 0;
#X connect 9 0 2 1;
#X connect 10 0 97 0;
#X connect 11 0 97 0;
#X connect 12 0 97 0;
#X connect 13 0 18 0;
#X connect 14 0 15 0;
#X connect 14 0 91 0;
#X connect 16 0 8 0;
#X connect 18 0 0 0;
#X connect 19 0 16 0;
#X connect 19 0 2 0;
#X connect 20 0 28 0;
#X connect 23 0 28 1;
#X connect 24 0 23 0;
#X connect 28 0 4 0;
#X connect 29 0 27 0;
#X connect 30 0 26 0;
#X connect 31 0 25 0;
#X connect 32 0 22 0;
#X connect 33 0 24 0;
#X connect 34 0 28 0;
#X connect 35 0 28 0;
#X connect 36 0 28 0;
#X connect 37 0 28 0;
#X connect 38 0 39 1;
#X connect 38 0 40 0;
#X connect 39 0 21 0;
#X connect 39 0 42 0;
#X connect 41 0 97 0;
#X connect 42 0 88 0;
#X connect 43 0 2 1;
#X connect 44 0 16 1;
#X connect 48 0 87 0;
#X connect 49 0 90 0;
#X connect 55 0 54 0;
#X connect 55 1 63 0;
#X connect 56 0 54 0;
#X connect 56 1 64 0;
#X connect 57 0 54 0;
#X connect 57 1 65 0;
#X connect 58 0 54 0;
#X connect 58 1 66 0;
#X connect 59 0 54 0;
#X connect 59 1 67 0;
#X connect 60 0 54 0;
#X connect 60 1 69 0;
#X connect 61 0 54 0;
#X connect 61 1 68 0;
#X connect 62 0 54 0;
#X connect 62 1 70 0;
#X connect 63 0 54 1;
#X connect 64 0 54 1;
#X connect 65 0 54 1;
#X connect 66 0 54 1;
#X connect 67 0 54 1;
#X connect 68 0 54 1;
#X connect 69 0 54 1;
#X connect 70 0 54 1;
#X connect 71 0 54 0;
#X connect 71 1 79 0;
#X connect 72 0 54 0;
#X connect 72 1 80 0;
#X connect 73 0 54 0;
#X connect 73 1 81 0;
#X connect 74 0 54 0;
#X connect 74 1 82 0;
#X connect 75 0 54 0;
#X connect 75 1 83 0;
#X connect 76 0 54 0;
#X connect 76 1 85 0;
#X connect 77 0 54 0;
#X connect 77 1 84 0;
#X connect 78 0 54 0;
#X connect 78 1 86 0;
#X connect 79 0 54 1;
#X connect 80 0 54 1;
#X connect 81 0 54 1;
#X connect 82 0 54 1;
#X connect 83 0 54 1;
#X connect 84 0 54 1;
#X connect 85 0 54 1;
#X connect 86 0 54 1;
#X connect 87 0 55 0;
#X connect 87 1 56 0;
#X connect 87 2 57 0;
#X connect 87 3 58 0;
#X connect 87 4 59 0;
#X connect 87 5 61 0;
#X connect 87 6 60 0;
#X connect 87 7 62 0;
#X connect 87 8 71 0;
#X connect 87 9 72 0;
#X connect 87 10 73 0;
#X connect 87 11 74 0;
#X connect 87 12 75 0;
#X connect 87 13 77 0;
#X connect 87 14 76 0;
#X connect 87 15 78 0;
#X connect 90 0 93 0;
#X connect 90 0 97 0;
#X connect 90 1 14 0;
#X connect 90 1 95 0;
#X connect 90 2 38 0;
#X connect 90 2 94 0;
#X connect 91 0 13 1;
#X connect 92 0 87 0;
#X connect 96 0 90 0;
#X connect 97 0 9 1;
