#N canvas 677 143 697 764 10;
#X obj 75 22 gemhead;
#X msg 29 80 print;
#X obj 80 491 glsl_program;
#X obj 147 311 pack 0 0;
#X msg 31 192 print;
#X obj 168 291 t b f;
#X obj 168 246 change;
#X obj 146 121 change;
#X msg 147 351 link \$1 \$2;
#X msg 105 459 print;
#X floatatom 168 272 2 0 0 0 ID - -;
#X floatatom 146 144 2 0 0 0 ID - -;
#X obj 165 372 print linking;
#X obj 74 226 glsl_fragment;
#X obj 74 102 glsl_vertex;
#X obj 80 610 pix_texture;
#X obj 124 60 bng 15 250 50 0 empty empty empty 0 -6 0 8 -262144 -1
-1;
#X obj 69 48 alpha;
#X msg 88 80 open shader1.vert;
#X msg 85 196 open shader1.frag;
#X obj 80 577 pix_image;
#X msg 261 574 mode \$1;
#X obj 261 551 tgl 15 0 empty empty empty 17 7 0 10 -262144 -1 -1 0
1;
#X floatatom 360 352 5 0 0 0 - - -;
#X msg 109 544 open txt3.jpg;
#X msg 365 423 freq \$1;
#X floatatom 366 401 5 0 0 0 - - -;
#X msg 261 526 0;
#X obj 262 506 lb;
#X msg 361 373 K \$1;
#X obj 386 58 gemwin 30;
#X msg 378 27 create \, 1;
#X text 461 24 <- 1;
#X text 152 59 <- 2;
#X obj 110 519 loadbang;
#X obj 81 643 sphere 2 30;
#X text 415 351 <- 3;
#X connect 0 0 17 0;
#X connect 1 0 14 0;
#X connect 2 0 20 0;
#X connect 3 0 8 0;
#X connect 4 0 13 0;
#X connect 5 0 3 0;
#X connect 5 1 3 1;
#X connect 6 0 10 0;
#X connect 7 0 11 0;
#X connect 8 0 2 0;
#X connect 8 0 12 0;
#X connect 9 0 2 0;
#X connect 10 0 5 0;
#X connect 11 0 3 0;
#X connect 13 0 2 0;
#X connect 13 1 6 0;
#X connect 14 0 13 0;
#X connect 14 1 7 0;
#X connect 15 0 35 0;
#X connect 16 0 18 0;
#X connect 16 0 19 0;
#X connect 17 0 14 0;
#X connect 18 0 14 0;
#X connect 19 0 13 0;
#X connect 20 0 15 0;
#X connect 21 0 15 0;
#X connect 22 0 21 0;
#X connect 23 0 29 0;
#X connect 24 0 20 0;
#X connect 25 0 2 0;
#X connect 26 0 25 0;
#X connect 27 0 22 0;
#X connect 28 0 27 0;
#X connect 29 0 2 0;
#X connect 31 0 30 0;
#X connect 34 0 24 0;
