#N canvas 1855 28 857 756 10;
#X obj 171 348 osc~;
#X obj 136 322 osc~;
#X obj 139 301 hsl 128 15 0.1 50 1 0 empty empty empty -2 -8 0 10 -262144
-1 -1 6100 1;
#X obj 137 420 *~;
#X obj 158 398 hsl 128 15 0 1 0 0 empty empty empty -2 -8 0 10 -262144
-1 -1 4100 1;
#X obj 137 370 *~;
#X obj 177 323 hsl 128 15 20 10000 0 0 empty empty empty -2 -8 0 10
-262144 -1 -1 2000 1;
#X floatatom 229 302 5 0 0 0 - - -;
#X floatatom 252 323 7 0 0 0 - - -;
#X floatatom 249 398 5 0 0 0 - - -;
#X obj 351 346 osc~;
#X obj 318 320 osc~;
#X obj 321 299 hsl 128 15 0.1 50 1 0 empty empty empty -2 -8 0 10 -262144
-1 -1 6400 1;
#X obj 317 418 *~;
#X obj 338 396 hsl 128 15 0 1 0 0 empty empty empty -2 -8 0 10 -262144
-1 -1 4400 1;
#X obj 317 368 *~;
#X obj 359 321 hsl 128 15 20 10000 0 0 empty empty empty -2 -8 0 10
-262144 -1 -1 1800 1;
#X floatatom 412 300 5 0 0 0 - - -;
#X floatatom 435 321 7 0 0 0 - - -;
#X floatatom 429 396 5 0 0 0 - - -;
#X obj 532 345 osc~;
#X obj 497 320 osc~;
#X obj 500 299 hsl 128 15 0.1 50 1 0 empty empty empty -2 -8 0 10 -262144
-1 -1 6700 1;
#X obj 498 417 *~;
#X obj 519 395 hsl 128 15 0 1 0 0 empty empty empty -2 -8 0 10 -262144
-1 -1 5700 1;
#X obj 498 367 *~;
#X obj 538 321 hsl 128 15 20 10000 0 0 empty empty empty -2 -8 0 10
-262144 -1 -1 2000 1;
#X floatatom 591 300 5 0 0 0 - - -;
#X floatatom 614 321 7 0 0 0 - - -;
#X floatatom 610 395 5 0 0 0 - - -;
#X obj 290 160 hsl 128 15 20 10000 1 0 empty empty empty -2 -8 0 10
-262144 -1 -1 7100 1;
#X floatatom 366 160 7 0 0 0 - - -;
#X obj 339 246 *;
#X obj 286 183 * 1;
#X obj 578 103 hsl 128 15 0 0.1 0 0 empty empty empty -2 -8 0 10 -262144
-1 -1 7100 1;
#X obj 317 480 *~ 1;
#X obj 310 597 ../cmp/envelope;
#X obj 272 723 dac~;
#X obj 356 576 bng 15 250 50 0 empty empty empty 17 7 0 10 -262144
-1 -1;
#X obj 322 270 +;
#X obj 516 245 *;
#X obj 499 269 +;
#X floatatom 666 105 5 0 0 0 - - -;
#X obj 707 346 osc~;
#X obj 673 320 osc~;
#X obj 676 299 hsl 128 15 0.1 50 1 0 empty empty empty -2 -8 0 10 -262144
-1 -1 6300 1;
#X obj 673 418 *~;
#X obj 694 396 hsl 128 15 0 1 0 0 empty empty empty -2 -8 0 10 -262144
-1 -1 5000 1;
#X obj 673 368 *~;
#X obj 714 321 hsl 128 15 20 10000 0 0 empty empty empty -2 -8 0 10
-262144 -1 -1 0 1;
#X floatatom 765 300 5 0 0 0 - - -;
#X floatatom 788 321 7 0 0 0 - - -;
#X floatatom 785 396 5 0 0 0 - - -;
#X obj 691 246 *;
#X obj 674 270 +;
#X obj 486 198 * 2;
#X obj 659 203 * 3;
#X obj 179 711 *~ 1;
#X obj 133 604 vsl 15 128 0 1 0 0 empty empty empty 0 -9 0 10 -262144
-1 -1 0 1;
#X floatatom 357 271 5 0 0 0 - - -;
#X floatatom 528 271 5 0 0 0 - - -;
#X floatatom 707 272 5 0 0 0 - - -;
#X floatatom 240 272 5 0 0 0 - - -;
#X obj 579 159 * 1;
#X obj 538 133 t b f;
#X obj 505 473 hsl 128 15 0.1 100 0 0 empty empty empty -2 -8 0 10
-262144 -1 -1 300 1;
#X floatatom 598 473 5 0 0 0 - - -;
#X obj 584 492 hsl 128 15 0.01 100 1 0 empty empty empty -2 -8 0 10
-262144 -1 -1 5700 1;
#X floatatom 677 492 5 0 0 0 - - -;
#X obj 559 582 env~;
#X floatatom 558 649 5 0 0 0 - - -;
#X obj 556 618 dbtorms;
#X obj 443 564 metro 100;
#X obj 504 543 hsl 128 15 1 1000 1 0 empty empty empty -2 -8 0 10 -262144
-1 -1 11400 1;
#X obj 445 545 tgl 15 0 empty empty empty 17 7 0 10 -262144 -1 -1 0
1;
#X obj 423 512 expr~ tanh($f2*$v1)*$f3;
#X obj 291 544 ../cmp/crossfade_st;
#X floatatom 598 543 5 0 0 0 - - -;
#X msg 656 542 500;
#X text 683 544 120bpm;
#X msg 655 564 250;
#X msg 657 585 125;
#X text 433 160 645;
#X text 721 98 0.055;
#X text 2 301 different ~0.5 - 2;
#X text 647 470 2.4;
#X text 723 494 0.6;
#X text 609 524 490;
#X connect 0 0 5 1;
#X connect 1 0 5 0;
#X connect 2 0 1 0;
#X connect 2 0 7 0;
#X connect 3 0 35 0;
#X connect 4 0 3 1;
#X connect 4 0 9 0;
#X connect 5 0 3 0;
#X connect 6 0 0 0;
#X connect 6 0 8 0;
#X connect 10 0 15 1;
#X connect 11 0 15 0;
#X connect 12 0 11 0;
#X connect 12 0 17 0;
#X connect 13 0 35 0;
#X connect 14 0 13 1;
#X connect 14 0 19 0;
#X connect 15 0 13 0;
#X connect 16 0 10 0;
#X connect 16 0 18 0;
#X connect 20 0 25 1;
#X connect 21 0 25 0;
#X connect 22 0 21 0;
#X connect 22 0 27 0;
#X connect 23 0 35 0;
#X connect 24 0 23 1;
#X connect 24 0 29 0;
#X connect 25 0 23 0;
#X connect 26 0 20 0;
#X connect 26 0 28 0;
#X connect 30 0 31 0;
#X connect 30 0 33 0;
#X connect 32 0 39 1;
#X connect 33 0 32 0;
#X connect 33 0 39 0;
#X connect 33 0 0 0;
#X connect 33 0 40 0;
#X connect 33 0 41 0;
#X connect 33 0 53 0;
#X connect 33 0 54 0;
#X connect 33 0 62 0;
#X connect 34 0 42 0;
#X connect 34 0 64 0;
#X connect 35 0 75 0;
#X connect 35 0 76 0;
#X connect 36 0 37 0;
#X connect 38 0 36 1;
#X connect 39 0 10 0;
#X connect 39 0 59 0;
#X connect 40 0 41 1;
#X connect 41 0 20 0;
#X connect 41 0 60 0;
#X connect 43 0 48 1;
#X connect 44 0 48 0;
#X connect 45 0 44 0;
#X connect 45 0 50 0;
#X connect 46 0 35 0;
#X connect 47 0 46 1;
#X connect 47 0 52 0;
#X connect 48 0 46 0;
#X connect 49 0 43 0;
#X connect 49 0 51 0;
#X connect 53 0 54 1;
#X connect 54 0 43 0;
#X connect 54 0 61 0;
#X connect 55 0 40 1;
#X connect 56 0 53 1;
#X connect 57 0 37 0;
#X connect 57 0 37 1;
#X connect 58 0 57 1;
#X connect 63 0 55 0;
#X connect 63 0 56 0;
#X connect 63 0 32 1;
#X connect 64 0 30 0;
#X connect 64 1 63 0;
#X connect 65 0 66 0;
#X connect 65 0 75 1;
#X connect 67 0 68 0;
#X connect 67 0 75 2;
#X connect 69 0 71 0;
#X connect 71 0 70 0;
#X connect 72 0 38 0;
#X connect 73 0 72 1;
#X connect 73 0 77 0;
#X connect 74 0 72 0;
#X connect 75 0 69 0;
#X connect 75 0 76 2;
#X connect 76 0 36 0;
#X connect 76 0 57 0;
#X connect 78 0 72 1;
#X connect 80 0 72 1;
#X connect 81 0 72 1;
