#N canvas 771 30 614 572 10;
#X obj 75 22 gemhead;
#X msg 30 62 print;
#X obj 74 446 glsl_program;
#X obj 148 306 pack 0 0;
#X msg 32 187 print;
#X obj 169 286 t b f;
#X obj 169 241 change;
#X obj 147 103 change;
#X msg 148 346 link \$1 \$2;
#X msg 31 399 print;
#X floatatom 169 267 2 0 0 0 ID - -;
#X floatatom 147 126 2 0 0 0 ID - -;
#X obj 166 367 print linking;
#X obj 74 490 rotateXYZ;
#X floatatom 93 468 5 0 0 0 - - -;
#X floatatom 349 379 5 0 0 0 - - -;
#X msg 349 397 time \$1;
#X floatatom 137 468 5 0 0 0 - - -;
#X floatatom 179 466 5 0 0 0 - - -;
#X obj 75 221 glsl_fragment;
#X obj 75 84 glsl_vertex;
#X obj 73 520 teapot;
#X obj 265 28 bng 15 250 50 0 empty empty empty 0 -6 0 8 -262144 -1
-1;
#X msg 94 60 open sin.vert;
#X msg 96 192 open sin.frag;
#X obj 350 93 gemwin;
#X msg 352 56 create \, 1;
#X text 442 57 <- 1;
#X text 290 27 <- 2;
#X text 404 379 <- 3;
#X connect 0 0 20 0;
#X connect 1 0 20 0;
#X connect 2 0 13 0;
#X connect 3 0 8 0;
#X connect 4 0 19 0;
#X connect 5 0 3 0;
#X connect 5 1 3 1;
#X connect 6 0 10 0;
#X connect 7 0 11 0;
#X connect 8 0 2 0;
#X connect 8 0 12 0;
#X connect 9 0 2 0;
#X connect 10 0 5 0;
#X connect 11 0 3 0;
#X connect 13 0 21 0;
#X connect 14 0 13 1;
#X connect 15 0 16 0;
#X connect 16 0 2 0;
#X connect 17 0 13 2;
#X connect 18 0 13 3;
#X connect 19 0 2 0;
#X connect 19 1 6 0;
#X connect 20 0 19 0;
#X connect 20 1 7 0;
#X connect 22 0 23 0;
#X connect 22 0 24 0;
#X connect 23 0 20 0;
#X connect 24 0 19 0;
#X connect 26 0 25 0;
