#N canvas 948 30 593 698 10;
#X obj 75 22 gemhead;
#X msg 29 104 print;
#X obj 77 469 glsl_program;
#X obj 147 348 pack 0 0;
#X msg 31 229 print;
#X obj 168 328 t b f;
#X obj 168 283 change;
#X obj 146 145 change;
#X msg 147 388 link \$1 \$2;
#X msg 35 421 print;
#X floatatom 168 309 2 0 0 0 ID - -;
#X floatatom 146 168 2 0 0 0 ID - -;
#X obj 165 409 print linking;
#X obj 77 513 rotateXYZ;
#X floatatom 96 491 5 0 0 0 - - -;
#X floatatom 140 491 5 0 0 0 - - -;
#X floatatom 182 489 5 0 0 0 - - -;
#X obj 74 263 glsl_fragment;
#X obj 74 126 glsl_vertex;
#X obj 77 543 teapot;
#X floatatom 305 313 5 0 0 0 - - -;
#X msg 313 404 MixRatio \$1;
#X floatatom 314 384 5 0 0 0 - - -;
#X obj 148 46 bng 15 250 50 0 empty empty empty 0 -6 0 8 -262144 -1
-1;
#X msg 307 360 LightPos 0 0 3;
#X msg 305 333 BaseColor \$1 1 \$1;
#X msg 106 89 open light.vert;
#X msg 106 227 open light.frag;
#X obj 312 72 gemwin;
#X msg 322 42 create \, 1;
#X text 400 38 <- 1;
#X text 170 46 <- 2;
#X text 498 362 <- 3;
#X connect 0 0 18 0;
#X connect 1 0 18 0;
#X connect 2 0 13 0;
#X connect 3 0 8 0;
#X connect 4 0 17 0;
#X connect 5 0 3 0;
#X connect 5 1 3 1;
#X connect 6 0 10 0;
#X connect 7 0 11 0;
#X connect 8 0 2 0;
#X connect 8 0 12 0;
#X connect 9 0 2 0;
#X connect 10 0 5 0;
#X connect 11 0 3 0;
#X connect 13 0 19 0;
#X connect 14 0 13 1;
#X connect 15 0 13 2;
#X connect 16 0 13 3;
#X connect 17 0 2 0;
#X connect 17 1 6 0;
#X connect 18 0 17 0;
#X connect 18 1 7 0;
#X connect 20 0 25 0;
#X connect 21 0 2 0;
#X connect 22 0 21 0;
#X connect 23 0 26 0;
#X connect 23 0 27 0;
#X connect 24 0 2 0;
#X connect 25 0 2 0;
#X connect 26 0 18 0;
#X connect 27 0 17 0;
#X connect 29 0 28 0;
