#N canvas 251 70 545 441 10;
#X floatatom 309 37 5 0 0 0 - - -;
#X text 319 19 n;
#X obj 296 129 /;
#X obj 309 82 - 1;
#X floatatom 259 173 10 0 0 0 - - -;
#X obj 340 262 +;
#X obj 359 58 inlet;
#X obj 238 355 outlet;
#X obj 122 69 inlet;
#X obj 175 49 loadbang;
#X obj 175 74 t b b b;
#X msg 276 54 20;
#X msg 238 309 \$1 \$1 \$1;
#X msg 260 209 0;
#X obj 260 247 f;
#X obj 219 272 t f f;
#X obj 209 232 bng 15 250 50 0 empty empty empty 0 -6 0 8 -262144 -1
-1;
#X text 200 6 increment from start to end by n steps;
#X obj 486 118 inlet;
#X text 484 96 reset;
#X text 60 381 bang increments to next clock tick value;
#X msg 226 100 1;
#X obj 296 107 t b f;
#N canvas 0 22 466 316 presteps 0;
#X obj 214 73 inlet;
#X text 207 48 ending #;
#X obj 346 70 inlet;
#X obj 261 135 t b f;
#X text 259 174 starting value;
#X obj 194 331 s switchOn;
#X obj 343 290 spigot 0;
#X msg 406 273 1;
#X msg 432 294 0;
#X obj 72 321 outlet;
#X text 331 50 total steps;
#X obj 78 68 inlet;
#X text 56 47 # of presteps;
#X obj 261 115 r onestep;
#X obj 230 171 *;
#X obj 214 230 -;
#X obj 230 192 t b f;
#X connect 0 0 15 0;
#X connect 3 0 14 0;
#X connect 3 1 14 1;
#X connect 7 0 6 1;
#X connect 8 0 6 1;
#X connect 11 0 14 0;
#X connect 13 0 3 0;
#X connect 14 0 16 0;
#X connect 15 0 9 0;
#X connect 16 0 15 0;
#X connect 16 1 15 1;
#X restore 118 204 pd presteps;
#X obj 118 234 t f f;
#X floatatom 157 274 5 0 0 0 - - -;
#X obj 340 145 t f f;
#X obj 357 357 select 0;
#X msg 118 177 1;
#X obj 226 121 t f f;
#X obj 309 53 t f f;
#X obj 340 168 s onestep;
#X floatatom 152 177 5 0 0 0 - - -;
#X msg 213 206 1;
#X msg 72 212 1;
#X msg 120 117 0.999;
#X floatatom 418 70 5 0 0 0 - - -;
#X msg 299 207 1;
#X obj 355 329 > 2;
#X connect 0 0 30 0;
#X connect 2 0 26 0;
#X connect 3 0 22 0;
#X connect 5 0 14 1;
#X connect 5 0 38 0;
#X connect 6 0 3 0;
#X connect 8 0 14 0;
#X connect 9 0 10 0;
#X connect 10 0 13 0;
#X connect 10 1 21 0;
#X connect 10 2 11 0;
#X connect 11 0 3 0;
#X connect 12 0 7 0;
#X connect 13 0 14 0;
#X connect 14 0 15 0;
#X connect 15 0 5 0;
#X connect 15 1 12 0;
#X connect 16 0 14 0;
#X connect 18 0 14 0;
#X connect 21 0 29 0;
#X connect 22 0 2 0;
#X connect 22 1 2 1;
#X connect 23 0 24 0;
#X connect 24 1 14 0;
#X connect 26 0 31 0;
#X connect 26 1 5 1;
#X connect 27 1 37 0;
#X connect 28 0 23 0;
#X connect 29 0 23 1;
#X connect 29 1 2 0;
#X connect 30 0 3 0;
#X connect 30 1 23 2;
#X connect 32 0 23 0;
#X connect 33 0 14 0;
#X connect 34 0 24 0;
#X connect 35 0 14 0;
#X connect 36 0 22 0;
#X connect 37 0 14 1;
#X connect 38 0 27 0;
