#N canvas 351 32 699 760 10;
#X floatatom 37 114 5 0 0 0 - - -;
#X floatatom 97 116 5 0 0 0 - - -;
#X obj 118 160 -;
#X floatatom 118 186 5 0 0 0 - - -;
#X obj 21 164 t b f;
#X obj 22 196 f;
#X obj 89 436 +;
#X text 35 96 start;
#X text 101 98 end;
#X floatatom 89 461 5 0 0 0 - - -;
#X obj 77 212 select 0 1;
#X obj 106 397 t b f;
#X obj 76 187 <=;
#X obj 273 728 outlet;
#X floatatom 20 224 5 0 0 0 - - -;
#X obj 161 80 inlet;
#X obj 88 137 t f f;
#X obj 147 11 loadbang;
#X msg 30 75 0;
#X msg 100 79 1;
#X obj 43 36 t b b b;
#X msg 42 376 0;
#X obj 42 414 f;
#X obj 1 439 t f f;
#X obj -9 399 bng 15 250 50 0 empty empty empty 0 -6 0 8 -262144 -1
-1;
#X obj 575 265 inlet;
#X text 573 243 reset;
#X text 4 295 bang increments to next clock tick value;
#X msg 266 139 1;
#X floatatom 304 249 5 0 0 0 - - -;
#X floatatom 367 251 5 0 0 0 - - -;
#X floatatom 426 247 5 0 0 0 - - -;
#X text 309 223 Nx;
#X text 371 222 Ny;
#X text 426 222 Nz;
#X obj 305 296 /;
#X obj 139 456 <= 1;
#X obj 139 476 select 0;
#X msg 94 522 0;
#X obj 139 506 t b b;
#X text 255 39 assuming that: start=(0 \, 0 \, 0) end=(1 \, 1 \, 1)
;
#X obj 367 294 /;
#X obj 426 294 /;
#X obj 263 677 pack 0 0 0;
#X obj 205 727 print;
#X obj 318 451 +;
#X floatatom 318 476 5 0 0 0 - - -;
#X obj 335 412 t b f;
#X msg 271 391 0;
#X obj 271 429 f;
#X obj 230 454 t f f;
#X obj 368 471 <= 1;
#X obj 368 491 select 0;
#X msg 323 537 0;
#X obj 368 521 t b b;
#X obj 526 448 +;
#X floatatom 526 473 5 0 0 0 - - -;
#X obj 543 409 t b f;
#X msg 479 388 0;
#X obj 479 426 f;
#X obj 438 451 t f f;
#X obj 576 468 <= 1;
#X obj 576 488 select 0;
#X msg 531 534 0;
#X obj 576 518 t b b;
#X msg 213 410 bang;
#X msg 429 408 bang;
#X obj 271 372 loadbang;
#X obj 380 358 *;
#X obj 426 358 *;
#X obj 373 337 t b f;
#X obj 419 337 t b f;
#X obj 304 269 t b f f;
#X obj 367 269 t b f f;
#X obj 426 269 t b f f;
#X obj 476 724 outlet;
#X text 484 697 total # of steps;
#X obj 329 129 unpack 0 0 0;
#X obj 329 105 inlet;
#X connect 0 0 4 0;
#X connect 1 0 16 0;
#X connect 2 0 3 0;
#X connect 4 0 2 0;
#X connect 4 1 2 1;
#X connect 4 1 5 0;
#X connect 5 0 14 0;
#X connect 6 0 9 0;
#X connect 6 0 22 1;
#X connect 6 0 36 0;
#X connect 11 1 6 1;
#X connect 12 0 10 0;
#X connect 15 0 22 0;
#X connect 16 0 12 1;
#X connect 16 1 2 0;
#X connect 17 0 20 0;
#X connect 17 0 21 0;
#X connect 17 0 28 0;
#X connect 18 0 4 0;
#X connect 19 0 16 0;
#X connect 20 0 18 0;
#X connect 20 1 19 0;
#X connect 21 0 22 0;
#X connect 22 0 23 0;
#X connect 23 0 6 0;
#X connect 23 1 43 0;
#X connect 24 0 22 0;
#X connect 25 0 22 0;
#X connect 28 0 35 0;
#X connect 28 0 41 0;
#X connect 28 0 42 0;
#X connect 29 0 72 0;
#X connect 30 0 73 0;
#X connect 31 0 74 0;
#X connect 35 0 11 0;
#X connect 36 0 37 0;
#X connect 37 0 39 0;
#X connect 38 0 22 1;
#X connect 39 0 38 0;
#X connect 39 1 65 0;
#X connect 41 0 47 0;
#X connect 42 0 57 0;
#X connect 43 0 13 0;
#X connect 45 0 46 0;
#X connect 45 0 49 1;
#X connect 45 0 51 0;
#X connect 47 1 45 1;
#X connect 48 0 49 0;
#X connect 49 0 50 0;
#X connect 50 0 45 0;
#X connect 50 1 43 1;
#X connect 51 0 52 0;
#X connect 52 0 54 0;
#X connect 53 0 49 1;
#X connect 54 0 53 0;
#X connect 54 1 66 0;
#X connect 55 0 56 0;
#X connect 55 0 59 1;
#X connect 55 0 61 0;
#X connect 57 1 55 1;
#X connect 58 0 59 0;
#X connect 59 0 60 0;
#X connect 60 0 55 0;
#X connect 60 1 43 2;
#X connect 61 0 62 0;
#X connect 62 0 64 0;
#X connect 63 0 59 1;
#X connect 64 0 63 0;
#X connect 65 0 49 0;
#X connect 66 0 59 0;
#X connect 67 0 48 0;
#X connect 67 0 58 0;
#X connect 68 0 69 0;
#X connect 69 0 75 0;
#X connect 70 0 68 0;
#X connect 70 1 68 1;
#X connect 71 0 69 0;
#X connect 71 1 69 1;
#X connect 72 0 35 0;
#X connect 72 1 35 1;
#X connect 72 2 68 0;
#X connect 73 0 41 0;
#X connect 73 1 41 1;
#X connect 73 2 70 0;
#X connect 74 0 42 0;
#X connect 74 1 42 1;
#X connect 74 2 71 0;
#X connect 77 0 72 0;
#X connect 77 1 73 0;
#X connect 77 2 74 0;
#X connect 78 0 77 0;
