#N canvas 0 22 454 304 10;
#X obj 101 41 inlet;
#X obj 103 88 unpack 0 0 0;
#X obj 144 248 outlet;
#X msg 144 209 0 0 \$1;
#X text 224 206 outputs 0 \, 0 \, (2pi)z;
#X obj 142 155 * 6.28319;
#X connect 0 0 1 0;
#X connect 1 2 5 0;
#X connect 3 0 2 0;
#X connect 5 0 3 0;
