#N canvas 0 0 450 300 10;
#X obj 94 97 listhash;
#X msg 84 18 3 10 11 12 \, 8 2 3 5 \, 21 34 55 89 \, 30 6 6 6;
#X obj 93 43 t l l;
#X msg 123 65 \$2 \$3 \$4;
#X msg 93 65 \$1;
#X floatatom 15 147 5 0 0 0 - - -;
#X obj 45 127 + 1;
#X obj 15 126 f;
#X obj 92 127 print;
#X msg 42 93 0;
#X obj 16 51 tgl 15 0 empty empty empty 0 -6 0 8 -262144 -1 -1 0 1
;
#X obj 18 71 metro 300;
#X obj 24 10 loadbang;
#X connect 0 0 8 0;
#X connect 1 0 2 0;
#X connect 2 0 3 0;
#X connect 2 1 4 0;
#X connect 3 0 0 1;
#X connect 4 0 0 0;
#X connect 5 0 6 0;
#X connect 5 0 0 0;
#X connect 6 0 7 1;
#X connect 7 0 5 0;
#X connect 9 0 7 1;
#X connect 10 0 11 0;
#X connect 11 0 7 0;
#X connect 12 0 1 0;
