#N canvas 285 463 687 485 10;
#X obj 296 238 prepend add;
#X obj 393 41 inlet;
#X obj 296 139 i 0;
#X obj 331 141 + 1;
#X obj 127 50 i 0;
#X obj 162 52 + 1;
#X obj 127 75 pack 0 1 2;
#X msg 127 24 bang;
#X msg 379 298 print;
#X obj 295 165 select 3;
#X msg 32 119 clear;
#X msg 32 87 0;
#X msg 30 67 bang;
#X obj 173 167 spigot;
#X msg 293 192 1;
#X msg 236 239 rewind;
#X msg 189 227 this;
#X msg 128 225 delete;
#X obj 426 435 print current;
#X obj 224 107 t b a b;
#X obj 426 382 r \$0-msgfile;
#X obj 277 380 s \$0-msgfile;
#X obj 426 408 msgfile;
#X obj 500 409 print msg;
#X obj 151 205 t b b b;
#X text 23 44 Reset all;
#X obj 224 81 inlet;
#X text 182 23 Test data;
#X obj 394 65 t b f;
#X msg 321 107 0;
#X msg 414 237 add \$1 \$2 \$3;
#X text 381 238 or:;
#X obj 32 144 s \$0-msgfile;
#X obj 341 435 outlet;
#X connect 0 0 21 0;
#X connect 1 0 28 0;
#X connect 2 0 3 0;
#X connect 2 0 9 0;
#X connect 3 0 2 1;
#X connect 4 0 5 0;
#X connect 4 0 6 0;
#X connect 5 0 4 1;
#X connect 6 0 19 0;
#X connect 7 0 4 0;
#X connect 8 0 21 0;
#X connect 9 0 14 0;
#X connect 10 0 32 0;
#X connect 11 0 10 0;
#X connect 11 0 4 1;
#X connect 11 0 13 1;
#X connect 11 0 2 1;
#X connect 12 0 11 0;
#X connect 13 0 24 0;
#X connect 14 0 13 1;
#X connect 15 0 21 0;
#X connect 16 0 21 0;
#X connect 17 0 21 0;
#X connect 19 0 13 0;
#X connect 19 1 0 0;
#X connect 19 2 2 0;
#X connect 20 0 22 0;
#X connect 22 0 33 0;
#X connect 24 0 17 0;
#X connect 24 1 16 0;
#X connect 24 2 15 0;
#X connect 26 0 19 0;
#X connect 28 0 29 0;
#X connect 28 1 9 1;
#X connect 29 0 2 1;
