#N canvas 0 22 458 308 10;
#X text 42 57 vector input 1;
#X text 228 52 vector input 2;
#X obj 45 78 inlet;
#X obj 234 71 inlet;
#X obj 164 272 outlet;
#X obj 164 249 pack 0 0 0;
#X text 92 21 Vector-Controlled CrossProduct (VCC);
#X obj 46 100 unpack 0 0 0;
#X obj 233 93 unpack 0 0 0;
#X obj 45 219 *;
#X obj 97 220 *;
#X obj 211 207 *;
#X obj 178 207 *;
#X obj 300 212 *;
#X obj 338 212 *;
#X obj 70 237 -;
#X obj 196 227 -;
#X obj 317 232 -;
#X obj 343 137 t f f;
#X obj 124 139 t f f;
#X obj 28 146 t f f;
#X obj 186 141 t f f;
#X obj 279 128 t f f;
#X obj 226 120 t f f;
#X connect 2 0 7 0;
#X connect 3 0 8 0;
#X connect 5 0 4 0;
#X connect 7 0 20 0;
#X connect 7 1 21 0;
#X connect 7 2 19 0;
#X connect 8 0 23 0;
#X connect 8 1 22 0;
#X connect 8 2 18 0;
#X connect 9 0 15 0;
#X connect 10 0 15 1;
#X connect 11 0 16 1;
#X connect 12 0 16 0;
#X connect 13 0 17 0;
#X connect 14 0 17 1;
#X connect 15 0 5 0;
#X connect 16 0 5 1;
#X connect 17 0 5 2;
#X connect 18 0 9 1;
#X connect 18 1 11 1;
#X connect 19 0 10 0;
#X connect 19 1 12 0;
#X connect 20 0 11 0;
#X connect 20 1 13 0;
#X connect 21 0 9 0;
#X connect 21 1 14 1;
#X connect 22 0 10 1;
#X connect 22 1 13 1;
#X connect 23 0 12 1;
#X connect 23 1 14 0;
