#N canvas 473 64 574 570 10;
#X floatatom 411 57 5 0 0 0 - - -;
#X floatatom 455 57 5 0 0 0 - - -;
#X floatatom 499 57 5 0 0 0 - - -;
#X obj 481 101 t b f;
#X obj 424 101 t b f;
#X obj 284 132 pack 0 0 0;
#X floatatom 248 57 5 0 0 0 - - -;
#X floatatom 292 57 5 0 0 0 - - -;
#X floatatom 336 57 5 0 0 0 - - -;
#X obj 341 104 t b f;
#X obj 284 104 t b f;
#X text 262 37 (X1 \, Y1 \, Z1);
#X text 432 40 (X2 \, Y2 \, Z2);
#X floatatom 5 67 5 0 0 0 - - -;
#X floatatom 48 67 5 0 0 0 - - -;
#X floatatom 92 67 5 0 0 0 - - -;
#X obj 97 114 t b f;
#X obj 40 114 t b f;
#X text 44 25 point;
#X text 42 42 X Y Z;
#X obj 53 375 unpack s 0 0 0 0 0 0;
#X obj 115 406 pack 0 0 0;
#X text 329 7 arbitrary Axis input;
#X obj 181 78 loadbang;
#X msg 537 40 1;
#X obj 181 101 t b b b;
#X msg 217 40 0;
#X obj 424 125 pack 1 1 1;
#X floatatom 481 13 5 0 0 0 - - -;
#X msg 181 58 bang;
#X obj 53 352 mtx_*;
#X obj 271 161 s x1y1z1;
#X obj 411 161 s x2y2z2;
#X obj 57 304 t b a;
#X obj 23 327 mtx;
#X msg 137 33 0.5;
#X floatatom 137 53 5 0 0 0 - - -;
#X obj 12 6 inlet;
#X obj 217 10 inlet;
#X obj 116 432 outlet;
#X obj 396 27 inlet;
#X text 325 247 Vector-Controlled Rotator (VCR);
#X obj 333 265 r x1y1z1;
#X obj 496 265 r x2y2z2;
#N canvas 0 22 780 750 theMatrix 0;
#X obj 129 12 inlet x1y1z1;
#X obj 295 10 inlet x2y2z2;
#N canvas 0 22 466 316 vLength 0;
#X obj 21 119 mtx_-;
#X obj 21 145 t a a;
#X obj 51 167 mtx_transpose;
#X obj 21 191 mtx_*;
#X obj 21 244 sqrt;
#X msg 21 213 \$3;
#X msg 21 89 matrix 1 3 \$1 \$2 \$3;
#X msg 236 56 matrix 1 3 \$1 \$2 \$3;
#X obj 21 270 outlet;
#X obj 206 10 inlet X2Y2Z2;
#X obj 21 34 inlet X1Y1Z1;
#X obj 206 34 t b l;
#X obj 21 61 pack 0 0 0;
#X text 69 256 sqrt((x1-x2)^2+(y1-y2)^2+(z1-z2)^2);
#X connect 0 0 1 0;
#X connect 1 0 3 0;
#X connect 1 1 2 0;
#X connect 2 0 3 1;
#X connect 3 0 5 0;
#X connect 4 0 8 0;
#X connect 5 0 4 0;
#X connect 6 0 0 0;
#X connect 7 0 0 1;
#X connect 9 0 11 0;
#X connect 10 0 12 0;
#X connect 11 0 12 0;
#X connect 11 1 7 0;
#X connect 12 0 6 0;
#X restore 139 94 pd vLength;
#X obj 139 176 t f f;
#X obj 139 203 cos;
#X obj 169 203 sin;
#X obj 61 243 -;
#X msg 27 209 1;
#X obj 84 204 t b f f;
#X floatatom 36 369 10 0 0 0 - - -;
#X floatatom 66 58 5 0 0 0 - - -;
#X floatatom 120 271 5 0 0 0 - - -;
#X text 23 244 (1-c);
#N canvas 0 22 478 328 c+(1-c)x^2 0;
#X obj 123 52 inlet;
#X obj 183 52 inlet;
#X obj 261 52 inlet;
#X text 264 28 x;
#X text 189 31 1-c;
#X text 136 31 c;
#X obj 261 75 t f f;
#X obj 265 99 *;
#X obj 160 192 +;
#X obj 183 115 *;
#X obj 160 226 outlet;
#X connect 0 0 8 1;
#X connect 1 0 9 0;
#X connect 2 0 6 0;
#X connect 6 0 7 0;
#X connect 6 1 7 1;
#X connect 7 0 9 1;
#X connect 8 0 10 0;
#X connect 9 0 8 0;
#X restore 176 443 pd c+(1-c)x^2;
#N canvas 0 22 462 312 (1-c)y*x-s*z 0;
#X obj 77 34 inlet;
#X obj 163 34 inlet;
#X obj 275 37 inlet;
#X text 77 14 (1-c);
#X text 281 14 s*z;
#X text 170 11 y*x;
#X obj 183 185 outlet;
#X obj 197 137 -;
#X obj 120 86 *;
#X connect 0 0 8 0;
#X connect 1 0 8 1;
#X connect 2 0 7 1;
#X connect 7 0 6 0;
#X connect 8 0 7 0;
#X restore 356 451 pd (1-c)y*x-s*z;
#N canvas 0 22 458 308 (1-c)z*x+s*y 0;
#X obj 158 206 outlet;
#X obj 55 38 inlet;
#X obj 166 38 inlet;
#X obj 292 36 inlet;
#X text 50 15 (1-c);
#X obj 128 82 *;
#X obj 173 137 +;
#X text 158 15 z*x;
#X text 290 16 s*y;
#X floatatom 307 148 5 0 0 0 - - -;
#X floatatom 46 139 5 0 0 0 - - -;
#X connect 1 0 5 0;
#X connect 2 0 5 1;
#X connect 3 0 6 1;
#X connect 3 0 9 0;
#X connect 5 0 6 0;
#X connect 5 0 10 0;
#X connect 6 0 0 0;
#X restore 484 450 pd (1-c)z*x+s*y;
#X obj 71 143 deg2rad;
#X floatatom 228 262 10 0 0 0 - - -;
#N canvas 0 22 458 308 (1-c)x*y+s*z 0;
#X obj 62 27 inlet;
#X obj 168 33 inlet;
#X obj 295 28 inlet;
#X obj 197 176 outlet;
#X text 57 10 (1-c);
#X text 166 12 x*y;
#X text 292 8 s*z;
#X obj 152 90 *;
#X obj 227 125 +;
#X connect 0 0 7 0;
#X connect 1 0 7 1;
#X connect 2 0 8 1;
#X connect 7 0 8 0;
#X connect 8 0 3 0;
#X restore 236 489 pd (1-c)x*y+s*z;
#N canvas 0 22 458 308 (1-c)x*z-s*y 0;
#X obj 62 27 inlet;
#X obj 168 33 inlet;
#X obj 295 28 inlet;
#X obj 197 176 outlet;
#X text 57 10 (1-c);
#X obj 152 90 *;
#X text 166 12 x*z;
#X obj 227 125 -;
#X text 292 8 s*y;
#X connect 0 0 5 0;
#X connect 1 0 5 1;
#X connect 2 0 7 1;
#X connect 5 0 7 0;
#X connect 7 0 3 0;
#X restore 200 548 pd (1-c)x*z-s*y;
#N canvas 0 22 454 304 (1-c)y*z+s*x 0;
#X obj 62 27 inlet;
#X obj 168 33 inlet;
#X obj 295 28 inlet;
#X obj 197 176 outlet;
#X text 57 10 (1-c);
#X obj 152 90 *;
#X obj 227 125 +;
#X text 166 12 y*z;
#X text 292 8 s*x;
#X connect 0 0 5 0;
#X connect 1 0 5 1;
#X connect 2 0 6 1;
#X connect 5 0 6 0;
#X connect 6 0 3 0;
#X restore 329 548 pd (1-c)y*z+s*x;
#N canvas 0 22 462 312 c 0;
#X obj 62 27 inlet;
#X obj 168 33 inlet;
#X obj 295 28 inlet;
#X obj 177 178 outlet;
#X text 165 12 (1-c);
#X text 73 9 c;
#X obj 177 155 +;
#X text 292 8 z*z;
#X obj 222 104 *;
#X obj 295 48 t f f;
#X obj 295 72 *;
#X connect 0 0 6 1;
#X connect 1 0 8 0;
#X connect 2 0 9 0;
#X connect 6 0 3 0;
#X connect 8 0 6 0;
#X connect 9 0 10 0;
#X connect 9 1 10 1;
#X connect 10 0 8 1;
#X restore 506 545 pd c + (1-c)z*z;
#N canvas 0 22 458 308 (1-c)z*y-s*x 0;
#X obj 62 27 inlet;
#X obj 168 33 inlet;
#X obj 295 28 inlet;
#X obj 197 176 outlet;
#X text 57 10 (1-c);
#X obj 152 90 *;
#X text 166 12 z*y;
#X text 292 8 s*x;
#X obj 227 125 -;
#X connect 0 0 5 0;
#X connect 1 0 5 1;
#X connect 2 0 8 1;
#X connect 5 0 8 0;
#X connect 8 0 3 0;
#X restore 445 489 pd (1-c)z*y-s*x;
#N canvas 0 22 462 312 c+(1-c)y*y 0;
#X obj 62 27 inlet;
#X obj 168 33 inlet;
#X obj 295 28 inlet;
#X obj 197 176 outlet;
#X text 176 12 (1-c);
#X obj 222 111 *;
#X obj 197 156 +;
#X text 74 10 c;
#X text 292 8 y*y;
#X obj 277 53 t f f;
#X obj 275 84 *;
#X connect 0 0 6 1;
#X connect 1 0 5 0;
#X connect 2 0 9 0;
#X connect 5 0 6 0;
#X connect 6 0 3 0;
#X connect 9 0 10 0;
#X connect 9 1 10 1;
#X connect 10 0 5 1;
#X restore 348 489 pd c+(1-c)y*y;
#X obj 192 668 mtx_print;
#X obj 127 238 t f f f f;
#X obj 389 676 mtx;
#X msg 287 628 matrix 4 4 \$1 \$2 \$3 0 \$4 \$5 \$6 0 \$7 \$8 \$9 0
0 0 0 1;
#X obj 287 607 pack 0 0 0 0 0 0 0 0 0;
#X obj 422 245 t f f;
#X obj 542 254 t f f;
#X obj 658 229 t f f;
#X obj 348 179 t f f f f;
#X obj 422 227 *;
#X obj 456 173 t f f f f;
#X obj 548 176 t f f f f;
#X obj 629 229 *;
#X obj 542 234 *;
#X text 519 207 sin*y;
#X text 412 207 sin*x;
#X text 618 206 sin*z;
#X obj 266 280 *;
#X text 236 279 x*y;
#X obj 246 308 t f f;
#X obj 72 291 t f f f f f f f f f f;
#X obj 351 280 *;
#X text 334 264 x*z;
#X obj 342 308 t f f;
#X obj 451 290 *;
#X text 418 274 y*z;
#X obj 446 313 t f f;
#X obj 236 219 t f f f f;
#X msg 53 31 45;
#X msg 525 114 0.577 0.577 0.577;
#X obj 439 151 unpack 0 0 0;
#X msg 569 56 0 0 0.6;
#X obj 287 673 outlet;
#X obj 139 115 t f f;
#X obj 295 38 t l l;
#N canvas 0 22 458 308 unitVector 0;
#X obj 176 42 inlet;
#X obj 180 241 outlet;
#X obj 304 81 inlet;
#X obj 246 122 unpack 0 0 0;
#X obj 209 164 /;
#X obj 257 164 /;
#X obj 310 170 /;
#X obj 166 89 t f f f;
#X obj 187 197 pack 0 0 0;
#X connect 0 0 7 0;
#X connect 2 0 3 0;
#X connect 3 0 4 0;
#X connect 3 1 5 0;
#X connect 3 2 6 0;
#X connect 4 0 8 0;
#X connect 5 0 8 1;
#X connect 6 0 8 2;
#X connect 7 0 4 1;
#X connect 7 1 5 1;
#X connect 7 2 6 1;
#X connect 8 0 1 0;
#X restore 343 80 pd unitVector;
#X obj 221 140 print vLength;
#X connect 0 0 2 0;
#X connect 1 0 58 0;
#X connect 2 0 57 0;
#X connect 3 0 4 0;
#X connect 3 1 5 0;
#X connect 4 0 8 0;
#X connect 5 0 51 0;
#X connect 6 0 44 0;
#X connect 7 0 6 0;
#X connect 8 0 7 0;
#X connect 8 1 6 1;
#X connect 8 2 25 0;
#X connect 10 0 16 0;
#X connect 13 0 28 0;
#X connect 14 0 28 1;
#X connect 15 0 28 2;
#X connect 18 0 28 3;
#X connect 19 0 28 6;
#X connect 20 0 28 7;
#X connect 21 0 28 8;
#X connect 22 0 28 5;
#X connect 23 0 28 4;
#X connect 25 1 13 0;
#X connect 25 2 23 0;
#X connect 25 3 21 0;
#X connect 27 0 56 0;
#X connect 28 0 27 0;
#X connect 29 0 20 2;
#X connect 29 1 22 2;
#X connect 30 0 19 2;
#X connect 30 1 15 2;
#X connect 31 0 18 2;
#X connect 31 1 14 2;
#X connect 32 0 45 0;
#X connect 32 1 41 0;
#X connect 32 2 33 1;
#X connect 32 3 13 2;
#X connect 33 0 29 0;
#X connect 34 0 48 0;
#X connect 34 1 41 1;
#X connect 34 2 37 1;
#X connect 34 3 23 2;
#X connect 35 0 48 1;
#X connect 35 1 45 1;
#X connect 35 2 36 1;
#X connect 35 3 21 2;
#X connect 36 0 31 0;
#X connect 37 0 30 0;
#X connect 41 0 43 0;
#X connect 43 0 18 1;
#X connect 43 1 14 1;
#X connect 44 1 13 1;
#X connect 44 2 20 0;
#X connect 44 3 19 0;
#X connect 44 4 22 0;
#X connect 44 5 23 1;
#X connect 44 6 18 0;
#X connect 44 7 15 0;
#X connect 44 8 14 0;
#X connect 44 9 21 1;
#X connect 45 0 47 0;
#X connect 47 0 19 1;
#X connect 47 1 15 1;
#X connect 48 0 50 0;
#X connect 50 0 20 1;
#X connect 50 1 22 1;
#X connect 51 1 33 0;
#X connect 51 2 37 0;
#X connect 51 3 36 0;
#X connect 52 0 16 0;
#X connect 54 0 32 0;
#X connect 54 1 34 0;
#X connect 54 2 35 0;
#X connect 57 0 3 0;
#X connect 57 1 59 0;
#X connect 58 0 59 1;
#X connect 58 1 2 1;
#X connect 59 0 54 0;
#X restore 371 300 pd theMatrix;
#X obj 42 146 pack 0.5 0.5 0.5;
#X msg 23 204 \$1 \$2 \$3 0;
#X obj 23 224 matrix 4 1;
#X connect 0 0 27 0;
#X connect 1 0 4 0;
#X connect 2 0 3 0;
#X connect 3 0 27 0;
#X connect 3 1 27 2;
#X connect 4 0 27 0;
#X connect 4 1 27 1;
#X connect 5 0 31 0;
#X connect 6 0 5 0;
#X connect 7 0 10 0;
#X connect 8 0 9 0;
#X connect 9 0 5 0;
#X connect 9 1 5 2;
#X connect 10 0 5 0;
#X connect 10 1 5 1;
#X connect 13 0 45 0;
#X connect 14 0 17 0;
#X connect 15 0 16 0;
#X connect 16 0 45 0;
#X connect 16 1 45 2;
#X connect 17 0 45 0;
#X connect 17 1 45 1;
#X connect 20 3 21 0;
#X connect 20 4 21 1;
#X connect 20 5 21 2;
#X connect 21 0 39 0;
#X connect 23 0 25 0;
#X connect 24 0 2 0;
#X connect 24 0 1 0;
#X connect 24 0 0 0;
#X connect 25 0 45 0;
#X connect 25 1 5 0;
#X connect 25 2 27 0;
#X connect 26 0 6 0;
#X connect 26 0 7 0;
#X connect 26 0 8 0;
#X connect 27 0 32 0;
#X connect 28 0 0 0;
#X connect 28 0 2 0;
#X connect 29 0 25 0;
#X connect 30 0 20 0;
#X connect 33 0 34 0;
#X connect 33 1 30 1;
#X connect 34 0 30 0;
#X connect 35 0 36 0;
#X connect 36 0 15 0;
#X connect 36 0 14 0;
#X connect 36 0 13 0;
#X connect 37 0 46 0;
#X connect 38 0 31 0;
#X connect 40 0 32 0;
#X connect 42 0 44 0;
#X connect 43 0 44 1;
#X connect 44 0 34 0;
#X connect 45 0 46 0;
#X connect 46 0 47 0;
#X connect 47 0 33 0;
