#N canvas 55 308 454 304 10;
#X text 89 65 vector input 1;
#X text 230 64 vector input 2;
#X obj 120 88 inlet;
#X obj 259 88 inlet;
#X obj 171 243 outlet;
#X msg 220 120 matrix 1 3 \$1 \$2 \$3;
#X msg 60 118 matrix 1 3 \$1 \$2 \$3;
#X obj 170 194 unpack s 0 0 0 0 0;
#X obj 237 224 pack 0 0 0;
#X text 89 29 Vector-Controlled Scaler (VCS);
#X obj 170 171 mtx_.*;
#X connect 2 0 6 0;
#X connect 3 0 5 0;
#X connect 5 0 10 1;
#X connect 6 0 10 0;
#X connect 7 3 8 0;
#X connect 7 4 8 1;
#X connect 7 5 8 2;
#X connect 8 0 4 0;
#X connect 10 0 7 0;
