#N canvas 799 349 454 400 10;
#X obj 86 109 mtx_-;
#X obj 86 135 t a a;
#X obj 116 157 mtx_transpose;
#X obj 86 181 mtx_*;
#X obj 86 234 sqrt;
#X floatatom 86 258 5 0 0 0 - - -;
#X msg 86 203 \$3;
#X msg 21 89 matrix 1 3 \$1 \$2 \$3;
#X msg 220 91 matrix 1 3 \$1 \$2 \$3;
#X obj 144 250 outlet;
#X obj 21 66 pack 0 0 0;
#X obj 91 41 t b f;
#X obj 34 41 t b f;
#X obj 9 14 r X1;
#X obj 46 13 r Y1;
#X obj 96 11 r Z1;
#X obj 222 62 pack 0 0 0;
#X obj 292 37 t b f;
#X obj 235 37 t b f;
#X obj 210 10 r X2;
#X obj 247 9 r Y2;
#X obj 297 7 r Z2;
#X connect 0 0 1 0;
#X connect 1 0 3 0;
#X connect 1 1 2 0;
#X connect 2 0 3 1;
#X connect 3 0 6 0;
#X connect 4 0 5 0;
#X connect 4 0 9 0;
#X connect 6 0 4 0;
#X connect 7 0 0 0;
#X connect 8 0 0 1;
#X connect 10 0 7 0;
#X connect 11 0 10 0;
#X connect 11 1 10 2;
#X connect 12 0 10 0;
#X connect 12 1 10 1;
#X connect 13 0 10 0;
#X connect 14 0 12 0;
#X connect 15 0 11 0;
#X connect 16 0 8 0;
#X connect 17 0 16 0;
#X connect 17 1 16 2;
#X connect 18 0 16 0;
#X connect 18 1 16 1;
#X connect 19 0 16 0;
#X connect 20 0 18 0;
#X connect 21 0 17 0;
