#N canvas 530 125 554 580 10;
#X obj 277 239 inlet;
#X obj 352 238 inlet;
#X obj 28 408 GEMglEnd;
#X obj 29 229 GEMglColor4f 1 0 0 0;
#X obj 29 362 GEMglColor3f 0 1 0;
#X obj 29 303 GEMglColor3f 0 0 1;
#X obj 198 125 GLdefine GL_SMOOTH;
#X obj 198 103 loadbang;
#X obj 334 162 loadbang;
#X obj 165 165 GLdefine GL_POLYGON;
#X obj 29 183 GEMglBegin;
#X obj 29 141 GEMglShadeModel;
#X obj 180 404 loadbang;
#X obj 27 444 GEMglShadeModel;
#X obj 180 426 GLdefine GL_FLAT;
#X floatatom 210 256 3 0 100 0 - - -;
#X obj 210 277 * 0.01;
#X msg 268 105 bang;
#X obj 28 383 GEMglVertex3fv 1 0 0;
#X obj 29 326 GEMglVertex3fv 0 -1 0;
#X obj 29 250 GEMglVertex3fv -1 0 0;
#X obj 386 272 inlet;
#X obj 29 7 inlet;
#X obj 402 59 GEMglFrontFace;
#X obj 391 32 GLdefine GL_CCW;
#X obj 264 38 GLdefine GL_CW;
#X msg 292 16 bang;
#X msg 401 11 bang;
#X msg 165 145 bang;
#X obj 316 184 GLdefine GL_LINE_LOOP;
#X obj 29 29 GEMglPushMatrix;
#X obj 27 468 GEMglPopMatrix;
#X msg 366 104 bang;
#X obj 193 208 GLdefine GL_LINE_STRIP;
#X obj 188 185 bng 15 250 50 0 empty empty empty 0 -6 0 8 -262144 -1
-1;
#X obj 340 87 r fill;
#X obj 445 120 r lines;
#X obj 225 484 outlet;
#X obj 327 144 GLdefine GL_TRIANGLES;
#X msg 96 61 bang;
#X obj 96 81 GLdefine GL_TRIANGLE_STRIP;
#X connect 0 0 20 1;
#X connect 1 0 19 1;
#X connect 2 0 13 0;
#X connect 3 0 20 0;
#X connect 4 0 18 0;
#X connect 5 0 19 0;
#X connect 6 0 11 1;
#X connect 7 0 6 0;
#X connect 8 0 29 0;
#X connect 9 0 10 1;
#X connect 10 0 3 0;
#X connect 11 0 10 0;
#X connect 12 0 14 0;
#X connect 13 0 31 0;
#X connect 14 0 13 1;
#X connect 15 0 16 0;
#X connect 16 0 5 2;
#X connect 17 0 6 0;
#X connect 18 0 2 0;
#X connect 19 0 4 0;
#X connect 20 0 5 0;
#X connect 21 0 18 1;
#X connect 22 0 30 0;
#X connect 24 0 23 1;
#X connect 25 0 23 1;
#X connect 26 0 25 0;
#X connect 27 0 24 0;
#X connect 28 0 9 0;
#X connect 29 0 10 1;
#X connect 30 0 11 0;
#X connect 31 0 37 0;
#X connect 32 0 38 0;
#X connect 33 0 10 1;
#X connect 34 0 33 0;
#X connect 35 0 38 0;
#X connect 36 0 29 0;
#X connect 38 0 10 1;
#X connect 39 0 40 0;
#X connect 40 0 10 1;
