#N canvas 0 22 626 573 10;
#X obj 277 239 inlet;
#X obj 352 238 inlet;
#X obj 28 454 GEMglEnd;
#X obj 29 229 GEMglColor4f 1 0 0 0;
#X obj 29 362 GEMglColor3f 0 1 0;
#X obj 29 303 GEMglColor3f 0 0 1;
#X floatatom 59 54 5 0 0 0 - - -;
#X obj 198 125 GLdefine GL_SMOOTH;
#X obj 198 103 loadbang;
#X obj 334 162 loadbang;
#X obj 165 165 GLdefine GL_POLYGON;
#X obj 29 183 GEMglBegin;
#X obj 29 141 GEMglShadeModel;
#X obj 180 450 loadbang;
#X obj 27 490 GEMglShadeModel;
#X obj 180 472 GLdefine GL_FLAT;
#X obj 28 406 GEMglColor3fv 1 1 0;
#X obj 28 429 GEMglVertex3fv 0 1 0;
#X msg 219 409 1 0 1;
#X msg 221 432 1 1 0;
#X floatatom 210 256 3 0 100 0 - - -;
#X obj 210 277 * 0.01;
#X msg 268 105 bang;
#X obj 28 383 GEMglVertex3fv 1 0 0;
#X obj 29 326 GEMglVertex3fv 0 -1 0;
#X obj 29 250 GEMglVertex3fv -1 0 0;
#X obj 386 272 inlet;
#X obj 461 271 inlet;
#X obj 29 7 inlet;
#X obj 327 144 GLdefine GL_QUADS;
#X obj 402 59 GEMglFrontFace;
#X obj 391 32 GLdefine GL_CCW;
#X obj 264 38 GLdefine GL_CW;
#X msg 292 16 bang;
#X msg 401 11 bang;
#X msg 165 145 bang;
#X obj 316 184 GLdefine GL_LINE_LOOP;
#X floatatom 98 55 5 0 0 0 - - -;
#X floatatom 157 54 5 0 0 0 - - -;
#X floatatom 212 60 5 0 0 0 - - -;
#X obj 29 73 GEMglRotatef 0 0 0 0;
#X obj 29 29 GEMglPushMatrix;
#X obj 27 514 GEMglPopMatrix;
#X obj 24 113 GEMglTranslatef 0 0 -1;
#X msg 366 104 bang;
#X obj 193 208 GLdefine GL_LINE_STRIP;
#X obj 188 185 bng 15 250 50 0 empty empty empty 0 -6 0 8 -262144 -1
-1;
#X obj 340 87 r fill;
#X obj 445 120 r lines;
#X obj 225 530 outlet;
#X connect 0 0 25 1;
#X connect 1 0 24 1;
#X connect 2 0 14 0;
#X connect 3 0 25 0;
#X connect 4 0 23 0;
#X connect 5 0 24 0;
#X connect 6 0 40 1;
#X connect 7 0 12 1;
#X connect 8 0 7 0;
#X connect 9 0 36 0;
#X connect 10 0 11 1;
#X connect 11 0 3 0;
#X connect 12 0 11 0;
#X connect 13 0 15 0;
#X connect 14 0 42 0;
#X connect 15 0 14 1;
#X connect 16 0 17 0;
#X connect 17 0 2 0;
#X connect 18 0 16 1;
#X connect 19 0 16 1;
#X connect 20 0 21 0;
#X connect 21 0 5 2;
#X connect 22 0 7 0;
#X connect 23 0 16 0;
#X connect 24 0 4 0;
#X connect 25 0 5 0;
#X connect 26 0 23 1;
#X connect 27 0 17 1;
#X connect 28 0 41 0;
#X connect 29 0 11 1;
#X connect 31 0 30 1;
#X connect 32 0 30 1;
#X connect 33 0 32 0;
#X connect 34 0 31 0;
#X connect 35 0 10 0;
#X connect 36 0 11 1;
#X connect 37 0 40 2;
#X connect 38 0 40 3;
#X connect 39 0 40 4;
#X connect 41 0 12 0;
#X connect 42 0 49 0;
#X connect 44 0 29 0;
#X connect 45 0 11 1;
#X connect 46 0 45 0;
#X connect 47 0 29 0;
#X connect 48 0 36 0;
