#N canvas 147 112 599 506 10;
#X floatatom 60 45 5 0 0 0 - - -;
#X floatatom 44 130 5 0 0 0 - - -;
#X floatatom 115 132 5 0 0 0 - - -;
#X floatatom 189 132 5 0 0 0 - - -;
#X obj 42 78 * 1;
#X floatatom 253 131 5 0 0 0 - - -;
#X floatatom 327 131 5 0 0 0 - - -;
#X obj 110 104 + 10;
#X obj 185 101 + 10;
#X obj 250 100 + 10;
#X obj 321 103 + 10;
#X obj 110 76 * 2;
#X obj 185 75 * 3;
#X obj 250 72 * 4;
#X obj 315 66 * 5;
#X msg 59 18 25;
#X obj 59 441 dac~;
#X floatatom 170 36 5 0 0 0 - - -;
#X msg 169 9 10;
#X obj 45 151 osc~;
#X obj 111 153 osc~;
#X obj 187 153 osc~;
#X obj 257 150 osc~;
#X obj 329 152 osc~;
#X obj 60 294 ../effects/envelope;
#X obj 42 231 *~ 1;
#X obj 106 230 *~ 1;
#X obj 188 231 *~ 1;
#X obj 257 228 *~ 1;
#X obj 322 225 *~ 1;
#X obj 63 207 / 1;
#X obj 131 204 / 2;
#X obj 206 203 / 3;
#X obj 271 200 / 4;
#X obj 336 194 / 5;
#X floatatom 466 168 5 0 0 0 - - -;
#X obj 466 144 hsl 128 15 0 2 0 0 empty empty empty -2 -8 0 10 -262144
-1 -1 6100 1;
#X obj 287 303 bng 15 250 50 0 empty empty empty 17 7 0 10 -262144
-1 -1;
#X floatatom 373 129 5 0 0 0 - - -;
#X obj 367 101 + 10;
#X obj 375 150 osc~;
#X obj 368 223 *~ 1;
#X floatatom 419 129 5 0 0 0 - - -;
#X obj 413 101 + 10;
#X obj 421 150 osc~;
#X obj 414 223 *~ 1;
#X obj 360 64 * 6;
#X obj 382 192 / 6;
#X obj 428 192 / 7;
#X obj 407 64 * 7;
#X obj 42 106 + 0;
#X text 332 31 not right yet sound more synthlike;
#X connect 0 0 4 0;
#X connect 0 0 11 0;
#X connect 0 0 12 0;
#X connect 0 0 13 0;
#X connect 0 0 14 0;
#X connect 0 0 46 0;
#X connect 0 0 49 0;
#X connect 1 0 19 0;
#X connect 2 0 20 0;
#X connect 3 0 21 0;
#X connect 4 0 50 0;
#X connect 5 0 22 0;
#X connect 6 0 23 0;
#X connect 7 0 2 0;
#X connect 8 0 3 0;
#X connect 9 0 5 0;
#X connect 10 0 6 0;
#X connect 11 0 7 0;
#X connect 12 0 8 0;
#X connect 13 0 9 0;
#X connect 14 0 10 0;
#X connect 15 0 0 0;
#X connect 17 0 7 1;
#X connect 17 0 8 1;
#X connect 17 0 9 1;
#X connect 17 0 10 1;
#X connect 17 0 39 1;
#X connect 17 0 43 1;
#X connect 18 0 17 0;
#X connect 19 0 25 0;
#X connect 20 0 26 0;
#X connect 21 0 27 0;
#X connect 22 0 28 0;
#X connect 23 0 29 0;
#X connect 24 0 16 0;
#X connect 24 0 16 1;
#X connect 25 0 24 0;
#X connect 26 0 24 0;
#X connect 27 0 24 0;
#X connect 28 0 24 0;
#X connect 29 0 24 0;
#X connect 30 0 25 1;
#X connect 31 0 26 1;
#X connect 32 0 27 1;
#X connect 33 0 28 1;
#X connect 34 0 29 1;
#X connect 35 0 34 0;
#X connect 35 0 33 0;
#X connect 35 0 32 0;
#X connect 35 0 31 0;
#X connect 35 0 30 0;
#X connect 35 0 47 0;
#X connect 35 0 48 0;
#X connect 36 0 35 0;
#X connect 37 0 24 1;
#X connect 38 0 40 0;
#X connect 39 0 38 0;
#X connect 40 0 41 0;
#X connect 42 0 44 0;
#X connect 43 0 42 0;
#X connect 44 0 45 0;
#X connect 46 0 39 0;
#X connect 47 0 41 1;
#X connect 48 0 45 1;
#X connect 49 0 43 0;
#X connect 50 0 1 0;
