#N canvas 1996 121 500 613 10;
#X floatatom 73 89 5 0 0 0 - - -;
#X obj 73 138 mtof;
#X obj 73 60 unpack f f;
#X obj 160 238 line~ 0 10;
#X obj 160 216 pack f f;
#X obj 69 469 *~;
#X obj 160 196 / 128;
#X obj 73 33 inlet;
#X obj 69 521 outlet~;
#X text 119 33 note \, vel;
#X obj 74 187 line~ 0 10;
#X obj 74 160 pack f f;
#X obj 73 112 + 0;
#X floatatom 156 81 5 0 0 0 - - -;
#X obj 70 433 *~;
#X obj 75 230 osc~;
#X obj 74 284 expr~ ($v1 -$v1*$v1*$v1)/0.4;
#X obj 210 482 sig~;
#X msg 211 456 1;
#X obj 212 430 loadbang;
#X obj 216 107 loadbang;
#X msg 215 133 10;
#X connect 0 0 12 0;
#X connect 1 0 11 0;
#X connect 2 0 0 0;
#X connect 2 1 6 0;
#X connect 2 1 13 0;
#X connect 3 0 5 1;
#X connect 4 0 3 0;
#X connect 5 0 8 0;
#X connect 6 0 4 0;
#X connect 7 0 2 0;
#X connect 10 0 15 0;
#X connect 11 0 10 0;
#X connect 12 0 1 0;
#X connect 14 0 5 0;
#X connect 15 0 16 0;
#X connect 16 0 14 0;
#X connect 17 0 14 1;
#X connect 18 0 17 0;
#X connect 19 0 18 0;
#X connect 20 0 21 0;
#X connect 21 0 4 1;
#X connect 21 0 11 1;
