#N canvas 2191 93 500 613 10;
#X floatatom 45 66 5 0 0 0 - - -;
#X obj 45 115 mtof;
#X obj 45 37 unpack f f;
#X obj 91 462 line~ 0 10;
#X obj 91 440 pack f f;
#X obj 74 486 *~;
#X obj 89 414 / 128;
#X obj 45 10 inlet;
#X obj 74 535 outlet~;
#X text 91 10 note \, vel;
#X obj 46 164 line~ 0 10;
#X obj 46 137 pack f f;
#X obj 45 89 + 0;
#X floatatom 128 56 5 0 0 0 - - -;
#X obj 135 352 hsl 128 15 0.1 100 0 0 empty empty empty -2 -8 0 10
-262144 -1 -1 292 1;
#X floatatom 223 353 5 0 0 0 - - -;
#X obj 209 372 hsl 128 15 0.01 100 1 0 empty empty empty -2 -8 0 10
-262144 -1 -1 5646 1;
#X floatatom 302 372 5 0 0 0 - - -;
#X obj 46 390 expr~ tanh($f2*$v1)*$f3;
#X text 272 350 2.4;
#X text 348 374 0.6;
#X obj 46 305 osc~;
#X obj 343 9 loadbang;
#X msg 97 112 10;
#X msg 205 316 2.4;
#X msg 334 307 0.6;
#X obj 241 316 inlet;
#X obj 368 305 inlet;
#X obj 168 83 != 0;
#X obj 169 105 select 1;
#X obj 171 126 bng 15 250 50 0 empty empty empty 17 7 0 10 -262144
-1 -1;
#X obj 261 74 sig~;
#X msg 262 51 1;
#X obj 46 358 *~;
#X obj 151 241 osc~;
#X obj 413 131 inlet;
#X obj 200 30 bng 15 250 50 0 empty empty empty 17 7 0 10 -262144 -1
-1;
#X floatatom 186 459 5 0 0 0 - - -;
#X msg 136 28 0;
#X obj 151 190 line~ 0 10;
#X obj 45 252 +~;
#X obj 64 229 line~ 0 10;
#X msg 65 206 -10 \, 0 500;
#X obj 150 217 *~ 10;
#X msg 154 162 1 \, 0 200;
#X msg 144 415 100;
#X connect 0 0 12 0;
#X connect 1 0 11 0;
#X connect 2 0 0 0;
#X connect 2 1 13 0;
#X connect 2 1 36 0;
#X connect 3 0 5 1;
#X connect 4 0 3 0;
#X connect 5 0 8 0;
#X connect 6 0 4 0;
#X connect 6 0 37 0;
#X connect 7 0 2 0;
#X connect 10 0 40 0;
#X connect 11 0 10 0;
#X connect 12 0 1 0;
#X connect 13 0 28 0;
#X connect 13 0 6 0;
#X connect 14 0 15 0;
#X connect 14 0 18 1;
#X connect 16 0 17 0;
#X connect 16 0 18 2;
#X connect 18 0 5 0;
#X connect 21 0 33 0;
#X connect 22 0 23 0;
#X connect 22 0 24 0;
#X connect 22 0 25 0;
#X connect 22 0 45 0;
#X connect 22 0 32 0;
#X connect 23 0 11 1;
#X connect 24 0 14 0;
#X connect 25 0 16 0;
#X connect 26 0 14 0;
#X connect 27 0 16 0;
#X connect 28 0 29 0;
#X connect 29 0 30 0;
#X connect 30 0 44 0;
#X connect 30 0 42 0;
#X connect 32 0 31 0;
#X connect 33 0 18 0;
#X connect 34 0 33 1;
#X connect 35 0 43 1;
#X connect 38 0 13 0;
#X connect 39 0 43 0;
#X connect 40 0 21 0;
#X connect 41 0 40 1;
#X connect 42 0 41 0;
#X connect 43 0 34 0;
#X connect 44 0 39 0;
#X connect 45 0 4 1;
