#N canvas 783 103 448 741 10;
#X floatatom 52 100 5 0 0 0 - - -;
#X floatatom 103 100 5 0 0 0 - - -;
#X obj 55 358 *~ 1;
#X obj 63 165 poly 4 1;
#X obj 63 191 pack 0 0 0;
#X obj 63 221 route 1 2 3 4;
#X obj 56 388 *~ 1;
#X obj 63 13 notein 1;
#X obj 18 290 midi.inst.1.synth;
#X obj 24 33 inlet;
#X obj 124 36 inlet;
#X text 70 35 note;
#X text 174 37 vel;
#X obj 65 648 outlet~;
#X obj 158 647 outlet~;
#X obj 70 316 midi.inst.1.synth;
#X obj 163 288 midi.inst.1.synth;
#X obj 210 314 midi.inst.1.synth;
#X msg 140 136 stop;
#X obj 141 118 bng 15 250 50 0 empty stop empty 17 7 0 10 -262144 -1
-1;
#X connect 0 0 3 0;
#X connect 1 0 3 1;
#X connect 2 0 6 0;
#X connect 3 0 4 0;
#X connect 3 1 4 1;
#X connect 3 2 4 2;
#X connect 4 0 5 0;
#X connect 5 0 8 0;
#X connect 5 1 15 0;
#X connect 5 2 16 0;
#X connect 5 3 17 0;
#X connect 6 0 13 0;
#X connect 6 0 14 0;
#X connect 7 0 0 0;
#X connect 7 1 1 0;
#X connect 8 0 2 0;
#X connect 9 0 0 0;
#X connect 10 0 1 0;
#X connect 15 0 2 0;
#X connect 16 0 2 0;
#X connect 17 0 2 0;
#X connect 18 0 3 0;
#X connect 19 0 18 0;
