#N canvas 1411 137 430 589 10;
#X floatatom 52 100 5 0 0 0 - - -;
#X floatatom 103 100 5 0 0 0 - - -;
#X obj 83 349 *~ 1;
#X obj 63 165 poly 4 1;
#X obj 63 191 pack 0 0 0;
#X obj 63 221 route 1 2 3 4;
#X obj 55 459 *~ 1;
#X obj 63 13 notein 1;
#X obj 24 33 inlet;
#X obj 124 36 inlet;
#X text 70 35 note;
#X text 174 37 vel;
#X obj 53 514 outlet~;
#X obj 117 515 outlet~;
#X obj 255 175 hsl 128 15 0.1 100 1 0 empty empty empty -2 -8 0 10
-262144 -1 -1 12290 1;
#X floatatom 346 174 5 0 0 0 - - -;
#X obj 286 225 hsl 128 15 0.01 100 1 0 empty empty empty -2 -8 0 10
-262144 -1 -1 6350 1;
#X floatatom 379 223 5 0 0 0 - - -;
#X obj 14 290 midi.inst.3.synth;
#X obj 163 288 midi.inst.3.synth;
#X obj 213 314 midi.inst.3.synth;
#X obj 70 317 midi.inst.3.synth;
#X msg 252 128 80;
#X msg 293 201 1;
#X obj 278 88 loadbang;
#X msg 140 136 stop;
#X obj 141 118 bng 15 250 50 0 empty stop empty 17 7 0 10 -262144 -1
-1;
#X connect 0 0 3 0;
#X connect 1 0 3 1;
#X connect 2 0 6 0;
#X connect 3 0 4 0;
#X connect 3 1 4 1;
#X connect 3 2 4 2;
#X connect 4 0 5 0;
#X connect 5 0 18 0;
#X connect 5 1 21 0;
#X connect 5 2 19 0;
#X connect 5 3 20 0;
#X connect 6 0 12 0;
#X connect 6 0 13 0;
#X connect 7 0 0 0;
#X connect 7 1 1 0;
#X connect 8 0 0 0;
#X connect 9 0 1 0;
#X connect 14 0 15 0;
#X connect 14 0 18 1;
#X connect 14 0 19 1;
#X connect 14 0 20 1;
#X connect 14 0 21 1;
#X connect 16 0 17 0;
#X connect 16 0 18 2;
#X connect 16 0 19 2;
#X connect 16 0 20 2;
#X connect 16 0 21 2;
#X connect 18 0 2 0;
#X connect 19 0 2 0;
#X connect 20 0 2 0;
#X connect 21 0 2 0;
#X connect 22 0 14 0;
#X connect 23 0 16 0;
#X connect 24 0 22 0;
#X connect 24 0 23 0;
#X connect 25 0 3 0;
#X connect 26 0 25 0;
