#N canvas 2540 116 500 613 10;
#X floatatom 73 89 5 0 0 0 - - -;
#X obj 73 138 mtof;
#X obj 73 60 unpack f f;
#X obj 235 321 line~ 0 10;
#X obj 235 299 pack f f;
#X obj 75 378 *~;
#X obj 233 273 / 128;
#X obj 73 33 inlet;
#X obj 75 427 outlet~;
#X text 119 33 note \, vel;
#X obj 74 187 line~ 0 10;
#X obj 74 160 pack f f;
#X obj 73 112 + 0;
#X floatatom 156 81 5 0 0 0 - - -;
#X obj 138 210 hsl 128 15 0.1 100 0 0 empty empty empty -2 -8 0 10
-262144 -1 -1 781 1;
#X floatatom 231 210 5 0 0 0 - - -;
#X obj 217 229 hsl 128 15 0.01 100 1 0 empty empty empty -2 -8 0 10
-262144 -1 -1 3900 1;
#X floatatom 310 229 5 0 0 0 - - -;
#X obj 56 249 expr~ tanh($f2*$v1)*$f3;
#X text 280 207 2.4;
#X text 356 231 0.6;
#X obj 62 221 osc~;
#X obj 228 90 loadbang;
#X msg 227 116 10;
#X msg 205 174 2.4;
#X msg 334 165 0.6;
#X obj 241 174 inlet;
#X obj 368 163 inlet;
#X connect 0 0 12 0;
#X connect 1 0 11 0;
#X connect 2 0 0 0;
#X connect 2 1 6 0;
#X connect 2 1 13 0;
#X connect 3 0 5 1;
#X connect 4 0 3 0;
#X connect 5 0 8 0;
#X connect 6 0 4 0;
#X connect 7 0 2 0;
#X connect 10 0 21 0;
#X connect 11 0 10 0;
#X connect 12 0 1 0;
#X connect 14 0 15 0;
#X connect 14 0 18 1;
#X connect 16 0 17 0;
#X connect 16 0 18 2;
#X connect 18 0 5 0;
#X connect 21 0 18 0;
#X connect 22 0 23 0;
#X connect 22 0 24 0;
#X connect 22 0 25 0;
#X connect 23 0 4 1;
#X connect 23 0 11 1;
#X connect 24 0 14 0;
#X connect 25 0 16 0;
#X connect 26 0 14 0;
#X connect 27 0 16 0;
