#N canvas 231 76 672 723 8;
#X obj 231 696 dac~;
#X obj 169 481 ../cmp/mixer;
#X obj 95 353 noise~;
#X obj 251 302 line~ 0 10;
#X obj 95 426 *~;
#X obj 251 210 bng 15 250 50 0 empty empty empty 17 7 0 10 -262144
-1 -1;
#X obj 285 230 del 1000;
#X obj 96 407 vcf~;
#X obj 251 281 pack f f;
#X obj 341 210 hsl 128 15 0 10000 0 0 empty empty empty -2 -8 0 10
-262144 -1 -1 4140 1;
#X obj 124 128 hsl 128 15 20 10000 1 0 empty empty empty -2 -8 0 10
-262144 -1 -1 12455 1;
#X floatatom 121 388 5 0 0 0 - - -;
#X floatatom 433 211 5 0 0 0 - - -;
#X msg 251 254 1;
#X msg 286 254 0;
#X floatatom 216 128 5 0 0 0 - - -;
#X obj 110 65 print;
#X floatatom 304 2 5 0 0 0 - - -;
#X obj 108 228 line~ 0 10;
#X obj 108 207 pack f f;
#X obj 103 153 *;
#X obj 107 181 + 100;
#X obj 146 158 hsl 128 15 20 1000 1 0 empty empty empty -2 -8 0 10
-262144 -1 -1 2250 1;
#X floatatom 236 160 5 0 0 0 - - -;
#X floatatom 194 61 5 0 0 0 - - -;
#X obj 180 86 mtof;
#X floatatom 250 56 5 0 0 0 - - -;
#X obj 253 78 / 128;
#X text 302 65 volume;
#X obj 173 408 *~ 1;
#X obj 256 104 route 0;
#X floatatom 352 117 5 0 0 0 - - -;
#X obj 194 16 notein 16;
#X obj 40 101 loadbang;
#X msg 121 371 8;
#X msg 279 172 40;
#X msg 338 188 2000;
#X obj 530 438 noteout;
#X obj 535 390 makenote 64 250;
#X msg 535 364 60;
#X msg 479 396 0;
#X text 530 345 testing note out;
#X obj 127 289 osc~;
#X obj 117 249 hsl 128 15 1 20 1 0 empty empty empty -2 -8 0 10 -262144
-1 -1 12000 1;
#X obj 126 271 sig~;
#X obj 109 332 +~;
#X obj 127 306 *~ 1;
#X floatatom 208 250 5 0 0 0 - - -;
#X obj 160 307 * 0.05;
#X connect 1 0 0 0;
#X connect 1 1 0 1;
#X connect 2 0 7 0;
#X connect 3 0 4 1;
#X connect 4 0 29 0;
#X connect 5 0 6 0;
#X connect 5 0 13 0;
#X connect 6 0 14 0;
#X connect 7 0 4 0;
#X connect 8 0 3 0;
#X connect 9 0 6 1;
#X connect 9 0 12 0;
#X connect 9 0 8 1;
#X connect 9 0 19 1;
#X connect 10 0 15 0;
#X connect 10 0 20 1;
#X connect 11 0 7 2;
#X connect 13 0 8 0;
#X connect 13 0 20 0;
#X connect 14 0 8 0;
#X connect 14 0 20 0;
#X connect 18 0 45 0;
#X connect 19 0 18 0;
#X connect 20 0 21 0;
#X connect 21 0 19 0;
#X connect 21 0 48 0;
#X connect 22 0 21 1;
#X connect 22 0 23 0;
#X connect 24 0 25 0;
#X connect 24 0 5 0;
#X connect 25 0 10 0;
#X connect 26 0 27 0;
#X connect 27 0 30 0;
#X connect 29 0 1 0;
#X connect 29 0 1 1;
#X connect 30 1 29 1;
#X connect 30 1 31 0;
#X connect 32 0 16 0;
#X connect 32 0 17 0;
#X connect 32 0 24 0;
#X connect 32 1 26 0;
#X connect 33 0 34 0;
#X connect 33 0 35 0;
#X connect 33 0 36 0;
#X connect 34 0 11 0;
#X connect 35 0 22 0;
#X connect 36 0 9 0;
#X connect 38 0 37 0;
#X connect 38 1 37 1;
#X connect 39 0 38 0;
#X connect 40 0 37 0;
#X connect 42 0 46 0;
#X connect 43 0 44 0;
#X connect 43 0 47 0;
#X connect 44 0 42 0;
#X connect 45 0 7 1;
#X connect 46 0 45 1;
#X connect 48 0 46 1;
