#N canvas 544 183 918 816 10;
#X obj 539 97 bng 15 250 50 0 /midi1/note empty empty 0 -6 0 8 -262144
-1 -1;
#X obj 671 241 sendOSC;
#X obj 687 201 bng 15 250 50 0 empty empty empty 0 -6 0 8 -262144 -1
-1;
#X obj 704 285 loadbang;
#X obj 640 219 spigot;
#X obj 658 202 tgl 15 0 empty empty empty 0 -6 0 8 -262144 -1 -1 0
1;
#X obj 566 18 notein 1;
#X obj 566 50 pack f f;
#X obj 638 50 pack f f;
#X obj 707 51 pack f f;
#X obj 775 51 pack f f;
#X obj 638 18 notein 2;
#X obj 707 19 notein 3;
#X obj 775 19 notein 4;
#X obj 642 120 bng 15 250 50 0 /midi2/note empty empty 17 7 0 10 -262144
-1 -1;
#X obj 714 137 bng 15 250 50 0 /midi3/note empty empty 17 7 0 10 -262144
-1 -1;
#X obj 784 155 bng 15 250 50 0 /midi4/note empty empty 17 7 0 10 -262144
-1 -1;
#X msg 566 72 send /midi1/note \$1 \$2;
#X msg 640 93 send /midi2/note \$1 \$2;
#X msg 709 112 send /midi3/note \$1 \$2;
#X msg 778 134 send /midi4/note \$1 \$2;
#X obj 550 133 print m1;
#X obj 269 74 dumpOSC 10001;
#X obj 75 155 OSCroute /midi1;
#X obj 218 155 OSCroute /midi2;
#X obj 360 154 OSCroute /midi3;
#X obj 478 158 OSCroute /midi4;
#X obj 76 183 OSCroute /note;
#X obj 217 184 OSCroute /note;
#X obj 362 182 OSCroute /note;
#X obj 481 186 OSCroute /note;
#X obj 74 210 unpack f f;
#X obj 72 244 noteout 1;
#X obj 215 210 unpack f f;
#X obj 363 209 unpack f f;
#X obj 481 211 unpack f f;
#X obj 49 208 bng 15 250 50 0 empty empty empty 17 7 0 10 -262144 -1
-1;
#X obj 196 212 bng 15 250 50 0 empty empty empty 17 7 0 10 -262144
-1 -1;
#X obj 320 214 bng 15 250 50 0 empty empty empty 17 7 0 10 -262144
-1 -1;
#X obj 458 214 bng 15 250 50 0 empty empty empty 17 7 0 10 -262144
-1 -1;
#X obj 213 244 noteout 2;
#X obj 361 243 noteout 3;
#X obj 488 249 noteout 4;
#X obj 239 723 dac~;
#X obj 44 308 midi.inst.1;
#X obj 216 515 ../cmp/mixer;
#X obj 210 283 midi.inst.2;
#X obj 227 311 ../cmp/echo;
#X obj 357 280 midi.inst.3;
#X obj 67 18 bng 15 250 50 0 empty empty empty 17 7 0 10 -262144 -1
-1;
#X obj 192 242 bng 15 250 50 0 empty empty empty 17 7 0 10 -262144
-1 -1;
#X msg 108 34 1 0;
#X msg 87 62 1 0;
#X msg 88 85 1 0;
#X msg 89 106 1 0;
#X msg 141 32 1 1;
#X obj 488 296 midi.inst.4;
#X obj 234 31 s stop;
#X obj 234 11 bng 15 250 50 0 empty empty empty 17 7 0 10 -262144 -1
-1;
#X text 255 12 <-- panic !!;
#X text 488 451 <-- panic;
#X msg 363 523 0 0 0 0 300;
#X msg 358 500 0 0 0 0 2000;
#X msg 687 221 connect localhost 10012;
#X msg 359 474 84 84 82 85 2000;
#X msg 360 452 84 84 82 85 300;
#X connect 2 0 63 0;
#X connect 4 0 1 0;
#X connect 5 0 4 1;
#X connect 6 0 7 0;
#X connect 6 1 7 1;
#X connect 7 0 17 0;
#X connect 7 0 0 0;
#X connect 8 0 18 0;
#X connect 8 0 14 0;
#X connect 9 0 19 0;
#X connect 9 0 15 0;
#X connect 10 0 20 0;
#X connect 10 0 16 0;
#X connect 11 0 8 0;
#X connect 11 1 8 1;
#X connect 12 0 9 0;
#X connect 12 1 9 1;
#X connect 13 0 10 0;
#X connect 13 1 10 1;
#X connect 17 0 4 0;
#X connect 18 0 4 0;
#X connect 19 0 4 0;
#X connect 20 0 4 0;
#X connect 22 0 23 0;
#X connect 22 0 24 0;
#X connect 22 0 25 0;
#X connect 22 0 26 0;
#X connect 23 0 27 0;
#X connect 24 0 28 0;
#X connect 25 0 29 0;
#X connect 26 0 30 0;
#X connect 27 0 31 0;
#X connect 27 0 36 0;
#X connect 28 0 33 0;
#X connect 28 0 37 0;
#X connect 29 0 34 0;
#X connect 29 0 38 0;
#X connect 30 0 35 0;
#X connect 30 0 39 0;
#X connect 31 0 32 0;
#X connect 31 0 44 0;
#X connect 31 1 32 1;
#X connect 31 1 44 1;
#X connect 33 0 40 0;
#X connect 33 0 46 0;
#X connect 33 0 50 0;
#X connect 33 1 40 1;
#X connect 33 1 46 1;
#X connect 34 0 41 0;
#X connect 34 0 48 0;
#X connect 34 1 41 1;
#X connect 34 1 48 1;
#X connect 35 0 42 0;
#X connect 35 0 56 0;
#X connect 35 1 42 1;
#X connect 35 1 56 1;
#X connect 44 0 45 0;
#X connect 44 1 45 1;
#X connect 45 0 43 0;
#X connect 45 1 43 1;
#X connect 46 0 45 2;
#X connect 46 0 47 0;
#X connect 46 1 45 3;
#X connect 46 1 47 1;
#X connect 47 0 45 2;
#X connect 47 1 45 3;
#X connect 48 0 45 4;
#X connect 48 1 45 5;
#X connect 49 0 51 0;
#X connect 49 0 52 0;
#X connect 49 0 53 0;
#X connect 49 0 54 0;
#X connect 51 0 33 0;
#X connect 52 0 33 0;
#X connect 53 0 33 0;
#X connect 54 0 33 0;
#X connect 56 0 45 6;
#X connect 56 0 45 7;
#X connect 58 0 57 0;
#X connect 61 0 45 9;
#X connect 62 0 45 9;
#X connect 63 0 1 0;
#X connect 64 0 45 9;
#X connect 65 0 45 9;
