#N canvas 246 158 397 177 10;
#N canvas 12 209 1034 633 fft-analysis 0;
#X obj 241 228 + 1;
#X msg 313 322 0;
#X obj 127 190 *~;
#X obj 38 69 *~;
#X obj 37 38 *~;
#X obj 72 436 *~;
#N canvas 0 0 450 300 graph1 0;
#X array fftout 1024 float 0;
#X coords 0 1 1024 0 300 200 1;
#X restore 698 367 graph;
#X obj 37 4 inlet~;
#X obj 37 436 *~;
#X obj 94 271 tabsend~ fftout;
#X obj 76 38 tabreceive~ hanning;
#X obj 38 116 rfft~;
#X obj 37 461 rifft~;
#X obj 37 517 outlet~;
#X text 88 21 Hanning window;
#X text 31 94 forward real FFT;
#X text 52 479 inverse real FFT;
#X obj 36 555 block~ 1024 2;
#X obj 72 69 sig~ 0.03125;
#N canvas 0 0 450 300 graph1 0;
#X array mask 1024 float 0;
#X coords 0 1 1024 0 250 200 1;
#X restore 402 358 graph;
#X obj 94 190 *~;
#X obj 94 214 +~;
#X floatatom 241 253 0 0 0 0 - - -;
#X msg 247 105 0;
#X obj 175 184 float;
#X obj 226 184 + 1;
#X obj 175 123 bang~;
#X obj 175 148 spigot;
#X floatatom 303 86 0 0 0 0 - - -;
#X obj 101 314 tabreceive~ mask;
#X obj 241 277 t b b f;
#X obj 266 322 /;
#X msg 266 298 1;
#X obj 78 344 -~;
#X obj 266 358 sig~;
#X obj 313 298 sel 0;
#X obj 247 388 *~;
#X obj 212 419 +~;
#X obj 221 483 tabsend~ mask;
#X floatatom 313 358 0 0 0 0 - - -;
#X obj 175 209 t f f;
#X text 100 231 power is square;
#X text 100 245 modulus of FFT;
#X obj 303 36 loadbang;
#X obj 298 181 <;
#X msg 253 36 bang;
#X text 237 11 click to make an average;
#X obj 91 408 sig~ 0.03125;
#X text 774 568 power spectrum of this window;
#X text 338 70 Set the number;
#X text 340 85 of frames to;
#X text 342 101 average;
#X text 431 561 average power spectrum;
#X text 272 253 current frame;
#X text 284 378 weight of new;
#X text 275 391 frame in moving;
#X text 334 405 average;
#X msg 303 61 100;
#X text 421 113 scope;
#X obj 392 211 metro 300;
#X obj 391 182 tgl 15 0 empty empty empty 0 -6 0 8 -262144 -1 -1 0
1;
#X obj 339 132 hsl 128 15 100 10000 1 0 empty empty empty -2 -6 0 8
-262144 -1 -1 0 1;
#X floatatom 381 156 5 0 0 0 - - -;
#X obj 257 429 hsl 128 15 0.001 1.1 1 0 empty empty empty -2 -6 0 8
-262144 -1 -1 0 1;
#X obj 237 457 *~ 0.5;
#X connect 0 0 22 0;
#X connect 1 0 34 0;
#X connect 1 0 39 0;
#X connect 2 0 21 1;
#X connect 3 0 11 0;
#X connect 4 0 3 0;
#X connect 5 0 12 1;
#X connect 7 0 4 0;
#X connect 8 0 12 0;
#X connect 10 0 4 1;
#X connect 11 0 8 0;
#X connect 11 0 20 0;
#X connect 11 0 20 1;
#X connect 11 1 5 0;
#X connect 11 1 2 0;
#X connect 11 1 2 1;
#X connect 12 0 13 0;
#X connect 18 0 3 1;
#X connect 20 0 21 0;
#X connect 21 0 9 0;
#X connect 21 0 33 0;
#X connect 22 0 30 0;
#X connect 23 0 24 1;
#X connect 23 0 44 0;
#X connect 24 0 40 0;
#X connect 24 0 25 0;
#X connect 25 0 24 1;
#X connect 26 0 27 0;
#X connect 27 0 24 0;
#X connect 28 0 44 1;
#X connect 29 0 33 1;
#X connect 29 0 37 1;
#X connect 30 1 32 0;
#X connect 30 2 31 1;
#X connect 31 0 34 0;
#X connect 31 0 39 0;
#X connect 32 0 31 0;
#X connect 33 0 36 0;
#X connect 34 0 36 1;
#X connect 35 0 1 0;
#X connect 36 0 37 0;
#X connect 37 0 64 0;
#X connect 40 0 44 0;
#X connect 40 1 0 0;
#X connect 43 0 57 0;
#X connect 44 0 27 1;
#X connect 44 0 35 0;
#X connect 45 0 23 0;
#X connect 47 0 8 1;
#X connect 47 0 5 1;
#X connect 57 0 28 0;
#X connect 59 0 45 0;
#X connect 60 0 59 0;
#X connect 61 0 59 1;
#X connect 61 0 62 0;
#X connect 63 0 64 1;
#X connect 64 0 38 0;
#X restore 37 46 pd fft-analysis;
#N canvas 84 23 779 592 hanning-window 0;
#X obj 92 198 phasor~;
#X obj 92 234 cos~;
#X obj 23 328 tabwrite~ hanning;
#X obj 30 252 -~;
#X obj 28 218 sig~ 1;
#X msg 37 171 0;
#X text 48 59 CALCULATE HANNING;
#X text 45 71 WINDOW TABLE;
#N canvas 0 0 450 300 graph1 0;
#X array hanning 1024 float 0;
#X coords 0 1 1024 -1 400 300 1;
#X restore 290 209 graph;
#X msg 290 521 \; hanning resize 1024;
#X obj 114 145 / 1024;
#X obj 114 168 sig~;
#X text 175 148 sample rate / window size;
#X msg 23 94 bang;
#X obj 66 269 sig~ 0.5;
#X obj 49 300 *~;
#X obj 22 38 loadbang;
#X obj 113 117 samplerate~;
#X connect 0 0 1 0;
#X connect 1 0 3 1;
#X connect 3 0 15 0;
#X connect 4 0 3 0;
#X connect 5 0 0 1;
#X connect 10 0 11 0;
#X connect 11 0 0 0;
#X connect 13 0 2 0;
#X connect 13 0 5 0;
#X connect 13 0 17 0;
#X connect 14 0 15 1;
#X connect 15 0 2 0;
#X connect 16 0 13 0;
#X connect 17 0 10 0;
#X restore 147 46 pd hanning-window;
#X text 26 13 fft on a signal - need to sync properly and do faster.
;
#X text 46 86 see section 4.2 of help;
