#N canvas 214 35 539 249 10;
#X floatatom 12 54 10 0 0 0 - - -;
#X floatatom 28 72 10 0 0 0 - - -;
#X floatatom 45 89 10 0 0 0 - - -;
#X floatatom 62 105 10 0 0 0 - - -;
#X floatatom 79 122 10 0 0 0 - - -;
#X symbolatom 146 192 60 0 0 0 - - -;
#X obj 9 2 inlet;
#X floatatom 95 140 10 0 0 0 - - -;
#X text 77 56 start;
#X text 94 70 end;
#X text 117 87 samp rate;
#X text 133 102 activate;
#X text 150 120 repeat;
#X text 167 140 volume;
#X floatatom 112 157 5 0 0 0 - - -;
#X text 151 157 global multiplier;
#X msg 94 5 0 0 0 0 0 0 0 0 s;
#X floatatom 129 175 5 0 0 0 - - -;
#X text 166 174 comment;
#X obj 12 31 sampmsg_unpack;
#X obj 19 197 sampmsg_pack;
#X obj 97 198 tgl 15 0 empty empty empty 0 -6 0 8 -262144 -1 -1 0 1
;
#X obj 20 225 outlet;
#X obj 228 10 inlet;
#X connect 0 0 20 0;
#X connect 1 0 20 1;
#X connect 2 0 20 2;
#X connect 3 0 20 3;
#X connect 4 0 20 4;
#X connect 5 0 20 8;
#X connect 6 0 19 0;
#X connect 7 0 20 5;
#X connect 14 0 20 6;
#X connect 16 0 1