#N canvas 368 125 592 306 10;
#X obj 98 37 bangbang 4;
#X obj 98 13 bng 15 250 50 0 empty empty empty 0 -6 0 8 -262144 -1
-1;
#X obj 31 65 sampmsg_view;
#X obj 211 130 print;
#X obj 211 69 bng 15 250 50 0 empty empty empty 0 -6 0 8 -262144 -1
-1;
#X obj 211 88 savepanel;
#X obj 147 177 qlist;
#X msg 241 177 rewind;
#X msg 241 216 bang;
#X msg 241 196 clear;
#X msg 241 236 write c:/qlist.txt;
#X msg 241 257 print;
#X obj 479 117 qlist;
#X msg 402 97 read c:/qlist.txt;
#X msg 403 117 print;
#X msg 403 157 rewind;
#X msg 402 76 tempo 1;
#X msg 402 137 next;
#X obj 506 157 print done;
#X obj 448 157 print out;
#X obj 147 129 print o4;
#X obj 147 108 print o3;
#X obj 147 86 print o2;
#X obj 147 64 print o1;
#X msg 453 76 clear;
#X msg 147 155 add \$1 \$2 \$3 \$4 \$5 \$6 \$7 \$8;
#X msg 211 109 write \$1-data.txt;
#X obj 31 131 sampmsg_view;
#X obj 31 87 sampmsg_view;
#X obj 31 109 sampmsg_view;
#X connect 1 0 0 0;
#X connect 4 0 5 0;
#X connect 5 0 26 0;
#X connect 7 0 6 0;
#X connect 8 0 6 0;
#X connect 9 0 6 0;
#X connect 10 0 6 0;
#X connect 11 0 6 0;
#X connect 12 0 19 0;
#X connect 12 1 18 0;
#X connect 13 0 12 0;
#X connect 14 0 12 0;
#X connect 15 0 12 0;
#X connect 16 0 12 0;
#X connect 17 0 12 0;
#X connect 24 0 12 0;
#X connect 25 0 6 0;
#X connect 26 0 3 0;
#X connect 26 0 6 0;
