#N canvas 40 455 488 278 10;
#X obj -432 -41 inlet;
#X obj -300 -50 inlet;
#X obj -223 -38 inlet;
#X obj -130 -38 inlet;
#X obj -299 10 gate 1;
#X obj -300 -14 hradio 15 1 0 2 empty empty empty 0 -6 0 8 -262144
-1 -1 1;
#X symbolatom -425 136 50 0 0 0 - - -;
#X text -436 -58 global time;
#X obj -375 168 outlet;
#X text -374 185 msg out;
#X obj -427 169 outlet~;
#X text -439 185 audio out;
#X obj -373 78 table \$1-sample;
#X obj -296 166 outlet;
#X text -258 167 global time;
#X obj -131 -16 sampmsg_defunnel;
#X text -136 -58 midi in msg(funnel);
#X text -246 -58 file in msg(list);
#X obj -223 -16 sampmsg_unpack;
#X obj -229 92 samp_play \$1;
#X floatatom -134 94 5 0 0 0 - - -;
#X text -99 92 calculated repeat;
#X obj -30 16 print outfun;
#X floatatom -259 37 8 0 0 0 - - -;
#X connect 0 0 19 7;
#X connect 1 0 5 0;
#X connect 2 0 18 0;
#X connect 3 0 15 0;
#X connect 4 0 13 0;
#X connect 4 0 19 7;
#X connect 5 0 4 0;
#X connect 15 0 19 1;
#X connect 15 1 19 2;
#X connect 15 1 23 0;
#X connect 15 2 19 3;
#X connect 15 3 19 4;
#X connect 15 4 19 5;
#X connect 15 5 19 6;
#X connect 15 7 4 1;
#X connect 15 7 19 8;
#X connect 15 8 19 0;
#X connect 15 8 22 0;
#X connect 18 0 19 1;
#X connect 18 1 19 2;
#X connect 18 2 19 3;
#X connect 18 3 19 4;
#X connect 18 4 19 5;
#X connect 18 5 19 6;
#X connect 18 6 19 8;
#X connect 18 7 4 1;
#X connect 18 8 19 0;
#X connect 19 0 10 0;
#X connect 19 1 8 0;
#X connect 19 2 20 0;
#X connect 19 3 6 0;
#X connect 20 0 19 5;
