#N canvas 0 0 450 300 10;
#X obj -52 62 OSCroute /s1;
#X obj -52 62 OSCroute /s1;
#X obj -52 62 OSCroute /s1;
#X obj 186 34 dumpOSC 10001;
#X obj 218 84 OSCroute /s2;
#X obj 214 109 Strings;
#X obj -51 91 Strings;
#X obj 193 135 ../cmp/waveshapeCtl;
#X obj 194 386 ../cmp/normalise;
#X obj -122 139 ../cmp/waveshapeCtl;
#X obj -121 390 ../cmp/normalise;
#X msg 103 438 0.4;
#X msg 103 459 0.7;
#X obj 102 400 tgl 15 0 empty empty empty 17 7 0 10 -262144 -1 -1 0
1;
#X obj 150 384 bng 15 250 50 0 empty empty empty 17 7 0 10 -262144
-1 -1;
#X msg 103 419 30;
#X connect 0 0 6 0;
#X connect 3 0 0 0;
#X connect 3 0 4 0;
#X connect 4 0 5 0;
#X connect 5 0 7 0;
#X connect 5 1 7 1;
#X connect 6 0 9 0;
#X connect 6 1 9 1;
#X connect 7 0 8 0;
#X connect 7 1 8 1;
#X connect 9 0 10 0;
#X connect 9 1 10 1;
#X connect 11 0 8 3;
#X connect 11 0 10 3;
#X connect 12 0 8 5;
#X connect 12 0 10 5;
#X connect 13 0 8 2;
#X connect 13 0 10 2;
#X connect 14 0 13 0;
#X connect 14 0 11 0;
#X connect 14 0 12 0;
#X connect 14 0 15 0;
#X connect 15 0 8 4;
#X connect 15 0 10 4;
