#N canvas 515 149 704 545 8;
#X floatatom 64 40 8 0 0 0 - - -;
#X floatatom 77 63 8 0 0 0 - - -;
#X floatatom 93 84 7 0 0 0 - - -;
#X floatatom 104 106 7 0 0 0 - - -;
#X floatatom 117 132 7 0 0 0 - - -;
#X floatatom 138 153 7 0 0 0 - - -;
#X floatatom 150 41 7 0 0 0 - - -;
#X floatatom 164 59 7 0 0 0 - - -;
#X floatatom 177 77 7 0 0 0 - - -;
#X floatatom 190 96 7 0 0 0 - - -;
#X floatatom 204 109 7 0 0 0 - - -;
#X floatatom 218 121 7 0 0 0 - - -;
#X floatatom 231 134 7 0 0 0 - - -;
#X floatatom 245 146 7 0 0 0 - - -;
#X floatatom 259 158 7 0 0 0 - - -;
#X floatatom 283 39 5 0 0 0 - - -;
#X floatatom 318 22 5 0 0 0 - - -;
#X obj 128 439 sendOSC;
#X msg 261 404 connect localhost 10011;
#X obj 278 179 + 64;
#X floatatom 278 211 5 0 0 0 - - -;
#X msg 278 226 46 \$1;
#X obj 266 247 + 64;
#X floatatom 266 279 5 0 0 0 - - -;
#X obj 193 246 + 64;
#X floatatom 193 279 5 0 0 0 - - -;
#X msg 193 293 40 \$1;
#X obj 224 247 + 64;
#X floatatom 225 278 5 0 0 0 - - -;
#X msg 225 292 42 \$1;
#X obj 134 245 + 64;
#X floatatom 133 278 5 0 0 0 - - -;
#X obj 68 245 + 64;
#X floatatom 68 276 5 0 0 0 - - -;
#X obj 184 181 + 64;
#X floatatom 184 213 5 0 0 0 - - -;
#X obj 261 387 loadbang;
#X obj 68 261 int;
#X obj 133 261 int;
#X obj 184 197 int;
#X obj 193 262 int;
#X obj 224 263 int;
#X msg 183 227 41 \$1;
#X obj 267 263 int;
#X obj 278 195 int;
#X msg 128 394 send /midi 0 1 \$1 \$2;
#X msg 266 293 45 \$1;
#X obj 114 182 + 64;
#X floatatom 114 213 5 0 0 0 - - -;
#X obj 114 198 int;
#X msg 114 227 39 \$1;
#X obj 100 245 + 64;
#X floatatom 100 276 5 0 0 0 - - -;
#X obj 100 261 int;
#X msg 101 290 38 \$1;
#X obj 43 181 + 64;
#X floatatom 43 212 5 0 0 0 - - -;
#X obj 43 197 int;
#X msg 44 226 34 \$1;
#X obj 81 181 + 64;
#X floatatom 81 212 5 0 0 0 - - -;
#X obj 81 197 int;
#X msg 81 226 37 \$1;
#X obj 244 179 + 64;
#X floatatom 244 211 5 0 0 0 - - -;
#X obj 245 195 int;
#X msg 244 226 44 \$1;
#X msg 133 292 36 \$1;
#X msg 68 290 35 \$1;
#X obj 215 181 + 64;
#X floatatom 215 213 5 0 0 0 - - -;
#X obj 215 197 int;
#X msg 214 227 43 \$1;
#X obj 162 245 + 64;
#X floatatom 162 278 5 0 0 0 - - -;
#X obj 153 180 + 64;
#X floatatom 153 212 5 0 0 0 - - -;
#X obj 153 196 int;
#X obj 162 261 int;
#X msg 152 226 48 \$1;
#X msg 162 292 47 \$1;
#X obj 284 57 pack f f;
#X obj 319 37 * 127;
#X floatatom 357 115 5 0 0 0 - - -;
#X floatatom 369 144 5 0 0 0 - - -;
#X floatatom 382 174 5 0 0 0 - - -;
#X floatatom 396 204 5 0 0 0 - - -;
#X floatatom 400 118 5 0 0 0 - - -;
#X floatatom 413 147 5 0 0 0 - - -;
#X floatatom 422 176 5 0 0 0 - - -;
#X floatatom 434 204 5 0 0 0 - - -;
#X floatatom 440 118 5 0 0 0 - - -;
#X floatatom 451 146 5 0 0 0 - - -;
#X floatatom 461 174 5 0 0 0 - - -;
#X floatatom 473 203 5 0 0 0 - - -;
#X floatatom 479 119 5 0 0 0 - - -;
#X floatatom 490 147 5 0 0 0 - - -;
#X floatatom 505 174 5 0 0 0 - - -;
#X floatatom 516 202 5 0 0 0 - - -;
#X msg 424 188 8 \$1;
#X msg 436 216 9 \$1;
#X msg 453 158 11 \$1;
#X msg 463 186 12 \$1;
#X floatatom 520 118 5 0 0 0 - - -;
#X floatatom 534 145 5 0 0 0 - - -;
#X floatatom 546 173 5 0 0 0 - - -;
#X floatatom 557 201 5 0 0 0 - - -;
#X floatatom 560 118 5 0 0 0 - - -;
#X floatatom 574 145 5 0 0 0 - - -;
#X floatatom 586 173 5 0 0 0 - - -;
#X floatatom 597 201 5 0 0 0 - - -;
#X floatatom 601 117 5 0 0 0 - - -;
#X floatatom 615 144 5 0 0 0 - - -;
#X floatatom 627 172 5 0 0 0 - - -;
#X floatatom 638 200 5 0 0 0 - - -;
#X msg 548 185 20 \$1;
#X msg 536 157 19 \$1;
#X msg 559 213 21 \$1;
#X msg 475 215 13 \$1;
#X msg 481 132 14 \$1;
#X msg 491 159 15 \$1;
#X msg 415 159 7 \$1;
#X floatatom 634 116 5 0 0 0 - - -;
#X floatatom 648 143 5 0 0 0 - - -;
#X msg 650 155 1 \$1;
#X msg 506 187 16 \$1;
#X msg 518 214 17 \$1;
#X msg 522 130 18 \$1;
#X msg 599 213 25 \$1;
#X msg 588 185 24 \$1;
#X msg 576 157 23 \$1;
#X msg 603 129 26 \$1;
#X msg 442 130 10 \$1;
#X msg 562 130 22 \$1;
#X msg 617 156 0 \$1;
#X msg 629 184 0 \$1;
#X msg 640 212 0 \$1;
#X msg 636 128 0 \$1;
#X obj 363 65 route 1 2 3 4 5 6 7 8 9 10 11 12 13 14 15 16 17 18 19
20 21 22 23 24 25 26 27 28 29 30;
#X obj 13 142 + 0;
#X msg 12 125 0;
#X obj 12 107 loadbang;
#X msg 400 131 5 \$1;
#X msg 383 186 3 \$1;
#X msg 357 128 1 \$1;
#X msg 371 156 2 \$1;
#X msg 398 216 4 \$1;
#X obj 66 8 joystick \$1 5 2 0 a_little_wider_so_i_can_see;
#X connect 0 0 55 0;
#X connect 1 0 32 0;
#X connect 2 0 59 0;
#X connect 3 0 51 0;
#X connect 4 0 47 0;
#X connect 5 0 30 0;
#X connect 6 0 75 0;
#X connect 7 0 73 0;
#X connect 8 0 24 0;
#X connect 9 0 34 0;
#X connect 10 0 27 0;
#X connect 11 0 69 0;
#X connect 12 0 63 0;
#X connect 13 0 22 0;
#X connect 14 0 19 0;
#X connect 15 0 81 0;
#X connect 16 0 82 0;
#X connect 18 0 17 0;
#X connect 19 0 44 0;
#X connect 20 0 21 0;
#X connect 21 0 45 0;
#X connect 22 0 43 0;
#X connect 23 0 46 0;
#X connect 24 0 40 0;
#X connect 25 0 26 0;
#X connect 26 0 45 0;
#X connect 27 0 41 0;
#X connect 28 0 29 0;
#X connect 29 0 45 0;
#X connect 30 0 38 0;
#X connect 31 0 67 0;
#X connect 32 0 37 0;
#X connect 33 0 68 0;
#X connect 34 0 39 0;
#X connect 35 0 42 0;
#X connect 36 0 18 0;
#X connect 37 0 33 0;
#X connect 38 0 31 0;
#X connect 39 0 35 0;
#X connect 40 0 25 0;
#X connect 41 0 28 0;
#X connect 42 0 45 0;
#X connect 43 0 23 0;
#X connect 44 0 20 0;
#X connect 45 0 17 0;
#X connect 46 0 45 0;
#X connect 47 0 49 0;
#X connect 48 0 50 0;
#X connect 49 0 48 0;
#X connect 50 0 45 0;
#X connect 51 0 53 0;
#X connect 52 0 54 0;
#X connect 53 0 52 0;
#X connect 54 0 45 0;
#X connect 55 0 57 0;
#X connect 56 0 58 0;
#X connect 57 0 56 0;
#X connect 58 0 45 0;
#X connect 59 0 61 0;
#X connect 60 0 62 0;
#X connect 61 0 60 0;
#X connect 62 0 45 0;
#X connect 63 0 65 0;
#X connect 64 0 66 0;
#X connect 65 0 64 0;
#X connect 66 0 45 0;
#X connect 67 0 45 0;
#X connect 68 0 45 0;
#X connect 69 0 71 0;
#X connect 70 0 72 0;
#X connect 71 0 70 0;
#X connect 72 0 45 0;
#X connect 73 0 78 0;
#X connect 74 0 80 0;
#X connect 75 0 77 0;
#X connect 76 0 79 0;
#X connect 77 0 76 0;
#X connect 78 0 74 0;
#X connect 79 0 45 0;
#X connect 80 0 45 0;
#X connect 81 0 138 0;
#X connect 82 0 81 1;
#X connect 83 0 144 0;
#X connect 84 0 145 0;
#X connect 85 0 143 0;
#X connect 86 0 146 0;
#X connect 87 0 142 0;
#X connect 88 0 121 0;
#X connect 89 0 99 0;
#X connect 90 0 100 0;
#X connect 91 0 132 0;
#X connect 92 0 101 0;
#X connect 93 0 102 0;
#X connect 94 0 118 0;
#X connect 95 0 119 0;
#X connect 96 0 120 0;
#X connect 97 0 125 0;
#X connect 98 0 126 0;
#X connect 99 0 45 0;
#X connect 100 0 45 0;
#X connect 101 0 45 0;
#X connect 102 0 45 0;
#X connect 103 0 127 0;
#X connect 104 0 116 0;
#X connect 105 0 115 0;
#X connect 106 0 117 0;
#X connect 107 0 133 0;
#X connect 108 0 130 0;
#X connect 109 0 129 0;
#X connect 110 0 128 0;
#X connect 111 0 131 0;
#X connect 112 0 134 0;
#X connect 113 0 135 0;
#X connect 114 0 136 0;
#X connect 115 0 45 0;
#X connect 116 0 45 0;
#X connect 117 0 45 0;
#X connect 118 0 45 0;
#X connect 119 0 45 0;
#X connect 120 0 45 0;
#X connect 121 0 45 0;
#X connect 122 0 137 0;
#X connect 123 0 124 0;
#X connect 124 0 45 0;
#X connect 125 0 45 0;
#X connect 126 0 45 0;
#X connect 127 0 45 0;
#X connect 128 0 45 0;
#X connect 129 0 45 0;
#X connect 130 0 45 0;
#X connect 131 0 45 0;
#X connect 132 0 45 0;
#X connect 133 0 45 0;
#X connect 138 0 83 0;
#X connect 138 1 84 0;
#X connect 138 2 85 0;
#X connect 138 3 86 0;
#X connect 138 4 87 0;
#X connect 138 5 88 0;
#X connect 138 6 89 0;
#X connect 138 7 90 0;
#X connect 138 8 91 0;
#X connect 138 9 92 0;
#X connect 138 10 93 0;
#X connect 138 11 94 0;
#X connect 138 12 95 0;
#X connect 138 13 96 0;
#X connect 138 14 97 0;
#X connect 138 15 98 0;
#X connect 138 16 103 0;
#X connect 138 17 104 0;
#X connect 138 18 105 0;
#X connect 138 19 106 0;
#X connect 138 20 107 0;
#X connect 138 21 108 0;
#X connect 138 22 109 0;
#X connect 138 23 110 0;
#X connect 138 24 111 0;
#X connect 138 25 112 0;
#X connect 138 26 113 0;
#X connect 138 27 114 0;
#X connect 138 28 122 0;
#X connect 138 29 123 0;
#X connect 139 0 55 1;
#X connect 139 0 59 1;
#X connect 139 0 47 1;
#X connect 139 0 75 1;
#X connect 139 0 34 1;
#X connect 139 0 69 1;
#X connect 139 0 63 1;
#X connect 139 0 19 1;
#X connect 139 0 32 1;
#X connect 139 0 51 1;
#X connect 139 0 30 1;
#X connect 139 0 73 1;
#X connect 139 0 24 1;
#X connect 139 0 27 1;
#X connect 139 0 22 1;
#X connect 140 0 139 0;
#X connect 141 0 140 0;
#X connect 142 0 45 0;
#X connect 143 0 45 0;
#X connect 144 0 45 0;
#X connect 145 0 45 0;
#X connect 146 0 45 0;
#X connect 147 0 0 0;
#X connect 147 1 1 0;
#X connect 147 2 2 0;
#X connect 147 3 3 0;
#X connect 147 4 4 0;
#X connect 147 5 5 0;
#X connect 147 6 6 0;
#X connect 147 7 7 0;
#X connect 147 8 8 0;
#X connect 147 9 9 0;
#X connect 147 10 10 0;
#X connect 147 11 11 0;
#X connect 147 12 12 0;
#X connect 147 13 13 0;
#X connect 147 14 14 0;
#X connect 147 15 15 0;
#X connect 147 16 16 0;
