#N canvas 104 207 893 742 10;
#X obj -108 501 ../cmp/mixer wider;
#X obj -84 686 dac~;
#X obj -71 -4 dumpOSC 10001;
#X obj 96 137 ../cmp/multi_osc1;
#X obj 100 79 hsl 128 15 0 127 0 0 empty empty empty -2 -8 0 10 -262144
-1 -1 3500 1;
#X floatatom 188 80 5 0 0 0 - - -;
#X text 143 81 f;
#X obj 184 -1 OSCroute /s3;
#X obj 290 578 ../cmp/envelope;
#X obj 532 364 noise~;
#X obj 590 364 phasor~;
#X obj 533 386 samphold~;
#X obj 534 409 *~ 32;
#X obj 289 384 ../cmp/mixer wider;
#X obj 593 343 hsl 128 15 0 127 0 0 empty empty empty -2 -8 0 10 -262144
-1 -1 400 1;
#X obj 446 546 bng 15 250 50 0 empty empty empty 17 7 0 10 -262144
-1 -1;
#X floatatom 685 344 5 0 0 0 - - -;
#X obj 443 523 del;
#X obj 421 499 bng 15 250 50 0 empty empty empty 17 7 0 10 -262144
-1 -1;
#X obj 459 478 random 400;
#X obj 297 340 vcf~;
#X floatatom 320 313 5 0 0 0 - - -;
#X obj 535 431 +~ 100;
#X obj 270 207 ../cmp/multi_osc1;
#X obj 429 220 ../cmp/multi_osc1;
#X obj 483 142 hsl 128 15 10 1000 1 0 empty empty empty -2 -8 0 10
-262144 -1 -1 0 1;
#X obj 519 174 hsl 128 15 -40 140 0 0 empty empty empty -2 -8 0 10
-262144 -1 -1 2822 1;
#X obj 404 317 hsl 128 15 10 2000 1 0 empty empty empty -2 -8 0 10
-262144 -1 -1 6491 1;
#X obj 380 335 sig~;
#X floatatom 574 143 5 0 0 0 - - -;
#X floatatom 607 171 5 0 0 0 - - -;
#X obj 479 195 +;
#X floatatom 516 154 5 0 0 0 - - -;
#X obj 515 193 bng 15 250 50 0 empty empty empty 17 7 0 10 -262144
-1 -1;
#X obj 423 368 +~;
#X msg 454 584 10 1 10 20 10;
#X obj 371 86 loadbang;
#X msg 112 36 35;
#X obj 566 459 hsl 50 15 0 1 0 0 empty empty empty -2 -8 0 10 -262144
-1 -1 4900 1;
#X obj 535 458 *~;
#X text 521 171 beating ctl;
#X text 490 139 freq;
#X msg 596 311 4;
#X msg 604 438 1;
#X msg 423 408 104 0 0 0;
#X msg 291 308 30;
#X msg 342 184 57 0 0 0.9;
#X obj 610 410 hsl 128 15 0 127 0 0 empty empty empty -2 -8 0 10 -262144
-1 -1 0 1;
#X obj 61 432 ../cmp/multi_osc1;
#X obj 480 79 OSCroute /f;
#X obj 295 114 OSCroute /s4;
#X text 556 158 f = 40 & beating=40.15 = good;
#X obj 641 82 spigot;
#X obj 693 63 tgl 15 0 empty empty empty 17 7 0 10 -262144 -1 -1 0
1;
#X obj 642 103 - 0.2;
#X obj 473 -8 OSCroute /m;
#X obj 554 53 mtof;
#X obj 184 52 OSCroute /f;
#X obj 185 25 OSCroute /m;
#X obj 286 94 mtof;
#X floatatom 594 57 5 0 0 0 - - -;
#X obj 699 83 spigot;
#X obj 751 64 tgl 15 0 empty empty empty 17 7 0 10 -262144 -1 -1 0
1;
#X obj 722 63 bng 15 250 50 0 empty empty empty 17 7 0 10 -262144 -1
-1;
#X obj 666 137 - 0.2;
#X floatatom 491 317 5 0 0 0 - - -;
#X floatatom 298 67 5 0 0 0 - - -;
#X obj 480 102 ../cmp/porta;
#X msg 545 319 150;
#X obj 599 264 OSCroute /fil;
#X msg 630 310 3.3;
#X obj 696 116 hsl 40 15 0 1 0 0 empty empty empty -2 -8 0 10 -262144
-1 -1 0 1;
#X floatatom 709 116 5 0 0 0 - - -;
#X obj -109 34 herc_joystk 0;
#X obj 575 -2 hsl 128 15 -12 12 0 0 empty empty empty -2 -8 0 10 -262144
-1 -1 0 1;
#X floatatom 624 18 5 0 0 0 - - -;
#X obj 588 18 int;
#X floatatom 592 39 5 0 0 0 - - -;
#X obj 555 33 + 0;
#X obj 499 12 unpack f f;
#X obj 310 22 OSCroute /mx;
#X obj 348 3 bng 15 250 50 0 empty empty empty 17 7 0 10 -262144 -1
-1;
#X text 449 652 <-- turn up!;
#X msg 657 175 0;
#X text 680 175 reset beating;
#X connect 0 0 1 0;
#X connect 0 1 1 1;
#X connect 2 0 7 0;
#X connect 2 0 0 8;
#X connect 2 0 50 0;
#X connect 2 0 80 0;
#X connect 4 0 3 0;
#X connect 4 0 5 0;
#X connect 7 0 57 0;
#X connect 7 0 58 0;
#X connect 7 0 23 2;
#X connect 7 0 24 2;
#X connect 8 0 0 4;
#X connect 8 0 0 5;
#X connect 9 0 11 0;
#X connect 10 0 11 1;
#X connect 11 0 12 0;
#X connect 12 0 22 0;
#X connect 13 0 8 0;
#X connect 14 0 10 0;
#X connect 14 0 16 0;
#X connect 15 0 8 1;
#X connect 17 0 15 0;
#X connect 17 0 18 0;
#X connect 17 0 19 0;
#X connect 18 0 17 0;
#X connect 19 0 17 1;
#X connect 20 0 13 0;
#X connect 20 0 13 1;
#X connect 21 0 20 2;
#X connect 22 0 39 0;
#X connect 23 0 20 0;
#X connect 23 0 13 2;
#X connect 23 0 13 3;
#X connect 24 0 20 0;
#X connect 24 0 13 2;
#X connect 24 0 13 3;
#X connect 25 0 23 0;
#X connect 25 0 29 0;
#X connect 25 0 31 0;
#X connect 25 0 52 0;
#X connect 25 0 63 0;
#X connect 26 0 30 0;
#X connect 26 0 31 1;
#X connect 26 0 33 0;
#X connect 27 0 28 0;
#X connect 27 0 65 0;
#X connect 28 0 34 0;
#X connect 31 0 24 0;
#X connect 32 0 26 0;
#X connect 33 0 31 0;
#X connect 34 0 20 1;
#X connect 34 0 48 3;
#X connect 35 0 8 2;
#X connect 36 0 37 0;
#X connect 36 0 35 0;
#X connect 36 0 18 0;
#X connect 36 0 42 0;
#X connect 36 0 43 0;
#X connect 36 0 44 0;
#X connect 36 0 45 0;
#X connect 36 0 46 0;
#X connect 36 0 32 0;
#X connect 36 0 68 0;
#X connect 37 0 4 0;
#X connect 38 0 39 1;
#X connect 39 0 34 1;
#X connect 42 0 14 0;
#X connect 43 0 38 0;
#X connect 44 0 13 9;
#X connect 45 0 21 0;
#X connect 46 0 24 1;
#X connect 46 0 23 1;
#X connect 47 0 12 1;
#X connect 48 0 0 6;
#X connect 48 0 0 7;
#X connect 49 0 67 0;
#X connect 50 0 49 0;
#X connect 50 0 55 0;
#X connect 50 0 69 0;
#X connect 52 0 54 0;
#X connect 53 0 52 1;
#X connect 54 0 32 0;
#X connect 55 0 79 0;
#X connect 56 0 60 0;
#X connect 56 0 67 0;
#X connect 57 0 4 0;
#X connect 57 1 3 2;
#X connect 58 0 59 0;
#X connect 59 0 4 0;
#X connect 59 0 66 0;
#X connect 61 0 64 0;
#X connect 62 0 61 1;
#X connect 63 0 61 0;
#X connect 64 0 32 0;
#X connect 67 0 25 0;
#X connect 68 0 27 0;
#X connect 69 0 27 0;
#X connect 70 0 14 0;
#X connect 71 0 72 0;
#X connect 71 0 64 1;
#X connect 71 0 54 1;
#X connect 74 0 76 0;
#X connect 76 0 75 0;
#X connect 76 0 78 1;
#X connect 78 0 56 0;
#X connect 78 0 77 0;
#X connect 79 0 78 0;
#X connect 80 0 13 8;
#X connect 80 0 81 0;
#X connect 83 0 26 0;
