#N canvas 370 127 703 714 10;
#X obj 292 697 dac~;
#X obj 30 199 ../cmp/envelope;
#X obj 237 168 bng 15 250 50 0 empty empty empty 17 7 0 10 -262144
-1 -1;
#X obj 284 65 print -----------------;
#X obj 275 23 bng 15 250 50 0 empty empty empty 17 7 0 10 -262144 -1
-1;
#X obj 33 49 ../cmp/multi_osc1;
#X obj 46 2 hsl 128 15 20 3000 1 0 empty empty empty -2 -8 0 10 -262144
-1 -1 4700 1;
#X text 144 1 freq;
#X obj 207 97 env~;
#X floatatom 206 122 5 0 0 0 - - -;
#N canvas 0 0 450 300 (subpatch) 0;
#X array array99 100 float 0;
#X coords 0 1 100 -1 200 100 1;
#X restore 431 583 graph;
#X obj 32 151 metro 500;
#X obj 12 148 tgl 15 0 empty empty empty 17 7 0 10 -262144 -1 -1 1
1;
#X obj 50 169 hsl 128 15 0 1000 0 0 empty empty empty -2 -8 0 10 -262144
-1 -1 3300 1;
#X obj 220 103 ../cmp/waveshapeCtl;
#X obj 184 514 ../cmp/mixer al littlw wider;
#X floatatom 142 171 5 0 0 0 - - -;
#X msg 187 172 500;
#X obj 533 61 ../cmp/multi_osc1;
#X obj 488 16 hsl 128 15 20 3000 1 0 empty empty empty -2 -8 0 10 -262144
-1 -1 4700 1;
#X obj 90 26 mtof;
#X obj 142 24 hsl 128 15 0 127 0 0 empty empty empty -2 -8 0 10 -262144
-1 -1 0 1;
#X obj 516 351 ../cmp/envelope;
#X obj 523 239 ../cmp/multi_osc1;
#X obj 536 192 hsl 128 15 20 3000 1 0 empty empty empty -2 -8 0 10
-262144 -1 -1 3700 1;
#X text 634 191 freq;
#X obj 580 216 mtof;
#X obj 632 214 hsl 128 15 0 127 0 0 empty empty empty -2 -8 0 10 -262144
-1 -1 0 1;
#X obj 580 494 bng 15 250 50 0 empty empty empty 17 7 0 10 -262144
-1 -1;
#X obj 543 546 metro 500;
#X obj 543 517 tgl 15 0 empty empty empty 17 7 0 10 -262144 -1 -1 1
1;
#X obj 588 523 hsl 128 15 0 1000 0 0 empty empty empty -2 -8 0 10 -262144
-1 -1 0 1;
#X msg 627 498 500;
#X obj 212 408 hip~;
#X obj 247 375 hsl 128 15 20 20000 1 0 empty empty empty -2 -8 0 10
-262144 -1 -1 0 1;
#X obj 249 445 hip~;
#X connect 1 0 14 0;
#X connect 1 0 14 1;
#X connect 1 0 15 0;
#X connect 1 0 15 1;
#X connect 2 0 1 1;
#X connect 4 0 3 0;
#X connect 5 0 8 0;
#X connect 5 0 1 0;
#X connect 6 0 5 0;
#X connect 8 0 9 0;
#X connect 11 0 1 1;
#X connect 12 0 11 0;
#X connect 13 0 11 1;
#X connect 13 0 16 0;
#X connect 14 0 33 0;
#X connect 14 1 33 0;
#X connect 15 0 0 0;
#X connect 15 1 0 1;
#X connect 17 0 13 0;
#X connect 18 0 15 4;
#X connect 18 0 15 5;
#X connect 19 0 18 0;
#X connect 20 0 5 0;
#X connect 21 0 20 0;
#X connect 22 0 15 6;
#X connect 22 0 15 7;
#X connect 23 0 22 0;
#X connect 24 0 23 0;
#X connect 26 0 23 0;
#X connect 27 0 26 0;
#X connect 29 0 22 1;
#X connect 30 0 29 0;
#X connect 31 0 29 1;
#X connect 32 0 31 0;
#X connect 33 0 35 0;
#X connect 34 0 33 1;
#X connect 34 0 35 1;
#X connect 35 0 15 2;
#X connect 35 0 15 3;
