#N canvas 158 153 761 734 10;
#X obj 45 218 + 1;
#X obj 3 217 float;
#X obj 3 195 until;
#X obj 84 212 bang;
#X msg 4 136 bang;
#X msg 61 177 0;
#X text 89 173 reset;
#X floatatom 127 271 0 0 1000 1 location - -;
#X text 356 328 interpolation;
#X obj 277 330 pack f f;
#X obj 127 296 t f f;
#X floatatom 173 321 5 0 0 0 - - -;
#X obj 127 343 select 1;
#X obj 3 251 moses 883;
#X obj 125 318 == 882;
#X obj 224 372 list prepend;
#X obj 312 377 t l;
#X obj 127 384 list append;
#X obj 128 363 bng 15 250 50 0 empty empty empty 17 7 0 10 -262144
-1 -1;
#X obj 224 347 int;
#X obj 224 324 * 255;
#X obj 181 437 list split 2;
#X obj 277 435 t l;
#X obj 343 468 t b s;
#X msg 239 407 200;
#X obj 181 467 l2s :;
#X obj 250 467 l2s :;
#X msg 215 503 0;
#X floatatom 219 527 5 0 0 0 - - -;
#X obj 219 556 pack f s;
#X obj 162 501 t b s;
#X obj 157 534 + 1;
#X msg 121 535 1;
#X text 310 506 blocks come out in reverse order;
#X obj 14 92 inlet;
#X obj 216 118 inlet;
#X obj 268 300 tabread4 \$1;
#X obj 215 146 - 1;
#X obj 215 609 outlet;
#X obj 343 600 outlet;
#X text 266 119 table size;
#X text 58 91 send;
#X text 219 629 output;
#X text 340 620 finished trigger;
#X obj 395 400 loadbang;
#X connect 0 0 1 1;
#X connect 1 0 0 0;
#X connect 1 0 13 0;
#X connect 2 0 1 0;
#X connect 3 0 2 1;
#X connect 4 0 2 0;
#X connect 4 0 5 0;
#X connect 4 0 15 1;
#X connect 4 0 27 0;
#X connect 5 0 1 1;
#X connect 7 0 9 1;
#X connect 7 0 10 0;
#X connect 10 0 14 0;
#X connect 10 1 36 0;
#X connect 12 0 18 0;
#X connect 13 0 7 0;
#X connect 13 1 3 0;
#X connect 14 0 11 0;
#X connect 14 0 12 0;
#X connect 15 0 16 0;
#X connect 15 0 17 1;
#X connect 16 0 15 1;
#X connect 17 0 21 0;
#X connect 18 0 17 0;
#X connect 18 0 39 0;
#X connect 19 0 15 0;
#X connect 20 0 19 0;
#X connect 21 0 25 0;
#X connect 21 1 22 0;
#X connect 21 2 26 0;
#X connect 22 0 21 0;
#X connect 23 1 30 0;
#X connect 24 0 21 1;
#X connect 25 0 30 0;
#X connect 26 0 23 0;
#X connect 27 0 28 0;
#X connect 28 0 31 1;
#X connect 28 0 29 0;
#X connect 29 0 38 0;
#X connect 30 0 32 0;
#X connect 30 1 29 1;
#X connect 31 0 28 0;
#X connect 32 0 31 0;
#X connect 34 0 4 0;
#X connect 35 0 13 1;
#X connect 35 0 37 0;
#X connect 36 0 9 0;
#X connect 36 0 20 0;
#X connect 37 0 14 1;
#X connect 44 0 24 0;
