#N canvas 7 126 1089 994 10;
#X obj 56 100 ../cmp/multi_osc1;
#X obj 42 267 ../cmp/envelope;
#X obj 259 301 ../cmp/distortion;
#X obj 60 32 hsl 128 15 10 120 0 0 empty empty empty -2 -8 0 10 -262144
-1 -1 7158 1;
#X obj 353 907 dac~;
#X obj 258 149 ../cmp/multi_osc1;
#X obj 249 -1 hsl 128 15 1 120 0 0 empty empty empty -2 -8 0 10 -262144
-1 -1 4589 0;
#X obj 89 248 bng 15 250 50 0 empty empty empty 17 7 0 10 -262144 -1
-1;
#X obj 410 147 ../cmp/multi_osc1;
#X obj 419 59 +;
#X obj 436 36 hsl 128 15 0 127 0 0 empty empty empty -2 -8 0 10 -262144
-1 -1 1200 1;
#X obj 421 8 bng 15 250 50 0 empty empty empty 17 7 0 10 -262144 -1
-1;
#X obj 90 544 *~ 1;
#X obj 146 546 *~ 1;
#X obj 54 445 ../cmp/echo;
#X obj 100 201 hsl 128 15 0 500 0 0 empty empty empty -2 -8 0 10 -262144
-1 -1 0 1;
#X floatatom 196 201 5 0 0 0 - - -;
#X obj 88 223 metro 100;
#X obj 65 224 tgl 15 0 empty empty empty 17 7 0 10 -262144 -1 -1 0
1;
#X obj 286 96 mtof;
#X obj 286 72 int;
#X obj 448 107 mtof;
#X obj 448 83 int;
#X obj 556 -48 dumpOSC 10001;
#X floatatom 574 35 5 0 0 0 - - -;
#X floatatom 381 -1 5 0 0 0 - - -;
#X obj 407 470 ../cmp/bell;
#X obj 570 435 OSCroute /bell;
#X obj 60 -45 OSCroute /ping;
#X obj 155 224 OSCroute /m;
#X obj 117 -6 OSCroute /t;
#X obj 56 77 mtof;
#X obj 56 53 int;
#X floatatom 196 33 5 0 0 0 - - -;
#X obj 45 617 ../cmp/flanger_st;
#X obj 36 -6 OSCroute /f;
#X obj 258 374 filter;
#X obj 297 609 ../cmp/mixer;
#X obj 712 285 ../drm/dd.bd;
#X obj 712 245 OSCroute /drm1;
#X obj 652 636 *~ 1;
#X obj 651 671 ../cmp/mixer;
#X obj 827 279 ../drm/dd.hh;
#X obj 531 -19 OSCroute /base;
#X obj 455 305 OSCroute /f;
#X obj 698 538 bng 15 250 50 0 /base/f/freq empty empty 0 -6 0 8 -262144
-1 -1;
#X obj 739 589 sendOSC;
#X obj 755 549 bng 15 250 50 0 empty empty empty 0 -6 0 8 -262144 -1
-1;
#X msg 755 569 connect localhost 10011;
#X obj 754 533 loadbang;
#X obj 708 567 spigot;
#X obj 726 550 tgl 15 0 empty empty empty 0 -6 0 8 -262144 -1 -1 0
1;
#X obj 470 338 hsl 128 15 10 10000 1 0 empty empty empty -2 -8 0 10
-262144 -1 -1 0 1;
#X msg 723 511 send /base/f/freq \$1;
#X obj 278 -23 OSCroute /n;
#X obj 684 612 *~ 1;
#X obj 827 246 OSCroute /hh;
#X msg 852 202 bang;
#X obj 742 35 ../cmp/multi_osc1;
#X obj 763 -52 hsl 128 15 0 127 0 0 empty empty empty -2 -8 0 10 -262144
-1 -1 0 1;
#X obj 753 0 mtof;
#X obj 753 -24 int;
#X obj 856 330 ../drm/dd.sn;
#X floatatom 862 -54 5 0 0 0 - - -;
#X obj 902 481 ../cmp/granular/player;
#X obj 395 878 test_fft;
#X obj 307 841 *~ 1;
#X obj 353 844 *~ 1;
#X obj 474 9 OSCroute /offst;
#X obj 424 258 OSCroute /dist;
#X connect 0 0 1 0;
#X connect 1 0 14 0;
#X connect 1 0 14 1;
#X connect 1 0 12 0;
#X connect 1 0 13 0;
#X connect 1 0 34 0;
#X connect 1 0 34 1;
#X connect 2 0 36 0;
#X connect 2 0 36 1;
#X connect 3 0 32 0;
#X connect 3 0 33 0;
#X connect 5 0 2 0;
#X connect 6 0 20 0;
#X connect 6 0 9 0;
#X connect 6 0 25 0;
#X connect 7 0 1 1;
#X connect 8 0 2 0;
#X connect 9 0 22 0;
#X connect 10 0 9 1;
#X connect 10 0 11 0;
#X connect 10 0 24 0;
#X connect 11 0 9 0;
#X connect 12 0 37 0;
#X connect 13 0 37 1;
#X connect 14 0 12 0;
#X connect 14 1 13 0;
#X connect 15 0 16 0;
#X connect 15 0 17 1;
#X connect 17 0 7 0;
#X connect 18 0 17 0;
#X connect 19 0 5 0;
#X connect 20 0 19 0;
#X connect 21 0 8 0;
#X connect 22 0 21 0;
#X connect 23 0 27 0;
#X connect 23 0 28 0;
#X connect 23 0 39 0;
#X connect 23 0 43 0;
#X connect 23 0 56 0;
#X connect 26 0 37 4;
#X connect 26 0 37 5;
#X connect 27 0 26 3;
#X connect 28 0 29 0;
#X connect 28 0 30 0;
#X connect 28 0 35 0;
#X connect 30 0 7 0;
#X connect 31 0 0 0;
#X connect 32 0 31 0;
#X connect 34 0 37 6;
#X connect 34 1 37 7;
#X connect 35 0 3 0;
#X connect 36 0 37 2;
#X connect 36 1 37 3;
#X connect 37 0 66 0;
#X connect 37 1 67 0;
#X connect 38 0 40 0;
#X connect 39 0 38 0;
#X connect 40 0 41 0;
#X connect 40 0 41 1;
#X connect 41 0 66 0;
#X connect 41 1 67 0;
#X connect 42 0 55 0;
#X connect 43 0 44 0;
#X connect 43 0 54 0;
#X connect 43 0 68 0;
#X connect 43 0 69 0;
#X connect 44 0 36 3;
#X connect 47 0 48 0;
#X connect 48 0 46 0;
#X connect 49 0 47 0;
#X connect 50 0 46 0;
#X connect 51 0 50 1;
#X connect 52 0 36 2;
#X connect 52 0 53 0;
#X connect 53 0 45 0;
#X connect 53 0 50 0;
#X connect 54 0 6 0;
#X connect 55 0 41 2;
#X connect 55 0 41 3;
#X connect 56 0 42 0;
#X connect 57 0 42 0;
#X connect 58 0 41 4;
#X connect 58 0 41 5;
#X connect 59 0 61 0;
#X connect 59 0 63 0;
#X connect 60 0 58 0;
#X connect 61 0 60 0;
#X connect 64 0 41 6;
#X connect 64 1 41 7;
#X connect 66 0 4 0;
#X connect 67 0 4 1;
#X connect 67 0 65 0;
#X connect 68 0 10 0;
#X connect 69 0 2 4;
