#N canvas 1203 686 657 432 10;
#X obj -63 33 sendOSC;
#X obj -63 -12 bng 15 250 50 0 empty empty empty 0 -6 0 8 -262144 -1
-1;
#X obj -63 -36 loadbang;
#N canvas 0 0 450 300 (subpatch) 0;
#X array F04-signal 882 float 0;
#X coords 0 1.02 882 -1.02 200 130 1;
#X restore 343 146 graph;
#N canvas 1361 171 558 609 fft 0;
#X obj 19 61 inlet~;
#X obj 224 210 inlet;
#X obj 29 92 rfft~;
#X obj 29 125 *~;
#X obj 60 125 *~;
#X obj 29 155 sqrt~;
#X obj 29 181 biquad~ 0 0 0 0 1;
#X text 93 93 Fourier series;
#X text 98 146 magnitude;
#X text 96 131 calculate;
#X text 21 3 This subpatch computes the spectrum of the incoming signal
with a (rectangular windowed) FFT. FFTs aren't properly introduced
until much later.;
#X text 83 61 signal to analyze;
#X text 193 164 delay two samples;
#X text 191 182 for better graphing;
#X obj 264 434 samplerate~;
#X text 301 232 toggle to graph repeatedly;
#X text 278 210 bang to graph once;
#X obj 264 409 bang~;
#X obj 264 457 / 512;
#X obj 18 365 tabwrite~ F04-signal;
#X obj 242 352 tabwrite~ F04-spectrum;
#X obj 264 483 s freq/2;
#X msg 163 343 \; pd dsp 1;
#X obj 397 349 outlet;
#X obj 332 109 block~ 4096 1;
#X obj 29 205 /~ 4096;
#X connect 0 0 2 0;
#X connect 0 0 19 0;
#X connect 1 0 19 0;
#X connect 1 0 20 0;
#X connect 1 0 22 0;
#X connect 2 0 3 0;
#X connect 2 0 3 1;
#X connect 2 1 4 0;
#X connect 2 1 4 1;
#X connect 3 0 5 0;
#X connect 4 0 5 0;
#X connect 5 0 6 0;
#X connect 6 0 25 0;
#X connect 14 0 18 0;
#X connect 17 0 14 0;
#X connect 18 0 21 0;
#X connect 25 0 20 0;
#X restore 104 97 pd fft;
#X obj 137 72 bng 18 250 50 0 empty empty empty 0 -6 0 8 -262144 -1
-1;
#X obj 154 97 tgl 18 0 empty empty empty 0 -6 0 8 -262144 -1 -1 0 1
;
#X text 180 96 <-- repeatedly;
#X text 160 72 <-- graph once;
#N canvas 7 36 450 300 (subpatch) 0;
#X array F04-spectrum 259 float 0;
#X coords 0 1.01 258 -0.008 256 200 1;
#X restore 281 -103 graph;
#X text 314 97 2;
#X text 345 97 4;
#X text 284 97 0;
#X text 322 112 -- partial number --;
#X text 377 97 6;
#X text 410 97 8;
#X text 438 97 10;
#X text 470 97 12;
#X text 502 97 14;
#X text 549 82 0;
#X text 546 -105 1;
#X obj -32 85 tgl 15 0 empty empty empty 17 7 0 10 -262144 -1 -1 1
1;
#X msg 75 190 883;
#X obj 74 166 loadbang;
#X msg -41 246 send /snd \$1 \$2;
#X obj -26 189 bng 15 250 50 0 empty empty empty 17 7 0 10 -262144
-1 -1;
#X obj 150 217 bng 15 250 50 0 empty empty empty 17 7 0 10 -262144
-1 -1;
#X msg 151 261 send /fft \$1 \$2;
#X obj -41 224 tabSendOSC F04-signal;
#X obj 150 237 tabSendOSC F04-spectrum;
#X obj -30 106 metro 100;
#X msg 277 213 131;
#X obj -8 53 hsl 128 15 20 200 0 0 empty empty empty -2 -8 0 10 -262144
-1 -1 6200 1;
#X floatatom 90 52 5 0 0 0 - - -;
#X msg 190 172 send /env \$1;
#X obj 190 143 dbtorms;
#X floatatom 251 146 5 0 0 0 - - -;
#X obj 190 117 env~ 4096;
#X obj 111 -111 inlet~;
#X obj 108 -81 *~ 1;
#X msg -63 9 connect localhost 10003;
#X connect 1 0 40 0;
#X connect 2 0 1 0;
#X connect 2 0 21 0;
#X connect 5 0 4 1;
#X connect 21 0 30 0;
#X connect 22 0 28 1;
#X connect 23 0 22 0;
#X connect 23 0 31 0;
#X connect 24 0 0 0;
#X connect 25 0 28 0;
#X connect 26 0 29 0;
#X connect 27 0 0 0;
#X connect 28 0 24 0;
#X connect 28 1 5 0;
#X connect 29 0 27 0;
#X connect 30 0 26 0;
#X connect 30 0 28 0;
#X connect 31 0 29 1;
#X connect 32 0 30 1;
#X connect 32 0 33 0;
#X connect 34 0 0 0;
#X connect 35 0 34 0;
#X connect 35 0 36 0;
#X connect 37 0 35 0;
#X connect 38 0 39 0;
#X connect 39 0 4 0;
#X connect 39 0 37 0;
#X connect 40 0 0 0;
