#N canvas 22 330 557 442 10;
#X obj 53 6 dumpOSC 10001;
#X obj 65 384 dac~;
#X obj 12 10 bng 15 250 50 0 empty empty empty 0 -6 0 8 -262144 -1
-1;
#X obj 54 52 test_waveshape;
#X obj 78 331 ../effects/mixer;
#X obj 54 29 OSCroute /w1;
#X floatatom 583 359 5 0 0 0 - - -;
#X obj 576 284 loadbang;
#X msg 578 324 40;
#X obj 349 134 bell;
#X obj 55 79 ../effects/distortion;
#X obj 224 164 ../effects/crossfade_st;
#X obj 403 141 hsl 128 15 0 127 0 0 empty empty empty -2 -6 0 8 -262144
-1 -1 6200 1;
#X floatatom 416 143 5 0 0 0 - - -;
#X obj 197 33 OSCroute /dist;
#X obj 197 58 line 0 10;
#X obj 339 10 OSCroute /bell;
#X obj 336 39 OSCroute /t;
#X obj 350 58 OSCroute /pit;
#X obj 363 78 OSCroute /len;
#X obj 381 99 OSCroute /pan;
#X obj 479 49 loadbang;
#X msg 480 72 62;
#X obj 184 200 ../efftest/waveshape;
#X obj 172 288 OSCroute /mstr;
#X obj 186 232 ../effects/envelope_st;
#X obj 143 260 ../effects/crossfade_st;
#X obj 319 264 hsl 128 15 0 127 0 0 empty empty empty -2 -6 0 8 -262144
-1 -1 1400 1;
#X obj 217 101 OSCroute /shape;
#X obj 235 121 bng 15 250 50 0 empty empty empty 0 -6 0 8 -262144 -1
-1;
#X obj 336 210 OSCroute /env;
#X msg 339 315 16 0 0 0;
#X connect 0 0 2 0;
#X connect 0 0 5 0;
#X connect 0 0 16 0;
#X connect 0 0 24 0;
#X connect 3 0 10 0;
#X connect 3 1 10 1;
#X connect 4 0 1 0;
#X connect 4 1 1 1;
#X connect 5 0 3 0;
#X connect 7 0 8 0;
#X connect 8 0 6 0;
#X connect 9 0 11 0;
#X connect 9 0 11 3;
#X connect 9 0 4 5;
#X connect 9 0 4 4;
#X connect 10 0 4 0;
#X connect 10 1 4 1;
#X connect 11 0 23 0;
#X connect 11 1 23 1;
#X connect 12 0 11 4;
#X connect 12 0 13 0;
#X connect 14 0 15 0;
#X connect 15 0 10 2;
#X connect 16 0 17 0;
#X connect 16 0 18 0;
#X connect 16 0 19 0;
#X connect 16 0 20 0;
#X connect 16 0 28 0;
#X connect 16 0 30 0;
#X connect 17 0 9 0;
#X connect 17 0 25 2;
#X connect 18 0 9 1;
#X connect 19 0 9 2;
#X connect 20 0 12 0;
#X connect 21 0 22 0;
#X connect 21 0 31 0;
#X connect 22 0 12 0;
#X connect 23 0 25 0;
#X connect 23 0 26 0;
#X connect 23 1 25 1;
#X connect 23 1 26 1;
#X connect 24 0 4 8;
#X connect 25 0 26 2;
#X connect 25 1 26 3;
#X connect 26 0 4 2;
#X connect 26 1 4 3;
#X connect 27 0 26 4;
#X connect 28 0 23 4;
#X connect 28 0 29 0;
#X connect 30 0 25 3;
#X connect 31 0 4 8;
