#N canvas 317 60 1041 872 8;
#X obj 172 2 dumpOSC 10001;
#X obj 40 822 dac~;
#X obj 129 11 bng 15 250 50 0 empty empty empty 0 -6 0 8 -262144 -1
-1;
#X obj 171 30 OSCroute /w1;
#X obj 241 593 loadbang;
#X obj 223 620 OSCroute /mstr;
#X msg 227 654 16 0 0 0;
#X obj 204 87 OSCroute /note;
#X floatatom 232 150 5 0 0 0 - - -;
#X obj 204 66 OSCroute /tw;
#X obj 579 441 bng 15 250 50 0 empty empty empty 0 -6 0 8 -262144 -1
-1;
#X obj 633 307 hsl 128 15 100 10000 1 0 empty empty empty -2 -6 0 8
-262144 -1 -1 3608 1;
#X obj 39 592 ../cmp/mixer a_bit wider;
#X obj 538 770 +~;
#X obj 570 771 +~;
#X obj 536 796 +~;
#X obj 568 797 +~;
#X obj 630 206 OSCroute /pulse;
#X obj 623 238 OSCroute /t;
#X obj 662 262 OSCroute /note;
#X obj 642 286 mtof;
#X floatatom 687 286 5 0 0 0 - - -;
#X msg 789 582 38;
#X msg 790 633 418;
#X obj 778 555 loadbang;
#X obj 92 40 bng 15 250 50 0 empty empty empty 0 -6 0 8 -262144 -1
-1;
#X obj 27 446 +~;
#X obj 59 447 +~;
#X obj 28 536 +~;
#X obj 60 537 +~;
#X msg 177 185 38;
#X msg 170 214 418;
#X obj 170 160 loadbang;
#X obj 855 5 ../drm/kick;
#X obj 855 331 ../drm/snare;
#X obj 854 488 ../drm/snare;
#X obj 981 -14 OSCroute /d1;
#X obj 976 307 OSCroute /d3;
#X obj 977 464 OSCroute /d4;
#X obj 846 818 *~ 1;
#X obj 889 818 *~ 1;
#X obj 73 805 *~ 1;
#X obj 40 803 *~ 1;
#X obj 58 764 hsl 128 15 0 100 0 0 empty empty empty -2 -6 0 8 -262144
-1 -1 11000 1;
#X obj 55 785 dbtorms;
#X obj 233 219 mtof;
#X obj 99 550 *~ 1;
#X obj 126 551 *~ 1;
#X obj 242 347 *~ 1;
#X obj 289 355 *~ 1;
#X obj 218 120 unpack f f;
#X obj 603 584 ../cmp/echo;
#X obj 10 79 noise~;
#X obj 20 19 OSCroute /noise;
#X obj 15 41 OSCroute /trig;
#X obj 99 19 bng 15 250 50 0 empty empty empty 0 -6 0 8 -262144 -1
-1;
#X obj 282 88 bng 15 250 50 0 empty empty empty 0 -6 0 8 -262144 -1
-1;
#X obj 299 153 hsl 128 15 -50 50 0 0 empty empty empty -2 -6 0 8 -262144
-1 -1 0 1;
#X floatatom 234 195 5 0 0 0 - - -;
#X floatatom 394 157 5 0 0 0 - - -;
#X obj 302 119 OSCroute /offst;
#X msg 750 -29 3 847 108 55 251 2.7;
#X obj 856 160 ../cmp/flanger_st;
#X obj 195 691 ../cmp/flanger_st;
#X obj 7 100 ../cmp/envelope;
#X obj 28 237 ../cmp/echo;
#X obj 618 687 ../cmp/echo;
#X obj 23 339 ../cmp/echo;
#X obj 618 -7 OSCroute /bell;
#X obj 618 30 OSCroute /t;
#X obj 672 52 OSCroute /pit;
#X obj 726 71 OSCroute /len;
#X obj 576 70 bng 15 250 50 0 empty empty empty 0 -6 0 8 -262144 -1
-1;
#X obj 618 97 ../cmp/bell;
#X text 249 -23 comment;
#X obj 29 515 lop~;
#X obj 27 495 lop~;
#X obj 58 496 lop~;
#X obj 58 515 lop~;
#X obj 49 464 hsl 128 15 10 10000 1 0 empty empty empty -2 -6 0 8 -262144
-1 -1 0 1;
#X floatatom 149 465 5 0 0 0 - - -;
#X floatatom 272 220 5 0 0 0 - - -;
#X obj 603 439 ../cmp/envelope;
#X text 262 173 about -30 is nice;
#X obj 229 422 lop~;
#X obj 227 402 lop~;
#X obj 258 403 lop~;
#X obj 258 422 lop~;
#X obj 249 371 hsl 128 15 10 20000 1 0 empty empty empty -2 -6 0 8
-262144 -1 -1 0 1;
#X obj 842 635 ../cmp/mixer a_bit wider;
#X obj 230 444 ../cmp/flanger_st;
#X obj 233 172 + -30;
#X obj 269 157 int;
#X obj 399 238 ../cmp/multi_osc1;
#X obj 404 342 *~ 1;
#X obj 451 350 *~ 1;
#X obj 400 210 mtof;
#X floatatom 439 211 7 0 0 0 - - -;
#X floatatom 415 186 5 0 0 0 - - -;
#X obj 392 193 + 0;
#X obj 417 532 *~ 1;
#X obj 464 540 *~ 1;
#X obj 413 400 mtof;
#X floatatom 452 401 8 0 0 0 - - -;
#X floatatom 428 376 5 0 0 0 - - -;
#X obj 405 383 + 0;
#X obj 237 240 ../cmp/multi_osc1;
#X obj 610 333 ../cmp/multi_osc1;
#X obj 412 428 ../cmp/multi_osc1;
#X floatatom 525 76 5 0 0 0 - - -;
#X obj 502 83 + 0;
#X obj 317 -12 block~ 64;
#X connect 0 0 2 0;
#X connect 0 0 3 0;
#X connect 0 0 5 0;
#X connect 0 0 68 0;
#X connect 3 0 9 0;
#X connect 3 0 17 0;
#X connect 3 0 36 0;
#X connect 3 0 37 0;
#X connect 3 0 38 0;
#X connect 3 0 53 0;
#X connect 4 0 6 0;
#X connect 5 0 12 8;
#X connect 6 0 12 8;
#X connect 7 0 50 0;
#X connect 7 0 56 0;
#X connect 8 0 91 0;
#X connect 9 0 7 0;
#X connect 9 0 60 0;
#X connect 10 0 82 1;
#X connect 11 0 107 0;
#X connect 12 0 42 0;
#X connect 12 1 41 0;
#X connect 13 0 15 0;
#X connect 14 0 16 0;
#X connect 15 0 63 0;
#X connect 16 0 63 1;
#X connect 17 0 18 0;
#X connect 17 0 19 0;
#X connect 17 0 82 3;
#X connect 18 0 10 0;
#X connect 19 0 20 0;
#X connect 19 0 21 0;
#X connect 20 0 11 0;
#X connect 22 0 51 2;
#X connect 23 0 66 2;
#X connect 24 0 23 0;
#X connect 24 0 22 0;
#X connect 25 0 64 1;
#X connect 26 0 76 0;
#X connect 27 0 77 0;
#X connect 28 0 12 0;
#X connect 29 0 12 1;
#X connect 30 0 65 2;
#X connect 31 0 67 2;
#X connect 32 0 31 0;
#X connect 32 0 30 0;
#X connect 33 0 62 0;
#X connect 34 0 89 4;
#X connect 34 0 89 5;
#X connect 35 0 89 6;
#X connect 35 0 89 7;
#X connect 36 0 33 3;
#X connect 37 0 34 3;
#X connect 38 0 35 3;
#X connect 39 0 12 2;
#X connect 40 0 12 3;
#X connect 41 0 1 1;
#X connect 42 0 1 0;
#X connect 43 0 44 0;
#X connect 44 0 41 1;
#X connect 44 0 42 1;
#X connect 45 0 81 0;
#X connect 45 0 106 0;
#X connect 46 0 12 4;
#X connect 47 0 12 5;
#X connect 48 0 85 0;
#X connect 49 0 86 0;
#X connect 50 0 8 0;
#X connect 51 0 13 1;
#X connect 51 1 14 1;
#X connect 51 1 66 1;
#X connect 52 0 64 0;
#X connect 53 0 54 0;
#X connect 53 0 55 0;
#X connect 54 0 25 0;
#X connect 57 0 59 0;
#X connect 57 0 92 0;
#X connect 58 0 45 0;
#X connect 58 0 99 0;
#X connect 58 0 105 0;
#X connect 58 0 110 0;
#X connect 60 0 57 0;
#X connect 61 0 33 1;
#X connect 62 0 89 2;
#X connect 62 0 89 3;
#X connect 63 0 12 6;
#X connect 63 1 12 7;
#X connect 64 0 65 0;
#X connect 64 0 65 1;
#X connect 65 0 26 1;
#X connect 65 0 67 0;
#X connect 65 1 27 1;
#X connect 65 1 67 1;
#X connect 66 0 16 1;
#X connect 66 1 15 1;
#X connect 67 0 27 0;
#X connect 67 1 26 0;
#X connect 68 0 69 0;
#X connect 68 0 70 0;
#X connect 68 0 71 0;
#X connect 69 0 73 0;
#X connect 70 0 73 1;
#X connect 71 0 73 2;
#X connect 72 0 73 0;
#X connect 73 0 89 0;
#X connect 73 0 89 1;
#X connect 75 0 28 0;
#X connect 76 0 75 0;
#X connect 77 0 78 0;
#X connect 78 0 29 0;
#X connect 79 0 76 1;
#X connect 79 0 75 1;
#X connect 79 0 77 1;
#X connect 79 0 78 1;
#X connect 79 0 80 0;
#X connect 82 0 13 0;
#X connect 82 0 14 0;
#X connect 82 0 51 1;
#X connect 84 0 90 0;
#X connect 85 0 84 0;
#X connect 86 0 87 0;
#X connect 87 0 90 1;
#X connect 88 0 85 1;
#X connect 88 0 84 1;
#X connect 88 0 86 1;
#X connect 88 0 87 1;
#X connect 89 0 39 0;
#X connect 89 1 40 0;
#X connect 90 0 46 0;
#X connect 90 1 47 0;
#X connect 91 0 58 0;
#X connect 92 0 91 1;
#X connect 93 0 94 0;
#X connect 93 0 95 0;
#X connect 94 0 85 0;
#X connect 95 0 86 0;
#X connect 96 0 97 0;
#X connect 96 0 93 0;
#X connect 98 0 99 1;
#X connect 99 0 96 0;
#X connect 100 0 85 0;
#X connect 101 0 86 0;
#X connect 102 0 103 0;
#X connect 102 0 108 0;
#X connect 104 0 105 1;
#X connect 105 0 102 0;
#X connect 106 0 48 0;
#X connect 106 0 49 0;
#X connect 107 0 82 0;
#X connect 108 0 100 0;
#X connect 108 0 101 0;
#X connect 109 0 110 1;
#X connect 110 0 73 1;
