#N canvas 686 59 638 875 8;
#X obj 14 10 cnv 15 200 250 empty empty empty 20 12 0 14 -233017 -66577
0;
#X msg 23 52 800 600 0 0;
#X msg 26 98 320 240 0 0;
#X msg 99 51 800 600 1440 -1;
#X msg 24 74 1024 768 0 0;
#X msg 108 71 1024 768 1440 -1;
#X msg 22 143 offset \$3 \$4;
#X msg 105 143 dimen \$1 \$2;
#X obj 38 164 t b b;
#X msg 81 210 destroy;
#X obj 142 189 tgl 15 0 empty empty empty 0 -6 0 8 -262144 -1 -1 1
1;
#X text 156 187 render;
#X msg 85 191 0;
#X msg 34 191 1;
#X obj 136 210 gemwin 20;
#X msg 21 32 640 480 0 0;
#X msg 98 31 640 480 1440 -1;
#X msg 107 95 400 300 0 0;
#X msg 16 121 1440 900 0 -1;
#X text 38 11 open window;
#X obj 285 34 bng 15 250 50 0 empty empty empty 0 -6 0 8 -262144 -1
-1;
#X msg 121 163 lighting \$1;
#X obj 100 163 tgl 15 0 empty empty empty 0 -6 0 8 -262144 -1 -1 1
1;
#X text 192 114 fullscreen;
#X obj 324 28 gemmouse;
#X msg 385 9 0;
#X msg 424 10 1;
#X msg 24 233 create;
#X msg 112 117 800 600 -1 -1;
#X obj 478 15 gemhead;
#X obj 478 37 world_light;
#X msg 396 69 fullscreen 1;
#X obj 372 31 bng 15 250 50 0 empty empty empty 0 -6 0 8 -262144 -1
-1;
#X obj 395 31 bng 15 250 50 0 empty empty empty 0 -6 0 8 -262144 -1
-1;
#X obj 419 34 bng 15 250 50 0 empty empty empty 0 -6 0 8 -262144 -1
-1;
#X msg 383 87 fullscreen 0;
#X obj 206 464 sphere;
#X obj 228 12 dumpOSC 10002;
#X obj 215 361 translateXYZ;
#X obj 252 291 gemhead;
#X obj 327 387 rotateXYZ;
#X obj 351 324 hsl 128 15 0 360 0 0 empty empty empty -2 -6 0 8 -262144
-1 -1 5200 1;
#X obj 370 342 hsl 128 15 0 360 0 0 empty empty empty -2 -6 0 8 -262144
-1 -1 5500 1;
#X obj 396 363 hsl 128 15 0 360 0 0 empty empty empty -2 -6 0 8 -262144
-1 -1 7200 1;
#X obj 111 286 hsl 128 15 -3 3 0 0 empty empty empty -2 -6 0 8 -262144
-1 -1 0 1;
#X obj 123 304 hsl 128 15 -3 3 0 0 empty empty empty -2 -6 0 8 -262144
-1 -1 12700 1;
#X obj 154 323 hsl 128 15 -3 3 0 0 empty empty empty -2 -6 0 8 -262144
-1 -1 4300 1;
#X obj 19 346 metro 500;
#X floatatom 60 329 5 0 0 0 - - -;
#X obj 21 323 tgl 15 0 empty empty empty 0 -6 0 8 -262144 -1 -1 1 1
;
#X obj 25 385 osc~;
#X obj 31 364 hsl 128 15 0 127 0 0 empty empty empty -2 -6 0 8 -262144
-1 -1 400 1;
#X obj 19 409 snapshot~;
#X obj 19 447 +;
#X obj 19 427 * 1;
#X obj 45 426 hsl 128 15 0 5 0 0 empty empty empty -2 -6 0 8 -262144
-1 -1 2000 1;
#X floatatom 61 477 5 0 0 0 - - -;
#X floatatom 9 477 5 0 0 0 - - -;
#X floatatom 231 439 5 0 0 0 - - -;
#X obj 211 388 color 0.5 0.5 0.5;
#X floatatom 42 449 5 0 0 0 - - -;
#X msg 313 455 \$1;
#X obj 286 487 circle;
#X obj 309 415 color 0.8 0.4 0.1;
#X obj 242 785 sphere;
#X obj 233 587 translateXYZ;
#X obj 308 523 OSCroute /trig;
#X obj 238 491 gemhead;
#X obj 345 613 rotateXYZ;
#X obj 369 550 hsl 128 15 0 360 0 0 empty empty empty -2 -6 0 8 -262144
-1 -1 7100 1;
#X obj 388 568 hsl 128 15 0 360 0 0 empty empty empty -2 -6 0 8 -262144
-1 -1 8700 1;
#X obj 414 589 hsl 128 15 0 360 0 0 empty empty empty -2 -6 0 8 -262144
-1 -1 2800 1;
#X obj 129 512 hsl 128 15 -3 3 0 0 empty empty empty -2 -6 0 8 -262144
-1 -1 12700 1;
#X obj 141 530 hsl 128 15 -3 3 0 0 empty empty empty -2 -6 0 8 -262144
-1 -1 3598 1;
#X obj 172 549 hsl 128 15 -3 3 0 0 empty empty empty -2 -6 0 8 -262144
-1 -1 7300 1;
#X obj 37 572 metro 500;
#X floatatom 78 555 5 0 0 0 - - -;
#X obj 39 549 tgl 15 0 empty empty empty 0 -6 0 8 -262144 -1 -1 1 1
;
#X obj 43 611 osc~;
#X obj 49 590 hsl 128 15 0 127 0 0 empty empty empty -2 -6 0 8 -262144
-1 -1 2900 1;
#X obj 37 635 snapshot~;
#X obj 37 673 +;
#X obj 37 653 * 1;
#X obj 63 652 hsl 128 15 0 5 0 0 empty empty empty -2 -6 0 8 -262144
-1 -1 1300 1;
#X floatatom 79 703 5 0 0 0 - - -;
#X floatatom 27 703 5 0 0 0 - - -;
#X floatatom 267 760 5 0 0 0 - - -;
#X obj 229 614 color 0.5 0.5 0.5;
#X floatatom 60 675 5 0 0 0 - - -;
#X msg 349 776 \$1;
#X obj 322 808 circle;
#X obj 238 151 OSCroute /note;
#X obj 229 263 line 0 10;
#X obj 265 226 hsl 128 15 1 1000 0 0 empty empty empty -2 -6 0 8 -262144
-1 -1 3800 1;
#X floatatom 237 172 5 0 0 0 - - -;
#X obj 235 191 * 0.05;
#X obj 480 132 OSCroute /pulsenote;
#X obj 437 112 OSCroute /pulsetrig;
#X floatatom 270 192 5 0 0 0 - - -;
#X floatatom 269 210 5 0 0 0 - - -;
#X floatatom 233 227 5 0 0 0 - - -;
#X obj 234 209 + 0;
#X obj 226 246 pack f f;
#X obj 461 239 line 0 10;
#X obj 497 202 hsl 128 15 1 1000 0 0 empty empty empty -2 -6 0 8 -262144
-1 -1 2100 1;
#X floatatom 471 151 5 0 0 0 - - -;
#X obj 467 167 * 0.05;
#X floatatom 505 169 5 0 0 0 - - -;
#X floatatom 501 186 5 0 0 0 - - -;
#X floatatom 465 203 5 0 0 0 - - -;
#X obj 466 185 + 0;
#X obj 458 222 pack f f;
#X obj 446 150 * 1;
#X msg 433 131 1;
#X obj 555 112 bng 15 250 50 0 empty empty empty 0 -6 0 8 -262144 -1
-1;
#X obj 329 641 color 0.8 0.1 0.1;
#X obj 313 147 hsl 128 15 0 127 0 0 empty empty empty -2 -6 0 8 -262144
-1 -1 500 1;
#X obj 365 127 bng 15 250 50 0 empty empty empty 0 -6 0 8 -262144 -1
-1;
#X floatatom 355 260 5 0 0 0 - - -;
#X obj 367 199 line 0 10;
#X obj 379 171 del 100;
#X msg 423 171 3 200;
#X msg 338 170 0 \$1;
#X floatatom 254 659 5 0 0 0 - - -;
#X obj 230 687 alpha;
#X obj 425 475 hsl 128 15 1 1000 0 0 empty empty empty -2 -6 0 8 -262144
-1 -1 0 1;
#X obj 473 396 hsl 128 15 0 127 0 0 empty empty empty -2 -6 0 8 -262144
-1 -1 0 1;
#X floatatom 515 509 5 0 0 0 - - -;
#X obj 527 448 line 0 10;
#X obj 539 420 del 100;
#X msg 583 420 3 200;
#X msg 498 419 0 \$1;
#X obj 446 395 bng 15 250 50 0 empty empty empty 0 -6 0 8 -262144 -1
-1;
#X connect 1 0 6 0;
#X connect 1 0 7 0;
#X connect 1 0 8 0;
#X connect 2 0 6 0;
#X connect 2 0 7 0;
#X connect 2 0 8 0;
#X connect 3 0 6 0;
#X connect 3 0 7 0;
#X connect 3 0 8 0;
#X connect 4 0 6 0;
#X connect 4 0 7 0;
#X connect 4 0 8 0;
#X connect 5 0 7 0;
#X connect 5 0 6 0;
#X connect 5 0 8 0;
#X connect 6 0 14 0;
#X connect 7 0 14 0;
#X connect 8 0 27 0;
#X connect 8 0 13 0;
#X connect 8 1 9 0;
#X connect 8 1 12 0;
#X connect 9 0 14 0;
#X connect 10 0 14 0;
#X connect 12 0 10 0;
#X connect 12 0 22 0;
#X connect 13 0 10 0;
#X connect 13 0 22 0;
#X connect 15 0 6 0;
#X connect 15 0 7 0;
#X connect 15 0 8 0;
#X connect 16 0 8 0;
#X connect 17 0 6 0;
#X connect 17 0 7 0;
#X connect 17 0 8 0;
#X connect 18 0 7 0;
#X connect 18 0 6 0;
#X connect 18 0 8 0;
#X connect 21 0 14 0;
#X connect 22 0 21 0;
#X connect 24 3 9 0;
#X connect 25 0 31 0;
#X connect 25 0 35 0;
#X connect 26 0 31 0;
#X connect 27 0 14 0;
#X connect 28 0 7 0;
#X connect 28 0 8 0;
#X connect 28 0 26 0;
#X connect 29 0 30 0;
#X connect 31 0 14 0;
#X connect 34 0 9 0;
#X connect 35 0 14 0;
#X connect 37 0 20 0;
#X connect 37 0 91 0;
#X connect 37 0 97 0;
#X connect 37 0 96 0;
#X connect 38 0 40 0;
#X connect 38 0 59 0;
#X connect 39 0 38 0;
#X connect 40 0 63 0;
#X connect 41 0 40 1;
#X connect 42 0 40 2;
#X connect 43 0 40 3;
#X connect 44 0 38 1;
#X connect 45 0 38 2;
#X connect 46 0 38 3;
#X connect 47 0 52 0;
#X connect 48 0 47 1;
#X connect 49 0 47 0;
#X connect 50 0 52 0;
#X connect 51 0 50 0;
#X connect 52 0 54 0;
#X connect 53 0 61 0;
#X connect 53 0 56 0;
#X connect 54 0 53 0;
#X connect 55 0 54 1;
#X connect 58 0 36 2;
#X connect 59 0 36 0;
#X connect 60 0 53 1;
#X connect 61 0 62 1;
#X connect 63 0 62 0;
#X connect 65 0 68 0;
#X connect 65 0 87 0;
#X connect 67 0 65 0;
#X connect 68 0 115 0;
#X connect 69 0 68 1;
#X connect 70 0 68 2;
#X connect 71 0 68 3;
#X connect 72 0 65 1;
#X connect 73 0 65 2;
#X connect 74 0 65 3;
#X connect 75 0 80 0;
#X connect 76 0 75 1;
#X connect 77 0 75 0;
#X connect 78 0 80 0;
#X connect 79 0 78 0;
#X connect 80 0 82 0;
#X connect 81 0 89 0;
#X connect 81 0 84 0;
#X connect 82 0 81 0;
#X connect 83 0 82 1;
#X connect 86 0 64 2;
#X connect 87 0 124 0;
#X connect 88 0 81 1;
#X connect 89 0 90 1;
#X connect 91 0 94 0;
#X connect 92 0 44 0;
#X connect 93 0 102 1;
#X connect 94 0 95 0;
#X connect 94 0 132 0;
#X connect 95 0 101 0;
#X connect 96 0 112 1;
#X connect 96 0 114 0;
#X connect 97 0 113 0;
#X connect 97 0 117 0;
#X connect 98 0 95 1;
#X connect 99 0 101 1;
#X connect 100 0 102 0;
#X connect 101 0 100 0;
#X connect 102 0 92 0;
#X connect 103 0 73 0;
#X connect 104 0 111 1;
#X connect 105 0 106 0;
#X connect 106 0 110 0;
#X connect 107 0 106 1;
#X connect 108 0 110 1;
#X connect 109 0 111 0;
#X connect 110 0 109 0;
#X connect 111 0 103 0;
#X connect 112 0 105 0;
#X connect 113 0 112 0;
#X connect 115 0 90 0;
#X connect 116 0 122 0;
#X connect 116 0 120 1;
#X connect 117 0 116 0;
#X connect 117 0 120 0;
#X connect 119 0 72 0;
#X connect 119 0 118 0;
#X connect 120 0 121 0;
#X connect 121 0 119 0;
#X connect 122 0 119 0;
#X connect 123 0 124 1;
#X connect 124 0 64 0;
#X connect 126 0 131 0;
#X connect 126 0 129 1;
#X connect 127 0 45 0;
#X connect 128 0 127 0;
#X connect 129 0 130 0;
#X connect 130 0 128 0;
#X connect 131 0 128 0;
#X connect 132 0 126 0;
#X connect 132 0 129 0;
