#N canvas 616 233 371 518 8;
#X obj 13 394 ../efftest/waveshape;
#X obj 13 350 osc~;
#X obj 14 331 sig~;
#X floatatom 36 311 5 0 0 0 - - -;
#X obj 37 278 loadbang;
#X msg 36 295 40;
#X obj 17 253 hsl 128 15 0 127 0 0 empty empty empty -2 -6 0 8 -262144
-1 -1 4120 1;
#X obj 49 438 ../effects/crossfade_st;
#X obj 162 418 hsl 128 15 0 127 0 0 empty empty empty -2 -6 0 8 -262144
-1 -1 11300 1;
#X obj 123 225 tgl 15 0 empty empty empty 0 -6 0 8 -262144 -1 -1 0
1;
#X obj 60 204 hsl 128 15 10 10000 1 0 empty empty empty -2 -6 0 8 -262144
-1 -1 0 1;
#X floatatom 69 205 5 0 0 0 - - -;
#X obj 51 37 metro 200;
#X obj 30 122 + 20;
#X obj 46 14 tgl 15 0 empty empty empty 0 -6 0 8 -262144 -1 -1 0 1
;
#X obj 106 16 hsl 128 15 10 1000 1 0 empty empty empty -2 -6 0 8 -262144
-1 -1 6300 1;
#X floatatom 74 98 5 0 0 0 - - -;
#X obj 57 71 random 32;
#X obj 15 234 line 0 100;
#X obj 30 145 mtof;
#X obj 45 98 * 1;
#X obj 73 143 hsl 128 15 0 127 0 0 empty empty empty -2 -6 0 8 -262144
-1 -1 2800 1;
#X obj 165 81 hsl 128 15 0 127 0 0 empty empty empty -2 -6 0 8 -262144
-1 -1 400 1;
#X floatatom 162 101 5 0 0 0 - - -;
#X floatatom 135 144 5 0 0 0 - - -;
#X floatatom 15 181 5 0 0 0 - - -;
#X text 181 17 repeat;
#X text 233 80 randsize;
#X text 148 139 offset;
#X floatatom 62 373 5 0 0 0 - - -;
#X text 85 254 const freq;
#X floatatom 26 256 5 0 0 0 - - -;
#X text 118 203 portamento;
#X obj 22 -11 OSCroute /on;
#X obj 261 -37 inlet;
#X obj 50 458 outlet~;
#X obj 159 461 outlet~;
#X obj 34 -32 OSCroute /randomplay;
#X obj 69 121 OSCroute /offset;
#X obj 57 180 OSCroute /portamento;
#X obj 104 -5 OSCroute /repeat;
#X obj 164 56 OSCroute /randsize;
#X obj 263 -12 OSCroute /tw;
#X obj 50 326 tgl 15 0 empty empty empty 0 -6 0 8 -262144 -1 -1 0 1
;
#X obj 267 20 OSCroute /note;
#X obj 329 76 mtof;
#X floatatom 323 47 5 0 0 0 - - -;
#X obj 75 302 hradio 15 1 0 17 empty empty empty 0 -6 0 8 -262144 -1
-1 12;
#X obj 114 319 hsl 128 15 1 3 0 0 empty empty empty -2 -6 0 8 -262144
-1 -1 2100 1;
#X obj 116 341 hsl 128 15 0.1 127 1 0 empty empty empty -2 -6 0 8 -262144
-1 -1 3300 1;
#X obj 132 373 bng 15 250 50 0 empty empty empty 0 -6 0 8 -262144 -1
-1;
#X floatatom 148 373 5 0 0 0 - - -;
#X floatatom 67 326 5 0 0 0 - - -;
#X obj 50 350 pack f f;
#X text 52 339 exp_morph;
#X text 178 372 linear_morph;
#X text 80 290 waveform;
#X text 252 331 vars;
#X text 229 322 1;
#X text 233 344 2;
#X connect 0 0 7 0;
#X connect 0 1 7 1;
#X connect 1 0 0 1;
#X connect 1 0 0 0;
#X connect 2 0 1 0;
#X connect 3 0 0 2;
#X connect 4 0 5 0;
#X connect 5 0 3 0;
#X connect 6 0 2 0;
#X connect 6 0 31 0;
#X connect 7 0 35 0;
#X connect 7 1 36 0;
#X connect 8 0 7 4;
#X connect 10 0 11 0;
#X connect 10 0 18 1;
#X connect 12 0 17 0;
#X connect 13 0 19 0;
#X connect 14 0 12 0;
#X connect 15 0 12 1;
#X connect 17 0 20 0;
#X connect 18 0 6 0;
#X connect 19 0 25 0;
#X connect 20 0 13 0;
#X connect 20 0 16 0;
#X connect 21 0 13 1;
#X connect 21 0 24 0;
#X connect 22 0 17 1;
#X connect 22 0 23 0;
#X connect 25 0 18 0;
#X connect 29 0 0 4;
#X connect 33 0 14 0;
#X connect 34 0 42 0;
#X connect 37 0 33 0;
#X connect 37 0 38 0;
#X connect 37 0 40 0;
#X connect 37 0 41 0;
#X connect 38 0 21 0;
#X connect 39 0 10 0;
#X connect 40 0 15 0;
#X connect 41 0 22 0;
#X connect 42 0 37 0;
#X connect 42 0 44 0;
#X connect 42 0 39 0;
#X connect 43 0 53 0;
#X connect 44 0 45 0;
#X connect 44 0 46 0;
#X connect 45 0 25 0;
#X connect 47 0 29 0;
#X connect 48 0 0 5;
#X connect 49 0 0 6;
#X connect 50 0 0 7;
#X connect 51 0 0 8;
#X connect 52 0 53 1;
#X connect 53 0 0 3;
