#N canvas 828 80 886 675 10;
#X obj -1 13 hsl 128 15 0 100000 0 0 empty empty empty -2 -8 0 10 -262144
-1 -1 0 1;
#X obj 32 48 hsl 128 15 0 127 0 0 empty empty empty -2 -8 0 10 -262144
-1 -1 0 1;
#X obj 12 30 hsl 128 15 0 100000 0 0 empty empty empty -2 -8 0 10 -262144
-1 -1 0 1;
#X obj 218 30 metro 500;
#X obj 215 6 tgl 15 0 empty empty empty 17 7 0 10 -262144 -1 -1 0 1
;
#X obj 239 10 hsl 128 15 0 127 0 0 empty empty empty -2 -8 0 10 -262144
-1 -1 0 1;
#X text 383 9 time intervsl;
#X floatatom 328 9 5 0 0 0 - - -;
#X floatatom 92 11 5 0 0 0 - - -;
#X floatatom 105 30 5 0 0 0 - - -;
#X floatatom 125 50 5 0 0 0 - - -;
#X obj 98 304 mixer;
#X obj 168 582 dac~ 1 2 3 4;
#X obj 13 119 sampler_st;
#X obj 220 63 adc~;
#X obj 220 101 flanger_st;
#X connect 0 0 8 0;
#X connect 0 0 13 1;
#X connect 1 0 10 0;
#X connect 1 0 13 3;
#X connect 2 0 9 0;
#X connect 2 0 13 2;
#X connect 4 0 3 0;
#X connect 5 0 3 1;
#X connect 5 0 7 0;
#X connect 11 0 12 0;
#X connect 11 1 12 1;
#X connect 13 0 11 0;
#X connect 13 1 11 1;
#X connect 14 0 15 0;
#X connect 14 1 15 1;
#X connect 15 0 11 2;
#X connect 15 1 11 3;
