#N canvas 403 53 944 833 10;
#X obj 5 156 ../cmp/waveshapeCtl;
#X obj 41 421 ../cmp/distortion;
#X text 48 400 distortion;
#X obj 170 7 dumpOSC 10001;
#X obj 221 611 dac~;
#X obj 129 11 bng 15 250 50 0 empty empty empty 0 -6 0 8 -262144 -1
-1;
#X obj 171 30 OSCroute /w1;
#X obj 477 129 bell;
#X obj 376 189 ../effects/crossfade_st;
#X obj 352 42 OSCroute /dist;
#X obj 494 19 OSCroute /bell;
#X obj 491 48 OSCroute /t;
#X obj 505 67 OSCroute /pit;
#X obj 518 87 OSCroute /len;
#X obj 536 108 OSCroute /pan;
#X obj 634 58 loadbang;
#X msg 635 81 62;
#X obj 323 371 OSCroute /mstr;
#X obj 372 110 OSCroute /shape;
#X obj 390 130 bng 15 250 50 0 empty empty empty 0 -6 0 8 -262144 -1
-1;
#X msg 375 309 16 0 0 0;
#X obj 24 65 ../cmp/multi_osc;
#X obj 11 13 OSCroute /note;
#X obj 9 39 mtof;
#X floatatom 67 40 5 0 0 0 - - -;
#X obj 532 170 hsl 128 15 0 127 0 0 empty empty empty -2 -6 0 8 -262144
-1 -1 0 1;
#X text 537 169 pan;
#X floatatom 620 169 5 0 0 0 - - -;
#X obj 11 -8 OSCroute /tw;
#X obj 37 548 ../cmp/filter;
#X obj 31 665 ../cmp/normalise;
#X obj 440 404 ../cmp/multi_osc;
#X obj 432 506 ../cmp/envelope;
#X obj 423 658 ../cmp/echo;
#X obj 396 471 bng 15 250 50 0 empty empty empty 0 -6 0 8 -262144 -1
-1;
#X obj 462 374 hsl 128 15 100 10000 1 0 empty empty empty -2 -6 0 8
-262144 -1 -1 4245 1;
#X obj 220 432 ../cmp/mixer a_bit wider;
#X obj 349 759 +~;
#X obj 381 760 +~;
#X obj 437 754 ../cmp/echo;
#X obj 347 785 +~;
#X obj 379 786 +~;
#X obj 459 273 OSCroute /pulse;
#X obj 452 305 OSCroute /t;
#X obj 480 151 *~ 0.1;
#X obj 425 164 *~ 0.1;
#X obj 491 329 OSCroute /note;
#X obj 471 353 mtof;
#X floatatom 516 353 5 0 0 0 - - -;
#X floatatom 114 36 5 0 0 0 - - -;
#X obj 88 513 OSCroute /filter;
#X obj 230 108 OSCroute /ws;
#X msg 114 392 0.166;
#X msg 158 394 0.732;
#X obj 218 401 loadbang;
#X msg 609 656 38;
#X msg 610 707 418;
#X obj 660 684 loadbang;
#X connect 0 0 1 0;
#X connect 0 1 1 1;
#X connect 1 0 29 0;
#X connect 1 1 29 1;
#X connect 3 0 5 0;
#X connect 3 0 6 0;
#X connect 3 0 10 0;
#X connect 3 0 17 0;
#X connect 6 0 28 0;
#X connect 6 0 42 0;
#X connect 7 0 36 5;
#X connect 7 0 36 4;
#X connect 7 0 44 0;
#X connect 7 0 45 0;
#X connect 8 0 36 2;
#X connect 8 1 36 3;
#X connect 10 0 11 0;
#X connect 10 0 12 0;
#X connect 10 0 13 0;
#X connect 10 0 14 0;
#X connect 10 0 18 0;
#X connect 11 0 7 0;
#X connect 12 0 7 1;
#X connect 13 0 7 2;
#X connect 15 0 16 0;
#X connect 15 0 20 0;
#X connect 17 0 36 8;
#X connect 18 0 19 0;
#X connect 20 0 36 8;
#X connect 21 0 0 0;
#X connect 21 0 0 1;
#X connect 22 0 23 0;
#X connect 22 0 24 0;
#X connect 23 0 21 0;
#X connect 25 0 8 4;
#X connect 25 0 27 0;
#X connect 28 0 22 0;
#X connect 28 0 50 0;
#X connect 28 0 51 0;
#X connect 29 0 30 0;
#X connect 29 1 30 1;
#X connect 30 0 36 0;
#X connect 30 1 36 1;
#X connect 31 0 32 0;
#X connect 32 0 33 0;
#X connect 32 0 37 0;
#X connect 32 0 38 0;
#X connect 32 0 33 1;
#X connect 33 0 37 1;
#X connect 33 0 39 0;
#X connect 33 1 38 1;
#X connect 33 1 39 1;
#X connect 34 0 32 1;
#X connect 35 0 31 0;
#X connect 36 0 4 0;
#X connect 36 1 4 1;
#X connect 37 0 40 0;
#X connect 38 0 41 0;
#X connect 39 0 41 1;
#X connect 39 1 40 1;
#X connect 40 0 36 6;
#X connect 41 0 36 7;
#X connect 42 0 43 0;
#X connect 42 0 46 0;
#X connect 43 0 34 0;
#X connect 44 0 8 3;
#X connect 45 0 8 0;
#X connect 46 0 47 0;
#X connect 46 0 48 0;
#X connect 47 0 35 0;
#X connect 50 0 29 2;
#X connect 51 0 0 2;
#X connect 52 0 1 2;
#X connect 53 0 1 3;
#X connect 54 0 53 0;
#X connect 54 0 52 0;
#X connect 55 0 33 2;
#X connect 56 0 39 2;
#X connect 57 0 56 0;
#X connect 57 0 55 0;
