#N canvas 756 31 721 764 10;
#X obj 75 22 gemhead;
#X msg 29 80 print;
#X obj 84 613 glsl_program;
#X obj 147 311 pack 0 0;
#X msg 31 192 print;
#X obj 168 291 t b f;
#X obj 168 246 change;
#X obj 146 121 change;
#X msg 147 351 link \$1 \$2;
#X msg 47 540 print;
#X floatatom 168 272 2 0 0 0 ID - -;
#X floatatom 146 144 2 0 0 0 ID - -;
#X obj 165 372 print linking;
#X floatatom 103 798 5 0 0 0 - - -;
#X floatatom 147 798 5 0 0 0 - - -;
#X floatatom 189 796 5 0 0 0 - - -;
#X obj 74 226 glsl_fragment;
#X obj 74 102 glsl_vertex;
#X obj 82 699 pix_image;
#X obj 82 732 pix_texture;
#X msg 21 696 mode \$1;
#X obj 21 662 tgl 15 0 empty empty empty 0 -6 0 8 -262144 -1 -1 0 1
;
#X obj 22 612 loadbang;
#X msg 22 636 0;
#X obj 135 26 bng 15 250 50 0 empty empty empty 0 -6 0 8 -262144 -1
-1;
#X msg 465 534 mvt2 \$1;
#X msg 601 546 mvt3 \$1;
#X msg 331 521 mvt1 \$1;
#X floatatom 213 828 5 0 0 0 - - -;
#X floatatom 169 748 5 0 0 0 - - -;
#X floatatom 211 748 5 0 0 0 - - -;
#X floatatom 257 746 5 0 0 0 - - -;
#X obj 84 772 translateXYZ;
#X obj 84 820 rotateXYZ;
#X obj 84 847 square 5.7;
#X msg 88 80 open deforme_texture.vert;
#X msg 85 196 open deforme_texture.frag;
#X msg 281 523 K1 \$1;
#X msg 415 529 K2 \$1;
#X msg 545 541 K3 \$1;
#X obj 72 51 alpha;
#X obj 112 651 loadbang;
#X obj 331 484 / 1000;
#X obj 330 457 random 6280;
#X obj 288 406 b;
#X obj 287 477 line3;
#X obj 288 428 delay 5;
#X obj 463 490 / 1000;
#X obj 462 463 random 6280;
#X obj 420 412 b;
#X obj 419 483 line3;
#X obj 420 434 delay 5;
#X obj 599 497 / 1000;
#X obj 598 470 random 6280;
#X obj 556 419 b;
#X obj 555 490 line3;
#X obj 556 441 delay 5;
#X msg 541 398 3 50;
#X msg 405 390 2 50;
#X msg 274 384 5 50;
#X msg 290 449 0 300;
#X msg 422 455 0 300;
#X msg 558 462 0 300;
#X obj 275 360 metro 500;
#X obj 279 336 tgl 15 0 empty empty empty 17 7 0 10 -262144 -1 -1 1
1;
#X obj 409 342 tgl 15 0 empty empty empty 17 7 0 10 -262144 -1 -1 1
1;
#X obj 405 366 metro 430;
#X obj 550 345 tgl 15 0 empty empty empty 17 7 0 10 -262144 -1 -1 1
1;
#X obj 546 369 metro 470;
#X msg 105 676 open deforme_texture7.jpg;
#X obj 424 70 gemwin 50;
#X msg 439 39 create \, 1;
#X text 522 43 <- 1;
#X text 156 25 <- 2;
#X text 588 342 <- 3;
#X connect 0 0 40 0;
#X connect 1 0 17 0;
#X connect 2 0 18 0;
#X connect 3 0 8 0;
#X connect 4 0 16 0;
#X connect 5 0 3 0;
#X connect 5 1 3 1;
#X connect 6 0 10 0;
#X connect 7 0 11 0;
#X connect 8 0 2 0;
#X connect 8 0 12 0;
#X connect 9 0 2 0;
#X connect 10 0 5 0;
#X connect 11 0 3 0;
#X connect 13 0 33 1;
#X connect 14 0 33 2;
#X connect 15 0 33 3;
#X connect 16 0 2 0;
#X connect 16 1 6 0;
#X connect 17 0 16 0;
#X connect 17 1 7 0;
#X connect 18 0 19 0;
#X connect 19 0 32 0;
#X connect 20 0 19 0;
#X connect 21 0 20 0;
#X connect 22 0 23 0;
#X connect 23 0 21 0;
#X connect 24 0 35 0;
#X connect 24 0 36 0;
#X connect 25 0 2 0;
#X connect 26 0 2 0;
#X connect 27 0 2 0;
#X connect 28 0 34 1;
#X connect 29 0 32 1;
#X connect 30 0 32 2;
#X connect 31 0 32 3;
#X connect 32 0 33 0;
#X connect 33 0 34 0;
#X connect 35 0 17 0;
#X connect 36 0 16 0;
#X connect 37 0 2 0;
#X connect 38 0 2 0;
#X connect 39 0 2 0;
#X connect 40 0 17 0;
#X connect 41 0 69 0;
#X connect 42 0 27 0;
#X connect 43 0 42 0;
#X connect 44 0 46 0;
#X connect 44 0 43 0;
#X connect 45 0 37 0;
#X connect 46 0 60 0;
#X connect 47 0 25 0;
#X connect 48 0 47 0;
#X connect 49 0 51 0;
#X connect 49 0 48 0;
#X connect 50 0 38 0;
#X connect 51 0 61 0;
#X connect 52 0 26 0;
#X connect 53 0 52 0;
#X connect 54 0 56 0;
#X connect 54 0 53 0;
#X connect 55 0 39 0;
#X connect 56 0 62 0;
#X connect 57 0 54 0;
#X connect 57 0 55 0;
#X connect 58 0 49 0;
#X connect 58 0 50 0;
#X connect 59 0 44 0;
#X connect 59 0 45 0;
#X connect 60 0 45 0;
#X connect 61 0 50 0;
#X connect 62 0 55 0;
#X connect 63 0 59 0;
#X connect 64 0 63 0;
#X connect 65 0 66 0;
#X connect 66 0 58 0;
#X connect 67 0 68 0;
#X connect 68 0 57 0;
#X connect 69 0 18 0;
#X connect 71 0 70 0;
