#N canvas 570 612 373 164 10;
#X obj 57 98 dac~;
#N canvas 132 341 813 857 guts 0;
#X obj 55 62 OSCroute /p1;
#X obj 246 53 OSCroute /p2;
#X obj 83 32 dumpOSC 10001;
#X obj 136 606 mixer;
#X obj 67 84 OSCroute /g;
#X obj 244 76 OSCroute /g;
#X obj 177 331 OSCroute /reverb;
#X obj 45 354 reverb;
#X obj 443 524 flanger_st;
#X obj 67 108 granular/player;
#X obj 420 25 OSCroute /p3;
#X obj 413 94 multi_osc1;
#X obj 414 225 envelope;
#X obj 461 46 OSCroute /osc;
#X obj 462 199 bng 15 250 50 0 empty empty empty 0 -6 0 10 -262144
-1 -1;
#X obj 501 195 OSCroute /env;
#X obj 414 364 bitcrush;
#X obj 613 6 hsl 128 15 20 300 1 0 empty empty empty -2 -6 0 10 -262144
-1 -1 0 1;
#X floatatom 708 8 5 0 0 0 - - -;
#X obj 622 144 line~;
#X obj 495 472 vcf~;
#X obj 539 470 vcf~;
#X obj 597 419 hsl 128 15 0.1 50 1 0 empty empty empty -2 -6 0 10 -262144
-1 -1 0 1;
#X obj 427 694 *~ 1;
#X obj 478 689 *~ 1;
#X obj 591 28 * 1;
#X msg 574 3 1;
#X obj 590 52 t b f f;
#X obj 695 96 print;
#X msg 620 119 \$2 \, \$1 200;
#X obj 642 66 + 50;
#X obj 666 25 hsl 128 15 -1 1 0 0 empty empty empty -2 -6 0 10 -262144
-1 -1 0 1;
#X floatatom 764 25 5 0 0 0 - - -;
#X obj 618 89 pack f f f;
#X obj 683 55 hsl 128 15 0 1000 0 0 empty empty empty -2 -6 0 10 -262144
-1 -1 0 1;
#X floatatom 781 55 5 0 0 0 - - -;
#X obj 649 43 *;
#X obj 599 495 OSCroute /flanger;
#X obj 589 340 OSCroute /bc;
#X obj 230 107 granular/player;
#X obj 213 447 multi_osc1;
#X obj 150 532 *~;
#X obj 97 530 *~;
#X obj 240 418 hsl 128 15 0 20 0 0 empty empty empty -2 -6 0 10 -262144
-1 -1 1900 1;
#X obj 218 562 +~ 1;
#X obj 20 566 crossfade_st;
#X obj 54 32 bng 15 250 50 0 empty empty empty 0 -6 0 10 -262144 -1
-1;
#X obj 183 11 print;
#X obj 316 580 snapshot~;
#X obj 316 558 metro;
#X obj 295 555 tgl 15 0 empty empty empty 0 -6 0 10 -262144 -1 -1 0
1;
#X obj 358 534 loadbang;
#X obj 501 -3 loadbang;
#X obj 354 618 oscSend;
#X msg 390 588 1 1;
#X msg 626 546;
#X obj 135 805 outlet~;
#X obj 224 808 outlet~;
#X floatatom 302 613 5 0 0 0 - - -;
#X msg 358 556 50;
#X connect 0 0 4 0;
#X connect 0 0 6 0;
#X connect 1 0 5 0;
#X connect 2 0 0 0;
#X connect 2 0 1 0;
#X connect 2 0 10 0;
#X connect 2 0 46 0;
#X connect 2 0 47 0;
#X connect 3 0 56 0;
#X connect 3 1 57 0;
#X connect 4 0 9 0;
#X connect 5 0 39 0;
#X connect 6 0 7 3;
#X connect 7 0 42 0;
#X connect 7 0 45 0;
#X connect 7 1 41 0;
#X connect 7 1 45 1;
#X connect 8 0 23 0;
#X connect 8 1 24 0;
#X connect 9 0 7 0;
#X connect 9 1 7 1;
#X connect 10 0 13 0;
#X connect 10 0 15 0;
#X connect 10 0 37 0;
#X connect 10 0 38 0;
#X connect 11 0 12 0;
#X connect 12 0 16 0;
#X connect 12 0 16 1;
#X connect 13 0 11 2;
#X connect 14 0 12 1;
#X connect 15 0 12 3;
#X connect 16 0 20 0;
#X connect 16 1 21 0;
#X connect 17 0 18 0;
#X connect 17 0 25 1;
#X connect 17 0 36 1;
#X connect 19 0 11 3;
#X connect 19 0 20 1;
#X connect 19 0 21 1;
#X connect 20 0 8 0;
#X connect 21 0 8 1;
#X connect 22 0 20 2;
#X connect 22 0 21 2;
#X connect 23 0 3 4;
#X connect 24 0 3 5;
#X connect 25 0 27 0;
#X connect 26 0 25 0;
#X connect 27 0 14 0;
#X connect 27 1 33 0;
#X connect 27 2 30 0;
#X connect 29 0 19 0;
#X connect 30 0 33 1;
#X connect 31 0 32 0;
#X connect 31 0 36 0;
#X connect 33 0 29 0;
#X connect 33 0 28 0;
#X connect 34 0 35 0;
#X connect 34 0 33 2;
#X connect 36 0 30 1;
#X connect 37 0 8 8;
#X connect 38 0 16 3;
#X connect 39 0 3 2;
#X connect 39 1 3 3;
#X connect 40 0 44 0;
#X connect 41 0 45 3;
#X connect 42 0 45 2;
#X connect 43 0 40 0;
#X connect 44 0 41 1;
#X connect 44 0 42 1;
#X connect 44 0 48 0;
#X connect 45 0 3 0;
#X connect 45 1 3 1;
#X connect 48 0 53 0;
#X connect 48 0 58 0;
#X connect 49 0 48 0;
#X connect 50 0 49 0;
#X connect 51 0 59 0;
#X connect 52 0 26 0;
#X connect 54 0 53 0;
#X connect 59 0 49 1;
#X restore 49 49 pd guts;
#X connect 1 0 0 0;
#X connect 1 1 0 1;
