#N canvas 217 123 933 552 10;
#X obj 43 335 pdp_freeframe;
#X floatatom 149 338 5 0 0 0 - - -;
#X obj 194 336 hradio 15 1 0 44 empty empty empty 0 -6 0 8 -262144
-1 -1 0;
#X obj 261 171 hsl 128 15 0 1 0 0 empty vparam3 empty -2 -6 0 8 -262144
-1 -1 0 1;
#X obj 401 171 hsl 128 15 0 1 0 0 empty vparam4 empty -2 -6 0 8 -262144
-1 -1 0 1;
#X obj 541 171 hsl 128 15 0 1 0 0 empty vparam5 empty -2 -6 0 8 -262144
-1 -1 0 1;
#X msg 258 191 param 3 \$1;
#X msg 398 190 param 4 \$1;
#X msg 539 190 param 5 \$1;
#X text 195 317 Select the plugin;
#X text 258 72 Adjust plugin parameters.;
#X symbolatom 96 488 20 0 0 0 - - -;
#X text 249 488 <-- plugin name;
#X floatatom 115 466 5 0 0 0 - - -;
#X text 163 464 <-- number of parameters;
#X text 214 438 <-- parameter name;
#X text 241 410 <-- parameter type;
#X text 257 381 <-- parameter default;
#X obj 263 112 hsl 128 15 0 1 0 0 empty vparam0 empty -2 -6 0 8 -262144
-1 -1 0 1;
#X obj 401 112 hsl 128 15 0 1 0 0 empty vparam1 empty -2 -6 0 8 -262144
-1 -1 0 1;
#X obj 542 112 hsl 128 15 0 1 0 0 empty vparam2 empty -2 -6 0 8 -262144
-1 -1 0 1;
#X obj 261 234 hsl 128 15 0 1 0 0 empty vparam6 empty -2 -6 0 8 -262144
-1 -1 0 1;
#X obj 402 234 hsl 128 15 0 1 0 0 empty vparam7 empty -2 -6 0 8 -262144
-1 -1 0 1;
#X obj 544 234 hsl 128 15 0 1 0 0 empty vparam8 empty -2 -6 0 8 -262144
-1 -1 0 1;
#X msg 260 131 param 0 \$1;
#X msg 398 131 param 1 \$1;
#X msg 539 131 param 2 \$1;
#X msg 260 254 param 6 \$1;
#X msg 399 253 param 7 \$1;
#X msg 541 253 param 8 \$1;
#N canvas 0 0 996 665 pname 0;
#X obj 51 119 l2s;
#X obj 80 119 l2s;
#X obj 111 119 l2s;
#X obj 143 119 l2s;
#X obj 207 120 l2s;
#X obj 236 120 l2s;
#X obj 267 120 l2s;
#X obj 298 119 l2s;
#X obj 97 86 route 0 1 2 3 4 5 6 7 8;
#X obj 327 119 l2s;
#X obj 97 51 inlet;
#X obj 51 154 s ffparam0;
#X obj 79 178 s ffparam1;
#X obj 118 205 s ffparam2;
#X obj 148 227 s ffparam3;
#X obj 185 157 s ffparam4;
#X obj 213 181 s ffparam5;
#X obj 255 206 s ffparam6;
#X obj 283 230 s ffparam7;
#X obj 305 155 s ffparam8;
#X obj 391 53 inlet;
#X msg 390 79 symbol;
#X connect 0 0 11 0;
#X connect 1 0 12 0;
#X connect 2 0 13 0;
#X connect 3 0 14 0;
#X connect 4 0 15 0;
#X connect 5 0 16 0;
#X connect 6 0 17 0;
#X connect 7 0 18 0;
#X connect 8 0 0 0;
#X connect 8 1 1 0;
#X connect 8 2 2 0;
#X connect 8 3 3 0;
#X connect 8 4 4 0;
#X connect 8 5 5 0;
#X connect 8 6 6 0;
#X connect 8 7 7 0;
#X connect 8 8 9 0;
#X connect 9 0 19 0;
#X connect 10 0 8 0;
#X connect 20 0 21 0;
#X connect 21 0 11 0;
#X connect 21 0 12 0;
#X connect 21 0 13 0;
#X connect 21 0 14 0;
#X connect 21 0 15 0;
#X connect 21 0 16 0;
#X connect 21 0 17 0;
#X connect 21 0 18 0;
#X connect 21 0 19 0;
#X restore 146 438 pd pname;
#X symbolatom 260 93 18 0 0 0 - ffparam0 -;
#X symbolatom 399 92 18 0 0 0 - ffparam1 -;
#X symbolatom 538 92 18 0 0 0 - ffparam2 -;
#X symbolatom 261 154 18 0 0 0 - ffparam3 -;
#X symbolatom 400 153 18 0 0 0 - ffparam4 -;
#X symbolatom 539 153 18 0 0 0 - ffparam5 -;
#X symbolatom 261 214 18 0 0 0 - ffparam6 -;
#X symbolatom 400 213 18 0 0 0 - ffparam7 -;
#X symbolatom 539 213 18 0 0 0 - ffparam8 -;
#N canvas 0 0 996 665 default 0;
#X obj 97 86 route 0 1 2 3 4 5 6 7 8;
#X obj 97 51 inlet;
#X obj 391 53 inlet;
#X obj 51 154 s vparam0;
#X obj 393 114 float 0;
#X msg 392 88 bang;
#X obj 79 178 s vparam1;
#X obj 118 205 s vparam2;
#X obj 148 227 s vparam3;
#X obj 184 159 s vparam4;
#X obj 213 181 s vparam5;
#X obj 255 206 s vparam6;
#X obj 283 230 s vparam7;
#X obj 304 155 s vparam8;
#X connect 0 0 3 0;
#X connect 0 1 6 0;
#X connect 0 2 7 0;
#X connect 0 3 8 0;
#X connect 0 4 9 0;
#X connect 0 5 10 0;
#X connect 0 6 11 0;
#X connect 0 7 12 0;
#X connect 0 8 13 0;
#X connect 1 0 0 0;
#X connect 2 0 5 0;
#X connect 4 0 3 0;
#X connect 4 0 6 0;
#X connect 4 0 7 0;
#X connect 4 0 8 0;
#X connect 4 0 9 0;
#X connect 4 0 10 0;
#X connect 4 0 11 0;
#X connect 4 0 12 0;
#X connect 4 0 13 0;
#X connect 5 0 4 0;
#X restore 180 380 pd default;
#X text 487 440 FreeFrame host for Pure Data Packet version 0.3;
#X text 489 455 by Lluis Gomez i Bigorda (lluis@artefacte.org);
#X text 508 468 & Yves Degoyon (ydegoyon@free.fr);
#X text 489 483 using GPL code from http://freeframe.sf.net;
#X text 489 498 and Pete Warden http://petewarden.com;
#X obj 164 410 print type;
#X obj 43 159 inlet;
#X obj 43 481 outlet;
#X connect 0 0 48 0;
#X connect 0 1 11 0;
#X connect 0 2 13 0;
#X connect 0 3 30 0;
#X connect 0 4 46 0;
#X connect 0 5 40 0;
#X connect 1 0 0 1;
#X connect 2 0 1 0;
#X connect 3 0 6 0;
#X connect 4 0 7 0;
#X connect 5 0 8 0;
#X connect 6 0 0 0;
#X connect 7 0 0 0;
#X connect 8 0 0 0;
#X connect 13 0 30 1;
#X connect 13 0 40 1;
#X connect 18 0 24 0;
#X connect 19 0 25 0;
#X connect 20 0 26 0;
#X connect 21 0 27 0;
#X connect 22 0 28 0;
#X connect 23 0 29 0;
#X connect 24 0 0 0;
#X connect 25 0 0 0;
#X connect 26 0 0 0;
#X connect 27 0 0 0;
#X connect 28 0 0 0;
#X connect 29 0 0 0;
#X connect 47 0 0 0;
