#N canvas 668 179 729 447 10;
#X obj 23 120 bng 15 250 50 0 /amp empty empty 0 -6 0 8 -262144 -1
-1;
#X obj 94 169 sendOSC;
#X obj 110 129 bng 15 250 50 0 empty empty empty 0 -6 0 8 -262144 -1
-1;
#X msg 110 149 connect localhost 10011;
#X obj 111 103 loadbang;
#X obj 40 32 inlet;
#X msg 40 58 send /amp \$1;
#X connect 2 0 3 0;
#X connect 3 0 1 0;
#X connect 4 0 2 0;
#X connect 5 0 6 0;
#X connect 6 0 0 0;
#X connect 6 0 1 0;
