#N canvas 648 105 357 205 10;
#X obj 18 158 pix_write;
#X obj 18 84 gemhead 99;
#X msg 39 126 file \$1;
#X msg 92 86 auto 1;
#X obj 122 150 bng 15 250 50 0 empty empty empty 0 -6 0 8 -262144 -1
-1;
#X msg 175 62 auto 0;
#X text 11 1 captures rendering output;
#X obj 38 20 r rec;
#X obj 76 21 bng 15 250 50 0 empty empty empty 0 -6 0 8 -262144 -1
-1;
#X obj 100 128 bng 15 250 50 0 empty empty empty 0 -6 0 8 -262144 -1
-1;
#X obj 60 58 t b b b b;
#X msg 113 109 file f:/media/test/testGem 30;
#X connect 1 0 0 0;
#X connect 2 0 0 0;
#X connect 3 0 0 0;
#X connect 4 0 0 0;
#X connect 5 0 0 0;
#X connect 7 0 8 0;
#X connect 8 0 10 0;
#X connect 10 0 4 0;
#X connect 10 1 1 0;
#X connect 10 2 3 0;
#X connect 10 3 11 0;
#X connect 11 0 0 0;
