#N canvas 41 102 452 343 10;
#X obj -75 97 cnv 15 400 200 empty empty empty 20 12 0 14 -233017 -66577
0;
#X msg 267 200 print;
#X msg 181 201 start;
#X msg 226 198 stop;
#X text 78 321 writesf~ -- write audio signals to a soundfile;
#X text 89 280 creation argument is number of channels;
#X text 93 272 (1 to 64).;
#X obj 16 300 writesf~ 2;
#X text 118 299 makes 24-bit soundfile;
#X obj -26 164 *~ 1;
#X obj 30 143 hsl 128 15 0 127 0 0 empty empty empty -2 -6 0 8 -262144
-1 -1 7000 1;
#X obj -9 142 / 127;
#X obj 168 78 loadbang;
#X msg 168 144 70;
#X msg 190 168 0;
#X obj -26 105 inlet~;
#X obj 207 43 bng 15 250 50 0 empty empty empty 0 -6 0 8 -262144 -1
-1;
#X obj 97 82 bng 15 250 50 0 empty empty empty 0 -6 0 8 -262144 -1
-1;
#X text 91 24 start;
#X text 231 42 stop;
#X obj 98 45 t b b;
#X obj 25 105 inlet~;
#X obj 24 169 *~ 1;
#X obj 100 4 inlet;
#X obj 199 7 inlet;
#X obj 248 8 inlet;
#X obj 76 182 symbol;
#X msg 181 102 /windows/d/out.wav;
#X obj -33 263 print;
#X msg -21 208 open \$1;
#X connect 1 0 7 0;
#X connect 2 0 7 0;
#X connect 3 0 7 0;
#X connect 9 0 7 0;
#X connect 10 0 11 0;
#X connect 11 0 9 1;
#X connect 11 0 22 1;
#X connect 12 0 13 0;
#X connect 12 0 14 0;
#X connect 12 0 27 0;
#X connect 13 0 10 0;
#X connect 15 0 9 0;
#X connect 16 0 3 0;
#X connect 17 0 2 0;
#X connect 20 0 17 0;
#X connect 20 1 26 0;
#X connect 21 0 22 0;
#X connect 22 0 7 1;
#X connect 23 0 20 0;
#X connect 24 0 16 0;
#X connect 25 0 26 0;
#X connect 26 0 29 0;
#X connect 27 0 26 0;
#X connect 29 0 7 0;
#X connect 29 0 28 0;
