#N canvas 148 215 1044 895 10;
#X obj 14 10 cnv 15 200 250 empty empty empty 20 12 0 14 -233017 -66577
0;
#X msg 23 52 800 600 0 0;
#X msg 26 98 320 240 0 0;
#X msg 99 51 800 600 1440 -1;
#X msg 24 74 1024 768 0 0;
#X msg 108 71 1024 768 1440 -1;
#X msg 22 143 offset \$3 \$4;
#X msg 105 143 dimen \$1 \$2;
#X obj 38 164 t b b;
#X msg 81 210 destroy;
#X obj 142 189 tgl 15 0 empty empty empty 0 -6 0 8 -262144 -1 -1 0
1;
#X text 156 187 render;
#X msg 85 191 0;
#X msg 34 191 1;
#X obj 136 210 gemwin 20;
#X msg 21 32 640 480 0 0;
#X msg 107 95 400 300 0 0;
#X msg 16 121 1440 900 0 -1;
#X text 38 11 open window;
#X msg 121 163 lighting \$1;
#X obj 100 163 tgl 15 0 empty empty empty 0 -6 0 8 -262144 -1 -1 0
1;
#X text 193 108 fullscreen;
#X msg 112 117 800 600 -1 -1;
#X obj 288 86 gemhead;
#X obj 284 343 rectangle 3 2;
#X obj 286 173 pix_texture;
#X obj 18 303 world_light;
#X obj 18 272 gemhead;
#X obj 518 90 gemhead;
#X obj 518 352 rectangle 3 2;
#X obj 520 182 pix_texture;
#X obj 279 416 gemhead;
#X obj 273 663 rectangle 3 2;
#X obj 275 493 pix_texture;
#X obj 500 411 gemhead;
#X obj 497 661 rectangle 3 2;
#X obj 499 491 pix_texture;
#X obj 287 47 OSCroute /v1;
#X obj 519 378 OSCroute /v4;
#X obj 298 378 OSCroute /v3;
#X obj 525 52 OSCroute /v2;
#X obj 56 402 mblur;
#X obj 300 15 bng 15 250 50 0 empty empty empty 17 7 0 10 -262144 -1
-1;
#X obj 55 377 tgl 15 0 empty empty empty 17 7 0 10 -262144 -1 -1 1
1;
#X obj 55 341 loadbang;
#X msg 55 359 1;
#X obj 286 110 singleFilm;
#X msg 183 141 fullscreen 1;
#X obj 232 12 t b b;
#X msg 197 164 border 0;
#X msg 98 31 1024 768 1920 -1;
#X msg 194 121 fullscreen 0;
#X msg 25 233 create :0.0;
#X msg 207 186 border 1;
#X floatatom 374 337 5 0 0 0 - - -;
#X obj 158 338 OSCroute /mb;
#X obj 381 5 dumpOSC 10001;
#X msg 213 78 offset 1900 1200;
#X obj 517 116 singleFilm;
#X obj 500 435 singleFilm;
#X obj 276 436 singleFilm;
#X msg 660 266 wid \$1;
#X floatatom 745 271 5 0 0 0 - - -;
#X obj 671 143 waver;
#X obj 520 210 vid_pos;
#X msg 856 265 wid \$1;
#X obj 867 142 waver;
#X obj 286 201 vid_pos;
#X obj 275 521 vid_pos;
#X obj 499 517 vid_pos;
#X symbolatom 592 82 80 0 0 0 - - -;
#X symbolatom 590 21 80 0 0 0 - - -;
#X msg 126 286 1024 768;
#X msg 227 54 dimen 1024 768;
#X connect 1 0 6 0;
#X connect 1 0 7 0;
#X connect 1 0 8 0;
#X connect 2 0 6 0;
#X connect 2 0 7 0;
#X connect 2 0 8 0;
#X connect 3 0 6 0;
#X connect 3 0 7 0;
#X connect 3 0 8 0;
#X connect 4 0 6 0;
#X connect 4 0 7 0;
#X connect 4 0 8 0;
#X connect 5 0 7 0;
#X connect 5 0 6 0;
#X connect 5 0 8 0;
#X connect 6 0 14 0;
#X connect 7 0 14 0;
#X connect 7 0 41 1;
#X connect 8 0 52 0;
#X connect 8 0 13 0;
#X connect 8 1 9 0;
#X connect 8 1 12 0;
#X connect 9 0 14 0;
#X connect 10 0 14 0;
#X connect 12 0 10 0;
#X connect 12 0 20 0;
#X connect 13 0 10 0;
#X connect 13 0 20 0;
#X connect 15 0 6 0;
#X connect 15 0 7 0;
#X connect 15 0 8 0;
#X connect 16 0 6 0;
#X connect 16 0 7 0;
#X connect 16 0 8 0;
#X connect 17 0 7 0;
#X connect 17 0 6 0;
#X connect 17 0 8 0;
#X connect 19 0 14 0;
#X connect 20 0 19 0;
#X connect 22 0 7 0;
#X connect 22 0 8 0;
#X connect 23 0 46 0;
#X connect 25 0 67 0;
#X connect 27 0 26 0;
#X connect 28 0 58 0;
#X connect 30 0 64 0;
#X connect 31 0 60 0;
#X connect 33 0 68 0;
#X connect 34 0 59 0;
#X connect 36 0 69 0;
#X connect 37 0 46 1;
#X connect 37 0 67 1;
#X connect 38 0 59 1;
#X connect 38 0 69 1;
#X connect 39 0 60 1;
#X connect 39 0 68 1;
#X connect 40 0 64 1;
#X connect 40 0 58 1;
#X connect 43 0 41 0;
#X connect 44 0 45 0;
#X connect 45 0 43 0;
#X connect 46 0 25 0;
#X connect 46 1 71 0;
#X connect 47 0 14 0;
#X connect 48 0 4 0;
#X connect 48 1 49 0;
#X connect 49 0 14 0;
#X connect 50 0 8 0;
#X connect 51 0 14 0;
#X connect 52 0 14 0;
#X connect 53 0 14 0;
#X connect 55 0 41 2;
#X connect 56 0 37 0;
#X connect 56 0 40 0;
#X connect 56 0 39 0;
#X connect 56 0 38 0;
#X connect 56 0 42 0;
#X connect 56 0 55 0;
#X connect 57 0 14 0;
#X connect 58 0 30 0;
#X connect 58 1 70 0;
#X connect 59 0 36 0;
#X connect 60 0 33 0;
#X connect 61 0 67 3;
#X connect 63 0 61 0;
#X connect 64 0 29 0;
#X connect 64 1 29 1;
#X connect 64 2 29 2;
#X connect 65 0 64 3;
#X connect 66 0 65 0;
#X connect 67 0 24 0;
#X connect 67 1 24 1;
#X connect 67 2 24 2;
#X connect 67 2 54 0;
#X connect 68 0 32 0;
#X connect 68 1 32 1;
#X connect 68 2 32 2;
#X connect 69 0 35 0;
#X connect 69 1 35 1;
#X connect 69 2 35 2;
#X connect 72 0 41 1;
#X connect 73 0 14 0;
#X connect 73 0 72 0;
