#N canvas 3 276 629 783 10;
#X obj 120 21 adc~;
#X obj 161 44 env~;
#X obj 119 157 vcf~;
#X obj 149 135 hsl 128 15 1 100 0 0 empty empty empty -2 -8 0 10 -262144
-1 -1 6426 1;
#X obj 136 90 hsl 128 15 40 10000 0 0 empty empty empty -2 -8 0 10
-262144 -1 -1 100 1;
#X floatatom 229 93 5 0 0 0 - - -;
#X floatatom 236 135 5 0 0 0 - - -;
#X obj 117 260 env~;
#X floatatom 117 284 5 0 0 0 - - -;
#X floatatom 117 345 5 0 0 0 - - -;
#X obj 117 323 >= 70;
#X obj 163 303 hsl 128 15 50 110 0 0 empty empty empty -2 -8 0 10 -262144
-1 -1 9525 1;
#X floatatom 252 305 5 0 0 0 - - -;
#X obj 120 181 ../cmp/normalise;
#X obj 353 16 loadbang;
#X msg 242 158 195;
#X msg 168 157 1;
#X msg 159 282 95;
#X msg 203 158 0.7;
#X obj 115 581 bng 15 250 50 0 /bass empty empty 0 -6 0 8 -262144 -1
-1;
#X obj 156 632 sendOSC;
#X obj 172 592 bng 15 250 50 0 empty empty empty 0 -6 0 8 -262144 -1
-1;
#X msg 172 612 connect localhost 10011;
#X obj 173 571 loadbang;
#X obj 117 452 spigot;
#X obj 128 488 bng 15 250 50 0 empty empty empty 17 7 0 10 -262144
-1 -1;
#X obj 117 394 bng 15 250 50 0 empty empty empty 17 7 0 10 -262144
-1 -1;
#X obj 162 433 tgl 15 0 empty empty empty 17 7 0 10 -262144 -1 -1 0
1;
#X msg 151 488 0;
#X msg 162 412 1;
#X obj 162 391 del 100;
#X obj 116 363 route 1;
#X obj 210 365 hsl 128 15 100 3000 0 0 empty empty empty -2 -8 0 10
-262144 -1 -1 376 1;
#X floatatom 299 365 5 0 0 0 - - -;
#X msg 141 548 send /bass;
#X msg 273 89 100;
#X msg 281 134 9;
#X text 311 89 freq;
#X text 316 131 q fact;
#X text 294 305 limit;
#X text 348 364 oneshot release time;
#X obj 133 112 sig~;
#X floatatom 176 66 5 0 0 0 - - -;
#X msg 498 126 \; pd dsp 1;
#X obj 498 92 t b b;
#X obj 499 68 bng 15 250 50 0 empty empty empty 17 7 0 10 -262144 -1
-1;
#X obj 499 44 metro 10000;
#X obj 499 22 tgl 15 0 empty empty empty 17 7 0 10 -262144 -1 -1 1
1;
#X msg 530 163 \; pd dsp 0;
#X msg 207 340 300;
#X connect 0 0 1 0;
#X connect 0 0 2 0;
#X connect 0 1 2 0;
#X connect 0 1 1 0;
#X connect 1 0 42 0;
#X connect 2 0 13 0;
#X connect 3 0 2 2;
#X connect 3 0 6 0;
#X connect 4 0 5 0;
#X connect 4 0 41 0;
#X connect 7 0 8 0;
#X connect 8 0 10 0;
#X connect 9 0 31 0;
#X connect 10 0 9 0;
#X connect 11 0 10 1;
#X connect 11 0 12 0;
#X connect 13 0 7 0;
#X connect 14 0 15 0;
#X connect 14 0 18 0;
#X connect 14 0 16 0;
#X connect 14 0 17 0;
#X connect 14 0 35 0;
#X connect 14 0 36 0;
#X connect 14 0 49 0;
#X connect 15 0 13 4;
#X connect 16 0 13 2;
#X connect 17 0 11 0;
#X connect 18 0 13 3;
#X connect 18 0 13 5;
#X connect 21 0 22 0;
#X connect 22 0 20 0;
#X connect 23 0 21 0;
#X connect 24 0 25 0;
#X connect 25 0 28 0;
#X connect 25 0 30 0;
#X connect 25 0 34 0;
#X connect 26 0 24 0;
#X connect 27 0 24 1;
#X connect 28 0 27 0;
#X connect 29 0 27 0;
#X connect 30 0 29 0;
#X connect 31 0 26 0;
#X connect 32 0 30 1;
#X connect 32 0 33 0;
#X connect 34 0 19 0;
#X connect 34 0 20 0;
#X connect 35 0 4 0;
#X connect 36 0 3 0;
#X connect 41 0 2 1;
#X connect 44 0 43 0;
#X connect 44 1 48 0;
#X connect 45 0 44 0;
#X connect 46 0 45 0;
#X connect 47 0 46 0;
#X connect 49 0 32 0;
