#N canvas 694 336 597 480 10;
#X obj 25 145 pix_snap2tex;
#X obj 70 98 t b b;
#X obj 25 105 t b a;
#X obj 25 169 alpha;
#X obj 22 235 colorRGB 1 1 1 0.888;
#X obj 70 79 loadbang;
#X obj 242 55 hsl 128 15 0 1 0 0 empty empty empty -2 -6 0 8 -262144
-1 -1 12700 1;
#X obj 247 72 hsl 128 15 0 1 0 0 empty empty empty -2 -6 0 8 -262144
-1 -1 12700 1;
#X obj 244 92 hsl 128 15 0 1 0 0 empty empty empty -2 -6 0 8 -262144
-1 -1 12700 1;
#X obj 116 2 gemmouse;
#X obj 111 50 pack f f;
#X obj 162 28 * 1;
#X obj 112 28 * 1;
#X msg 131 97 640 480;
#X obj 27 35 tgl 15 0 empty empty empty 0 -6 0 8 -262144 -1 -1 1 1
;
#X msg 70 121 0 0;
#X obj 24 12 inlet;
#X obj 242 -8 hsl 128 15 0 10 0 0 empty empty empty -2 -6 0 8 -262144
-1 -1 6699 1;
#X obj 422 109 OSCroute /r;
#X obj 424 131 OSCroute /g;
#X obj 424 154 OSCroute /b;
#X obj 465 -41 inlet;
#X obj 424 33 OSCroute /alpha;
#X obj 423 11 OSCroute /on;
#X obj 424 78 OSCroute /rot;
#X obj 23 260 rotateXYZ;
#X obj 243 34 hsl 128 15 -180 180 0 0 empty empty empty -2 -6 0 8 -262144
-1 -1 0 1;
#X obj 73 11 inlet;
#X msg 132 121 \$1 \$2;
#X obj 26 56 gemhead 100;
#X msg 272 12 90;
#X msg 242 10 0;
#X msg 301 13 180;
#X floatatom 329 13 5 0 0 0 - - -;
#X obj 241 -31 hsl 128 15 0 1 0 0 empty empty empty -2 -8 0 10 -262144
-1 -1 11700 1;
#X floatatom 330 -31 5 0 0 0 - - -;
#X floatatom 333 -8 5 0 0 0 - - -;
#X text 321 55 r;
#X text 321 70 g;
#X text 323 90 b;
#X obj 249 11 bng 15 250 50 0 empty empty empty 17 7 0 10 -262144 -1
-1;
#X obj 278 11 bng 15 250 50 0 empty empty empty 17 7 0 10 -262144 -1
-1;
#X obj 309 14 bng 15 250 50 0 empty empty empty 17 7 0 10 -262144 -1
-1;
#X text 250 -31 alpha;
#X text 251 -8 size;
#X text 249 33 rotation;
#X obj 423 53 OSCroute /size;
#X floatatom 339 56 5 0 0 0 - - -;
#X floatatom 339 34 5 0 0 0 - - -;
#X obj 23 317 rectangle 4 3;
#X obj 167 274 / 1.3;
#X connect 0 0 3 0;
#X connect 1 0 15 0;
#X connect 1 1 13 0;
#X connect 2 0 0 0;
#X connect 2 1 0 0;
#X connect 3 0 4 0;
#X connect 4 0 25 0;
#X connect 5 0 1 0;
#X connect 6 0 4 1;
#X connect 6 0 47 0;
#X connect 7 0 4 2;
#X connect 8 0 4 3;
#X connect 9 0 12 0;
#X connect 9 1 11 0;
#X connect 10 0 15 0;
#X connect 11 0 10 1;
#X connect 12 0 10 0;
#X connect 13 0 28 0;
#X connect 14 0 29 0;
#X connect 15 0 0 1;
#X connect 16 0 14 0;
#X connect 17 0 36 0;
#X connect 17 0 49 1;
#X connect 17 0 50 0;
#X connect 18 0 6 0;
#X connect 19 0 7 0;
#X connect 20 0 8 0;
#X connect 21 0 23 0;
#X connect 21 0 22 0;
#X connect 21 0 18 0;
#X connect 21 0 19 0;
#X connect 21 0 20 0;
#X connect 21 0 24 0;
#X connect 21 0 46 0;
#X connect 22 0 34 0;
#X connect 23 0 14 0;
#X connect 24 0 33 0;
#X connect 25 0 49 0;
#X connect 26 0 33 0;
#X connect 26 0 48 0;
#X connect 27 0 28 0;
#X connect 28 0 0 2;
#X connect 29 0 2 0;
#X connect 30 0 26 0;
#X connect 31 0 26 0;
#X connect 32 0 26 0;
#X connect 33 0 25 3;
#X connect 34 0 35 0;
#X connect 35 0 4 4;
#X connect 40 0 31 0;
#X connect 41 0 30 0;
#X connect 42 0 32 0;
#X connect 46 0 17 0;
#X connect 50 0 49 2;
#X coords 0 -1 1 1 150 160 1 230 -50;
