#N canvas 384 0 871 525 10;
#X obj 111 233 unpack f f f;
#X obj 138 181 loadbang;
#X msg 138 203 -100 -100;
#X obj 111 153 inlet;
#X text 110 132 prvu~ list;
#X obj 111 328 s \$0_rms_cooked;
#X obj 150 261 s \$0_peak;
#N canvas 0 0 466 515 scaling 0;
#X obj 186 53 inlet;
#X obj 186 364 outlet;
#X msg 186 110 100 \$1;
#X obj 186 82 * -1;
#X obj 186 139 -;
#X obj 186 173 / 100;
#X obj 186 236 *;
#X obj 186 203 t f f;
#X obj 186 270 * 2;
#X obj 186 330 line;
#X msg 186 298 \$1 100;
#X connect 0 0 3 0;
#X connect 2 0 4 0;
#X connect 3 0 2 0;
#X connect 4 0 5 0;
#X connect 5 0 7 0;
#X connect 6 0 8 0;
#X connect 7 0 6 0;
#X connect 7 1 6 1;
#X connect 8 0 10 0;
#X connect 9 0 1 0;
#X connect 10 0 9 0;
#X restore 111 298 pd scaling;
#X obj 276 401 scaleXYZ 1 1 0;
#X obj 307 250 loadbang;
#X obj 307 374 + 1;
#X obj 349 374 + 1;
#X obj 403 337 sel 0;
#X obj 358 338 sel 0;
#X obj 307 276 t b b b b;
#X obj 573 405 scaleXYZ 1 1 0;
#X obj 604 254 loadbang;
#X obj 604 378 + 1;
#X obj 646 378 + 1;
#X obj 700 340 sel 0;
#X obj 655 342 sel 0;
#X obj 604 280 t b b b b;
#X obj 573 434 s \$0_gemhead2;
#N canvas 611 204 547 507 bars_from_gemhead2 0;
#X obj 39 128 colorRGB 1 0 0;
#X obj 151 105 min 2.4;
#X obj 151 75 r \$0_rms_cooked;
#X obj 39 162 translateXYZ 0 0 0;
#X obj 39 198 rectangle 0.1 1;
#X text 155 202 red bar;
#X obj 121 359 - 2;
#X obj 41 329 colorRGB 0 0.9 0;
#X obj 163 330 min 1.545;
#X obj 41 428 rectangle 0.1 2;
#X obj 163 305 r \$0_rms_cooked;
#X obj 41 303 separator;
#X obj 41 392 translateXYZ 0 0 0;
#N canvas 13 261 567 539 color 0;
#X obj 47 48 inlet;
#X obj 121 383 outlet;
#X obj 136 223 change;
#X msg 215 311 0 0.9 0;
#X msg 213 335 1 0.7 0;
#X msg 213 360 1 0 0;
#X msg 136 175 1;
#X msg 208 176 2;
#X msg 252 175 3;
#X obj 208 152 moses 2.04;
#X obj 136 125 moses 1.105;
#X msg 47 172 0;
#X obj 136 248 sel 0 1 2 3;
#X msg 216 283 0 0 0;
#X obj 47 101 moses -1.99;
#X connect 0 0 14 0;
#X connect 2 0 12 0;
#X connect 3 0 1 0;
#X connect 4 0 1 0;
#X connect 5 0 1 0;
#X connect 6 0 2 0;
#X connect 7 0 2 0;
#X connect 8 0 2 0;
#X connect 9 0 7 0;
#X connect 9 1 8 0;
#X connect 10 0 6 0;
#X connect 10 1 9 0;
#X connect 11 0 2 0;
#X connect 12 0 13 0;
#X connect 12 1 3 0;
#X connect 12 2 4 0;
#X connect 12 3 5 0;
#X connect 13 0 1 0;
#X connect 14 0 11 0;
#X connect 14 1 10 0;
#X restore 446 354 pd color;
#X obj 295 393 color 0 0 0;
#X obj 295 428 rectangle 0.12 0.025;
#N canvas 0 0 435 473 scaling 0;
#X obj 120 32 inlet;
#X obj 120 441 outlet;
#X obj 120 116 * -1;
#X msg 120 142 100 \$1;
#X obj 120 171 -;
#X obj 120 199 / 100;
#X obj 120 252 t f f;
#X obj 120 277 *;
#X obj 120 225 * 2;
#X obj 120 303 - 2;
#X obj 120 366 line;
#X msg 120 334 \$1 50;
#X connect 0 0 2 0;
#X connect 2 0 3 0;
#X connect 3 0 4 0;
#X connect 4 0 5 0;
#X connect 5 0 8 0;
#X connect 6 0 7 0;
#X connect 6 1 7 1;
#X connect 7 0 9 0;
#X connect 8 0 6 0;
#X connect 9 0 11 0;
#X connect 10 0 1 0;
#X connect 11 0 10 0;
#X restore 446 271 pd scaling;
#X obj 446 239 r \$0_peak;
#X text 445 428 peak;
#X obj 295 306 separator;
#X text 156 427 green bar;
#X obj 380 317 min 2.8;
#X obj 295 352 translateXYZ 0 0 0;
#X obj 285 92 colorRGB 1 0.7 0;
#X obj 408 67 min 2;
#X obj 285 191 rectangle 0.1 0;
#X obj 408 31 r \$0_rms_cooked;
#X obj 285 65 separator;
#X text 402 193 orange bar;
#X obj 384 127 - 0.45;
#X obj 453 154 - 1.54;
#X obj 285 155 translateXYZ 0 1.54 0;
#X obj 408 92 max 1.54;
#X obj 151 128 max 2.01;
#X obj 187 162 - 2.01;
#X obj 39 70 r \$0_gemhead2;
#X obj 285 40 r \$0_gemhead2;
#X obj 295 280 r \$0_gemhead2;
#X obj 41 280 r \$0_gemhead2;
#X obj 39 97 separator;
#X connect 0 0 3 0;
#X connect 1 0 33 0;
#X connect 2 0 1 0;
#X connect 3 0 4 0;
#X connect 6 0 12 2;
#X connect 7 0 12 0;
#X connect 8 0 6 0;
#X connect 8 0 9 2;
#X connect 10 0 8 0;
#X connect 11 0 7 0;
#X connect 12 0 9 0;
#X connect 13 0 14 1;
#X connect 14 0 15 0;
#X connect 16 0 13 0;
#X connect 16 0 21 0;
#X connect 17 0 16 0;
#X connect 19 0 22 0;
#X connect 21 0 22 2;
#X connect 22 0 14 0;
#X connect 23 0 31 0;
#X connect 24 0 32 0;
#X connect 26 0 24 0;
#X connect 27 0 23 0;
#X connect 29 0 31 2;
#X connect 30 0 25 2;
#X connect 31 0 25 0;
#X connect 32 0 29 0;
#X connect 32 0 30 0;
#X connect 33 0 3 2;
#X connect 33 0 34 0;
#X connect 34 0 4 2;
#X connect 35 0 39 0;
#X connect 36 0 27 0;
#X connect 37 0 19 0;
#X connect 38 0 11 0;
#X connect 39 0 0 0;
#X restore 573 478 pd bars_from_gemhead2;
#X obj 276 426 s \$0_gemhead1;
#N canvas 611 64 352 647 frames_and_numbers_from_gemhead1 0;
#N canvas 0 0 345 473 numeric 0;
#X obj 147 342 text2d;
#X msg 129 298 text \$1;
#X obj 188 228 loadbang;
#X obj 58 133 i;
#X obj 96 161 i;
#X obj 58 225 +;
#X obj 96 189 * 0.1;
#X obj 96 133 mod 10;
#X msg 188 296 13;
#X obj 58 70 r \$0_peak;
#X obj 58 102 t f f;
#X text 146 63 numeric;
#X obj 188 273 sel 0;
#X obj 58 251 moses -90;
#X msg 58 299 text -inf;
#X obj 58 276 t b;
#X obj 147 85 inlet;
#X obj 147 375 outlet;
#X obj 188 250 f \$6;
#X obj 147 132 translateXYZ 0 -5.1 0;
#X obj 172 194 r \$0_fontpath;
#X connect 0 0 17 0;
#X connect 1 0 0 0;
#X connect 2 0 18 0;
#X connect 3 0 5 0;
#X connect 4 0 6 0;
#X connect 5 0 13 0;
#X connect 6 0 5 1;
#X connect 7 0 4 0;
#X connect 8 0 0 1;
#X connect 9 0 10 0;
#X connect 10 0 3 0;
#X connect 10 1 7 0;
#X connect 12 0 8 0;
#X connect 12 1 0 1;
#X connect 13 0 15 0;
#X connect 13 1 1 0;
#X connect 14 0 0 0;
#X connect 15 0 14 0;
#X connect 16 0 19 0;
#X connect 18 0 12 0;
#X connect 19 0 0 0;
#X connect 20 0 0 0;
#X restore 46 556 pd numeric;
#X obj 57 136 loadbang;
#X text 187 187 white frame;
#X text 188 407 background;
#X text 188 393 orange;
#X text 194 289 background;
#X text 193 274 red;
#X text 194 507 background;
#X text 194 492 green;
#X text 111 534 track nr;
#X text 126 557 numeric;
#X obj 46 78 r \$0_gemhead1;
#X obj 46 186 rectangle 0.16 2.47;
#N canvas 591 114 414 578 label 0;
#X obj 78 423 text2d;
#X text 77 38 track nr;
#X obj 78 57 inlet;
#X obj 78 462 outlet;
#X obj 78 118 color 1 1 1;
#X obj 256 303 loadbang;
#X msg 256 376 13;
#X obj 256 348 sel 0;
#X obj 256 325 f \$6;
#X msg 102 220 justify center bottom;
#X obj 102 198 loadbang;
#X obj 90 159 r \$0_fontpath;
#X obj 78 82 translateXYZ 0 3.4 0;
#X obj 114 281 loadbang;
#X msg 159 359 text \$1;
#X obj 114 306 list append \$5;
#X obj 114 329 sel 0;
#X msg 114 359 text;
#X connect 0 0 3 0;
#X connect 2 0 12 0;
#X connect 4 0 0 0;
#X connect 5 0 8 0;
#X connect 6 0 0 1;
#X connect 7 0 6 0;
#X connect 7 1 0 1;
#X connect 8 0 7 0;
#X connect 9 0 0 0;
#X connect 10 0 9 0;
#X connect 11 0 0 0;
#X connect 12 0 4 0;
#X connect 13 0 15 0;
#X connect 14 0 0 0;
#X connect 15 0 16 0;
#X connect 16 0 17 0;
#X connect 16 1 14 0;
#X connect 17 0 0 0;
#X restore 46 533 pd label;
#X obj 46 235 translateXYZ 0 2 0;
#X obj 46 346 translateXYZ 0 -0.87 0;
#X obj 46 448 translateXYZ 0 -2 0;
#X msg 57 159 draw line;
#X obj 46 261 color 0.35 0 0;
#X obj 46 374 color 0.3 0.23 0;
#X obj 46 474 color 0 0.25 0;
#X obj 46 287 rectangle 0.14 0.42;
#X obj 46 403 rectangle 0.14 0.46;
#X obj 46 502 rectangle 0.14 1.545;
#X obj 46 109 translateXYZ 0 0.42 -0.01;
#X connect 1 0 17 0;
#X connect 11 0 24 0;
#X connect 12 0 14 0;
#X connect 13 0 0 0;
#X connect 14 0 18 0;
#X connect 15 0 19 0;
#X connect 16 0 20 0;
#X connect 17 0 12 0;
#X connect 18 0 21 0;
#X connect 19 0 22 0;
#X connect 20 0 23 0;
#X connect 21 0 15 0;
#X connect 22 0 16 0;
#X connect 23 0 13 0;
#X connect 24 0 12 0;
#X restore 276 479 pd frames_and_numbers_from_gemhead1;
#X text 4 11 gem_vu: modelled after pd's own [vu] object.;
#X obj 483 85 s \$0_fontpath;
#X text 479 15 edit this and save patch to point to your font!;
#X obj 483 34 loadbang;
#X obj 276 191 gemhead;
#X obj 574 185 gemhead;
#X msg 483 59 font /usr/share/fonts/truetype/msttcorefonts/arial.ttf
;
#X obj 276 218 translateXYZ \$1 \$2 0;
#X obj 358 312 f \$3;
#X obj 403 312 f \$4;
#X obj 655 316 f \$3;
#X obj 700 315 f \$4;
#X text 4 28 args: x-pos \, y-pos \, x-size \, y-size \, label \, fontsize
;
#X obj 574 220 translateXYZ \$1 \$2 0;
#X text 16 498 Version: 1.April 2007;
#X text 17 481 Peter Plessas;
#X connect 0 0 7 0;
#X connect 0 1 6 0;
#X connect 1 0 2 0;
#X connect 2 0 0 0;
#X connect 3 0 0 0;
#X connect 7 0 5 0;
#X connect 8 0 24 0;
#X connect 9 0 14 0;
#X connect 10 0 8 1;
#X connect 11 0 8 2;
#X connect 12 1 11 1;
#X connect 13 1 10 1;
#X connect 14 0 10 0;
#X connect 14 1 11 0;
#X connect 14 2 34 0;
#X connect 14 3 35 0;
#X connect 15 0 22 0;
#X connect 16 0 21 0;
#X connect 17 0 15 1;
#X connect 18 0 15 2;
#X connect 19 1 18 1;
#X connect 20 1 17 1;
#X connect 21 0 17 0;
#X connect 21 1 18 0;
#X connect 21 2 36 0;
#X connect 21 3 37 0;
#X connect 29 0 32 0;
#X connect 30 0 33 0;
#X connect 31 0 39 0;
#X connect 32 0 27 0;
#X connect 33 0 8 0;
#X connect 34 0 13 0;
#X connect 35 0 12 0;
#X connect 36 0 20 0;
#X connect 37 0 19 0;
#X connect 39 0 15 0;
