#N canvas 0 22 458 308 10;
#X obj 117 100 unpack s s s;
#X symbolatom 73 137 10 0 0 0 - - -;
#X symbolatom 242 138 10 0 0 0 - - -;
#X symbolatom 156 136 10 0 0 0 - - -;
#X symbolatom 280 188 10 0 0 0 - - -;
#X msg 117 17 h u p;
#X obj 136 172 pack s s s;
#X msg 136 236 set \$1;
#X msg 135 266 h$2$3;
#X msg 135 206 symbol \$1$2$3;
#X obj 116 -3 bng 15 250 50 0 empty empty empty 0 -6 0 8 -262144 -1
-1;
#X connect 0 0 1 0;
#X connect 0 1 3 0;
#X connect 0 2 2 0;
#X connect 1 0 6 0;
#X connect 2 0 6 2;
#X connect 3 0 6 1;
#X connect 5 0 0 0;
#X connect 6 0 4 0;
#X connect 6 0 9 0;
#X connect 7 0 8 0;
#X connect 9 0 7 0;
#X connect 10 0 5 0;
