#N canvas 0 22 458 308 10;
#X msg 58 30 bang;
#X msg 61 51 vis 1;
#X obj 66 77 s pd-mysubpatchname;
#N canvas 483 22 486 336 mysubpatchname 0;
#X text 106 103 hello;
#X restore 274 50 pd mysubpatchname;
#X msg 59 126 \; pd-mysubpatchname vis 1;
#X msg 78 204 \; pd-mysubpatchname vis \$1;
#X obj 77 183 tgl 15 0 empty empty empty 0 -6 0 8 -262144 -1 -1 1 1
;
#X connect 0 0 1 0;
#X connect 1 0 2 0;
#X connect 6 0 5 0;

