#N canvas 555 34 627 368 10;
#X msg 140 134 bang;
#X obj 56 64 tgl 15 0 empty empty empty 17 7 0 10 -262144 -1 -1 0 1
;
#X floatatom 130 82 5 0 0 0 - - -;
#N canvas 238 22 899 773 create-slowly 0;
#X obj 285 41 inlet file;
#X obj 106 43 inlet trigger;
#X msg 552 88 \; pd-c1 clear;
#X obj 304 131 textfile;
#X msg 487 93 print;
#X obj 482 679 s;
#X obj 108 431 f 1;
#X obj 80 431 + 1;
#X msg 108 391 symbol \$5;
#X msg 138 471 symbol \$1-counter;
#X obj 138 431 makefilename 1-%s;
#X msg 138 451 set symbol \, adddollsym \$1;
#X obj 138 491 t a a;
#X obj 168 551 list append;
#X obj 168 571 list trim;
#X obj 305 192 spigot;
#X msg 342 172 0;
#X msg 285 162 1;
#X msg 635 497 symbol pd-c1;
#X obj 168 511 list prepend;
#X msg 168 531 obj \$1 \$2 pd \$3;
#X obj 138 621 makefilename pd-%s;
#X msg 364 292 bang;
#X msg 635 517 set \$1;
#X obj 339 451 list split 2;
#X obj 378 471 list split 2;
#X msg 304 91 rewind \, bang;
#X obj 285 61 t b b a b;
#X msg 406 91 clear;
#X obj 339 411 f;
#X obj 612 319 f 1;
#X obj 646 319 + 1;
#X obj 305 242 t a b;
#X msg 628 299 1;
#X obj 305 212 route #N #X #A;
#X obj 583 196 list split 1;
#X obj 567 216 s;
#X msg 138 645 \; \$1 vis 0;
#X obj 720 177 outlet done;
#N canvas 828 130 322 328 list-digest 0;
#X obj 39 95 list append;
#X obj 39 145 list split 1;
#X obj 221 139 t a;
#X obj 138 55 route set;
#X obj 138 75 t a b;
#X obj 154 177 list append;
#X obj 39 75 t b;
#X obj 34 204 list split 1;
#X obj 138 35 inlet eat;
#X obj 39 35 inlet digest;
#X obj 34 224 outlet output;
#X connect 0 0 1 0;
#X connect 1 1 5 1;
#X connect 1 1 0 1;
#X connect 1 1 7 0;
#X connect 2 0 5 1;
#X connect 3 0 4 0;
#X connect 3 1 5 0;
#X connect 4 0 5 0;
#X connect 4 1 5 1;
#X connect 5 0 0 1;
#X connect 5 0 2 0;
#X connect 6 0 0 0;
#X connect 7 0 10 0;
#X connect 8 0 3 0;
#X connect 9 0 6 0;
#X restore 542 537 pd list-digest;
#X obj 567 176 t a b;
#X obj 108 371 t a b;
#X text 716 319 line number;
#X obj 305 262 route canvas restore array;
#X obj 135 146 list prepend set;
#X obj 135 166 list trim;
#X obj 135 187 cnv 15 100 15 empty empty empty 20 12 0 14 -261249 -66577
0;
#X msg 135 186 pd-c1;
#X obj 498 659 t a;
#N canvas 431 66 539 469 find-end-of-a-subpatch-(restore) 0;
#X obj 230 205 list split 1;
#X obj 269 225 list trim;
#X obj 269 245 route restore canvas;
#X obj 269 375 list trim;
#X obj 269 395 route 1;
#X obj 269 355 list prepend 1;
#N canvas 0 22 470 320 f 0;
#X obj 23 22 inlet;
#X obj 93 52 inlet;
#X obj 23 82 f;
#X obj 23 52 t b f;
#X obj 23 112 +;
#X obj 23 142 outlet;
#X connect 0 0 3 0;
#X connect 1 0 2 1;
#X connect 2 0 4 0;
#X connect 3 0 2 0;
#X connect 3 1 4 1;
#X connect 4 0 5 0;
#X connect 4 0 2 1;
#X restore 362 315 pd f;
#X msg 336 285 1;
#X msg 299 285 -1;
#X obj 362 335 max 1;
#X obj 269 265 t a b;
#X obj 269 425 outlet;
#X obj 248 114 textfile;
#X obj 230 185 spigot;
#X msg 267 155 0;
#X msg 210 155 1;
#X msg 229 84 rewind \, bang;
#X obj 210 54 t b b a b;
#X msg 331 84 clear;
#X obj 129 124 until;
#X obj 93 76 t b b a b b;
#X obj 93 155 until;
#X obj 121 367 b;
#X msg 392 158 2;
#X obj 20 21 inlet line-number;
#X obj 210 24 inlet read-file;
#X text 87 245 check level of subpatches;
#X text 30 394 find the restore on the same level;
#X text 6 39 start search from line number;
#X text 79 124 scroll;
#X text 41 155 search;
#X text 321 22 read file and reset code;
#X connect 0 1 1 0;
#X connect 1 0 2 0;
#X connect 2 0 10 0;
#X connect 2 1 7 0;
#X connect 3 0 4 0;
#X connect 4 0 11 0;
#X connect 4 0 22 0;
#X connect 5 0 3 0;
#X connect 6 0 9 0;
#X connect 7 0 6 0;
#X connect 8 0 6 0;
#X connect 9 0 5 1;
#X connect 10 0 5 0;
#X connect 10 1 8 0;
#X connect 12 0 13 0;
#X connect 12 1 21 1;
#X connect 13 0 0 0;
#X connect 14 0 13 1;
#X connect 15 0 13 1;
#X connect 16 0 12 0;
#X connect 17 0 15 0;
#X connect 17 1 16 0;
#X connect 17 2 12 0;
#X connect 17 3 14 0;
#X connect 17 3 18 0;
#X connect 18 0 12 0;
#X connect 19 0 12 0;
#X connect 20 0 21 0;
#X connect 20 1 15 0;
#X connect 20 2 19 0;
#X connect 20 3 16 0;
#X connect 20 4 14 0;
#X connect 20 4 23 0;
#X connect 21 0 12 0;
#X connect 22 0 21 1;
#X connect 23 0 6 1;
#X connect 24 0 20 0;
#X connect 25 0 17 0;
#X restore 339 431 pd find-end-of-a-subpatch-(restore);
#X text 84 348 change and create subpatch to id+subpatchname;
#X text 56 433 id;
#X text 511 644 actual subpatch;
#X text 544 556 remember subpatch hirarchie;
#X text 571 161 set array data;
#X text 339 308 goes up one level in subpatch;
#X text 249 550 create subpatch;
#X text 71 605 set send to new subpatchname and close subpatch;
#X text 334 485 get x and y position of subpatch;
#X text 371 131 <- reads a .pd patch;
#X text 107 61 creates objects (bang);
#X text 367 41 read patch-file and reset code [read yourpatch.pd(;
#N canvas 574 33 673 627 string-replace-dollars 0;
#X obj 27 24 inlet;
#X obj 27 536 outlet;
#X obj 526 337 loadbang;
#X obj 208 241 s2l;
#X msg 526 357 symbol;
#X obj 174 181 drip;
#X obj 195 361 list prepend;
#X obj 175 381 list;
#X obj 287 361 t a;
#X obj 247 421 l2s;
#X obj 208 261 list trim;
#X obj 208 281 route $;
#X obj 208 301 list split 1;
#X msg 208 321 1-2;
#X obj 208 341 list append;
#X obj 175 451 list prepend;
#X obj 152 471 list;
#X obj 267 451 t a;
#X obj 152 161 t b a b;
#X obj 415 289 b;
#X obj 174 201 t b a b;
#X obj 293 339 b;
#X obj 27 84 route msg;
#X obj 27 513 list trim;
#X obj 126 556 cnv 15 100 15 empty empty empty 20 12 0 14 -261249 -66577
0;
#X obj 126 535 list prepend set;
#X obj 126 555 list trim;
#X msg 126 575 connect 5 18 6 18;
#X obj 186 97 cnv 15 100 15 empty empty empty 20 12 0 14 -261249 -66577
0;
#X obj 186 76 list prepend set;
#X obj 186 96 list trim;
#X msg 186 116 connect 5 18 6 18;
#X obj 175 401 route float;
#X obj 196 221 route float;
#X obj 27 104 list prepend msg;
#X text 238 322 <-replace with this;
#X text 73 26 find dollar in obj and replace it;
#X connect 0 0 22 0;
#X connect 2 0 4 0;
#X connect 3 0 10 0;
#X connect 4 0 3 1;
#X connect 4 0 9 1;
#X connect 5 0 20 0;
#X connect 6 0 8 0;
#X connect 6 0 7 1;
#X connect 7 0 32 0;
#X connect 8 0 6 1;
#X connect 9 0 15 0;
#X connect 10 0 11 0;
#X connect 11 0 12 0;
#X connect 11 1 6 0;
#X connect 12 0 13 0;
#X connect 12 1 14 1;
#X connect 13 0 14 0;
#X connect 14 0 6 0;
#X connect 15 0 17 0;
#X connect 15 0 16 1;
#X connect 16 0 23 0;
#X connect 17 0 15 1;
#X connect 18 0 16 0;
#X connect 18 1 5 0;
#X connect 18 2 19 0;
#X connect 19 0 15 1;
#X connect 19 0 21 0;
#X connect 20 0 7 0;
#X connect 20 1 33 0;
#X connect 20 2 21 0;
#X connect 21 0 6 1;
#X connect 22 0 34 0;
#X connect 22 1 18 0;
#X connect 23 0 1 0;
#X connect 25 0 26 0;
#X connect 26 0 27 0;
#X connect 29 0 30 0;
#X connect 30 0 31 0;
#X connect 32 0 15 0;
#X connect 32 1 9 0;
#X connect 33 0 6 0;
#X connect 33 1 3 0;
#X connect 34 0 23 0;
#X restore 519 387 pd string-replace-dollars;
#X text 699 388 <- nuuder construction;
#X obj 423 282 list prepend array;
#X text 728 138 finishing;
#X obj 764 237 textfile;
#X obj 17 526 pack s s;
#X obj 108 411 t b a a;
#X msg 764 197 rewind;
#X obj 720 157 t b b b;
#X obj 785 217 until;
#X msg 764 257 \; \$1 rename \$2;
#X text 2 509 remember original names;
#X msg 713 279 print;
#X msg 17 546 add list \$1 \$2;
#X connect 0 0 27 0;
#X connect 1 0 3 0;
#X connect 3 0 15 0;
#X connect 3 1 70 0;
#X connect 4 0 3 0;
#X connect 6 0 7 0;
#X connect 6 0 9 0;
#X connect 7 0 6 1;
#X connect 8 0 68 0;
#X connect 9 0 12 0;
#X connect 10 0 11 0;
#X connect 11 0 9 0;
#X connect 12 0 21 0;
#X connect 12 1 19 0;
#X connect 13 0 14 0;
#X connect 14 0 5 0;
#X connect 15 0 34 0;
#X connect 16 0 15 1;
#X connect 17 0 15 1;
#X connect 18 0 23 0;
#X connect 18 0 48 0;
#X connect 19 0 20 0;
#X connect 20 0 13 0;
#X connect 21 0 37 0;
#X connect 21 0 48 0;
#X connect 21 0 39 1;
#X connect 21 0 67 0;
#X connect 22 0 39 0;
#X connect 23 0 39 1;
#X connect 24 0 19 1;
#X connect 24 1 25 0;
#X connect 25 1 13 1;
#X connect 26 0 3 0;
#X connect 27 0 17 0;
#X connect 27 1 26 0;
#X connect 27 2 3 0;
#X connect 27 2 49 1;
#X connect 27 3 2 0;
#X connect 27 3 16 0;
#X connect 27 3 18 0;
#X connect 27 3 28 0;
#X connect 27 3 33 0;
#X connect 28 0 3 0;
#X connect 28 0 66 0;
#X connect 29 0 49 0;
#X connect 30 0 31 0;
#X connect 30 0 29 1;
#X connect 31 0 30 1;
#X connect 32 0 43 0;
#X connect 32 1 30 0;
#X connect 33 0 30 1;
#X connect 34 0 32 0;
#X connect 34 1 32 0;
#X connect 34 2 40 0;
#X connect 35 0 36 1;
#X connect 39 0 48 0;
#X connect 40 0 36 0;
#X connect 40 1 30 0;
#X connect 41 0 8 0;
#X connect 41 1 29 0;
#X connect 43 0 41 0;
#X connect 43 1 22 0;
#X connect 43 2 35 0;
#X connect 43 2 64 0;
#X connect 43 3 5 0;
#X connect 44 0 45 0;
#X connect 45 0 47 0;
#X connect 48 0 5 1;
#X connect 49 0 24 0;
#X connect 62 0 5 0;
#X connect 64 0 5 0;
#X connect 66 0 72 0;
#X connect 66 1 71 1;
#X connect 67 0 75 0;
#X connect 68 0 6 0;
#X connect 68 1 10 0;
#X connect 68 2 67 1;
#X connect 69 0 66 0;
#X connect 70 0 38 0;
#X connect 70 1 71 0;
#X connect 70 2 69 0;
#X connect 71 0 66 0;
#X connect 74 0 66 0;
#X connect 75 0 66 0;
#X restore 87 178 pd create-slowly;
#X msg 32 142 0;
#X obj 26 270 s~ 1-nothing;
#X obj 80 102 metro 20;
#N canvas 0 22 519 531 c1 1;
#X restore 22 15 pd c1;
#X text 70 15 <- a) open subatch;
#X text 297 97 <- b) reset stuff and load patch;
#X text 78 63 <- c) create the patch slowly;
#X msg 26 225 \; pd-c1 loadbang;
#X msg 136 259 \; pd-c1 clear;
#X msg 300 292 version 0.1.0;
#X msg 252 142 read \$1;
#X obj 254 120 openpanel;
#X msg 252 96 bang;
#X connect 0 0 3 0;
#X connect 1 0 6 0;
#X connect 2 0 6 1;
#X connect 3 0 4 0;
#X connect 4 0 1 0;
#X connect 6 0 3 0;
#X connect 14 0 3 1;
#X connect 15 0 14 0;
#X connect 16 0 15 0;
