#N canvas 0 26 450 300 10;
#X obj 75 126 expr~ ($v1>0)*$f2*$v1+($v1<0)*$f3*$v1;
#X obj 31 60 inlet~;
#X obj 202 77 inlet;
#X obj 329 76 inlet;
#X obj 16 218 outlet~;
#X obj 71 91 osc~;
#X obj 102 49 inlet;
#X obj 26 159 *~;
#X connect 0 0 7 1;
#X connect 1 0 7 0;
#X connect 2 0 0 1;
#X connect 3 0 0 2;
#X connect 5 0 0 0;
#X connect 6 0 5 0;
#X connect 7 0 4 0;
