#N canvas 211 127 583 508 10;
#X obj 45 442 rectangle;
#X obj 45 394 pix_texture;
#X obj 45 415 kal_gut2;
#X obj 130 370 pix_delay;
#X obj 125 442 rectangle;
#X obj 125 394 pix_texture;
#X obj 206 367 pix_delay;
#X obj 203 441 rectangle;
#X obj 203 393 pix_texture;
#X obj 282 368 pix_delay;
#X obj 277 439 rectangle;
#X obj 277 395 pix_texture;
#X obj 353 375 pix_delay;
#X obj 353 440 rectangle;
#X obj 353 396 pix_texture;
#X obj 428 373 pix_delay;
#X obj 428 438 rectangle;
#X obj 428 394 pix_texture;
#X obj 125 415 kal_gut2;
#X obj 203 414 kal_gut2;
#X obj 277 416 kal_gut2;
#X obj 353 417 kal_gut2;
#X obj 428 415 kal_gut2;
#X obj 167 325 tgl 15 0 empty empty empty 0 -6 0 8 -262144 -1 -1 0
1;
#X obj 171 348 == 0;
#X obj 125 323 spigot;
#X obj 130 348 spigot;
#X obj 247 321 tgl 15 0 empty empty empty 0 -6 0 8 -262144 -1 -1 0
1;
#X obj 247 343 == 0;
#X obj 205 321 spigot;
#X obj 205 345 spigot;
#X obj 323 321 tgl 15 0 empty empty empty 0 -6 0 8 -262144 -1 -1 0
1;
#X obj 325 343 == 0;
#X obj 281 321 spigot;
#X obj 281 345 spigot;
#X obj 396 319 tgl 15 0 empty empty empty 0 -6 0 8 -262144 -1 -1 0
1;
#X obj 398 343 == 0;
#X obj 354 319 spigot;
#X obj 354 343 spigot;
#X obj 468 320 tgl 15 0 empty empty empty 0 -6 0 8 -262144 -1 -1 0
1;
#X obj 470 344 == 0;
#X obj 426 320 spigot;
#X obj 426 344 spigot;
#X msg 502 112 create;
#X msg 509 133 destroy;
#X obj 503 153 gemwin;
#X msg 447 72 dimen 800 600;
#X msg 453 92 offset 1440 -1;
#X obj 446 113 tgl 15 0 empty empty empty 0 -6 0 8 -262144 -1 -1 0
1;
#X text 466 112 render;
#X obj 448 53 loadbang;
#X obj 518 18 inlet;
#X obj 518 41 t b b;
#X obj 18 170 inlet;
#X obj 127 179 inlet;
#X obj 201 178 inlet;
#X obj 278 180 inlet;
#X obj 353 178 inlet;
#X obj 428 177 inlet;
#X connect 1 0 2 0;
#X connect 2 0 0 0;
#X connect 3 0 5 0;
#X connect 3 0 30 0;
#X connect 5 0 18 0;
#X connect 6 0 8 0;
#X connect 6 0 34 0;
#X connect 8 0 19 0;
#X connect 9 0 11 0;
#X connect 9 0 38 0;
#X connect 11 0 20 0;
#X connect 12 0 14 0;
#X connect 12 0 42 0;
#X connect 14 0 21 0;
#X connect 15 0 17 0;
#X connect 17 0 22 0;
#X connect 18 0 4 0;
#X connect 19 0 7 0;
#X connect 20 0 10 0;
#X connect 21 0 13 0;
#X connect 22 0 16 0;
#X connect 23 0 24 0;
#X connect 23 0 25 1;
#X connect 24 0 26 1;
#X connect 25 0 5 0;
#X connect 25 0 29 0;
#X connect 26 0 3 0;
#X connect 27 0 28 0;
#X connect 27 0 29 1;
#X connect 28 0 30 1;
#X connect 29 0 8 0;
#X connect 29 0 33 0;
#X connect 30 0 6 0;
#X connect 31 0 32 0;
#X connect 31 0 33 1;
#X connect 32 0 34 1;
#X connect 33 0 37 0;
#X connect 33 0 11 0;
#X connect 34 0 9 0;
#X connect 35 0 36 0;
#X connect 35 0 37 1;
#X connect 36 0 38 1;
#X connect 37 0 41 0;
#X connect 37 0 14 0;
#X connect 38 0 12 0;
#X connect 39 0 40 0;
#X connect 39 0 41 1;
#X connect 40 0 42 1;
#X connect 41 0 17 0;
#X connect 42 0 15 0;
#X connect 43 0 45 0;
#X connect 44 0 45 0;
#X connect 46 0 45 0;
#X connect 47 0 45 0;
#X connect 48 0 45 0;
#X connect 50 0 46 0;
#X connect 51 0 52 0;
#X connect 52 0 48 0;
#X connect 52 1 43 0;
