#N canvas 168 55 1369 1055 10;
#X floatatom 79 136 5 0 0 0 - - -;
#X floatatom 127 81 5 0 0 0 - - -;
#X floatatom 148 99 5 0 0 0 - - -;
#X floatatom 170 81 5 0 0 0 - - -;
#X floatatom 132 248 5 0 0 0 - - -;
#X floatatom 166 266 5 0 0 0 - - -;
#X floatatom 201 248 5 0 0 0 - - -;
#X obj 132 200 OSCroute /orientations;
#X obj 132 223 unpack f f f;
#X floatatom 59 197 5 0 0 0 - - -;
#X obj 59 177 OSCroute /speed;
#X obj 547 439 OSCroute /key;
#X obj 127 33 OSCroute /mag;
#X obj 127 56 unpack f f f;
#X floatatom 266 60 5 0 0 0 - - -;
#X floatatom 287 78 5 0 0 0 - - -;
#X floatatom 332 61 5 0 0 0 - - -;
#X obj 266 35 unpack f f f;
#X obj 266 12 OSCroute /accel;
#X obj 60 9 dumpOSC 10001;
#X obj 194 1027 dac~;
#X obj 165 839 ../cmp/mixer;
#X text 236 245 pitch;
#X text 198 265 yaw;
#X text 36 247 z-axis rotation;
#X obj 71 505 osc~;
#X obj 105 505 osc~;
#X floatatom 68 476 5 0 0 0 - - -;
#X obj 79 116 OSCroute /sldr1;
#X obj 659 343 metro 1000;
#X obj 718 324 hsl 128 15 0 1000 0 0 empty empty empty -2 -8 0 10 -262144
-1 -1 12700 1;
#X obj 660 323 tgl 15 0 empty empty empty 17 7 0 10 -262144 -1 -1 1
1;
#X obj 87 597 env wider;
#X obj 83 553 *~ 1;
#X obj 139 505 osc~;
#X obj 124 556 hsl 128 15 20 1000 0 0 empty empty empty -2 -8 0 10
-262144 -1 -1 12700 1;
#X msg 138 575 1;
#X obj 170 577 tgl 15 0 empty empty empty 17 7 0 10 -262144 -1 -1 1
1;
#X obj 86 621 *~ 1;
#X obj 172 801 *~ 1;
#X floatatom 220 557 5 0 0 0 - - -;
#X floatatom 815 326 5 0 0 0 - - -;
#X obj 66 453 mtof;
#X floatatom 65 367 5 0 0 0 - - -;
#X msg 752 300 400;
#X msg 215 533 1000;
#X obj 184 778 reverb_delay;
#X obj 220 754 hsl 128 15 0 127 0 0 empty empty empty -2 -8 0 10 -262144
-1 -1 6800 1;
#X obj 84 644 distortion;
#X obj 185 595 spigot;
#X obj 337 669 spigot;
#X obj 218 575 == 1;
#X floatatom 314 757 5 0 0 0 - - -;
#X obj 336 691 + 80;
#X floatatom 185 657 5 0 0 0 - - -;
#X obj 230 813 *~ 1;
#X obj 271 590 spigot;
#X obj 113 479 mtof;
#X obj 156 478 mtof;
#X obj 115 449 + 2;
#X obj 155 449 + 3;
#X msg 125 395 2;
#X msg 126 371 3;
#X msg 125 420 1;
#X msg 171 395 2;
#X msg 172 371 3;
#X msg 171 420 1;
#X msg 172 346 4;
#X msg 125 347 4;
#X obj 826 201 osc~;
#X obj 860 201 osc~;
#X floatatom 823 172 5 0 0 0 - - -;
#X obj 894 201 osc~;
#X obj 821 149 mtof;
#X floatatom 822 81 5 0 0 0 - - -;
#X obj 815 98 * 0.3;
#X obj 815 119 + 10;
#X obj 815 61 + 170;
#X obj 861 148 mtof;
#X obj 904 147 mtof;
#X obj 863 118 + 2;
#X obj 903 118 + 3;
#X msg 873 64 2;
#X msg 874 40 3;
#X msg 873 89 1;
#X msg 919 64 2;
#X msg 920 40 3;
#X msg 919 89 1;
#X msg 920 15 4;
#X msg 873 16 4;
#X floatatom 769 527 0 0 0 0 - - -;
#X msg 712 478 bang;
#X obj 769 502 + 1;
#X obj 712 503 float;
#X obj 771 552 % 4;
#X floatatom 771 575 5 0 0 0 - - -;
#X obj 811 573 select 0 1 2 3;
#X obj 58 405 + 11;
#X obj 58 384 * 0.25;
#X obj 547 463 nbx 2 25 -1e+37 1e+37 0 0 empty empty empty 0 -8 0 30
-262144 -1 -1 2 256;
#X obj 321 589 tgl 15 0 empty empty empty 17 7 0 10 -262144 -1 -1 1
1;
#X obj 236 599 tgl 15 0 empty empty empty 17 7 0 10 -262144 -1 -1 0
1;
#X obj 553 540 f;
#X floatatom 554 565 5 0 0 0 - - -;
#X obj 589 494 t b b;
#X msg 598 516 stop;
#X obj 578 516 bng 15 250 50 0 empty empty empty 17 7 0 10 -262144
-1 -1;
#X obj 902 851 ../cmp/mixer;
#X obj 772 648 loadbang;
#X obj 648 668 loadbang;
#X msg 648 689 k40.wav;
#X msg 772 669 s19.wav 0;
#X obj 868 672 openpanel;
#X obj 871 648 bng 15 250 50 0 empty empty empty 17 7 0 10 -262144
-1 -1;
#X obj 923 765 drumsamp wider;
#X obj 959 659 loadbang;
#X obj 1055 683 openpanel;
#X obj 1058 659 bng 15 250 50 0 empty empty empty 17 7 0 10 -262144
-1 -1;
#X msg 772 689 s30.wav 1;
#X obj 790 625 t b b;
#X obj 833 625 random 2;
#X obj 943 612 t b b;
#X obj 986 612 random 3;
#X obj 60 426 int;
#X obj 336 712 / 1.5;
#X obj 738 754 drumsamp wider;
#X obj 567 755 drumsamp wider;
#X obj 1052 874 loadbang;
#X msg 1054 905 100 100 100 100;
#X obj 861 723 spigot;
#X obj 911 722 tgl 15 0 empty empty empty 17 7 0 10 -262144 -1 -1 0
1;
#X floatatom 1030 535 5 0 0 0 - - -;
#X obj 1030 515 * 5;
#X obj 1030 494 + 0;
#X obj 1098 716 spigot;
#X obj 1148 715 tgl 15 0 empty empty empty 17 7 0 10 -262144 -1 -1
0 1;
#X obj 623 735 spigot;
#X obj 673 734 tgl 15 0 empty empty empty 17 7 0 10 -262144 -1 -1 0
1;
#X obj 585 540 delay 500;
#X obj 531 298 * 1.2;
#X obj 576 299 * 1.2;
#X msg 578 200 1.7;
#X msg 578 225 1.5;
#X msg 577 249 1.3;
#X msg 577 274 1.2;
#X msg 536 197 1.7;
#X msg 536 222 1.5;
#X msg 535 246 1.3;
#X msg 535 271 1.2;
#X obj 154 718 vcf~;
#X msg 255 669 2;
#X obj 269 697 pow;
#X floatatom 289 668 5 0 0 0 - - -;
#X floatatom 270 722 5 0 0 0 - - -;
#X obj 276 638 / 20;
#X obj 656 707 == 5;
#X obj 894 695 == 6;
#X obj 1131 688 == 7;
#X msg 176 699 3;
#X obj 176 678 loadbang;
#X obj 371 645 == 3;
#X obj 304 562 == 2;
#X msg 179 533 350;
#X obj 1170 161 sendOSC;
#X msg 1170 109 connect localhost 10011;
#X obj 1170 86 loadbang;
#X msg 1029 55 cw_fireworks_edit.mpgt;
#X msg 1029 80 send /v1/film \$1;
#X msg 1022 132 send /v1/play 1;
#X msg 1021 160 send /v1/show 1;
#X msg 1188 321 send /v1/pos \$1;
#X obj 1160 276 random 5000;
#X obj 991 111 bng 15 250 50 0 empty empty empty 17 7 0 10 -262144
-1 -1;
#X text 1008 111 setup;
#X msg 1025 185 send /mb/alpha 0.85;
#X msg 1023 228 send /v1/hgt 4;
#X msg 1021 207 send /v1/wid 5.3;
#X msg 1024 248 send /v1/zero;
#X msg 993 316 send /mb/rot \$1;
#X msg 1024 268 send /mb/size 3.7;
#X obj 497 92 list;
#X msg 987 338 send /bass 1;
#X msg 987 362 send /snare 1;
#X msg 985 384 send /hats 1;
#X obj 1088 588 select 2;
#X text 661 303 start;
#X msg 951 686 h20.wav 0;
#X msg 951 706 h16.wav 1;
#X msg 238 701 200;
#X obj 58 347 + 180;
#X msg 140 531 120;
#X obj 277 617 + 190;
#X obj 185 615 + 80;
#X obj 185 636 / 70;
#X msg 785 299 600;
#X msg 818 299 800;
#X msg 851 300 1000;
#X msg 723 299 200;
#X connect 5 0 49 0;
#X connect 5 0 50 0;
#X connect 5 0 56 0;
#X connect 5 0 133 0;
#X connect 5 0 178 0;
#X connect 6 0 189 0;
#X connect 7 0 8 0;
#X connect 8 0 4 0;
#X connect 8 1 5 0;
#X connect 8 2 6 0;
#X connect 10 0 9 0;
#X connect 11 0 99 0;
#X connect 12 0 13 0;
#X connect 13 0 1 0;
#X connect 13 1 2 0;
#X connect 13 2 3 0;
#X connect 17 0 14 0;
#X connect 17 1 15 0;
#X connect 17 2 16 0;
#X connect 18 0 17 0;
#X connect 19 0 7 0;
#X connect 19 0 10 0;
#X connect 19 0 11 0;
#X connect 19 0 12 0;
#X connect 19 0 18 0;
#X connect 19 0 28 0;
#X connect 21 0 20 0;
#X connect 21 1 20 1;
#X connect 25 0 33 0;
#X connect 26 0 33 0;
#X connect 28 0 0 0;
#X connect 29 0 32 1;
#X connect 29 0 91 0;
#X connect 29 0 126 6;
#X connect 29 0 181 0;
#X connect 30 0 29 1;
#X connect 30 0 41 0;
#X connect 31 0 29 0;
#X connect 32 0 38 0;
#X connect 33 0 32 0;
#X connect 34 0 33 0;
#X connect 35 0 32 2;
#X connect 35 0 40 0;
#X connect 36 0 32 3;
#X connect 37 0 36 0;
#X connect 38 0 48 0;
#X connect 38 0 21 2;
#X connect 38 0 21 3;
#X connect 39 0 21 1;
#X connect 39 0 21 0;
#X connect 42 0 27 0;
#X connect 42 0 25 0;
#X connect 44 0 30 0;
#X connect 45 0 35 0;
#X connect 46 0 39 0;
#X connect 47 0 46 1;
#X connect 47 0 52 0;
#X connect 48 0 149 0;
#X connect 49 0 192 0;
#X connect 50 0 53 0;
#X connect 51 0 49 1;
#X connect 51 0 101 0;
#X connect 53 0 124 0;
#X connect 55 0 21 6;
#X connect 55 0 21 7;
#X connect 56 0 191 0;
#X connect 57 0 26 0;
#X connect 58 0 34 0;
#X connect 59 0 60 0;
#X connect 59 0 57 0;
#X connect 60 0 58 0;
#X connect 61 0 59 1;
#X connect 62 0 59 1;
#X connect 63 0 59 1;
#X connect 64 0 60 1;
#X connect 65 0 60 1;
#X connect 66 0 60 1;
#X connect 67 0 60 1;
#X connect 68 0 59 1;
#X connect 73 0 71 0;
#X connect 73 0 69 0;
#X connect 75 0 76 0;
#X connect 76 0 73 0;
#X connect 76 0 80 0;
#X connect 77 0 74 0;
#X connect 77 0 75 0;
#X connect 78 0 70 0;
#X connect 79 0 72 0;
#X connect 80 0 81 0;
#X connect 80 0 78 0;
#X connect 81 0 79 0;
#X connect 82 0 80 1;
#X connect 83 0 80 1;
#X connect 84 0 80 1;
#X connect 85 0 81 1;
#X connect 86 0 81 1;
#X connect 87 0 81 1;
#X connect 88 0 81 1;
#X connect 89 0 80 1;
#X connect 90 0 94 0;
#X connect 91 0 93 0;
#X connect 92 0 90 0;
#X connect 92 0 93 1;
#X connect 93 0 92 0;
#X connect 94 0 95 0;
#X connect 95 0 96 0;
#X connect 95 0 121 0;
#X connect 96 0 119 0;
#X connect 96 0 171 0;
#X connect 96 0 182 0;
#X connect 97 0 123 0;
#X connect 98 0 97 0;
#X connect 99 0 102 1;
#X connect 99 0 104 0;
#X connect 102 0 103 0;
#X connect 103 0 51 0;
#X connect 103 0 155 0;
#X connect 103 0 156 0;
#X connect 103 0 157 0;
#X connect 103 0 160 0;
#X connect 103 0 161 0;
#X connect 104 0 106 0;
#X connect 104 1 105 0;
#X connect 105 0 138 0;
#X connect 106 0 138 0;
#X connect 107 0 55 0;
#X connect 108 0 111 0;
#X connect 108 0 118 0;
#X connect 109 0 110 0;
#X connect 110 0 126 4;
#X connect 111 0 125 4;
#X connect 112 0 125 4;
#X connect 113 0 112 0;
#X connect 114 0 107 4;
#X connect 115 0 186 0;
#X connect 115 0 187 0;
#X connect 116 0 114 4;
#X connect 117 0 116 0;
#X connect 118 0 125 4;
#X connect 119 0 125 6;
#X connect 119 1 120 0;
#X connect 120 0 125 5;
#X connect 121 0 114 6;
#X connect 121 1 122 0;
#X connect 122 0 114 5;
#X connect 122 0 184 0;
#X connect 123 0 42 0;
#X connect 123 0 59 0;
#X connect 124 0 47 0;
#X connect 125 0 107 2;
#X connect 125 0 107 3;
#X connect 126 0 107 0;
#X connect 126 0 107 1;
#X connect 127 0 128 0;
#X connect 128 0 107 9;
#X connect 129 0 125 2;
#X connect 131 0 134 0;
#X connect 131 0 129 0;
#X connect 131 0 136 0;
#X connect 132 0 131 0;
#X connect 133 0 132 0;
#X connect 134 0 114 2;
#X connect 136 0 126 2;
#X connect 138 0 102 0;
#X connect 139 0 140 0;
#X connect 141 0 140 1;
#X connect 142 0 140 1;
#X connect 143 0 140 1;
#X connect 144 0 140 1;
#X connect 145 0 139 1;
#X connect 146 0 139 1;
#X connect 147 0 139 1;
#X connect 148 0 139 1;
#X connect 149 0 46 0;
#X connect 150 0 151 0;
#X connect 151 0 153 0;
#X connect 152 0 151 1;
#X connect 153 0 149 1;
#X connect 154 0 152 0;
#X connect 154 0 150 0;
#X connect 155 0 136 1;
#X connect 155 0 137 0;
#X connect 156 0 129 1;
#X connect 156 0 130 0;
#X connect 157 0 134 1;
#X connect 157 0 135 0;
#X connect 158 0 149 2;
#X connect 159 0 158 0;
#X connect 159 0 37 0;
#X connect 159 0 162 0;
#X connect 159 0 188 0;
#X connect 160 0 50 1;
#X connect 161 0 56 1;
#X connect 161 0 100 0;
#X connect 162 0 35 0;
#X connect 164 0 163 0;
#X connect 165 0 164 0;
#X connect 166 0 167 0;
#X connect 167 0 163 0;
#X connect 168 0 163 0;
#X connect 169 0 163 0;
#X connect 170 0 163 0;
#X connect 171 0 170 0;
#X connect 172 0 174 0;
#X connect 172 0 169 0;
#X connect 172 0 168 0;
#X connect 172 0 176 0;
#X connect 172 0 175 0;
#X connect 172 0 177 0;
#X connect 172 0 179 0;
#X connect 174 0 163 0;
#X connect 175 0 163 0;
#X connect 176 0 163 0;
#X connect 177 0 163 0;
#X connect 178 0 163 0;
#X connect 179 0 163 0;
#X connect 181 0 163 0;
#X connect 182 0 163 0;
#X connect 183 0 163 0;
#X connect 184 1 183 0;
#X connect 186 0 114 4;
#X connect 187 0 114 4;
#X connect 188 0 153 0;
#X connect 189 0 43 0;
#X connect 189 0 98 0;
#X connect 190 0 35 0;
#X connect 191 0 154 0;
#X connect 192 0 193 0;
#X connect 193 0 48 1;
#X connect 193 0 54 0;
#X connect 194 0 30 0;
#X connect 195 0 30 0;
#X connect 196 0 30 0;
#X connect 197 0 30 0;
