#N canvas 1114 457 789 638 10;
#X obj 511 212 hsl 128 15 -100 200 0 0 empty empty empty -2 -8 0 10
-262144 -1 -1 8467 1;
#X floatatom 607 213 5 0 0 0 - - -;
#X text 515 212 speed;
#X obj 635 235 bng 15 250 50 0 empty empty empty 17 7 0 10 -262144
-1 -1;
#X msg 503 162 0;
#X msg 532 162 100;
#X obj 20 123 - 64;
#X obj 19 144 * 100;
#X floatatom 59 144 5 0 0 0 - - -;
#X obj 505 237 hsl 128 15 -1000 1000 0 0 empty empty empty -2 -8 0
10 -262144 -1 -1 6350 1;
#X floatatom 601 236 5 0 0 0 - - -;
#X text 505 238 transpose;
#X msg 58 207 0;
#X obj 17 174 t b f b;
#X floatatom 35 199 5 0 0 0 - - -;
#X obj 86 25 inlet;
#X obj 135 26 inlet;
#X obj 178 27 inlet;
#X obj 494 108 OSCroute /spd;
#X obj 518 128 OSCroute /tsp;
#X obj 183 120 OSCroute /file;
#X obj 487 13 inlet;
#X obj 74 522 outlet~;
#X text 93 8 loc;
#X text 139 9 spd;
#X text 185 8 tsp;
#X obj 222 25 inlet;
#X text 231 9 midi;
#X text 486 -6 osc;
#X obj 486 33 OSCroute /ds;
#X obj 273 27 inlet;
#X text 276 11 file;
#X obj 72 370 I07.phase.vocoder;
#X obj 309 26 inlet;
#X text 312 10 bank;
#X obj 353 26 inlet;
#X text 350 10 trig;
#X obj 574 149 loadbang;
#X obj 55 331 OSCroute /loc;
#X msg 577 172 0;
#X obj 181 146 unpack s f;
#X obj 620 202 hradio 8 1 0 3 empty empty empty 0 -8 0 10 -262144 -1
-1 2;
#X obj 435 333 openpanel;
#X obj 438 309 bng 15 250 50 0 empty empty empty 17 7 0 10 -262144
-1 -1;
#X connect 0 0 1 0;
#X connect 0 0 32 1;
#X connect 3 0 32 2;
#X connect 4 0 0 0;
#X connect 5 0 0 0;
#X connect 6 0 7 0;
#X connect 7 0 8 0;
#X connect 7 0 13 0;
#X connect 9 0 10 0;
#X connect 9 0 32 4;
#X connect 12 0 32 0;
#X connect 13 1 14 0;
#X connect 13 2 12 0;
#X connect 15 0 32 0;
#X connect 16 0 0 0;
#X connect 17 0 9 0;
#X connect 18 0 0 0;
#X connect 19 0 9 0;
#X connect 20 0 40 0;
#X connect 21 0 29 0;
#X connect 26 0 6 0;
#X connect 29 0 19 0;
#X connect 29 0 18 0;
#X connect 29 0 38 0;
#X connect 29 0 20 0;
#X connect 30 0 40 0;
#X connect 32 0 22 0;
#X connect 33 0 41 0;
#X connect 35 0 3 0;
#X connect 37 0 5 0;
#X connect 37 0 39 0;
#X connect 38 0 32 0;
#X connect 39 0 9 0;
#X connect 40 0 32 3;
#X connect 40 1 41 0;
#X connect 41 0 32 5;
#X connect 42 0 32 3;
#X connect 43 0 42 0;
#X coords 0 -1 1 1 150 60 1 500 200;
