#N canvas 68 355 383 344 10;
#X obj 60 9 dumpOSC 10001;
#X floatatom 92 112 5 0 0 0 - - -;
#X obj 92 92 OSCroute /bar;
#X floatatom 195 139 5 0 0 0 - - -;
#X floatatom 216 157 5 0 0 0 - - -;
#X floatatom 238 139 5 0 0 0 - - -;
#X floatatom 132 248 5 0 0 0 - - -;
#X floatatom 166 266 5 0 0 0 - - -;
#X floatatom 201 248 5 0 0 0 - - -;
#X obj 132 200 OSCroute /orientations;
#X obj 132 223 unpack f f f;
#X floatatom 72 173 5 0 0 0 - - -;
#X obj 72 153 OSCroute /speed;
#X floatatom 25 147 5 0 0 0 - - -;
#X obj 25 127 OSCroute /key;
#X obj 195 91 OSCroute /mag;
#X obj 195 114 unpack f f f;
#X floatatom 266 60 5 0 0 0 - - -;
#X floatatom 287 78 5 0 0 0 - - -;
#X floatatom 309 60 5 0 0 0 - - -;
#X obj 266 35 unpack f f f;
#X obj 266 12 OSCroute /accel;
#X connect 0 0 2 0;
#X connect 0 0 9 0;
#X connect 0 0 12 0;
#X connect 0 0 14 0;
#X connect 0 0 15 0;
#X connect 0 0 21 0;
#X connect 2 0 1 0;
#X connect 9 0 10 0;
#X connect 10 0 6 0;
#X connect 10 1 7 0;
#X connect 10 2 8 0;
#X connect 12 0 11 0;
#X connect 14 0 13 0;
#X connect 15 0 16 0;
#X connect 16 0 3 0;
#X connect 16 1 4 0;
#X connect 16 2 5 0;
#X connect 20 0 17 0;
#X connect 20 1 18 0;
#X connect 20 2 19 0;
#X connect 21 0 20 0;
