#N canvas 545 113 751 756 8;
#X obj 16 2 ../cmp/sampler_st;
#X obj 57 167 ../cmp/tape_pitchshift;
#X obj 5 202 ../cmp/flanger_st;
#X obj 288 28 OSCroute /sampler;
#X obj 156 -10 OSCroute /metro;
#X obj 174 133 metro 500;
#X obj 180 35 OSCroute /time;
#X obj 170 11 OSCroute /on;
#X obj 174 111 tgl 15 0 empty empty empty 0 -6 0 8 -262144 -1 -1 0
1;
#X obj 167 65 OSCroute /set;
#X obj 171 88 unpack f f;
#X floatatom 216 51 5 0 0 0 - - -;
#X obj 350 2 bng 15 250 50 0 empty empty empty 0 -6 0 8 -262144 -1
-1;
#X obj 373 169 bng 15 250 50 0 /mov_trig empty empty 0 -6 0 8 -262144
-1 -1;
#X obj 414 220 sendOSC;
#X obj 430 180 bng 15 250 50 0 empty empty empty 0 -6 0 8 -262144 -1
-1;
#X msg 430 200 connect localhost 10011;
#X obj 429 164 loadbang;
#X obj 367 90 OSCroute /mov_trig_send;
#X obj 383 198 spigot;
#X obj 401 181 tgl 15 0 empty empty empty 0 -6 0 8 -262144 -1 -1 0
1;
#X obj 400 122 bng 15 250 50 0 /mov_trig empty empty 0 -6 0 8 -262144
-1 -1;
#X msg 398 142 send /mov_trig;
#X obj 446 634 dac~;
#X obj 159 216 OSCroute /flange;
#X obj 14 135 ../cmp/tape_pitchshift;
#X obj 426 588 *~ 1;
#X obj 435 542 hsl 128 15 0 2 0 0 empty empty empty -2 -6 0 8 -262144
-1 -1 0 1;
#X obj 591 514 OSCroute /mstr_vol;
#X obj 594 552 line;
#X obj 592 534 unpack f f;
#X obj 649 535 bng 15 250 50 0 empty empty empty 0 -6 0 8 -262144 -1
-1;
#X obj 470 588 *~ 1;
#X obj 480 570 hsl 128 15 0 2 0 0 empty empty empty -2 -6 0 8 -262144
-1 -1 0 1;
#X floatatom 535 545 5 0 0 0 - - -;
#X obj 279 0 dumpOSC 10001;
#X obj 6 569 ../cmp/crossfade_st;
#X obj 26 372 ../cmp/filter_osc;
#X obj 184 274 expr 1000/$f1;
#X obj 223 303 int;
#X obj 253 301 hsl 128 15 1 16 0 0 empty empty empty -2 -6 0 8 -262144
-1 -1 847 1;
#X floatatom 268 304 5 0 0 0 - - -;
#X obj 175 325 * 1;
#X obj 189 304 t b f;
#N canvas 408 274 938 584 drums 0;
#X obj 259 481 outlet~;
#X obj 335 485 outlet~;
#X obj 277 306 ../cmp/mixer;
#X obj 413 91 ../drm/snare;
#X obj 113 -9 OSCroute /d1;
#X obj 236 -8 OSCroute /d2;
#X obj 424 -2 OSCroute /d3;
#X obj 607 -2 OSCroute /d4;
#X obj 323 -35 inlet;
#X obj 11 93 ../drm/kick;
#X obj 211 91 ../drm/kick;
#X obj 597 91 ../drm/snare;
#X connect 2 0 0 0;
#X connect 2 1 1 0;
#X connect 3 0 2 4;
#X connect 3 0 2 5;
#X connect 4 0 9 3;
#X connect 5 0 10 3;
#X connect 6 0 3 3;
#X connect 7 0 11 3;
#X connect 8 0 4 0;
#X connect 8 0 5 0;
#X connect 8 0 6 0;
#X connect 8 0 7 0;
#X connect 8 0 2 8;
#X connect 9 0 2 0;
#X connect 9 0 2 1;
#X connect 10 0 2 2;
#X connect 10 0 2 3;
#X connect 11 0 2 6;
#X connect 11 0 2 7;
#X restore 421 322 pd drums;
#X obj 435 352 ../cmp/mixer;
#X obj 412 301 OSCroute /drums;
#X obj 517 621 env~ 2048;
#X floatatom 519 643 5 0 0 0 - - -;
#X obj 574 645 max;
#X obj 604 645 f;
#X floatatom 605 664 5 0 0 0 - - -;
#X msg 577 615 0;
#X obj 53 676 ../cmp/normalise;
#X msg 179 652 50;
#X obj 480 322 OSCroute /mstr;
#X msg 154 654 0.3;
#X obj 179 629 loadbang;
#X obj 153 550 OSCroute /x_filter;
#X obj 171 356 OSCroute /filter;
#X msg 126 659 1;
#X obj 256 262 loadbang;
#X msg 255 282 2;
#X obj 612 35 hsl 128 15 0 1 0 0 empty empty empty -2 -6 0 8 -262144
-1 -1 12700 1;
#X obj 614 53 hsl 128 15 0 1 0 0 empty empty empty -2 -6 0 8 -262144
-1 -1 12700 1;
#X obj 616 71 hsl 128 15 0 1 0 0 empty empty empty -2 -6 0 8 -262144
-1 -1 12700 1;
#X text 726 37 r;
#X text 731 54 g;
#X text 730 72 b;
#X obj 610 5 tgl 15 0 empty empty empty 0 -6 0 8 -262144 -1 -1 0 1
;
#X obj 614 92 hsl 128 15 -10 10 0 0 empty empty empty -2 -6 0 8 -262144
-1 -1 6350 1;
#X obj 613 112 hsl 128 15 0 1 0 0 empty empty empty -2 -6 0 8 -262144
-1 -1 0 1;
#X msg 510 22 send /blur/on \$1;
#X msg 510 43 send /blur/r \$1;
#X msg 510 61 send /blur/g \$1;
#X msg 510 78 send /blur/b \$1;
#X msg 511 98 send /blur/rot \$1;
#X msg 507 116 send /blur/alpha \$1;
#X msg 512 143 send /blur/sq \$1;
#X obj 612 143 hsl 128 15 0 6 0 0 empty empty empty -2 -6 0 8 -262144
-1 -1 0 1;
#X text 712 114 alpha;
#X obj 680 -1 loadbang;
#X msg 673 16 1;
#X msg 699 16 0;
#X text 721 146 sq;
#X text 717 94 rot;
#X obj 27 602 hip~;
#X obj 112 605 hip~;
#X obj 100 621 hip~;
#X obj 33 621 hip~;
#X obj 156 600 hsl 128 15 0 500 0 0 empty empty empty -2 -6 0 8 -262144
-1 -1 0 1;
#X floatatom 161 603 5 0 0 0 - - -;
#X text 243 602 hi-pass;
#X obj 99 637 hip~;
#X obj 32 637 hip~;
#X msg 204 652 0.6;
#X text 184 485 something wrong here since the multi_osc was changed.
;
#X obj 420 9 herc_joystk 0;
#X connect 0 0 25 0;
#X connect 0 1 1 0;
#X connect 1 0 2 1;
#X connect 1 0 2 0;
#X connect 2 0 36 0;
#X connect 2 0 37 0;
#X connect 2 0 45 5;
#X connect 2 0 45 6;
#X connect 2 1 36 1;
#X connect 2 1 37 1;
#X connect 3 0 4 0;
#X connect 3 0 0 7;
#X connect 3 0 24 0;
#X connect 3 0 25 2;
#X connect 3 0 1 2;
#X connect 3 0 28 0;
#X connect 3 0 58 0;
#X connect 3 0 59 0;
#X connect 4 0 6 0;
#X connect 4 0 7 0;
#X connect 4 0 9 0;
#X connect 5 0 21 0;
#X connect 5 0 0 4;
#X connect 6 0 5 1;
#X connect 6 0 11 0;
#X connect 7 0 8 0;
#X connect 8 0 5 0;
#X connect 9 0 10 0;
#X connect 10 0 8 0;
#X connect 10 1 5 1;
#X connect 10 1 11 0;
#X connect 11 0 5 1;
#X connect 11 0 38 0;
#X connect 15 0 16 0;
#X connect 16 0 14 0;
#X connect 17 0 15 0;
#X connect 18 0 20 0;
#X connect 19 0 14 0;
#X connect 20 0 19 1;
#X connect 21 0 22 0;
#X connect 22 0 13 0;
#X connect 22 0 19 0;
#X connect 24 0 2 8;
#X connect 25 0 2 0;
#X connect 25 0 2 1;
#X connect 26 0 23 0;
#X connect 27 0 26 1;
#X connect 27 0 34 0;
#X connect 28 0 30 0;
#X connect 28 0 31 0;
#X connect 29 0 27 0;
#X connect 29 0 33 0;
#X connect 30 0 29 0;
#X connect 30 1 29 1;
#X connect 32 0 23 1;
#X connect 32 0 47 0;
#X connect 33 0 32 1;
#X connect 35 0 3 0;
#X connect 35 0 12 0;
#X connect 35 0 18 0;
#X connect 35 0 46 0;
#X connect 35 0 55 0;
#X connect 36 0 86 0;
#X connect 36 1 87 0;
#X connect 37 0 36 2;
#X connect 37 0 45 4;
#X connect 37 1 36 3;
#X connect 38 0 42 0;
#X connect 39 0 43 0;
#X connect 40 0 41 0;
#X connect 40 0 39 0;
#X connect 42 0 37 2;
#X connect 42 0 2 3;
#X connect 43 0 42 0;
#X connect 43 1 42 1;
#X connect 44 0 45 2;
#X connect 44 1 45 3;
#X connect 45 0 26 0;
#X connect 45 1 32 0;
#X connect 46 0 44 0;
#X connect 47 0 48 0;
#X connect 48 0 49 0;
#X connect 49 0 50 0;
#X connect 50 0 49 1;
#X connect 50 0 51 0;
#X connect 52 0 50 0;
#X connect 53 0 45 0;
#X connect 53 1 45 1;
#X connect 54 0 53 4;
#X connect 55 0 45 8;
#X connect 56 0 53 3;
#X connect 57 0 56 0;
#X connect 57 0 54 0;
#X connect 57 0 60 0;
#X connect 57 0 95 0;
#X connect 58 0 36 4;
#X connect 59 0 37 6;
#X connect 60 0 53 2;
#X connect 61 0 62 0;
#X connect 62 0 40 0;
#X connect 63 0 73 0;
#X connect 64 0 74 0;
#X connect 65 0 75 0;
#X connect 69 0 72 0;
#X connect 70 0 76 0;
#X connect 71 0 77 0;
#X connect 72 0 14 0;
#X connect 73 0 14 0;
#X connect 74 0 14 0;
#X connect 75 0 14 0;
#X connect 76 0 14 0;
#X connect 77 0 14 0;
#X connect 78 0 14 0;
#X connect 79 0 78 0;
#X connect 81 0 82 0;
#X connect 81 0 83 0;
#X connect 82 0 63 0;
#X connect 82 0 64 0;
#X connect 82 0 65 0;
#X connect 83 0 71 0;
#X connect 83 0 70 0;
#X connect 86 0 89 0;
#X connect 87 0 88 0;
#X connect 88 0 93 0;
#X connect 89 0 94 0;
#X connect 90 0 87 1;
#X connect 90 0 88 1;
#X connect 90 0 86 1;
#X connect 90 0 89 1;
#X connect 90 0 91 0;
#X connect 90 0 93 1;
#X connect 90 0 94 1;
#X connect 93 0 53 1;
#X connect 94 0 53 0;
#X connect 95 0 53 5;
