#N canvas 1086 25 732 1104 10;
#N canvas 0 0 450 300 (subpatch) 0;
#X array \$0-real 1024 float 2;
#X coords 0 1000 1024 0 256 200 1;
#X restore 421 128 graph;
#X obj 105 407 metro 250;
#N canvas 0 0 450 300 (subpatch) 0;
#X array \$0-imaginary 1024 float 2;
#X coords 0 1000 1024 -1000 256 200 1;
#X restore 423 417 graph;
#X text 595 165 real part;
#X text 550 398 imaginary part;
#X obj 103 376 loadbang;
#X text 431 638 updated for PD version 0.39;
#X obj 104 451 s \$0-snap;
#X text 156 200 given the real and imaginary part;
#X text 157 216 of a complex-valued signal. Here;
#X text 156 232 the imaginary part is zero (the;
#X text 155 186 fft~ computes the Fourier transform \,;
#X text 175 386 real and imaginary;
#X text 175 402 outputs are graphed;
#X text 174 419 separately.;
#X text 153 250 input is real-valued). The output;
#X text 154 267 is a (real \, imaginary) pair for each;
#X text 155 285 frequency from 0 to 63 (in units of;
#X text 156 305 SR/64).;
#X text 26 -24 ANALYSIS;
#X text 27 -42 FOURIER;
#X msg 263 459 \; pd dsp 1;
#X obj 129 783 expr~ sqrt($v1^2+$v2^2);
#X obj 181 451 bng 15 250 50 0 empty empty empty 17 7 0 10 -262144
-1 -1;
#X obj 73 401 tgl 15 0 empty empty empty 17 7 0 10 -262144 -1 -1 0
1;
#X obj 12 221 osc~;
#X obj 10 195 hsl 128 15 0 10000 0 0 empty empty empty -2 -8 0 10 -262144
-1 -1 4000 1;
#X msg 54 220 0;
#X obj 218 153 block~ 1024;
#X floatatom 105 196 5 0 0 0 - - -;
#N canvas 0 0 450 300 (subpatch) 0;
#X array \$0-mag 1024 float 2;
#X coords 0 10 1024 0 256 200 1;
#X restore 15 830 graph;
#X obj 221 372 tabwrite~ \$0-real;
#X obj 220 351 tabwrite~ \$0-imaginary;
#X obj 128 807 tabwrite~ \$0-mag;
#N canvas 0 0 450 300 (subpatch) 0;
#X array \$0-phase 1024 float 2;
#X coords 0 10 1024 -10 256 200 1;
#X restore 351 829 graph;
#X obj 26 268 fft~;
#X obj 324 799 tabwrite~ \$0-phase;
#X obj 231 318 bng 15 250 50 0 empty empty empty 17 7 0 10 -262144
-1 -1;
#X obj 214 716 line~;
#X obj 250 602 samplerate~;
#X floatatom 252 623 5 0 0 0 - - -;
#X obj 252 582 bng 15 250 50 0 empty empty empty 17 7 0 10 -262144
-1 -1;
#X obj 213 744 tabread~ \$0-real;
#X obj 326 745 tabread~ \$0-imaginary;
#X msg 274 681 0;
#X obj 199 661 t b b;
#X obj 199 640 bng 15 250 50 0 empty empty empty 17 7 0 10 -262144
-1 -1;
#X msg 199 683 1024 23.2;
#X obj 323 779 expr~ atan($v2/$v1+0.000001);
#X obj 173 67 biquad~;
#X connect 1 0 7 0;
#X connect 1 0 23 0;
#X connect 1 0 27 0;
#X connect 5 0 1 0;
#X connect 5 0 21 0;
#X connect 22 0 33 0;
#X connect 24 0 1 0;
#X connect 25 0 35 0;
#X connect 26 0 25 0;
#X connect 26 0 29 0;
#X connect 35 0 31 0;
#X connect 35 1 32 0;
#X connect 37 0 32 0;
#X connect 37 0 31 0;
#X connect 38 0 42 0;
#X connect 38 0 43 0;
#X connect 39 0 40 0;
#X connect 41 0 39 0;
#X connect 42 0 22 0;
#X connect 42 0 48 0;
#X connect 43 0 22 1;
#X connect 43 0 48 1;
#X connect 44 0 38 0;
#X connect 45 0 47 0;
#X connect 45 0 33 0;
#X connect 45 0 36 0;
#X connect 45 1 44 0;
#X connect 46 0 45 0;
#X connect 47 0 38 0;
#X connect 48 0 36 0;
