#N canvas 36 27 1112 857 10;
#X obj 109 216 ../cmp/multi_osc1;
#X obj 113 595 ../cmp/mixer;
#X text 258 258 carrier;
#X text 105 33 modulation;
#X obj 101 166 hsl 128 15 0.1 20 1 0 empty empty empty -2 -8 0 10 -262144
-1 -1 12700 1;
#X obj 75 187 *~ 1;
#X text 115 167 mod index;
#X floatatom 187 166 5 0 0 0 - - -;
#X obj 236 3 hsl 128 15 20 20000 1 0 empty empty empty -2 -8 0 10 -262144
-1 -1 3500 1;
#X obj 232 23 sig~;
#X obj 259 171 hsl 128 15 20 20000 1 0 empty empty empty -2 -8 0 10
-262144 -1 -1 4500 1;
#X obj 129 794 dac~;
#X floatatom 326 6 5 0 0 0 - - -;
#X floatatom 345 172 5 0 0 0 - - -;
#X obj 101 55 ../cmp/multi_osc1;
#X obj 16 336 ../cmp/envCurv;
#X obj 20 305 bng 15 250 50 0 empty empty empty 17 7 0 10 -262144 -1
-1;
#X obj 150 472 line~ 0 10;
#X obj 126 558 *~;
#X floatatom 81 540 5 0 0 0 - - -;
#X obj 297 363 ../cmp/envCurv;
#X obj 13 558 hsl 128 15 0 10 0 0 empty empty empty -2 -8 0 10 -262144
-1 -1 1300 1;
#X obj 351 587 line~ 0 10;
#X obj 292 687 *~;
#X text 84 557 q;
#X floatatom 97 560 5 0 0 0 - - -;
#X obj 309 642 hsl 128 15 0.01 2 1 0 empty empty empty -2 -8 0 10 -262144
-1 -1 6900 1;
#X floatatom 400 641 5 0 0 0 - - -;
#X obj 357 726 env~;
#X floatatom 357 748 5 0 0 0 - - -;
#X obj 328 524 hsl 128 15 200 5000 1 0 empty empty empty -2 -8 0 10
-262144 -1 -1 7900 1;
#X floatatom 419 525 5 0 0 0 - - -;
#X obj 13 511 hsl 128 15 20 2000 1 0 empty empty empty -2 -8 0 10 -262144
-1 -1 11900 1;
#X floatatom 98 511 5 0 0 0 - - -;
#X obj 358 790 max;
#X floatatom 386 790 5 0 0 0 - - -;
#X msg 386 767 0;
#X obj 7 705 env~;
#X floatatom 8 726 5 0 0 0 - - -;
#X obj 31 756 max;
#X floatatom 63 755 5 0 0 0 - - -;
#X msg 62 732 0;
#X obj 292 664 *~;
#X obj 351 617 /~ 10;
#X obj 239 193 +~;
#X obj 14 465 line 0 1;
#X obj 14 486 / 10;
#X obj 53 539 * 1;
#X obj 79 305 *~;
#X obj 205 362 *~ 1;
#X text 247 3 freq;
#X text 262 169 freq;
#X obj 75 210 +~ 1;
#X obj 430 212 ../cmp/multi_osc1;
#X text 426 29 modulation;
#X obj 422 162 hsl 128 15 0.1 20 1 0 empty empty empty -2 -8 0 10 -262144
-1 -1 12500 1;
#X obj 396 183 *~ 1;
#X text 436 163 mod index;
#X floatatom 508 162 5 0 0 0 - - -;
#X obj 557 -1 hsl 128 15 20 20000 1 0 empty empty empty -2 -8 0 10
-262144 -1 -1 3900 1;
#X obj 553 19 sig~;
#X obj 580 167 hsl 128 15 20 20000 1 0 empty empty empty -2 -8 0 10
-262144 -1 -1 4900 1;
#X obj 422 51 ../cmp/multi_osc1;
#X obj 560 189 +~;
#X obj 400 301 *~;
#X text 568 -1 freq;
#X text 583 165 freq;
#X obj 396 206 +~ 1;
#X obj 756 212 ../cmp/multi_osc1;
#X text 752 29 modulation;
#X obj 748 162 hsl 128 15 0.1 20 1 0 empty empty empty -2 -8 0 10 -262144
-1 -1 12400 1;
#X obj 722 183 *~ 1;
#X text 762 163 mod index;
#X floatatom 834 162 5 0 0 0 - - -;
#X obj 883 -1 hsl 128 15 20 20000 1 0 empty empty empty -2 -8 0 10
-262144 -1 -1 3800 1;
#X obj 879 19 sig~;
#X obj 906 167 hsl 128 15 20 20000 1 0 empty empty empty -2 -8 0 10
-262144 -1 -1 4800 1;
#X obj 748 51 ../cmp/multi_osc1;
#X obj 886 189 +~;
#X obj 726 301 *~;
#X text 894 -1 freq;
#X text 909 165 freq;
#X obj 722 206 +~ 1;
#X floatatom 647 1 5 0 0 0 - - -;
#X floatatom 974 -1 5 0 0 0 - - -;
#X floatatom 997 168 5 0 0 0 - - -;
#X floatatom 672 168 5 0 0 0 - - -;
#X obj 297 489 line 0 1;
#X obj 297 544 * 10;
#X obj 290 595 hip~;
#X obj 291 620 hip~;
#X obj 29 581 bp~;
#X obj 29 604 bp~;
#X obj 161 494 hsl 128 15 0 10 0 0 empty empty empty -2 -8 0 10 -262144
-1 -1 100 1;
#X floatatom 248 497 5 0 0 0 - - -;
#X obj 150 516 *~ 10;
#X text 635 389 ALL WRONG !! doesnt sound anything like a cymbal not
sure why. maybe something different in the fitler i am using.;
#X connect 0 0 48 1;
#X connect 1 0 11 0;
#X connect 1 1 11 1;
#X connect 4 0 5 1;
#X connect 4 0 7 0;
#X connect 5 0 52 0;
#X connect 8 0 9 0;
#X connect 8 0 12 0;
#X connect 9 0 14 3;
#X connect 10 0 13 0;
#X connect 10 0 44 1;
#X connect 14 0 5 0;
#X connect 14 0 44 0;
#X connect 15 0 17 0;
#X connect 15 0 45 0;
#X connect 16 0 15 0;
#X connect 16 0 20 0;
#X connect 17 0 95 0;
#X connect 18 0 1 1;
#X connect 18 0 1 0;
#X connect 18 0 37 0;
#X connect 20 0 22 0;
#X connect 20 0 87 0;
#X connect 21 0 25 0;
#X connect 21 0 91 2;
#X connect 21 0 92 2;
#X connect 22 0 43 0;
#X connect 23 0 28 0;
#X connect 23 0 1 2;
#X connect 23 0 1 3;
#X connect 26 0 27 0;
#X connect 26 0 42 1;
#X connect 28 0 29 0;
#X connect 29 0 34 0;
#X connect 30 0 31 0;
#X connect 30 0 88 1;
#X connect 32 0 33 0;
#X connect 32 0 47 1;
#X connect 34 0 35 0;
#X connect 35 0 34 1;
#X connect 36 0 35 0;
#X connect 37 0 38 0;
#X connect 38 0 39 0;
#X connect 39 0 40 0;
#X connect 40 0 39 1;
#X connect 41 0 40 0;
#X connect 42 0 23 0;
#X connect 43 0 23 1;
#X connect 44 0 0 3;
#X connect 45 0 46 0;
#X connect 46 0 47 0;
#X connect 47 0 19 0;
#X connect 47 0 91 1;
#X connect 47 0 92 1;
#X connect 48 0 49 0;
#X connect 49 0 1 4;
#X connect 49 0 1 5;
#X connect 49 0 89 0;
#X connect 49 0 91 0;
#X connect 52 0 48 0;
#X connect 53 0 64 1;
#X connect 55 0 56 1;
#X connect 55 0 58 0;
#X connect 56 0 67 0;
#X connect 59 0 60 0;
#X connect 59 0 83 0;
#X connect 60 0 62 3;
#X connect 61 0 63 1;
#X connect 61 0 86 0;
#X connect 62 0 56 0;
#X connect 62 0 63 0;
#X connect 63 0 53 3;
#X connect 64 0 49 0;
#X connect 67 0 64 0;
#X connect 68 0 79 1;
#X connect 70 0 71 1;
#X connect 70 0 73 0;
#X connect 71 0 82 0;
#X connect 74 0 75 0;
#X connect 74 0 84 0;
#X connect 75 0 77 3;
#X connect 76 0 78 1;
#X connect 76 0 85 0;
#X connect 77 0 71 0;
#X connect 77 0 78 0;
#X connect 78 0 68 3;
#X connect 79 0 49 0;
#X connect 82 0 79 0;
#X connect 87 0 88 0;
#X connect 88 0 89 1;
#X connect 88 0 90 1;
#X connect 89 0 90 0;
#X connect 90 0 42 0;
#X connect 91 0 92 0;
#X connect 92 0 18 0;
#X connect 93 0 94 0;
#X connect 93 0 95 1;
#X connect 95 0 18 1;
