#N canvas 643 323 578 601 10;
#X obj 32 53 ../cmp/multi_osc1;
#X obj 32 187 *~;
#X obj 138 27 sig~;
#X obj 3 28 hsl 128 15 20 500 1 0 empty empty empty -2 -8 0 10 -262144
-1 -1 3371 1;
#X floatatom 94 28 5 0 0 0 - - -;
#X obj 33 219 +~ 1;
#X obj 51 168 hsl 128 15 0 40 0 0 empty empty empty -2 -8 0 10 -262144
-1 -1 4445 1;
#X obj 33 269 *~;
#X obj 79 188 ../cmp/multi_osc1;
#X obj 59 327 vcf~;
#X obj 92 302 hsl 50 15 0 5 0 0 empty empty empty -2 -8 0 10 -262144
-1 -1 980 1;
#X text 95 300 q;
#X floatatom 106 302 5 0 0 0 - - -;
#X obj 223 149 sig~;
#X obj 88 150 hsl 128 15 20 500 1 0 empty empty empty -2 -8 0 10 -262144
-1 -1 1854 1;
#X floatatom 179 150 5 0 0 0 - - -;
#X text 61 168 mod_index;
#X floatatom 142 168 5 0 0 0 - - -;
#X obj 57 379 ../cmp/mixer;
#X obj 84 559 dac~;
#X obj 267 392 osc~;
#X obj 267 431 lop~;
#X obj 319 183 bng 15 250 50 0 empty empty empty 17 7 0 10 -262144
-1 -1;
#X obj 113 346 *~;
#X obj 179 347 *~ 1;
#X obj 192 320 hsl 50 15 0.1 10 1 0 empty empty empty -2 -8 0 10 -262144
-1 -1 2450 1;
#X floatatom 210 322 5 0 0 0 - - -;
#X obj 296 150 sig~;
#X msg 296 116 1;
#X obj 292 496 env~;
#X floatatom 299 549 5 0 0 0 - - -;
#X obj 308 345 hsl 50 15 0.1 500 1 0 empty empty empty -2 -8 0 10 -262144
-1 -1 3913 1;
#X floatatom 326 347 5 0 0 0 - - -;
#X obj 266 345 *~ 1;
#X obj 299 522 dbtorms;
#X obj 282 215 ../cmp/envelope;
#X obj 350 549 max;
#X floatatom 385 553 5 0 0 0 - - -;
#X msg 378 528 0;
#X obj 322 401 hsl 50 15 0.1 500 1 0 empty empty empty -2 -8 0 10 -262144
-1 -1 3540 1;
#X floatatom 340 403 5 0 0 0 - - -;
#X text 198 7 Works nice but the low freq dont come thru too well in
the output.;
#X obj 364 53 loadbang;
#X obj 364 103 unpack f f f f f f f;
#X obj 267 369 +~ 0;
#X text 68 30 f1;
#X text 139 151 f2;
#X text 366 343 osc_peak;
#X text 159 321 gain;
#X text 149 301 q;
#X msg 435 178 10 2 0 300 0;
#X msg 199 35 f1 f2 mod_index osc_peak gain q;
#X msg 361 77 47 32 14 90 1 1;
#X msg 176 453 90 0 0 0;
#X connect 0 0 1 0;
#X connect 1 0 5 0;
#X connect 2 0 0 3;
#X connect 2 0 9 1;
#X connect 3 0 2 0;
#X connect 3 0 4 0;
#X connect 3 0 39 0;
#X connect 5 0 7 0;
#X connect 6 0 1 1;
#X connect 6 0 17 0;
#X connect 7 0 9 0;
#X connect 8 0 7 1;
#X connect 9 0 23 0;
#X connect 9 0 18 2;
#X connect 9 0 18 3;
#X connect 10 0 9 2;
#X connect 10 0 12 0;
#X connect 13 0 8 3;
#X connect 14 0 13 0;
#X connect 14 0 15 0;
#X connect 18 0 19 0;
#X connect 18 1 19 1;
#X connect 18 1 29 0;
#X connect 20 0 21 0;
#X connect 21 0 23 0;
#X connect 21 0 18 4;
#X connect 21 0 18 5;
#X connect 22 0 35 1;
#X connect 23 0 18 1;
#X connect 23 0 18 0;
#X connect 24 0 23 1;
#X connect 25 0 24 1;
#X connect 25 0 26 0;
#X connect 27 0 35 0;
#X connect 28 0 27 0;
#X connect 29 0 34 0;
#X connect 30 0 36 0;
#X connect 31 0 32 0;
#X connect 31 0 33 1;
#X connect 33 0 44 0;
#X connect 34 0 30 0;
#X connect 35 0 24 0;
#X connect 35 0 33 0;
#X connect 36 0 37 0;
#X connect 37 0 36 1;
#X connect 38 0 37 0;
#X connect 39 0 40 0;
#X connect 39 0 21 1;
#X connect 42 0 52 0;
#X connect 42 0 50 0;
#X connect 42 0 53 0;
#X connect 42 0 28 0;
#X connect 43 0 3 0;
#X connect 43 1 14 0;
#X connect 43 2 6 0;
#X connect 43 3 31 0;
#X connect 43 4 25 0;
#X connect 43 5 10 0;
#X connect 44 0 20 0;
#X connect 50 0 35 2;
#X connect 52 0 43 0;
#X connect 53 0 18 9;
