#N canvas 171 104 1154 559 12;
#X obj 150 101 osc~;
#X obj 153 83 hsl 128 15 10 400 0 0 empty empty empty -2 -6 0 8 -262144
-1 -1 0 1;
#X obj 188 125 osc~;
#X obj 191 105 hsl 128 15 10 400 0 0 empty empty empty -2 -6 0 8 -262144
-1 -1 0 1;
#X obj 117 78 osc~;
#X obj 120 57 hsl 128 15 10 400 0 0 empty empty empty -2 -6 0 8 -262144
-1 -1 0 1;
#X floatatom 54 277 0 0 0 0 - - -;
#X obj 18 251 notein;
#X floatatom 19 279 0 0 0 0 - - -;
#X floatatom 181 279 0 0 0 0 - - -;
#X floatatom 129 279 0 0 0 0 - - -;
#X text 25 222 omni;
#X floatatom 90 277 0 0 0 0 - - -;
#X obj 129 252 notein 1;
#X text 129 228 channel 1;
#X text 69 197 notes;
#X text 296 200 control change;
#X text 248 212 everything;
#X floatatom 293 280 0 0 0 0 - - -;
#X floatatom 255 280 0 0 0 0 - - -;
#X floatatom 331 279 0 0 0 0 - - -;
#X obj 255 253 ctlin;
#X floatatom 424 281 0 0 0 0 - - -;
#X floatatom 380 281 0 0 0 0 - - -;
#X obj 380 254 ctlin 7;
#X text 348 214 specific controller number;
#X text 394 231 omni;
#X text 480 232 channel 1;
#X floatatom 477 283 0 0 0 0 - - -;
#X obj 477 257 ctlin 7 1;
#X obj 43 403 pgmin;
#X floatatom 79 430 0 0 0 0 - - -;
#X floatatom 43 430 0 0 0 0 - - -;
#X floatatom 179 432 0 0 0 0 - - -;
#X floatatom 143 432 0 0 0 0 - - -;
#X floatatom 289 435 0 0 0 0 - - -;
#X floatatom 254 435 0 0 0 0 - - -;
#X floatatom 364 437 0 0 0 0 - - -;
#X floatatom 325 435 0 0 0 0 - - -;
#X floatatom 402 438 0 0 0 0 - - -;
#X obj 143 404 bendin;
#X obj 254 408 touchin;
#X obj 325 409 polytouchin;
#X text 31 349 these can also take an optional channel number as argument
but by default are omni:;
#X text 14 379 program change;
#X text 137 380 pitch bend;
#X text 253 385 channel and poly aftertouch;
#X text 83 459 outputs work similarly. They all take an optional channel
as creation argument \, and ctlin takes a control number and a channel.
You get inlets to change them in any case. IF you specify no channel
\, it's channel 1;
#X obj 604 459 midiin;
#X floatatom 604 490 0 0 0 0 - - -;
#X floatatom 635 490 0 0 0 0 - - -;
#X floatatom 674 490 0 0 0 0 - - -;
#X floatatom 705 491 0 0 0 0 - - -;
#X text 569 396 These two are always omni and;
#X text 569 415 output the port number instead;
#X text 573 433 of the channel:;
#X obj 676 459 sysexin;
#X text 437 3 on j lap: hercules is not primary sound driver on joyces
laptop so channels start at 3rd input.;
#X text 120 186 these worked in j lap:;
#X text 13 299 key;
#X text 52 300 vel;
#X text 90 298 part;
#X text 291 300 ctrl no;
#X text 248 300 ctrl val;
#X text 10 319 these are notes;
#X text 327 298 always same 2;
#X text 244 333 these are herc controls;
#X floatatom 599 304 10 0 0 0 - - -;
#X obj 596 206 - 64;
#X obj 596 276 +;
#X obj 596 253 *;
#X obj 596 230 / 2048;
#X obj 597 131 == 45;
#X obj 597 154 * 0;
#X floatatom 642 131 5 0 0 0 - - -;
#X floatatom 628 154 5 0 0 0 - - -;
#X text 653 235 this is the scale;
#X obj 571 94 select 45 46;
#X obj 597 178 select 0;
#X obj 805 153 * 0;
#X floatatom 850 130 5 0 0 0 - - -;
#X floatatom 836 153 5 0 0 0 - - -;
#X obj 805 177 select 0;
#X obj 805 130 == 46;
#X floatatom 810 302 10 0 0 0 - - -;
#X obj 805 205 - 64;
#X obj 805 275 +;
#X obj 805 252 *;
#X obj 805 229 / 2048;
#X text 862 234 this is the scale;
#X obj 837 251 hsl 128 8 1 100 0 0 empty empty empty -2 -6 0 8 -262144
-1 -1 0 1;
#X obj 837 261 hsl 128 8 100 10000 0 0 empty empty empty -2 -6 0 8
-262144 -1 -1 0 1;
#X obj 837 272 hsl 128 8 10000 1e+006 0 0 empty empty empty -2 -6 0
8 -262144 -1 -1 0 1;
#X floatatom 835 283 10 0 0 0 - - -;
#X obj 595 324 s ljog;
#X obj 805 324 s rjog;
#X obj 627 253 hsl 128 8 1 100 0 0 empty empty empty -2 -6 0 8 -262144
-1 -1 0 1;
#X obj 627 263 hsl 128 8 100 10000 0 0 empty empty empty -2 -6 0 8
-262144 -1 -1 0 1;
#X obj 627 274 hsl 128 8 10000 1e+006 0 0 empty empty empty -2 -6 0
8 -262144 -1 -1 0 1;
#X floatatom 624 285 10 0 0 0 - - -;
#X obj 57 32 osc~;
#X obj 60 14 hsl 128 15 10 400 0 0 empty empty empty -2 -6 0 8 -262144
-1 -1 0 1;
#X obj 92 53 osc~;
#X obj 95 35 hsl 128 15 10 400 0 0 empty empty empty -2 -6 0 8 -262144
-1 -1 0 1;
#X obj 69 162 dac~ 1 2 3 4 5 6 7 8;
#X obj 225 22 osc~;
#X obj 228 2 hsl 128 15 10 400 0 0 empty empty empty -2 -6 0 8 -262144
-1 -1 0 1;
#X obj 261 42 osc~;
#X obj 264 22 hsl 128 15 10 400 0 0 empty empty empty -2 -6 0 8 -262144
-1 -1 0 1;
#X obj 298 62 osc~;
#X obj 301 42 hsl 128 15 10 400 0 0 empty empty empty -2 -6 0 8 -262144
-1 -1 0 1;
#X obj 898 421 ctlout;
#X obj 880 361 hsl 128 15 0 127 0 0 empty empty empty -2 -6 0 8 -262144
-1 -1 12700 1;
#X obj 916 385 hsl 128 15 0 127 0 0 empty empty empty -2 -6 0 8 -262144
-1 -1 9300 1;
#X msg 971 418 2;
#X obj 939 329 bng 15 250 50 0 empty empty empty 0 -6 0 8 -262144 -1
-1;
#X floatatom 1067 382 5 0 0 0 - - -;
#X connect 0 0 104 3;
#X connect 1 0 0 0;
#X connect 2 0 104 4;
#X connect 3 0 2 0;
#X connect 4 0 104 2;
#X connect 5 0 4 0;
#X connect 7 0 8 0;
#X connect 7 1 6 0;
#X connect 7 2 12 0;
#X connect 13 0 10 0;
#X connect 13 1 9 0;
#X connect 18 0 72 0;
#X connect 18 0 83 0;
#X connect 19 0 73 1;
#X connect 19 0 79 1;
#X connect 21 0 19 0;
#X connect 21 1 18 0;
#X connect 21 2 20 0;
#X connect 24 0 23 0;
#X connect 24 1 22 0;
#X connect 29 0 28 0;
#X connect 30 0 32 0;
#X connect 30 1 31 0;
#X connect 40 0 34 0;
#X connect 40 1 33 0;
#X connect 41 0 36 0;
#X connect 41 1 35 0;
#X connect 42 0 38 0;
#X connect 42 1 37 0;
#X connect 42 2 39 0;
#X connect 48 0 49 0;
#X connect 48 1 50 0;
#X connect 56 0 51 0;
#X connect 67 0 69 1;
#X connect 68 0 71 0;
#X connect 69 0 67 0;
#X connect 69 0 94 0;
#X connect 70 0 69 0;
#X connect 71 0 70 0;
#X connect 72 0 74 0;
#X connect 72 0 73 0;
#X connect 73 0 75 0;
#X connect 73 0 78 0;
#X connect 78 1 68 0;
#X connect 79 0 81 0;
#X connect 79 0 82 0;
#X connect 82 1 85 0;
#X connect 83 0 80 0;
#X connect 83 0 79 0;
#X connect 84 0 86 1;
#X connect 85 0 88 0;
#X connect 86 0 84 0;
#X connect 86 0 95 0;
#X connect 87 0 86 0;
#X connect 88 0 87 0;
#X connect 90 0 93 0;
#X connect 91 0 93 0;
#X connect 92 0 93 0;
#X connect 93 0 87 1;
#X connect 96 0 99 0;
#X connect 97 0 99 0;
#X connect 98 0 99 0;
#X connect 99 0 70 1;
#X connect 100 0 104 0;
#X connect 101 0 100 0;
#X connect 102 0 104 1;
#X connect 103 0 102 0;
#X connect 105 0 104 5;
#X connect 106 0 105 0;
#X connect 107 0 104 6;
#X connect 108 0 107 0;
#X connect 109 0 104 7;
#X connect 110 0 109 0;
#X connect 112 0 111 0;
#X connect 113 0 111 1;
#X connect 113 0 115 0;
#X connect 114 0 111 2;
#X connect 115 0 112 0;
#X connect 115 0 114 0;
#X connect 116 0 113 0;
