#N canvas 672 11 676 399 10;
#X obj 52 43 openpanel;
#X obj 53 12 bng 15 250 50 0 empty empty empty 0 -6 0 8 -262144 -1
-1;
#X obj 49 100 soundfiler;
#X msg 49 69 read -resize \$1 sample1;
#X obj 132 112 table sample1;
#X floatatom 80 145 10 0 0 0 - - -;
#X obj 63 315 tabread4~ sample1;
#X text 194 317 reads from the table "sample1";
#X obj 66 207 phasor~;
#X obj 64 240 *~;
#X floatatom 65 161 5 0 0 0 - - -;
#X obj 80 121 bng 15 250 50 0 empty empty empty 0 -6 0 8 -262144 -1
-1;
#X text 94 243 multiply by sample rate.;
#X obj 332 292 line~;
#X obj 64 181 / 100;
#X obj 380 130 tgl 15 0 empty empty empty 0 -6 0 8 -262144 -1 -1 1
1;
#X obj 380 153 metro 1000;
#X obj 625 39 vsl 15 128 150 3000 0 0 empty empty empty 0 -8 0 8 -258699
-1 -1 0 1;
#X obj 254 149 delay 1;
#X obj 452 47 hsl 128 15 200 500000 0 0 empty empty empty -2 -6 0 8
-260818 -1 -1 0 1;
#X obj 309 236 pack 5000 500;
#X obj 465 67 hsl 128 15 50 4000 0 0 empty empty empty -2 -6 0 8 -123526
-1 -1 0 1;
#X text 112 210 comment;
#X obj 476 86 hsl 128 15 0 200000 0 0 empty empty empty -2 -6 0 8 -24198
-1 -1 0 1;
#X obj 254 182 + 0;
#X obj 77 7 inlet;
#X obj 77 7 inlet;
#X obj 435 22 inlet;
#X obj 267 22 inlet;
#X obj 305 23 inlet;
#X obj 345 23 inlet;
#X obj 62 357 outlet~;
#X obj 383 23 inlet;
#X text 265 3 start;
#X text 345 4 time;
#X text 305 4 end;
#X text 433 4 repeat;
#X text 382 4 activate;
#X msg 422 278 0;
#X obj 332 120 *;
#X obj 440 105 nbx 8 14 -1e+037 1e+037 0 0 empty empty empty 0 -6 0
10 -262144 -1 -1 1561.77 256;
#X obj 382 217 nbx 16 14 -1e+037 1e+037 0 0 empty empty empty 0 -6
0 10 -262144 -1 -1 6137.08 256;
#X obj 254 215 nbx 8 14 -1e+037 1e+037 0 0 empty empty empty 0 -6 0
10 -262144 -1 -1 507876 256;
#X obj 339 64 nbx 8 14 -1e+037 1e+037 0 0 empty empty empty 0 -6 0
10 -262144 -1 -1 205.52 256;
#X obj 292 46 nbx 8 14 -1e+037 1e+037 0 0 empty empty empty 0 -6 0
10 -262144 -1 -1 476380 256;
#X obj 257 64 nbx 8 14 -1e+037 1e+037 0 0 empty empty empty 0 -6 0
10 -262144 -1 -1 31496.1 256;
#X msg 389 188;
#X obj 451 171 hsl 128 15 0 20000 0 0 empty empty empty -2 -6 0 8 -262144
-1 -1 10800 1;
#X obj 433 191 / 1;
#X obj 464 192 nbx 16 14 -1e+037 1e+037 0 0 empty empty empty 0 -6
0 10 -262144 -1 -1 29.8613 256;
#X obj 511 -9 tgl 15 0 empty empty empty 0 -6 0 8 -262144 -1 -1 1 1
;
#X obj 511 15 metro 30;
#X obj 486 18 bng 15 250 50 0 empty empty empty 0 -6 0 8 -262144 -1
-1;
#X floatatom 554 -6 5 0 0 0 - - -;
#X obj 314 176 + 0;
#X obj 450 155 bng 15 250 50 0 empty empty empty 0 -6 0 8 -262144 -1
-1;
#X connect 0 0 3 0;
#X connect 1 0 0 0;
#X connect 2 0 5 0;
#X connect 3 0 2 0;
#X connect 5 0 9 1;
#X connect 6 0 31 0;
#X connect 8 0 9 0;
#X connect 9 0 6 0;
#X connect 10 0 14 0;
#X connect 11 0 5 0;
#X connect 13 0 6 0;
#X connect 14 0 8 0;
#X connect 15 0 16 0;
#X connect 16 0 18 0;
#X connect 16 0 54 0;
#X connect 16 0 55 0;
#X connect 18 0 24 0;
#X connect 20 0 13 0;
#X connect 24 0 20 0;
#X connect 24 0 42 0;
#X connect 24 0 48 0;
#X connect 25 0 0 0;
#X connect 27 0 16 1;
#X connect 27 0 40 0;
#X connect 28 0 24 1;
#X connect 28 0 45 0;
#X connect 28 0 54 1;
#X connect 29 0 24 0;
#X connect 29 0 44 0;
#X connect 30 0 39 0;
#X connect 30 0 43 0;
#X connect 32 0 15 0;
#X connect 38 0 13 0;
#X connect 39 0 20 1;
#X connect 39 0 41 0;
#X connect 47 0 48 1;
#X connect 48 0 39 1;
#X connect 48 0 49 0;
#X connect 50 0 51 0;
#X connect 51 0 39 0;
#X connect 51 0 52 0;
#X connect 53 0 51 1;
#X connect 54 0 13 0;
