#N canvas 57 130 563 631 10;
#X obj -79 43 hsl 300 10 100 50000 0 0 empty empty empty -2 -6 0 8
-258699 -1 -1 0 1;
#X floatatom -82 73 15 0 0 0 - - -;
#X obj -76 55 bng 15 250 50 0 empty empty empty 0 -6 0 8 -262144 -1
-1;
#X obj 77 125 *;
#X obj -79 169 metro 50;
#X obj -79 148 tgl 15 0 empty empty empty 0 -6 0 8 -262144 -1 -1 0
1;
#X obj 91 84 pow 2;
#X obj 124 62 hsl 128 15 0.2 20 0 0 empty empty empty -2 -6 0 8 -262144
-1 -1 0 1;
#X floatatom 134 106 10 0 0 0 - - -;
#X msg 91 63 2;
#X obj -80 124 loadbang;
#X obj 92 103 / 1024;
#X obj 137 83 int;
#X msg -86 191 0;
#X obj 14 61 delay 10;
#X obj 70 61 bng 15 250 50 0 empty empty empty 0 -6 0 8 -262144 -1
-1;
#X obj 69 216 *;
#X obj 83 175 pow 2;
#X obj 116 153 hsl 128 15 0.2 20 0 0 empty empty empty -2 -6 0 8 -262144
-1 -1 0 1;
#X floatatom 126 197 10 0 0 0 - - -;
#X msg 83 154 2;
#X obj 84 194 / 1024;
#X obj 129 174 int;
#X obj 6 152 delay 10;
#X obj 62 152 bng 15 250 50 0 empty empty empty 0 -6 0 8 -262144 -1
-1;
#X obj 66 305 *;
#X obj 80 264 pow 2;
#X obj 113 242 hsl 128 15 0.2 20 0 0 empty empty empty -2 -6 0 8 -262144
-1 -1 0 1;
#X floatatom 123 286 10 0 0 0 - - -;
#X msg 80 243 2;
#X obj 81 283 / 1024;
#X obj 126 263 int;
#X obj 3 241 delay 10;
#X obj 59 241 bng 15 250 50 0 empty empty empty 0 -6 0 8 -262144 -1
-1;
#X obj 65 390 *;
#X obj 79 349 pow 2;
#X obj 112 327 hsl 128 15 0.2 20 0 0 empty empty empty -2 -6 0 8 -262144
-1 -1 0 1;
#X floatatom 122 371 10 0 0 0 - - -;
#X msg 79 328 2;
#X obj 80 368 / 1024;
#X obj 125 348 int;
#X obj 2 326 delay 10;
#X obj 58 326 bng 15 250 50 0 empty empty empty 0 -6 0 8 -262144 -1
-1;
#X obj 265 238 *;
#X obj 279 197 pow 2;
#X obj 312 175 hsl 128 15 0.2 20 0 0 empty empty empty -2 -6 0 8 -262144
-1 -1 0 1;
#X floatatom 322 219 10 0 0 0 - - -;
#X msg 279 176 2;
#X obj 280 216 / 1024;
#X obj 325 196 int;
#X obj 202 174 delay 10;
#X obj 258 174 bng 15 250 50 0 empty empty empty 0 -6 0 8 -262144 -1
-1;
#X obj 261 327 *;
#X obj 275 286 pow 2;
#X obj 308 264 hsl 128 15 0.2 20 0 0 empty empty empty -2 -6 0 8 -262144
-1 -1 0 1;
#X floatatom 318 308 10 0 0 0 - - -;
#X msg 275 265 2;
#X obj 276 305 / 1024;
#X obj 321 285 int;
#X obj 198 263 delay 10;
#X obj 254 263 bng 15 250 50 0 empty empty empty 0 -6 0 8 -262144 -1
-1;
#X obj 256 414 *;
#X obj 270 373 pow 2;
#X obj 303 351 hsl 128 15 0.2 20 0 0 empty empty empty -2 -6 0 8 -262144
-1 -1 0 1;
#X floatatom 313 395 10 0 0 0 - - -;
#X msg 270 352 2;
#X obj 271 392 / 1024;
#X obj 316 372 int;
#X obj 193 350 delay 10;
#X obj 249 350 bng 15 250 50 0 empty empty empty 0 -6 0 8 -262144 -1
-1;
#X obj 258 146 *;
#X obj 272 105 pow 2;
#X obj 305 83 hsl 128 15 0.2 20 0 0 empty empty empty -2 -6 0 8 -262144
-1 -1 0 1;
#X floatatom 315 127 10 0 0 0 - - -;
#X msg 272 84 2;
#X obj 273 124 / 1024;
#X obj 318 104 int;
#X obj 195 82 delay 10;
#X obj 251 82 bng 15 250 50 0 empty empty empty 0 -6 0 8 -262144 -1
-1;
#X obj -39 4 inlet;
#X obj -3 4 inlet;
#X obj 32 4 inlet;
#X obj 67 4 inlet;
#X obj 102 4 inlet;
#X obj 172 4 inlet;
#X obj 137 4 inlet;
#X obj -71 475 outlet;
#X obj -30 475 outlet;
#X obj 11 475 outlet;
#X obj 52 475 outlet;
#X obj 93 475 outlet;
#X obj 134 475 outlet;
#X obj 175 475 outlet;
#X obj 207 4 inlet;
#X obj 242 4 inlet;
#X obj 216 475 outlet;
#X connect 0 0 1 0;
#X connect 1 0 3 0;
#X connect 2 0 1 0;
#X connect 3 0 86 0;
#X connect 4 0 9 0;
#X connect 5 0 4 0;
#X connect 6 0 11 0;
#X connect 7 0 12 0;
#X connect 7 0 14 0;
#X connect 9 0 6 0;
#X connect 10 0 9 0;
#X connect 10 0 13 0;
#X connect 10 0 5 0;
#X connect 11 0 8 0;
#X connect 11 0 3 1;
#X connect 12 0 6 1;
#X connect 13 0 7 0;
#X connect 13 0 72 0;
#X connect 13 0 18 0;
#X connect 13 0 45 0;
#X connect 13 0 27 0;
#X connect 13 0 54 0;
#X connect 13 0 36 0;
#X connect 13 0 63 0;
#X connect 14 0 15 0;
#X connect 15 0 3 0;
#X connect 16 0 88 0;
#X connect 17 0 21 0;
#X connect 18 0 22 0;
#X connect 18 0 23 0;
#X connect 20 0 17 0;
#X connect 21 0 19 0;
#X connect 21 0 16 1;
#X connect 22 0 17 1;
#X connect 23 0 24 0;
#X connect 24 0 16 0;
#X connect 25 0 90 0;
#X connect 26 0 30 0;
#X connect 27 0 31 0;
#X connect 27 0 32 0;
#X connect 29 0 26 0;
#X connect 30 0 28 0;
#X connect 30 0 25 1;
#X connect 31 0 26 1;
#X connect 32 0 33 0;
#X connect 33 0 25 0;
#X connect 34 0 92 0;
#X connect 35 0 39 0;
#X connect 36 0 40 0;
#X connect 36 0 41 0;
#X connect 38 0 35 0;
#X connect 39 0 37 0;
#X connect 39 0 34 1;
#X connect 40 0 35 1;
#X connect 41 0 42 0;
#X connect 42 0 34 0;
#X connect 43 0 89 0;
#X connect 44 0 48 0;
#X connect 45 0 49 0;
#X connect 45 0 50 0;
#X connect 47 0 44 0;
#X connect 48 0 46 0;
#X connect 48 0 43 1;
#X connect 49 0 44 1;
#X connect 50 0 51 0;
#X connect 51 0 43 0;
#X connect 52 0 91 0;
#X connect 53 0 57 0;
#X connect 54 0 58 0;
#X connect 54 0 59 0;
#X connect 56 0 53 0;
#X connect 57 0 55 0;
#X connect 57 0 52 1;
#X connect 58 0 53 1;
#X connect 59 0 60 0;
#X connect 60 0 52 0;
#X connect 61 0 95 0;
#X connect 62 0 66 0;
#X connect 63 0 67 0;
#X connect 63 0 68 0;
#X connect 65 0 62 0;
#X connect 66 0 64 0;
#X connect 66 0 61 1;
#X connect 67 0 62 1;
#X connect 68 0 69 0;
#X connect 69 0 61 0;
#X connect 70 0 87 0;
#X connect 71 0 75 0;
#X connect 72 0 76 0;
#X connect 72 0 77 0;
#X connect 74 0 71 0;
#X connect 75 0 73 0;
#X connect 75 0 70 1;
#X connect 76 0 71 1;
#X connect 77 0 78 0;
#X connect 78 0 70 0;
#X connect 79 0 0 0;
#X connect 80 0 7 0;
#X connect 81 0 72 0;
#X connect 82 0 18 0;
#X connect 83 0 45 0;
#X connect 84 0 54 0;
#X connect 85 0 27 0;
#X connect 93 0 36 0;
#X connect 94 0 63 0;
