#N canvas 121 0 679 607 8;
#X obj 35 217 gemwin;
#X msg 35 70 create;
#X msg 60 90 destroy;
#X obj 169 18 gemhead;
#X obj 168 85 part_head;
#X msg 88 116 1;
#X msg 96 142 0;
#X text 278 259 set the number per frame;
#X text 292 291 set the age to kill at;
#X msg 290 201 0 0.2 0 0.3;
#X msg 377 200 0.2 0 0 0.3;
#X obj 168 229 part_velocity sphere 0 0.2 0 0.3;
#N canvas 87 154 247 179 Gem.init 0;
#X msg 118 81 reset;
#X obj 118 113 outlet;
#X obj 118 48 t b b;
#X obj 116 18 loadbang;
#X connect 0 0 1 0;
#X connect 2 1 0 0;
#X connect 3 0 2 0;
#X restore 66 194 pd Gem.init;
#X obj 168 132 part_size 1;
#X obj 169 300 part_info;
#X obj 169 382 separator;
#X obj 169 408 translate 1 0 0 0;
#X obj 169 431 color;
#X obj 169 471 scale;
#X msg 278 518 draw line;
#X msg 257 105 2;
#X obj 170 502 rotateXYZ;
#X obj 320 435 unpack 0 0 0;
#X text 375 400 this is rather velocity;
#X text 379 416 than rotation;
#X obj 279 498 loadbang;
#X msg 300 378 \$1 \$2 0;
#X obj 169 56 rotateXYZ;
#X floatatom 272 20 5 0 0 0 - - -;
#X obj 168 205 part_color;
#X msg 200 180 1 0 0;
#X msg 252 180 0 0 1;
#X text 254 362 we don't allow particles spread along the z-axis;
#X msg 257 76 1;
#X obj 255 463 * 360;
#X obj 315 461 * 360;
#X obj 382 460 * 360;
#X obj 471 25 gemhead -1;
#X obj 471 146 pix_snap2tex;
#X msg 516 122 0 0;
#X msg 562 121 500 500;
#X obj 516 99 t b b;
#X obj 471 106 t b a;
#X obj 471 184 alpha;
#X floatatom 644 174 5 0 0 0 - - -;
#X obj 471 252 square 4;
#X obj 649 26 vsl 15 128 0 1 0 0 empty empty empty 0 -8 0 8 -262144
-1 -1 12700 1;
#X obj 471 208 colorRGB 1 1 1 0.888;
#X obj 516 80 loadbang;
#X obj 170 537 sphere 0.2;
#X obj 49 375 world_light;
#X obj 45 334 gemhead;
#X obj 72 259;
#X msg 68 281 lighting 1;
#X obj 168 279 part_killold 15;
#X obj 168 254 part_source 1;
#X obj 512 279 hsl 128 15 0 1 0 0 empty empty empty -2 -6 0 8 -262144
-1 -1 12600 1;
#X obj 521 299 hsl 128 15 0 1 0 0 empty empty empty -2 -6 0 8 -262144
-1 -1 0 1;
#X obj 532 316 hsl 128 15 0 1 0 0 empty empty empty -2 -6 0 8 -262144
-1 -1 0 1;
#X connect 1 0 0 0;
#X connect 2 0 0 0;
#X connect 3 0 27 0;
#X connect 4 0 13 0;
#X connect 5 0 0 0;
#X connect 6 0 0 0;
#X connect 9 0 11 2;
#X connect 10 0 11 2;
#X connect 11 0 55 0;
#X connect 12 0 0 0;
#X connect 13 0 29 0;
#X connect 14 0 15 0;
#X connect 14 2 26 0;
#X connect 14 3 17 1;
#X connect 14 4 22 0;
#X connect 14 5 18 1;
#X connect 15 0 16 0;
#X connect 16 0 17 0;
#X connect 17 0 18 0;
#X connect 18 0 21 0;
#X connect 19 0 49 0;
#X connect 20 0 13 1;
#X connect 21 0 49 0;
#X connect 22 0 34 0;
#X connect 22 1 35 0;
#X connect 22 2 36 0;
#X connect 25 0 19 0;
#X connect 26 0 16 2;
#X connect 27 0 4 0;
#X connect 28 0 27 2;
#X connect 29 0 11 0;
#X connect 30 0 29 1;
#X connect 31 0 29 2;
#X connect 33 0 13 1;
#X connect 34 0 21 1;
#X connect 35 0 21 2;
#X connect 36 0 21 3;
#X connect 37 0 42 0;
#X connect 38 0 43 0;
#X connect 39 0 38 1;
#X connect 40 0 38 2;
#X connect 41 0 39 0;
#X connect 41 1 40 0;
#X connect 42 0 38 0;
#X connect 42 1 38 0;
#X connect 43 0 47 0;
#X connect 44 0 47 4;
#X connect 46 0 44 0;
#X connect 47 0 45 0;
#X connect 48 0 41 0;
#X connect 51 0 50 0;
#X connect 53 0 0 0;
#X connect 54 0 14 0;
#X connect 55 0 54 0;
#X connect 56 0 47 1;
#X connect 57 0 47 2;
#X connect 58 0 47 3;
