#N canvas 531 166 816 615 10;
#X obj 75 22 gemhead;
#X msg 30 52 print;
#X obj 75 390 glsl_program;
#X obj 147 274 pack 0 0;
#X msg 31 155 print;
#X obj 168 254 t b f;
#X obj 168 209 change;
#X obj 147 93 change;
#X msg 147 314 link \$1 \$2;
#X msg 30 356 print;
#X text 188 192 the fragment shader;
#X floatatom 168 235 2 0 0 0 ID - -;
#X floatatom 147 116 2 0 0 0 ID - -;
#X obj 165 335 print linking;
#X obj 74 189 glsl_fragment;
#X obj 75 74 glsl_vertex;
#X obj 157 24 bng 15 250 50 0 empty empty empty 0 -6 0 8 -262144 -1
-1;
#X msg 89 52 open sphere.vert;
#X msg 84 160 open sphere.frag;
#X floatatom 301 250 5 0 0 0 - - -;
#X msg 302 273 f1 \$1;
#X floatatom 358 252 5 0 0 0 - - -;
#X floatatom 412 253 5 0 0 0 - - -;
#X msg 359 275 f2 \$1;
#X msg 413 276 f3 \$1;
#X obj 75 503 sphere 2 120;
#X floatatom 306 311 5 0 0 0 - - -;
#X floatatom 363 313 5 0 0 0 - - -;
#X floatatom 417 314 5 0 0 0 - - -;
#X msg 307 334 a1 \$1;
#X msg 364 336 a2 \$1;
#X msg 418 337 a3 \$1;
#X floatatom 309 366 5 0 0 0 - - -;
#X floatatom 366 368 5 0 0 0 - - -;
#X floatatom 420 369 5 0 0 0 - - -;
#X obj 311 418 t a;
#X msg 310 389 t1 \$1;
#X msg 367 391 t2 \$1;
#X msg 421 392 t3 \$1;
#X obj 505 302 metro 3000;
#X msg 505 326 0 \, 6.28 3000;
#X obj 503 275 tgl 15 0 empty empty empty 0 -6 0 8 -262144 -1 -1 1
1;
#X obj 508 350 line;
#X obj 612 279 tgl 15 0 empty empty empty 0 -6 0 8 -262144 -1 -1 1
1;
#X obj 617 354 line;
#X obj 614 306 metro 4445;
#X msg 614 330 0 \, 6.28 4445;
#X obj 718 282 tgl 15 0 empty empty empty 0 -6 0 8 -262144 -1 -1 1
1;
#X obj 723 357 line;
#X obj 720 309 metro 3333;
#X msg 720 333 0 \, 6.28 3333;
#X floatatom 211 467 5 0 0 0 - - -;
#X obj 389 69 gemwin;
#X msg 389 42 create \, 1;
#X text 475 42 <- 1;
#X text 187 25 <- 2;
#X msg 304 223 10;
#X msg 360 225 13;
#X msg 414 223 7;
#X msg 492 224 0.1;
#X obj 563 229 tgl 15 0 empty empty empty 17 7 0 10 -262144 -1 -1 1
1;
#X obj 374 180 bng 15 250 50 0 empty empty empty 17 7 0 10 -262144
-1 -1;
#X connect 0 0 15 0;
#X connect 1 0 15 0;
#X connect 2 0 25 0;
#X connect 3 0 8 0;
#X connect 4 0 14 0;
#X connect 5 0 3 0;
#X connect 5 1 3 1;
#X connect 6 0 11 0;
#X connect 7 0 12 0;
#X connect 8 0 2 0;
#X connect 8 0 13 0;
#X connect 9 0 2 0;
#X connect 11 0 5 0;
#X connect 12 0 3 0;
#X connect 14 0 2 0;
#X connect 14 1 6 0;
#X connect 15 0 14 0;
#X connect 15 1 7 0;
#X connect 16 0 17 0;
#X connect 16 0 18 0;
#X connect 17 0 15 0;
#X connect 18 0 14 0;
#X connect 19 0 20 0;
#X connect 20 0 2 0;
#X connect 21 0 23 0;
#X connect 22 0 24 0;
#X connect 23 0 2 0;
#X connect 24 0 2 0;
#X connect 26 0 29 0;
#X connect 27 0 30 0;
#X connect 28 0 31 0;
#X connect 29 0 2 0;
#X connect 30 0 2 0;
#X connect 31 0 2 0;
#X connect 32 0 36 0;
#X connect 33 0 37 0;
#X connect 34 0 38 0;
#X connect 35 0 2 0;
#X connect 36 0 35 0;
#X connect 37 0 35 0;
#X connect 38 0 35 0;
#X connect 39 0 40 0;
#X connect 40 0 42 0;
#X connect 41 0 39 0;
#X connect 42 0 36 0;
#X connect 43 0 45 0;
#X connect 44 0 37 0;
#X connect 45 0 46 0;
#X connect 46 0 44 0;
#X connect 47 0 49 0;
#X connect 48 0 38 0;
#X connect 49 0 50 0;
#X connect 50 0 48 0;
#X connect 51 0 25 2;
#X connect 53 0 52 0;
#X connect 56 0 19 0;
#X connect 57 0 21 0;
#X connect 58 0 22 0;
#X connect 59 0 28 0;
#X connect 59 0 27 0;
#X connect 59 0 26 0;
#X connect 60 0 41 0;
#X connect 60 0 43 0;
#X connect 60 0 47 0;
#X connect 61 0 56 0;
#X connect 61 0 57 0;
#X connect 61 0 58 0;
#X connect 61 0 59 0;
#X connect 61 0 60 0;
