#N canvas 897 149 471 337 8;
#X obj 115 76 print;
#X msg 112 45 --------------------------------------------;
#X obj 141 99 hsl 128 15 0 100000 0 0 empty empty empty -2 -6 0 8 -262144
-1 -1 600 1;
#X obj 155 117 hsl 128 15 0 2e+06 0 0 empty empty empty -2 -6 0 8 -262144
-1 -1 4500 1;
#X obj 170 136 hsl 128 15 0 110 0 0 empty empty empty -2 -6 0 8 -262144
-1 -1 4900 1;
#X obj 28 12 hsl 250 15 10 7000 1 0 empty empty empty -2 -6 0 8 -262144
-1 -1 18300 1;
#X obj 118 260 dac~;
#X obj 400 81 vsl 15 128 0 127 0 0 empty empty empty 0 -8 0 8 -262144
-1 -1 9000 1;
#X obj 124 212 samp_play a_littel_wider;
#X obj 5 118 metro;
#X obj 181 174 bng 15 250 50 0 empty empty empty 0 -6 0 8 -262144 -1
-1;
#X obj 5 98 tgl 15 0 empty empty empty 0 -6 0 8 -262144 -1 -1 1 1;
#X obj 198 155 hsl 128 15 1 100 0 0 empty empty empty -2 -6 0 8 -262144
-1 -1 2600 1;
#X obj 213 173 hsl 128 15 -70000 250000 0 0 empty empty empty -2 -6
0 8 -262144 -1 -1 7100 1;
#X obj 227 191 hsl 128 15 0 127 0 0 empty empty empty -2 -6 0 8 -262144
-1 -1 12700 1;
#X floatatom 32 31 7 0 0 0 - - -;
#X obj 123 186 bng 15 250 50 0 empty empty empty 0 -6 0 8 -262144 -1
-1;
#X text 122 174 open;
#X text 274 98 start;
#X text 290 118 length;
#X text 304 135 speed;
#X text 331 155 gran freq;
#X text 346 171 pitch;
#X text 359 192 gran mix;
#X text 399 211 volume;
#X connect 1 0 0 0;
#X connect 2 0 8 1;
#X connect 3 0 8 2;
#X connect 4 0 8 3;
#X connect 5 0 9 1;
#X connect 5 0 15 0;
#X connect 7 0 8 8;
#X connect 8 0 6 0;
#X connect 8 0 6 1;
#X connect 9 0 10 0;
#X connect 10 0 8 4;
#X connect 11 0 9 0;
#X connect 12 0 8 5;
#X connect 13 0 8 6;
#X connect 14 0 8 7;
#X connect 16 0 8 0;
