#N canvas 122 521 640 419 10;
#X msg 347 41 force2D 0 5000;
#X obj 95 239 unpack s f f;
#X floatatom 129 267 8 0 0 0 - - -;
#X floatatom 165 296 8 0 0 0 - - -;
#X msg 135 57 setXY 0 0 0;
#X msg 280 33 reset;
#X msg 135 81 on;
#X obj 107 8 tgl 15 0 empty empty empty 0 -6 0 10 -262144 -1 -1 1 1
;
#X msg 133 34 setD 0.5;
#X obj 131 9 metro 100;
#X obj 169 171 link2D link 30 1 1;
#X obj 295 251 unpack s f f;
#X floatatom 337 282 8 0 0 0 - - -;
#X floatatom 373 311 8 0 0 0 - - -;
#X obj 323 181 link2D link 30 1 1;
#X obj 407 250 unpack s f f;
#X floatatom 449 281 8 0 0 0 - - -;
#X floatatom 485 310 8 0 0 0 - - -;
#X obj 78 134 mass2D mass1 10;
#X obj 295 218 mass2D mass1 10;
#X obj 462 105 mass2D mass1 10;
#X connect 0 0 19 0;
#X connect 1 1 2 0;
#X connect 1 2 3 0;
#X connect 4 0 18 0;
#X connect 4 0 19 0;
#X connect 4 0 20 0;
#X connect 5 0 18 0;
#X connect 5 0 19 0;
#X connect 5 0 20 0;
#X connect 6 0 18 0;
#X connect 7 0 9 0;
#X connect 8 0 18 0;
#X connect 9 0 10 0;
#X connect 9 0 18 0;
#X connect 9 0 19 0;
#X connect 10 1 19 0;
#X connect 11 1 12 0;
#X connect 11 2 13 0;
#X connect 14 0 19 0;
#X connect 15 1 16 0;
#X connect 15 2 17 0;
#X connect 18 0 1 0;
#X connect 18 0 10 0;
#X connect 19 0 11 0;
#X connect 19 0 10 1;
#X connect 19 0 14 0;
#X connect 20 0 15 0;
#X connect 20 0 14 1;
