#N canvas 0 0 454 304 10;
#X obj 217 138 *~ 1;
#X obj 181 138 *~ 1;
#X obj 145 138 *~ 1;
#X obj 108 138 *~ 1;
#X obj 127 114 != 1;
#X obj 164 114 != 2;
#X obj 236 114 != 4;
#X obj 200 114 != 3;
#X obj 213 56 *~ 1;
#X obj 177 56 *~ 1;
#X obj 141 56 *~ 1;
#X obj 104 56 *~ 1;
#X obj 123 30 == 1;
#X obj 160 30 == 2;
#X obj 196 30 == 3;
#X obj 232 30 == 4;
#X obj 170 82 *~ 1;
#X obj 171 166 *~ 1;
#X obj 229 211 == 1;
#X obj 265 211 == 2;
#X obj 301 211 == 3;
#X obj 282 235 *~ 1;
#X obj 246 235 *~ 1;
#X obj 210 235 *~ 1;
#X obj 281 92 *~ 1;
#X text 243 45 this is the signal;
#X text 245 56 with the preview;
#X text 244 66 channel in it.;
#X floatatom 301 272 5 0 0 0 - - -;
#X floatatom 265 272 5 0 0 0 - - -;
#X floatatom 229 271 5 0 0 0 - - -;
#X connect 0 0 17 0;
#X connect 1 0 17 0;
#X connect 2 0 17 0;
#X connect 3 0 17 0;
#X connect 4 0 3 1;
#X connect 5 0 2 1;
#X connect 6 0 0 1;
#X connect 7 0 1 1;
#X connect 8 0 16 0;
#X connect 9 0 16 0;
#X connect 10 0 16 0;
#X connect 11 0 16 0;
#X connect 12 0 11 1;
#X connect 13 0 10 1;
#X connect 14 0 9 1;
#X connect 15 0 8 1;
#X connect 16 0 24 0;
#X connect 17 0 24 0;
#X connect 18 0 23 1;
#X connect 18 0 30 0;
#X connect 19 0 22 1;
#X connect 19 0 29 0;
#X connect 20 0 21 1;
#X connect 20 0 28 0;
