#N canvas 617 506 398 232 10;
#X obj -396 57 vsl 15 128 0 127 0 0 empty empty empty 0 -8 0 8 -62784
-1 -1 0 1;
#X obj -325 107 hsl 128 15 50 500000 0 0 empty empty empty -2 -6 0
8 -260818 -1 -1 1300 1;
#X obj -316 125 hsl 128 15 10 1000 1 0 empty empty empty -2 -6 0 8
-123526 -1 -1 3700 1;
#X obj -335 88 hsl 128 15 0 300000 0 0 ljogi_r ljogi empty -2 -6 192
8 -24198 -1 -1 1300 1;
#X obj -239 148 tgl 15 0 empty empty empty 0 -6 0 8 -262144 -1 -1 1
1;
#X text -202 88 start;
#X text -223 156 activate;
#X text -182 126 samp rate;
#X obj -345 74 hsl 300 10 30 50000 1 0 empty empty empty -2 -6 0 8
-258699 -1 -1 700 1;
#X text -188 107 length;
#X obj -343 54 hsl 128 15 0.2 20 0 0 empty empty empty -2 -6 0 8 -262144
-1 -1 6700 1;
#X symbolatom -377 173 50 0 0 0 - - -;
#X obj -338 150 sampmsg_funnel;
#X obj -375 105 bng 15 250 50 0 empty empty empty 0 -6 0 8 -262144
-1 -1;
#X obj -377 126 openpanel;
#X obj -338 27 sampmsg_unpack;
#X obj -338 2 inlet;
#X obj -242 3 inlet;
#X obj -338 194 outlet;
#X obj -242 27 sampmsg_defunnel;
#X connect 0 0 12 5;
#X connect 1 0 12 1;
#X connect 2 0 12 2;
#X connect 3 0 12 0;
#X connect 4 0 12 3;
#X connect 8 0 12 4;
#X connect 10 0 12 6;
#X connect 12 0 18 0;
#X connect 13 0 14 0;
#X connect 14 0 12 8;
#X connect 14 0 11 0;
#X connect 15 0 3 0;
#X connect 15 1 1 0;
#X connect 15 2 2 0;
#X connect 15 3 4 0;
#X connect 15 4 8 0;
#X connect 15 5 0 0;
#X connect 15 6 10 0;
#X connect 15 8 11 0;
#X connect 16 0 15 0;
#X connect 17 0 19 0;
#X connect 19 0 3 0;
#X connect 19 1 1 0;
#X connect 19 2 2 0;
#X connect 19 3 4 0;
#X connect 19 4 8 0;
#X connect 19 5 0 0;
#X connect 19 6 10 0;
#X connect 19 8 11 0;
