#N canvas 335 427 334 291 10;
#X floatatom 154 169 10 0 0 0 - - -;
#X obj 52 116 *;
#X obj 102 59 inlet;
#X obj 64 197 outlet;
#X obj 65 3 inlet;
#X floatatom 104 82 5 0 0 0 - - -;
#X obj 181 57 inlet;
#X obj 154 147 +;
#X obj 138 59 inlet;
#X floatatom 195 78 10 0 0 0 - - -;
#X floatatom 15 94 5 0 0 0 - - -;
#X obj 65 29 log 10;
#X floatatom 23 43 5 0 0 0 - - -;
#X obj 65 69 - 5;
#X floatatom 42 141 5 0 0 0 - - -;
#X obj 133 148 bng 15 250 50 0 empty empty empty 0 -6 0 8 -262144 -1
-1;
#X obj 176 191 bng 15 250 50 0 empty empty empty 0 -6 0 8 -262144 -1
-1;
#X obj 138 83 gate 3;
#X floatatom 182 125 10 0 0 0 - - -;
#X obj 72 91 - 63;
#X connect 1 0 7 0;
#X connect 1 0 14 0;
#X connect 2 0 5 0;
#X connect 2 0 19 0;
#X connect 4 0 11 0;
#X connect 6 0 9 0;
#X connect 7 0 0 0;
#X connect 7 0 3 0;
#X connect 8 0 17 0;
#X connect 9 0 17 1;
#X connect 11 0 12 0;
#X connect 11 0 13 0;
#X connect 13 0 10 0;
#X connect 13 0 1 1;
#X connect 17 1 18 0;
#X connect 17 1 7 1;
#X connect 19 0 1 0;
