#N canvas 259 322 468 318 10;
#X floatatom 195 203 10 0 0 0 - - -;
#X obj 196 105 - 64;
#X obj 196 175 +;
#X obj 196 152 *;
#X obj 196 129 / 2048;
#X text 87 129 this is the scale;
#X obj 237 81 inlet;
#X obj 140 244 outlet;
#X obj 196 81 inlet;
#X floatatom 238 101 5 0 0 0 - - -;
#X obj 275 82 inlet;
#X connect 0 0 2 1;
#X connect 0 0 7 0;
#X connect 1 0 4 0;
#X connect 2 0 0 0;
#X connect 3 0 2 0;
#X connect 4 0 3 0;
#X connect 6 0 3 1;
#X connect 6 0 9 0;
#X connect 8 0 1 0;
#X connect 10 0 2 1;
