#N canvas 911 103 466 286 10;
#X obj 97 25 inlet;
#X obj 194 26 inlet;
#X obj 319 25 inlet;
#X obj 97 104 gate 2;
#X text 14 4 this is rebuilt from my memory of a lost file!!!;
#X obj 221 149 - 1;
#X obj 221 171 * -1;
#X msg 221 127 1;
#X obj 194 100 gate 2;
#X text 362 26 value set;
#X text 235 25 decrement;
#X text 131 25 increment;
#X obj 128 158 + 1;
#X msg 128 136 1;
#X obj 170 52 bng 15 250 50 0 empty empty empty 0 -6 0 8 -262144 -1
-1;
#X obj 268 54 bng 15 250 50 0 empty empty empty 0 -6 0 8 -262144 -1
-1;
#X obj 172 237 outlet;
#X floatatom 174 213 5 0 0 0 - - -;
#X obj 97 79 tool_realgate;
#X obj 194 77 tool_realgate;
#X connect 0 0 14 0;
#X connect 0 0 18 0;
#X connect 1 0 15 0;
#X connect 1 0 19 0;
#X connect 2 0 17 0;
#X connect 3 1 13 0;
#X connect 5 0 6 0;
#X connect 6 0 17 0;
#X connect 7 0 5 0;
#X connect 8 1 7 0;
#X connect 12 0 17 0;
#X connect 13 0 12 0;
#X connect 17 0 5 1;
#X connect 17 0 12 1;
#X connect 17 0 16 0;
#X connect 18 0 3 0;
#X connect 18 1 3 1;
#X connect 19 0 8 0;
#X connect 19 1 8 1;
