#N canvas 419 56 963 723 10;
#X obj 288 175 hercmap_left_timejog;
#X obj 263 155 hradio 15 1 0 8 empty empty empty 0 -6 0 8 -262144 -1
-1 0;
#X obj -12 9 hercinp_gate;
#X text 465 134 init scales;
#X msg 288 131 0 0 0 0 0 0 0 0 s;
#X text 289 113 init values;
#X obj 411 133 loadbang;
#X obj 160 275 samp_mixer_and_previewer_stage_with_crossfade;
#X obj -43 116 tgl 15 0 empty empty empty 0 -6 0 8 -262144 -1 -1 0
1;
#X obj -3 117 bng 15 250 50 0 empty empty empty 0 -6 0 8 -262144 -1
-1;
#X obj -45 249 tgl 15 0 empty empty empty 0 -6 0 8 -262144 -1 -1 0
1;
#X obj -6 248 bng 15 250 50 0 empty empty empty 0 -6 0 8 -262144 -1
-1;
#X obj -45 367 tgl 15 0 empty empty empty 0 -6 0 8 -262144 -1 -1 0
1;
#X obj -5 367 bng 15 250 50 0 empty empty empty 0 -6 0 8 -262144 -1
-1;
#X obj -43 485 tgl 15 0 empty empty empty 0 -6 0 8 -262144 -1 -1 0
1;
#X obj -5 486 bng 15 250 50 0 empty empty empty 0 -6 0 8 -262144 -1
-1;
#X obj 246 359 dac~ 1 2 3 4;
#X obj 172 71 r sampler_select_i;
#X obj 196 433 sampiface_msg_out;
#X obj 318 198 s preview_solo_c;
#X obj 341 220 s output_solo_c;
#X obj 257 198 gate 5;
#X obj 178 149 gate 5;
#X obj 209 120 bng 15 250 50 0 empty empty empty 0 -6 0 8 -262144 -1
-1;
#X obj 210 97 delay 1;
#X obj 49 114 sampmsg_view;
#X obj 47 246 sampmsg_view;
#X obj 44 369 sampmsg_view;
#X obj 47 489 sampmsg_view;
#X obj 363 51 textfile;
#X obj 124 31 samp_songloader;
#X obj 123 3 savepanel;
#X obj 185 3 s song_c;
#X obj 267 4 savepanel;
#X obj 329 4 s song_c;
#X obj 429 73 print;
#X obj 227 33 samp_songloader;
#X msg 362 31 write \$1;
#X text 257 97 this send setting back to sliders on sampler change.
;
#X obj 516 15 key;
#X obj 516 39 - 48;
#X obj 517 83 s sampler_select_c;
#X obj 516 59 moses 8;
#X text 377 425 todo: access presets by number;
#X text 378 435 todo: add gran synth.;
#X text 378 448 todo: reset to last good pos.;
#X text 378 460 todo: init all to statr;
#X text 377 472 todo: cahnge all controls of samplers at the same time.
;
#X obj -80 9 sampiface;
#X text 375 654 idea: add effects!!!;
#X text 376 628 idea: make slider alter value of the accumulator boxes
in the herc_input;
#X text 377 520 todo: make samp rate run from vol knob. and make better
samp rate range;
#X text 375 665 idea: add nicks granular patch so the ptich can be
changed w/o timestretch.dl_grian maybe another?;
#X text 376 546 todo: button to reset sampler to last good config.
;
#X text 376 562 todo: make osc to fluctuate the samp_play variables.
;
#X text 377 484 todo: output protection - apply ev on end of music
before turning off dsp then turn on dsps and envelope back to music.
;
#X text 376 577 todo: Make normalizer (AGC) for the volume so the level
stays constant \, no matter what the volume \, and switch to turn onn
and off.;
#X text 376 614 todo: make interface for mixer - hide wires as well.
;
#X obj -81 522 cnv 15 400 200 empty empty empty 20 12 0 14 -233017
-66577 0;
#X msg 230 627 print;
#X msg 144 628 start;
#X msg 189 625 stop;
#X text -59 610 writesf~ -- write audio signals to a soundfile;
#X text 50 697 creation argument is number of channels;
#X text 54 689 (1 to 64).;
#X obj 8 715 writesf~ 2;
#X msg -44 628 open f:/pd/output/song1.wav;
#X obj -38 646 bng 15 250 50 0 empty empty empty 0 -6 0 8 -262144 -1
-1;
#X text 110 717 makes 24-bit soundfile;
#X obj -38 664 savepanel;
#X msg -37 685 open -bytes 2 \$1;
#X obj -33 593 *~ 1;
#X obj 56 596 hsl 128 15 0 127 0 0 empty empty empty -2 -6 0 8 -262144
-1 -1 7000 1;
#X obj 17 595 / 127;
#X obj 220 598 loadbang;
#X obj -81 664 symbol;
#X obj -80 646 bng 15 250 50 0 empty empty empty 0 -6 0 8 -262144 -1
-1;
#X obj 456 380 s preview_c;
#X obj 451 348 tool_vuinput;
#X obj 347 359 tool_vuinput;
#X obj 347 381 s output_c;
#X obj -86 33 sampiface_mxer;
#X obj -75 525 sampiface_msg_rec_in;
#X obj 210 661 symbol;
#X obj 211 682 print;
#X obj 256 657 tool_vuinput;
#X obj 256 681 s rec_vu_c;
#X obj -33 550 tool_switch_sig;
#X obj -84 59 sampiface_msg_in 1 wider;
#X obj 6 34 openlab_set_loader;
#X obj -44 293 sampiface_msg_out_updater 2 update_from_preview_c;
#X obj -41 171 sampiface_msg_out_updater 1 update_from_preview_c;
#X obj -31 405 sampiface_msg_out_updater 3 update_from_preview_c;
#X obj 10 505 sampiface_msg_out_updater 4 update_from_preview_c;
#X msg 429 184 0;
#X obj -32 572 tool_switch_sig;
#X obj 94 538 adc~ 1 2 3 4;
#X obj 538 327 hsl 128 15 1 2000 1 0 empty empty empty -2 -6 0 8 -262144
-1 -1 7695 1;
#X obj 403 327 delay~;
#X obj 252 330 delay~;
#X floatatom 546 350 5 0 0 0 - - -;
#X msg 530 289 100;
#X obj 183 562 s rec_gain_c;
#X msg 194 597 70;
#X msg 101 74 0;
#X obj -84 503 samp_output o4;
#X obj -86 225 samp_preview_section p2 2;
#X obj -87 458 samp_preview_section p4 4;
#X obj -77 345 samp_preview_section p3 3;
#X obj -84 91 samp_preview_section p1 1;
#X obj -84 385 samp_output o3;
#X obj -84 267 samp_output o2;
#X obj -82 135 samp_output o1;
#X obj -87 197 sampiface_msg_in 2 wider;
#X obj -84 318 sampiface_msg_in 3 wider;
#X obj -87 425 sampiface_msg_in 4 wider;
#X obj 567 14 sampiface_tmr;
#X msg 402 153 100000 4000 111 0 1.7 1;
#X msg -60 561 0;
#X connect 0 0 18 1;
#X connect 0 0 21 1;
#X connect 0 1 7 8;
#X connect 0 1 19 0;
#X connect 0 2 20 0;
#X connect 0 2 7 9;
#X connect 0 3 18 3;
#X connect 0 4 18 4;
#X connect 0 5 7 11;
#X connect 0 6 18 8;
#X connect 4 0 0 0;
#X connect 6 0 117 0;
#X connect 6 0 94 0;
#X connect 6 0 101 0;
#X connect 7 0 16 0;
#X connect 7 0 79 0;
#X connect 7 0 87 1;
#X connect 7 0 99 0;
#X connect 7 1 78 0;
#X connect 7 1 16 2;
#X connect 7 1 87 2;
#X connect 7 1 98 0;
#X connect 8 0 91 0;
#X connect 8 0 112 1;
#X connect 9 0 112 2;
#X connect 10 0 90 0;
#X connect 10 0 111 1;
#X connect 11 0 111 2;
#X connect 12 0 92 0;
#X connect 12 0 110 1;
#X connect 13 0 110 2;
#X connect 14 0 93 0;
#X connect 14 0 105 1;
#X connect 15 0 105 2;
#X connect 17 0 21 0;
#X connect 17 0 22 0;
#X connect 17 0 24 0;
#X connect 17 0 7 10;
#X connect 17 0 1 0;
#X connect 21 0 109 1;
#X connect 21 1 106 1;
#X connect 21 2 108 1;
#X connect 21 3 107 1;
#X connect 22 0 25 1;
#X connect 22 1 26 1;
#X connect 22 2 27 1;
#X connect 22 3 28 1;
#X connect 23 0 22 1;
#X connect 24 0 23 0;
#X connect 25 1 0 0;
#X connect 25 1 18 0;
#X connect 26 1 0 0;
#X connect 26 1 18 0;
#X connect 27 1 0 0;
#X connect 27 1 18 0;
#X connect 28 1 0 0;
#X connect 28 1 18 0;
#X connect 30 0 109 5;
#X connect 30 1 106 5;
#X connect 30 2 108 5;
#X connect 30 3 107 5;
#X connect 31 0 30 0;
#X connect 31 0 32 0;
#X connect 33 0 34 0;
#X connect 33 0 37 0;
#X connect 33 0 36 0;
#X connect 36 0 109 6;
#X connect 36 1 106 6;
#X connect 36 2 108 6;
#X connect 36 3 107 6;
#X connect 37 0 29 0;
#X connect 37 0 35 0;
#X connect 39 0 40 0;
#X connect 40 0 42 0;
#X connect 42 0 41 0;
#X connect 59 0 65 0;
#X connect 60 0 65 0;
#X connect 61 0 65 0;
#X connect 66 0 65 0;
#X connect 67 0 69 0;
#X connect 69 0 70 0;
#X connect 69 0 75 1;
#X connect 69 0 83 0;
#X connect 70 0 65 0;
#X connect 71 0 65 0;
#X connect 71 0 65 1;
#X connect 71 0 85 0;
#X connect 72 0 73 0;
#X connect 73 0 71 1;
#X connect 74 0 103 0;
#X connect 74 0 118 0;
#X connect 75 0 70 0;
#X connect 76 0 75 0;
#X connect 78 0 77 0;
#X connect 79 0 80 0;
#X connect 82 0 67 0;
#X connect 82 1 76 0;
#X connect 82 2 60 0;
#X connect 82 3 61 0;
#X connect 82 4 72 0;
#X connect 82 5 59 0;
#X connect 82 5 83 0;
#X connect 82 6 87 0;
#X connect 82 7 95 0;
#X connect 83 0 84 0;
#X connect 85 0 86 0;
#X connect 87 0 95 1;
#X connect 88 0 109 1;
#X connect 88 1 109 2;
#X connect 88 2 109 3;
#X connect 88 3 31 0;
#X connect 88 3 104 0;
#X connect 88 4 33 0;
#X connect 88 5 109 7;
#X connect 88 6 9 0;
#X connect 88 7 8 0;
#X connect 88 8 7 8;
#X connect 88 9 7 9;
#X connect 88 10 109 4;
#X connect 88 11 109 8;
#X connect 88 12 109 9;
#X connect 88 13 109 5;
#X connect 88 14 109 6;
#X connect 94 0 8 0;
#X connect 94 0 10 0;
#X connect 94 0 12 0;
#X connect 94 0 14 0;
#X connect 95 0 71 0;
#X connect 96 2 95 2;
#X connect 96 3 95 2;
#X connect 97 0 98 1;
#X connect 97 0 99 1;
#X connect 97 0 100 0;
#X connect 98 0 16 3;
#X connect 99 0 16 1;
#X connect 101 0 97 0;
#X connect 103 0 72 0;
#X connect 103 0 102 0;
#X connect 104 0 8 0;
#X connect 104 0 10 0;
#X connect 104 0 12 0;
#X connect 104 0 14 0;
#X connect 105 0 7 7;
#X connect 106 0 7 1;
#X connect 106 1 26 0;
#X connect 106 1 111 0;
#X connect 106 2 18 0;
#X connect 107 0 7 3;
#X connect 107 1 28 0;
#X connect 107 1 105 0;
#X connect 107 2 18 0;
#X connect 108 0 7 2;
#X connect 108 1 27 0;
#X connect 108 1 110 0;
#X connect 108 2 18 0;
#X connect 109 0 7 0;
#X connect 109 1 25 0;
#X connect 109 1 112 0;
#X connect 109 2 18 0;
#X connect 110 0 7 6;
#X connect 111 0 7 5;
#X connect 112 0 7 4;
#X connect 113 0 106 1;
#X connect 113 1 106 2;
#X connect 113 2 106 3;
#X connect 113 5 106 7;
#X connect 113 6 11 0;
#X connect 113 7 10 0;
#X connect 113 8 7 8;
#X connect 113 9 7 9;
#X connect 113 10 106 4;
#X connect 113 11 106 8;
#X connect 113 12 106 9;
#X connect 113 13 106 5;
#X connect 113 14 106 6;
#X connect 114 0 108 1;
#X connect 114 1 108 2;
#X connect 114 2 108 3;
#X connect 114 5 108 7;
#X connect 114 6 13 0;
#X connect 114 7 12 0;
#X connect 114 8 7 8;
#X connect 114 9 7 9;
#X connect 114 10 108 4;
#X connect 114 11 108 8;
#X connect 114 12 108 9;
#X connect 114 13 108 5;
#X connect 114 14 108 6;
#X connect 115 0 107 1;
#X connect 115 1 107 2;
#X connect 115 2 107 3;
#X connect 115 5 107 7;
#X connect 115 6 15 0;
#X connect 115 7 14 0;
#X connect 115 8 7 8;
#X connect 115 9 7 9;
#X connect 115 10 107 4;
#X connect 115 11 107 8;
#X connect 115 12 107 9;
#X connect 115 13 107 5;
#X connect 115 14 107 6;
#X connect 117 0 0 1;
#X connect 118 0 87 0;
#X connect 118 0 95 0;
