#N canvas 355 133 245 134 10;
#X obj 9 5 inlet;
#X obj 9 35 sampmsg_defunnel;
#X obj 9 65 sampmsg_pack with_space;
#X obj 9 95 outlet;
#X connect 0 0 1 0;
#X connect 1 0 2 0;
#X connect 1 1 2 1;
#X connect 1 2 2 2;
#X connect 1 3 2 3;
#X connect 1 4 2 4;
#X connect 1 5 2 5;
#X connect 1 6 2 6;
#X connect 1 7 2 7;
#X connect 1 8 2 8;
#X connect 2 0 3 0;
