#N canvas 303 285 709 465 10;
#X obj 211 73 table \$1-sample;
#X obj 15 14 inlet;
#X obj 78 15 inlet;
#X obj 123 12 inlet;
#X obj 160 12 inlet;
#X obj 197 12 inlet;
#X obj 233 12 inlet;
#X obj 17 106 sampmsg_unpack;
#X obj 113 106 sampmsg_defunnel;
#X obj 36 220 outlet~;
#X obj 91 219 outlet;
#X floatatom 217 195 8 0 0 0 - - -;
#X text 124 -4 add;
#X text 3 -3 sampmsg_in;
#X text 162 -4 next;
#X text 242 -4 load;
#X text 274 -2 save;
#X obj 5 159 bng 15 250 50 0 empty empty empty 0 -6 0 8 -262144 -1
-1;
#X obj 99 139 bng 15 250 50 0 empty empty empty 0 -6 0 8 -262144 -1
-1;
#X obj 116 139 bng 15 250 50 0 empty empty empty 0 -6 0 8 -262144 -1
-1;
#X obj 135 139 bng 15 250 50 0 empty empty empty 0 -6 0 8 -262144 -1
-1;
#X obj 153 139 bng 15 250 50 0 empty empty empty 0 -6 0 8 -262144 -1
-1;
#X obj 171 139 bng 15 250 50 0 empty empty empty 0 -6 0 8 -262144 -1
-1;
#X obj 189 139 bng 15 250 50 0 empty empty empty 0 -6 0 8 -262144 -1
-1;
#X obj 273 13 inlet;
#X text 201 -3 clear;
#X obj 227 244 sampmsg_view;
#X obj 294 273 outlet;
#X obj 276 295 print update;
#X obj 294 203 bng 15 250 50 0 empty empty empty 0 -6 0 8 -262144 -1
-1;
#X obj 296 223 delay 1;
#X text 66 -4 funnel in;
#X obj 314 13 inlet;
#X text 312 -4 open file;
#X obj 314 73 openpanel;
#X obj 424 5 inlet;
#X obj 384 6 inlet;
#X obj 173 287 s repeat_c;
#X msg 424 46 0 0 0 0 0 0 0;
#X obj 429 28 bng 15 250 50 0 empty empty empty 0 -6 0 8 -262144 -1
-1;
#X obj 389 27 bng 15 250 50 0 empty empty empty 0 -6 0 8 -262144 -1
-1;
#X obj 180 165 r global_time_i;
#X msg 384 75 0 104843 46 1 358 127 8;
#X obj 213 35 savepanel;
#X obj 274 37 savepanel;
#X obj 131 68 samp_presets;
#X obj 336 115 sampiface_msg_out_gate \$2 preset_number_c;
#X obj 37 194 samp_play \$1 and_make_longer;
#X connect 1 0 7 0;
#X connect 2 0 8 0;
#X connect 3 0 45 1;
#X connect 4 0 45 2;
#X connect 5 0 45 3;
#X connect 6 0 43 0;
#X connect 7 0 17 0;
#X connect 7 0 47 2;
#X connect 7 1 47 3;
#X connect 7 2 47 4;
#X connect 7 3 47 5;
#X connect 7 4 47 6;
#X connect 7 5 47 1;
#X connect 7 6 47 8;
#X connect 7 7 47 7;
#X connect 7 8 47 0;
#X connect 8 0 18 0;
#X connect 8 0 47 2;
#X connect 8 1 19 0;
#X connect 8 1 47 3;
#X connect 8 2 20 0;
#X connect 8 2 47 4;
#X connect 8 3 21 0;
#X connect 8 3 47 5;
#X connect 8 4 22 0;
#X connect 8 4 47 6;
#X connect 8 5 23 0;
#X connect 8 5 47 1;
#X connect 8 6 47 8;
#X connect 8 7 47 7;
#X connect 8 8 47 0;
#X connect 11 0 37 0;
#X connect 11 0 47 6;
#X connect 24 0 44 0;
#X connect 26 1 27 0;
#X connect 26 1 28 0;
#X connect 29 0 30 0;
#X connect 30 0 26 1;
#X connect 32 0 34 0;
#X connect 34 0 29 0;
#X connect 34 0 47 0;
#X connect 35 0 38 0;
#X connect 35 0 39 0;
#X connect 36 0 42 0;
#X connect 36 0 40 0;
#X connect 38 0 7 0;
#X connect 38 0 29 0;
#X connect 41 0 47 7;
#X connect 42 0 7 0;
#X connect 42 0 29 0;
#X connect 43 0 45 4;
#X connect 44 0 45 5;
#X connect 45 0 7 0;
#X connect 45 0 29 0;
#X connect 45 1 7 0;
#X connect 45 1 29 0;
#X connect 45 2 46 0;
#X connect 47 0 9 0;
#X connect 47 1 10 0;
#X connect 47 1 26 0;
#X connect 47 1 45 0;
#X connect 47 2 11 0;
