#N canvas 0 0 452 116 10;
#X obj -163 66 outlet;
#X obj -118 67 outlet;
#X obj -74 66 outlet;
#X obj -27 66 outlet;
#X obj 17 65 outlet;
#X obj 60 66 outlet;
#X obj 104 66 outlet;
#X obj 147 66 outlet;
#X obj 191 67 outlet;
#X obj -54 34 unpack f f f f f f f f s;
#X obj -53 7 inlet;
#X connect 9 0 0 0;
#X connect 9 1 1 0;
#X connect 9 2 2 0;
#X connect 9 3 3 0;
#X connect 9 4 4 0;
#X connect 9 5 5 0;
#X connect 9 6 6 0;
#X connect 9 7 7 0;
#X connect 9 8 8 0;
#X connect 10 0 9 0;
