#N canvas 213 321 636 208 10;
#X obj 39 19 bng 15 250 50 0 empty empty empty 0 -6 0 8 -262144 -1
-1;
#X obj 40 55 savepanel;
#X obj 68 19 inlet;
#X msg 38 78 \$1-1;
#X obj 21 132 outlet;
#X obj 67 135 outlet;
#X obj 109 136 outlet;
#X obj 154 137 outlet;
#X msg 146 79 \$1-4;
#X msg 109 80 \$1-3;
#X msg 72 80 \$1-2;
#X obj 21 108 symbol;
#X obj 67 108 symbol;
#X obj 109 107 symbol;
#X obj 154 107 symbol;
#X connect 0 0 1 0;
#X connect 1 0 3 0;
#X connect 1 0 10 0;
#X connect 1 0 9 0;
#X connect 1 0 8 0;
#X connect 2 0 1 0;
#X connect 3 0 11 0;
#X connect 8 0 14 0;
#X connect 9 0 13 0;
#X connect 10 0 12 0;
#X connect 11 0 4 0;
#X connect 12 0 5 0;
#X connect 13 0 6 0;
#X connect 14 0 7 0;
