#N canvas 253 231 454 304 10;
#X obj 70 3 inlet;
#X obj 128 134 gate 4;
#X obj 131 105 * 64;
#X msg 70 63 0;
#X msg 23 172 64;
#X obj 24 145 gate 2;
#X obj 24 118 + 1;
#X obj 95 251 outlet;
#X obj 140 250 outlet;
#X obj 182 249 outlet;
#X obj 225 248 outlet;
#X obj 139 5 inlet;
#X connect 0 0 3 0;
#X connect 0 0 2 0;
#X connect 0 0 6 0;
#X connect 1 0 7 0;
#X connect 1 1 8 0;
#X connect 1 2 9 0;
#X connect 1 3 10 0;
#X connect 2 0 1 1;
#X connect 3 0 7 0;
#X connect 3 0 8 0;
#X connect 3 0 9 0;
#X connect 3 0 10 0;
#X connect 4 0 7 0;
#X connect 4 0 8 0;
#X connect 4 0 9 0;
#X connect 4 0 10 0;
#X connect 5 0 4 0;
#X connect 6 0 5 0;
#X connect 6 0 5 1;
#X connect 11 0 1 0;
