#N canvas 112 248 373 118 10;
#X obj 6 7 inlet;
#X obj 76 9 inlet;
#X obj 116 8 inlet;
#X obj 156 11 inlet;
#X obj 197 9 inlet;
#X obj 236 8 inlet;
#X obj 42 7 inlet;
#X obj 277 8 inlet;
#X obj 129 72 outlet;
#X obj 314 7 inlet;
#X obj 129 49 funnel 9;
#X text 23 88 put changes after inlets to;
#X connect 0 0 10 0;
#X connect 1 0 10 2;
#X connect 2 0 10 3;
#X connect 3 0 10 4;
#X connect 4 0 10 5;
#X connect 5 0 10 6;
#X connect 6 0 10 1;
#X connect 7 0 10 7;
#X connect 9 0 10 8;
#X connect 10 0 8 0;
