#N canvas 394 357 452 302 10;
#X floatatom 105 148 5 0 0 0 - - -;
#X obj 75 148 + 1;
#X msg 75 79 1;
#X msg 88 122 0;
#X obj 62 196 / 3600;
#X obj 62 219 int;
#X obj 62 245 s samp_tmr_h_c;
#X obj 158 220 int;
#X obj 158 195 / 60;
#X obj 158 265 s samp_tmr_m_c;
#X obj 158 243 % 60;
#X obj 250 193 int;
#X obj 250 216 % 60;
#X obj 250 238 s samp_tmr_s_c;
#X obj 75 24 r samp_tmr_tog_i;
#X obj 88 101 r samp_tmr_rst_i;
#X obj 75 56 metro 1000;
#X connect 0 0 1 1;
#X connect 1 0 0 0;
#X connect 1 0 4 0;
#X connect 1 0 8 0;
#X connect 1 0 11 0;
#X connect 2 0 1 0;
#X connect 3 0 1 1;
#X connect 4 0 5 0;
#X connect 5 0 6 0;
#X connect 7 0 10 0;
#X connect 8 0 7 0;
#X connect 10 0 9 0;
#X connect 11 0 12 0;
#X connect 12 0 13 0;
#X connect 14 0 16 0;
#X connect 15 0 3 0;
#X connect 16 0 2 0;
