#N canvas 336 282 532 304 10;
#X obj 11 92 s global_time_c;
#X obj 39 113 s start_c;
#X obj 69 133 s length_c;
#X obj 238 48 s sampler_select_c;
#X obj 98 155 s samp_rate_c;
#X obj 125 176 s activate_c;
#X obj 152 198 s repeat_c;
#X obj 181 221 s volume_c;
#X obj 206 243 s divisor_c;
#X obj 332 134 s output_solo_c;
#X obj 305 113 s preview_solo_c;
#X obj 286 92 s update_from_preview_c;
#X obj 259 71 s send_output_c;
#X obj 17 35 sampmsg_unpack a_bit_longer;
#X obj 17 6 inlet;
#X obj 57 7 inlet;
#X obj 232 266 s filename_c;
#X obj 366 157 s song_c;
#X obj 238 8 inlet;
#X obj 259 28 inlet;
#X obj 286 7 inlet;
#X obj 305 27 inlet;
#X obj 332 5 inlet;
#X obj 365 25 inlet;
#X obj 39 62 sampmsg_defunnel a_bit_longer;
#X text 299 188 not used;
#X obj 383 46 inlet;
#X obj 384 178 s activate_oneshot_c;
#X connect 13 0 1 0;
#X connect 13 1 2 0;
#X connect 13 2 4 0;
#X connect 13 3 5 0;
#X connect 13 4 6 0;
#X connect 13 5 7 0;
#X connect 13 6 8 0;
#X connect 13 7 0 0;
#X connect 13 8 16 0;
#X connect 14 0 13 0;
#X connect 15 0 24 0;
#X connect 18 0 3 0;
#X connect 19 0 12 0;
#X connect 20 0 11 0;
#X connect 21 0 10 0;
#X connect 22 0 9 0;
#X connect 23 0 17 0;
#X connect 24 0 1 0;
#X connect 24 1 2 0;
#X connect 24 2 4 0;
#X connect 24 3 5 0;
#X connect 24 4 6 0;
#X connect 24 5 7 0;
#X connect 24 6 8 0;
#X connect 24 7 0 0;
#X connect 24 8 16 0;
#X connect 26 0 27 0;
