#N canvas 149 349 470 320 10;
#X obj 44 34 r rec_openout;
#X obj 64 57 r rec_reopenout;
#X obj 83 78 r rec_start;
#X obj 98 101 r rec_stop;
#X obj 114 124 r rec_gain;
#X obj 44 101 outlet;
#X obj 63 121 outlet;
#X obj 83 144 outlet;
#X obj 98 163 outlet;
#X obj 114 185 outlet;
#X obj 131 204 outlet;
#X obj 131 143 r rec_print;
#X obj 152 224 outlet;
#X obj 170 246 outlet;
#X obj 152 164 r rec_pre_out_i;
#X obj 171 185 r rec_in_out_i;
#X connect 0 0 5 0;
#X connect 1 0 6 0;
#X connect 2 0 7 0;
#X connect 3 0 8 0;
#X connect 4 0 9 0;
#X connect 11 0 10 0;
#X connect 14 0 12 0;
#X connect 15 0 13 0;
