#N canvas 693 434 278 326 10;
#X obj 16 9 inlet;
#X obj 137 212 table \$1-sample;
#X obj 16 105 sampmsg_unpack;
#X obj 16 161 sampmsg_defunnel;
#X obj 13 263 outlet~;
#X obj 119 8 inlet;
#X obj 175 9 inlet;
#X obj 16 74 gate 2;
#X obj 119 42 + 1;
#X obj 16 186 sampmsg_unpack;
#X obj 16 132 sampmsg_pack_to_funnel;
#X floatatom 190 240 8 0 0 0 - - -;
#X obj 16 36 sampmsg_view;
#X obj 2 238 samp_play \$1 and_make_longer;
#X connect 0 0 12 0;
#X connect 2 0 10 0;
#X connect 2 1 10 1;
#X connect 2 2 10 2;
#X connect 2 3 10 3;
#X connect 2 4 10 4;
#X connect 2 5 10 5;
#X connect 2 6 10 6;
#X connect 2 7 10 7;
#X connect 3 0 13 2;
#X connect 3 1 13 3;
#X connect 3 2 13 4;
#X connect 3 3 13 5;
#X connect 3 4 13 6;
#X connect 3 5 13 1;
#X connect 3 6 13 8;
#X connect 3 7 13 7;
#X connect 5 0 8 0;
#X connect 6 0 12 1;
#X connect 7 1 2 0;
#X connect 8 0 7 0;
#X connect 9 0 13 2;
#X connect 9 1 13 3;
#X connect 9 2 13 4;
#X connect 9 3 13 5;
#X connect 9 4 13 6;
#X connect 9 5 13 1;
#X connect 9 6 13 8;
#X connect 9 7 13 7;
#X connect 9 8 13 0;
#X connect 10 0 3 0;
#X connect 11 0 13 6;
#X connect 12 0 7 1;
#X connect 12 1 9 0;
#X connect 13 0 4 0;
#X connect 13 2 11 0;
