#N canvas 257 96 363 302 10;
#X obj 22 82 snapshot~;
#X obj 174 73 tgl 15 0 empty empty empty 0 -6 0 8 -262144 -1 -1 0 1
;
#X obj 238 146 max;
#X floatatom 238 168 5 0 0 0 - - -;
#X floatatom 20 151 5 0 0 0 - - -;
#X obj 22 108 rmstodb;
#X obj 22 131 - 100;
#X obj 288 153 * 1;
#X msg 288 128 1;
#X msg 253 125 -100;
#X obj 115 97 metro 10;
#X obj 190 189 pack f f;
#X obj 260 97 metro 500;
#X obj 177 96 metro 100;
#X msg 186 124 1;
#X obj 188 159 * 1;
#X obj 110 179 max;
#X floatatom 111 219 5 0 0 0 - - -;
#X obj 42 18 inlet~;
#X msg 132 137 -100;
#X obj 180 256 outlet;
#X obj 173 47 loadbang;
#X connect 0 0 5 0;
#X connect 1 0 10 0;
#X connect 1 0 12 0;
#X connect 1 0 13 0;
#X connect 2 0 3 0;
#X connect 3 0 2 1;
#X connect 3 0 7 1;
#X connect 3 0 11 1;
#X connect 5 0 6 0;
#X connect 6 0 4 0;
#X connect 6 0 16 0;
#X connect 8 0 7 0;
#X connect 9 0 2 1;
#X connect 10 0 0 0;
#X connect 11 0 20 0;
#X connect 12 0 9 0;
#X connect 12 0 8 0;
#X connect 13 0 14 0;
#X connect 13 0 19 0;
#X connect 14 0 15 0;
#X connect 15 0 11 0;
#X connect 15 0 2 0;
#X connect 16 0 17 0;
#X connect 17 0 16 1;
#X connect 17 0 15 1;
#X connect 18 0 0 0;
#X connect 19 0 16 1;
#X connect 21 0 1 0;
