#N canvas 0 0 216 165 10;
#X obj 48 94 *~ 1;
#X obj 24 70 *~ 1;
#X obj 24 49 == 0;
#X obj 53 70 *~ 1;
#X obj 53 49 == 1;
#X obj 17 14 inlet;
#X obj 57 14 inlet~;
#X obj 100 13 inlet~;
#X obj 49 120 outlet~;
#X connect 0 0 8 0;
#X connect 1 0 0 0;
#X connect 2 0 1 1;
#X connect 3 0 0 0;
#X connect 4 0 3 1;
#X connect 5 0 2 0;
#X connect 5 0 4 0;
#X connect 6 0 1 0;
#X connect 7 0 3 0;
