#N canvas 576 12 402 312 10;
#X msg 185 2 0.511;
#X msg 238 2 2.505;
#X obj 93 52 * 1;
#X obj 159 74 int;
#X obj 93 93 -;
#X floatatom 93 74 5 0 0 0 - - -;
#X floatatom 148 2 5 0 0 0 - - -;
#X msg 282 1 2.49;
#X obj 93 114 * 2;
#X obj 94 194 gate 4;
#X obj 86 164 tool_realgate;
#X obj 74 220 - 1;
#X obj 124 249 bng 15 250 50 0 empty empty empty 0 -6 0 8 -262144 -1
-1;
#X obj 142 249 bng 15 250 50 0 empty empty empty 0 -6 0 8 -262144 -1
-1;
#X obj 160 249 bng 15 250 50 0 empty empty empty 0 -6 0 8 -262144 -1
-1;
#X obj 178 249 bng 15 250 50 0 empty empty empty 0 -6 0 8 -262144 -1
-1;
#X obj 99 248 * 1;
#X obj 125 219 + 1;
#X msg 337 3 -3.5;
#X obj 63 3 inlet;
#X obj 99 269 outlet;
#X obj 93 136 + 2;
#X connect 0 0 2 0;
#X connect 1 0 2 0;
#X connect 2 0 3 0;
#X connect 2 0 5 0;
#X connect 3 0 4 1;
#X connect 3 0 10 1;
#X connect 4 0 8 0;
#X connect 5 0 4 0;
#X connect 6 0 2 0;
#X connect 7 0 2 0;
#X connect 8 0 21 0;
#X connect 9 0 12 0;
#X connect 9 0 11 0;
#X connect 9 1 13 0;
#X connect 9 1 16 0;
#X connect 9 2 14 0;
#X connect 9 2 16 0;
#X connect 9 3 15 0;
#X connect 9 3 17 0;
#X connect 10 0 9 0;
#X connect 10 1 9 1;
#X connect 11 0 16 0;
#X connect 16 0 20 0;
#X connect 17 0 16 0;
#X connect 18 0 2 0;
#X connect 19 0 2 0;
#X connect 21 0 10 0;
