#N canvas 756 31 721 764 10;
#X obj 75 22 gemhead;
#X msg 29 80 print;
#X obj 87 456 glsl_program;
#X obj 147 311 pack 0 0;
#X msg 31 192 print;
#X obj 168 291 t b f;
#X obj 168 246 change;
#X obj 146 121 change;
#X msg 147 351 link \$1 \$2;
#X msg 29 358 print;
#X floatatom 168 272 2 0 0 0 ID - -;
#X floatatom 146 144 2 0 0 0 ID - -;
#X obj 165 372 print linking;
#X obj 74 226 glsl_fragment;
#X obj 74 102 glsl_vertex;
#X obj 85 542 pix_image;
#X obj 85 575 pix_texture;
#X msg 24 539 mode \$1;
#X obj 24 505 tgl 15 0 empty empty empty 0 -6 0 8 -262144 -1 -1 0 1
;
#X obj 25 455 loadbang;
#X msg 25 479 0;
#X obj 135 26 bng 15 250 50 0 empty empty empty 0 -6 0 8 -262144 -1
-1;
#X obj 87 615 translateXYZ;
#X obj 86 642 rotateXYZ;
#X obj 86 669 square 5.7;
#X msg 88 80 open deforme_texture.vert;
#X msg 85 196 open deforme_texture.frag;
#X obj 72 51 alpha;
#X obj 108 496 loadbang;
#X msg 108 520 open buit_filtre1.jpg;
#X msg 323 359 K1 \$1;
#X floatatom 324 339 5 0 0 0 - - -;
#X floatatom 371 340 5 0 0 0 - - -;
#X floatatom 418 341 5 0 0 0 - - -;
#X msg 418 361 K3 \$1;
#X msg 370 360 K2 \$1;
#X obj 433 67 gemwin 50;
#X msg 435 36 create \, 1;
#X text 523 32 <- 1;
#X text 165 22 <- 2;
#X text 493 344 <- 3;
#X connect 0 0 27 0;
#X connect 1 0 14 0;
#X connect 2 0 15 0;
#X connect 3 0 8 0;
#X connect 4 0 13 0;
#X connect 5 0 3 0;
#X connect 5 1 3 1;
#X connect 6 0 10 0;
#X connect 7 0 11 0;
#X connect 8 0 2 0;
#X connect 8 0 12 0;
#X connect 9 0 2 0;
#X connect 10 0 5 0;
#X connect 11 0 3 0;
#X connect 13 0 2 0;
#X connect 13 1 6 0;
#X connect 14 0 13 0;
#X connect 14 1 7 0;
#X connect 15 0 16 0;
#X connect 16 0 22 0;
#X connect 17 0 16 0;
#X connect 18 0 17 0;
#X connect 19 0 20 0;
#X connect 20 0 18 0;
#X connect 21 0 25 0;
#X connect 21 0 26 0;
#X connect 22 0 23 0;
#X connect 23 0 24 0;
#X connect 25 0 14 0;
#X connect 26 0 13 0;
#X connect 27 0 14 0;
#X connect 28 0 29 0;
#X connect 29 0 15 0;
#X connect 30 0 2 0;
#X connect 31 0 30 0;
#X connect 32 0 35 0;
#X connect 33 0 34 0;
#X connect 34 0 2 0;
#X connect 35 0 2 0;
#X connect 37 0 36 0;
