#N canvas 2211 402 943 575 10;
#X obj 14 12 inlet~;
#X obj 189 426 outlet~;
#X obj 188 400 *~ 1;
#X obj 208 376 / 127;
#X obj 229 455 outlet~;
#X obj 234 401 *~ 1;
#X obj 256 378 / 127;
#X obj 15 185 delwrite~ \$0-delay_l 1000;
#X obj 61 210 delwrite~ \$0-delay_r 1000;
#X obj 62 12 inlet~;
#X obj 164 289 vd~ \$0-delay_l;
#X obj 215 314 vd~ \$0-delay_r;
#X obj 324 333 hsl 128 15 0 127 0 0 empty empty empty -2 -8 0 10 -262144
-1 -1 10500 1;
#X floatatom 325 105 0 0 0 0 - - -;
#X obj 268 239 sig~;
#X obj 260 178 pack f f;
#X msg 259 151 \$1 10;
#X obj 265 208 line 0 10;
#X obj 331 73 hsl 128 15 1 2000 1 0 empty empty empty -2 -8 0 10 -262144
-1 -1 8700 1;
#X connect 0 0 7 0;
#X connect 2 0 1 0;
#X connect 2 0 7 0;
#X connect 3 0 2 1;
#X connect 5 0 4 0;
#X connect 5 0 8 0;
#X connect 6 0 5 1;
#X connect 9 0 8 0;
#X connect 10 0 2 0;
#X connect 11 0 5 0;
#X connect 12 0 3 0;
#X connect 12 0 6 0;
#X connect 13 0 16 0;
#X connect 14 0 10 0;
#X connect 14 0 11 0;
#X connect 15 0 17 0;
#X connect 16 0 15 0;
#X connect 17 0 14 0;
#X connect 18 0 13 0;
