#N canvas 260 72 587 773 10;
#X obj 254 74 hsl 128 15 0 127 0 0 empty empty empty -2 -8 0 10 -262144
-1 -1 200 1;
#X floatatom 345 75 5 0 0 0 - - -;
#X obj 233 95 +~;
#X obj 185 105 +~;
#X obj 186 213 ../cmp/multi_osc1;
#X obj 376 200 *~ 1;
#X obj 408 171 hsl 128 15 0 128 0 0 empty empty empty -2 -8 0 10 -262144
-1 -1 298 1;
#X floatatom 500 171 5 0 0 0 - - -;
#X obj 389 55 samphold~;
#X obj 451 22 phasor~;
#X obj 382 4 noise~;
#X obj 457 -19 hsl 128 15 0 127 0 0 empty empty empty -2 -8 0 10 -262144
-1 -1 500 1;
#X obj 542 102 lop~;
#X floatatom 538 -20 5 0 0 0 - - -;
#X obj 93 346 *~ 1;
#X obj 20 217 ../cmp/multi_osc1;
#X msg 61 156 0 89 0 0;
#X obj 301 -27 bng 15 250 50 0 empty empty empty 17 7 0 10 -262144
-1 -1;
#X obj 301 -5 bang;
#X obj 300 -50 loadbang;
#X msg 405 149 3;
#X msg 251 50 2;
#X obj 92 367 outlet~;
#X text 67 -33 f;
#X obj 19 -36 inlet~;
#X obj 168 149 env~;
#X floatatom 218 171 5 0 0 0 - - -;
#X connect 0 0 1 0;
#X connect 0 0 2 1;
#X connect 2 0 3 1;
#X connect 3 0 4 3;
#X connect 3 0 25 0;
#X connect 4 0 14 0;
#X connect 5 0 2 0;
#X connect 6 0 5 1;
#X connect 6 0 7 0;
#X connect 8 0 12 0;
#X connect 9 0 8 1;
#X connect 10 0 8 0;
#X connect 11 0 9 0;
#X connect 11 0 12 1;
#X connect 11 0 13 0;
#X connect 12 0 5 0;
#X connect 14 0 22 0;
#X connect 15 0 14 0;
#X connect 16 0 15 1;
#X connect 16 0 4 1;
#X connect 17 0 18 0;
#X connect 18 0 16 0;
#X connect 18 0 21 0;
#X connect 18 0 20 0;
#X connect 19 0 17 0;
#X connect 20 0 6 0;
#X connect 21 0 0 0;
#X connect 24 0 3 0;
#X connect 24 0 15 3;
#X connect 25 0 26 0;
