#N canvas 1947 496 500 613 10;
#X floatatom 73 89 5 0 0 0 - - -;
#X obj 74 162 mtof;
#X obj 73 60 unpack f f;
#X obj 226 347 line~ 0 10;
#X obj 226 325 pack f f;
#X obj 75 362 *~;
#X obj 224 299 / 128;
#X obj 73 33 inlet;
#X obj 77 399 outlet~;
#X text 119 33 note \, vel;
#X obj 204 37 inlet;
#X obj 75 211 line~ 0 10;
#X obj 75 184 pack f f;
#X obj 74 242 ../cmp/multi_osc1;
#X obj 267 34 inlet;
#X obj 73 112 + 0;
#X connect 0 0 15 0;
#X connect 1 0 12 0;
#X connect 2 0 0 0;
#X connect 2 1 6 0;
#X connect 3 0 5 1;
#X connect 4 0 3 0;
#X connect 5 0 8 0;
#X connect 6 0 4 0;
#X connect 7 0 2 0;
#X connect 10 0 12 1;
#X connect 10 0 4 1;
#X connect 11 0 13 3;
#X connect 12 0 11 0;
#X connect 13 0 5 0;
#X connect 14 0 13 1;
#X connect 15 0 1 0;
