#N canvas 804 264 984 846 10;
#X obj 318 439 float;
#X msg 687 -3 4 -3 -5 5 -1 0 0 3 4 6 7 -14 4 -3 4 5;
#X obj 315 382 env;
#X obj 335 293 route 0 1 2 3 4 5 6 7 8 9 10 11 12 13 14 15;
#X obj 285 208 pack f 0;
#X obj 638 183 + 1;
#X obj 581 184 float;
#X obj 581 158 until;
#X obj 671 176 bang;
#X msg 581 136 bang;
#X msg 659 141 0;
#X text 686 136 reset;
#X obj 475 144 list;
#X obj 582 218 moses 16;
#X obj 424 242 pack f f f;
#X obj 473 168 list split 1;
#X msg 589 -5 2;
#X obj 475 122 bng 15 250 50 0 empty empty empty 17 7 0 10 -262144
-1 -1;
#X obj 397 186 f;
#X floatatom 615 40 5 0 0 0 - - -;
#X obj 481 211 list split 1;
#X obj 455 57 t b f f;
#X floatatom 581 243 5 0 0 0 - - -;
#X msg 554 -3 1;
#X obj 317 466 outlet;
#X obj 370 506 outlet~;
#X obj 606 60 t b b f;
#X msg 629 -3 3;
#X obj 473 383 bng 15 250 50 0 empty empty empty 17 7 0 10 -262144
-1 -1;
#X text 489 384 snap;
#X obj 618 470 t b b;
#X floatatom 254 467 5 0 0 0 - - -;
#X obj 577 490 * 1;
#X obj 556 519 bng 15 250 50 0 empty empty empty 17 7 0 10 -262144
-1 -1;
#X obj 655 519 list;
#X obj 644 497 bng 15 250 50 0 empty empty empty 17 7 0 10 -262144
-1 -1;
#X obj 574 518 list prepend;
#X obj 556 541 list;
#X obj 543 44 inlet;
#X obj 456 8 inlet;
#X text 454 24 setnumner;
#X text 542 60 listvals;
#X obj 155 143 inlet;
#X obj 112 211 sig~;
#X msg 108 189 1;
#X obj 140 189 loadbang;
#X obj 556 563 outlet;
#X obj 817 593 outlet;
#X text 488 399 zeroBang;
#X obj 793 498 random 16;
#X obj 808 537 pack f f f;
#X obj 867 515 int;
#X floatatom 891 547 5 0 0 0 - - -;
#X obj 865 495 random 2;
#X obj 908 459 loadbang;
#X obj 816 566 bng 15 250 50 0 empty empty empty 17 7 0 10 -262144
-1 -1;
#X msg 169 367 5 0;
#X obj 825 422 spigot;
#X obj 857 402 == 0;
#X msg 837 517 5;
#X obj 827 383 t b f;
#X obj 826 472 t b b;
#X obj 876 423 tgl 15 0 empty empty empty 17 7 0 10 -262144 -1 -1 1
1;
#X obj 881 361;
#X obj 474 402 bng 15 250 50 0 empty empty empty 17 7 0 10 -262144
-1 -1;
#X obj 521 383 tgl 15 0 empty empty empty 17 7 0 10 -262144 -1 -1 0
1;
#X text 540 383 autoTog;
#X obj 825 448 spigot;
#X obj 869 445 tgl 15 0 empty empty empty 17 7 0 10 -262144 -1 -1 0
1;
#X obj 678 74 spigot;
#X obj 678 39 t b f;
#X obj 727 31 >= 3;
#X msg 657 -3 4;
#X obj 784 32 <= 4;
#X obj 750 61 &&;
#X floatatom 4 366 5 0 0 0 - - -;
#X obj 399 344 sw;
#X obj 428 344 sw;
#X obj 315 344 sw;
#X obj 168 399 sw;
#X obj 341 344 sw;
#X obj 371 344 sw;
#X obj 457 344 sw;
#X obj 485 344 sw;
#X obj 514 344 sw;
#X obj 542 344 sw;
#X obj 570 344 sw;
#X obj 599 344 sw;
#X obj 628 343 sw;
#X obj 657 343 sw;
#X obj 686 344 sw;
#X obj 714 344 sw;
#X obj 743 343 sw;
#X connect 0 0 24 0;
#X connect 0 0 31 0;
#X connect 1 0 12 1;
#X connect 2 0 25 0;
#X connect 3 0 60 0;
#X connect 3 0 78 0;
#X connect 3 1 80 0;
#X connect 3 2 81 0;
#X connect 3 3 76 0;
#X connect 3 4 77 0;
#X connect 3 5 82 0;
#X connect 3 6 83 0;
#X connect 3 7 84 0;
#X connect 3 8 85 0;
#X connect 3 9 86 0;
#X connect 3 10 87 0;
#X connect 3 11 88 0;
#X connect 3 12 89 0;
#X connect 3 13 90 0;
#X connect 3 14 91 0;
#X connect 3 15 92 0;
#X connect 4 0 3 0;
#X connect 5 0 6 1;
#X connect 6 0 5 0;
#X connect 6 0 13 0;
#X connect 7 0 6 0;
#X connect 8 0 7 1;
#X connect 8 0 33 0;
#X connect 9 0 7 0;
#X connect 10 0 6 1;
#X connect 12 0 15 0;
#X connect 13 0 21 0;
#X connect 13 0 22 0;
#X connect 13 1 8 0;
#X connect 14 0 3 0;
#X connect 15 1 20 0;
#X connect 16 0 19 0;
#X connect 17 0 12 0;
#X connect 18 0 14 0;
#X connect 19 0 26 0;
#X connect 20 0 14 2;
#X connect 21 0 18 0;
#X connect 21 1 18 1;
#X connect 21 1 17 0;
#X connect 21 2 15 1;
#X connect 23 0 19 0;
#X connect 26 0 9 0;
#X connect 26 1 10 0;
#X connect 26 2 14 1;
#X connect 26 2 70 0;
#X connect 27 0 19 0;
#X connect 28 0 30 0;
#X connect 30 1 35 0;
#X connect 32 0 36 0;
#X connect 33 0 37 0;
#X connect 34 0 36 1;
#X connect 35 0 36 1;
#X connect 36 0 34 0;
#X connect 36 0 37 1;
#X connect 37 0 46 0;
#X connect 38 0 12 1;
#X connect 39 0 19 0;
#X connect 42 0 4 0;
#X connect 43 0 2 0;
#X connect 44 0 43 0;
#X connect 45 0 44 0;
#X connect 49 0 50 0;
#X connect 50 0 3 0;
#X connect 51 0 50 2;
#X connect 51 0 52 0;
#X connect 53 0 51 0;
#X connect 54 0 59 0;
#X connect 55 0 47 0;
#X connect 56 0 79 0;
#X connect 57 0 64 0;
#X connect 57 0 67 0;
#X connect 58 0 57 1;
#X connect 58 0 62 0;
#X connect 59 0 50 1;
#X connect 60 0 57 0;
#X connect 60 1 58 0;
#X connect 61 0 49 0;
#X connect 61 1 53 0;
#X connect 64 0 55 0;
#X connect 65 0 68 0;
#X connect 67 0 61 0;
#X connect 68 0 67 1;
#X connect 69 0 30 0;
#X connect 70 0 69 0;
#X connect 70 1 71 0;
#X connect 70 1 73 0;
#X connect 71 0 74 0;
#X connect 72 0 19 0;
#X connect 73 0 74 1;
#X connect 74 0 69 1;
#X connect 76 0 0 0;
#X connect 76 0 2 1;
#X connect 76 1 32 0;
#X connect 77 0 0 0;
#X connect 77 0 2 1;
#X connect 77 1 32 0;
#X connect 78 0 0 0;
#X connect 78 0 2 1;
#X connect 78 1 32 0;
#X connect 80 0 0 0;
#X connect 80 0 2 1;
#X connect 80 1 32 0;
#X connect 81 0 0 0;
#X connect 81 0 2 1;
#X connect 81 1 32 0;
#X connect 82 0 0 0;
#X connect 82 0 2 1;
#X connect 82 1 32 0;
#X connect 83 0 0 0;
#X connect 83 0 2 1;
#X connect 83 1 32 0;
#X connect 84 0 0 0;
#X connect 84 0 2 1;
#X connect 84 1 32 0;
#X connect 85 0 0 0;
#X connect 85 0 2 1;
#X connect 85 1 32 0;
#X connect 86 0 0 0;
#X connect 86 0 2 1;
#X connect 86 1 32 0;
#X connect 87 0 0 0;
#X connect 87 0 2 1;
#X connect 87 1 32 0;
#X connect 88 0 0 0;
#X connect 88 0 2 1;
#X connect 88 1 32 0;
#X connect 89 0 0 0;
#X connect 89 0 2 1;
#X connect 89 1 32 0;
#X connect 90 0 0 0;
#X connect 90 0 2 1;
#X connect 90 1 32 0;
#X connect 91 0 0 0;
#X connect 91 0 2 1;
#X connect 91 1 32 0;
#X connect 92 0 0 0;
#X connect 92 0 2 1;
#X connect 92 1 32 0;
#X coords 0 -1 1 1 465 80 1 310 340;
