#N canvas 486 322 368 424 8;
#X obj 90 310 pix_film;
#X obj 143 308 t f b;
#X obj 95 220 tgl 15 0 empty empty empty 0 -6 0 8 -262144 -1 -1 1 1
;
#X obj 124 248 bng 15 250 50 0 empty empty empty 0 -6 0 8 -262144 -1
-1;
#X floatatom 128 227 5 0 0 0 - - -;
#X obj 96 241 metro;
#X obj 136 269 + 1;
#X obj 100 275 f;
#X floatatom 116 152 5 0 0 0 - - -;
#X msg 117 167 1000;
#X obj 117 186 / 29;
#X text 141 237 pos;
#X text 139 169 frm_rt;
#X obj 127 289 mod 1000;
#X floatatom 88 292 5 0 0 0 - - -;
#X floatatom 163 270 5 0 0 0 - - -;
#X obj 146 149 bng 15 250 50 0 empty empty empty 0 -6 0 8 -262144 -1
-1;
#X obj 90 372 outlet;
#X text 149 257 totFrames;
#X obj 10 17 inlet;
#X text 9 5 gemHead;
#X msg 52 173 open \$1;
#X obj 29 173 bng 15 250 50 0 empty empty empty 0 -6 0 8 -262144 -1
-1;
#X obj 48 154 unpack s;
#X obj 87 199 r mov_auto;
#X obj 54 193 print f1;
#X obj 285 21 inlet;
#X text 284 9 osc;
#X obj 257 43 OSCroute /film;
#X obj 257 64 OSCroute /play;
#X obj 258 107 OSCroute /pos;
#X obj 90 344 spigot;
#X obj 156 344 tgl 15 0 empty empty empty 17 7 0 10 -262144 -1 -1 1
1;
#X obj 260 128 OSCroute /show;
#X obj 53 117 openpanel;
#X obj 95 50 bng 15 250 50 0 empty empty empty 17 7 0 10 -262144 -1
-1;
#X floatatom 150 35 5 0 0 0 - - -;
#X floatatom 115 34 5 0 0 0 - - -;
#X msg 116 3 29;
#X obj 217 9 loadbang;
#X obj 94 31 tgl 15 0 empty empty empty 17 7 0 10 -262144 -1 -1 1 1
;
#X obj 144 53 tgl 15 0 empty empty empty 17 7 0 10 -262144 -1 -1 1
1;
#X text 94 17 play;
#X text 122 22 fr;
#X text 112 53 open;
#X text 150 22 pos;
#X text 161 52 show;
#X floatatom 156 12 5 0 0 0 - - -;
#X obj 257 85 OSCroute /fr;
#X connect 0 0 31 0;
#X connect 0 1 15 0;
#X connect 0 2 1 0;
#X connect 1 0 0 1;
#X connect 2 0 5 0;
#X connect 3 0 7 0;
#X connect 4 0 13 0;
#X connect 4 0 3 0;
#X connect 5 0 7 0;
#X connect 6 0 13 0;
#X connect 7 0 6 0;
#X connect 7 0 14 0;
#X connect 7 0 0 1;
#X connect 8 0 10 1;
#X connect 8 0 16 0;
#X connect 9 0 10 0;
#X connect 10 0 5 1;
#X connect 13 0 7 1;
#X connect 14 0 47 0;
#X connect 15 0 13 1;
#X connect 16 0 9 0;
#X connect 19 0 0 0;
#X connect 21 0 0 0;
#X connect 21 0 22 0;
#X connect 21 0 25 0;
#X connect 23 0 21 0;
#X connect 26 0 28 0;
#X connect 26 0 29 0;
#X connect 26 0 30 0;
#X connect 26 0 33 0;
#X connect 26 0 48 0;
#X connect 28 0 23 0;
#X connect 29 0 40 0;
#X connect 30 0 36 0;
#X connect 31 0 17 0;
#X connect 32 0 31 1;
#X connect 33 0 41 0;
#X connect 34 0 23 0;
#X connect 35 0 34 0;
#X connect 36 0 4 0;
#X connect 37 0 8 0;
#X connect 38 0 37 0;
#X connect 39 0 38 0;
#X connect 40 0 2 0;
#X connect 41 0 32 0;
#X connect 48 0 37 0;
#X coords 0 -1 1 1 100 60 1 90 10;
