#N canvas 111 761 450 300 10;
#X obj 145 95 spigot;
#X obj 194 92 tgl 15 0 empty empty empty 17 7 0 10 -262144 -1 -1 0
1;
#X obj 177 4 inlet;
#X obj 152 148 outlet;
#X obj 209 100 bng 8 250 50 0 empty empty empty 17 7 0 10 -262144 -1
-1;
#X obj 209 91 bng 8 250 50 0 empty empty empty 17 7 0 10 -262144 -1
-1;
#X floatatom 195 110 3 0 0 0 - - -;
#X obj 198 62 != 0;
#X obj 235 128 outlet;
#X obj 234 68 bng 15 250 50 0 empty empty empty 17 7 0 10 -262144 -1
-1;
#X obj 152 123 f;
#X obj 234 93 f;
#X text 310 7 1 = set toggle (0/1);
#X text 310 -2 0 = trigger;
#X text 310 16 2 = set num;
#X text 310 26 3 = output num;
#X text 310 36 4 = output toggle;
#X text 310 47 5 = toggle toggle;
#X obj 261 88 int;
#X obj 201 30 route 0 1 2 3 4 5;
#X obj 288 106 int;
#X obj 288 131 == 0;
#X obj 252 363 != 0;
#X text 240 44 33;
#X text 261 46 44;
#X text 209 44 11;
#X text 225 44 22;
#X floatatom 374 84 5 0 0 0 - - -;
#X floatatom 346 103 5 0 0 0 - - -;
#X obj 258 63 bng 15 250 50 0 empty empty empty 17 7 0 10 -262144 -1
-1;
#X text 281 45 55;
#X obj 275 60 != 0;
#X connect 0 0 4 0;
#X connect 0 0 10 0;
#X connect 1 0 0 1;
#X connect 1 0 31 0;
#X connect 2 0 5 0;
#X connect 2 0 19 0;
#X connect 6 0 10 1;
#X connect 6 0 11 1;
#X connect 7 0 1 0;
#X connect 9 0 11 0;
#X connect 10 0 3 0;
#X connect 11 0 8 0;
#X connect 18 0 8 0;
#X connect 18 0 27 0;
#X connect 19 0 0 0;
#X connect 19 1 7 0;
#X connect 19 2 6 0;
#X connect 19 3 9 0;
#X connect 19 4 29 0;
#X connect 19 5 20 0;
#X connect 20 0 21 0;
#X connect 21 0 1 0;
#X connect 29 0 18 0;
#X connect 31 0 18 1;
#X connect 31 0 28 0;
#X coords 0 -1 1 1 25 35 1 192 90;
