#N canvas 503 77 1105 780 10;
#X obj 230 61 metro 100;
#X obj 285 16 hsl 128 15 10 1000 1 0 empty empty empty -2 -8 0 10 -262144
-1 -1 8900 1;
#X obj 229 41 tgl 15 0 empty empty empty 17 7 0 10 -262144 -1 -1 1
1;
#X floatatom 287 122 0 0 0 0 - - -;
#X obj 287 97 + 1;
#X obj 230 98 float;
#X floatatom 231 124 5 0 0 0 - - -;
#X obj 235 150 mod 16;
#X obj 49 149 ../cmp/multi_osc1;
#X obj 223 545 ../cmp/mixer;
#X obj 60 484 *~ 1;
#X obj 351 757 dac~;
#X obj 55 118 hsl 128 15 20 3000 1 0 empty empty empty -2 -8 0 10 -262144
-1 -1 5199 1;
#X obj 437 300 select 0 1 2 3 4 5 6 7 8 9 10 11 12 13 14 15;
#X obj 395 436 env;
#X obj 433 121 ../cmp/multi_osc1;
#X obj 439 75 hsl 128 15 50 3000 1 0 empty empty empty -2 -8 0 10 -262144
-1 -1 7200 1;
#X obj 51 457 vcf~;
#X obj 63 442 hsl 128 10 100 3000 1 0 empty empty empty -2 -8 0 10
-262144 -1 -1 5300 1;
#X obj 89 458 hsl 128 15 0.5 100 1 0 empty empty empty -2 -8 0 10 -262144
-1 -1 9700 1;
#X obj 571 626 float;
#X obj 392 557 ../cmp/multi_osc1;
#X obj 570 712 *~ 1;
#X obj 391 494 + 62;
#X obj 392 534 mtof;
#X obj 597 93 mtof;
#X obj 647 72 hsl 128 15 0 127 0 0 empty empty empty -2 -8 0 10 -262144
-1 -1 3300 1;
#X obj 823 617 ../cmp/flanger_st;
#X msg 752 473 4 -3 -5 5 -1 0 0 3 4 6 7 -14 4 -3 4 5;
#X obj 790 216 throw~ f;
#X obj 800 246 catch~ f;
#X msg 897 59 1 2;
#X msg 949 57 2 3;
#X obj 897 132 print y1;
#X obj 391 513 + 1;
#X obj 424 515 hsl 128 10 -24 24 0 0 empty empty empty -2 -8 0 10 -262144
-1 -1 10400 1;
#X obj 644 92 int;
#X floatatom 744 73 5 0 0 0 - - -;
#X obj 924 151 print y2;
#X obj 944 171 print y3;
#X obj 964 196 print y4;
#X obj 618 245 route;
#X obj 713 300 f;
#X obj 701 50 bng 15 250 50 0 empty empty empty 17 7 0 10 -262144 -1
-1;
#X obj 10 89 mtof;
#X obj 60 68 hsl 128 15 0 127 0 0 empty empty empty -2 -8 0 10 -262144
-1 -1 5100 1;
#X obj 57 88 int;
#X floatatom 157 69 5 0 0 0 - - -;
#X obj 58 5 random 12;
#X obj 114 46 bng 15 250 50 0 empty empty empty 17 7 0 10 -262144 -1
-1;
#X obj 58 45 + 25;
#X obj 87 24 hsl 128 15 0 127 0 0 empty empty empty -2 -8 0 10 -262144
-1 -1 4300 1;
#X obj 49 269 *~ 1;
#X obj 89 268 hsl 128 15 0.1 100 1 0 empty empty empty -2 -8 0 10 -262144
-1 -1 11900 1;
#X obj 43 414 env;
#X obj 571 667 env;
#X obj 492 532 int;
#X obj 316 727 *~ 1;
#X obj 225 726 *~ 1;
#X obj 356 725 hsl 128 15 0 3 0 0 empty empty empty -2 -8 0 10 -262144
-1 -1 2900 1;
#X obj 281 39 / 2;
#X obj 313 41 hsl 128 15 1 16 0 0 empty empty empty -2 -8 0 10 -262144
-1 -1 847 1;
#X obj 311 61 t b f;
#X msg 509 40 4;
#X msg 475 39 2;
#X msg 447 39 1;
#X floatatom 404 43 5 0 0 0 - - -;
#X floatatom 381 17 5 0 0 0 - - -;
#X obj 899 95 route 1 2 3;
#X msg 947 574 3.9 1.9 0 93 78.74 94;
#X obj 645 9 random 24;
#X obj 645 49 + 25;
#X obj 569 524 sw;
#X obj 81 326 sw;
#X obj 94 369 sw;
#X obj 113 327 sw;
#X obj 127 370 sw;
#X obj 146 325 sw;
#X obj 161 372 sw;
#X obj 177 324 sw;
#X obj 192 370 sw;
#X obj 210 324 sw;
#X obj 221 369 sw;
#X obj 245 324 sw;
#X obj 253 369 sw;
#X obj 276 325 sw;
#X obj 290 373 sw;
#X obj 309 324 sw;
#X obj 322 370 sw;
#X obj 437 324 sw;
#X obj 451 364 sw;
#X obj 469 325 sw;
#X obj 484 365 sw;
#X obj 502 323 sw;
#X obj 518 367 sw;
#X obj 533 322 sw;
#X obj 549 365 sw;
#X obj 566 322 sw;
#X obj 578 364 sw;
#X obj 601 322 sw;
#X obj 610 364 sw;
#X obj 632 323 sw;
#X obj 647 368 sw;
#X obj 665 322 sw;
#X obj 679 365 sw;
#X obj 585 563 sw;
#X obj 601 525 sw;
#X obj 618 564 sw;
#X obj 633 524 sw;
#X obj 652 566 sw;
#X obj 665 522 sw;
#X obj 683 564 sw;
#X obj 697 522 sw;
#X obj 714 564 sw;
#X obj 733 522 sw;
#X obj 744 563 sw;
#X obj 764 523 sw;
#X obj 781 567 sw;
#X obj 797 522 sw;
#X obj 813 564 sw;
#X obj 549 464 pack f 0;
#X obj 569 500 route 0 1 2 3 4 5 6 7 8 9 10 11 12 13 14 15;
#X obj 348 205 pack f 0;
#X obj 213 235 pack f 0;
#X obj 81 302 route 0 1 2 3 4 5 6 7 8 9 10 11 12 13 14 15;
#X connect 0 0 5 0;
#X connect 1 0 60 0;
#X connect 1 0 67 0;
#X connect 2 0 0 0;
#X connect 4 0 3 0;
#X connect 4 0 5 1;
#X connect 5 0 4 0;
#X connect 5 0 6 0;
#X connect 6 0 7 0;
#X connect 7 0 13 0;
#X connect 7 0 120 0;
#X connect 7 0 123 0;
#X connect 8 0 52 0;
#X connect 9 0 58 0;
#X connect 9 1 57 0;
#X connect 10 0 9 0;
#X connect 10 0 9 1;
#X connect 12 0 8 0;
#X connect 13 0 70 0;
#X connect 13 0 89 0;
#X connect 13 1 90 0;
#X connect 13 2 91 0;
#X connect 13 3 92 0;
#X connect 13 4 93 0;
#X connect 13 5 94 0;
#X connect 13 6 95 0;
#X connect 13 7 96 0;
#X connect 13 8 97 0;
#X connect 13 9 98 0;
#X connect 13 10 99 0;
#X connect 13 11 100 0;
#X connect 13 12 101 0;
#X connect 13 13 102 0;
#X connect 13 14 103 0;
#X connect 13 15 42 0;
#X connect 13 15 104 0;
#X connect 14 0 9 2;
#X connect 14 0 9 3;
#X connect 15 0 14 0;
#X connect 16 0 15 0;
#X connect 17 0 10 0;
#X connect 18 0 17 1;
#X connect 19 0 17 2;
#X connect 20 0 23 0;
#X connect 21 0 55 0;
#X connect 22 0 9 4;
#X connect 22 0 9 5;
#X connect 23 0 34 0;
#X connect 24 0 21 0;
#X connect 25 0 15 0;
#X connect 26 0 36 0;
#X connect 27 0 22 0;
#X connect 31 0 68 0;
#X connect 32 0 68 0;
#X connect 34 0 24 0;
#X connect 35 0 56 0;
#X connect 36 0 25 0;
#X connect 36 0 37 0;
#X connect 44 0 12 0;
#X connect 45 0 46 0;
#X connect 46 0 44 0;
#X connect 46 0 47 0;
#X connect 48 0 49 0;
#X connect 48 0 50 0;
#X connect 50 0 45 0;
#X connect 51 0 50 1;
#X connect 52 0 54 0;
#X connect 53 0 52 1;
#X connect 54 0 17 0;
#X connect 55 0 27 0;
#X connect 56 0 34 1;
#X connect 57 0 11 1;
#X connect 58 0 11 0;
#X connect 59 0 57 1;
#X connect 59 0 58 1;
#X connect 60 0 0 1;
#X connect 61 0 62 0;
#X connect 61 0 66 0;
#X connect 62 0 60 0;
#X connect 62 1 60 1;
#X connect 63 0 61 0;
#X connect 64 0 61 0;
#X connect 65 0 61 0;
#X connect 68 0 33 0;
#X connect 68 1 38 0;
#X connect 68 2 39 0;
#X connect 68 3 40 0;
#X connect 69 0 27 9;
#X connect 70 0 43 0;
#X connect 70 0 71 0;
#X connect 71 0 26 0;
#X connect 72 0 20 0;
#X connect 72 0 55 1;
#X connect 73 0 54 1;
#X connect 74 0 54 1;
#X connect 75 0 54 1;
#X connect 76 0 54 1;
#X connect 77 0 54 1;
#X connect 78 0 54 1;
#X connect 79 0 54 1;
#X connect 80 0 54 1;
#X connect 81 0 54 1;
#X connect 82 0 54 1;
#X connect 83 0 54 1;
#X connect 84 0 54 1;
#X connect 85 0 54 1;
#X connect 86 0 54 1;
#X connect 87 0 54 1;
#X connect 88 0 54 1;
#X connect 89 0 14 1;
#X connect 90 0 14 1;
#X connect 91 0 14 1;
#X connect 92 0 14 1;
#X connect 93 0 14 1;
#X connect 94 0 14 1;
#X connect 95 0 14 1;
#X connect 96 0 14 1;
#X connect 97 0 14 1;
#X connect 98 0 14 1;
#X connect 99 0 14 1;
#X connect 100 0 14 1;
#X connect 101 0 14 1;
#X connect 102 0 14 1;
#X connect 103 0 14 1;
#X connect 104 0 14 1;
#X connect 105 0 20 0;
#X connect 105 0 55 1;
#X connect 106 0 20 0;
#X connect 106 0 55 1;
#X connect 107 0 20 0;
#X connect 107 0 55 1;
#X connect 108 0 20 0;
#X connect 108 0 55 1;
#X connect 109 0 20 0;
#X connect 109 0 55 1;
#X connect 110 0 20 0;
#X connect 110 0 55 1;
#X connect 111 0 20 0;
#X connect 111 0 55 1;
#X connect 112 0 20 0;
#X connect 112 0 55 1;
#X connect 113 0 20 0;
#X connect 113 0 55 1;
#X connect 114 0 20 0;
#X connect 114 0 55 1;
#X connect 115 0 20 0;
#X connect 115 0 55 1;
#X connect 116 0 20 0;
#X connect 116 0 55 1;
#X connect 117 0 20 0;
#X connect 117 0 55 1;
#X connect 118 0 20 0;
#X connect 118 0 55 1;
#X connect 119 0 20 0;
#X connect 119 0 55 1;
#X connect 120 0 121 0;
#X connect 121 0 72 0;
#X connect 121 1 105 0;
#X connect 121 2 106 0;
#X connect 121 3 107 0;
#X connect 121 4 108 0;
#X connect 121 5 109 0;
#X connect 121 6 110 0;
#X connect 121 7 111 0;
#X connect 121 8 112 0;
#X connect 121 9 113 0;
#X connect 121 10 114 0;
#X connect 121 11 115 0;
#X connect 121 12 116 0;
#X connect 121 13 117 0;
#X connect 121 14 118 0;
#X connect 121 15 119 0;
#X connect 123 0 124 0;
#X connect 124 0 48 0;
#X connect 124 0 73 0;
#X connect 124 1 74 0;
#X connect 124 2 75 0;
#X connect 124 3 76 0;
#X connect 124 4 77 0;
#X connect 124 5 78 0;
#X connect 124 6 79 0;
#X connect 124 7 80 0;
#X connect 124 8 81 0;
#X connect 124 9 82 0;
#X connect 124 10 83 0;
#X connect 124 11 84 0;
#X connect 124 12 85 0;
#X connect 124 13 86 0;
#X connect 124 14 87 0;
#X connect 124 15 88 0;
