#N canvas 806 388 435 404 10;
#X floatatom 85 200 0 0 0 0 - - -;
#X floatatom 57 200 0 0 0 0 - - -;
#X floatatom 114 200 0 0 0 0 - - -;
#X obj 157 339 scale 1;
#X obj 31 59 inlet;
#X obj 157 367 outlet;
#X text 32 34 gemhead;
#X obj 29 229 rotateXYZ 0 0 0;
#X obj 158 268 translateXYZ 0 0 0;
#X obj 101 29 inlet;
#X text 161 351 gem list;
#X obj 101 55 unpack 0 0 0 0 0 0 0 0;
#X obj 58 130 pack 0 0;
#X obj 57 154 line;
#X obj 86 152 pack 0 0;
#X obj 85 176 line;
#X obj 117 107 pack 0 0;
#X obj 116 131 line;
#X obj 192 217 pack 0 0;
#X obj 191 241 line;
#X obj 226 167 pack 0 0;
#X obj 225 191 line;
#X obj 262 215 pack 0 0;
#X obj 261 239 line;
#X obj 176 291 pack 0 0;
#X obj 175 315 line;
#X floatatom 309 248 5 0 0 0 - - -;
#X floatatom 257 194 5 0 0 0 - - -;
#X floatatom 222 241 5 0 0 0 - - -;
#X connect 0 0 7 2;
#X connect 1 0 7 1;
#X connect 2 0 7 3;
#X connect 3 0 5 0;
#X connect 4 0 7 0;
#X connect 7 0 8 0;
#X connect 8 0 3 0;
#X connect 9 0 11 0;
#X connect 11 0 12 0;
#X connect 11 1 14 0;
#X connect 11 2 16 0;
#X connect 11 3 18 0;
#X connect 11 4 20 0;
#X connect 11 5 22 0;
#X connect 11 6 24 0;
#X connect 11 7 12 1;
#X connect 11 7 14 1;
#X connect 11 7 16 1;
#X connect 11 7 20 1;
#X connect 11 7 22 1;
#X connect 11 7 18 1;
#X connect 11 7 24 1;
#X connect 12 0 13 0;
#X connect 13 0 1 0;
#X connect 14 0 15 0;
#X connect 15 0 0 0;
#X connect 16 0 17 0;
#X connect 17 0 2 0;
#X connect 18 0 19 0;
#X connect 19 0 8 1;
#X connect 19 0 28 0;
#X connect 20 0 21 0;
#X connect 21 0 8 2;
#X connect 21 0 27 0;
#X connect 22 0 23 0;
#X connect 23 0 8 3;
#X connect 23 0 26 0;
#X connect 24 0 25 0;
#X connect 25 0 3 1;
