#N canvas 115 248 450 352 10;
#X obj 26 56 gemhead -1;
#X obj 25 145 pix_snap2tex;
#X obj 70 98 t b b;
#X obj 25 105 t b a;
#X obj 25 169 alpha;
#X floatatom 200 155 5 0 0 0 - - -;
#X obj 203 11 vsl 15 128 0 1 0 0 empty empty empty 0 -8 0 8 -262144
-1 -1 0 1;
#X obj 22 235 colorRGB 1 1 1 0.888;
#X obj 70 79 loadbang;
#X obj 88 176 hsl 128 15 0 1 0 0 empty empty empty -2 -6 0 8 -262144
-1 -1 0 1;
#X obj 97 196 hsl 128 15 0 1 0 0 empty empty empty -2 -6 0 8 -262144
-1 -1 0 1;
#X obj 108 213 hsl 128 15 0 1 0 0 empty empty empty -2 -6 0 8 -262144
-1 -1 0 1;
#X obj 116 2 gemmouse;
#X obj 111 50 pack f f;
#X obj 162 28 * 1;
#X obj 112 28 * 1;
#X msg 131 97 640 480;
#X obj 27 35 tgl 15 0 empty empty empty 0 -6 0 8 -262144 -1 -1 0 1
;
#X msg 70 121 0 0;
#X obj 24 12 inlet;
#X obj 245 20 inlet;
#X obj 129 281 hsl 128 15 0 10 0 0 empty empty empty -2 -6 0 8 -262144
-1 -1 0 1;
#X obj 296 26 inlet;
#X obj 330 153 OSCroute /r;
#X obj 332 175 OSCroute /g;
#X obj 332 198 OSCroute /b;
#X obj 373 3 inlet;
#X obj 331 97 OSCroute /sq;
#X obj 332 77 OSCroute /alpha;
#X obj 331 55 OSCroute /on;
#X obj 332 122 OSCroute /rot;
#X obj 23 260 rotateXYZ;
#X obj 23 316 square 2;
#X obj 200 255 hsl 128 15 -10 10 0 0 empty empty empty -2 -6 0 8 -262144
-1 -1 0 1;
#X obj 73 11 inlet;
#X msg 132 121 \$1 \$2;
#X connect 0 0 3 0;
#X connect 1 0 4 0;
#X connect 2 0 18 0;
#X connect 2 1 16 0;
#X connect 3 0 1 0;
#X connect 3 1 1 0;
#X connect 4 0 7 0;
#X connect 5 0 7 4;
#X connect 6 0 5 0;
#X connect 7 0 31 0;
#X connect 8 0 2 0;
#X connect 9 0 7 1;
#X connect 10 0 7 2;
#X connect 11 0 7 3;
#X connect 12 0 15 0;
#X connect 12 1 14 0;
#X connect 13 0 18 0;
#X connect 14 0 13 1;
#X connect 15 0 13 0;
#X connect 16 0 35 0;
#X connect 17 0 0 0;
#X connect 18 0 1 1;
#X connect 19 0 17 0;
#X connect 20 0 6 0;
#X connect 21 0 32 1;
#X connect 22 0 21 0;
#X connect 23 0 9 0;
#X connect 24 0 10 0;
#X connect 25 0 11 0;
#X connect 26 0 29 0;
#X connect 26 0 28 0;
#X connect 26 0 27 0;
#X connect 26 0 23 0;
#X connect 26 0 24 0;
#X connect 26 0 25 0;
#X connect 26 0 30 0;
#X connect 27 0 21 0;
#X connect 28 0 6 0;
#X connect 29 0 17 0;
#X connect 30 0 33 0;
#X connect 31 0 32 0;
#X connect 33 0 31 3;
#X connect 34 0 35 0;
#X connect 35 0 1 2;
