#N canvas 185 73 796 606 12;
#X obj 67 398 dac~;
#X obj 68 351 *~;
#X text 148 401 this is the sound out;
#X obj 108 310 tgl 32 0 empty empty empty 0 -6 0 8 -258699 -1 -1 0
1;
#X text 147 314 kill switch!;
#X obj 67 273 *~;
#X obj 119 239 / 100;
#X obj 119 209 nbx 5 24 -1e+37 1e+37 0 1 empty empty VOLUME 0 -6 0
10 -241291 -1 -1 32 256;
#X obj 67 139 osc~;
#X obj 67 104 mtof;
#X obj 81 69 hsl 128 15 0 127 0 0 empty empty empty -2 -6 0 8 -262144
-1 -1 0 1;
#X obj 67 33 key;
#X obj 128 -2 metro;
#X obj 128 -42 tgl 32 0 empty empty empty 0 -6 0 8 -62784 -1 -1 0 1
;
#X floatatom 198 -42 5 0 0 0 - - -;
#X obj 128 32 random 127;
#N canvas 82 40 668 588 mysubpatch 0;
#X obj 93 435 outlet;
#X obj 94 89 metro;
#X obj 94 133 f;
#X obj 162 133 + 1;
#X obj 93 184 mod 2;
#X obj 94 -21 inlet toggle on off;
#X obj 164 10 inlet metro speed;
#X obj 306 41 inlet counter number;
#X obj 93 278 select 0;
#X obj 253 279 select 3;
#X msg 93 336 66;
#X msg 253 337 72;
#X floatatom 240 229 5 0 0 0 - - -;
#X connect 1 0 2 0;
#X connect 2 0 3 0;
#X connect 2 0 4 0;
#X connect 3 0 2 1;
#X connect 4 0 8 0;
#X connect 4 0 9 0;
#X connect 4 0 12 0;
#X connect 5 0 1 0;
#X connect 6 0 1 1;
#X connect 7 0 4 1;
#X connect 8 0 10 0;
#X connect 9 0 11 0;
#X connect 10 0 0 0;
#X connect 11 0 0 0;
#X restore 300 80 pd mysubpatch;
#X obj 300 28 tgl 32 0 empty empty empty 0 -6 0 8 -166441 -1 -1 0 1
;
#X floatatom 395 28 5 0 0 0 - - -;
#X floatatom 490 28 5 0 0 0 - - -;
#X floatatom 317 156 5 0 0 0 - - -;
#X connect 1 0 0 0;
#X connect 1 0 0 1;
#X connect 3 0 1 1;
#X connect 5 0 1 0;
#X connect 6 0 5 1;
#X connect 7 0 6 0;
#X connect 8 0 5 0;
#X connect 9 0 8 0;
#X connect 10 0 9 0;
#X connect 11 0 9 0;
#X connect 12 0 15 0;
#X connect 13 0 12 0;
#X connect 14 0 12 1;
#X connect 15 0 9 0;
#X connect 16 0 20 0;
#X connect 17 0 16 0;
#X connect 18 0 16 1;
#X connect 19 0 16 2;
#X connect 20 0 9 0;
