#N canvas 72 167 450 300 10;
#X floatatom 38 47 0 0 0 0 - - -;
#X text 126 160 write to delay line;
#X text 187 72 read from delay line;
#X text 3 143 add the original and the delayed signal;
#X obj 19 159 +~;
#X obj 38 125 *~ 0.7;
#X text 142 127 feedback gain;
#X obj 17 23 inlet~;
#X obj 19 231 outlet~;
#X obj 154 15 hsl 128 15 0 127 0 0 empty empty empty -2 -8 0 10 -262144
-1 -1 0 1;
#X obj 153 36 hsl 128 15 0 127 0 0 empty empty empty -2 -8 0 10 -262144
-1 -1 0 1;
#X obj 82 161 +~;
#X obj 94 126 *~ 0.7;
#X obj 80 25 inlet~;
#X obj 82 233 outlet~;
#X obj 29 183 delwrite~ \$0-del-l 2000;
#X obj 90 201 delwrite~ \$0-del-r 2000;
#X obj 37 70 delread~ \$0-del-l 160;
#X obj 93 92 delread~ \$0-del-r 160;
#X obj 334 17 r \$1-del-time;
#X obj 333 39 r \$1-del-amt;
#X connect 0 0 17 0;
#X connect 0 0 18 0;
#X connect 4 0 8 0;
#X connect 4 0 15 0;
#X connect 5 0 4 1;
#X connect 7 0 4 0;
#X connect 9 0 0 0;
#X connect 10 0 5 1;
#X connect 10 0 12 1;
#X connect 11 0 14 0;
#X connect 11 0 16 0;
#X connect 12 0 11 1;
#X connect 13 0 11 0;
#X connect 17 0 5 0;
#X connect 18 0 12 0;
#X connect 19 0 9 0;
#X connect 20 0 10 0;
