#N canvas 24 230 749 719 10;
#X obj 60 520 *~;
#X obj 67 6 inlet;
#X obj 60 545 outlet~;
#X obj 67 30 unpack f f;
#X floatatom 65 74 0 0 0 0 - - -;
#X obj 66 50 mtof;
#X obj 60 497 vcf~;
#X obj 101 497 r i2-res;
#X obj 71 471 sig~;
#X obj 95 176 phasor~;
#X obj 113 275 line~;
#X obj 94 300 +~;
#X obj 95 328 +~ 0;
#X obj 132 299 hsl 128 15 20 1000 0 0 empty empty empty -2 -8 0 10
-262144 -1 -1 0 1;
#X obj 101 96 hsl 128 15 0 50 0 0 empty empty empty -2 -8 0 10 -262144
-1 -1 0 1;
#X floatatom 189 96 5 0 0 0 - - -;
#X msg 228 236 0 \, 1 1000;
#X obj 95 147 sig~ 440;
#X obj 95 224 *~ 1;
#X obj 121 200 hsl 128 15 0 1000 0 0 empty empty empty -2 -8 0 10 -262144
-1 -1 0 1;
#X obj 98 410 phasor~ 0;
#X obj 79 435 -~;
#X obj 80 362 phasor~;
#X obj 98 386 +~ 0.2;
#X obj 167 364 * 2;
#X obj 272 293 hsl 128 15 0 64 0 0 empty empty empty -2 -8 0 10 -262144
-1 -1 0 1;
#X floatatom 363 292 5 0 0 0 - - -;
#X obj 268 315 int;
#X obj 174 342 t b f;
#X msg 229 265 0 1000;
#X floatatom 134 321 5 0 0 0 - - -;
#X obj 174 505 line~ 0 10;
#X obj 177 433 / 127;
#X obj 174 480 pack f 10;
#X obj 189 70 r i2-ramp_fr;
#X floatatom 210 203 5 0 0 0 - - -;
#X obj 175 162 r i2-ramp_mod;
#X obj 324 258 r i2-phase_multiplier;
#X connect 0 0 2 0;
#X connect 1 0 3 0;
#X connect 3 0 5 0;
#X connect 3 1 32 0;
#X connect 4 0 8 0;
#X connect 4 0 30 0;
#X connect 5 0 4 0;
#X connect 6 0 0 0;
#X connect 7 0 6 2;
#X connect 8 0 6 1;
#X connect 9 0 18 0;
#X connect 10 0 11 1;
#X connect 11 0 12 0;
#X connect 12 0 22 0;
#X connect 12 0 23 0;
#X connect 13 0 30 0;
#X connect 14 0 24 0;
#X connect 14 0 15 0;
#X connect 15 0 17 0;
#X connect 16 0 10 0;
#X connect 17 0 9 0;
#X connect 18 0 11 0;
#X connect 19 0 35 0;
#X connect 20 0 21 1;
#X connect 21 0 6 0;
#X connect 22 0 21 0;
#X connect 23 0 20 0;
#X connect 24 0 23 1;
#X connect 25 0 27 0;
#X connect 27 0 26 0;
#X connect 27 0 28 0;
#X connect 28 0 24 0;
#X connect 28 1 24 1;
#X connect 29 0 10 0;
#X connect 30 0 12 1;
#X connect 31 0 0 1;
#X connect 32 0 33 0;
#X connect 33 0 31 0;
#X connect 34 0 15 0;
#X connect 35 0 18 1;
#X connect 36 0 35 0;
#X connect 37 0 27 0;
