#N canvas 1215 174 450 407 10;
#X obj 32 335 outlet~;
#X obj 70 313 outlet~;
#X obj 42 32 inlet;
#X obj 96 6 inlet;
#X obj 33 286 *~ 1;
#X obj 43 114 pack f f f;
#X obj 43 93 poly 3;
#X obj 42 134 route 1 2 3;
#X obj 44 164 instrument.4.synth.1;
#X obj 58 187 instrument.4.synth.1;
#X obj 76 209 instrument.4.synth.1;
#X obj 103 69 r stop;
#X obj 239 213 outlet;
#X obj 216 84 spigot;
#X floatatom 231 107 5 0 0 0 - - -;
#X msg 239 179 send /click/trig \$1;
#X connect 2 0 6 0;
#X connect 2 0 13 0;
#X connect 3 0 6 1;
#X connect 3 0 13 1;
#X connect 4 0 0 0;
#X connect 4 0 1 0;
#X connect 5 0 7 0;
#X connect 6 0 5 0;
#X connect 6 1 5 1;
#X connect 6 2 5 2;
#X connect 7 0 8 0;
#X connect 7 1 9 0;
#X connect 7 2 10 0;
#X connect 8 0 4 0;
#X connect 9 0 4 0;
#X connect 10 0 4 0;
#X connect 11 0 6 0;
#X connect 13 0 15 0;
#X connect 13 0 14 0;
#X connect 15 0 12 0;
