#N canvas 1064 528 731 513 10;
#X obj 58 346 *~;
#X obj 52 -53 inlet;
#X obj 158 334 line~ 0 10;
#X obj 158 185 / 127;
#X obj 159 310 pack f 10;
#X obj 59 383 outlet~;
#X obj 52 -29 unpack f f;
#X obj 8 39 mtof;
#X obj 279 327 hsl 128 15 0 1 0 0 empty empty empty -2 -8 0 10 -262144
-1 -1 0 1;
#X obj 193 373 sig~;
#X msg 248 302 1;
#X msg 282 300 0;
#X obj 258 -55 openpanel;
#X obj 239 -54 bng 15 250 50 0 empty empty empty 17 7 0 10 -262144
-1 -1;
#X obj 402 -56 r \$1-start;
#X obj 331 -54 r \$1-file;
#X floatatom 8 64 5 0 0 0 - - -;
#X floatatom 6 16 5 0 0 0 - - -;
#X msg 332 -18 file \$1;
#X msg 402 -17 start \$1;
#X msg 115 139 trig \$1;
#X obj 502 122 print ---;
#X obj 501 99 bng 15 250 50 0 empty empty empty 17 7 0 10 -262144 -1
-1;
#X obj 354 134 timestretch;
#X obj 176 211 == 0;
#X obj 168 264 del 20;
#X msg 167 285 stop;
#X msg 482 -15 sr \$1;
#X obj 544 -55 r \$1-ctrpit;
#X floatatom 544 -28 5 0 0 0 - - -;
#X floatatom 484 -34 5 0 0 0 - - -;
#X floatatom 404 -37 5 0 0 0 - - -;
#X msg 196 100 pitch \$1;
#X text 92 17 difference from middle c;
#X obj 162 59 t b f;
#X floatatom 269 53 5 0 0 0 - - -;
#X floatatom 631 -36 5 0 0 0 - - -;
#X msg 629 -16 speed \$1;
#X obj 629 -55 r \$1-speed;
#X obj 483 -56 r \$1-sr;
#X obj 126 92 != 0;
#X obj 113 115 route 1;
#X obj 176 236 route 1;
#X obj 121 164 bng 15 250 50 0 empty empty empty 17 7 0 10 -262144
-1 -1;
#X floatatom 58 122 5 0 0 0 - - -;
#X floatatom 63 69 5 0 0 0 - - -;
#X obj 57 15 - 70;
#X obj 57 38 * 8;
#X connect 0 0 5 0;
#X connect 1 0 6 0;
#X connect 2 0 0 1;
#X connect 3 0 4 0;
#X connect 3 0 24 0;
#X connect 4 0 2 0;
#X connect 6 0 7 0;
#X connect 6 0 17 0;
#X connect 6 0 46 0;
#X connect 6 1 3 0;
#X connect 6 1 40 1;
#X connect 7 0 16 0;
#X connect 8 0 9 0;
#X connect 10 0 4 0;
#X connect 11 0 4 0;
#X connect 12 0 18 0;
#X connect 13 0 12 0;
#X connect 14 0 31 0;
#X connect 15 0 18 0;
#X connect 18 0 23 0;
#X connect 19 0 23 0;
#X connect 20 0 23 0;
#X connect 22 0 21 0;
#X connect 23 0 0 0;
#X connect 24 0 42 0;
#X connect 25 0 26 0;
#X connect 27 0 23 0;
#X connect 28 0 29 0;
#X connect 29 0 46 1;
#X connect 30 0 27 0;
#X connect 31 0 19 0;
#X connect 32 0 23 0;
#X connect 34 0 40 0;
#X connect 34 1 32 0;
#X connect 36 0 37 0;
#X connect 37 0 23 0;
#X connect 38 0 36 0;
#X connect 39 0 30 0;
#X connect 40 0 41 0;
#X connect 40 0 44 0;
#X connect 41 0 20 0;
#X connect 42 0 25 0;
#X connect 46 0 47 0;
#X connect 47 0 34 0;
#X connect 47 0 45 0;
