#N canvas 92 128 450 407 10;
#X obj 32 335 outlet~;
#X obj 70 313 outlet~;
#X obj 43 70 inlet;
#X obj 82 48 inlet;
#X obj 43 93 poly 4;
#X obj 42 134 route 1 2 3 4;
#X obj 43 114 pack f f f;
#X obj 33 286 *~ 1;
#X obj 167 102 hsl 128 15 0.01 10 0 0 empty empty empty -2 -8 0 10
-262144 -1 -1 1259 1;
#X floatatom 258 102 5 0 0 0 - - -;
#X obj 164 53 loadbang;
#X msg 164 78 1;
#X obj 76 209 instrument.3.synth;
#X obj 58 187 instrument.3.synth;
#X obj 100 232 instrument.3.synth;
#X obj 43 164 instrument.3.synth;
#X obj 103 69 r stop;
#X obj 300 272 outlet;
#X obj 279 167 spigot;
#X floatatom 320 196 5 0 0 0 - - -;
#X msg 300 239 send /gosc/trig \$1;
#X connect 2 0 4 0;
#X connect 2 0 18 0;
#X connect 3 0 4 1;
#X connect 3 0 18 1;
#X connect 4 0 6 0;
#X connect 4 1 6 1;
#X connect 4 2 6 2;
#X connect 5 0 15 0;
#X connect 5 1 13 0;
#X connect 5 2 12 0;
#X connect 5 3 14 0;
#X connect 6 0 5 0;
#X connect 7 0 0 0;
#X connect 7 0 1 0;
#X connect 8 0 9 0;
#X connect 8 0 12 1;
#X connect 8 0 13 1;
#X connect 8 0 14 1;
#X connect 8 0 15 1;
#X connect 10 0 11 0;
#X connect 11 0 8 0;
#X connect 12 0 7 0;
#X connect 13 0 7 0;
#X connect 14 0 7 0;
#X connect 15 0 7 0;
#X connect 16 0 4 0;
#X connect 18 0 20 0;
#X connect 18 0 19 0;
#X connect 20 0 17 0;
