#N canvas 319 486 446 629 10;
#X obj 23 442 outlet~;
#X obj 163 443 outlet~;
#X obj 22 24 inlet;
#X obj 61 2 inlet;
#X obj 21 90 route 1 2 3 4;
#X obj 22 68 pack f f f;
#X obj 22 270 *~ 1;
#X obj 82 23 r stop;
#X obj 26 298 ../cmp/flanger_st;
#X obj 130 75 bng 15 250 50 0 empty empty empty 17 7 0 10 -262144 -1
-1;
#X obj 22 47 poly 4 1;
#X obj 43 141 instrument.1.synth;
#X obj 91 250 unpack f f f f f f;
#X obj 217 25 loadbang;
#X msg 92 226 0 8.6 51 69 381 78;
#X obj 21 119 instrument.1.synth;
#X obj 65 164 instrument.1.synth;
#X obj 87 186 instrument.1.synth;
#X obj 299 487 outlet;
#X msg 299 453 send /osc/trig \$1;
#X obj 203 90 spigot;
#X floatatom 244 119 5 0 0 0 - - -;
#X connect 2 0 10 0;
#X connect 2 0 20 0;
#X connect 3 0 10 1;
#X connect 3 0 20 1;
#X connect 4 0 15 0;
#X connect 4 1 11 0;
#X connect 4 2 16 0;
#X connect 4 3 17 0;
#X connect 5 0 4 0;
#X connect 5 0 9 0;
#X connect 6 0 8 0;
#X connect 6 0 8 1;
#X connect 7 0 10 0;
#X connect 8 0 0 0;
#X connect 8 1 1 0;
#X connect 10 0 5 0;
#X connect 10 1 5 1;
#X connect 10 2 5 2;
#X connect 11 0 6 0;
#X connect 12 0 8 2;
#X connect 12 1 8 3;
#X connect 12 2 8 4;
#X connect 12 3 8 5;
#X connect 12 4 8 6;
#X connect 12 5 8 7;
#X connect 13 0 14 0;
#X connect 14 0 12 0;
#X connect 15 0 6 0;
#X connect 16 0 6 0;
#X connect 17 0 6 0;
#X connect 19 0 18 0;
#X connect 20 0 19 0;
#X connect 20 0 21 0;
