#N canvas 72 228 1607 880 10;
#X obj 32 335 outlet~;
#X obj 70 313 outlet~;
#X obj 42 68 inlet;
#X obj 82 48 inlet;
#X obj 42 134 route 1 2 3 4;
#X obj 43 114 pack f f f;
#X obj 33 286 *~ 1;
#X obj 115 86 bng 15 250 50 0 empty empty empty 17 7 0 10 -262144 -1
-1;
#X obj 242 178 s i6-file;
#X obj 315 178 s i6-sr;
#X obj 460 178 s i6-start;
#X obj 40 40 bng 15 250 50 0 empty empty empty 17 7 0 10 -262144 -1
-1;
#X obj 425 816 s i6-start;
#X obj 418 788 hsl 128 15 0 1 0 0 empty empty empty -2 -8 0 10 -262144
-1 -1 0 1;
#X floatatom 510 789 5 0 0 0 - - -;
#X obj 556 788 hsl 128 15 0 2 0 0 empty empty empty -2 -8 0 10 -262144
-1 -1 0 1;
#X floatatom 649 789 5 0 0 0 - - -;
#X obj 553 813 s i6-speed;
#X msg 89 461 0.228 0.818;
#X text 172 461 just say what you want;
#X text 174 439 it represents the very latest;
#X text 173 415 audiovisual technology;
#X obj 275 154 unpack s f f 0;
#X obj 374 178 s i6-ctrpit;
#X obj 43 164 instrument.6.synth i6;
#X obj 44 93 poly 4 1;
#X text 174 394 how about a little music;
#X text 174 487 audiovisual stimulation centre;
#X obj 685 196 inlet;
#X obj 629 196 inlet;
#X obj 86 363 route 10 11 12 13 14 15 16 17 18 19;
#X obj 441 353 route 20 21 22 23 24 25 26 27 28 29;
#X obj 630 221 spigot;
#X obj 131 58 r stop;
#X floatatom 691 231 5 0 0 0 - - -;
#X text 177 512 voice activated;
#X text 176 532 over there is the centrex;
#X msg 88 439 0.291 1.039;
#X msg 88 486 0.111 0.9;
#X msg 91 511 0.149 0.9;
#X msg 90 531 0.055 1.05;
#X msg 87 390 0.417 0.7;
#X obj 58 187 instrument.6.synth i6;
#X obj 77 209 instrument.6.synth i6;
#X obj 100 232 instrument.6.synth i6;
#X text 218 339 av_machine;
#X obj 513 734 unpack f f;
#X obj 49 572 s \$0-setPos;
#X obj 514 710 r \$0-setPos;
#X obj 434 564 s \$0-setPos;
#X msg 443 384 0.094 1.039;
#X text 537 384 its the very latest in air cushioned comfort;
#X text 543 409 wel you could have fooled me;
#X msg 449 409 0 0.881;
#X msg 458 433 0.653 1.118;
#X text 552 433 been programmed to respond to your voice;
#X msg 469 457 0.842 1.118;
#X text 564 457 fire up on a little more subtle phrase;
#X msg 479 480 0.968 0.881;
#X text 573 480 you'll have to get to know me better;
#X obj 622 253 route 5 6 7 8;
#X msg 88 415 0.346 1.039;
#X obj 748 772 outlet;
#X obj 735 149 symbol;
#X obj 157 110 spigot;
#X msg 745 705 send /mov/trig \$1;
#X msg 756 734 send /mov/file \$1;
#X msg 730 681 send /mov/start \$1;
#X msg 715 656 send /mov/speed \$1;
#X obj 211 110 spigot;
#X obj 210 85 == 0;
#X msg 715 625 send /mov/end \$1;
#X obj 910 330 route 30 31 32 33 34;
#X msg 910 363 0 1;
#X obj 909 507 s \$0-setPos;
#X msg 934 397 0.338 1.1;
#X msg 977 452 0.464 1.244;
#X msg 946 427 0.44 1.1244;
#X msg 710 74 /mnt/home/robm/media/video/buckrogers/mpg/buckrogers_buck_rgr_slumber_ctr_cpk_400x300_ky1.mpg.avi
;
#X msg 712 112 /mnt/home/robm/media/video/buckrogers/mpg/buck_rgr_av_maachine_cpk_400x300_ky1.mpg.avi
;
#X msg 273 0 /mnt/home/robm/media/video/buckrogers/wav/buck_rgr_500yrs_old_cpk_400x300_ky1.wav
48000 75;
#X msg 274 37 /mnt/home/robm/media/video/buckrogers/wav/buck_rgr_intro_cpk_400x300_ky1.wav
48000 75;
#X msg 276 75 /mnt/home/robm/media/video/buckrogers/wav/buck_rgr_slumber_ctr_cpk_400x300_ky1.wav
48000 75;
#X msg 276 110 /mnt/home/robm/media/video/buckrogers/wav/buck_rgr_av_maachine_cpk_400x300_ky1.wav
48000 75;
#X msg 990 167 /mnt/home/robm/media/video/nuc_vid/wav/nuc_doorstep_ky5.wav
48000 75;
#X msg 1019 205 /mnt/home/robm/media/video/immersion/nuc_doorstep_blast.avi.avi
;
#X connect 2 0 7 0;
#X connect 2 0 25 0;
#X connect 2 0 64 0;
#X connect 2 0 69 0;
#X connect 3 0 25 1;
#X connect 3 0 64 1;
#X connect 3 0 70 0;
#X connect 4 0 24 0;
#X connect 4 1 42 0;
#X connect 4 2 43 0;
#X connect 4 3 44 0;
#X connect 5 0 4 0;
#X connect 6 0 0 0;
#X connect 6 0 1 0;
#X connect 13 0 12 0;
#X connect 13 0 14 0;
#X connect 13 0 67 0;
#X connect 15 0 16 0;
#X connect 15 0 17 0;
#X connect 18 0 47 0;
#X connect 22 0 8 0;
#X connect 22 1 9 0;
#X connect 22 2 23 0;
#X connect 22 3 10 0;
#X connect 24 0 6 0;
#X connect 25 0 5 0;
#X connect 25 1 5 1;
#X connect 25 2 5 2;
#X connect 28 0 32 1;
#X connect 29 0 32 0;
#X connect 30 0 41 0;
#X connect 30 1 61 0;
#X connect 30 2 37 0;
#X connect 30 3 18 0;
#X connect 30 4 38 0;
#X connect 30 5 39 0;
#X connect 30 6 40 0;
#X connect 31 0 50 0;
#X connect 31 1 53 0;
#X connect 31 2 54 0;
#X connect 31 3 56 0;
#X connect 31 4 58 0;
#X connect 32 0 30 0;
#X connect 32 0 31 0;
#X connect 32 0 34 0;
#X connect 32 0 60 0;
#X connect 32 0 72 0;
#X connect 33 0 25 0;
#X connect 37 0 47 0;
#X connect 38 0 47 0;
#X connect 39 0 47 0;
#X connect 40 0 47 0;
#X connect 41 0 47 0;
#X connect 42 0 6 0;
#X connect 43 0 6 0;
#X connect 44 0 6 0;
#X connect 46 0 12 0;
#X connect 46 0 67 0;
#X connect 46 1 17 0;
#X connect 46 1 68 0;
#X connect 48 0 46 0;
#X connect 50 0 49 0;
#X connect 53 0 49 0;
#X connect 54 0 49 0;
#X connect 56 0 49 0;
#X connect 58 0 49 0;
#X connect 60 0 83 0;
#X connect 60 1 82 0;
#X connect 60 2 84 0;
#X connect 61 0 47 0;
#X connect 63 0 66 0;
#X connect 64 0 65 0;
#X connect 65 0 62 0;
#X connect 66 0 62 0;
#X connect 67 0 62 0;
#X connect 68 0 62 0;
#X connect 69 0 71 0;
#X connect 70 0 69 1;
#X connect 71 0 62 0;
#X connect 72 0 73 0;
#X connect 72 1 75 0;
#X connect 72 2 77 0;
#X connect 72 3 76 0;
#X connect 73 0 74 0;
#X connect 75 0 74 0;
#X connect 76 0 74 0;
#X connect 77 0 74 0;
#X connect 78 0 63 0;
#X connect 79 0 63 0;
#X connect 80 0 22 0;
#X connect 81 0 22 0;
#X connect 82 0 22 0;
#X connect 82 0 78 0;
#X connect 83 0 22 0;
#X connect 83 0 79 0;
#X connect 84 0 85 0;
#X connect 84 0 22 0;
#X connect 85 0 63 0;
