#N canvas 660 15 559 522 10;
#X obj 68 39 inlet;
#X obj 68 91 mtof;
#X obj 182 118 / 127;
#X obj 69 461 outlet~;
#X obj 68 67 unpack f f;
#X obj 70 376 hip~ 1;
#X obj 25 139 ../cmp/multi_osc1;
#X obj 24 314 *~;
#X obj 183 162 sel 0;
#X msg 183 191 0;
#X msg 220 190 1;
#X obj 239 132 tgl 15 0 empty empty empty 17 7 0 10 -262144 -1 -1 0
1;
#X obj 262 194 bng 15 250 50 0 empty empty empty 17 7 0 10 -262144
-1 -1;
#X obj 168 192 bng 15 250 50 0 empty empty empty 17 7 0 10 -262144
-1 -1;
#X obj 44 263 adsr 1 100 200 60 200;
#X obj 43 287 *~ -1;
#X obj 233 37 r i1-sq;
#X obj 364 38 r i1-sin;
#X obj 295 38 r i1-saw;
#X obj 429 39 r i1-dut;
#X obj 233 70 pack f f f f;
#X connect 0 0 4 0;
#X connect 1 0 6 0;
#X connect 2 0 8 0;
#X connect 4 0 1 0;
#X connect 4 1 2 0;
#X connect 5 0 3 0;
#X connect 6 0 7 0;
#X connect 7 0 5 0;
#X connect 8 0 9 0;
#X connect 8 0 13 0;
#X connect 8 1 10 0;
#X connect 8 1 12 0;
#X connect 9 0 14 0;
#X connect 10 0 14 0;
#X connect 11 0 8 0;
#X connect 14 0 15 0;
#X connect 15 0 7 1;
#X connect 16 0 20 0;
#X connect 17 0 20 2;
#X connect 18 0 20 1;
#X connect 19 0 20 3;
#X connect 20 0 6 1;
