#N canvas 766 6 1118 400 10;
#X obj 152 361 dac~;
#X obj 50 171 *~ 1;
#X obj 91 172 *~ 1;
#X obj 40 143 hsl 128 15 0 3 0 0 empty empty empty -2 -8 0 10 -262144
-1 -1 0 1;
#X floatatom 130 144 5 0 0 0 - - -;
#X obj 49 81 notein 1;
#X obj 176 82 notein 2;
#X obj 176 117 instrument.2;
#X obj 49 118 instrument.1;
#X obj 190 169 *~ 1;
#X obj 231 170 *~ 1;
#X obj 180 141 hsl 128 15 0 3 0 0 empty empty empty -2 -8 0 10 -262144
-1 -1 0 1;
#X floatatom 270 142 5 0 0 0 - - -;
#X obj 332 79 notein 3;
#X obj 332 113 instrument.3;
#X obj 334 167 *~ 1;
#X obj 375 168 *~ 1;
#X obj 324 139 hsl 128 15 0 10 0 0 empty empty empty -2 -8 0 10 -262144
-1 -1 0 1;
#X floatatom 414 140 5 0 0 0 - - -;
#X obj 479 162 *~ 1;
#X obj 520 163 *~ 1;
#X obj 468 133 hsl 128 15 0 3 0 0 empty empty empty -2 -8 0 10 -262144
-1 -1 0 1;
#X floatatom 559 135 5 0 0 0 - - -;
#X obj 477 108 instrument.4;
#X obj 477 74 notein 4;
#X obj 799 156 *~ 1;
#X obj 840 157 *~ 1;
#X obj 789 128 hsl 128 15 0 10 0 0 empty empty empty -2 -8 0 10 -262144
-1 -1 3175 1;
#X floatatom 879 129 5 0 0 0 - - -;
#X obj 771 60 notein 6;
#X obj 633 162 *~ 1;
#X obj 679 160 *~ 1;
#X obj 629 130 hsl 128 15 0 3 0 0 empty empty empty -2 -8 0 10 -262144
-1 -1 0 1;
#X floatatom 718 132 5 0 0 0 - - -;
#X obj 636 73 notein 5;
#X obj 636 105 instrument.5;
#X obj 797 102 instrument.6;
#X obj 942 157 *~ 1;
#X obj 983 158 *~ 1;
#X obj 932 129 hsl 128 15 0 3 0 0 empty empty empty -2 -8 0 10 -262144
-1 -1 0 1;
#X floatatom 1022 130 5 0 0 0 - - -;
#X obj 940 103 instrument.7;
#X obj 940 60 notein 7;
#X obj 851 59 notein 8;
#X text 914 30 sample control;
#X obj 60 30 s stop;
#X msg 58 8 stop;
#X text 728 33 notes;
#X text 789 6 samples granular;
#X text 946 7 percussion;
#X text 332 45 granulated osc;
#X text 478 55 osc click;
#X text 630 43 noise click;
#X text 168 54 phasor pwm;
#X text 334 60 (radiobuzz);
#X obj 577 9 loadbang;
#X obj 903 86 bng 15 250 50 0 empty init empty 17 7 0 10 -262144 -1
-1;
#X obj 579 31 s init;
#X msg 898 105 2.5;
#X obj 844 263 bng 15 250 50 0 empty empty empty 0 -6 0 8 -262144 -1
-1;
#X obj 844 237 loadbang;
#X obj 797 281 spigot;
#X obj 815 264 tgl 15 0 empty empty empty 0 -6 0 8 -262144 -1 -1 1
1;
#X obj 928 222 print osc;
#X obj 828 303 sendOSC;
#X text 56 62 envosc;
#X msg 847 281 connect localhost 10012;
#X connect 1 0 0 0;
#X connect 2 0 0 1;
#X connect 3 0 2 1;
#X connect 3 0 1 1;
#X connect 3 0 4 0;
#X connect 5 0 8 0;
#X connect 5 1 8 1;
#X connect 6 0 7 0;
#X connect 6 1 7 1;
#X connect 7 0 9 0;
#X connect 7 1 10 0;
#X connect 8 0 1 0;
#X connect 8 1 2 0;
#X connect 8 2 61 0;
#X connect 9 0 0 0;
#X connect 10 0 0 1;
#X connect 11 0 10 1;
#X connect 11 0 9 1;
#X connect 11 0 12 0;
#X connect 13 0 14 0;
#X connect 13 1 14 1;
#X connect 14 0 15 0;
#X connect 14 1 16 0;
#X connect 14 2 61 0;
#X connect 15 0 0 0;
#X connect 16 0 0 1;
#X connect 17 0 16 1;
#X connect 17 0 15 1;
#X connect 17 0 18 0;
#X connect 19 0 0 0;
#X connect 20 0 0 1;
#X connect 21 0 20 1;
#X connect 21 0 19 1;
#X connect 21 0 22 0;
#X connect 23 0 19 0;
#X connect 23 1 20 0;
#X connect 23 2 61 0;
#X connect 24 0 23 0;
#X connect 24 1 23 1;
#X connect 25 0 0 0;
#X connect 26 0 0 1;
#X connect 27 0 26 1;
#X connect 27 0 25 1;
#X connect 27 0 28 0;
#X connect 29 0 36 0;
#X connect 29 1 36 1;
#X connect 30 0 0 0;
#X connect 31 0 0 1;
#X connect 32 0 31 1;
#X connect 32 0 30 1;
#X connect 32 0 33 0;
#X connect 34 0 35 0;
#X connect 34 1 35 1;
#X connect 35 0 30 0;
#X connect 35 1 31 0;
#X connect 36 0 25 0;
#X connect 36 1 26 0;
#X connect 36 2 61 0;
#X connect 36 2 63 0;
#X connect 37 0 0 0;
#X connect 38 0 0 1;
#X connect 39 0 38 1;
#X connect 39 0 37 1;
#X connect 39 0 40 0;
#X connect 41 0 37 0;
#X connect 41 0 38 0;
#X connect 41 1 61 0;
#X connect 41 1 63 0;
#X connect 42 0 41 0;
#X connect 42 1 41 1;
#X connect 43 0 36 2;
#X connect 43 1 36 3;
#X connect 46 0 45 0;
#X connect 55 0 57 0;
#X connect 56 0 58 0;
#X connect 58 0 27 0;
#X connect 59 0 66 0;
#X connect 60 0 59 0;
#X connect 60 0 62 0;
#X connect 61 0 64 0;
#X connect 62 0 61 1;
#X connect 66 0 64 0;
