#N canvas 586 490 816 593 10;
#X obj 265 119 t b f;
#X obj 293 202 +~ 0.5;
#X obj 294 222 wrap~;
#X obj 228 324 +~;
#X obj 160 94 * 0.001;
#X obj 378 118 t b f;
#X obj 253 151 expr (pow(2 \, $f1/120)-$f3)/$f2;
#X obj 2 112 openpanel;
#X obj 2 251 soundfiler;
#X obj 2 90 bng 15 250 50 0 empty empty empty 0 -6 0 8 -262144 -1 -1
;
#N canvas 0 0 450 300 (subpatch) 0;
#X array \$0-source-array-old 188160 float 2;
#X coords 0 1 188160 -1 100 100 1;
#X restore 45 479 graph;
#X obj 229 367 *~ 0.2;
#X obj 229 345 hip~ 1;
#X obj 253 177 phasor~;
#X obj 163 57 hsl 64 12 0 100 0 1 empty empty chunk-size 6 6 1 8 -262144
-1 -1 2600 1;
#X floatatom 168 74 5 0 0 0 - - -;
#X obj 484 315 *~;
#X obj 484 269 vline~;
#X obj 482 123 f;
#X msg 482 55 bang;
#X obj 498 100 * 0.0226757;
#X obj 483 194 /;
#X obj 484 338 *~ 1;
#X obj 381 56 hsl 64 12 0 2 0 1 empty empty speed 6 6 1 8 -262144 -1
-1 3472 1;
#X obj 256 57 hsl 64 12 -50 50 0 1 empty empty pitch 6 6 1 8 -262144
-1 -1 2772 1;
#X floatatom 390 73 5 0 0 0 - - -;
#X floatatom 263 77 5 0 0 0 - - -;
#X obj 86 -7 inlet;
#X msg 529 54 0;
#X floatatom 577 122 5 0 0 0 - - -;
#X obj 483 216 pack f f;
#X obj 229 390 outlet~;
#X obj 485 362 s~ \$0-position;
#X obj 373 233 r~ \$0-position;
#X obj 279 261 r~ \$0-position;
#X obj 2 273 s \$0-filesize;
#X obj 500 291 r \$0-filesize;
#X obj 499 173 r \$0-speed;
#X obj 498 77 r \$0-filesize;
#X obj 386 93 s \$0-speed;
#X obj 160 117 s \$0-chunk-size;
#X obj 265 94 r \$0-chunk-size;
#X symbolatom 18 71 20 0 0 0 - - -;
#X obj 20 47 symbol;
#X obj 24 386 table \$0-source-array;
#X obj 66 162 symbol \$0-source-array;
#X msg 2 228 read -resize \$1 \$2;
#X obj 24 132 t s b;
#X obj 26 194 pack s s;
#X obj 86 16 route file pitch speed start stop trig sr;
#X obj 619 65 /;
#X floatatom 650 40 5 0 0 0 - - -;
#X obj 606 18 t b f;
#X floatatom 622 88 9 0 0 0 - - -;
#X msg 397 -11 44100;
#X obj 329 -11 loadbang;
#N canvas 1408 421 283 300 samplegrain 0;
#X obj 13 245 *~;
#X obj 65 172 +~;
#X obj 65 82 *~;
#X obj 13 174 -~ 0.5;
#X obj 13 194 *~ 0.5;
#X obj 13 214 cos~;
#X obj 64 103 *~ 44100;
#X obj 13 267 outlet~;
#X obj 13 13 inlet~ phase;
#X obj 81 150 inlet~ position;
#X obj 81 59 sig~;
#X obj 65 193 tabread4~ \$0-source-array;
#X obj 81 35 r \$0-chunk-size;
#X obj 120 59 r \$0-sr;
#X connect 0 0 7 0;
#X connect 1 0 11 0;
#X connect 2 0 6 0;
#X connect 3 0 4 0;
#X connect 4 0 5 0;
#X connect 5 0 0 0;
#X connect 6 0 1 0;
#X connect 8 0 3 0;
#X connect 8 0 2 0;
#X connect 9 0 1 1;
#X connect 10 0 2 1;
#X connect 11 0 0 1;
#X connect 12 0 10 0;
#X connect 13 0 6 1;
#X restore 184 291 pd samplegrain;
#N canvas 965 658 360 380 samplegrain 0;
#X obj 0 232 *~;
#X obj 52 159 +~;
#X obj 52 69 *~;
#X obj 0 161 -~ 0.5;
#X obj 0 181 *~ 0.5;
#X obj 0 201 cos~;
#X obj 51 90 *~ 44100;
#X obj 0 254 outlet~;
#X obj 0 0 inlet~ phase;
#X obj 68 137 inlet~ position;
#X obj 68 46 sig~;
#X obj 52 180 tabread4~ \$0-source-array;
#X obj 68 22 r \$0-chunk-size;
#X obj 119 46 r \$0-sr;
#X connect 0 0 7 0;
#X connect 1 0 11 0;
#X connect 2 0 6 0;
#X connect 3 0 4 0;
#X connect 4 0 5 0;
#X connect 5 0 0 0;
#X connect 6 0 1 0;
#X connect 8 0 3 0;
#X connect 8 0 2 0;
#X connect 9 0 1 1;
#X connect 10 0 2 1;
#X connect 11 0 0 1;
#X connect 12 0 10 0;
#X connect 13 0 6 1;
#X restore 315 291 pd samplegrain;
#X msg 606 41 1000;
#X msg 483 248 \$2 \, 1 \$1 0;
#X obj 398 10 s \$0-sr;
#X obj 605 -4 r \$0-sr;
#X text 639 139 start (0..1);
#X obj 362 193 print pit;
#X obj 580 184 -;
#X msg 578 164 1;
#X obj 578 141 t b f;
#X floatatom 594 237 8 0 0 0 - - -;
#X floatatom 659 236 5 0 0 0 - - -;
#X obj 482 149 * 1;
#X floatatom 652 193 5 0 0 0 - - -;
#X connect 0 0 6 0;
#X connect 0 1 6 1;
#X connect 1 0 2 0;
#X connect 2 0 57 0;
#X connect 3 0 12 0;
#X connect 4 0 40 0;
#X connect 5 0 6 0;
#X connect 5 1 6 2;
#X connect 6 0 13 0;
#X connect 7 0 46 0;
#X connect 8 0 35 0;
#X connect 9 0 7 0;
#X connect 11 0 31 0;
#X connect 12 0 11 0;
#X connect 13 0 1 0;
#X connect 13 0 56 0;
#X connect 14 0 15 0;
#X connect 14 0 4 0;
#X connect 16 0 22 0;
#X connect 17 0 16 0;
#X connect 18 0 69 0;
#X connect 19 0 18 0;
#X connect 20 0 18 1;
#X connect 21 0 30 0;
#X connect 21 0 67 0;
#X connect 22 0 32 0;
#X connect 23 0 5 0;
#X connect 23 0 25 0;
#X connect 23 0 39 0;
#X connect 24 0 26 0;
#X connect 26 0 6 0;
#X connect 26 0 63 0;
#X connect 27 0 49 0;
#X connect 28 0 17 0;
#X connect 29 0 30 1;
#X connect 29 0 66 0;
#X connect 29 0 68 0;
#X connect 30 0 59 0;
#X connect 33 0 57 1;
#X connect 34 0 56 1;
#X connect 36 0 16 1;
#X connect 37 0 21 1;
#X connect 38 0 20 0;
#X connect 41 0 0 0;
#X connect 43 0 42 0;
#X connect 43 0 47 0;
#X connect 45 0 48 1;
#X connect 46 0 8 0;
#X connect 47 0 48 0;
#X connect 47 1 45 0;
#X connect 48 0 46 0;
#X connect 49 0 43 0;
#X connect 49 1 26 0;
#X connect 49 2 23 0;
#X connect 49 3 29 0;
#X connect 49 4 28 0;
#X connect 49 5 19 0;
#X connect 49 6 60 0;
#X connect 50 0 53 0;
#X connect 51 0 50 1;
#X connect 52 0 58 0;
#X connect 52 1 51 0;
#X connect 53 0 20 1;
#X connect 54 0 60 0;
#X connect 55 0 54 0;
#X connect 56 0 3 0;
#X connect 57 0 3 1;
#X connect 58 0 50 0;
#X connect 59 0 17 0;
#X connect 61 0 52 0;
#X connect 64 0 69 1;
#X connect 64 0 70 0;
#X connect 65 0 64 0;
#X connect 66 0 65 0;
#X connect 66 1 64 1;
#X connect 69 0 21 0;
