#N canvas 379 82 622 451 10;
#X obj 58 346 *~;
#X obj 67 6 inlet;
#X obj 159 335 line~ 0 10;
#X obj 159 284 / 127;
#X obj 159 310 pack f 10;
#X obj 67 30 unpack f f;
#X floatatom 66 77 0 0 0 0 - - -;
#X obj 173 24 inlet;
#X obj 66 50 mtof;
#X obj 65 191 osc~;
#X obj 64 250 *~;
#X obj 249 209 osc~;
#X obj 247 48 metro 10;
#X obj 231 133 + 0;
#X obj 252 89 bng 15 250 50 0 empty empty empty 17 7 0 10 -262144 -1
-1;
#X obj 318 126 del 1;
#X obj 348 104 random 15;
#X obj 339 79 t b b;
#X obj 249 236 *~;
#X obj 36 59 bng 15 250 50 0 empty empty empty 17 7 0 10 -262144 -1
-1;
#X msg 334 192 0 10;
#X msg 141 187 0 10;
#X obj 128 209 vline~;
#X obj 321 214 vline~;
#X obj 247 20 tgl 15 0 empty empty empty 17 7 0 10 -262144 -1 -1 1
1;
#X obj 373 1 hsl 128 15 0 127 0 0 empty empty empty -2 -8 0 10 -262144
-1 -1 1200 1;
#X obj 335 172 del 20;
#X obj 230 178 line~;
#X obj 249 111 random 5;
#X obj 230 156 pack f 10;
#X obj 295 -3 loadbang;
#X msg 245 0 1;
#X obj 142 167 del 0;
#X msg 128 146 1 10;
#X msg 321 150 1 10;
#X obj 381 25 r i3-met;
#X floatatom 381 51 5 0 0 0 - - -;
#X obj 58 388 dac~;
#X obj 153 367 sig~;
#X obj 205 369 hsl 128 15 0 1 0 0 empty empty empty -2 -8 0 10 -262144
-1 -1 7900 1;
#X obj 308 279 scope;
#X obj 448 136 hsl 128 15 0 100 0 0 empty empty empty -2 -8 0 10 -262144
-1 -1 0 1;
#X floatatom 540 137 5 0 0 0 - - -;
#X connect 0 0 37 0;
#X connect 0 0 37 1;
#X connect 1 0 5 0;
#X connect 3 0 4 0;
#X connect 4 0 2 0;
#X connect 5 0 8 0;
#X connect 5 1 3 0;
#X connect 6 0 9 0;
#X connect 6 0 14 0;
#X connect 6 0 13 0;
#X connect 8 0 6 0;
#X connect 9 0 10 0;
#X connect 10 0 0 0;
#X connect 11 0 18 0;
#X connect 12 0 33 0;
#X connect 12 0 17 0;
#X connect 13 0 29 0;
#X connect 14 0 28 0;
#X connect 15 0 34 0;
#X connect 16 0 15 1;
#X connect 17 0 15 0;
#X connect 17 1 16 0;
#X connect 18 0 0 0;
#X connect 19 0 6 0;
#X connect 20 0 23 0;
#X connect 21 0 22 0;
#X connect 22 0 10 1;
#X connect 23 0 18 1;
#X connect 24 0 12 0;
#X connect 25 0 36 0;
#X connect 26 0 20 0;
#X connect 27 0 11 0;
#X connect 28 0 13 1;
#X connect 29 0 27 0;
#X connect 30 0 31 0;
#X connect 31 0 24 0;
#X connect 32 0 21 0;
#X connect 33 0 22 0;
#X connect 33 0 32 0;
#X connect 34 0 23 0;
#X connect 34 0 26 0;
#X connect 35 0 36 0;
#X connect 36 0 12 1;
#X connect 38 0 0 1;
#X connect 39 0 38 0;
#X connect 41 0 42 0;
#X connect 41 0 26 1;
