#N canvas 311 74 635 427 10;
#X obj 87 68 phasor~;
#X obj 8 290 osc~;
#X obj 105 167 line~;
#X obj 86 192 +~;
#X obj 87 220 +~ 0;
#X obj 118 199 hsl 128 15 20 1000 0 0 empty empty empty -2 -8 0 10
-262144 -1 -1 700 1;
#X obj 73 398 dac~;
#X obj 72 350 *~ 1;
#X obj 114 350 hsl 128 15 0 1 0 0 empty empty empty -2 -8 0 10 -262144
-1 -1 1100 1;
#X obj 90 9 hsl 128 15 0 50 0 0 empty empty empty -2 -8 0 10 -262144
-1 -1 12700 1;
#X floatatom 183 10 5 0 0 0 - - -;
#X msg 220 128 0 \, 1 1000;
#X obj 87 39 sig~ 440;
#X obj 87 116 *~ 1;
#X obj 113 92 hsl 128 15 0 1000 0 0 empty empty empty -2 -8 0 10 -262144
-1 -1 0 1;
#X obj 90 302 phasor~ 0;
#X obj 71 327 -~;
#X obj 72 254 phasor~;
#X obj 90 278 +~ 0.2;
#X obj 159 256 * 2;
#X obj 264 185 hsl 128 15 0 64 0 0 empty empty empty -2 -8 0 10 -262144
-1 -1 300 1;
#X floatatom 356 184 5 0 0 0 - - -;
#X obj 260 207 int;
#X obj 166 234 t b f;
#X msg 221 157 0 1000;
#X floatatom 212 199 5 0 0 0 - - -;
#X connect 0 0 13 0;
#X connect 2 0 3 1;
#X connect 3 0 4 0;
#X connect 4 0 17 0;
#X connect 4 0 18 0;
#X connect 5 0 4 1;
#X connect 5 0 25 0;
#X connect 7 0 6 0;
#X connect 7 0 6 1;
#X connect 8 0 7 1;
#X connect 9 0 10 0;
#X connect 9 0 12 0;
#X connect 9 0 19 0;
#X connect 11 0 2 0;
#X connect 12 0 0 0;
#X connect 13 0 3 0;
#X connect 14 0 13 1;
#X connect 15 0 16 1;
#X connect 16 0 7 0;
#X connect 17 0 16 0;
#X connect 18 0 15 0;
#X connect 19 0 18 1;
#X connect 20 0 22 0;
#X connect 22 0 21 0;
#X connect 22 0 23 0;
#X connect 23 0 19 0;
#X connect 23 1 19 1;
#X connect 24 0 2 0;
