#N canvas 948 30 695 727 10;
#X obj 75 22 gemhead;
#X msg 30 52 print;
#X obj 73 623 glsl_program;
#X obj 147 274 pack 0 0;
#X msg 31 155 print;
#X obj 168 254 t b f;
#X obj 168 209 change;
#X obj 147 93 change;
#X msg 147 314 link \$1 \$2;
#X msg 29 549 print;
#X text 188 192 the fragment shader;
#X floatatom 168 235 2 0 0 0 ID - -;
#X floatatom 147 116 2 0 0 0 ID - -;
#X obj 165 335 print linking;
#X obj 73 667 rotateXYZ;
#X floatatom 92 645 5 0 0 0 - - -;
#X floatatom 136 645 5 0 0 0 - - -;
#X floatatom 178 643 5 0 0 0 - - -;
#X obj 74 189 glsl_fragment;
#X obj 75 74 glsl_vertex;
#X floatatom 328 362 5 0 0 0 - - -;
#X floatatom 331 417 5 0 0 0 - - -;
#X floatatom 334 468 5 0 0 0 - - -;
#X obj 72 697 circle 2;
#X msg 331 440 BrickSize \$1 \$1;
#X msg 327 389 BrickPct \$1 \$1;
#X msg 313 333 MortarColor 1 0 1;
#X msg 301 310 BrickColor 1 1 0;
#X msg 89 52 open brick.vert;
#X msg 84 160 open brick.frag;
#X obj 157 24 bng 15 250 50 0 empty empty empty 0 -6 0 8 -262144 -1
-1;
#X msg 334 491 LightPosition 0 0 \$1;
#X obj 449 131 gemwin;
#X msg 452 101 create \, 1;
#X text 529 100 <- 1;
#X text 189 26 <- 2;
#X text 537 349 <- 3;
#X connect 0 0 19 0;
#X connect 1 0 19 0;
#X connect 2 0 14 0;
#X connect 3 0 8 0;
#X connect 4 0 18 0;
#X connect 5 0 3 0;
#X connect 5 1 3 1;
#X connect 6 0 11 0;
#X connect 7 0 12 0;
#X connect 8 0 2 0;
#X connect 8 0 13 0;
#X connect 9 0 2 0;
#X connect 11 0 5 0;
#X connect 12 0 3 0;
#X connect 14 0 23 0;
#X connect 15 0 14 1;
#X connect 16 0 14 2;
#X connect 17 0 14 3;
#X connect 18 0 2 0;
#X connect 18 1 6 0;
#X connect 19 0 18 0;
#X connect 19 1 7 0;
#X connect 20 0 25 0;
#X connect 21 0 24 0;
#X connect 22 0 31 0;
#X connect 24 0 2 0;
#X connect 25 0 2 0;
#X connect 26 0 2 0;
#X connect 27 0 2 0;
#X connect 28 0 19 0;
#X connect 29 0 18 0;
#X connect 30 0 28 0;
#X connect 30 0 29 0;
#X connect 31 0 2 0;
#X connect 33 0 32 0;
