#N canvas 1148 291 678 602 10;
#X obj 71 166 bng 15 250 50 0 empty empty empty 17 7 0 10 -262144 -1
-1;
#X obj 109 187 hsl 128 15 10 1000 1 0 empty empty empty -2 -8 0 10
-262144 -1 -1 0 1;
#X floatatom 205 188 5 0 0 0 - - -;
#X obj 132 -31 hsl 128 15 -100 200 0 0 empty empty empty -2 -8 0 10
-262144 -1 -1 0 1;
#X floatatom 213 -31 8 0 0 0 - - -;
#X text 49 -133 location;
#X text 132 -74 speed;
#X obj 262 -84 hsl 128 15 -1000 1000 0 0 empty empty empty -2 -8 0
10 -262144 -1 -1 0 1;
#X floatatom 360 -85 5 0 0 0 - - -;
#X obj 90 -53 bng 15 250 50 0 empty empty empty 17 7 0 10 -262144 -1
-1;
#X text 265 -84 transpose;
#X obj 106 163 metro 1000;
#X obj 106 146 tgl 15 0 empty empty empty 17 7 0 10 -262144 -1 -1 0
1;
#X msg 270 -32 0;
#X obj 178 163 hsl 128 15 10 1000 0 0 empty empty empty -2 -8 0 10
-262144 -1 -1 0 1;
#X floatatom 272 163 5 0 0 0 - - -;
#X obj 40 210 crossfade;
#X obj 109 208 hsl 128 15 0 127 0 0 empty empty empty -2 -8 0 10 -262144
-1 -1 0 1;
#X msg 303 -32 100;
#X msg 333 -32 115;
#X obj 33 -95 OSCroute /loc;
#X floatatom 41 -75 5 0 0 0 - - -;
#X obj 41 247 crossfade;
#X obj 110 245 hsl 128 15 0 127 0 0 empty empty empty -2 -8 0 10 -262144
-1 -1 0 1;
#X obj 36 -7 I07.phase.vocoder;
#X obj 229 43 hradio 15 1 0 3 empty empty empty 0 -8 0 10 -262144 -1
-1 0;
#X obj 130 -62 OSCroute /spd;
#X obj 260 -105 OSCroute /tsp;
#X obj 388 -128 t b b;
#X obj 408 -95 bang;
#X obj 389 -151 loadbang;
#X msg 232 18 0;
#X obj 262 -56 * 25;
#X floatatom 335 -58 5 0 0 0 - - -;
#X obj 295 -57 + 0.01;
#X obj 119 -94 OSCroute /file;
#X obj 216 -58 / 100;
#X msg 47 -51 0;
#X msg 356 59 29;
#X msg 390 60 25;
#X text 415 61 fps;
#X obj 299 65 * 25;
#X text 328 65 comment;
#X floatatom 345 81 8 0 0 0 - - -;
#X obj 296 42 / 1000;
#X msg 375 170 send /v3/fr \$1;
#X msg 359 190 send /v3/pos \$1;
#X obj 246 240 OSCroute /vol;
#X floatatom 206 246 5 0 0 0 - - -;
#X obj 66 187 env;
#X obj 41 301 outlet~;
#X obj 375 294 outlet;
#X text 424 295 osc;
#X obj 233 -179 inlet;
#X obj 23 -219 hsl 500 15 0 15 0 0 empty empty empty -2 -8 0 10 -262144
-1 -1 0 0;
#X floatatom 52 -216 5 0 0 0 - - -;
#X floatatom 21 -172 8 0 0 0 - - -;
#X obj 21 -196 * 44100;
#X obj 232 -149 OSCroute;
#X obj 534 -55 \$1;
#X obj 533 -75 loadbang;
#X obj 494 18 pack s f;
#X connect 0 0 49 1;
#X connect 1 0 2 0;
#X connect 1 0 49 2;
#X connect 3 0 4 0;
#X connect 3 0 24 1;
#X connect 3 0 36 0;
#X connect 7 0 8 0;
#X connect 7 0 24 4;
#X connect 9 0 24 2;
#X connect 11 0 0 0;
#X connect 12 0 11 0;
#X connect 13 0 3 0;
#X connect 14 0 11 1;
#X connect 14 0 15 0;
#X connect 16 0 22 0;
#X connect 17 0 16 2;
#X connect 18 0 3 0;
#X connect 19 0 3 0;
#X connect 20 0 21 0;
#X connect 20 0 24 0;
#X connect 22 0 50 0;
#X connect 23 0 22 2;
#X connect 23 0 48 0;
#X connect 24 0 16 0;
#X connect 24 0 49 0;
#X connect 24 1 44 0;
#X connect 25 0 24 5;
#X connect 26 0 3 0;
#X connect 27 0 7 0;
#X connect 28 0 31 0;
#X connect 28 1 29 0;
#X connect 29 0 19 0;
#X connect 30 0 28 0;
#X connect 31 0 25 0;
#X connect 32 0 34 0;
#X connect 34 0 45 0;
#X connect 35 0 24 3;
#X connect 36 0 32 0;
#X connect 37 0 24 0;
#X connect 38 0 41 1;
#X connect 39 0 41 1;
#X connect 41 0 46 0;
#X connect 41 0 43 0;
#X connect 44 0 41 0;
#X connect 45 0 51 0;
#X connect 46 0 51 0;
#X connect 47 0 23 0;
#X connect 49 0 16 1;
#X connect 53 0 58 0;
#X connect 54 0 55 0;
#X connect 54 0 57 0;
#X connect 56 0 24 0;
#X connect 57 0 56 0;
#X connect 58 0 20 0;
#X connect 58 0 26 0;
#X connect 58 0 27 0;
#X connect 58 0 35 0;
#X connect 58 0 47 0;
#X connect 60 0 59 0;
