#N canvas 382 327 193 317 10;
#X msg 28 65 /key;
#X obj 28 24 keyname;
#X obj 28 44 t b f;
#X obj 28 159 outlet;
#X msg 28 132 send \$1 \$2 \$3;
#X obj 28 86 pack s s f;
#X obj 74 158 print;
#X obj 28 112 spigot;
#X obj 83 112 tgl 15 0 empty empty empty 17 7 0 10 -262144 -1 -1 0
1;
#X obj 83 132;
#X obj 95 33 inlet;
#X connect 0 0 5 0;
#X connect 1 0 2 0;
#X connect 1 1 5 1;
#X connect 2 0 0 0;
#X connect 2 1 5 2;
#X connect 4 0 3 0;
#X connect 4 0 6 0;
#X connect 5 0 7 0;
#X connect 7 0 4 0;
#X connect 8 0 7 1;
#X connect 8 0 9 0;
#X connect 10 0 8 0;
