#N canvas 659 72 664 778 10;
#X obj 75 22 gemhead;
#X msg 30 138 print;
#X obj 72 572 glsl_program;
#X obj 148 382 pack 0 0;
#X msg 32 263 print;
#X obj 169 362 t b f;
#X obj 169 317 change;
#X obj 147 179 change;
#X msg 148 422 link \$1 \$2;
#X msg 30 510 print;
#X floatatom 169 343 2 0 0 0 ID - -;
#X floatatom 147 202 2 0 0 0 ID - -;
#X obj 166 443 print linking;
#X obj 75 297 glsl_fragment;
#X obj 75 160 glsl_vertex;
#X obj 167 107 bng 15 250 50 0 empty empty empty 0 -6 0 8 -262144 -1
-1;
#X msg 103 132 open fractal.vert;
#X msg 100 267 open fractal.frag;
#X msg 350 525 center \$1 \$2;
#X obj 350 501 pack f f;
#X floatatom 423 411 5 0 0 0 - - -;
#X obj 365 478 t b f;
#X floatatom 445 435 5 0 0 0 - - -;
#X floatatom 209 503 5 0 0 0 - - -;
#X msg 205 522 maxIterations \$1;
#X msg 209 481 50;
#X obj 152 602 b;
#N canvas 0 0 450 300 once 0;
#X obj 58 65 inlet;
#X obj 58 251 outlet;
#X obj 262 73 bang;
#X msg 262 92 1;
#X obj 58 176 spigot;
#X msg 230 93 0;
#X text 13 289 (c) 2006 IOhannes m zmoelnig \, licensed under GnuGPL
v2.0;
#X obj 262 53 inlet reset;
#X text 48 12 [once]: better than [oneshot];
#X obj 200 133 int 1;
#X obj 58 94 trigger anything bang;
#X obj 58 202 trigger anything bang;
#X connect 0 0 10 0;
#X connect 2 0 3 0;
#X connect 3 0 9 1;
#X connect 4 0 11 0;
#X connect 5 0 9 1;
#X connect 7 0 2 0;
#X connect 9 0 4 1;
#X connect 10 0 4 0;
#X connect 10 1 9 0;
#X connect 11 0 1 0;
#X connect 11 1 5 0;
#X restore 154 623 pd once;
#X msg 474 527 zoom \$1;
#X floatatom 475 461 5 0 0 0 - - -;
#X obj 72 658 square 4;
#X obj 485 508 / 100000;
#X floatatom 486 490 5 0 0 0 - - -;
#X msg 454 508 1;
#X obj 403 71 gemwin;
#X msg 402 44 create \, 1;
#X text 201 108 <- 2 load shader;
#X text 532 425 <- 3 play with this;
#X text 491 43 <- 1;
#X connect 0 0 14 0;
#X connect 1 0 14 0;
#X connect 2 0 30 0;
#X connect 2 1 26 0;
#X connect 3 0 8 0;
#X connect 4 0 13 0;
#X connect 5 0 3 0;
#X connect 5 1 3 1;
#X connect 6 0 10 0;
#X connect 7 0 11 0;
#X connect 8 0 2 0;
#X connect 8 0 12 0;
#X connect 8 0 27 1;
#X connect 9 0 2 0;
#X connect 10 0 5 0;
#X connect 11 0 3 0;
#X connect 13 0 2 0;
#X connect 13 1 6 0;
#X connect 14 0 13 0;
#X connect 14 1 7 0;
#X connect 15 0 16 0;
#X connect 15 0 17 0;
#X connect 16 0 14 0;
#X connect 17 0 13 0;
#X connect 18 0 2 0;
#X connect 19 0 18 0;
#X connect 20 0 19 0;
#X connect 21 0 19 0;
#X connect 21 1 19 1;
#X connect 22 0 21 0;
#X connect 23 0 24 0;
#X connect 24 0 2 0;
#X connect 25 0 23 0;
#X connect 26 0 27 0;
#X connect 27 0 25 0;
#X connect 27 0 33 0;
#X connect 28 0 2 0;
#X connect 29 0 28 0;
#X connect 31 0 28 0;
#X connect 32 0 31 0;
#X connect 33 0 29 0;
#X connect 35 0 34 0;
