#N canvas 164 228 612 492 10;
#X obj 33 12 inlet;
#X obj 77 12 inlet;
#X obj 121 12 inlet;
#X obj 163 12 inlet;
#X obj 57 360 outlet~;
#X obj 213 362 outlet~;
#X obj 62 260 t b;
#X obj 60 290 pack f f f f f f;
#X obj 257 231 soundfiler;
#X obj 258 139 symbol \$1;
#X obj 257 253 s \$0-sample-size;
#X msg 257 209 read -resize \$1 \$2;
#X obj 299 161 symbol \$0-sample;
#X obj 257 187 pack s s;
#X obj 258 161 t s b;
#X obj 219 87 r \$0-window-size;
#X obj 219 65 r \$0-sample-size;
#X obj 353 110 s \$0-window-size;
#X obj 377 65 table \$0-sample;
#X obj 352 16 loadbang;
#X obj 353 40 t b b;
#X obj 35 40 route float;
#X obj 58 321 nqpoly2ch~ \$1 nm-single-grain4-2ch \$0-sample \$0-window
;
#X obj 464 359 outlet;
#X obj 429 321 r \$0-sample-size;
#X obj 354 87 nm-sharpened-cos \$0-window 256 1;
#X obj 511 126 vsl 15 100 1 100 1 0 empty empty empty 20 8 0 8 -262144
-1 -1 0 1;
#X msg 485 48 0;
#X connect 0 0 21 0;
#X connect 1 0 6 0;
#X connect 1 0 7 1;
#X connect 2 0 7 2;
#X connect 3 0 7 5;
#X connect 6 0 7 0;
#X connect 7 0 22 0;
#X connect 8 0 10 0;
#X connect 9 0 14 0;
#X connect 11 0 8 0;
#X connect 12 0 13 1;
#X connect 13 0 11 0;
#X connect 14 0 13 0;
#X connect 14 1 12 0;
#X connect 15 0 7 4;
#X connect 15 0 6 0;
#X connect 16 0 7 3;
#X connect 16 0 6 0;
#X connect 19 0 20 0;
#X connect 19 0 27 0;
#X connect 20 0 25 0;
#X connect 21 0 7 0;
#X connect 21 1 9 0;
#X connect 22 0 4 0;
#X connect 22 1 5 0;
#X connect 24 0 23 0;
#X connect 25 0 17 0;
#X connect 26 0 25 1;
#X connect 27 0 26 0;
