#N canvas 88 612 729 449 10;
#X obj 16 20 inlet;
#X obj 114 321 outlet;
#X obj 355 195 symbol \$0-poly;
#X obj 93 13 namecanvas \$0-poly;
#X obj 255 167 t b b;
#X obj 297 196 + 1;
#X obj 290 235 t f f;
#X obj 321 259 + 1;
#X obj 256 143 until;
#X obj 147 234 symbol \$0-poly;
#X obj 172 293 pack s f;
#X msg 169 336 \; \$1 connect \$2 2 1 0;
#X obj 452 193 symbol \$2;
#X obj 517 194 symbol \$3;
#X obj 577 195 symbol \$4;
#X obj 294 295 pack f f s s s s s s s;
#X obj 474 262 symbol \$5;
#X obj 539 263 symbol \$6;
#X obj 599 264 symbol \$7;
#X obj 260 101 - 1;
#X obj 255 123 moses 1;
#X text 287 17 pix.test.at;
#X obj 214 20 loadbang;
#X obj 255 77 \$1;
#X obj 216 48 t b b b b;
#X obj 64 278 outlet~;
#X obj 26 316 outlet~;
#X msg 298 329 \; \$3 obj 5 100 nqpwrap2ch~ \$4 \$5 \$6 \$7 \$8 \$9
\; \$3 connect \$1 2 \$2 0 \; \$3 connect \$2 0 26 0 \; \$3 connect
\$2 1 25 0 \; \$3 connect 24 0 \$2 1;
#X obj 262 196 30;
#X obj 248 236 30;
#X obj 19 117 nqpwrap2ch~ \$2 \$3 \$4 \$5 \$6 \$7;
#X connect 0 0 30 0;
#X connect 2 0 15 2;
#X connect 4 0 28 0;
#X connect 4 1 12 0;
#X connect 4 1 13 0;
#X connect 4 1 14 0;
#X connect 4 1 16 0;
#X connect 4 1 2 0;
#X connect 4 1 17 0;
#X connect 4 1 18 0;
#X connect 5 0 28 1;
#X connect 6 0 15 0;
#X connect 6 1 7 0;
#X connect 7 0 15 1;
#X connect 7 0 10 1;
#X connect 8 0 4 0;
#X connect 9 0 10 0;
#X connect 10 0 11 0;
#X connect 12 0 15 3;
#X connect 13 0 15 4;
#X connect 14 0 15 5;
#X connect 15 0 27 0;
#X connect 16 0 15 6;
#X connect 17 0 15 7;
#X connect 18 0 15 8;
#X connect 19 0 20 0;
#X connect 20 1 8 0;
#X connect 22 0 24 0;
#X connect 23 0 19 0;
#X connect 24 0 30 1;
#X connect 24 1 9 0;
#X connect 24 2 23 0;
#X connect 24 3 29 0;
#X connect 30 0 26 0;
#X connect 30 1 25 0;
#X connect 30 2 1 0;
#X connect 28 0 5 0;
#X connect 28 0 6 0;
#X connect 29 0 10 1;
