#N canvas 100 120 566 706 8;
#X obj 26 20 inlet;
#X obj 263 18 inlet;
#X text 262 5 outIndex;
#X text 24 7 inIndex;
#X obj 195 19 inlet;
#X text 193 6 filmName;
#X obj 34 352 pix_film;
#X obj 87 350 t f b;
#X obj 39 262 tgl 15 0 empty empty empty 0 -6 0 8 -262144 -1 -1 1 1
;
#X obj 65 258 r mov_pos;
#X obj 68 290 bng 15 250 50 0 empty empty empty 0 -6 0 8 -262144 -1
-1;
#X floatatom 72 276 5 0 0 0 - - -;
#X obj 40 283 metro;
#X obj 80 311 + 1;
#X obj 44 317 f;
#X floatatom 60 194 5 0 0 0 - - -;
#X msg 61 209 1000;
#X obj 61 228 / 29;
#X text 86 285 pos;
#X text 83 211 frm_rt;
#X obj 71 331 mod 1000;
#X floatatom 32 334 5 0 0 0 - - -;
#X floatatom 106 315 5 0 0 0 - - -;
#X obj 90 191 bng 15 250 50 0 empty empty empty 0 -6 0 8 -262144 -1
-1;
#X obj 65 19 inlet;
#X text 64 7 metroOn;
#X obj 114 20 inlet;
#X text 109 6 frameRate;
#X obj 158 17 inlet;
#X text 157 6 movPos;
#X obj 112 674 outlet;
#X text 149 674 gemSignal;
#X obj 59 173 r mov_fr;
#X text 93 299 totFrames;
#X obj 48 153 unpack f f f;
#X obj -11 19 inlet;
#X text -12 7 gemHead;
#X obj 272 64 pack f 1;
#X obj 269 42 t f b;
#X msg 245 84 0;
#X obj 52 112 route 0 1 2 3 4;
#X obj 272 84 route 1 2 3 4;
#X obj 163 344 pix_film;
#X obj 216 342 t f b;
#X obj 168 254 tgl 15 0 empty empty empty 0 -6 0 8 -262144 -1 -1 0
1;
#X obj 194 250 r mov_pos;
#X obj 197 282 bng 15 250 50 0 empty empty empty 0 -6 0 8 -262144 -1
-1;
#X floatatom 201 268 5 0 0 0 - - -;
#X obj 169 275 metro;
#X obj 209 303 + 1;
#X obj 173 309 f;
#X floatatom 189 186 5 0 0 0 - - -;
#X msg 190 201 1000;
#X obj 190 220 / 29;
#X text 215 277 pos;
#X text 212 203 frm_rt;
#X obj 200 323 mod 1000;
#X floatatom 161 326 5 0 0 0 - - -;
#X floatatom 235 307 5 0 0 0 - - -;
#X obj 219 183 bng 15 250 50 0 empty empty empty 0 -6 0 8 -262144 -1
-1;
#X obj 188 165 r mov_fr;
#X obj 168 235 r mov_auto;
#X text 229 298 totFrames;
#X obj 177 145 unpack f f f;
#X obj 160 389 spigot;
#X obj 185 369 tgl 15 0 empty empty empty 0 -6 0 8 -262144 -1 -1 0
1;
#X obj 172 104 route 0 1 2 3 4;
#X obj 172 84 pack f s;
#X obj 281 348 pix_film;
#X obj 334 346 t f b;
#X obj 286 258 tgl 15 0 empty empty empty 0 -6 0 8 -262144 -1 -1 0
1;
#X obj 312 254 r mov_pos;
#X obj 315 286 bng 15 250 50 0 empty empty empty 0 -6 0 8 -262144 -1
-1;
#X floatatom 319 272 5 0 0 0 - - -;
#X obj 287 279 metro;
#X obj 327 307 + 1;
#X obj 291 313 f;
#X floatatom 307 190 5 0 0 0 - - -;
#X msg 308 205 1000;
#X obj 308 224 / 29;
#X text 333 281 pos;
#X text 330 207 frm_rt;
#X obj 318 327 mod 1000;
#X floatatom 279 330 5 0 0 0 - - -;
#X floatatom 353 311 5 0 0 0 - - -;
#X obj 337 187 bng 15 250 50 0 empty empty empty 0 -6 0 8 -262144 -1
-1;
#X obj 306 169 r mov_fr;
#X obj 286 239 r mov_auto;
#X text 353 299 totFrames;
#X obj 295 149 unpack f f f;
#X obj 278 393 spigot;
#X obj 303 373 tgl 15 0 empty empty empty 0 -6 0 8 -262144 -1 -1 0
1;
#X obj 402 348 pix_film;
#X obj 455 346 t f b;
#X obj 407 258 tgl 15 0 empty empty empty 0 -6 0 8 -262144 -1 -1 0
1;
#X obj 433 254 r mov_pos;
#X obj 436 286 bng 15 250 50 0 empty empty empty 0 -6 0 8 -262144 -1
-1;
#X floatatom 440 272 5 0 0 0 - - -;
#X obj 408 279 metro;
#X obj 448 307 + 1;
#X obj 412 313 f;
#X floatatom 428 190 5 0 0 0 - - -;
#X msg 429 205 1000;
#X obj 429 224 / 29;
#X text 454 281 pos;
#X text 451 207 frm_rt;
#X obj 439 327 mod 1000;
#X floatatom 400 330 5 0 0 0 - - -;
#X floatatom 474 311 5 0 0 0 - - -;
#X obj 458 187 bng 15 250 50 0 empty empty empty 0 -6 0 8 -262144 -1
-1;
#X obj 427 169 r mov_fr;
#X obj 407 239 r mov_auto;
#X text 474 299 totFrames;
#X obj 416 149 unpack f f f;
#X obj 399 393 spigot;
#X obj 424 373 tgl 15 0 empty empty empty 0 -6 0 8 -262144 -1 -1 0
1;
#X obj 195 60 bng 15 250 50 0 empty empty empty 0 -6 0 8 -262144 -1
-1;
#X msg -4 215 open \$1;
#X msg 133 215 open \$1;
#X msg 262 218 open \$1;
#X msg 379 215 open \$1;
#X obj 155 167 bng 15 250 50 0 empty empty empty 0 -6 0 8 -262144 -1
-1;
#X obj 277 170 bng 15 250 50 0 empty empty empty 0 -6 0 8 -262144 -1
-1;
#X obj 397 170 bng 15 250 50 0 empty empty empty 0 -6 0 8 -262144 -1
-1;
#X obj 30 175 bng 15 250 50 0 empty empty empty 0 -6 0 8 -262144 -1
-1;
#X obj 53 93 pack f f f f;
#X obj 38 51 bng 15 250 50 0 empty empty empty 0 -6 0 8 -262144 -1
-1;
#X obj -4 200 unpack s;
#X obj 134 199 unpack s;
#X obj 260 200 unpack s;
#X obj 378 197 unpack s;
#X obj 16 69 * 1;
#X msg 15 51 1;
#X obj 173 68 * 1;
#X msg 172 50 1;
#X obj 31 241 r mov_auto;
#X obj -2 235 print f1;
#X obj 259 238 print f3;
#X obj 128 235 print f2;
#X obj 29 396 spigot;
#X obj 66 397 tgl 15 0 empty empty empty 0 -6 0 8 -262144 -1 -1 0 1
;
#X connect 0 0 131 1;
#X connect 0 0 133 1;
#X connect 1 0 38 0;
#X connect 4 0 67 1;
#X connect 4 0 116 0;
#X connect 6 0 139 0;
#X connect 6 1 22 0;
#X connect 6 2 7 0;
#X connect 7 0 6 1;
#X connect 8 0 12 0;
#X connect 9 0 11 0;
#X connect 10 0 14 0;
#X connect 11 0 20 0;
#X connect 11 0 10 0;
#X connect 12 0 14 0;
#X connect 13 0 20 0;
#X connect 14 0 13 0;
#X connect 14 0 21 0;
#X connect 14 0 6 1;
#X connect 15 0 17 1;
#X connect 15 0 23 0;
#X connect 16 0 17 0;
#X connect 17 0 12 1;
#X connect 20 0 14 1;
#X connect 22 0 20 1;
#X connect 23 0 16 0;
#X connect 24 0 126 0;
#X connect 24 0 125 1;
#X connect 26 0 125 2;
#X connect 26 0 126 0;
#X connect 28 0 125 3;
#X connect 28 0 126 0;
#X connect 32 0 15 0;
#X connect 34 0 8 0;
#X connect 34 0 124 0;
#X connect 34 1 15 0;
#X connect 34 2 11 0;
#X connect 35 0 6 0;
#X connect 35 0 42 0;
#X connect 35 0 68 0;
#X connect 35 0 92 0;
#X connect 37 0 41 0;
#X connect 38 0 37 0;
#X connect 38 1 39 0;
#X connect 39 0 65 0;
#X connect 39 0 91 0;
#X connect 39 0 115 0;
#X connect 39 0 140 0;
#X connect 40 0 34 0;
#X connect 40 0 63 0;
#X connect 40 0 89 0;
#X connect 40 0 113 0;
#X connect 40 1 34 0;
#X connect 40 2 63 0;
#X connect 40 3 89 0;
#X connect 40 4 113 0;
#X connect 41 0 140 0;
#X connect 41 1 65 0;
#X connect 41 2 91 0;
#X connect 41 3 115 0;
#X connect 42 0 64 0;
#X connect 42 1 58 0;
#X connect 42 2 43 0;
#X connect 43 0 42 1;
#X connect 44 0 48 0;
#X connect 45 0 47 0;
#X connect 46 0 50 0;
#X connect 47 0 56 0;
#X connect 47 0 46 0;
#X connect 48 0 50 0;
#X connect 49 0 56 0;
#X connect 50 0 49 0;
#X connect 50 0 57 0;
#X connect 50 0 42 1;
#X connect 51 0 53 1;
#X connect 51 0 59 0;
#X connect 52 0 53 0;
#X connect 53 0 48 1;
#X connect 56 0 50 1;
#X connect 58 0 56 1;
#X connect 59 0 52 0;
#X connect 60 0 51 0;
#X connect 61 0 44 0;
#X connect 63 0 44 0;
#X connect 63 0 121 0;
#X connect 63 1 51 0;
#X connect 63 2 47 0;
#X connect 64 0 30 0;
#X connect 65 0 64 1;
#X connect 66 0 127 0;
#X connect 66 0 128 0;
#X connect 66 0 129 0;
#X connect 66 0 130 0;
#X connect 66 1 127 0;
#X connect 66 2 128 0;
#X connect 66 3 129 0;
#X connect 66 4 130 0;
#X connect 67 0 66 0;
#X connect 68 0 90 0;
#X connect 68 1 84 0;
#X connect 68 2 69 0;
#X connect 69 0 68 1;
#X connect 70 0 74 0;
#X connect 71 0 73 0;
#X connect 72 0 76 0;
#X connect 73 0 82 0;
#X connect 73 0 72 0;
#X connect 74 0 76 0;
#X connect 75 0 82 0;
#X connect 76 0 75 0;
#X connect 76 0 83 0;
#X connect 76 0 68 1;
#X connect 77 0 79 1;
#X connect 77 0 85 0;
#X connect 78 0 79 0;
#X connect 79 0 74 1;
#X connect 82 0 76 1;
#X connect 84 0 82 1;
#X connect 85 0 78 0;
#X connect 86 0 77 0;
#X connect 87 0 70 0;
#X connect 89 0 70 0;
#X connect 89 0 122 0;
#X connect 89 1 77 0;
#X connect 89 2 73 0;
#X connect 90 0 30 0;
#X connect 91 0 90 1;
#X connect 92 0 114 0;
#X connect 92 1 108 0;
#X connect 92 2 93 0;
#X connect 93 0 92 1;
#X connect 94 0 98 0;
#X connect 95 0 97 0;
#X connect 96 0 100 0;
#X connect 97 0 106 0;
#X connect 97 0 96 0;
#X connect 98 0 100 0;
#X connect 99 0 106 0;
#X connect 100 0 99 0;
#X connect 100 0 107 0;
#X connect 100 0 92 1;
#X connect 101 0 103 1;
#X connect 101 0 109 0;
#X connect 102 0 103 0;
#X connect 103 0 98 1;
#X connect 106 0 100 1;
#X connect 108 0 106 1;
#X connect 109 0 102 0;
#X connect 110 0 101 0;
#X connect 111 0 94 0;
#X connect 113 0 94 0;
#X connect 113 0 123 0;
#X connect 113 1 101 0;
#X connect 113 2 97 0;
#X connect 114 0 30 0;
#X connect 115 0 114 1;
#X connect 116 0 134 0;
#X connect 117 0 6 0;
#X connect 117 0 124 0;
#X connect 117 0 136 0;
#X connect 118 0 42 0;
#X connect 118 0 121 0;
#X connect 118 0 138 0;
#X connect 119 0 68 0;
#X connect 119 0 122 0;
#X connect 119 0 137 0;
#X connect 120 0 92 0;
#X connect 120 0 123 0;
#X connect 125 0 40 0;
#X connect 126 0 132 0;
#X connect 127 0 117 0;
#X connect 128 0 118 0;
#X connect 129 0 119 0;
#X connect 130 0 120 0;
#X connect 131 0 125 0;
#X connect 132 0 131 0;
#X connect 133 0 67 0;
#X connect 134 0 133 0;
#X connect 139 0 30 0;
#X connect 140 0 139 1;
