#N canvas 31 240 710 419 8;
#X obj 79 182 line~;
#X obj 78 220 osc~;
#X obj 182 65 bng 15 250 50 0 empty empty empty 0 -6 0 8 -262144 -1
-1;
#X obj 183 209 line~;
#X obj 176 250 *~;
#X obj 176 274 *~;
#X obj 190 127 del 10;
#X msg 246 140 1 \$1;
#X msg 190 180 0 \$1;
#X floatatom 190 158 5 0 0 0 - - -;
#X obj 112 8 inlet;
#X obj 69 8 inlet;
#X obj 77 255 *~;
#X obj 78 314 outlet~;
#X msg 56 153 \$1 \, \$2 \$3;
#X obj 56 121 pack 220 50 30;
#X obj 32 97 bng 15 250 50 0 empty empty empty 0 -6 0 8 -262144 -1
-1;
#X floatatom 56 56 5 0 0 0 - - -;
#X floatatom 95 72 5 0 0 0 - - -;
#X floatatom 136 95 5 0 0 0 - - -;
#X obj 188 7 unpack 0 0 0 0 0 0;
#X floatatom 129 181 5 0 0 0 - - -;
#X obj 221 61 loadbang;
#X obj 78 289 *~;
#X text 99 289 volume;
#X obj 311 199 hsl 128 15 0 5 0 0 empty empty empty -2 -6 0 8 -262144
-1 -1 6858 1;
#X obj 310 160 hsl 128 15 20 5000 1 0 empty empty empty -2 -6 0 8 -262144
-1 -1 3217 1;
#X obj 309 142 hsl 128 15 20 5000 1 0 empty empty empty -2 -6 0 8 -262144
-1 -1 5273 1;
#X obj 307 104 hsl 128 15 0 127 0 0 empty empty empty -2 -6 0 8 -262144
-1 -1 800 1;
#X obj 309 123 hsl 128 15 0 2000 0 0 empty empty empty -2 -6 0 8 -262144
-1 -1 2877 1;
#X obj 280 203 bng 15 250 50 0 empty empty empty 0 -6 0 8 -262144 -1
-1;
#X obj 307 244 pack 0 0 0 0 0 0;
#X obj 309 179 hsl 128 15 10 1000 0 0 empty empty empty -2 -6 0 8 -262144
-1 -1 1783 1;
#X floatatom 403 105 5 0 0 0 - - -;
#X floatatom 406 124 5 0 0 0 - - -;
#X floatatom 408 142 5 0 0 0 - - -;
#X floatatom 407 161 5 0 0 0 - - -;
#X floatatom 407 179 5 0 0 0 - - -;
#X floatatom 407 200 5 0 0 0 - - -;
#X text 312 199 volume;
#X text 312 101 attack;
#X text 311 122 decay;
#X text 311 140 startfreq;
#X text 314 158 endfrq;
#X text 312 177 changetime;
#X obj 304 73 unpack 0 0 0 0 0 0;
#X obj 448 104 bng 15 250 50 0 empty empty empty 0 -6 0 8 -262144 -1
-1;
#X obj 602 -38 OSCroute /set;
#X obj 596 -18 OSCroute /trig;
#X obj 596 -60 inlet;
#X obj 250 98 int;
#X obj 45 220 osc~;
#X obj 45 201 +~ 5;
#X msg 519 95 3 330 200 20 50 1;
#X text 627 58 deep bass;
#X text 609 95 kick drum;
#X msg 516 75 3 800 237 33 181 2.7;
#X text 626 71 longer deep baSS;
#X msg 518 112 8 784 294 106 227 2.7;
#X text 637 112 techno tom;
#X msg 521 180 8 784 672 204 796 2.7;
#X text 635 180 drop;
#X msg 518 144 8 453 198 81 149 2.7;
#X text 627 146 med tom;
#X msg 518 127 8 453 128 68 110 2.7;
#X text 625 127 low tom;
#X text 628 163 high tom;
#X msg 522 161 8 453 215 124 86 2.7;
#X text 645 198 laser;
#X text 642 215 high laser;
#X obj 314 220 hradio 15 1 0 10 empty empty empty 0 -6 0 8 -262144
-1 -1 5;
#X obj 517 26 route 0 1 2 3 4 5 6 7 8 9;
#X obj 493 -31 inlet;
#X obj 591 -2 OSCroute /preset;
#X msg 514 56 20 802 147 33 182 1.3;
#X msg 522 197 35 783 3214 659 193 1.7;
#X msg 519 215 35 783 3214 1956 193 1;
#X obj 10 220 osc~;
#X obj 8 201 +~ 10;
#X obj -23 220 osc~;
#X obj -25 201 +~ 30;
#X connect 0 0 1 0;
#X connect 0 0 52 0;
#X connect 0 0 78 0;
#X connect 0 0 80 0;
#X connect 1 0 12 0;
#X connect 2 0 6 0;
#X connect 2 0 15 0;
#X connect 2 0 50 0;
#X connect 3 0 4 0;
#X connect 3 0 4 1;
#X connect 4 0 5 0;
#X connect 4 0 5 1;
#X connect 5 0 12 1;
#X connect 6 0 9 0;
#X connect 7 0 3 0;
#X connect 8 0 3 0;
#X connect 9 0 8 0;
#X connect 10 0 20 0;
#X connect 10 0 45 0;
#X connect 11 0 46 0;
#X connect 12 0 23 0;
#X connect 14 0 0 0;
#X connect 15 0 14 0;
#X connect 16 0 15 0;
#X connect 17 0 15 0;
#X connect 18 0 15 1;
#X connect 19 0 15 2;
#X connect 20 0 50 1;
#X connect 20 1 9 0;
#X connect 20 2 17 0;
#X connect 20 3 18 0;
#X connect 20 4 19 0;
#X connect 20 5 23 1;
#X connect 21 0 1 1;
#X connect 23 0 13 0;
#X connect 25 0 30 0;
#X connect 25 0 31 5;
#X connect 25 0 38 0;
#X connect 26 0 30 0;
#X connect 26 0 31 3;
#X connect 26 0 36 0;
#X connect 27 0 30 0;
#X connect 27 0 31 2;
#X connect 27 0 35 0;
#X connect 28 0 31 0;
#X connect 28 0 33 0;
#X connect 29 0 30 0;
#X connect 29 0 31 1;
#X connect 29 0 34 0;
#X connect 30 0 31 0;
#X connect 31 0 20 0;
#X connect 32 0 31 4;
#X connect 32 0 37 0;
#X connect 32 0 30 0;
#X connect 45 0 28 0;
#X connect 45 1 29 0;
#X connect 45 2 27 0;
#X connect 45 3 26 0;
#X connect 45 4 32 0;
#X connect 45 5 25 0;
#X connect 46 0 2 0;
#X connect 47 0 45 0;
#X connect 48 0 46 0;
#X connect 49 0 47 0;
#X connect 49 0 48 0;
#X connect 49 0 73 0;
#X connect 50 0 7 0;
#X connect 50 0 6 1;
#X connect 51 0 12 0;
#X connect 52 0 51 0;
#X connect 53 0 45 0;
#X connect 56 0 45 0;
#X connect 58 0 45 0;
#X connect 60 0 45 0;
#X connect 62 0 45 0;
#X connect 64 0 45 0;
#X connect 67 0 45 0;
#X connect 70 0 71 0;
#X connect 71 0 74 0;
#X connect 71 1 56 0;
#X connect 71 2 53 0;
#X connect 71 3 58 0;
#X connect 71 4 64 0;
#X connect 71 5 62 0;
#X connect 71 6 67 0;
#X connect 71 7 60 0;
#X connect 71 8 75 0;
#X connect 71 9 76 0;
#X connect 72 0 71 0;
#X connect 73 0 71 0;
#X connect 74 0 45 0;
#X connect 75 0 45 0;
#X connect 76 0 45 0;
#X connect 77 0 12 0;
#X connect 78 0 77 0;
#X connect 79 0 12 0;
#X connect 80 0 79 0;
#X coords 0 -1 1 1 170 140 1 300 100;
