#N canvas 162 267 1022 590 10;
#X obj 108 115 hsl 200 30 1 0 0 0 empty empty empty -2 -6 0 8 -258113
-1 -1 11300 1;
#X text 279 145 0/100;
#X text 104 145 100/0;
#X text 189 145 50/50;
#X obj 203 363 outlet;
#X floatatom 595 341 5 0 0 0 - - -;
#X obj 620 301 * -1;
#X obj 619 324 + 1;
#X obj 550 364 pack f f;
#X obj 551 200 hradio 15 1 0 6 empty empty empty 0 -6 0 10 -262144
-1 -1 5;
#X obj 108 180 vradio 20 1 0 6 empty empty empty 0 -6 0 10 -262144
-1 -1 0;
#X text 132 283 COMPOSITE;
#X text 132 262 ADD;
#X text 132 243 SUBSTRACT;
#X text 133 223 DIFF;
#X text 133 203 MULTIPLY;
#X text 134 183 MIX;
#X obj 223 442 inlet;
#X obj 297 442 inlet;
#X obj 388 209 * -1;
#X obj 391 239 + 5;
#N canvas 55 133 941 550 morph 0;
#X obj 323 158 scaleXYZ;
#X floatatom 338 56 5 0 0 0 - - -;
#X floatatom 353 79 5 0 0 0 - - -;
#X floatatom 368 105 5 0 0 0 - - -;
#X obj 323 214 translateXYZ;
#X floatatom 335 189 5 -4.12 4 0 - - -;
#X floatatom 381 189 5 -4.95 4.95 0 - - -;
#X floatatom 426 189 5 -2 2 0 - - -;
#X obj 111 132 hsl 80 10 0.1 3 0 0 empty empty X 40 5 2 10 -262144
-1 -1 3400 1;
#X obj 111 146 hsl 80 10 0.1 3 0 0 empty empty Y 40 5 2 10 -262144
-1 -1 2100 1;
#X obj 111 160 hsl 80 10 0.1 3 0 0 empty empty Z 40 5 2 10 -262144
-1 -1 0 1;
#X obj 294 127 inlet;
#X obj 323 250 outlet;
#X obj 111 188 hsl 80 10 0.1 3 0 0 empty empty X 40 5 2 10 -262144
-1 -1 0 1;
#X obj 111 202 hsl 80 10 0.1 3 0 0 empty empty Y 40 5 2 10 -262144
-1 -1 100 1;
#X obj 111 216 hsl 80 10 0.1 3 0 0 empty empty Z 40 5 2 10 -262144
-1 -1 7400 1;
#X text 127 173 Translate;
#X text 137 117 Scale;
#X connect 0 0 4 0;
#X connect 1 0 0 1;
#X connect 2 0 0 2;
#X connect 3 0 0 3;
#X connect 4 0 12 0;
#X connect 5 0 4 1;
#X connect 6 0 4 2;
#X connect 7 0 4 3;
#X connect 8 0 1 0;
#X connect 9 0 2 0;
#X connect 10 0 3 0;
#X connect 11 0 0 0;
#X connect 13 0 5 0;
#X connect 14 0 6 0;
#X connect 15 0 7 0;
#X coords 0 -1 1 1 100 130 1 100 100;
#X restore 203 178 pd morph;
#X text 217 426 video 1;
#X text 291 426 video 2;
#X floatatom 58 504 5 0 0 0 - - -;
#X obj 74 459 pix_info -------;
#X floatatom 20 505 5 0 0 0 - - -;
#X floatatom -18 504 5 0 0 0 - - -;
#X floatatom 99 503 5 0 0 0 - - -;
#X floatatom 140 504 5 0 0 0 - - -;
#X floatatom 177 504 5 0 0 0 - - -;
#X floatatom 213 503 5 0 0 0 - - -;
#X floatatom 256 558 5 0 0 0 - - -;
#X obj 272 513 pix_info -------;
#X floatatom 218 559 5 0 0 0 - - -;
#X floatatom 180 558 5 0 0 0 - - -;
#X floatatom 297 557 5 0 0 0 - - -;
#X floatatom 337 557 5 0 0 0 - - -;
#X floatatom 374 557 5 0 0 0 - - -;
#X floatatom 411 557 5 0 0 0 - - -;
#N canvas 417 159 561 386 blending 0;
#X obj 28 65 inlet;
#X obj 191 354 outlet;
#X obj 173 285 inlet;
#X obj 320 8 inlet;
#X obj 28 322 pix_composite;
#X obj 129 323 pix_add;
#X obj 285 322 pix_diff;
#X obj 191 322 pix_subtract;
#X obj 28 227 pix_alpha;
#N canvas 445 182 508 174 select 0;
#X obj 88 35 inlet;
#X msg 88 98 1;
#X msg 144 98 2;
#X msg 201 97 3;
#X msg 257 97 0;
#X obj 88 121 outlet;
#X msg 329 100 4;
#X obj 88 59 select pix_add pix_subtract pix_diff pix_composite pix_multiply
pix_mix;
#X msg 364 101 5;
#X connect 0 0 7 0;
#X connect 1 0 5 0;
#X connect 2 0 5 0;
#X connect 3 0 5 0;
#X connect 4 0 5 0;
#X connect 6 0 5 0;
#X connect 7 0 1 0;
#X connect 7 1 2 0;
#X connect 7 2 3 0;
#X connect 7 3 4 0;
#X connect 7 4 6 0;
#X connect 7 5 8 0;
#X connect 8 0 5 0;
#X restore 350 82 pd select blending method;
#X obj 360 324 pix_multiply;
#X obj 320 28 t b a;
#X obj 28 129 pix_buf;
#X text 26 39 pix1;
#X text 176 269 pix2;
#X obj 350 56 symbol;
#X text 99 232 we need an alpha componenct for 'composite';
#X text 85 115 [pix_add] and friends will overwrite the original (left)
image with the blend. [pix_buf] holds a local copy of the original
image and will refresh the output when banged.;
#N canvas 172 373 450 300 demux6 0;
#X obj 59 30 inlet;
#X obj 283 17 inlet;
#X obj 59 193 outlet;
#X obj 59 137 spigot;
#X obj 96 109 == 0;
#X obj 106 137 spigot;
#X obj 153 139 spigot;
#X obj 200 137 spigot;
#X obj 246 137 spigot;
#X obj 143 109 == 1;
#X obj 190 109 == 2;
#X obj 237 109 == 3;
#X obj 283 109 == 4;
#X obj 96 83 loadbang;
#X obj 106 194 outlet;
#X obj 153 195 outlet;
#X obj 200 196 outlet;
#X obj 246 195 outlet;
#X obj 283 61 f;
#X obj 328 110 == 5;
#X obj 59 52 t a a a a a a;
#X obj 295 138 spigot;
#X obj 295 196 outlet;
#X connect 0 0 20 0;
#X connect 1 0 18 0;
#X connect 3 0 2 0;
#X connect 4 0 3 1;
#X connect 5 0 14 0;
#X connect 6 0 15 0;
#X connect 7 0 16 0;
#X connect 8 0 17 0;
#X connect 9 0 5 1;
#X connect 10 0 6 1;
#X connect 11 0 7 1;
#X connect 12 0 8 1;
#X connect 13 0 4 0;
#X connect 18 0 4 0;
#X connect 18 0 9 0;
#X connect 18 0 10 0;
#X connect 18 0 11 0;
#X connect 18 0 12 0;
#X connect 18 0 19 0;
#X connect 19 0 21 1;
#X connect 20 0 3 0;
#X connect 20 1 5 0;
#X connect 20 2 6 0;
#X connect 20 3 7 0;
#X connect 20 4 8 0;
#X connect 20 5 21 0;
#X connect 21 0 22 0;
#X restore 28 190 pd demux6;
#X obj 493 287 inlet;
#X obj 454 324 pix_mix;
#X text 485 268 Crossfade;
#X connect 0 0 12 0;
#X connect 2 0 5 1;
#X connect 2 0 4 1;
#X connect 2 0 7 1;
#X connect 2 0 6 1;
#X connect 2 0 10 1;
#X connect 2 0 20 1;
#X connect 3 0 11 0;
#X connect 4 0 1 0;
#X connect 5 0 1 0;
#X connect 6 0 1 0;
#X connect 7 0 1 0;
#X connect 8 0 4 0;
#X connect 9 0 18 1;
#X connect 10 0 1 0;
#X connect 11 0 12 0;
#X connect 11 1 15 0;
#X connect 12 0 18 0;
#X connect 15 0 9 0;
#X connect 18 0 8 0;
#X connect 18 1 5 0;
#X connect 18 2 7 0;
#X connect 18 3 6 0;
#X connect 18 4 10 0;
#X connect 18 5 20 0;
#X connect 19 0 20 2;
#X connect 20 0 1 0;
#X restore 487 517 pd blending;
#X text 821 349 additive blending (likely to get white);
#X text 821 370 subtractive blending (likely to get black);
#X text 827 323 alpha blending;
#X msg 727 420 pix_multiply;
#X msg 728 395 pix_diff;
#X msg 726 371 pix_subtract;
#X msg 726 347 pix_add;
#X msg 727 323 pix_composite;
#X text 829 420 multiply 2 images together;
#X text 825 398 difference;
#X msg 728 449 pix_mix;
#X floatatom 499 133 5 0 0 0 - - -;
#X obj 727 223 select 0 1 2 3 4 5;
#X connect 0 0 6 0;
#X connect 0 0 8 0;
#X connect 5 0 8 1;
#X connect 6 0 7 0;
#X connect 7 0 5 0;
#X connect 8 0 40 3;
#X connect 9 0 52 0;
#X connect 9 0 53 0;
#X connect 10 0 19 0;
#X connect 17 0 25 0;
#X connect 17 0 40 0;
#X connect 18 0 33 0;
#X connect 18 0 40 1;
#X connect 19 0 20 0;
#X connect 20 0 9 0;
#X connect 21 0 4 0;
#X connect 25 1 27 0;
#X connect 25 2 26 0;
#X connect 25 3 24 0;
#X connect 25 4 28 0;
#X connect 25 5 29 0;
#X connect 25 6 30 0;
#X connect 25 7 31 0;
#X connect 33 1 35 0;
#X connect 33 2 34 0;
#X connect 33 3 32 0;
#X connect 33 4 36 0;
#X connect 33 5 37 0;
#X connect 33 6 38 0;
#X connect 33 7 39 0;
#X connect 40 0 21 0;
#X connect 44 0 40 2;
#X connect 45 0 40 2;
#X connect 46 0 40 2;
#X connect 47 0 40 2;
#X connect 48 0 40 2;
#X connect 51 0 40 2;
#X connect 53 0 48 0;
#X connect 53 1 47 0;
#X connect 53 2 46 0;
#X connect 53 3 45 0;
#X connect 53 4 44 0;
#X connect 53 5 51 0;
#X coords 0 -1 1 1 215 215 1 100 100;
