#N canvas 916 7 521 454 10;
#X obj 72 117 multi_osc;
#X obj 48 364 osc~;
#X obj 75 87 hsl 128 15 1 1000 1 0 empty empty empty -2 -6 0 8 -262144
-1 -1 7700 1;
#X obj 73 232 +~;
#X obj 88 214 hsl 128 15 1 10000 1 0 empty empty empty -2 -6 0 8 -262144
-1 -1 4400 1;
#X obj 72 184 *~;
#X obj 90 152 hsl 128 15 1 10000 1 0 empty empty empty -2 -6 0 8 -262144
-1 -1 9300 1;
#X obj 73 294 envelope;
#X obj 48 342 crossfade;
#X obj 297 302 hsl 128 15 0 127 0 0 empty empty empty -2 -6 0 8 -262144
-1 -1 12700 1;
#X text 79 86 frequency;
#X text 90 211 offset;
#X text 299 300 crossfade;
#X floatatom 174 88 5 0 0 0 - - -;
#X floatatom 173 152 5 0 0 0 - - -;
#X floatatom 186 214 5 0 0 0 - - -;
#X text 256 82 comment;
#X obj 74 36 inlet;
#X obj 216 103 inlet;
#X obj 96 173 inlet;
#X obj 271 162 inlet;
#X obj 294 257 inlet;
#X obj 48 386 outlet~;
#X obj 164 60 bng 15 250 50 0 empty empty empty 0 -6 0 8 -262144 -1
-1;
#X obj 387 34 inlet;
#X floatatom 388 301 5 0 0 0 - - -;
#X obj 164 131 line;
#X obj 427 73 inlet;
#X obj 294 278 line;
#X obj 74 56 line;
#X obj 98 193 line;
#X floatatom 425 104 5 0 0 0 - - -;
#X obj 225 128 pack f f;
#X obj 300 389 pack f f f f f f f f;
#X obj 281 389 bng 15 250 50 0 empty empty empty 0 -6 0 8 -262144 -1
-1;
#X obj 463 31 inlet;
#X text 464 10 envelope;
#X text 389 13 multi_osc;
#X text 427 57 trans_time;
#X text 327 253 crossfade;
#X text 127 187 offset;
#X obj 305 416 outlet;
#X text 309 162 envelope start;
#X obj 248 213 bng 15 250 50 0 empty empty empty 0 -6 0 8 -262144 -1
-1;
#X text 94 151 multiplier;
#X connect 0 0 5 0;
#X connect 1 0 22 0;
#X connect 2 0 0 0;
#X connect 2 0 13 0;
#X connect 2 0 33 0;
#X connect 3 0 7 0;
#X connect 3 0 8 0;
#X connect 4 0 3 1;
#X connect 4 0 15 0;
#X connect 4 0 33 2;
#X connect 4 0 34 0;
#X connect 5 0 3 0;
#X connect 6 0 5 1;
#X connect 6 0 14 0;
#X connect 6 0 33 1;
#X connect 6 0 34 0;
#X connect 7 0 8 1;
#X connect 8 0 1 0;
#X connect 9 0 8 2;
#X connect 9 0 25 0;
#X connect 9 0 34 0;
#X connect 9 0 33 4;
#X connect 17 0 29 0;
#X connect 18 0 32 0;
#X connect 19 0 30 0;
#X connect 20 0 43 0;
#X connect 21 0 28 0;
#X connect 23 0 2 0;
#X connect 24 0 0 1;
#X connect 26 0 6 0;
#X connect 27 0 31 0;
#X connect 28 0 9 0;
#X connect 29 0 2 0;
#X connect 30 0 4 0;
#X connect 31 0 32 1;
#X connect 31 0 29 1;
#X connect 31 0 30 1;
#X connect 31 0 28 1;
#X connect 32 0 26 0;
#X connect 33 0 41 0;
#X connect 34 0 33 0;
#X connect 35 0 7 2;
#X connect 43 0 7 1;
#X connect 43 0 33 3;
