#N canvas 0 0 454 304 10;
#X obj 47 64 inlet~;
#X obj 49 117 clip~ -1 1;
#X obj 50 167 outlet~;
#X obj 105 68 inlet;
#X obj 76 91 * -1;
#X connect 0 0 1 0;
#X connect 1 0 2 0;
#X connect 3 0 4 0;
#X connect 3 0 1 2;
#X connect 4 0 1 1;
