#N canvas 503 70 889 682 10;
#X obj 206 4 tgl 15 0 empty empty empty 0 -6 0 8 -262144 -1 -1 0 1
;
#X obj 177 8 bng 15 250 50 0 empty empty empty 0 -6 0 8 -262144 -1
-1;
#X obj 264 273 *~ 1;
#X obj 273 334 hsl 128 15 0 127 0 0 empty empty empty -2 -6 0 8 -262144
-1 -1 0 1;
#X obj 206 334 *~ 1;
#X obj 235 334 / 127;
#X obj 172 77 *~ 1;
#X obj 179 43 play_cosmo;
#X obj 502 111 drum_machine_1;
#X obj 236 8 bng 15 250 50 0 empty empty empty 0 -6 0 8 -262144 -1
-1;
#X obj 526 139 hsl 128 15 0 300 0 0 empty empty empty -2 -6 0 8 -262144
-1 -1 0 1;
#X obj 503 190 *~ 1;
#X obj 522 167 / 127;
#X obj 226 -58 r met;
#X obj 271 -58 hsl 128 15 0 8 0 0 empty empty empty -2 -6 0 8 -262144
-1 -1 0 1;
#X obj 177 -16 metro 200;
#X obj 176 -38 tgl 15 0 empty empty empty 0 -6 0 8 -262144 -1 -1 0
1;
#X obj 391 108 flanger;
#X obj 397 -7 hsl 128 15 0 127 0 0 empty empty empty -2 -6 0 8 -262144
-1 -1 5600 1;
#X obj 398 14 hsl 128 15 0 100 0 0 empty empty empty -2 -6 0 8 -262144
-1 -1 7112 1;
#X obj 397 34 hsl 128 15 1 400 1 0 empty empty empty -2 -6 0 8 -262144
-1 -1 0 1;
#X obj 397 88 hsl 128 15 0 127 0 0 empty empty empty -2 -6 0 8 -262144
-1 -1 0 1;
#X text 407 86 volume;
#X text 398 32 offset;
#X text 403 13 LFO Freq;
#X text 397 -8 depth;
#X obj 396 52 hsl 128 15 0 127 0 0 empty empty empty -2 -6 0 8 -262144
-1 -1 0 1;
#X text 401 51 feedback;
#X obj 396 70 hsl 128 15 0 127 0 0 empty empty empty -2 -6 0 8 -262144
-1 -1 0 1;
#X text 399 68 feedback delay;
#X obj 259 -3 hsl 128 15 0 127 0 0 empty empty empty -2 -6 0 8 -262144
-1 -1 5600 1;
#X obj 259 17 hsl 128 15 0 100 0 0 empty empty empty -2 -6 0 8 -262144
-1 -1 8890 1;
#X obj 259 37 hsl 128 15 0 400 0 0 empty empty empty -2 -6 0 8 -262144
-1 -1 0 1;
#X obj 257 90 hsl 128 15 0 127 0 0 empty empty empty -2 -6 0 8 -262144
-1 -1 12700 1;
#X text 328 86 volume;
#X text 312 36 offset;
#X text 312 17 LFO Freq;
#X text 306 -2 depth;
#X obj 258 55 hsl 128 15 0 127 0 0 empty empty empty -2 -6 0 8 -262144
-1 -1 7000 1;
#X text 319 54 feedback;
#X obj 258 73 hsl 128 15 0 127 0 0 empty empty empty -2 -6 0 8 -262144
-1 -1 0 1;
#X text 283 71 feedback delay;
#X floatatom 367 -57 5 0 0 0 - - -;
#X obj 536 16 hsl 128 15 0 100 0 0 empty empty empty -2 -6 0 8 -262144
-1 -1 0 1;
#X obj 292 233 hsl 128 15 0 127 0 0 empty empty empty -2 -6 0 8 -262144
-1 -1 0 1;
#X obj 288 253 / 127;
#X obj 253 111 flanger;
#X floatatom 493 -5 5 0 0 0 - - -;
#X floatatom 494 14 5 0 0 0 - - -;
#X floatatom 493 35 5 0 0 0 - - -;
#X floatatom 494 54 5 0 0 0 - - -;
#X floatatom 495 69 5 0 0 0 - - -;
#X floatatom 493 87 5 0 0 0 - - -;
#X text 270 -58 samp repeat;
#X obj 174 163 tape_pitchshift;
#X obj 259 135 hsl 128 15 -30 30 0 0 empty empty empty -2 -6 0 8 -262144
-1 -1 4200 1;
#X obj 598 349 time_crunch;
#X obj 675 258 gen_env;
#X obj 225 -38 pow2;
#X msg 312 111 0;
#X obj 241 184 bng 15 250 50 0 empty empty empty 0 -6 0 8 -262144 -1
-1;
#X obj 322 161 r met;
#X obj 367 161 hsl 128 15 0 8 0 0 empty empty empty -2 -6 0 8 -262144
-1 -1 0 1;
#X obj 273 203 metro 200;
#X obj 272 181 tgl 15 0 empty empty empty 0 -6 0 8 -262144 -1 -1 0
1;
#X floatatom 463 162 5 0 0 0 - - -;
#X obj 321 181 pow2;
#X text 366 161 env repeat;
#X obj 604 220 *~;
#X obj 455 273 multi_osc;
#X obj 458 252 hsl 128 15 20 1000 1 0 empty empty empty -2 -6 0 8 -262144
-1 -1 0 1;
#X text 511 311 ring_modulation;
#X text 625 211 ring mod with self (good!);
#X obj 47 312 hsl 128 15 0 127 0 0 empty empty empty -2 -6 0 8 -262144
-1 -1 12700 1;
#X floatatom 135 313 5 0 0 0 - - -;
#X obj 36 336 crossfade;
#X obj 173 187 envelope;
#X obj 184 114 compressor;
#X obj 466 220 multi_osc;
#X obj 431 -29 delay;
#X obj 431 -78 t b b;
#X obj 585 -27 bng 15 250 50 0 empty empty empty 0 -6 0 8 -262144 -1
-1;
#X obj 545 -32 bng 15 250 50 0 empty empty empty 0 -6 0 8 -262144 -1
-1;
#X floatatom 538 -48 5 0 0 0 - - -;
#X obj 455 -51 random 2000;
#X obj 528 -75 hsl 128 15 0 2000 0 0 empty empty empty -2 -6 0 8 -262144
-1 -1 0 1;
#X floatatom 269 -23 8 0 0 0 - - -;
#X obj 261 378 recorder;
#X obj 205 418 s env;
#X obj 205 398 dbtorms;
#X obj 205 378 env~ 128;
#X obj 677 184 *~;
#X text 698 175 ring mod with self (good!);
#X obj 703 11 hsl 128 15 10 1000 0 0 empty empty empty -2 -6 0 8 -262144
-1 -1 0 1;
#X floatatom 665 12 5 0 0 0 - - -;
#X obj 735 31 s met;
#X text 704 10 unaltered metro;
#X floatatom 800 11 5 0 0 0 - - -;
#X obj 665 -71 loadbang;
#X msg 665 -50 8;
#X obj 665 -11 pow2;
#X obj 687 -31 hsl 128 15 1 16 0 0 empty empty empty -2 -6 0 8 -262144
-1 -1 0 1;
#X floatatom 754 -31 10 0 0 0 - - -;
#X obj 694 -50 hsl 128 15 0 10 0 0 empty empty empty -2 -6 0 8 -262144
-1 -1 0 1;
#X text 700 -50 base;
#X floatatom 790 -49 5 0 0 0 - - -;
#X text 688 -33 2^beats/bar;
#X obj 667 74 metro 500;
#X obj 667 54 tgl 15 0 empty empty empty 0 -6 0 8 -262144 -1 -1 0 1
;
#X obj 667 32 delay 1;
#X obj 756 99 s beat;
#X floatatom 526 400 5 0 0 0 - - -;
#X obj 526 373 env~ 2048;
#X obj 664 425 sendOSC;
#X msg 672 400 connect localhost 10002;
#X msg 682 338 send /beat 1;
#X obj 410 247 mtof;
#X floatatom 411 223 5 0 0 0 - - -;
#X msg 624 313 send /start 1;
#X obj 30 -26 bng 15 250 50 0 empty empty empty 0 -6 0 8 -262144 -1
-1;
#X obj 11 -70 dumpOSC 10002;
#X floatatom 28 63 5 0 0 0 - - -;
#X obj 61 63 bng 15 250 50 0 empty empty empty 0 -6 0 8 -262144 -1
-1;
#X obj 28 42 OSCroute /ramp;
#X obj 52 108 * 5;
#X obj 40 187 OSCroute /seq;
#X obj 81 220 bng 15 250 50 0 empty empty empty 0 -6 0 8 -262144 -1
-1;
#X obj 55 251 s beat;
#X obj 54 405 bng 15 250 50 0 empty empty empty 0 -6 0 8 -262144 -1
-1;
#X obj 13 405 s kick;
#X obj 14 382 OSCroute /kick;
#X obj 150 404 bng 15 250 50 0 empty empty empty 0 -6 0 8 -262144 -1
-1;
#X obj 103 382 OSCroute /snare;
#X obj 103 405 s snare;
#X obj 52 86 * 4;
#X obj 17 -48 OSCroute /sample;
#X obj 137 -51 bng 15 250 50 0 empty empty empty 0 -6 0 8 -262144 -1
-1;
#X obj 124 -73 OSCroute /file;
#X obj 72 464 bng 15 250 50 0 empty empty empty 0 -6 0 8 -262144 -1
-1;
#X obj 31 431 OSCroute /list;
#X obj 673 154 gen_env2;
#X obj 124 -13 symbol;
#X obj 599 190 gen_env2;
#X msg 125 15 \$1;
#X obj 119 459 print l;
#X obj 31 482 unpack s s s s;
#X obj 31 526 print l;
#X obj 57 547 print l;
#X obj 83 567 print l;
#X obj 110 526 print l;
#X msg 31 503 \$1;
#X msg 57 503 \$1;
#X msg 83 503 \$1;
#X msg 109 503 \$1;
#X connect 0 0 7 1;
#X connect 1 0 80 0;
#X connect 1 0 7 0;
#X connect 2 0 4 0;
#X connect 3 0 5 0;
#X connect 4 0 87 0;
#X connect 4 0 90 0;
#X connect 5 0 4 1;
#X connect 6 0 54 0;
#X connect 6 0 75 0;
#X connect 7 0 6 0;
#X connect 8 0 11 0;
#X connect 9 0 7 2;
#X connect 10 0 12 0;
#X connect 12 0 11 1;
#X connect 13 0 58 0;
#X connect 14 0 42 0;
#X connect 14 0 58 1;
#X connect 15 0 1 0;
#X connect 16 0 15 0;
#X connect 17 0 2 0;
#X connect 18 0 17 2;
#X connect 18 0 47 0;
#X connect 19 0 17 1;
#X connect 19 0 48 0;
#X connect 20 0 17 3;
#X connect 20 0 49 0;
#X connect 21 0 17 6;
#X connect 21 0 52 0;
#X connect 26 0 17 4;
#X connect 26 0 50 0;
#X connect 28 0 17 5;
#X connect 28 0 51 0;
#X connect 30 0 46 2;
#X connect 31 0 46 1;
#X connect 32 0 46 3;
#X connect 33 0 46 6;
#X connect 38 0 46 4;
#X connect 40 0 46 5;
#X connect 43 0 19 0;
#X connect 43 0 31 0;
#X connect 44 0 45 0;
#X connect 45 0 2 1;
#X connect 46 0 75 1;
#X connect 54 0 46 0;
#X connect 54 0 76 0;
#X connect 55 0 54 1;
#X connect 58 0 15 1;
#X connect 58 0 86 0;
#X connect 59 0 55 0;
#X connect 60 0 76 1;
#X connect 61 0 66 0;
#X connect 62 0 65 0;
#X connect 62 0 66 1;
#X connect 63 0 60 0;
#X connect 64 0 63 0;
#X connect 66 0 63 1;
#X connect 68 0 17 0;
#X connect 69 0 4 0;
#X connect 69 0 112 0;
#X connect 70 0 69 0;
#X connect 73 0 74 0;
#X connect 73 0 75 2;
#X connect 75 0 4 0;
#X connect 79 0 118 0;
#X connect 80 0 79 0;
#X connect 80 1 84 0;
#X connect 84 0 79 1;
#X connect 84 0 83 0;
#X connect 85 0 84 1;
#X connect 89 0 88 0;
#X connect 90 0 89 0;
#X connect 91 0 17 0;
#X connect 93 0 94 0;
#X connect 93 0 97 0;
#X connect 94 0 95 0;
#X connect 94 0 107 1;
#X connect 98 0 99 0;
#X connect 99 0 100 0;
#X connect 100 0 94 0;
#X connect 101 0 100 1;
#X connect 101 0 102 0;
#X connect 103 0 100 0;
#X connect 103 0 105 0;
#X connect 107 0 110 0;
#X connect 107 0 115 0;
#X connect 108 0 107 0;
#X connect 109 0 108 0;
#X connect 112 0 111 0;
#X connect 114 0 113 0;
#X connect 115 0 113 0;
#X connect 116 0 70 0;
#X connect 117 0 116 0;
#X connect 120 0 123 0;
#X connect 120 0 125 0;
#X connect 120 0 130 0;
#X connect 120 0 132 0;
#X connect 120 0 135 0;
#X connect 120 0 137 0;
#X connect 120 0 139 0;
#X connect 121 0 124 0;
#X connect 121 0 134 0;
#X connect 123 0 122 0;
#X connect 123 0 121 0;
#X connect 124 0 31 0;
#X connect 124 0 38 0;
#X connect 125 0 126 0;
#X connect 125 0 127 0;
#X connect 130 0 128 0;
#X connect 130 0 129 0;
#X connect 132 0 131 0;
#X connect 132 0 133 0;
#X connect 134 0 30 0;
#X connect 134 0 19 0;
#X connect 134 0 18 0;
#X connect 135 0 119 0;
#X connect 137 0 136 0;
#X connect 137 0 141 0;
#X connect 137 0 7 3;
#X connect 139 0 138 0;
#X connect 139 0 144 0;
#X connect 139 0 145 0;
#X connect 140 0 91 0;
#X connect 140 0 91 1;
#X connect 141 0 143 0;
#X connect 142 0 68 0;
#X connect 142 0 68 1;
#X connect 145 0 150 0;
#X connect 145 1 151 0;
#X connect 145 2 152 0;
#X connect 145 3 153 0;
#X connect 150 0 146 0;
#X connect 151 0 147 0;
#X connect 152 0 148 0;
#X connect 153 0 149 0;
