#N canvas 67 225 586 407 10;
#X obj 342 51 hsl 128 15 0 400 0 0 empty empty empty -2 -6 0 8 -262144
-1 -1 0 1;
#X obj 339 80 * 1;
#X floatatom 364 80 8 0 0 0 - - -;
#X obj 152 99 osc~;
#X obj 152 48 hsl 128 15 0 100 0 0 empty empty empty -2 -6 0 8 -262144
-1 -1 2400 1;
#X obj 154 130 *~ 1;
#X obj 192 79 hsl 128 15 0 127 0 0 empty empty empty -2 -6 0 8 -262144
-1 -1 1600 1;
#X obj 162 164 +~ 1;
#X obj 183 107 / 60;
#X obj 147 13 inlet;
#X obj 201 14 inlet;
#X obj 339 13 inlet;
#X obj 15 186 delwrite~ \$0-delay1 500;
#X obj 161 215 vd~ \$0-delay1;
#X obj 14 12 inlet~;
#X obj 162 311 outlet~;
#X text 64 9 signal;
#X text 147 29 osc_freq;
#X text 187 61 depth;
#X text 334 33 offset;
#X obj 183 240 hsl 128 15 0 127 0 0 empty empty empty -2 -6 0 8 -262144
-1 -1 4000 1;
#X obj 159 284 *~ 1;
#X obj 181 261 / 127;
#X obj 316 219 loadbang;
#X obj 506 13 inlet;
#X msg 317 240 62;
#X obj 341 122 pack 0 5;
#X obj 342 154 line~;
#X msg 393 101 20;
#X obj 299 283 hsl 128 15 0 127 0 0 empty empty empty -2 -6 0 8 -262144
-1 -1 0 1;
#X obj 282 262 / 127;
#X obj 259 282 *~ 0;
#X obj 384 12 inlet;
#X text 381 34 feedback;
#X text 523 34 vol;
#X obj 236 312 simple_delay;
#X obj 411 157 hsl 128 15 0 300 0 0 empty empty empty -2 -6 0 8 -262144
-1 -1 2752 1;
#X obj 405 183 * 1;
#X floatatom 430 183 8 0 0 0 - - -;
#X obj 407 225 pack 0 5;
#X msg 459 204 20;
#X obj 409 258 line;
#X floatatom 447 294 5 0 0 0 - - -;
#X obj 441 15 inlet;
#X text 438 33 feedback_del;
#X obj 465 115 outlet;
#X obj 474 94 pack f f f f f f;
#X obj 454 94 bng 15 250 50 0 empty empty empty 0 -6 0 8 -262144 -1
-1;
#X connect 0 0 1 0;
#X connect 1 0 2 0;
#X connect 1 0 26 0;
#X connect 3 0 5 0;
#X connect 4 0 3 0;
#X connect 5 0 7 0;
#X connect 6 0 8 0;
#X connect 7 0 13 0;
#X connect 8 0 5 1;
#X connect 9 0 4 0;
#X connect 9 0 46 0;
#X connect 10 0 6 0;
#X connect 10 0 46 1;
#X connect 10 0 47 0;
#X connect 11 0 0 0;
#X connect 11 0 46 2;
#X connect 11 0 47 0;
#X connect 13 0 21 0;
#X connect 13 0 31 0;
#X connect 14 0 12 0;
#X connect 20 0 22 0;
#X connect 21 0 15 0;
#X connect 22 0 21 1;
#X connect 23 0 25 0;
#X connect 24 0 20 0;
#X connect 24 0 46 5;
#X connect 24 0 47 0;
#X connect 25 0 20 0;
#X connect 26 0 27 0;
#X connect 27 0 7 0;
#X connect 28 0 26 1;
#X connect 29 0 30 0;
#X connect 30 0 31 1;
#X connect 31 0 35 0;
#X connect 32 0 30 0;
#X connect 32 0 46 3;
#X connect 35 0 12 0;
#X connect 36 0 37 0;
#X connect 37 0 38 0;
#X connect 37 0 39 0;
#X connect 39 0 41 0;
#X connect 40 0 39 1;
#X connect 41 0 35 1;
#X connect 41 0 42 0;
#X connect 43 0 36 0;
#X connect 43 0 46 4;
#X connect 43 0 47 0;
#X connect 46 0 45 0;
#X connect 47 0 46 0;
