#N canvas 17 128 967 681 10;
#X obj 507 718 outlet~;
#X floatatom 74 139 5 0 0 0 - - -;
#X floatatom 135 139 5 0 0 0 - - -;
#X floatatom 156 213 5 0 0 0 - - -;
#X floatatom 218 118 5 0 0 0 - - -;
#X obj 74 161 pack 10 200;
#X obj 156 191 del;
#X obj 185 122 bng 15 250 50 0 empty empty empty 0 -6 0 8 -262144 -1
-1;
#X obj 156 232 pack 1 2500;
#X msg 268 201 0;
#X floatatom 323 203 5 0 0 0 - - -;
#X obj 425 618 osc~;
#X obj 508 692 *~;
#X obj 156 274 line~;
#X obj 268 227 pack 0 200;
#X obj 268 177 del;
#X obj 156 296 /~ 10;
#X obj 216 61 metro 500;
#X obj 218 37 tgl 15 0 empty empty empty 0 -6 0 8 -262144 -1 -1 1 1
;
#X obj 273 1 hsl 128 15 10 1000 0 0 empty empty empty -2 -6 0 8 -262144
-1 -1 0 1;
#X obj 33 -38 unpack 0 0 0 0 0;
#N canvas 49 93 466 316 graph61 0;
#X array sequ 16 float 1;
#A 0 50 60 100 680 450 870 160 400 230 450 780 900 345 123 567 540
;
#X coords 0 1000 15 0 200 140 1;
#X restore 728 -41 graph;
#X obj 396 354 tabread sequ;
#X floatatom 396 379 5 0 0 0 - - -;
#X obj 433 285 + 1;
#X obj 398 284 f;
#X floatatom 397 316 5 0 0 0 - - -;
#X msg 99 642 1;
#X floatatom 221 535 5 0 0 0 - - -;
#X obj 196 613 metro;
#X obj 196 589 tgl 15 0 empty empty empty 0 -6 0 8 -262144 -1 -1 1
1;
#X obj 206 675 pack 0 1;
#X obj 135 561 + 1;
#X obj 91 551 f;
#X floatatom 90 583 5 0 0 0 - - -;
#X obj 135 583 mod 2;
#X obj 101 609 route 1;
#X floatatom 265 631 5 0 0 0 - - -;
#X obj 220 585 * 1000;
#X obj 205 702 line~;
#X msg 140 642 -1;
#X obj 106 705 sig~;
#X obj 95 512 delay;
#X obj 159 511 / 2;
#X msg 600 355 \; sequ 0 50 60 100 680 450 870 160 400;
#X obj 303 687 hsl 128 15 0 127 0 0 empty empty empty -2 -6 0 8 -262144
-1 -1 0 1;
#X obj 290 733 *~ 1;
#X obj 309 710 / 127;
#X obj 148 725 hsl 128 15 0 127 0 0 empty empty empty -2 -6 0 8 -262144
-1 -1 0 1;
#X obj 126 768 *~ 1;
#X obj 145 745 / 127;
#X obj 463 617 hsl 128 15 0 127 0 0 empty empty empty -2 -6 0 8 -262144
-1 -1 5000 1;
#X obj 425 661 *~ 1;
#X obj 444 638 / 127;
#X msg 171 12 10 100 4 600 300;
#X msg 170 -16 10 5 5 100 100;
#X msg 601 229 \; sequ 0 50 60 100 440 365 700 300 250 200 250 260
280 560 740 120 780;
#X obj 606 478 pow 2;
#X obj 633 399 hsl 128 15 0 16 0 0 empty empty empty -2 -6 0 8 -262144
-1 -1 12700 1;
#X msg 592 449 2;
#X floatatom 765 452 5 0 0 0 - - -;
#X obj 630 453 del 1;
#X obj 701 452 * 1;
#X msg 673 451 1;
#X obj 628 424 int;
#X floatatom 649 502 5 0 0 0 - - -;
#X obj 603 185 pack;
#X obj 604 205 route 0 1 2 3;
#X obj 693 196 bng 15 250 50 0 empty empty empty 0 -6 0 8 -262144 -1
-1;
#X obj 713 196 bng 15 250 50 0 empty empty empty 0 -6 0 8 -262144 -1
-1;
#X obj 603 164 + 0;
#X obj 558 505 *;
#X floatatom 570 479 5 0 0 0 - - -;
#X floatatom 626 164 5 0 0 0 - - -;
#X msg 600 276 \; sequ 0 50 60 100 320 505 999 300 780 230 450 780
900 345 123 567 540;
#X floatatom 285 36 5 0 0 0 - - -;
#X obj 285 59 s met;
#X obj 605 140 random 4;
#X obj 435 305 mod 8;
#X msg 468 282 4;
#X msg 529 285 16;
#X msg 497 284 8;
#X obj 397 334 + 0;
#X obj 452 333 hsl 128 15 0 12 0 0 empty empty empty -2 -6 0 8 -262144
-1 -1 0 1;
#X msg 172 -41 10 5 5 300 50;
#X msg 173 33 10 6 5 20 10;
#X floatatom 810 342 5 0 0 0 - - -;
#X msg 601 323 \; sequ 0 50 60 100 480 365 570 100 760;
#X obj 763 500 loadbang;
#X msg 756 528 8;
#X msg 789 526 32;
#X obj 845 499 delay 1;
#X obj 36 -10 hsl 128 15 1 20 0 0 empty empty empty -2 -6 0 8 -262144
-1 -1 6016 1;
#X obj 36 9 hsl 128 15 1 200 0 0 empty empty empty -2 -6 0 8 -262144
-1 -1 255 1;
#X obj 34 29 hsl 128 15 0 20 0 0 empty empty empty -2 -6 0 8 -262144
-1 -1 3175 1;
#X obj 35 48 hsl 128 15 10 1500 0 0 empty empty empty -2 -6 0 8 -262144
-1 -1 767 1;
#X obj 35 69 hsl 128 15 0 500 0 0 empty empty empty -2 -6 0 8 -262144
-1 -1 2540 1;
#X text 37 -11 attack gain;
#X text 38 8 attack time;
#X text 35 28 sustain gain;
#X text 35 45 sustain time;
#X text 36 68 decay time;
#X text 85 177 attack;
#X text 162 244 sustain;
#X text 267 242 decay;
#X text 351 687 sawtooth;
#X text 163 723 square pulse;
#X text 466 615 sin wave;
#X obj 222 560 expr 1/(2 * $f1);
#X floatatom 550 334 5 0 0 0 - - -;
#X floatatom 558 618 5 0 0 0 - - -;
#X floatatom 244 725 5 0 0 0 - - -;
#X floatatom 400 686 5 0 0 0 - - -;
#X floatatom 728 401 5 0 0 0 - - -;
#X text 633 398 beats/bar;
#X obj 605 119 switch_bang;
#X obj 665 99 tgl 15 0 empty empty empty 0 -6 0 8 -262144 -1 -1 0 1
;
#X floatatom 133 -10 5 0 0 0 - - -;
#X floatatom 134 12 5 0 0 0 - - -;
#X floatatom 131 31 5 0 0 0 - - -;
#X floatatom 132 49 5 0 0 0 - - -;
#X floatatom 133 70 5 0 0 0 - - -;
#X obj 12 220 pack 0 0 0 0 0;
#X obj 33 423 qlist;
#X obj 35 263 openpanel;
#X obj 35 283 symbol;
#X msg 35 304 read \$1;
#X obj 92 263 savepanel;
#X obj 35 244 bng 15 250 50 0 empty empty empty 0 -6 0 8 -262144 -1
-1;
#X msg 12 350 add \$1 \$2 \$3 \$4 \$5;
#X obj 92 283 symbol;
#X msg 92 304 write \$1;
#X obj 92 242 bng 15 250 50 0 empty empty empty 0 -6 0 8 -262144 -1
-1;
#X text 274 0 unaltered metro;
#X floatatom 370 1 5 0 0 0 - - -;
#X text 454 331 start beat pos;
#X msg 69 395 print;
#X obj 11 192 bng 15 250 50 0 empty empty empty 0 -6 0 8 -262144 -1
-1;
#X obj 13 372 print;
#X obj 212 93 delay;
#X obj 254 93 random 200;
#X obj 276 117 hsl 128 15 0 127 0 0 empty empty empty -2 -6 0 8 -262144
-1 -1 0 1;
#X msg 298 665 0;
#X msg 145 702 0;
#X msg 459 594 50;
#X connect 1 0 5 0;
#X connect 2 0 5 1;
#X connect 2 0 6 1;
#X connect 3 0 8 0;
#X connect 4 0 8 1;
#X connect 4 0 15 1;
#X connect 5 0 13 0;
#X connect 6 0 3 0;
#X connect 6 0 15 0;
#X connect 7 0 1 0;
#X connect 7 0 6 0;
#X connect 8 0 13 0;
#X connect 9 0 14 0;
#X connect 10 0 14 1;
#X connect 11 0 52 0;
#X connect 12 0 0 0;
#X connect 13 0 16 0;
#X connect 14 0 13 0;
#X connect 15 0 9 0;
#X connect 16 0 12 1;
#X connect 17 0 25 0;
#X connect 17 0 115 0;
#X connect 17 0 140 0;
#X connect 17 0 139 0;
#X connect 18 0 17 0;
#X connect 19 0 75 0;
#X connect 19 0 134 0;
#X connect 20 0 92 0;
#X connect 20 1 93 0;
#X connect 20 2 94 0;
#X connect 20 3 95 0;
#X connect 20 4 96 0;
#X connect 22 0 23 0;
#X connect 23 0 28 0;
#X connect 23 0 11 0;
#X connect 24 0 78 0;
#X connect 25 0 26 0;
#X connect 25 0 24 0;
#X connect 26 0 82 0;
#X connect 27 0 31 0;
#X connect 27 0 41 0;
#X connect 28 0 108 0;
#X connect 29 0 33 0;
#X connect 29 0 42 0;
#X connect 30 0 29 0;
#X connect 31 0 39 0;
#X connect 32 0 35 0;
#X connect 33 0 34 0;
#X connect 33 0 32 0;
#X connect 34 0 36 0;
#X connect 35 0 33 1;
#X connect 36 0 27 0;
#X connect 36 1 40 0;
#X connect 38 0 29 1;
#X connect 38 0 37 0;
#X connect 38 0 31 1;
#X connect 38 0 43 0;
#X connect 39 0 46 0;
#X connect 40 0 31 0;
#X connect 40 0 41 0;
#X connect 41 0 49 0;
#X connect 42 0 33 0;
#X connect 43 0 42 1;
#X connect 45 0 47 0;
#X connect 45 0 112 0;
#X connect 46 0 12 0;
#X connect 47 0 46 1;
#X connect 48 0 50 0;
#X connect 48 0 111 0;
#X connect 49 0 12 0;
#X connect 50 0 49 1;
#X connect 51 0 53 0;
#X connect 51 0 110 0;
#X connect 52 0 12 0;
#X connect 53 0 52 1;
#X connect 54 0 20 0;
#X connect 55 0 20 0;
#X connect 57 0 65 0;
#X connect 57 0 71 0;
#X connect 57 0 113 0;
#X connect 58 0 64 0;
#X connect 59 0 57 0;
#X connect 61 0 63 0;
#X connect 62 0 60 0;
#X connect 62 0 57 1;
#X connect 63 0 62 0;
#X connect 64 0 59 0;
#X connect 64 0 61 0;
#X connect 64 0 62 1;
#X connect 66 0 67 0;
#X connect 67 0 56 0;
#X connect 67 0 68 0;
#X connect 67 1 74 0;
#X connect 67 1 69 0;
#X connect 67 2 87 0;
#X connect 67 3 44 0;
#X connect 70 0 66 0;
#X connect 71 0 75 0;
#X connect 72 0 71 1;
#X connect 75 0 17 1;
#X connect 75 0 76 0;
#X connect 77 0 70 0;
#X connect 77 0 73 0;
#X connect 78 0 25 1;
#X connect 79 0 78 1;
#X connect 80 0 78 1;
#X connect 81 0 78 1;
#X connect 82 0 22 0;
#X connect 83 0 82 1;
#X connect 83 0 109 0;
#X connect 84 0 20 0;
#X connect 85 0 20 0;
#X connect 88 0 89 0;
#X connect 88 0 90 0;
#X connect 88 0 55 0;
#X connect 88 0 91 0;
#X connect 88 0 81 0;
#X connect 88 0 30 0;
#X connect 88 0 144 0;
#X connect 88 0 143 0;
#X connect 88 0 142 0;
#X connect 89 0 72 0;
#X connect 90 0 58 0;
#X connect 91 0 18 0;
#X connect 92 0 1 0;
#X connect 92 0 117 0;
#X connect 93 0 2 0;
#X connect 93 0 118 0;
#X connect 94 0 3 0;
#X connect 94 0 119 0;
#X connect 95 0 4 0;
#X connect 95 0 120 0;
#X connect 96 0 10 0;
#X connect 96 0 121 0;
#X connect 108 0 38 0;
#X connect 115 0 77 0;
#X connect 116 0 115 1;
#X connect 117 0 122 0;
#X connect 118 0 122 1;
#X connect 119 0 122 2;
#X connect 120 0 122 3;
#X connect 121 0 122 4;
#X connect 124 0 125 0;
#X connect 125 0 126 0;
#X connect 126 0 123 0;
#X connect 127 0 130 0;
#X connect 128 0 124 0;
#X connect 129 0 123 0;
#X connect 130 0 131 0;
#X connect 131 0 123 0;
#X connect 132 0 127 0;
#X connect 136 0 123 0;
#X connect 137 0 122 0;
#X connect 139 0 7 0;
#X connect 140 0 139 1;
#X connect 141 0 140 1;
#X connect 142 0 45 0;
#X connect 143 0 48 0;
#X connect 144 0 51 0;
