#N canvas 325 142 602 454 10;
#X obj 281 100 table \$0-buffer 200;
#X obj 102 92 hsl 128 15 1 200 0 0 empty empty empty -2 -6 0 8 -262144
-1 -1 0 1;
#X text 101 91 buffersize;
#X floatatom 182 92 5 0 0 0 - - -;
#X obj 262 208 + 1;
#X obj 227 207 f;
#X floatatom 264 297 5 0 0 0 - - -;
#X obj 274 172 metro 1;
#X obj 264 275 moses 1199;
#X obj 265 315 / 10;
#X obj 262 230 mod 16;
#X connect 4 0 10 0;
#X connect 5 0 4 0;
#X connect 6 0 9 0;
#X connect 7 0 5 0;
#X connect 8 0 6 0;
#X connect 10 0 5 1;
#X connect 10 0 8 0;
