#N canvas 780 142 610 566 10;
#X floatatom -389 80 10 0 0 0 - - -;
#X obj -446 56 bng 15 250 50 0 empty empty empty 0 -6 0 8 -262144 -1
-1;
#X obj -407 -82 openpanel;
#X obj -407 -102 bng 15 250 50 0 empty empty empty 0 -6 0 8 -262144
-1 -1;
#X obj -390 -18 soundfiler;
#X symbolatom -405 35 70 0 0 0 - - -;
#X obj -391 -63 pack s s;
#X obj -314 -107 loadbang;
#X msg -391 -42 read -resize \$1 \$2;
#X msg -343 212 set \$1;
#X obj -343 239 tabread4~;
#X obj -61 -157 table \$0-sample;
#X obj -314 -84 symbol \$0-sample;
#X obj -377 119 / 44100;
#X obj -322 265 hsl 128 15 0 1 0 0 empty empty empty -2 -6 0 8 -262144
-1 -1 0 1;
#X obj -344 309 *~ 1;
#X obj -343 347 outlet~;
#X obj -170 254 inlet;
#X obj -406 -152 inlet;
#X obj -385 -132 inlet;
#X obj -264 347 outlet;
#X text -366 -153 openfile;
#X text -334 -133 filename;
#X text -218 348 finished;
#X text -369 185 multiply by sample size - to play whole sample length
;
#X text -137 254 volume;
#X obj -396 192 line~;
#X msg -431 131 0;
#X obj -397 168 pack;
#X floatatom -159 67 5 0 0 0 - - -;
#X obj -225 65 expr 1/$f1;
#X text -123 66 period;
#X obj -446 22 inlet;
#X text -447 4 play;
#X obj -268 230 delay;
#X obj -268 205 bng 15 250 50 0 empty empty empty 0 -6 0 8 -262144
-1 -1;
#X obj -14 146 metro 100;
#X obj -14 120 tgl 15 0 empty empty empty 0 -6 0 8 -262144 -1 -1 0
1;
#X obj -14 173 snapshot~;
#X floatatom -14 219 5 0 0 0 - - -;
#X obj -381 54 delay 1;
#X obj -377 140 * 1000;
#X floatatom -356 170 5 0 0 0 - - -;
#X obj -235 307 s player-finished;
#X obj -244 -112 bng 15 250 50 0 empty empty empty 0 -6 0 8 -262144
-1 -1;
#X obj -311 106 hsl 128 15 0 44100 0 0 empty empty empty -2 -6 0 8
-262144 -1 -1 0 1;
#X floatatom -218 104 5 0 0 0 - - -;
#X obj -350 -130 bng 15 250 50 0 empty empty empty 0 -6 0 8 -262144
-1 -1;
#X floatatom -168 274 5 0 0 0 - - -;
#X obj -300 289 / 100;
#X obj -383 12 symbol;
#X obj -440 218 metro 500;
#X obj -437 196 tgl 15 0 empty empty empty 0 -6 0 8 -262144 -1 -1 0
1;
#X obj -436 246 snapshot~;
#X floatatom -435 267 8 0 0 0 - - -;
#X connect 0 0 13 0;
#X connect 0 0 28 0;
#X connect 1 0 27 0;
#X connect 1 0 40 0;
#X connect 2 0 5 0;
#X connect 2 0 6 0;
#X connect 3 0 2 0;
#X connect 4 0 0 0;
#X connect 4 0 1 0;
#X connect 6 0 8 0;
#X connect 7 0 12 0;
#X connect 8 0 4 0;
#X connect 9 0 10 0;
#X connect 10 0 15 0;
#X connect 12 0 6 1;
#X connect 12 0 9 0;
#X connect 13 0 41 0;
#X connect 14 0 15 1;
#X connect 15 0 16 0;
#X connect 17 0 48 0;
#X connect 17 0 49 0;
#X connect 18 0 3 0;
#X connect 19 0 47 0;
#X connect 19 0 6 0;
#X connect 19 0 50 0;
#X connect 26 0 10 0;
#X connect 26 0 38 0;
#X connect 26 0 53 0;
#X connect 27 0 26 0;
#X connect 28 0 26 0;
#X connect 30 0 29 0;
#X connect 32 0 1 0;
#X connect 34 0 20 0;
#X connect 34 0 43 0;
#X connect 35 0 34 0;
#X connect 36 0 38 0;
#X connect 37 0 36 0;
#X connect 38 0 39 0;
#X connect 40 0 0 0;
#X connect 40 0 35 0;
#X connect 41 0 28 1;
#X connect 41 0 34 1;
#X connect 41 0 42 0;
#X connect 44 0 12 0;
#X connect 45 0 13 1;
#X connect 45 0 46 0;
#X connect 49 0 15 1;
#X connect 50 0 5 0;
#X connect 51 0 53 0;
#X connect 52 0 51 0;
#X connect 53 0 54 0;
