#N canvas 50 37 1205 769 10;
#X msg -24 854 E:/pd/output/edits/melancholy_samps/melancholy_hackup7.5.5-2.wav
;
#X msg -25 825 E:/pd/output/edits/melancholy_samps/melancholy_hackup7.5.5-3.wav
;
#X msg -26 795 E:/pd/output/edits/melancholy_samps/melancholy_hackup7.5.5-4.wav
;
#X msg -26 764 E:/pd/output/edits/melancholy_samps/melancholy_hackup7.5.5-5.wav
;
#X msg -26 735 E:/pd/output/edits/melancholy_samps/melancholy_hackup7.5.5-6.wav
;
#X msg -27 704 E:/pd/output/edits/melancholy_samps/melancholy_hackup7.5.5-7.wav
;
#X msg -26 674 E:/pd/output/edits/melancholy_samps/melancholy_hackup7.5.5-8.wav
;
#X msg -28 643 E:/pd/output/edits/melancholy_samps/melancholy_hackup7.5.5-9.wav
;
#X msg -28 613 E:/pd/output/edits/melancholy_samps/melancholy_hackup7.5.5-10.wav
;
#X msg -29 583 E:/pd/output/edits/melancholy_samps/melancholy_hackup7.5.5-11.wav
;
#X msg -30 553 E:/pd/output/edits/melancholy_samps/melancholy_hackup7.5.5-12.wav
;
#X msg -30 523 E:/pd/output/edits/melancholy_samps/melancholy_hackup7.5.5-13.wav
;
#X msg -30 493 E:/pd/output/edits/melancholy_samps/melancholy_hackup7.5.5-14.wav
;
#X msg -29 462 E:/pd/output/edits/melancholy_samps/melancholy_hackup7.5.5-15.wav
;
#X msg -29 431 E:/pd/output/edits/melancholy_samps/melancholy_hackup7.5.5-16.wav
;
#X msg -30 401 E:/pd/output/edits/melancholy_samps/melancholy_hackup7.5.5-17.wav
;
#X msg -30 370 E:/pd/output/edits/melancholy_samps/melancholy_hackup7.5.5-18.wav
;
#X msg -31 339 E:/pd/output/edits/melancholy_samps/melancholy_hackup7.5.5-19.wav
;
#X msg -31 308 E:/pd/output/edits/melancholy_samps/melancholy_hackup7.5.5-20.wav
;
#X msg -30 277 E:/pd/output/edits/melancholy_samps/melancholy_hackup7.5.5-21.wav
;
#X msg -31 246 E:/pd/output/edits/melancholy_samps/melancholy_hackup7.5.5-23.wav
;
#X msg -34 215 E:/pd/output/edits/melancholy_samps/melancholy_hackup7.5.5-24.wav
;
#X msg -34 184 E:/pd/output/edits/melancholy_samps/melancholy_hackup7.5.5-25.wav
;
#X msg -33 153 E:/pd/output/edits/melancholy_samps/melancholy_hackup7.5.5-26.wav
;
#X msg -31 123 E:/pd/output/edits/melancholy_samps/melancholy_hackup7.5.5-27.wav
;
#X msg -30 92 E:/pd/output/edits/melancholy_samps/melancholy_hackup7.5.5-28.wav
;
#X msg -30 62 E:/pd/output/edits/melancholy_samps/melancholy_hackup7.5.5-29.wav
;
#X msg -29 31 E:/pd/output/edits/melancholy_samps/melancholy_hackup7.5.5-30.wav
;
#X msg -28 -4 E:/pd/output/edits/melancholy_samps/melancholy_hackup7.5.5-32.wav
;
#X obj 967 223 player;
#X obj 554 51 pack;
#X obj 713 27 bng 15 250 50 0 empty empty empty 0 -6 0 8 -262144 -1
-1;
#X obj 712 3 r player-finished;
#X obj 999 59 hsl 128 15 0 127 0 0 empty empty empty -2 -6 0 8 -262144
-1 -1 0 1;
#X obj 967 84 *~ 1;
#X floatatom 594 27 5 0 0 0 - - -;
#X obj 45 -13 loadbang;
#X obj 967 127 player;
#X obj 967 149 player;
#X obj 967 174 player;
#X obj 968 198 player;
#X obj 965 246 player;
#X obj 967 270 player;
#X obj 969 291 player;
#X obj 968 314 player;
#X obj 968 336 player;
#X obj 968 357 player;
#X obj 967 377 player;
#X obj 967 399 player;
#X obj 968 421 player;
#X obj 971 444 player;
#X obj 970 467 player;
#X obj 969 488 player;
#X obj 971 509 player;
#X obj 970 530 player;
#X obj 970 550 player;
#X obj 970 568 player;
#X obj 970 590 player;
#X obj 971 608 player;
#X obj 971 629 player;
#X obj 971 650 player;
#X obj 972 671 player;
#X obj 971 694 player;
#X obj 971 715 player;
#X obj 970 738 player;
#X obj 553 2 random 30;
#X obj 540 99 route 2 3 4 5 6 7 8 9 10 11 12 13 14 15 16 17 18 19 20
21 23 24 25 26 27 28 29 30 32;
#X obj 554 26 + 2;
#X floatatom 511 15 5 0 0 0 - - -;
#X msg 473 42 2;
#X obj 638 51 route 1;
#X obj 645 6 tgl 15 0 empty empty empty 0 -6 0 8 -262144 -1 -1 0 1
;
#X obj 675 72 bng 15 250 50 0 empty empty empty 0 -6 0 8 -262144 -1
-1;
#X obj 638 71 bng 15 250 50 0 empty empty empty 0 -6 0 8 -262144 -1
-1;
#X obj 638 29 * 1;
#X msg 712 45 1;
#X obj 662 2 inlet;
#X obj 470 2 inlet;
#X obj 1056 377 outlet~;
#X msg 778 43 0;
#X obj 831 45 loadbang;
#X connect 0 0 64 2;
#X connect 1 0 63 2;
#X connect 2 0 62 2;
#X connect 3 0 61 2;
#X connect 4 0 60 2;
#X connect 5 0 59 2;
#X connect 6 0 58 2;
#X connect 7 0 57 2;
#X connect 8 0 56 2;
#X connect 9 0 55 2;
#X connect 10 0 54 2;
#X connect 11 0 53 2;
#X connect 12 0 52 2;
#X connect 13 0 51 2;
#X connect 14 0 50 2;
#X connect 15 0 49 2;
#X connect 16 0 48 2;
#X connect 17 0 47 2;
#X connect 18 0 46 2;
#X connect 19 0 45 2;
#X connect 20 0 44 2;
#X connect 21 0 43 2;
#X connect 22 0 42 2;
#X connect 23 0 41 2;
#X connect 24 0 29 2;
#X connect 25 0 40 2;
#X connect 26 0 39 2;
#X connect 27 0 38 2;
#X connect 28 0 37 2;
#X connect 29 0 34 0;
#X connect 30 0 66 0;
#X connect 31 0 75 0;
#X connect 32 0 31 0;
#X connect 33 0 29 3;
#X connect 33 0 37 3;
#X connect 33 0 38 3;
#X connect 33 0 39 3;
#X connect 33 0 40 3;
#X connect 33 0 41 3;
#X connect 33 0 42 3;
#X connect 33 0 43 3;
#X connect 33 0 44 3;
#X connect 33 0 45 3;
#X connect 33 0 46 3;
#X connect 33 0 47 3;
#X connect 33 0 48 3;
#X connect 33 0 49 3;
#X connect 33 0 50 3;
#X connect 33 0 51 3;
#X connect 33 0 52 3;
#X connect 33 0 53 3;
#X connect 33 0 54 3;
#X connect 33 0 55 3;
#X connect 33 0 56 3;
#X connect 33 0 57 3;
#X connect 33 0 58 3;
#X connect 33 0 59 3;
#X connect 33 0 60 3;
#X connect 33 0 61 3;
#X connect 33 0 62 3;
#X connect 33 0 63 3;
#X connect 33 0 64 3;
#X connect 34 0 78 0;
#X connect 36 0 28 0;
#X connect 36 0 27 0;
#X connect 36 0 26 0;
#X connect 36 0 25 0;
#X connect 36 0 24 0;
#X connect 36 0 23 0;
#X connect 36 0 22 0;
#X connect 36 0 21 0;
#X connect 36 0 20 0;
#X connect 36 0 19 0;
#X connect 36 0 17 0;
#X connect 36 0 16 0;
#X connect 36 0 15 0;
#X connect 36 0 14 0;
#X connect 36 0 13 0;
#X connect 36 0 12 0;
#X connect 36 0 11 0;
#X connect 36 0 10 0;
#X connect 36 0 8 0;
#X connect 36 0 7 0;
#X connect 36 0 6 0;
#X connect 36 0 5 0;
#X connect 36 0 4 0;
#X connect 36 0 3 0;
#X connect 36 0 1 0;
#X connect 36 0 0 0;
#X connect 36 0 18 0;
#X connect 36 0 9 0;
#X connect 36 0 2 0;
#X connect 37 0 34 0;
#X connect 38 0 34 0;
#X connect 39 0 34 0;
#X connect 40 0 34 0;
#X connect 41 0 34 0;
#X connect 42 0 34 0;
#X connect 43 0 34 0;
#X connect 44 0 34 0;
#X connect 45 0 34 0;
#X connect 46 0 34 0;
#X connect 47 0 34 0;
#X connect 48 0 34 0;
#X connect 49 0 34 0;
#X connect 50 0 34 0;
#X connect 51 0 34 0;
#X connect 52 0 34 0;
#X connect 53 0 34 0;
#X connect 54 0 34 0;
#X connect 55 0 34 0;
#X connect 56 0 34 0;
#X connect 57 0 34 0;
#X connect 58 0 34 0;
#X connect 59 0 34 0;
#X connect 60 0 34 0;
#X connect 61 0 34 0;
#X connect 62 0 34 0;
#X connect 63 0 34 0;
#X connect 64 0 34 0;
#X connect 65 0 67 0;
#X connect 65 0 68 0;
#X connect 66 0 64 0;
#X connect 66 1 63 0;
#X connect 66 2 62 0;
#X connect 66 3 61 0;
#X connect 66 4 60 0;
#X connect 66 5 59 0;
#X connect 66 6 58 0;
#X connect 66 7 57 0;
#X connect 66 8 56 0;
#X connect 66 9 55 0;
#X connect 66 10 54 0;
#X connect 66 11 53 0;
#X connect 66 12 52 0;
#X connect 66 13 51 0;
#X connect 66 14 50 0;
#X connect 66 15 49 0;
#X connect 66 16 48 0;
#X connect 66 17 47 0;
#X connect 66 18 46 0;
#X connect 66 19 45 0;
#X connect 66 20 44 0;
#X connect 66 21 43 0;
#X connect 66 22 42 0;
#X connect 66 23 41 0;
#X connect 66 24 29 0;
#X connect 66 25 40 0;
#X connect 66 26 39 0;
#X connect 66 27 38 0;
#X connect 66 28 37 0;
#X connect 66 29 31 0;
#X connect 67 0 30 0;
#X connect 67 0 35 0;
#X connect 69 0 30 0;
#X connect 70 0 73 0;
#X connect 70 1 72 0;
#X connect 71 0 74 1;
#X connect 73 0 65 0;
#X connect 74 0 70 0;
#X connect 75 0 74 0;
#X connect 76 0 74 1;
#X connect 77 0 65 0;
#X connect 79 0 74 1;
#X connect 80 0 79 0;
