#N canvas 355 422 368 221 10;
#X obj 73 128 player;
#X obj 71 175 outlet~;
#X obj 72 83 bng 15 250 50 0 empty empty empty 0 -6 0 8 -262144 -1
-1;
#X obj 112 94 hsl 128 15 0 256 0 0 empty empty empty -2 -6 0 8 -262144
-1 -1 6300 1;
#X obj 74 47 switch_bang;
#X obj 133 21 tgl 15 0 empty empty empty 0 -6 0 8 -262144 -1 -1 0 1
;
#X msg 182 39 E:/pd/output/TM_Cosmo1.wav;
#X obj 235 112 bng 15 250 50 0 empty empty empty 0 -6 0 8 -262144 -1
-1;
#X obj 7 59 inlet;
#X obj 134 -1 inlet;
#X obj 251 19 loadbang;
#X msg 251 59 127;
#X obj 181 2 inlet;
#X text 217 -2 open file;
#X obj 311 70 inlet;
#X obj 317 116 bng 15 250 50 0 empty empty empty 0 -6 0 8 -262144 -1
-1;
#X connect 0 0 1 0;
#X connect 0 1 4 0;
#X connect 2 0 0 0;
#X connect 3 0 0 3;
#X connect 4 0 2 0;
#X connect 5 0 4 1;
#X connect 6 0 0 2;
#X connect 8 0 2 0;
#X connect 9 0 5 0;
#X connect 10 0 11 0;
#X connect 10 0 6 0;
#X connect 11 0 3 0;
#X connect 12 0 0 1;
#X connect 14 0 0 2;
#X connect 14 0 15 0;
