#N canvas 308 319 343 272 10;
#X obj 84 146 pow 2;
#X obj 117 63 hsl 128 15 0 16 0 0 empty empty empty -2 -6 0 8 -262144
-1 -1 4444 1;
#X msg 70 117 2;
#X floatatom 243 120 5 0 0 0 - - -;
#X obj 108 121 del 1;
#X obj 179 120 * 1;
#X msg 151 119 1;
#X obj 106 92 int;
#X floatatom 127 170 5 0 0 0 - - -;
#X obj 36 173 *;
#X floatatom 18 145 10 0 0 0 - - -;
#X floatatom 34 196 5 0 0 0 - - -;
#X obj 67 55 bng 15 250 50 0 empty empty empty 0 -6 0 8 -262144 -1
-1;
#X obj 50 20 inlet;
#X obj 169 17 inlet;
#X obj 33 219 outlet;
#X connect 0 0 8 0;
#X connect 0 0 9 0;
#X connect 1 0 7 0;
#X connect 2 0 0 0;
#X connect 4 0 6 0;
#X connect 5 0 3 0;
#X connect 5 0 0 1;
#X connect 6 0 5 0;
#X connect 7 0 2 0;
#X connect 7 0 4 0;
#X connect 7 0 5 1;
#X connect 9 0 11 0;
#X connect 9 0 15 0;
#X connect 10 0 9 1;
#X connect 12 0 7 0;
#X connect 13 0 10 0;
#X connect 13 0 12 0;
#X connect 14 0 1 0;
