#N canvas 506 79 874 725 8;
#X obj -31 -41 openpanel;
#X obj -31 -59 bng 15 250 50 0 empty empty empty 0 -6 0 8 -262144 -1
-1;
#X obj -31 14 soundfiler;
#X msg -31 -5 read -resize \$1 \$2;
#X obj -31 -23 pack s s;
#X obj 643 463 dbtorms;
#X obj 641 325 vsl 15 128 0 130 0 0 empty empty empty 0 -8 0 8 -262144
-1 -1 0 1;
#X obj 144 100 line~;
#X obj 181 46 pack 5000 500;
#X obj 152 -5 + 0;
#X text 162 -121 start;
#X obj 152 13 nbx 8 14 -1e+037 1e+037 0 0 empty empty empty 0 -6 0
10 -262144 -1 -1 0 256;
#X obj 248 -62 nbx 8 14 -1e+037 1e+037 0 0 empty empty empty 0 -6 0
10 -262144 -1 -1 0 256;
#X obj 201 -80 nbx 8 14 -1e+037 1e+037 0 0 empty empty empty 0 -6 0
10 -262144 -1 -1 0 256;
#X obj 166 -62 nbx 8 14 -1e+037 1e+037 0 0 empty empty empty 0 -6 0
10 -262144 -1 -1 0 256;
#X obj 261 -29 / 1;
#X obj 284 -31 nbx 16 14 -1e+037 1e+037 0 0 empty empty empty 0 -6
0 10 -262144 -1 -1 0 256;
#X obj 420 -129 tgl 15 0 empty empty empty 0 -6 0 8 -262144 -1 -1 1
1;
#X obj 420 -111 metro 30;
#X obj 401 -111 bng 15 250 50 0 empty empty empty 0 -6 0 8 -262144
-1 -1;
#X obj 143 54 + 0;
#X obj 152 -22 + 0;
#X obj 420 -149 loadbang;
#X obj 254 -103 inlet;
#X obj 161 -101 inlet;
#X obj 202 -103 inlet;
#X obj 292 -103 inlet;
#X text 202 -121 length;
#X obj 172 198 phasor~;
#X obj 172 216 -~ 0.5;
#X obj 218 118 hsl 128 15 1 100 0 0 empty empty empty -2 -6 0 8 -262144
-1 -1 12700 1;
#X obj 163 280 +~;
#X obj 249 199 / 2;
#X obj 278 145 hsl 128 15 -70000 250000 0 0 empty empty empty -2 -6
0 8 -262144 -1 -1 2778 1;
#X obj 485 181 line~;
#X obj 439 95 pack 1 0;
#X obj 497 118 pack 0 0;
#X obj 519 -12 hsl 128 15 1 200 1 0 empty empty empty -2 -6 0 8 -262144
-1 -1 2098 1;
#X obj 515 -51 loadbang;
#X msg 515 -31 2.4;
#X obj -27 406 *~ 1;
#X obj 172 234 *~ 1;
#X obj 206 361 cos~;
#X obj 167 377 *~;
#X obj 168 395 *~;
#X obj 173 179 sig~;
#X obj 168 308 tabread4~ \$0-sample;
#X obj 5 -128 table \$0-sample;
#X obj -77 13 print;
#X obj -47 -44 bng 15 250 50 0 empty empty empty 0 -6 0 8 -262144 -1
-1;
#X obj 221 288 delwrite~ \$0-del-sync 200;
#X obj -15 199 delread~ \$0-del-sync 100;
#X floatatom 210 144 5 0 0 0 - - -;
#X obj -15 167 / 1;
#X msg -14 151 1;
#X obj -14 133 bng 15 250 50 0 empty empty empty 0 -6 0 8 -262144 -1
-1;
#X obj -26 277 +~;
#X obj -27 371 *~;
#X obj -26 389 *~;
#X obj -26 302 tabread4~ \$0-sample;
#X obj -9 219 -~ 0.5;
#X obj -16 238 *~ 1;
#X obj 169 413 *~ 1;
#X obj 434 298 tabread4~ \$0-sample;
#X obj 434 337 *~;
#X obj 434 355 *~ 1;
#X obj 50 443 +~;
#X obj 628 480 *~ 1;
#X obj 232 501 +~;
#X obj 69 390 / 50;
#X obj 30 379 hsl 128 8 0 127 0 0 empty empty empty -2 -6 0 8 -262144
-1 -1 0 1;
#X obj 458 322 hsl 128 8 0 127 0 0 empty empty empty -2 -6 0 8 -262144
-1 -1 0 1;
#X msg 240 13 1;
#X obj 8 358 cos~;
#X floatatom 151 71 5 0 0 0 - - -;
#X floatatom 276 166 8 0 0 0 - - -;
#X obj 247 144 bng 15 250 50 0 empty empty empty 0 -6 0 8 -262144 -1
-1;
#X obj 249 182 / 1;
#X obj 641 298 inlet;
#X obj 628 510 outlet~;
#X text 279 403 find way to make arbitrary no of grains.;
#X obj 22 472 env~ 131072;
#X floatatom 22 490 5 0 0 0 - - -;
#X obj 660 165 osc~;
#X floatatom 660 144 5 0 0 0 - - -;
#X obj 660 186 tabwrite~ \$0-sample;
#X obj 686 163 bng 15 250 50 0 empty empty empty 0 -6 0 8 -262144 -1
-1;
#X obj 232 526 s~ fft;
#X obj 240 248 line;
#X obj 250 222 pack 0 100;
#X obj 169 258 lop~ 500;
#X obj -16 259 lop~ 500;
#X obj 286 200 hsl 128 15 100 10000 0 0 empty empty empty -2 -6 0 8
-262144 -1 -1 1155 1;
#X obj 299 367 s~ scope;
#X obj 4 -93 loadbang;
#X obj 13 339 -~ 0.25;
#X obj 205 343 -~ 0.25;
#X obj 206 327 *~ 0.5;
#X obj 13 320 *~ 0.5;
#X obj -14 183 * 500;
#X msg 454 280 0;
#X msg 358 128 0;
#X obj 300 98 loadbang;
#X obj 200 452 +~;
#X obj 4 -74 symbol \$0-sample;
#X msg 157 449 1;
#X obj 157 469 -~;
#X obj 158 487 +~ 1;
#X obj 159 506 +~;
#X obj 149 524 *~;
#X floatatom 615 547 5 0 0 0 - - -;
#X text 488 280 real signal;
#X text 289 -122 trigger;
#X obj 478 16 delay;
#X msg 438 62 1;
#X msg 496 66 0;
#X obj 371 33 delay;
#X obj 313 2 bng 15 250 50 0 empty empty empty 0 -6 0 8 -262144 -1
-1;
#X text 254 -120 speed;
#X obj 189 70 bng 15 250 50 0 empty empty empty 0 -6 0 8 -262144 -1
-1;
#X obj -45 -96 inlet;
#X obj 522 -109 inlet;
#X obj 556 -109 inlet;
#X msg 152 -39 0;
#X floatatom 529 16 5 0 0 0 - - -;
#X obj 556 -88 - 127;
#X obj 555 -69 * -1;
#X obj 615 528 env~ 262144;
#X msg 284 182 1000;
#X obj 74 502 lop~;
#X msg 94 479 10000;
#X msg 569 159 0;
#X msg 250 102 100;
#X obj 569 123 delay 1;
#X msg 569 105 stop;
#X obj 569 140 bng 15 250 50 0 empty empty empty 0 -6 0 8 -262144 -1
-1;
#X obj 455 335 / 25;
#X msg 49 361 0;
#X connect 0 0 4 0;
#X connect 1 0 0 0;
#X connect 2 0 46 0;
#X connect 2 0 59 0;
#X connect 2 0 63 0;
#X connect 3 0 2 0;
#X connect 4 0 3 0;
#X connect 4 0 48 0;
#X connect 5 0 67 1;
#X connect 6 0 5 0;
#X connect 7 0 31 0;
#X connect 7 0 56 0;
#X connect 7 0 63 0;
#X connect 8 0 7 0;
#X connect 8 0 119 0;
#X connect 9 0 11 0;
#X connect 9 0 8 0;
#X connect 9 0 117 0;
#X connect 15 0 16 0;
#X connect 15 0 8 1;
#X connect 15 0 133 1;
#X connect 17 0 18 0;
#X connect 18 0 19 0;
#X connect 18 0 15 0;
#X connect 20 0 7 0;
#X connect 20 0 74 0;
#X connect 21 0 9 0;
#X connect 22 0 17 0;
#X connect 23 0 12 0;
#X connect 23 0 15 1;
#X connect 24 0 9 1;
#X connect 24 0 14 0;
#X connect 24 0 20 1;
#X connect 25 0 13 0;
#X connect 25 0 21 1;
#X connect 25 0 15 0;
#X connect 26 0 115 0;
#X connect 26 0 113 0;
#X connect 26 0 134 0;
#X connect 28 0 29 0;
#X connect 28 0 50 0;
#X connect 28 0 97 0;
#X connect 29 0 41 0;
#X connect 30 0 52 0;
#X connect 30 0 53 1;
#X connect 30 0 55 0;
#X connect 30 0 76 0;
#X connect 30 0 45 0;
#X connect 31 0 46 0;
#X connect 32 0 89 0;
#X connect 33 0 75 0;
#X connect 34 0 44 1;
#X connect 34 0 58 1;
#X connect 34 0 64 1;
#X connect 35 0 34 0;
#X connect 36 0 34 0;
#X connect 37 0 113 1;
#X connect 37 0 35 1;
#X connect 37 0 36 1;
#X connect 37 0 124 0;
#X connect 37 0 116 1;
#X connect 38 0 39 0;
#X connect 39 0 37 0;
#X connect 40 0 66 0;
#X connect 41 0 90 0;
#X connect 42 0 43 1;
#X connect 42 0 103 1;
#X connect 43 0 44 0;
#X connect 44 0 62 0;
#X connect 45 0 28 0;
#X connect 46 0 43 0;
#X connect 49 0 4 0;
#X connect 51 0 60 0;
#X connect 51 0 98 0;
#X connect 52 0 77 1;
#X connect 53 0 99 0;
#X connect 54 0 53 0;
#X connect 55 0 54 0;
#X connect 56 0 59 0;
#X connect 57 0 58 0;
#X connect 58 0 40 0;
#X connect 59 0 57 0;
#X connect 60 0 61 0;
#X connect 61 0 91 0;
#X connect 62 0 66 1;
#X connect 63 0 64 0;
#X connect 64 0 65 0;
#X connect 65 0 68 1;
#X connect 66 0 81 0;
#X connect 66 0 129 0;
#X connect 66 0 93 0;
#X connect 67 0 79 0;
#X connect 67 0 127 0;
#X connect 68 0 67 0;
#X connect 68 0 87 0;
#X connect 69 0 40 1;
#X connect 69 0 62 1;
#X connect 70 0 69 0;
#X connect 71 0 136 0;
#X connect 72 0 20 0;
#X connect 73 0 57 1;
#X connect 73 0 103 0;
#X connect 75 0 77 0;
#X connect 76 0 77 0;
#X connect 77 0 32 0;
#X connect 78 0 6 0;
#X connect 81 0 82 0;
#X connect 83 0 85 0;
#X connect 84 0 83 0;
#X connect 86 0 85 0;
#X connect 88 0 41 1;
#X connect 88 0 61 1;
#X connect 89 0 88 0;
#X connect 90 0 31 1;
#X connect 91 0 56 1;
#X connect 92 0 90 1;
#X connect 92 0 91 1;
#X connect 94 0 104 0;
#X connect 95 0 73 0;
#X connect 96 0 42 0;
#X connect 97 0 96 0;
#X connect 98 0 95 0;
#X connect 99 0 51 0;
#X connect 100 0 71 0;
#X connect 101 0 33 0;
#X connect 102 0 132 0;
#X connect 102 0 101 0;
#X connect 102 0 128 0;
#X connect 102 0 137 0;
#X connect 102 0 100 0;
#X connect 102 0 105 0;
#X connect 102 0 130 0;
#X connect 103 0 106 1;
#X connect 103 0 108 1;
#X connect 104 0 4 1;
#X connect 105 0 106 0;
#X connect 106 0 107 0;
#X connect 107 0 108 0;
#X connect 108 0 109 1;
#X connect 109 0 68 0;
#X connect 113 0 72 0;
#X connect 113 0 123 0;
#X connect 114 0 35 0;
#X connect 115 0 36 0;
#X connect 116 0 114 0;
#X connect 117 0 116 0;
#X connect 119 0 133 0;
#X connect 120 0 1 0;
#X connect 121 0 33 0;
#X connect 122 0 125 0;
#X connect 122 0 70 0;
#X connect 123 0 21 0;
#X connect 125 0 126 0;
#X connect 126 0 71 0;
#X connect 127 0 110 0;
#X connect 128 0 92 0;
#X connect 129 0 109 0;
#X connect 130 0 129 1;
#X connect 131 0 34 0;
#X connect 132 0 30 0;
#X connect 133 0 135 0;
#X connect 134 0 133 0;
#X connect 135 0 131 0;
#X connect 136 0 65 1;
#X connect 137 0 70 0;
