#N canvas 744 65 617 496 10;
#X obj 222 -28 hsl 128 15 0 100000 0 0 empty empty empty -2 -6 0 8
-262144 -1 -1 1600 1;
#X obj 241 -9 hsl 128 15 0 2e+006 0 0 empty empty empty -2 -6 0 8 -262144
-1 -1 4600 1;
#X obj 260 9 hsl 128 15 0 110 0 0 empty empty empty -2 -6 0 8 -262144
-1 -1 4700 1;
#X obj 212 -48 hsl 250 15 10 7000 1 0 empty empty empty -2 -6 0 8 -262144
-1 -1 0 1;
#X obj 476 -61 vsl 15 128 0 127 0 0 empty empty empty 0 -8 0 8 -262144
-1 -1 8400 1;
#X obj 184 -29 metro;
#X obj 276 29 bng 15 250 50 0 empty empty empty 0 -6 0 8 -262144 -1
-1;
#X obj 184 -49 tgl 15 0 empty empty empty 0 -6 0 8 -262144 -1 -1 1
1;
#X obj 298 29 hsl 128 15 -70000 100000 0 0 empty empty empty -2 -6
0 8 -262144 -1 -1 5029 1;
#X obj 317 47 hsl 128 15 0 127 0 0 empty empty empty -2 -6 0 8 -262144
-1 -1 0 1;
#X floatatom 419 -47 7 0 0 0 - - -;
#X obj 200 42 bng 15 250 50 0 empty empty empty 0 -6 0 8 -262144 -1
-1;
#X text 198 27 open;
#X text 221 -27 start;
#X text 242 -7 length;
#X text 260 10 speed;
#X text 299 28 pitch;
#X text 321 46 gran mix;
#X text 475 67 volume;
#X floatatom 319 -27 5 0 0 0 - - -;
#X floatatom 320 -8 8 0 0 0 - - -;
#X floatatom 357 10 5 0 0 0 - - -;
#X floatatom 383 30 7 0 0 0 - - -;
#X floatatom 414 48 5 0 0 0 - - -;
#X msg 433 27 0;
#X obj 200 68 samp_play a_litte_wider;
#X obj 212 151 envelope;
#X obj 183 392 dac~;
#X obj 35 -37 hsl 128 15 0 8 0 0 empty empty empty -2 -6 0 8 -262144
-1 -1 9700 1;
#X floatatom 132 -37 5 0 0 0 - - -;
#X text 34 -37 samp repeat;
#X obj 13 -17 pow2;
#X obj 15 -58 hsl 128 15 0 127 0 0 empty empty empty -2 -6 0 8 -262144
-1 -1 3200 1;
#X floatatom 113 -58 5 0 0 0 - - -;
#X floatatom 43 -15 5 0 0 0 - - -;
#X obj 10 71 metro;
#X obj 10 119 multi_osc;
#X obj 10 98 sequence;
#X text 16 -60 base;
#X obj 57 29 hsl 128 15 0 8 0 0 empty empty empty -2 -6 0 8 -262144
-1 -1 0 1;
#X floatatom 154 29 5 0 0 0 - - -;
#X text 56 29 samp repeat;
#X obj 35 49 pow2;
#X floatatom 65 49 5 0 0 0 - - -;
#X obj 302 87 hsl 128 15 0 8 0 0 empty empty empty -2 -6 0 8 -262144
-1 -1 5800 1;
#X floatatom 398 87 5 0 0 0 - - -;
#X text 299 86 samp repeat;
#X obj 279 107 pow2;
#X floatatom 315 106 5 0 0 0 - - -;
#X obj 204 199 vsl 15 128 0 127 0 0 empty empty empty 0 -8 0 8 -262144
-1 -1 0 1;
#X obj 205 363 *~ 1;
#X obj 204 333 / 127;
#X obj 241 199 vsl 15 128 0 127 0 0 empty empty empty 0 -8 0 8 -262144
-1 -1 12700 1;
#X obj 242 363 *~ 1;
#X obj 333 258 flanger;
#X obj 339 143 hsl 128 15 0 127 0 0 empty empty empty -2 -6 0 8 -262144
-1 -1 8000 1;
#X obj 339 164 hsl 128 15 0 100 0 0 empty empty empty -2 -6 0 8 -262144
-1 -1 1100 1;
#X obj 339 184 hsl 128 15 1 400 1 0 empty empty empty -2 -6 0 8 -262144
-1 -1 0 1;
#X obj 338 237 hsl 128 15 0 127 0 0 empty empty empty -2 -6 0 8 -262144
-1 -1 12700 1;
#X text 342 236 volume;
#X text 340 182 offset;
#X text 343 166 LFO Freq;
#X text 339 142 depth;
#X obj 338 202 hsl 128 15 0 127 0 0 empty empty empty -2 -6 0 8 -262144
-1 -1 0 1;
#X text 343 201 feedback;
#X obj 338 220 hsl 128 15 0 127 0 0 empty empty empty -2 -6 0 8 -262144
-1 -1 0 1;
#X text 341 218 feedback delay;
#X floatatom 435 145 5 0 0 0 - - -;
#X floatatom 435 164 5 0 0 0 - - -;
#X floatatom 435 185 5 0 0 0 - - -;
#X floatatom 435 203 5 0 0 0 - - -;
#X floatatom 435 221 5 0 0 0 - - -;
#X floatatom 435 237 5 0 0 0 - - -;
#X obj 21 276 flanger;
#X obj 27 161 hsl 128 15 0 127 0 0 empty empty empty -2 -6 0 8 -262144
-1 -1 0 1;
#X obj 28 182 hsl 128 15 0 100 0 0 empty empty empty -2 -6 0 8 -262144
-1 -1 0 1;
#X obj 27 202 hsl 128 15 1 400 1 0 empty empty empty -2 -6 0 8 -262144
-1 -1 0 1;
#X obj 26 255 hsl 128 15 0 127 0 0 empty empty empty -2 -6 0 8 -262144
-1 -1 0 1;
#X text 30 254 volume;
#X text 28 200 offset;
#X text 32 184 LFO Freq;
#X text 27 160 depth;
#X obj 26 220 hsl 128 15 0 127 0 0 empty empty empty -2 -6 0 8 -262144
-1 -1 0 1;
#X text 31 219 feedback;
#X obj 26 238 hsl 128 15 0 127 0 0 empty empty empty -2 -6 0 8 -262144
-1 -1 0 1;
#X text 29 236 feedback delay;
#X floatatom 123 163 5 0 0 0 - - -;
#X floatatom 124 182 5 0 0 0 - - -;
#X floatatom 123 203 5 0 0 0 - - -;
#X floatatom 124 222 5 0 0 0 - - -;
#X floatatom 125 237 5 0 0 0 - - -;
#X floatatom 123 255 5 0 0 0 - - -;
#X obj 256 130 metro;
#X obj 294 132 bng 15 250 50 0 empty empty empty 0 -6 0 8 -262144 -1
-1;
#X obj 11 140 envelope;
#X obj 163 118 tape_pitchshift;
#X obj 446 104 hsl 128 15 -40 40 0 0 empty empty empty -2 -6 0 8 -262144
-1 -1 5950 1;
#X obj 336 331 crossfade;
#X obj 389 304 hsl 128 15 0 127 0 0 empty empty empty -2 -6 0 8 -262144
-1 -1 0 1;
#X obj 241 333 / 32;
#X floatatom 478 -60 5 0 0 0 - - -;
#X msg 583 103 0;
#X floatatom 544 104 5 0 0 0 - - -;
#X text 445 103 pitch;
#X obj 1 161 *~;
#X connect 0 0 19 0;
#X connect 0 0 25 1;
#X connect 1 0 20 0;
#X connect 1 0 25 2;
#X connect 2 0 21 0;
#X connect 2 0 25 3;
#X connect 3 0 5 1;
#X connect 3 0 10 0;
#X connect 4 0 25 7;
#X connect 4 0 100 0;
#X connect 5 0 6 0;
#X connect 6 0 25 4;
#X connect 7 0 5 0;
#X connect 7 0 92 0;
#X connect 7 0 35 0;
#X connect 8 0 22 0;
#X connect 8 0 25 5;
#X connect 9 0 23 0;
#X connect 9 0 25 6;
#X connect 11 0 25 0;
#X connect 24 0 8 0;
#X connect 25 0 95 0;
#X connect 26 0 54 0;
#X connect 28 0 29 0;
#X connect 28 0 31 1;
#X connect 31 0 34 0;
#X connect 31 0 5 1;
#X connect 32 0 31 0;
#X connect 32 0 33 0;
#X connect 32 0 42 0;
#X connect 32 0 47 0;
#X connect 35 0 37 0;
#X connect 35 0 94 1;
#X connect 36 0 94 0;
#X connect 37 0 36 0;
#X connect 39 0 40 0;
#X connect 39 0 42 1;
#X connect 42 0 43 0;
#X connect 42 0 35 1;
#X connect 44 0 45 0;
#X connect 44 0 47 1;
#X connect 47 0 48 0;
#X connect 47 0 92 1;
#X connect 49 0 51 0;
#X connect 50 0 27 0;
#X connect 50 0 27 1;
#X connect 51 0 50 1;
#X connect 52 0 99 0;
#X connect 53 0 27 0;
#X connect 53 0 27 1;
#X connect 54 0 97 1;
#X connect 55 0 54 2;
#X connect 55 0 67 0;
#X connect 56 0 54 1;
#X connect 56 0 68 0;
#X connect 57 0 54 3;
#X connect 57 0 69 0;
#X connect 58 0 54 6;
#X connect 58 0 72 0;
#X connect 63 0 54 4;
#X connect 63 0 70 0;
#X connect 65 0 54 5;
#X connect 65 0 71 0;
#X connect 73 0 50 0;
#X connect 74 0 73 2;
#X connect 74 0 86 0;
#X connect 75 0 73 1;
#X connect 75 0 87 0;
#X connect 76 0 73 3;
#X connect 76 0 88 0;
#X connect 77 0 73 6;
#X connect 77 0 91 0;
#X connect 82 0 73 4;
#X connect 82 0 89 0;
#X connect 84 0 73 5;
#X connect 84 0 90 0;
#X connect 92 0 26 1;
#X connect 92 0 93 0;
#X connect 94 0 104 0;
#X connect 94 0 104 1;
#X connect 95 0 26 0;
#X connect 95 0 97 0;
#X connect 96 0 95 1;
#X connect 96 0 102 0;
#X connect 97 0 53 0;
#X connect 98 0 97 2;
#X connect 99 0 53 1;
#X connect 101 0 96 0;
#X connect 104 0 73 0;
