#N canvas 472 87 930 620 10;
#X floatatom -438 30 10 0 0 0 - - -;
#X obj -451 87 phasor~;
#X obj -452 111 *~;
#X floatatom -451 49 5 0 0 0 - - -;
#X obj -440 11 bng 15 250 50 0 empty empty empty 0 -6 0 8 -262144 -1
-1;
#X text -412 47 multiply by sample rate.;
#X obj -451 66 / 100;
#X obj -393 265 outlet~;
#X obj -472 -120 openpanel;
#X obj -468 -139 bng 15 250 50 0 empty empty empty 0 -6 0 8 -262144
-1 -1;
#X obj -465 -37 soundfiler;
#X symbolatom -462 -16 70 0 0 0 - - -;
#X obj -449 -140 inlet;
#X obj -441 -90 pack s s;
#X obj -380 -161 loadbang;
#X obj -407 -161 bng 15 250 50 0 empty empty empty 0 -6 0 8 -262144
-1 -1;
#X obj -375 221 / 127;
#X obj -394 244 *~ 0;
#X obj -375 197 inlet;
#X floatatom -339 198 8 0 0 0 - - -;
#X obj -404 -136 symbol \$1-sample;
#X msg -465 -62 read -resize \$1 \$2;
#X msg -396 118 set \$1;
#X obj -396 145 tabread4~;
#X obj -236 -188 cnv 15 400 400 empty empty empty 20 12 0 14 -233017
-66577 0;
#X obj -134 145 line~;
#X obj -93 -20 tgl 15 0 empty empty empty 0 -6 0 8 -262144 -1 -1 0
1;
#X obj -93 3 metro 1000;
#X obj -219 -15 delay 1;
#X obj -189 74 pack 5000 500;
#X obj -219 33 + 0;
#X text -220 -145 start;
#X text -40 -147 repeat;
#X text -93 -146 activate;
#X obj -38 -107 nbx 8 14 -1e+037 1e+037 0 0 empty empty empty 0 -6
0 10 -262144 -1 -1 0 256;
#X obj -219 57 nbx 8 14 -1e+037 1e+037 0 0 empty empty empty 0 -6 0
10 -262144 -1 -1 0 256;
#X obj -134 -86 nbx 8 14 -1e+037 1e+037 0 0 empty empty empty 0 -6
0 10 -262144 -1 -1 0 256;
#X obj -181 -104 nbx 8 14 -1e+037 1e+037 0 0 empty empty empty 0 -6
0 10 -262144 -1 -1 0 256;
#X obj -216 -86 nbx 8 14 -1e+037 1e+037 0 0 empty empty empty 0 -6
0 10 -262144 -1 -1 0 256;
#X obj -90 36 / 1;
#X obj -51 40 nbx 16 14 -1e+037 1e+037 0 0 empty empty empty 0 -6 0
10 -262144 -1 -1 0 256;
#X obj 38 -153 tgl 15 0 empty empty empty 0 -6 0 8 -262144 -1 -1 1
1;
#X obj 38 -135 metro 30;
#X obj 19 -135 bng 15 250 50 0 empty empty empty 0 -6 0 8 -262144 -1
-1;
#X obj -134 121 + 0;
#X obj -26 2 bng 15 250 50 0 empty empty empty 0 -6 0 8 -262144 -1
-1;
#X obj -219 9 + 0;
#X text -130 -158 samp rate;
#X obj 38 -173 loadbang;
#X obj -128 -127 inlet;
#X obj -221 -125 inlet;
#X obj -180 -127 inlet;
#X obj -90 -127 inlet;
#X obj -38 -128 inlet;
#X text -180 -145 length;
#X text -112 121 length;
#X text -220 -187 segment calculator;
#X obj -395 167 *~;
#X obj 206 210 line~;
#X obj 229 131 bang;
#X obj 229 156 delay 1500;
#X obj 226 96 pack 1 0;
#X obj 229 178 pack 0 0;
#X obj 258 131 +;
#X obj 281 131 bng 15 250 50 0 empty empty empty 0 -6 0 8 -262144 -1
-1;
#X obj 282 96 hsl 128 15 0 500 0 0 att empty attack -2 -6 0 8 -24198
-1 -1 61 1;
#X obj 302 131 hsl 128 15 0 10000 0 0 empty empty sustain -2 -6 0 8
-261681 -1 -1 0 1;
#X obj 297 178 hsl 128 15 0 500 0 0 empty empty decay -2 -6 0 8 -258699
-1 -1 61 1;
#X floatatom 350 115 5 0 0 0 - - -;
#X floatatom 326 79 5 0 0 0 - - -;
#X floatatom 333 160 5 0 0 0 - - -;
#X obj 229 6 hsl 128 15 1 200 1 0 empty empty empty -2 -6 0 8 -262144
-1 -1 2098 1;
#X obj 226 25 * 2;
#X obj 226 48 -;
#X obj 226 69 * -1;
#X obj 185 40 bng 15 250 50 0 empty empty empty 0 -6 0 8 -262144 -1
-1;
#X obj 226 -33 loadbang;
#X msg 226 -13 2.4;
#X obj 169 -188 cnv 15 200 150 empty empty empty 20 12 0 14 -233017
-66577 0;
#X obj 215 -78 outlet;
#X obj 270 -146 inlet;
#X obj 215 -146 inlet;
#X text 185 -166 global tempo;
#X text 266 -169 tempo ratio;
#X text 259 -80 repeat;
#X text 183 -178 timer vars;
#X text -452 170 envelope;
#X text -378 181 volume;
#X floatatom 277 -125 5 0 0 0 - - -;
#X floatatom 222 -125 8 0 0 0 - - -;
#X obj 336 282 outlet;
#X obj -200 296 outlet;
#X text -447 -206 have to make stereo!!!;
#X obj -200 270 sampmsg_pack;
#X text 333 265 filename;
#X text -397 282 audio out;
#X text -200 312 msg out;
#X obj 215 -104 samp_timer;
#X msg -131 38 0;
#X obj -27 73 s \$1-preview_met;
#X text -424 131 reads from the table "$1-sample";
#X connect 0 0 2 1;
#X connect 1 0 2 0;
#X connect 2 0 23 0;
#X connect 3 0 6 0;
#X connect 4 0 0 0;
#X connect 6 0 1 0;
#X connect 8 0 11 0;
#X connect 8 0 13 0;
#X connect 9 0 8 0;
#X connect 10 0 0 0;
#X connect 11 0 90 0;
#X connect 11 0 93 8;
#X connect 12 0 8 0;
#X connect 13 0 21 0;
#X connect 14 0 20 0;
#X connect 15 0 20 0;
#X connect 16 0 17 1;
#X connect 17 0 7 0;
#X connect 18 0 16 0;
#X connect 18 0 19 0;
#X connect 18 0 93 5;
#X connect 20 0 13 1;
#X connect 20 0 22 0;
#X connect 21 0 10 0;
#X connect 22 0 23 0;
#X connect 23 0 57 0;
#X connect 25 0 23 0;
#X connect 26 0 27 0;
#X connect 27 0 28 0;
#X connect 27 0 45 0;
#X connect 27 0 61 0;
#X connect 27 0 75 0;
#X connect 27 0 98 0;
#X connect 28 0 46 0;
#X connect 29 0 25 0;
#X connect 30 0 35 0;
#X connect 30 0 29 0;
#X connect 39 0 40 0;
#X connect 39 0 29 1;
#X connect 41 0 42 0;
#X connect 42 0 43 0;
#X connect 42 0 39 0;
#X connect 44 0 25 0;
#X connect 45 0 99 0;
#X connect 46 0 30 0;
#X connect 48 0 41 0;
#X connect 49 0 36 0;
#X connect 49 0 39 1;
#X connect 49 0 93 2;
#X connect 50 0 30 1;
#X connect 50 0 38 0;
#X connect 50 0 44 1;
#X connect 50 0 93 0;
#X connect 51 0 37 0;
#X connect 51 0 46 1;
#X connect 51 0 39 0;
#X connect 51 0 93 1;
#X connect 52 0 26 0;
#X connect 52 0 93 3;
#X connect 53 0 34 0;
#X connect 53 0 27 1;
#X connect 53 0 73 1;
#X connect 53 0 93 4;
#X connect 57 0 17 0;
#X connect 58 0 57 1;
#X connect 59 0 60 0;
#X connect 60 0 62 0;
#X connect 61 0 58 0;
#X connect 61 0 59 0;
#X connect 62 0 58 0;
#X connect 63 0 60 1;
#X connect 64 0 63 0;
#X connect 65 0 61 1;
#X connect 65 0 63 0;
#X connect 65 0 69 0;
#X connect 66 0 63 1;
#X connect 66 0 64 0;
#X connect 66 0 68 0;
#X connect 67 0 62 1;
#X connect 67 0 70 0;
#X connect 71 0 72 0;
#X connect 71 0 65 0;
#X connect 71 0 67 0;
#X connect 72 0 73 0;
#X connect 73 0 74 0;
#X connect 74 0 66 0;
#X connect 75 0 73 0;
#X connect 76 0 77 0;
#X connect 77 0 71 0;
#X connect 80 0 88 0;
#X connect 80 0 93 6;
#X connect 80 0 97 1;
#X connect 81 0 89 0;
#X connect 81 0 93 7;
#X connect 81 0 97 0;
#X connect 93 0 91 0;
#X connect 97 0 79 0;
#X connect 98 0 44 0;
