#N canvas 957 78 446 290 8;
#X obj 115 76 print;
#X msg 112 45 --------------------------------------------;
#X obj 143 116 hsl 128 15 0 100000 0 0 empty empty empty -2 -6 0 8
-262144 -1 -1 0 1;
#X obj 159 134 hsl 128 15 0 2e+006 0 0 empty empty empty -2 -6 0 8
-262144 -1 -1 1700 1;
#X obj 176 153 hsl 128 15 0 110 0 0 empty empty empty -2 -6 0 8 -262144
-1 -1 4200 1;
#X obj 28 12 hsl 250 15 10 7000 1 0 empty empty empty -2 -6 0 8 -262144
-1 -1 24400 1;
#X obj 118 260 dac~;
#X obj 400 81 vsl 15 128 0 127 0 0 empty empty empty 0 -8 0 8 -262144
-1 -1 9300 1;
#X obj 124 212 samp_play a_littel_wider;
#X obj 5 118 metro;
#X obj 189 174 bng 15 250 50 0 empty empty empty 0 -6 0 8 -262144 -1
-1;
#X obj 5 98 tgl 15 0 empty empty empty 0 -6 0 8 -262144 -1 -1 1 1;
#X obj 209 174 hsl 128 15 -70000 100000 0 0 empty empty empty -2 -6
0 8 -262144 -1 -1 4900 1;
#X obj 225 191 hsl 128 15 0 127 0 0 empty empty empty -2 -6 0 8 -262144
-1 -1 12700 1;
#X floatatom 32 31 7 0 0 0 - - -;
#X obj 123 186 bng 15 250 50 0 empty empty empty 0 -6 0 8 -262144 -1
-1;
#X text 122 174 open;
#X text 142 117 start;
#X text 160 136 length;
#X text 176 154 speed;
#X text 210 173 pitch;
#X text 229 190 gran mix;
#X text 399 211 volume;
#X floatatom 244 118 5 0 0 0 - - -;
#X floatatom 260 137 5 0 0 0 - - -;
#X floatatom 277 155 5 0 0 0 - - -;
#X floatatom 301 176 7 0 0 0 - - -;
#X floatatom 326 193 5 0 0 0 - - -;
#X msg 341 173 0;
#X connect 1 0 0 0;
#X connect 2 0 8 1;
#X connect 2 0 23 0;
#X connect 3 0 8 2;
#X connect 3 0 24 0;
#X connect 4 0 8 3;
#X connect 4 0 25 0;
#X connect 5 0 9 1;
#X connect 5 0 14 0;
#X connect 7 0 8 7;
#X connect 8 0 6 0;
#X connect 8 0 6 1;
#X connect 9 0 10 0;
#X connect 10 0 8 4;
#X connect 11 0 9 0;
#X connect 12 0 8 5;
#X connect 12 0 26 0;
#X connect 13 0 8 6;
#X connect 13 0 27 0;
#X connect 15 0 8 0;
#X connect 28 0 12 0;
