#N canvas 57 351 298 357 10;
#X obj 12 63 inlet~;
#X obj 60 64 inlet;
#X obj 19 126 bp~;
#X obj 17 192 dbtorms;
#X obj 18 149 bp~;
#X obj 99 64 inlet;
#X obj 123 11 loadbang;
#X msg 123 33 80;
#X text 10 46 voice;
#X text 56 46 freq;
#X text 100 44 q;
#X obj 138 127 inlet~;
#X obj 21 307 *~;
#X obj 20 330 outlet~;
#X obj 154 156 inlet~;
#X obj 153 177 bp~;
#X obj 152 201 bp~;
#X obj 132 297 *~;
#X obj 131 320 outlet~;
#X text 137 112 carrier_bandlim;
#X text 153 141 carrier;
#X floatatom 48 24 8 0 0 0 - - -;
#X obj 51 240 line~ 0 5;
#X obj 18 171 env~ 128;
#X obj 50 218 pack 0 1;
#X connect 0 0 2 0;
#X connect 1 0 2 1;
#X connect 1 0 4 1;
#X connect 1 0 15 1;
#X connect 1 0 16 1;
#X connect 1 0 21 0;
#X connect 2 0 4 0;
#X connect 3 0 24 0;
#X connect 4 0 23 0;
#X connect 5 0 2 2;
#X connect 5 0 4 2;
#X connect 5 0 16 2;
#X connect 5 0 15 2;
#X connect 6 0 7 0;
#X connect 7 0 2 2;
#X connect 7 0 4 2;
#X connect 7 0 15 2;
#X connect 7 0 16 2;
#X connect 11 0 12 0;
#X connect 12 0 13 0;
#X connect 14 0 15 0;
#X connect 15 0 16 0;
#X connect 16 0 17 0;
#X connect 17 0 18 0;
#X connect 22 0 12 1;
#X connect 22 0 17 1;
#X connect 23 0 3 0;
#X connect 24 0 22 0;
