#N canvas 553 143 789 529 10;
#X obj 111 153 *;
#X msg 255 95 20;
#X obj 226 57 hsl 128 15 0 0.8 0 0 empty empty empty -2 -6 0 8 -262144
-1 -1 2900 1;
#X obj 140 153 *;
#X obj 167 153 *;
#X obj 193 152 *;
#X obj 218 153 *;
#X obj 244 153 *;
#X obj 269 155 *;
#X obj 295 155 *;
#X obj 325 153 *;
#X obj 348 152 *;
#X obj 374 151 *;
#X obj 398 151 *;
#X obj 422 151 *;
#X obj 444 150 *;
#X obj 467 152 *;
#X obj 491 151 *;
#X floatatom 327 56 5 0 0 0 - - -;
#X text 235 54 multiplier;
#X obj 74 62 *~ 1;
#X obj 95 39 hsl 128 15 1 10 0 0 empty empty empty -2 -6 0 8 -262144
-1 -1 11300 1;
#X msg 229 37 9;
#X floatatom 194 40 5 0 0 0 - - -;
#X text 94 36 gain;
#X obj 73 10 inlet~;
#X obj 446 375 *~ 1;
#X obj 276 389 hsl 128 15 1 10 0 0 empty empty empty -2 -6 0 8 -262144
-1 -1 10100 1;
#X msg 274 367 9;
#X floatatom 374 390 5 0 0 0 - - -;
#X text 275 387 gain;
#X obj 446 410 outlet~;
#X obj 286 86 inlet~;
#X obj 225 74 t f b;
#X obj 394 60 hsl 128 15 0 127 0 0 empty empty empty -2 -6 0 8 -262144
-1 -1 12700 1;
#X floatatom 394 85 5 0 0 0 - - -;
#X msg 395 37 80;
#X obj 397 15 loadbang;
#X obj 102 211 voc_chan;
#X obj 476 208 voc_chan;
#X obj 133 233 voc_chan;
#X obj 163 256 voc_chan;
#X obj 188 278 voc_chan;
#X obj 211 299 voc_chan;
#X obj 234 206 voc_chan;
#X obj 259 230 voc_chan;
#X obj 289 253 voc_chan;
#X obj 314 275 voc_chan;
#X obj 337 296 voc_chan;
#X obj 362 221 voc_chan;
#X obj 387 245 voc_chan;
#X obj 417 268 voc_chan;
#X obj 442 290 voc_chan;
#X obj 462 312 voc_chan;
#X msg 361 55 85;
#X obj 225 95 + 1;
#X obj 515 148 *;
#X obj 539 148 *;
#X obj 563 148 *;
#X obj 585 147 *;
#X obj 608 149 *;
#X obj 632 148 *;
#X obj 623 226 voc_chan;
#X obj 506 234 voc_chan;
#X obj 531 257 voc_chan;
#X obj 554 280 voc_chan;
#X obj 586 302 voc_chan;
#X obj 599 204 voc_chan;
#X connect 0 0 3 0;
#X connect 0 0 38 1;
#X connect 1 0 0 0;
#X connect 2 0 33 0;
#X connect 3 0 4 0;
#X connect 3 0 40 1;
#X connect 4 0 5 0;
#X connect 4 0 41 1;
#X connect 5 0 6 0;
#X connect 5 0 42 1;
#X connect 6 0 7 0;
#X connect 6 0 43 1;
#X connect 7 0 8 0;
#X connect 7 0 44 1;
#X connect 8 0 9 0;
#X connect 8 0 45 1;
#X connect 9 0 10 0;
#X connect 9 0 46 1;
#X connect 10 0 11 0;
#X connect 10 0 47 1;
#X connect 11 0 12 0;
#X connect 11 0 48 1;
#X connect 12 0 13 0;
#X connect 12 0 49 1;
#X connect 13 0 14 0;
#X connect 13 0 50 1;
#X connect 14 0 15 0;
#X connect 14 0 51 1;
#X connect 15 0 16 0;
#X connect 15 0 52 1;
#X connect 16 0 17 0;
#X connect 16 0 53 1;
#X connect 17 0 39 1;
#X connect 20 0 38 0;
#X connect 20 0 39 0;
#X connect 20 0 40 0;
#X connect 20 0 41 0;
#X connect 20 0 42 0;
#X connect 20 0 43 0;
#X connect 20 0 44 0;
#X connect 20 0 45 0;
#X connect 20 0 46 0;
#X connect 20 0 47 0;
#X connect 20 0 48 0;
#X connect 20 0 49 0;
#X connect 20 0 50 0;
#X connect 20 0 51 0;
#X connect 20 0 52 0;
#X connect 20 0 53 0;
#X connect 20 0 63 0;
#X connect 20 0 64 0;
#X connect 20 0 65 0;
#X connect 20 0 66 0;
#X connect 20 0 67 0;
#X connect 20 0 62 0;
#X connect 21 0 20 1;
#X connect 21 0 23 0;
#X connect 22 0 21 0;
#X connect 25 0 20 0;
#X connect 26 0 31 0;
#X connect 27 0 26 1;
#X connect 27 0 29 0;
#X connect 28 0 27 0;
#X connect 32 0 38 4;
#X connect 32 0 40 4;
#X connect 32 0 41 4;
#X connect 32 0 42 4;
#X connect 32 0 43 4;
#X connect 32 0 44 4;
#X connect 32 0 45 4;
#X connect 32 0 46 4;
#X connect 32 0 47 4;
#X connect 32 0 48 4;
#X connect 32 0 49 4;
#X connect 32 0 50 4;
#X connect 32 0 51 4;
#X connect 32 0 52 4;
#X connect 32 0 53 4;
#X connect 32 0 39 4;
#X connect 32 0 63 4;
#X connect 32 0 64 4;
#X connect 32 0 65 4;
#X connect 32 0 66 4;
#X connect 32 0 67 4;
#X connect 32 0 62 4;
#X connect 33 0 55 0;
#X connect 33 1 1 0;
#X connect 34 0 35 0;
#X connect 35 0 38 2;
#X connect 35 0 39 2;
#X connect 35 0 40 2;
#X connect 35 0 41 2;
#X connect 35 0 42 2;
#X connect 35 0 43 2;
#X connect 35 0 44 2;
#X connect 35 0 45 2;
#X connect 35 0 46 2;
#X connect 35 0 47 2;
#X connect 35 0 48 2;
#X connect 35 0 49 2;
#X connect 35 0 50 2;
#X connect 35 0 51 2;
#X connect 35 0 52 2;
#X connect 35 0 53 2;
#X connect 35 0 63 2;
#X connect 35 0 64 2;
#X connect 35 0 66 2;
#X connect 35 0 67 2;
#X connect 35 0 62 2;
#X connect 36 0 34 0;
#X connect 37 0 36 0;
#X connect 37 0 54 0;
#X connect 37 0 28 0;
#X connect 37 0 22 0;
#X connect 38 1 26 0;
#X connect 39 1 26 0;
#X connect 40 1 26 0;
#X connect 41 1 26 0;
#X connect 42 1 26 0;
#X connect 43 1 26 0;
#X connect 44 1 26 0;
#X connect 45 1 26 0;
#X connect 46 1 26 0;
#X connect 47 1 26 0;
#X connect 48 1 26 0;
#X connect 49 1 26 0;
#X connect 50 1 26 0;
#X connect 51 1 26 0;
#X connect 52 1 26 0;
#X connect 53 1 26 0;
#X connect 54 0 2 0;
#X connect 55 0 0 1;
#X connect 55 0 3 1;
#X connect 55 0 4 1;
#X connect 55 0 5 1;
#X connect 55 0 6 1;
#X connect 55 0 7 1;
#X connect 55 0 8 1;
#X connect 55 0 9 1;
#X connect 55 0 10 1;
#X connect 55 0 11 1;
#X connect 55 0 12 1;
#X connect 55 0 13 1;
#X connect 55 0 14 1;
#X connect 55 0 15 1;
#X connect 55 0 16 1;
#X connect 55 0 17 1;
#X connect 55 0 18 0;
#X connect 55 0 56 1;
#X connect 55 0 57 1;
#X connect 55 0 58 1;
#X connect 55 0 59 1;
#X connect 55 0 60 1;
#X connect 55 0 61 1;
#X connect 56 0 57 0;
#X connect 56 0 63 1;
#X connect 57 0 58 0;
#X connect 57 0 64 1;
#X connect 58 0 59 0;
#X connect 58 0 65 1;
#X connect 59 0 60 0;
#X connect 59 0 66 1;
#X connect 60 0 61 0;
#X connect 60 0 67 1;
#X connect 61 0 62 1;
#X connect 62 1 26 0;
#X connect 63 1 26 0;
#X connect 64 1 26 0;
#X connect 65 1 26 0;
#X connect 66 1 26 0;
#X connect 67 1 26 0;
