#N canvas 372 86 870 514 10;
#X obj 66 40 hsl 128 15 0 100000 0 0 empty empty empty -2 -6 0 8 -262144
-1 -1 0 1;
#X obj 85 59 hsl 128 15 0 2e+006 0 0 empty empty empty -2 -6 0 8 -262144
-1 -1 5700 1;
#X obj 104 77 hsl 128 15 0 110 0 0 empty empty empty -2 -6 0 8 -262144
-1 -1 6000 1;
#X obj 56 20 hsl 250 15 10 12000 1 0 empty empty empty -2 -6 0 8 -262144
-1 -1 24900 1;
#X obj 320 7 vsl 15 128 0 127 0 0 empty empty empty 0 -8 0 8 -262144
-1 -1 9500 1;
#X obj 28 39 metro;
#X obj 120 97 bng 15 250 50 0 empty empty empty 0 -6 0 8 -262144 -1
-1;
#X obj 28 19 tgl 15 0 empty empty empty 0 -6 0 8 -262144 -1 -1 1 1
;
#X obj 142 97 hsl 128 15 -70000 100000 0 0 empty empty empty -2 -6
0 8 -262144 -1 -1 3400 1;
#X obj 161 115 hsl 128 15 0 127 0 0 empty empty empty -2 -6 0 8 -262144
-1 -1 0 1;
#X floatatom 263 21 7 0 0 0 - - -;
#X obj 44 110 bng 15 250 50 0 empty empty empty 0 -6 0 8 -262144 -1
-1;
#X text 42 95 open;
#X text 65 41 start;
#X text 86 61 length;
#X text 104 78 speed;
#X text 143 96 pitch;
#X text 165 114 gran mix;
#X text 319 135 volume;
#X floatatom 163 41 5 0 0 0 - - -;
#X floatatom 164 60 8 0 0 0 - - -;
#X floatatom 201 78 5 0 0 0 - - -;
#X floatatom 227 98 7 0 0 0 - - -;
#X floatatom 258 116 5 0 0 0 - - -;
#X msg 277 95 0;
#X obj 44 136 samp_play a_litte_wider;
#X floatatom 322 8 5 0 0 0 - - -;
#X floatatom 207 293 5 0 0 0 - - -;
#X obj 207 311 dbtorms;
#X floatatom 207 333 5 0 0 0 - - -;
#X obj 207 272 env~ 512;
#X obj 44 180 compressor;
#X obj 185 427 crossfade;
#X obj 176 463 dac~;
#X obj 269 426 hsl 128 15 0 127 0 0 empty empty empty -2 -6 0 8 -262144
-1 -1 12700 1;
#X obj 206 352 multi_osc;
#X obj 207 375 *~;
#X obj 207 224 bp~;
#X obj 386 129 bng 15 250 50 0 empty empty empty 0 -6 0 8 -262144 -1
-1;
#X obj 285 225 bp~;
#X obj 340 224 bp~;
#X obj 406 223 bp~;
#X obj 458 221 bp~;
#X obj 449 118 hsl 128 15 0 127 0 0 empty empty empty -2 -6 0 8 -262144
-1 -1 12700 1;
#X msg 207 180 50;
#X obj 520 221 bp~;
#X floatatom 279 290 5 0 0 0 - - -;
#X obj 279 308 dbtorms;
#X floatatom 279 330 5 0 0 0 - - -;
#X obj 279 269 env~ 512;
#X obj 279 372 *~;
#X floatatom 339 290 5 0 0 0 - - -;
#X obj 339 308 dbtorms;
#X floatatom 339 330 5 0 0 0 - - -;
#X obj 339 269 env~ 512;
#X obj 339 372 *~;
#X floatatom 398 289 5 0 0 0 - - -;
#X obj 398 307 dbtorms;
#X floatatom 398 329 5 0 0 0 - - -;
#X obj 398 268 env~ 512;
#X obj 398 371 *~;
#X floatatom 456 288 5 0 0 0 - - -;
#X obj 456 306 dbtorms;
#X floatatom 456 328 5 0 0 0 - - -;
#X obj 456 267 env~ 512;
#X obj 456 370 *~;
#X floatatom 519 287 5 0 0 0 - - -;
#X obj 519 305 dbtorms;
#X floatatom 519 327 5 0 0 0 - - -;
#X obj 519 266 env~ 512;
#X obj 519 369 *~;
#X msg 285 182 75;
#X msg 340 182 125;
#X msg 406 181 200;
#X msg 460 181 300;
#X msg 519 181 500;
#X obj 581 218 bp~;
#X floatatom 580 284 5 0 0 0 - - -;
#X obj 580 302 dbtorms;
#X floatatom 580 324 5 0 0 0 - - -;
#X obj 580 263 env~ 512;
#X obj 580 366 *~;
#X obj 640 218 bp~;
#X floatatom 639 284 5 0 0 0 - - -;
#X obj 639 302 dbtorms;
#X floatatom 639 324 5 0 0 0 - - -;
#X obj 639 263 env~ 512;
#X obj 639 366 *~;
#X msg 580 178 750;
#X msg 639 178 1000;
#X obj 212 245 bp~;
#X obj 295 246 bp~;
#X obj 350 245 bp~;
#X obj 416 244 bp~;
#X obj 468 242 bp~;
#X obj 530 242 bp~;
#X obj 591 239 bp~;
#X obj 647 241 bp~;
#X obj 699 218 bp~;
#X floatatom 698 284 5 0 0 0 - - -;
#X obj 698 302 dbtorms;
#X floatatom 698 324 5 0 0 0 - - -;
#X obj 698 263 env~ 512;
#X obj 698 366 *~;
#X obj 706 241 bp~;
#X msg 698 178 1500;
#X obj 758 217 bp~;
#X floatatom 757 283 5 0 0 0 - - -;
#X obj 757 301 dbtorms;
#X floatatom 757 323 5 0 0 0 - - -;
#X obj 757 262 env~ 512;
#X obj 757 365 *~;
#X obj 765 240 bp~;
#X msg 757 177 2000;
#X obj 360 398 *~ 1;
#X obj 407 402 hsl 128 15 1 10 0 0 empty empty empty -2 -6 0 8 -262144
-1 -1 11289 1;
#X msg 445 94 80;
#X msg 558 401 9;
#X floatatom 506 403 5 0 0 0 - - -;
#X text 406 399 gain;
#X text 447 115 q;
#X text 502 99 comment;
#X floatatom 545 118 5 0 0 0 - - -;
#X obj 598 86 loadbang;
#X text 13 166 configure compressor first;
#X text 403 37 * make variable freq osc prop to inout filter bank to
change sound.;
#X text 403 25 * variable (and better) frequency bands;
#X text 403 13 * smooth env follower to stop background noise;
#X obj 278 349 multi_osc;
#X obj 338 349 multi_osc;
#X obj 397 348 multi_osc;
#X obj 455 347 multi_osc;
#X obj 518 346 multi_osc;
#X obj 579 343 multi_osc;
#X obj 638 343 multi_osc;
#X obj 697 343 multi_osc;
#X obj 756 342 multi_osc;
#X obj 676 109 s sn;
#X obj 710 109 s sw;
#X obj 744 109 s pl;
#X obj 677 87 hsl 128 15 0 127 0 0 empty empty empty -2 -6 0 8 -262144
-1 -1 12700 1;
#X obj 674 67 hsl 128 15 0 127 0 0 empty empty empty -2 -6 0 8 -262144
-1 -1 0 1;
#X obj 675 49 hsl 128 15 0 127 0 0 empty empty empty -2 -6 0 8 -262144
-1 -1 0 1;
#X connect 0 0 19 0;
#X connect 0 0 25 1;
#X connect 1 0 20 0;
#X connect 1 0 25 2;
#X connect 2 0 21 0;
#X connect 2 0 25 3;
#X connect 3 0 5 1;
#X connect 3 0 10 0;
#X connect 4 0 25 7;
#X connect 4 0 26 0;
#X connect 5 0 6 0;
#X connect 6 0 25 4;
#X connect 7 0 5 0;
#X connect 8 0 22 0;
#X connect 8 0 25 5;
#X connect 9 0 23 0;
#X connect 9 0 25 6;
#X connect 11 0 25 0;
#X connect 24 0 8 0;
#X connect 25 0 31 0;
#X connect 27 0 28 0;
#X connect 28 0 29 0;
#X connect 29 0 36 1;
#X connect 30 0 27 0;
#X connect 31 0 32 0;
#X connect 31 0 37 0;
#X connect 31 0 39 0;
#X connect 31 0 40 0;
#X connect 31 0 41 0;
#X connect 31 0 42 0;
#X connect 31 0 45 0;
#X connect 31 0 76 0;
#X connect 31 0 82 0;
#X connect 31 0 98 0;
#X connect 31 0 106 0;
#X connect 32 0 33 0;
#X connect 32 0 33 1;
#X connect 34 0 32 2;
#X connect 35 0 36 0;
#X connect 36 0 114 0;
#X connect 37 0 90 0;
#X connect 38 0 44 0;
#X connect 38 0 71 0;
#X connect 38 0 72 0;
#X connect 38 0 73 0;
#X connect 38 0 74 0;
#X connect 38 0 75 0;
#X connect 38 0 116 0;
#X connect 38 0 88 0;
#X connect 38 0 89 0;
#X connect 38 0 105 0;
#X connect 38 0 113 0;
#X connect 39 0 91 0;
#X connect 40 0 92 0;
#X connect 41 0 93 0;
#X connect 42 0 94 0;
#X connect 43 0 42 2;
#X connect 43 0 41 2;
#X connect 43 0 40 2;
#X connect 43 0 39 2;
#X connect 43 0 37 2;
#X connect 43 0 76 2;
#X connect 43 0 82 2;
#X connect 43 0 90 2;
#X connect 43 0 91 2;
#X connect 43 0 92 2;
#X connect 43 0 93 2;
#X connect 43 0 94 2;
#X connect 43 0 95 2;
#X connect 43 0 96 2;
#X connect 43 0 97 2;
#X connect 43 0 98 2;
#X connect 43 0 106 2;
#X connect 43 0 104 2;
#X connect 43 0 112 2;
#X connect 43 0 122 0;
#X connect 44 0 37 1;
#X connect 44 0 35 0;
#X connect 44 0 90 1;
#X connect 45 0 95 0;
#X connect 46 0 47 0;
#X connect 47 0 48 0;
#X connect 48 0 50 1;
#X connect 49 0 46 0;
#X connect 50 0 114 0;
#X connect 51 0 52 0;
#X connect 52 0 53 0;
#X connect 53 0 55 1;
#X connect 54 0 51 0;
#X connect 55 0 114 0;
#X connect 56 0 57 0;
#X connect 57 0 58 0;
#X connect 58 0 60 1;
#X connect 59 0 56 0;
#X connect 60 0 114 0;
#X connect 61 0 62 0;
#X connect 62 0 63 0;
#X connect 63 0 65 1;
#X connect 64 0 61 0;
#X connect 65 0 114 0;
#X connect 66 0 67 0;
#X connect 67 0 68 0;
#X connect 68 0 70 1;
#X connect 69 0 66 0;
#X connect 70 0 114 0;
#X connect 71 0 39 1;
#X connect 71 0 91 1;
#X connect 71 0 128 0;
#X connect 72 0 40 1;
#X connect 72 0 92 1;
#X connect 72 0 129 0;
#X connect 73 0 41 1;
#X connect 73 0 93 1;
#X connect 73 0 130 0;
#X connect 74 0 42 1;
#X connect 74 0 94 1;
#X connect 74 0 131 0;
#X connect 75 0 45 1;
#X connect 75 0 95 1;
#X connect 75 0 132 0;
#X connect 76 0 96 0;
#X connect 77 0 78 0;
#X connect 78 0 79 0;
#X connect 79 0 81 1;
#X connect 80 0 77 0;
#X connect 81 0 114 0;
#X connect 82 0 97 0;
#X connect 83 0 84 0;
#X connect 84 0 85 0;
#X connect 85 0 87 1;
#X connect 86 0 83 0;
#X connect 87 0 114 0;
#X connect 88 0 76 1;
#X connect 88 0 96 1;
#X connect 88 0 133 0;
#X connect 89 0 82 1;
#X connect 89 0 97 1;
#X connect 89 0 134 0;
#X connect 90 0 30 0;
#X connect 91 0 49 0;
#X connect 92 0 54 0;
#X connect 93 0 59 0;
#X connect 94 0 64 0;
#X connect 95 0 69 0;
#X connect 96 0 80 0;
#X connect 97 0 86 0;
#X connect 98 0 104 0;
#X connect 99 0 100 0;
#X connect 100 0 101 0;
#X connect 101 0 103 1;
#X connect 102 0 99 0;
#X connect 103 0 114 0;
#X connect 104 0 102 0;
#X connect 105 0 98 1;
#X connect 105 0 104 1;
#X connect 105 0 135 0;
#X connect 106 0 112 0;
#X connect 107 0 108 0;
#X connect 108 0 109 0;
#X connect 109 0 111 1;
#X connect 110 0 107 0;
#X connect 111 0 114 0;
#X connect 112 0 110 0;
#X connect 113 0 106 1;
#X connect 113 0 112 1;
#X connect 113 0 136 0;
#X connect 114 0 32 1;
#X connect 115 0 114 1;
#X connect 115 0 118 0;
#X connect 116 0 43 0;
#X connect 117 0 115 0;
#X connect 123 0 38 0;
#X connect 123 0 117 0;
#X connect 128 0 50 0;
#X connect 129 0 55 0;
#X connect 130 0 60 0;
#X connect 131 0 65 0;
#X connect 132 0 70 0;
#X connect 133 0 81 0;
#X connect 134 0 87 0;
#X connect 135 0 103 0;
#X connect 136 0 111 0;
#X connect 140 0 137 0;
#X connect 141 0 138 0;
#X connect 142 0 139 0;
