#N canvas 784 175 645 631 10;
#X obj 23 151 gemwin;
#X msg 20 89 create;
#X msg 27 114 destroy;
#X obj 88 105 tgl 30 0 empty empty empty 20 8 0 8 -262144 -1 -1 1 1
;
#X msg 12 36 profile 0;
#X msg 22 60 profile 1;
#X msg 111 62 offset 0 0;
#X obj 252 87 gemhead;
#X floatatom 453 276 5 0 0 0 - - -;
#X floatatom 462 292 5 0 0 0 - - -;
#X obj 445 344 newWave;
#X obj 191 258 t f b;
#X msg 190 179 auto \$1;
#X obj 190 160 tgl 15 0 empty empty empty 0 -6 0 8 -262144 -1 -1 1
1;
#X floatatom 363 104 0 0 0 0 - - -;
#X floatatom 327 104 0 0 0 0 - - -;
#X floatatom 398 104 0 0 0 0 - - -;
#X obj 207 32 openpanel;
#X obj 207 13 bng 15 250 50 0 empty empty empty 0 -6 0 8 -262144 -1
-1;
#X msg 207 52 open \$1;
#X floatatom 473 310 5 0 0 0 - - -;
#X floatatom 516 309 5 0 0 0 - - -;
#X obj 120 285 pix_texture;
#X obj 252 244 translateXYZ -7 -7 -5;
#X obj 252 295 scale 1;
#X obj 120 258 pix_film;
#X obj 210 373 hsl 400 15 0 600 0 0 empty empty empty -2 -6 0 8 -262144
-1 -1 0 1;
#X obj 45 480 rectangle;
#X obj 232 418 bng 15 250 50 0 empty empty empty 0 -6 0 8 -262144 -1
-1;
#X msg 205 438 4;
#X msg 247 437 3;
#X obj 202 477 * 1;
#X obj 249 467 * 1;
#X obj 230 351 hsl 128 15 0 10 0 0 empty empty empty -2 -6 0 8 -262144
-1 -1 0 1;
#X msg 107 34 dimen 800 600;
#X obj 334 166 hsl 128 15 -10 10 0 0 empty empty empty -2 -6 0 8 -262144
-1 -1 4700 1;
#X obj 335 184 hsl 128 15 -10 10 0 0 empty empty empty -2 -6 0 8 -262144
-1 -1 4500 1;
#X obj 335 201 hsl 128 15 -10 10 0 0 empty empty empty -2 -6 0 8 -262144
-1 -1 4900 1;
#X obj 276 271 hsl 128 15 3 -3 0 0 empty empty empty -2 -6 0 8 -262144
-1 -1 0 1;
#X obj 234 393 t b f;
#X msg 195 206 0;
#X obj 252 142 rotateXYZ 0 0 0;
#X text 285 11 basic video rearranged so the texture block is before
the rotate stuff;
#X connect 1 0 0 0;
#X connect 2 0 0 0;
#X connect 3 0 0 0;
#X connect 4 0 0 0;
#X connect 5 0 0 0;
#X connect 6 0 0 0;
#X connect 7 0 25 0;
#X connect 8 0 10 1;
#X connect 9 0 10 2;
#X connect 11 0 25 1;
#X connect 12 0 25 0;
#X connect 13 0 12 0;
#X connect 14 0 41 2;
#X connect 15 0 41 1;
#X connect 16 0 41 3;
#X connect 17 0 19 0;
#X connect 18 0 17 0;
#X connect 19 0 25 0;
#X connect 20 0 10 3;
#X connect 21 0 10 4;
#X connect 22 0 41 0;
#X connect 23 0 24 0;
#X connect 24 0 27 0;
#X connect 25 0 22 0;
#X connect 25 2 11 0;
#X connect 26 0 39 0;
#X connect 28 0 29 0;
#X connect 28 0 30 0;
#X connect 29 0 31 0;
#X connect 30 0 32 0;
#X connect 31 0 27 1;
#X connect 32 0 27 2;
#X connect 33 0 39 0;
#X connect 34 0 0 0;
#X connect 35 0 23 1;
#X connect 36 0 23 2;
#X connect 37 0 23 3;
#X connect 38 0 24 1;
#X connect 39 0 28 0;
#X connect 39 1 32 1;
#X connect 39 1 31 1;
#X connect 40 0 25 1;
#X connect 41 0 23 0;
