#N canvas 685 217 592 588 10;
#X obj 358 503 s matrix;
#X obj 285 504 s scale;
#X msg 285 471 1;
#X obj 358 392 s matrix;
#X obj 285 393 s scale;
#X msg 285 360 1;
#X obj 355 299 s matrix;
#X obj 282 300 s scale;
#X msg 282 267 1;
#X obj 355 194 s matrix;
#X obj 282 195 s scale;
#X msg 282 162 1;
#X obj 359 94 s matrix;
#X obj 286 95 s scale;
#X msg 286 62 1;
#X obj 103 141 s matrix;
#X obj 30 142 s scale;
#X msg 30 109 1;
#X msg 359 35 -1 -1 -1 -1 8 -1 -1 -1 -1;
#X msg 355 134 -1 -4 -1 -4 20 -4 -1 -4 -1;
#X msg 99 223 1 2 1 2 4 2 1 2 1;
#X text 289 14 scale = 1;
#X text 19 203 scale = 16;
#X text 19 188 smoothing matrix;
#X msg 26 251 16;
#X msg 103 80 0 0 0 0 1 0 0 0 0;
#X msg 355 236 0 -1 0 0 2 0 0 -1 0;
#X msg 358 438 -1 0 -1 0 4 0 -1 0 -1;
#X msg 358 331 0 0 0 -1 2 -1 0 0 0;
#X obj 99 281 s matrix;
#X obj 26 282 s scale;
#X text 24 60 scale = 1;
#X text 24 43 identity matrix;
#X obj 50 321 hsl 128 15 -20 20 0 0 empty empty empty -2 -6 0 8 -262144
-1 -1 5300 1;
#X floatatom 149 321 5 0 0 0 - - -;
#X obj 50 339 hsl 128 15 -20 20 0 0 empty empty empty -2 -6 0 8 -262144
-1 -1 6700 1;
#X floatatom 149 339 5 0 0 0 - - -;
#X obj 50 356 hsl 128 15 -20 20 0 0 empty empty empty -2 -6 0 8 -262144
-1 -1 6400 1;
#X floatatom 149 356 5 0 0 0 - - -;
#X obj 50 374 hsl 128 15 -20 20 0 0 empty empty empty -2 -6 0 8 -262144
-1 -1 8000 1;
#X floatatom 149 374 5 0 0 0 - - -;
#X obj 50 391 hsl 128 15 -20 20 0 0 empty empty empty -2 -6 0 8 -262144
-1 -1 5700 1;
#X floatatom 149 391 5 0 0 0 - - -;
#X obj 50 408 hsl 128 15 -20 20 0 0 empty empty empty -2 -6 0 8 -262144
-1 -1 3600 1;
#X floatatom 149 408 5 0 0 0 - - -;
#X obj 50 426 hsl 128 15 -20 20 0 0 empty empty empty -2 -6 0 8 -262144
-1 -1 5900 1;
#X floatatom 149 426 5 0 0 0 - - -;
#X obj 50 443 hsl 128 15 -20 20 0 0 empty empty empty -2 -6 0 8 -262144
-1 -1 4200 1;
#X floatatom 149 443 5 0 0 0 - - -;
#X obj 50 461 hsl 128 15 -20 20 0 0 empty empty empty -2 -6 0 8 -262144
-1 -1 12700 1;
#X floatatom 149 461 5 0 0 0 - - -;
#X obj 25 301 hsl 128 15 0 20 0 0 empty empty empty -2 -6 0 8 -262144
-1 -1 200 1;
#X floatatom 115 301 5 0 0 0 - - -;
#X text 29 300 scale;
#X obj 50 508 pack 0 0 0 0 1 0 0 0 0;
#X obj 20 469 bng 15 250 50 0 empty empty empty 0 -6 0 8 -262144 -1
-1;
#X floatatom 4 449 5 0 0 0 - - -;
#X obj 78 548 s matrix;
#X obj 5 549 s scale;
#X connect 2 0 1 0;
#X connect 5 0 4 0;
#X connect 8 0 7 0;
#X connect 11 0 10 0;
#X connect 14 0 13 0;
#X connect 17 0 16 0;
#X connect 18 0 14 0;
#X connect 18 0 12 0;
#X connect 19 0 11 0;
#X connect 19 0 9 0;
#X connect 20 0 24 0;
#X connect 20 0 29 0;
#X connect 24 0 30 0;
#X connect 25 0 17 0;
#X connect 25 0 15 0;
#X connect 26 0 8 0;
#X connect 26 0 6 0;
#X connect 27 0 2 0;
#X connect 27 0 0 0;
#X connect 28 0 5 0;
#X connect 28 0 3 0;
#X connect 33 0 34 0;
#X connect 33 0 54 0;
#X connect 35 0 36 0;
#X connect 35 0 54 1;
#X connect 35 0 55 0;
#X connect 37 0 38 0;
#X connect 37 0 54 2;
#X connect 37 0 55 0;
#X connect 39 0 40 0;
#X connect 39 0 54 3;
#X connect 39 0 55 0;
#X connect 41 0 42 0;
#X connect 41 0 54 4;
#X connect 41 0 55 0;
#X connect 43 0 44 0;
#X connect 43 0 54 5;
#X connect 43 0 55 0;
#X connect 45 0 46 0;
#X connect 45 0 54 6;
#X connect 45 0 55 0;
#X connect 47 0 48 0;
#X connect 47 0 54 7;
#X connect 47 0 55 0;
#X connect 49 0 50 0;
#X connect 49 0 54 8;
#X connect 49 0 55 0;
#X connect 51 0 52 0;
#X connect 51 0 56 0;
#X connect 54 0 57 0;
#X connect 55 0 56 0;
#X connect 55 0 54 0;
#X connect 56 0 58 0;
