#N canvas 232 220 617 599 10;
#X obj 141 114 pix_texture;
#X obj 141 89 pix_delay;
#X obj 119 277 rectangle;
#X obj 144 154 kal_gut2;
#X obj 208 110 pix_texture;
#X obj 208 85 pix_delay;
#X obj 186 273 rectangle;
#X obj 211 150 kal_gut2;
#X obj 189 59 * 7;
#X obj 256 54 * 8;
#X connect 0 0 3 0;
#X connect 1 0 0 0;
#X connect 3 0 2 0;
#X connect 4 0 7 0;
#X connect 5 0 4 0;
#X connect 7 0 6 0;
#X connect 8 0 1 1;
#X connect 9 0 5 1;
