#N canvas 665 9 759 809 10;
#X obj 23 151 gemwin;
#X msg 20 89 create;
#X msg 27 114 destroy;
#X obj 87 101 tgl 30 0 empty empty empty 20 8 0 8 -262144 -1 -1 0 1
;
#X msg 12 36 profile 0;
#X msg 22 60 profile 1;
#X obj 207 32 openpanel;
#X obj 208 13 bng 15 250 50 0 empty empty empty 0 -6 0 8 -262144 -1
-1;
#X msg 207 52 open \$1;
#X obj 128 656 rectangle;
#X obj 272 416 bng 15 250 50 0 empty empty empty 0 -6 0 8 -262144 -1
-1;
#X msg 245 436 4;
#X msg 287 435 3;
#X obj 244 465 * 1;
#X obj 289 465 * 1;
#X obj 81 460 hsl 128 15 0 3 0 0 empty empty empty -2 -6 0 8 -262144
-1 -1 1329 1;
#X obj 274 391 t b f;
#X obj 194 656 rectangle;
#X obj 67 657 rectangle;
#X obj 259 657 rectangle;
#X obj 71 148 gemhead;
#X msg 300 29 0;
#X obj 161 107 bng 15 250 50 0 empty empty empty 0 -6 0 8 -262144 -1
-1;
#X obj 24 439 loadbang;
#X floatatom 180 459 5 0 0 0 - - -;
#X msg 24 461 0.314;
#X msg 111 62 offset 1440 -1;
#X msg 107 34 dimen 800 603;
#X obj 303 73 hsl 128 15 0 1000 0 0 empty empty empty -2 -6 0 8 -262144
-1 -1 0 1;
#X text 313 72 frame number;
#X floatatom 301 144 5 0 0 0 - - -;
#X obj 299 94 / 1000;
#X floatatom 313 50 5 0 0 0 - - -;
#X floatatom 342 120 5 0 0 0 - - -;
#X obj 300 118 * 1;
#X obj 129 189 t f b;
#X obj 71 189 pix_film;
#X msg 213 103 auto \$1;
#X obj 213 84 tgl 15 0 empty empty empty 0 -6 0 8 -262144 -1 -1 0 1
;
#X obj 72 633 kal_gut2;
#X text 72 616 first one;
#X msg 439 83 0 180 0 -2.48 0 0 1;
#X msg 440 127 0 180 0 -2.48 0 0 1;
#X msg 439 60 0 0 0 -2.72 2.009 0 2.16;
#X msg 439 105 180 180 0 -2.48 1.879 0 1;
#X obj 144 632 kal_gut2;
#X obj 216 632 kal_gut2;
#X obj 289 632 kal_gut2;
#X obj 72 591 pix_texture;
#X obj 712 48 pix_convolve 3 3;
#X obj 835 16 r matrix;
#X obj 773 14 r scale;
#X obj 699 23 conv_matrix;
#X floatatom 644 240 5 0 0 0 - - -;
#X obj 631 290 pix_tIIR 2 2;
#X obj 644 260 * 0.01;
#X obj 644 195 unpack 30 60 10 50 50 -20;
#X floatatom 693 240 5 0 0 0 - - -;
#X obj 693 260 * 0.01;
#X floatatom 740 240 5 0 0 0 - - -;
#X obj 740 260 * 0.01;
#X floatatom 789 240 5 0 0 0 - - -;
#X obj 789 260 * 0.01;
#X floatatom 836 240 5 0 0 0 - - -;
#X obj 836 260 * 0.01;
#X floatatom 885 240 5 0 0 0 - - -;
#X obj 885 260 * 0.01;
#X msg 644 149 bang;
#X obj 644 171 pack 30 60 10 50 50 -20;
#X text 742 286 keep low;
#X obj 865 157 pix_coordinate;
#X floatatom 944 107 5 0 0 0 - - -;
#X msg 944 130 0 0 \$1 0 \$1 \$1 0 \$1;
#X text 842 177 quite cool makes multiple texture squares but fucks
up positioning off elements.;
#X obj 688 97 pix_delay;
#X obj 797 119 hsl 128 15 0 200 0 0 empty empty empty -2 -6 0 8 -262144
-1 -1 0 1;
#X obj 694 130 pix_texture;
#X text 715 66 convolving;
#X text 698 146 delaying;
#X text 685 317 time filtering;
#X obj 107 8 loadbang;
#X obj 144 591 pix_texture;
#X obj 216 592 pix_texture;
#X obj 288 591 pix_texture;
#X obj 540 37 hsl 128 15 0 200 0 0 empty empty empty -2 -6 0 8 -262144
-1 -1 0 1;
#X obj 72 564 pix_delay;
#X obj 144 565 pix_delay;
#X obj 216 565 pix_delay;
#X obj 288 566 pix_delay;
#X obj 431 15 pix_delay;
#X obj 149 232 hsl 128 15 0 200 0 0 empty empty empty -2 -6 0 8 -262144
-1 -1 0 1;
#X obj 120 532 * 1;
#X obj 190 533 * 2;
#X obj 265 537 * 3;
#X obj 337 533 * 4;
#X floatatom 332 438 5 0 0 0 - - -;
#X obj 86 349 pack 0 0 0 0 0 0 0;
#X obj 76 297 hsl 128 15 -5 5 0 0 empty empty empty -2 -6 0 8 -262144
-1 -1 0 1;
#X obj 75 321 bng 15 250 50 0 empty empty empty 0 -6 0 8 -262144 -1
-1;
#X msg 189 325 1;
#X obj 319 339 pack 0 0 0 0 0 0 0;
#X obj 338 279 hsl 128 15 -3 3 0 0 empty empty empty -2 -6 0 8 -262144
-1 -1 0 1;
#X obj 306 306 bng 15 250 50 0 empty empty empty 0 -6 0 8 -262144 -1
-1;
#X obj 344 254 hsl 128 15 -3 3 0 0 empty empty empty -2 -6 0 8 -262144
-1 -1 0 1;
#X obj 354 230 hsl 128 15 -3 3 0 0 empty empty empty -2 -6 0 8 -262144
-1 -1 0 1;
#X obj 302 174 hsl 128 15 -180 180 0 0 empty empty empty -2 -6 0 8
-262144 -1 -1 0 1;
#X obj 423 296 bng 15 250 50 0 empty empty empty 0 -6 0 8 -262144 -1
-1;
#X obj 425 315 hsl 128 15 0 3 0 0 empty empty empty -2 -6 0 8 -262144
-1 -1 0 1;
#X msg 436 172 0;
#X msg 490 230 0;
#X msg 480 252 0;
#X msg 476 278 0;
#X floatatom 440 280 5 0 0 0 - - -;
#X floatatom 442 253 5 0 0 0 - - -;
#X floatatom 453 230 5 0 0 0 - - -;
#X msg 559 315 1;
#X floatatom 526 318 5 0 0 0 - - -;
#X floatatom 399 172 5 0 0 0 - - -;
#X obj 330 193 hsl 128 15 -180 180 0 0 empty empty empty -2 -6 0 8
-262144 -1 -1 0 1;
#X msg 464 191 0;
#X floatatom 427 191 5 0 0 0 - - -;
#X obj 364 211 hsl 128 15 -180 180 0 0 empty empty empty -2 -6 0 8
-262144 -1 -1 0 1;
#X msg 498 209 0;
#X floatatom 461 209 5 0 0 0 - - -;
#X obj 361 591 pix_texture;
#X obj 435 592 pix_texture;
#X obj 361 567 pix_delay;
#X obj 435 567 pix_delay;
#X obj 334 655 rectangle;
#X obj 364 630 kal_gut2;
#X obj 408 657 rectangle;
#X obj 438 632 kal_gut2;
#X obj 407 536 * 5;
#X obj 483 537 * 6;
#X obj 77 402 hsl 128 15 0 10 0 0 empty empty empty -2 -6 0 8 -262144
-1 -1 0 1;
#X obj 82 428 hsl 128 15 0 10 0 0 empty empty empty -2 -6 0 8 -262144
-1 -1 0 1;
#X floatatom 178 432 5 0 0 0 - - -;
#X floatatom 178 402 5 0 0 0 - - -;
#X text 82 401 width;
#X text 86 429 height;
#X text 81 457 size;
#X text 79 297 first pos;
#X floatatom 169 298 5 0 0 0 - - -;
#X floatatom 240 232 5 0 0 0 - - -;
#X text 153 231 delay;
#X msg 115 164 0;
#X obj 412 392 dumpOSC 10002;
#X obj 414 426 OSCroute /start;
#X obj 416 456 bng 15 250 50 0 empty empty empty 0 -6 0 8 -262144 -1
-1;
#X text 47 170 reconnect !!;
#X obj 6 659 rectangle;
#X obj 11 635 kal_gut2;
#X text 11 618 first one;
#X obj 11 593 pix_texture;
#X connect 1 0 0 0;
#X connect 2 0 0 0;
#X connect 3 0 0 0;
#X connect 4 0 0 0;
#X connect 5 0 0 0;
#X connect 6 0 8 0;
#X connect 7 0 6 0;
#X connect 8 0 36 0;
#X connect 10 0 11 0;
#X connect 10 0 12 0;
#X connect 11 0 13 0;
#X connect 12 0 14 0;
#X connect 13 0 9 1;
#X connect 13 0 17 1;
#X connect 13 0 18 1;
#X connect 13 0 19 1;
#X connect 13 0 128 1;
#X connect 13 0 130 1;
#X connect 14 0 9 2;
#X connect 14 0 17 2;
#X connect 14 0 18 2;
#X connect 14 0 19 2;
#X connect 14 0 130 2;
#X connect 14 0 128 2;
#X connect 15 0 16 0;
#X connect 15 0 24 0;
#X connect 16 0 10 0;
#X connect 16 1 14 1;
#X connect 16 1 13 1;
#X connect 21 0 28 0;
#X connect 23 0 25 0;
#X connect 25 0 15 0;
#X connect 26 0 0 0;
#X connect 27 0 0 0;
#X connect 28 0 31 0;
#X connect 30 0 36 1;
#X connect 31 0 33 0;
#X connect 31 0 34 0;
#X connect 32 0 34 1;
#X connect 34 0 30 0;
#X connect 35 0 36 1;
#X connect 36 0 85 0;
#X connect 36 0 86 0;
#X connect 36 0 87 0;
#X connect 36 0 88 0;
#X connect 36 0 126 0;
#X connect 36 0 127 0;
#X connect 36 0 153 0;
#X connect 36 1 32 0;
#X connect 36 2 35 0;
#X connect 37 0 36 0;
#X connect 38 0 37 0;
#X connect 39 0 18 0;
#X connect 45 0 9 0;
#X connect 46 0 17 0;
#X connect 47 0 19 0;
#X connect 48 0 39 0;
#X connect 50 0 49 2;
#X connect 51 0 49 1;
#X connect 53 0 55 0;
#X connect 55 0 54 1;
#X connect 56 0 53 0;
#X connect 56 1 57 0;
#X connect 56 2 59 0;
#X connect 56 3 61 0;
#X connect 56 4 63 0;
#X connect 56 5 65 0;
#X connect 57 0 58 0;
#X connect 58 0 54 2;
#X connect 59 0 60 0;
#X connect 60 0 54 3;
#X connect 61 0 62 0;
#X connect 62 0 54 4;
#X connect 63 0 64 0;
#X connect 64 0 54 5;
#X connect 65 0 66 0;
#X connect 66 0 54 6;
#X connect 67 0 68 0;
#X connect 68 0 56 0;
#X connect 71 0 72 0;
#X connect 72 0 70 1;
#X connect 74 0 76 0;
#X connect 75 0 74 1;
#X connect 80 0 27 0;
#X connect 81 0 45 0;
#X connect 82 0 46 0;
#X connect 83 0 47 0;
#X connect 84 0 89 1;
#X connect 85 0 48 0;
#X connect 86 0 81 0;
#X connect 87 0 82 0;
#X connect 88 0 83 0;
#X connect 90 0 91 0;
#X connect 90 0 92 0;
#X connect 90 0 93 0;
#X connect 90 0 94 0;
#X connect 90 0 132 0;
#X connect 90 0 133 0;
#X connect 90 0 143 0;
#X connect 91 0 85 1;
#X connect 92 0 86 1;
#X connect 93 0 87 1;
#X connect 94 0 88 1;
#X connect 95 0 14 0;
#X connect 96 0 39 1;
#X connect 97 0 96 3;
#X connect 97 0 98 0;
#X connect 97 0 99 0;
#X connect 97 0 142 0;
#X connect 98 0 96 0;
#X connect 99 0 96 6;
#X connect 100 0 45 1;
#X connect 100 0 46 1;
#X connect 100 0 47 1;
#X connect 100 0 129 1;
#X connect 100 0 131 1;
#X connect 101 0 100 3;
#X connect 101 0 102 0;
#X connect 101 0 106 0;
#X connect 101 0 112 0;
#X connect 102 0 100 0;
#X connect 103 0 100 4;
#X connect 103 0 102 0;
#X connect 103 0 106 0;
#X connect 103 0 113 0;
#X connect 104 0 102 0;
#X connect 104 0 100 5;
#X connect 104 0 106 0;
#X connect 104 0 114 0;
#X connect 105 0 102 0;
#X connect 105 0 106 0;
#X connect 105 0 117 0;
#X connect 105 0 100 0;
#X connect 106 0 107 0;
#X connect 107 0 100 6;
#X connect 107 0 102 0;
#X connect 107 0 116 0;
#X connect 108 0 105 0;
#X connect 109 0 104 0;
#X connect 110 0 103 0;
#X connect 111 0 101 0;
#X connect 115 0 107 0;
#X connect 118 0 120 0;
#X connect 118 0 102 0;
#X connect 118 0 106 0;
#X connect 118 0 100 1;
#X connect 119 0 118 0;
#X connect 121 0 123 0;
#X connect 121 0 102 0;
#X connect 121 0 106 0;
#X connect 121 0 100 2;
#X connect 122 0 121 0;
#X connect 124 0 129 0;
#X connect 125 0 131 0;
#X connect 126 0 124 0;
#X connect 127 0 125 0;
#X connect 129 0 128 0;
#X connect 131 0 130 0;
#X connect 132 0 126 1;
#X connect 133 0 127 1;
#X connect 134 0 13 0;
#X connect 134 0 137 0;
#X connect 135 0 14 0;
#X connect 135 0 136 0;
#X connect 145 0 36 1;
#X connect 146 0 147 0;
#X connect 147 0 148 0;
#X connect 151 0 150 0;
#X connect 153 0 151 0;
