#N canvas 813 6 602 670 10;
#X obj 23 151 gemwin;
#X msg 20 89 create;
#X msg 27 114 destroy;
#X obj 88 105 tgl 30 0 empty empty empty 20 8 0 8 -262144 -1 -1 1 1
;
#X msg 12 36 profile 0;
#X msg 22 60 profile 1;
#X obj 207 32 openpanel;
#X obj 207 13 bng 15 250 50 0 empty empty empty 0 -6 0 8 -262144 -1
-1;
#X msg 207 52 open \$1;
#X obj 317 397 hsl 100 15 0 600 0 0 empty empty empty -2 -6 0 8 -262144
-1 -1 0 1;
#X obj 92 614 rectangle;
#X obj 331 447 bng 15 250 50 0 empty empty empty 0 -6 0 8 -262144 -1
-1;
#X msg 304 467 4;
#X msg 346 466 3;
#X obj 303 496 * 1;
#X obj 348 496 * 1;
#X obj 333 380 hsl 128 15 0 10 0 0 empty empty empty -2 -6 0 8 -262144
-1 -1 399 1;
#X obj 333 422 t b f;
#X obj 158 614 rectangle;
#X obj 31 615 rectangle;
#X obj 246 611 rectangle;
#X obj 45 205 gemhead;
#X msg 300 29 0;
#X obj 161 107 bng 15 250 50 0 empty empty empty 0 -6 0 8 -262144 -1
-1;
#X obj 326 335 loadbang;
#X floatatom 430 382 5 0 0 0 - - -;
#X msg 326 357 0.314;
#X msg 111 62 offset 1440 -1;
#X msg 107 34 dimen 800 603;
#X obj 303 73 hsl 128 15 0 1000 0 0 empty empty empty -2 -6 0 8 -262144
-1 -1 0 1;
#X text 309 70 frame number;
#X floatatom 301 144 5 0 0 0 - - -;
#X obj 299 94 / 1000;
#X floatatom 313 50 5 0 0 0 - - -;
#X floatatom 342 120 5 0 0 0 - - -;
#X obj 300 118 * 1;
#X obj 152 232 t f b;
#X obj 92 250 pix_film;
#X msg 213 103 auto \$1;
#X obj 213 84 tgl 15 0 empty empty empty 0 -6 0 8 -262144 -1 -1 1 1
;
#X obj 31 388 kal_gut2;
#X text 31 371 first one;
#X obj 440 155 openpanel;
#X obj 440 136 bng 15 250 50 0 empty empty empty 0 -6 0 8 -262144 -1
-1;
#X msg 440 175 open \$1;
#X obj 24 258 pix_image;
#X msg 136 170 0 180 0 -2.48 0 0 1;
#X msg 246 225 0 180 0 -2.48 0 0 1;
#X msg 84 148 0 0 0 -2.72 2.009 0 2.16;
#X msg 198 195 180 180 0 -2.48 1.879 0 1;
#X obj 94 388 kal_gut2;
#X obj 149 388 kal_gut2;
#X obj 211 390 kal_gut2;
#X obj 43 292 pix_texture;
#X obj 274 296 pix_convolve 3 3;
#X obj 397 264 r matrix;
#X obj 335 262 r scale;
#X obj 467 60 conv_matrix;
#X connect 1 0 0 0;
#X connect 2 0 0 0;
#X connect 3 0 0 0;
#X connect 4 0 0 0;
#X connect 5 0 0 0;
#X connect 6 0 8 0;
#X connect 7 0 6 0;
#X connect 8 0 37 0;
#X connect 9 0 17 0;
#X connect 11 0 12 0;
#X connect 11 0 13 0;
#X connect 12 0 14 0;
#X connect 13 0 15 0;
#X connect 14 0 10 1;
#X connect 14 0 18 1;
#X connect 14 0 19 1;
#X connect 14 0 20 1;
#X connect 15 0 10 2;
#X connect 15 0 18 2;
#X connect 15 0 19 2;
#X connect 15 0 20 2;
#X connect 16 0 17 0;
#X connect 16 0 25 0;
#X connect 17 0 11 0;
#X connect 17 1 15 1;
#X connect 17 1 14 1;
#X connect 21 0 37 0;
#X connect 21 0 45 0;
#X connect 22 0 29 0;
#X connect 24 0 26 0;
#X connect 26 0 16 0;
#X connect 27 0 0 0;
#X connect 28 0 0 0;
#X connect 29 0 32 0;
#X connect 31 0 37 1;
#X connect 32 0 34 0;
#X connect 32 0 35 0;
#X connect 33 0 35 1;
#X connect 35 0 31 0;
#X connect 36 0 37 1;
#X connect 37 0 53 0;
#X connect 37 1 33 0;
#X connect 37 2 36 0;
#X connect 38 0 37 0;
#X connect 39 0 38 0;
#X connect 40 0 19 0;
#X connect 42 0 44 0;
#X connect 43 0 42 0;
#X connect 44 0 45 0;
#X connect 46 0 50 1;
#X connect 47 0 52 1;
#X connect 48 0 40 1;
#X connect 49 0 51 1;
#X connect 50 0 10 0;
#X connect 51 0 18 0;
#X connect 52 0 20 0;
#X connect 53 0 40 0;
#X connect 53 0 50 0;
#X connect 53 0 51 0;
#X connect 53 0 52 0;
#X connect 55 0 54 2;
#X connect 56 0 54 1;
