#N canvas 657 224 721 600 10;
#X obj 123 383 t f b;
#X floatatom 362 162 0 0 0 0 - - -;
#X floatatom 326 162 0 0 0 0 - - -;
#X floatatom 397 162 0 0 0 0 - - -;
#X obj 52 410 pix_texture;
#X obj 309 277 scale 1;
#X obj 52 383 pix_film;
#X obj 463 161 hsl 128 15 -3 3 0 0 empty empty empty -2 -6 0 8 -262144
-1 -1 677 1;
#X obj 463 179 hsl 128 15 -3 3 0 0 empty empty empty -2 -6 0 8 -262144
-1 -1 10583 1;
#X obj 463 196 hsl 128 15 -10 10 0 0 empty empty empty -2 -6 0 8 -262144
-1 -1 6350 1;
#X obj 244 307 hsl 128 15 3 -3 0 0 empty empty empty -2 -6 0 8 -262144
-1 -1 1799 1;
#X obj 252 105 inlet;
#X obj 64 145 inlet;
#X obj 86 523 outlet;
#X text 253 80 gemhead;
#X text 68 118 open file;
#X obj 251 200 rotateXYZ 0 0 0;
#X obj 83 261 inlet;
#X obj 129 264 inlet;
#X text 132 246 pos;
#X text 85 233 autoplay;
#X obj 380 239 translateXYZ 0 0 0;
#X floatatom 558 161 5 0 0 0 - - -;
#X floatatom 560 178 5 0 0 0 - - -;
#X floatatom 558 197 5 0 0 0 - - -;
#X obj 381 56 inlet;
#X obj 382 86 unpack 0 0 0 0 0 0 0;
#X floatatom 340 307 5 0 0 0 - - -;
#X obj 131 485 outlet;
#X text 142 464 tot frames;
#X text 90 507 gem list;
#X connect 0 0 6 1;
#X connect 1 0 16 2;
#X connect 2 0 16 1;
#X connect 3 0 16 3;
#X connect 4 0 13 0;
#X connect 5 0 6 0;
#X connect 6 0 4 0;
#X connect 6 1 28 0;
#X connect 6 2 0 0;
#X connect 7 0 21 1;
#X connect 7 0 22 0;
#X connect 8 0 21 2;
#X connect 8 0 23 0;
#X connect 9 0 21 3;
#X connect 9 0 24 0;
#X connect 10 0 5 1;
#X connect 10 0 27 0;
#X connect 11 0 16 0;
#X connect 12 0 6 0;
#X connect 16 0 21 0;
#X connect 17 0 6 0;
#X connect 18 0 6 1;
#X connect 21 0 5 0;
#X connect 25 0 26 0;
#X connect 26 0 2 0;
#X connect 26 1 1 0;
#X connect 26 2 3 0;
#X connect 26 3 7 0;
#X connect 26 4 8 0;
#X connect 26 5 9 0;
#X connect 26 6 10 0;
