#N canvas 676 80 817 694 10;
#X obj 23 151 gemwin;
#X msg 20 89 create;
#X msg 27 114 destroy;
#X obj 88 105 tgl 30 0 empty empty empty 20 8 0 8 -262144 -1 -1 0 1
;
#X msg 12 36 profile 0;
#X msg 22 60 profile 1;
#X obj 207 32 openpanel;
#X obj 207 13 bng 15 250 50 0 empty empty empty 0 -6 0 8 -262144 -1
-1;
#X msg 207 52 open \$1;
#X obj 317 397 hsl 100 15 0 600 0 0 empty empty empty -2 -6 0 8 -262144
-1 -1 0 1;
#X obj 92 614 rectangle;
#X obj 331 447 bng 15 250 50 0 empty empty empty 0 -6 0 8 -262144 -1
-1;
#X msg 304 467 4;
#X msg 346 466 3;
#X obj 303 496 * 1;
#X obj 348 496 * 1;
#X obj 333 380 hsl 128 15 0 10 0 0 empty empty empty -2 -6 0 8 -262144
-1 -1 399 1;
#X obj 333 422 t b f;
#X obj 158 614 rectangle;
#X obj 31 615 rectangle;
#X obj 246 611 rectangle;
#X obj 45 205 gemhead;
#X msg 300 29 0;
#X obj 161 107 bng 15 250 50 0 empty empty empty 0 -6 0 8 -262144 -1
-1;
#X obj 326 335 loadbang;
#X floatatom 430 382 5 0 0 0 - - -;
#X msg 326 357 0.314;
#X msg 111 62 offset 1440 -1;
#X msg 107 34 dimen 800 603;
#X obj 303 73 hsl 128 15 0 1000 0 0 empty empty empty -2 -6 0 8 -262144
-1 -1 0 1;
#X text 313 72 frame number;
#X floatatom 301 144 5 0 0 0 - - -;
#X obj 299 94 / 1000;
#X floatatom 313 50 5 0 0 0 - - -;
#X floatatom 342 120 5 0 0 0 - - -;
#X obj 300 118 * 1;
#X obj 152 232 t f b;
#X obj 92 250 pix_film;
#X msg 213 103 auto \$1;
#X obj 213 84 tgl 15 0 empty empty empty 0 -6 0 8 -262144 -1 -1 0 1
;
#X obj 31 388 kal_gut2;
#X text 31 371 first one;
#X obj -14 195 openpanel;
#X obj -14 176 bng 15 250 50 0 empty empty empty 0 -6 0 8 -262144 -1
-1;
#X msg -14 215 open \$1;
#X obj 24 258 pix_image;
#X msg 136 170 0 180 0 -2.48 0 0 1;
#X msg 246 225 0 180 0 -2.48 0 0 1;
#X msg 84 148 0 0 0 -2.72 2.009 0 2.16;
#X msg 198 195 180 180 0 -2.48 1.879 0 1;
#X obj 94 388 kal_gut2;
#X obj 149 388 kal_gut2;
#X obj 211 390 kal_gut2;
#X obj 43 292 pix_texture;
#X obj 575 40 pix_convolve 3 3;
#X obj 698 8 r matrix;
#X obj 636 6 r scale;
#X obj 562 15 conv_matrix;
#X floatatom 486 298 5 0 0 0 - - -;
#X obj 473 348 pix_tIIR 2 2;
#X obj 486 318 * 0.01;
#X obj 486 253 unpack 30 60 10 50 50 -20;
#X floatatom 535 298 5 0 0 0 - - -;
#X obj 535 318 * 0.01;
#X floatatom 582 298 5 0 0 0 - - -;
#X obj 582 318 * 0.01;
#X floatatom 631 298 5 0 0 0 - - -;
#X obj 631 318 * 0.01;
#X floatatom 678 298 5 0 0 0 - - -;
#X obj 678 318 * 0.01;
#X floatatom 727 298 5 0 0 0 - - -;
#X obj 727 318 * 0.01;
#X msg 486 207 bang;
#X obj 486 229 pack 30 60 10 50 50 -20;
#X text 584 344 keep low;
#X obj 459 480 pix_coordinate;
#X floatatom 538 430 5 0 0 0 - - -;
#X msg 538 453 0 0 \$1 0 \$1 \$1 0 \$1;
#X text 436 500 quite cool makes multiple texture squares but fucks
up positioning off elements.;
#X text 420 587 see pix_crop to chop off edges of images;
#X obj 551 89 pix_delay;
#X obj 660 111 hsl 128 15 0 200 0 0 empty empty empty -2 -6 0 8 -262144
-1 -1 0 1;
#X obj 557 122 pix_texture;
#X text 578 58 convolving;
#X text 561 138 delaying;
#X text 527 375 time filtering;
#X connect 1 0 0 0;
#X connect 2 0 0 0;
#X connect 3 0 0 0;
#X connect 4 0 0 0;
#X connect 5 0 0 0;
#X connect 6 0 8 0;
#X connect 7 0 6 0;
#X connect 8 0 37 0;
#X connect 9 0 17 0;
#X connect 11 0 12 0;
#X connect 11 0 13 0;
#X connect 12 0 14 0;
#X connect 13 0 15 0;
#X connect 14 0 10 1;
#X connect 14 0 18 1;
#X connect 14 0 19 1;
#X connect 14 0 20 1;
#X connect 15 0 10 2;
#X connect 15 0 18 2;
#X connect 15 0 19 2;
#X connect 15 0 20 2;
#X connect 16 0 17 0;
#X connect 16 0 25 0;
#X connect 17 0 11 0;
#X connect 17 1 15 1;
#X connect 17 1 14 1;
#X connect 21 0 37 0;
#X connect 21 0 45 0;
#X connect 22 0 29 0;
#X connect 24 0 26 0;
#X connect 26 0 16 0;
#X connect 27 0 0 0;
#X connect 28 0 0 0;
#X connect 29 0 32 0;
#X connect 31 0 37 1;
#X connect 32 0 34 0;
#X connect 32 0 35 0;
#X connect 33 0 35 1;
#X connect 35 0 31 0;
#X connect 36 0 37 1;
#X connect 37 0 53 0;
#X connect 37 1 33 0;
#X connect 37 2 36 0;
#X connect 38 0 37 0;
#X connect 39 0 38 0;
#X connect 40 0 19 0;
#X connect 42 0 44 0;
#X connect 43 0 42 0;
#X connect 44 0 45 0;
#X connect 46 0 50 1;
#X connect 47 0 52 1;
#X connect 48 0 40 1;
#X connect 49 0 51 1;
#X connect 50 0 10 0;
#X connect 51 0 18 0;
#X connect 52 0 20 0;
#X connect 53 0 40 0;
#X connect 53 0 50 0;
#X connect 53 0 51 0;
#X connect 53 0 52 0;
#X connect 55 0 54 2;
#X connect 56 0 54 1;
#X connect 58 0 60 0;
#X connect 60 0 59 1;
#X connect 61 0 58 0;
#X connect 61 1 62 0;
#X connect 61 2 64 0;
#X connect 61 3 66 0;
#X connect 61 4 68 0;
#X connect 61 5 70 0;
#X connect 62 0 63 0;
#X connect 63 0 59 2;
#X connect 64 0 65 0;
#X connect 65 0 59 3;
#X connect 66 0 67 0;
#X connect 67 0 59 4;
#X connect 68 0 69 0;
#X connect 69 0 59 5;
#X connect 70 0 71 0;
#X connect 71 0 59 6;
#X connect 72 0 73 0;
#X connect 73 0 61 0;
#X connect 76 0 77 0;
#X connect 77 0 75 1;
#X connect 80 0 82 0;
#X connect 81 0 80 1;
