#N canvas 811 29 600 642 10;
#X obj 23 151 gemwin;
#X msg 20 89 create;
#X msg 27 114 destroy;
#X obj 88 105 tgl 30 0 empty empty empty 20 8 0 8 -262144 -1 -1 1 1
;
#X msg 12 36 profile 0;
#X msg 22 60 profile 1;
#X obj 126 214 gemhead;
#X obj 207 32 openpanel;
#X obj 207 13 bng 15 250 50 0 empty empty empty 0 -6 0 8 -262144 -1
-1;
#X msg 207 52 open \$1;
#X obj 211 372 hsl 400 15 0 600 0 0 empty empty empty -2 -6 0 8 -262144
-1 -1 0 1;
#X obj 52 541 rectangle;
#X obj 232 418 bng 15 250 50 0 empty empty empty 0 -6 0 8 -262144 -1
-1;
#X msg 205 438 4;
#X msg 247 437 3;
#X obj 204 467 * 1;
#X obj 249 467 * 1;
#X obj 230 351 hsl 128 15 0 10 0 0 empty empty empty -2 -6 0 8 -262144
-1 -1 399 1;
#X obj 234 393 t b f;
#X obj 118 541 rectangle;
#X obj 181 539 rectangle;
#X obj 255 536 rectangle;
#X obj 71 198 gemhead;
#X obj 185 218 gemhead;
#X obj 237 257 gemhead;
#X msg 39 235 auto \$1;
#X obj 39 216 tgl 15 0 empty empty empty 0 -6 0 8 -262144 -1 -1 1 1
;
#X msg 237 124 0;
#X obj 161 107 bng 15 250 50 0 empty empty empty 0 -6 0 8 -262144 -1
-1;
#X obj 415 77 loadbang;
#X floatatom 331 353 5 0 0 0 - - -;
#X msg 333 290 0.314;
#X obj 44 307 kal_gut;
#X msg 83 148 0 0 0 -2.68 2 0 2.15;
#X msg 198 195 180 0 0 -2.68 2 0 2.15;
#X msg 111 62 offset 1440 -1;
#X msg 107 34 dimen 800 603;
#X obj 273 109 hsl 128 15 0 1000 0 0 empty empty empty -2 -6 0 8 -262144
-1 -1 7000 1;
#X text 281 107 frame number;
#X floatatom 241 147 5 0 0 0 - - -;
#X msg 246 225 0 0 0 2.67 -2 0 -2.15;
#X msg 136 170 0 180 0 -2.67 2.03 0 2.15;
#X obj 99 307 kal_gut;
#X obj 210 307 kal_gut;
#X obj 159 307 kal_gut;
#X obj 304 133 / 1000;
#X floatatom 268 309 5 0 0 0 - - -;
#X floatatom 347 159 5 0 0 0 - - -;
#X obj 305 157 * 1;
#X connect 1 0 0 0;
#X connect 2 0 0 0;
#X connect 3 0 0 0;
#X connect 4 0 0 0;
#X connect 5 0 0 0;
#X connect 6 0 42 3;
#X connect 7 0 9 0;
#X connect 8 0 7 0;
#X connect 9 0 32 0;
#X connect 9 0 42 0;
#X connect 9 0 43 0;
#X connect 9 0 44 0;
#X connect 10 0 18 0;
#X connect 12 0 13 0;
#X connect 12 0 14 0;
#X connect 13 0 15 0;
#X connect 14 0 16 0;
#X connect 15 0 11 1;
#X connect 15 0 19 1;
#X connect 15 0 20 1;
#X connect 15 0 21 1;
#X connect 16 0 11 2;
#X connect 16 0 19 2;
#X connect 16 0 20 2;
#X connect 16 0 21 2;
#X connect 17 0 18 0;
#X connect 17 0 30 0;
#X connect 18 0 12 0;
#X connect 18 1 16 1;
#X connect 18 1 15 1;
#X connect 22 0 32 3;
#X connect 23 0 44 3;
#X connect 24 0 43 3;
#X connect 25 0 32 1;
#X connect 25 0 42 1;
#X connect 25 0 43 1;
#X connect 25 0 44 1;
#X connect 26 0 25 0;
#X connect 27 0 39 0;
#X connect 28 0 33 0;
#X connect 28 0 34 0;
#X connect 28 0 41 0;
#X connect 28 0 40 0;
#X connect 29 0 28 0;
#X connect 29 0 31 0;
#X connect 31 0 17 0;
#X connect 32 0 11 0;
#X connect 33 0 32 4;
#X connect 34 0 44 4;
#X connect 35 0 0 0;
#X connect 36 0 0 0;
#X connect 37 0 45 0;
#X connect 39 0 32 2;
#X connect 39 0 42 2;
#X connect 39 0 43 2;
#X connect 39 0 44 2;
#X connect 40 0 43 4;
#X connect 41 0 42 4;
#X connect 42 0 19 0;
#X connect 43 0 21 0;
#X connect 43 1 46 0;
#X connect 44 0 20 0;
#X connect 45 0 47 0;
#X connect 45 0 48 0;
#X connect 46 0 48 1;
#X connect 48 0 39 0;
