#N canvas 845 -2 556 702 10;
#X obj 23 151 gemwin;
#X msg 20 89 create;
#X msg 27 114 destroy;
#X obj 88 105 tgl 30 0 empty empty empty 20 8 0 8 -262144 -1 -1 1 1
;
#X msg 12 36 profile 0;
#X msg 22 60 profile 1;
#X obj 207 32 openpanel;
#X obj 207 13 bng 15 250 50 0 empty empty empty 0 -6 0 8 -262144 -1
-1;
#X msg 207 52 open \$1;
#X obj 317 397 hsl 100 15 0 600 0 0 empty empty empty -2 -6 0 8 -262144
-1 -1 0 1;
#X obj 92 614 rectangle;
#X obj 331 447 bng 15 250 50 0 empty empty empty 0 -6 0 8 -262144 -1
-1;
#X msg 304 467 4;
#X msg 346 466 3;
#X obj 303 496 * 1;
#X obj 348 496 * 1;
#X obj 333 380 hsl 128 15 0 1 0 0 empty empty empty -2 -6 0 8 -262144
-1 -1 3988 1;
#X obj 333 422 t b f;
#X obj 158 614 rectangle;
#X obj 31 615 rectangle;
#X obj 246 611 rectangle;
#X obj 45 205 gemhead;
#X msg 300 29 0;
#X obj 161 107 bng 15 250 50 0 empty empty empty 0 -6 0 8 -262144 -1
-1;
#X obj 326 335 loadbang;
#X floatatom 430 382 5 0 0 0 - - -;
#X msg 326 357 0.314;
#X msg 111 62 offset 1440 -1;
#X msg 107 34 dimen 800 603;
#X obj 303 73 hsl 128 15 0 1000 0 0 empty empty empty -2 -6 0 8 -262144
-1 -1 0 1;
#X text 309 70 frame number;
#X floatatom 301 144 8 0 0 0 - - -;
#X obj 299 94 / 1000;
#X floatatom 313 50 5 0 0 0 - - -;
#X floatatom 342 120 5 0 0 0 - - -;
#X obj 300 118 * 1;
#X obj 151 233 t f b;
#X msg 213 103 auto \$1;
#X obj 213 84 tgl 15 0 empty empty empty 0 -6 0 8 -262144 -1 -1 1 1
;
#X obj 31 388 kal_gut2;
#X text 31 371 first one;
#X msg 246 225 0 180 0 -2.48 0 0 1;
#X msg 84 148 0 0 0 -2.72 2.009 0 2.16;
#X msg 198 195 180 180 0 -2.48 1.879 0 1;
#X obj 94 388 kal_gut2;
#X obj 149 388 kal_gut2;
#X obj 211 390 kal_gut2;
#X obj 363 152 loadbang;
#X floatatom 246 453 5 0 0 0 - - -;
#X obj 420 263 + 1;
#X obj 385 262 f;
#X obj 422 283 mod 32;
#X obj 423 314 + 1;
#X floatatom 423 337 5 0 0 0 - - -;
#X obj 384 209 r beat;
#X obj 442 210 bng 15 250 50 0 empty empty empty 0 -6 0 8 -262144 -1
-1;
#X obj 459 166 hsl 128 15 0 200 0 0 empty empty empty -2 -6 0 8 -262144
-1 -1 0 1;
#X obj 457 302 hsl 128 15 0 200 0 0 empty empty empty -2 -6 0 8 -262144
-1 -1 0 1;
#X obj 436 238 hsl 128 15 0 200 0 0 empty empty empty -2 -6 0 8 -262144
-1 -1 0 1;
#X floatatom 533 237 5 0 0 0 - - -;
#X floatatom 553 168 5 0 0 0 - - -;
#X floatatom 554 305 5 0 0 0 - - -;
#X obj 471 264 * 8;
#X floatatom 392 462 5 0 0 0 - - -;
#X obj 481 353 int;
#X obj 480 79 dumpOSC 10002;
#X obj 482 113 OSCroute /beat;
#X obj 482 374 div 25;
#X obj 482 396 * 25;
#X floatatom 532 351 5 0 0 0 - - -;
#X text 523 369 keyframe index;
#X msg 136 170 0 180 0 -2.49 0 0 1;
#X obj 81 232 pix_film;
#X msg 13 237 quality 0;
#X msg 15 265 quality 1;
#X obj 43 292 pix_texture;
#X connect 1 0 0 0;
#X connect 2 0 0 0;
#X connect 3 0 0 0;
#X connect 4 0 0 0;
#X connect 5 0 0 0;
#X connect 6 0 8 0;
#X connect 7 0 6 0;
#X connect 8 0 72 0;
#X connect 9 0 17 0;
#X connect 11 0 12 0;
#X connect 11 0 13 0;
#X connect 12 0 14 0;
#X connect 13 0 15 0;
#X connect 14 0 10 1;
#X connect 14 0 18 1;
#X connect 14 0 19 1;
#X connect 14 0 20 1;
#X connect 15 0 10 2;
#X connect 15 0 18 2;
#X connect 15 0 19 2;
#X connect 15 0 20 2;
#X connect 16 0 17 0;
#X connect 16 0 25 0;
#X connect 17 0 11 0;
#X connect 17 1 15 1;
#X connect 17 1 14 1;
#X connect 21 0 72 0;
#X connect 22 0 29 0;
#X connect 23 0 42 0;
#X connect 23 0 71 0;
#X connect 23 0 43 0;
#X connect 23 0 41 0;
#X connect 24 0 26 0;
#X connect 26 0 16 0;
#X connect 27 0 0 0;
#X connect 28 0 0 0;
#X connect 29 0 32 0;
#X connect 31 0 72 1;
#X connect 32 0 34 0;
#X connect 32 0 35 0;
#X connect 33 0 35 1;
#X connect 35 0 31 0;
#X connect 36 0 72 1;
#X connect 37 0 72 0;
#X connect 38 0 37 0;
#X connect 39 0 19 0;
#X connect 41 0 46 1;
#X connect 42 0 39 1;
#X connect 43 0 45 1;
#X connect 44 0 10 0;
#X connect 45 0 18 0;
#X connect 46 0 20 0;
#X connect 47 0 23 0;
#X connect 47 0 28 0;
#X connect 48 0 14 0;
#X connect 49 0 51 0;
#X connect 50 0 49 0;
#X connect 50 0 52 0;
#X connect 51 0 50 1;
#X connect 52 0 53 0;
#X connect 53 0 64 0;
#X connect 54 0 50 0;
#X connect 55 0 50 0;
#X connect 56 0 60 0;
#X connect 57 0 52 1;
#X connect 57 0 61 0;
#X connect 58 0 49 1;
#X connect 58 0 59 0;
#X connect 58 0 62 0;
#X connect 62 0 51 1;
#X connect 63 0 15 0;
#X connect 64 0 67 0;
#X connect 65 0 66 0;
#X connect 66 0 55 0;
#X connect 67 0 68 0;
#X connect 68 0 31 0;
#X connect 69 0 67 1;
#X connect 69 0 68 1;
#X connect 71 0 44 1;
#X connect 72 0 75 0;
#X connect 72 1 33 0;
#X connect 72 2 36 0;
#X connect 73 0 75 0;
#X connect 74 0 75 0;
#X connect 75 0 39 0;
#X connect 75 0 44 0;
#X connect 75 0 45 0;
#X connect 75 0 46 0;
