#N canvas 784 175 637 623 10;
#X obj 23 151 gemwin;
#X msg 20 89 create;
#X msg 27 114 destroy;
#X obj 88 105 tgl 30 0 empty empty empty 20 8 0 8 -262144 -1 -1 1 1
;
#X msg 12 36 profile 0;
#X msg 22 60 profile 1;
#X msg 111 62 offset 0 0;
#X obj 251 145 gemhead;
#X obj 15 185 metro 33;
#X obj 16 211 counter;
#X obj 86 162 tgl 15 0 empty empty empty 0 -6 0 8 -262144 -1 -1 0 1
;
#X floatatom 403 292 5 0 0 0 - - -;
#X floatatom 412 308 5 0 0 0 - - -;
#X obj 395 360 newWave;
#X msg 211 115 open ../data/anim-1.mov;
#X obj 187 233 t f b;
#X msg 190 179 auto \$1;
#X obj 195 150 tgl 15 0 empty empty empty 0 -6 0 8 -262144 -1 -1 1
1;
#X floatatom 362 162 0 0 0 0 - - -;
#X floatatom 326 162 0 0 0 0 - - -;
#X floatatom 397 162 0 0 0 0 - - -;
#X obj 210 57 openpanel;
#X obj 213 29 bng 15 250 50 0 empty empty empty 0 -6 0 8 -262144 -1
-1;
#X msg 210 84 open \$1;
#X floatatom 423 326 5 0 0 0 - - -;
#X floatatom 466 325 5 0 0 0 - - -;
#X obj 90 260 pix_texture;
#X obj 251 200 rotateXYZ 0 0 -90;
#X obj 380 239 translateXYZ -7 -7 -5;
#X obj 309 277 scale 1;
#X obj 90 233 pix_film;
#X obj 74 347 rectangle;
#X obj 69 435 hsl 400 15 0 600 0 0 empty empty empty -2 -6 0 8 -262144
-1 -1 200 1;
#X obj 45 480 rectangle;
#X obj 165 455 bng 15 250 50 0 empty empty empty 0 -6 0 8 -262144 -1
-1;
#X msg 138 475 4;
#X msg 180 474 3;
#X obj 135 514 * 1;
#X obj 182 504 * 1;
#X obj 88 392 hsl 128 15 0 6 0 0 empty empty empty -2 -6 0 8 -262144
-1 -1 8500 1;
#X msg 107 34 dimen 800 600;
#X obj 419 186 hsl 128 15 -10 10 0 0 empty empty empty -2 -6 0 8 -262144
-1 -1 6500 1;
#X obj 419 204 hsl 128 15 -10 10 0 0 empty empty empty -2 -6 0 8 -262144
-1 -1 6400 1;
#X obj 419 221 hsl 128 15 -10 10 0 0 empty empty empty -2 -6 0 8 -262144
-1 -1 0 1;
#X obj 244 307 hsl 128 15 3 -3 0 0 empty empty empty -2 -6 0 8 -262144
-1 -1 3900 1;
#X connect 1 0 0 0;
#X connect 2 0 0 0;
#X connect 3 0 0 0;
#X connect 4 0 0 0;
#X connect 5 0 0 0;
#X connect 6 0 0 0;
#X connect 7 0 27 0;
#X connect 8 0 9 0;
#X connect 9 0 30 1;
#X connect 10 0 8 0;
#X connect 11 0 13 1;
#X connect 12 0 13 2;
#X connect 14 0 30 0;
#X connect 15 0 30 1;
#X connect 16 0 30 0;
#X connect 17 0 16 0;
#X connect 18 0 27 2;
#X connect 19 0 27 1;
#X connect 20 0 27 3;
#X connect 21 0 23 0;
#X connect 22 0 21 0;
#X connect 23 0 30 0;
#X connect 24 0 13 3;
#X connect 25 0 13 4;
#X connect 26 0 33 0;
#X connect 27 0 28 0;
#X connect 28 0 29 0;
#X connect 29 0 30 0;
#X connect 30 0 26 0;
#X connect 30 2 15 0;
#X connect 32 0 38 1;
#X connect 32 0 34 0;
#X connect 32 0 37 1;
#X connect 34 0 35 0;
#X connect 34 0 36 0;
#X connect 35 0 37 0;
#X connect 36 0 38 0;
#X connect 37 0 33 1;
#X connect 38 0 33 2;
#X connect 39 0 34 0;
#X connect 39 0 37 1;
#X connect 39 0 38 1;
#X connect 40 0 0 0;
#X connect 41 0 28 1;
#X connect 42 0 28 2;
#X connect 43 0 28 3;
#X connect 44 0 29 1;
