#N canvas 50 57 285 577 10;
#X msg 6 407 F:/pd/pd_pix/squares/fountain512.jpg;
#X msg 7 384 F:/pd/pd_pix/squares/tree_512.jpg;
#X msg 6 362 F:/pd/pd_pix/squares/forest_512.jpg;
#X msg 4 342 F:/pd/pd_pix/squares/grass_1024.jpg;
#X msg 5 321 F:/pd/pd_pix/squares/grass_2_1024.jpg;
#X msg 4 301 F:/pd/pd_pix/squares/check_1_512.jpg;
#X msg 7 281 F:/pd/pd_pix/squares/check_2_512.jpg;
#X msg 7 259 F:/pd/pd_pix/squares/wheat_1_256.jpg;
#X msg 7 238 F:/pd/pd_pix/squares/copper_128.jpg;
#X msg 6 217 F:/pd/pd_pix/squares/flowers_1_256.jpg;
#X msg 7 195 F:/pd/pd_pix/squares/pics_1_512.jpg;
#X msg 6 174 F:/pd/pd_pix/squares/roof_1_512.jpg;
#X msg 7 155 F:/pd/pd_pix/squares/flowers_2_256.jpg;
#X msg 9 134 F:/pd/pd_pix/squares/roof_2_1024.jpg;
#X msg 6 114 F:/pd/pd_pix/squares/wood_1_512.jpg;
#X msg 8 93 F:/pd/pd_pix/squares/wood_2_1024.jpg;
#X msg 8 72 F:/pd/pd_pix/squares/checker.TIF;
#X msg 8 51 F:/pd/pd_pix/squares/clouds.TIF;
#X msg 9 30 F:/pd/pd_pix/squares/sunset.JPG;
#X msg 9 8 F:/pd/pd_pix/squares/twinkle.jpg;
#X obj 219 30 outlet;
#X msg 5 430 F:/pd/pd_pix/squares/mountain_1_512.jpg;
#X msg 5 450 F:/pd/pd_pix/squares/mountain_2_512.jpg;
#X msg 6 470 F:/pd/pd_pix/squares/fireworks_1_256.jpg;
#X msg 5 492 F:/pd/pd_pix/squares/weed_1.jpg;
#X msg 5 513 F:/pd/pd_pix/squares/weed_2.jpg;
#X msg 4 532 F:/pd/pd_pix/squares/fone_keys.jpg;
#X connect 0 0 20 0;
#X connect 1 0 20 0;
#X connect 2 0 20 0;
#X connect 3 0 20 0;
#X connect 4 0 20 0;
#X connect 5 0 20 0;
#X connect 6 0 20 0;
#X connect 7 0 20 0;
#X connect 8 0 20 0;
#X connect 9 0 20 0;
#X connect 10 0 20 0;
#X connect 11 0 20 0;
#X connect 12 0 20 0;
#X connect 13 0 20 0;
#X connect 14 0 20 0;
#X connect 15 0 20 0;
#X connect 16 0 20 0;
#X connect 17 0 20 0;
#X connect 18 0 20 0;
#X connect 19 0 20 0;
#X connect 21 0 20 0;
#X connect 22 0 20 0;
#X connect 23 0 20 0;
#X connect 24 0 20 0;
#X connect 25 0 20 0;
#X connect 26 0 20 0;
