#N canvas 416 5 993 807 8;
#X msg 508 40 create;
#X msg 500 59 destroy;
#X obj 494 79 gemwin;
#X msg 459 20 offset 1440 -1;
#X obj 452 41 tgl 15 0 empty empty empty 0 -6 0 8 -262144 -1 -1 0 1
;
#X text 472 40 render;
#X obj 454 -19 loadbang;
#X obj 70 -5 bng 15 250 50 0 empty empty empty 0 -6 0 8 -262144 -1
-1;
#X obj 86 16 openpanel;
#X msg 70 37 open \$1;
#X obj 45 442 rectangle;
#X obj 45 394 pix_texture;
#X obj 239 113 hsl 128 15 -3 3 0 0 empty mov_kgrep_x empty -2 -6 0
8 -262144 -1 -1 9737 1;
#X obj 205 141 bng 15 250 50 0 empty empty empty 0 -6 0 8 -262144 -1
-1;
#X obj 245 89 hsl 128 15 -3 3 0 0 empty empty empty -2 -6 0 8 -262144
-1 -1 0 1;
#X obj 250 65 hsl 128 15 -3 3 0 0 empty empty empty -2 -6 0 8 -262144
-1 -1 0 1;
#X obj 211 8 hsl 128 15 -180 180 0 0 empty empty empty -2 -6 0 8 -262144
-1 -1 0 1;
#X obj 289 135 bng 15 250 50 0 empty empty empty 0 -6 0 8 -262144 -1
-1;
#X obj 318 139 hsl 128 15 0 3 0 0 empty empty empty -2 -6 0 8 -262144
-1 -1 4233 1;
#X msg 345 6 0;
#X msg 389 65 0;
#X msg 379 87 0;
#X msg 375 113 0;
#X floatatom 344 114 5 0 0 0 - - -;
#X floatatom 341 88 5 0 0 0 - - -;
#X floatatom 344 65 5 0 0 0 - - -;
#X msg 452 139 1;
#X floatatom 415 140 5 0 0 0 - - -;
#X floatatom 308 6 5 0 0 0 - - -;
#X obj 229 28 hsl 128 15 -180 180 0 0 empty empty empty -2 -6 0 8 -262144
-1 -1 0 1;
#X msg 363 26 0;
#X floatatom 326 26 5 0 0 0 - - -;
#X obj 263 46 hsl 128 15 -180 180 0 0 empty empty empty -2 -6 0 8 -262144
-1 -1 0 1;
#X msg 397 44 0;
#X floatatom 360 44 5 0 0 0 - - -;
#X obj 3 67 gemhead;
#X obj 130 370 pix_delay;
#X obj 125 442 rectangle;
#X obj 125 394 pix_texture;
#X obj 151 -9 hsl 128 15 0 127 0 0 empty empty empty -2 -6 0 8 -262144
-1 -1 0 1;
#X floatatom 227 -10 5 0 0 0 - - -;
#X text 159 -9 delay;
#X obj 206 367 pix_delay;
#X obj 203 441 rectangle;
#X obj 203 393 pix_texture;
#X obj 609 125 loadbang;
#X obj 282 368 pix_delay;
#X obj 277 439 rectangle;
#X obj 277 395 pix_texture;
#X obj 353 375 pix_delay;
#X obj 353 440 rectangle;
#X obj 353 396 pix_texture;
#X obj 428 373 pix_delay;
#X obj 428 438 rectangle;
#X obj 428 394 pix_texture;
#X floatatom 47 343 5 0 0 0 - - -;
#X floatatom 83 343 5 0 0 0 - - -;
#X obj 50 258 hsl 128 15 0.1 10000 1 0 empty empty empty -2 -6 0 8
-262144 -1 -1 3752 1;
#X obj 50 278 hsl 128 15 0 15 0 0 empty empty empty -2 -6 0 8 -262144
-1 -1 1905 1;
#X obj 53 238 hsl 128 15 0 15 0 0 empty empty empty -2 -6 0 8 -262144
-1 -1 2540 1;
#X msg 49 215 3;
#X obj 81 214 loadbang;
#X text 111 276 hegiht;
#X text 122 237 size;
#X floatatom 152 239 5 0 0 0 - - -;
#X floatatom 141 259 5 0 0 0 - - -;
#X floatatom 146 278 5 0 0 0 - - -;
#X obj 479 194 bng 15 250 50 0 empty empty empty 0 -6 0 8 -262144 -1
-1;
#X obj 527 221 hsl 128 15 -30 30 0 0 empty empty empty -2 -6 0 8 -262144
-1 -1 0 1;
#X obj 277 416 kal_gut2;
#X text 321 138 scale;
#X text 240 112 x;
#X text 247 87 y;
#X text 255 64 z;
#X obj 335 158 hsl 128 15 10 2000 0 0 empty empty empty -2 -6 0 8 -262144
-1 -1 0 1;
#X obj 443 245 pack 0 0 0 -4 0 0 1 0;
#X text 346 160 time;
#X obj 58 277 * 0.75;
#X msg 119 562 1.256;
#X obj 94 502 bng 15 250 50 0 empty empty empty 0 -6 0 8 -262144 -1
-1;
#X msg 117 471 0 0 0 -2.72 2.009 0 2.16 1000;
#X msg 117 492 0 180 0 -2.49 0 0 1 1000;
#X msg 118 514 180 180 0 -2.48 1.879 0 1 1000;
#X msg 118 537 0 180 0 -2.48 0 0 1 1000;
#X obj 377 6 bng 15 250 50 0 empty empty empty 0 -6 0 8 -262144 -1
-1;
#X msg 410 112 1.6;
#X msg 363 182 -4;
#X msg 397 10 0;
#X obj 167 325 tgl 15 0 empty empty empty 0 -6 0 8 -262144 -1 -1 0
1;
#X obj 171 348 == 0;
#X obj 125 323 spigot;
#X obj 130 348 spigot;
#X obj 247 321 tgl 15 0 empty empty empty 0 -6 0 8 -262144 -1 -1 0
1;
#X obj 247 343 == 0;
#X obj 202 319 spigot;
#X obj 206 343 spigot;
#X obj 323 321 tgl 15 0 empty empty empty 0 -6 0 8 -262144 -1 -1 0
1;
#X obj 325 343 == 0;
#X obj 278 320 spigot;
#X obj 281 345 spigot;
#X obj 396 319 tgl 15 0 empty empty empty 0 -6 0 8 -262144 -1 -1 0
1;
#X obj 398 343 == 0;
#X obj 354 319 spigot;
#X obj 354 343 spigot;
#X obj 468 320 tgl 15 0 empty empty empty 0 -6 0 8 -262144 -1 -1 0
1;
#X obj 470 344 == 0;
#X obj 426 320 spigot;
#X obj 426 344 spigot;
#X obj 377 262 tgl 15 0 empty empty empty 0 -6 0 8 -262144 -1 -1 0
1;
#X msg 159 561 1;
#X msg 158 592 0;
#X symbolatom 60 -34 50 0 0 0 - - -;
#X msg 377 241 1;
#X obj 6 -32 r mov;
#X symbolatom 52 568 10 0 0 0 - - -;
#X obj 37 -11 bng 15 250 50 0 empty empty empty 0 -6 0 8 -262144 -1
-1;
#X floatatom 102 -8 5 0 0 0 - - -;
#X obj 149 672 bng 15 250 50 0 empty empty empty 0 -6 0 8 -262144 -1
-1;
#X obj 150 696 bng 15 250 50 0 empty empty empty 0 -6 0 8 -262144 -1
-1;
#X obj 169 669 OSCroute /mov;
#X obj 170 696 OSCroute /mov_pos;
#X obj 279 697 s mov_pos;
#X obj 326 667 s mov;
#X obj 179 645 bng 15 250 50 0 empty empty empty 0 -6 0 8 -262144 -1
-1;
#X obj 41 7 symbol;
#X obj 204 599 OSCroute /mov_kal;
#X obj 204 622 OSCroute /mov_del;
#X obj 259 654 t b f;
#X obj 527 202 hsl 128 15 -5 5 0 0 empty empty empty -2 -6 0 8 -262144
-1 -1 0 1;
#X obj 554 64 OSCroute /mov_kg1;
#X obj 431 498 OSCroute /mov_kg2;
#X obj 433 519 OSCroute /mov_kg3;
#X obj 433 540 OSCroute /mov_kg4;
#X obj 434 606 OSCroute /mov_size;
#X obj 662 65 bng 15 250 50 0 empty empty empty 0 -6 0 8 -262144 -1
-1;
#X obj 540 497 bng 15 250 50 0 empty empty empty 0 -6 0 8 -262144 -1
-1;
#X obj 540 519 bng 15 250 50 0 empty empty empty 0 -6 0 8 -262144 -1
-1;
#X obj 542 541 bng 15 250 50 0 empty empty empty 0 -6 0 8 -262144 -1
-1;
#X obj 541 561 bng 15 250 50 0 empty empty empty 0 -6 0 8 -262144 -1
-1;
#X obj 541 584 bng 15 250 50 0 empty empty empty 0 -6 0 8 -262144 -1
-1;
#X obj 432 562 OSCroute /mov_kg5;
#X obj 432 583 OSCroute /mov_kg6;
#X obj 546 607 bng 15 250 50 0 empty empty empty 0 -6 0 8 -262144 -1
-1;
#X obj 27 655 print;
#X obj 546 628 bng 15 250 50 0 empty empty empty 0 -6 0 8 -262144 -1
-1;
#X obj 434 627 OSCroute /mov_wh;
#X floatatom 622 202 5 0 0 0 - - -;
#X floatatom 622 222 5 0 0 0 - - -;
#X obj 556 671 bng 15 250 50 0 empty empty empty 0 -6 0 8 -262144 -1
-1;
#X obj 436 671 OSCroute /mov_delay;
#X obj 562 693 bng 15 250 50 0 empty empty empty 0 -6 0 8 -262144 -1
-1;
#X obj 271 262 unpack f f f f f;
#X obj 437 693 OSCroute /mov_screen;
#X obj 548 -4 bng 15 250 50 0 empty empty empty 0 -6 0 8 -262144 -1
-1;
#X obj 553 19 del 1;
#X text 543 -20 setup;
#X msg 557 43 1;
#X obj 640 275 bng 15 250 50 0 empty empty empty 0 -6 0 8 -262144 -1
-1;
#X obj 217 184 pack f f f f f f f f;
#X obj 597 276 tgl 15 0 empty empty empty 0 -6 0 8 -262144 -1 -1 0
1;
#X obj 526 183 hsl 128 15 -20 20 0 0 empty empty empty -2 -6 0 8 -262144
-1 -1 0 1;
#X obj 526 164 hsl 128 15 0 6 0 0 empty empty empty -2 -6 0 8 -262144
-1 -1 0 1;
#X floatatom 622 183 5 0 0 0 - - -;
#X floatatom 430 159 5 0 0 0 - - -;
#X obj 502 305 ../processing_osc/genin1;
#X obj 284 -15 ../processing_osc/del_msg_in;
#X floatatom 553 345 5 0 0 0 - - -;
#X floatatom 514 342 5 0 0 0 - - -;
#X obj 538 85 unpack f f f f f f f f;
#X msg 515 -33 offset 0 300;
#X obj 452 273 r;
#X floatatom 622 164 5 0 0 0 - - -;
#X text 605 220 x;
#X text 604 200 y;
#X text 605 182 z;
#X text 584 165 scale;
#X msg 502 201 0;
#X msg 453 0 dimen 800 601;
#X msg 569 -7 dimen 1024 768;
#X obj 184 260 hsl 56 15 -100 100 0 0 empty empty empty -2 -6 0 8 -262144
-1 -1 0 1;
#X text 213 258 -ve;
#X text 63 256 +ve;
#X obj 45 368 pack f f;
#X obj 97 367 bng 15 250 50 0 empty empty empty 0 -6 0 8 -262144 -1
-1;
#X text 104 257 width;
#X obj 45 415 kal_gut2;
#X obj 125 415 kal_gut2;
#X obj 203 414 kal_gut2;
#X obj 353 417 kal_gut2;
#X obj 428 415 kal_gut2;
#X obj 581 547 print;
#X obj 52 699 OSCroute /rec;
#X obj 44 738 s rec;
#X obj 13 194 pix_film;
#X obj 75 194 t f b;
#X obj 0 105 tgl 15 0 empty empty empty 0 -6 0 8 -262144 -1 -1 0 1
;
#X obj 103 72 r mov_pos;
#X obj 110 90 bng 15 250 50 0 empty empty empty 0 -6 0 8 -262144 -1
-1;
#X floatatom 105 112 5 0 0 0 - - -;
#X obj 16 126 metro;
#X obj 48 153 + 1;
#X obj 20 160 f;
#X floatatom 54 71 5 0 0 0 - - -;
#X msg 55 86 1000;
#X obj 55 105 / 29;
#X floatatom 101 128 5 0 0 0 - - -;
#X text 65 115 pos;
#X text 77 88 frm_rt;
#X obj 47 174 mod 1000;
#X obj 54 55 r mov_fr;
#X floatatom 75 157 5 0 0 0 - - -;
#X floatatom 100 175 5 0 0 0 - - -;
#X obj 84 68 bng 15 250 50 0 empty empty empty 0 -6 0 8 -262144 -1
-1;
#X obj 0 87 r mov_auto;
#X obj 436 649 unpack f f f;
#X obj 156 719 bng 15 250 50 0 empty empty empty 0 -6 0 8 -262144 -1
-1;
#X obj 176 719 OSCroute /mov_fr;
#X obj 282 718 s mov_fr;
#X obj 155 741 bng 15 250 50 0 empty empty empty 0 -6 0 8 -262144 -1
-1;
#X obj 177 741 OSCroute /mov_auto;
#X obj 293 741 s mov_auto;
#X obj 179 764 bng 15 250 50 0 empty empty empty 0 -6 0 8 -262144 -1
-1;
#X obj 199 763 OSCroute /mov_setup;
#X obj 46 298 pack f f;
#X obj 47 317 line;
#X obj 103 298 pack f f;
#X obj 104 317 line;
#X obj 42 615 dumpOSC 10002;
#X obj 321 761 OSCroute /mov_trig;
#X obj 441 759 bng 15 250 50 0 empty empty empty 0 -6 0 8 -262144 -1
-1;
#X obj 528 145 hsl 128 15 -180 180 0 0 empty empty empty -2 -6 0 8
-262144 -1 -1 0 1;
#X msg 662 143 0;
#X floatatom 624 148 5 0 0 0 - - -;
#X msg 600 144 90;
#X obj 528 125 hsl 128 15 -180 180 0 0 empty empty empty -2 -6 0 8
-262144 -1 -1 0 1;
#X msg 662 126 0;
#X floatatom 622 127 5 0 0 0 - - -;
#X msg 597 126 90;
#X obj 527 107 hsl 128 15 -180 180 0 0 empty empty empty -2 -6 0 8
-262144 -1 -1 0 1;
#X msg 663 107 0;
#X floatatom 622 110 5 0 0 0 - - -;
#X msg 598 107 90;
#X text 215 8 xr;
#X text 232 30 yr;
#X text 268 47 zr;
#X text 530 110 xr;
#X text 530 129 yr;
#X text 531 146 zr;
#X connect 0 0 2 0;
#X connect 1 0 2 0;
#X connect 3 0 2 0;
#X connect 4 0 2 0;
#X connect 6 0 177 0;
#X connect 7 0 8 0;
#X connect 8 0 9 0;
#X connect 8 0 111 0;
#X connect 9 0 193 0;
#X connect 11 0 185 0;
#X connect 12 0 13 0;
#X connect 12 0 17 0;
#X connect 12 0 23 0;
#X connect 12 0 158 3;
#X connect 13 0 158 0;
#X connect 14 0 13 0;
#X connect 14 0 17 0;
#X connect 14 0 24 0;
#X connect 14 0 158 4;
#X connect 15 0 13 0;
#X connect 15 0 17 0;
#X connect 15 0 25 0;
#X connect 15 0 158 5;
#X connect 16 0 13 0;
#X connect 16 0 17 0;
#X connect 16 0 28 0;
#X connect 16 0 158 0;
#X connect 17 0 18 0;
#X connect 18 0 13 0;
#X connect 18 0 27 0;
#X connect 18 0 158 6;
#X connect 19 0 16 0;
#X connect 20 0 15 0;
#X connect 21 0 14 0;
#X connect 22 0 12 0;
#X connect 26 0 18 0;
#X connect 29 0 31 0;
#X connect 29 0 13 0;
#X connect 29 0 17 0;
#X connect 29 0 158 1;
#X connect 30 0 29 0;
#X connect 32 0 34 0;
#X connect 32 0 13 0;
#X connect 32 0 17 0;
#X connect 32 0 158 2;
#X connect 33 0 32 0;
#X connect 35 0 193 0;
#X connect 36 0 38 0;
#X connect 36 0 95 0;
#X connect 38 0 186 0;
#X connect 39 0 40 0;
#X connect 39 0 36 1;
#X connect 39 0 42 1;
#X connect 39 0 46 1;
#X connect 39 0 49 1;
#X connect 39 0 52 1;
#X connect 42 0 44 0;
#X connect 42 0 99 0;
#X connect 44 0 187 0;
#X connect 45 0 26 0;
#X connect 45 0 85 0;
#X connect 45 0 67 0;
#X connect 46 0 48 0;
#X connect 46 0 103 0;
#X connect 48 0 69 0;
#X connect 49 0 51 0;
#X connect 49 0 107 0;
#X connect 51 0 188 0;
#X connect 52 0 54 0;
#X connect 54 0 189 0;
#X connect 55 0 10 1;
#X connect 55 0 37 1;
#X connect 55 0 43 1;
#X connect 55 0 47 1;
#X connect 55 0 50 1;
#X connect 55 0 53 1;
#X connect 55 0 182 0;
#X connect 55 0 183 0;
#X connect 56 0 10 2;
#X connect 56 0 37 2;
#X connect 56 0 43 2;
#X connect 56 0 47 2;
#X connect 56 0 50 2;
#X connect 56 0 53 2;
#X connect 56 0 182 1;
#X connect 57 0 65 0;
#X connect 58 0 225 0;
#X connect 59 0 57 0;
#X connect 59 0 64 0;
#X connect 59 0 77 0;
#X connect 60 0 59 0;
#X connect 61 0 60 0;
#X connect 65 0 223 0;
#X connect 66 0 58 0;
#X connect 67 0 75 0;
#X connect 68 0 67 0;
#X connect 68 0 75 3;
#X connect 68 0 147 0;
#X connect 69 0 47 0;
#X connect 74 0 158 7;
#X connect 74 0 163 0;
#X connect 74 0 13 0;
#X connect 74 0 75 7;
#X connect 75 0 164 0;
#X connect 75 0 185 1;
#X connect 77 0 58 0;
#X connect 78 0 59 0;
#X connect 79 0 78 0;
#X connect 79 0 109 0;
#X connect 79 0 83 0;
#X connect 79 0 82 0;
#X connect 79 0 81 0;
#X connect 79 0 80 0;
#X connect 80 0 185 1;
#X connect 81 0 186 1;
#X connect 82 0 187 1;
#X connect 83 0 69 1;
#X connect 84 0 19 0;
#X connect 84 0 30 0;
#X connect 84 0 33 0;
#X connect 84 0 20 0;
#X connect 84 0 21 0;
#X connect 84 0 26 0;
#X connect 84 0 85 0;
#X connect 84 0 86 0;
#X connect 84 0 87 0;
#X connect 84 0 112 0;
#X connect 85 0 12 0;
#X connect 86 0 67 0;
#X connect 86 0 75 3;
#X connect 88 0 89 0;
#X connect 88 0 90 1;
#X connect 89 0 91 1;
#X connect 90 0 38 0;
#X connect 90 0 94 0;
#X connect 91 0 36 0;
#X connect 92 0 93 0;
#X connect 92 0 94 1;
#X connect 93 0 95 1;
#X connect 94 0 44 0;
#X connect 94 0 98 0;
#X connect 95 0 42 0;
#X connect 96 0 97 0;
#X connect 96 0 98 1;
#X connect 97 0 99 1;
#X connect 98 0 102 0;
#X connect 98 0 48 0;
#X connect 99 0 46 0;
#X connect 100 0 101 0;
#X connect 100 0 102 1;
#X connect 101 0 103 1;
#X connect 102 0 106 0;
#X connect 102 0 51 0;
#X connect 103 0 49 0;
#X connect 104 0 105 0;
#X connect 104 0 106 1;
#X connect 105 0 107 1;
#X connect 106 0 54 0;
#X connect 107 0 52 0;
#X connect 108 0 104 0;
#X connect 108 0 100 0;
#X connect 108 0 96 0;
#X connect 108 0 92 0;
#X connect 108 0 88 0;
#X connect 109 0 39 0;
#X connect 109 0 96 0;
#X connect 109 0 92 0;
#X connect 109 0 88 0;
#X connect 109 0 110 0;
#X connect 110 0 100 0;
#X connect 110 0 104 0;
#X connect 112 0 108 0;
#X connect 113 0 114 0;
#X connect 113 0 115 0;
#X connect 113 0 124 0;
#X connect 119 0 117 0;
#X connect 119 0 122 0;
#X connect 120 0 118 0;
#X connect 120 0 121 0;
#X connect 124 0 111 0;
#X connect 124 0 9 0;
#X connect 125 0 79 0;
#X connect 126 0 127 0;
#X connect 127 0 84 0;
#X connect 127 1 39 0;
#X connect 128 0 75 4;
#X connect 128 0 67 0;
#X connect 128 0 146 0;
#X connect 129 0 134 0;
#X connect 129 0 168 0;
#X connect 130 0 135 0;
#X connect 130 0 186 1;
#X connect 131 0 136 0;
#X connect 131 0 187 1;
#X connect 132 0 69 1;
#X connect 132 0 137 0;
#X connect 132 0 190 0;
#X connect 133 0 59 0;
#X connect 133 0 142 0;
#X connect 140 0 138 0;
#X connect 140 0 188 1;
#X connect 141 0 139 0;
#X connect 141 0 189 1;
#X connect 145 0 144 0;
#X connect 145 0 214 0;
#X connect 149 0 148 0;
#X connect 149 0 39 0;
#X connect 151 0 88 0;
#X connect 151 1 92 0;
#X connect 151 2 96 0;
#X connect 151 3 100 0;
#X connect 151 4 104 0;
#X connect 152 0 150 0;
#X connect 152 0 151 0;
#X connect 153 0 0 0;
#X connect 153 0 154 0;
#X connect 154 0 156 0;
#X connect 156 0 4 0;
#X connect 157 0 164 4;
#X connect 158 0 69 1;
#X connect 158 0 164 0;
#X connect 158 0 186 1;
#X connect 158 0 187 1;
#X connect 158 0 188 1;
#X connect 158 0 189 1;
#X connect 159 0 164 3;
#X connect 160 0 162 0;
#X connect 160 0 75 5;
#X connect 160 0 67 0;
#X connect 161 0 75 6;
#X connect 161 0 67 0;
#X connect 161 0 171 0;
#X connect 165 0 16 0;
#X connect 165 1 29 0;
#X connect 165 2 32 0;
#X connect 165 3 12 0;
#X connect 165 4 14 0;
#X connect 165 5 15 0;
#X connect 165 6 18 0;
#X connect 165 7 74 0;
#X connect 168 0 75 0;
#X connect 168 1 75 1;
#X connect 168 2 75 2;
#X connect 168 3 68 0;
#X connect 168 4 128 0;
#X connect 168 5 160 0;
#X connect 168 6 161 0;
#X connect 168 7 74 0;
#X connect 169 0 2 0;
#X connect 176 0 128 0;
#X connect 177 0 2 0;
#X connect 178 0 2 0;
#X connect 179 0 65 0;
#X connect 182 0 164 1;
#X connect 183 0 182 0;
#X connect 185 0 10 0;
#X connect 186 0 37 0;
#X connect 187 0 43 0;
#X connect 188 0 50 0;
#X connect 189 0 53 0;
#X connect 191 0 192 0;
#X connect 193 0 11 0;
#X connect 193 0 91 0;
#X connect 193 0 90 0;
#X connect 193 1 211 0;
#X connect 193 2 194 0;
#X connect 194 0 193 1;
#X connect 195 0 199 0;
#X connect 196 0 198 0;
#X connect 196 0 197 0;
#X connect 197 0 198 0;
#X connect 197 0 201 0;
#X connect 198 0 205 0;
#X connect 199 0 201 0;
#X connect 200 0 208 0;
#X connect 201 0 200 0;
#X connect 201 0 210 0;
#X connect 201 0 193 1;
#X connect 202 0 204 1;
#X connect 202 0 212 0;
#X connect 203 0 204 0;
#X connect 204 0 199 1;
#X connect 205 0 208 0;
#X connect 208 0 201 1;
#X connect 209 0 202 0;
#X connect 211 0 208 1;
#X connect 212 0 203 0;
#X connect 213 0 195 0;
#X connect 214 0 65 0;
#X connect 214 1 58 0;
#X connect 214 2 225 1;
#X connect 214 2 223 1;
#X connect 216 0 215 0;
#X connect 216 0 217 0;
#X connect 219 0 218 0;
#X connect 219 0 220 0;
#X connect 222 0 221 0;
#X connect 222 0 153 0;
#X connect 223 0 224 0;
#X connect 224 0 55 0;
#X connect 225 0 226 0;
#X connect 226 0 56 0;
#X connect 227 0 119 0;
#X connect 227 0 120 0;
#X connect 227 0 123 0;
#X connect 227 0 126 0;
#X connect 227 0 125 0;
#X connect 227 0 129 0;
#X connect 227 0 131 0;
#X connect 227 0 132 0;
#X connect 227 0 133 0;
#X connect 227 0 140 0;
#X connect 227 0 141 0;
#X connect 227 0 130 0;
#X connect 227 0 145 0;
#X connect 227 0 149 0;
#X connect 227 0 152 0;
#X connect 227 0 165 0;
#X connect 227 0 191 0;
#X connect 227 0 216 0;
#X connect 227 0 219 0;
#X connect 227 0 222 0;
#X connect 227 0 228 0;
#X connect 228 0 229 0;
#X connect 228 0 197 0;
#X connect 230 0 232 0;
#X connect 230 0 67 0;
#X connect 230 0 75 2;
#X connect 231 0 230 0;
#X connect 233 0 230 0;
#X connect 233 0 67 0;
#X connect 233 0 75 2;
#X connect 234 0 236 0;
#X connect 234 0 75 1;
#X connect 234 0 67 0;
#X connect 235 0 234 0;
#X connect 236 0 234 0;
#X connect 237 0 234 0;
#X connect 237 0 75 1;
#X connect 237 0 67 0;
#X connect 238 0 240 0;
#X connect 238 0 75 0;
#X connect 238 0 67 0;
#X connect 239 0 238 0;
#X connect 241 0 238 0;
#X connect 241 0 67 0;
#X connect 241 0 75 0;
