#N canvas 653 137 765 530 10;
#X obj 223 139 gemhead;
#X floatatom 458 133 0 0 0 0 - - -;
#X obj 223 167 pix_movie;
#X text 499 133 control which frame;
#X msg 462 101 auto \$1;
#X obj 462 82 tgl 15 0 empty empty empty 20 8 0 8 -262144 -1 -1 1 1
;
#X text 254 16 Win32;
#X text 363 69 linux;
#X msg 233 58 open ../data/anim-1.mov;
#X msg 243 84 open ../data/alea.mpg;
#X text 532 97 play the movie !;
#X obj 224 334 square;
#X msg 283 315 4;
#X obj 328 311 hsl 400 15 0 600 0 0 empty empty empty -2 -6 0 8 -262144
-1 -1 600 1;
#X msg 240 32 open f:/pd.38/gem.doc/data/homer.avi;
#X obj 330 174 print frames;
#X obj 484 219 print done;
#X msg 484 196 reached the end !!!;
#X obj 444 171 t f b;
#X obj 225 280 translateXYZ;
#X obj 368 267 hsl 128 15 -3 3 0 0 empty empty empty -2 -6 0 8 -262144
-1 -1 6100 1;
#X obj 25 462 gemwin;
#X msg 26 383 create;
#X msg 77 383 1;
#X msg 78 406 0;
#X msg 26 402 destroy;
#X text 106 380 start rendering;
#X text 109 403 stop render;
#X text 28 365 window;
#X msg 137 420 offset 1440 -1;
#X msg 28 428 dimen 800 601;
#X text 122 431 makes window on second screen with title bar hidden
;
#X msg 82 456 buffer 0;
#X msg 164 2 open f:/media/video/commercials1.avi;
#X msg 216 387 offset 0 0;
#X obj 360 241 hsl 128 15 -3 3 0 0 empty empty empty -2 -6 0 8 -262144
-1 -1 12000 1;
#X obj 304 356 rectangle;
#X obj 424 331 bng 15 250 50 0 empty empty empty 0 -6 0 8 -262144 -1
-1;
#X msg 397 351 4;
#X msg 439 350 3;
#X obj 394 390 * 1;
#X obj 441 380 * 1;
#X obj 213 226 pix_texture;
#X obj 330 289 hsl 128 15 0 6 0 0 empty empty empty -2 -6 0 8 -262144
-1 -1 12700 1;
#X connect 0 0 2 0;
#X connect 1 0 2 1;
#X connect 2 0 42 0;
#X connect 2 1 15 0;
#X connect 2 2 18 0;
#X connect 4 0 2 0;
#X connect 5 0 4 0;
#X connect 8 0 2 0;
#X connect 9 0 2 0;
#X connect 12 0 11 1;
#X connect 13 0 11 1;
#X connect 13 0 40 1;
#X connect 13 0 41 1;
#X connect 13 0 37 0;
#X connect 14 0 2 0;
#X connect 17 0 16 0;
#X connect 18 0 2 1;
#X connect 18 1 17 0;
#X connect 19 0 36 0;
#X connect 20 0 19 1;
#X connect 22 0 21 0;
#X connect 23 0 21 0;
#X connect 24 0 21 0;
#X connect 25 0 21 0;
#X connect 29 0 21 0;
#X connect 30 0 21 0;
#X connect 32 0 21 0;
#X connect 33 0 2 0;
#X connect 34 0 21 0;
#X connect 35 0 19 2;
#X connect 37 0 38 0;
#X connect 37 0 39 0;
#X connect 38 0 40 0;
#X connect 39 0 41 0;
#X connect 40 0 36 1;
#X connect 41 0 36 2;
#X connect 42 0 19 0;
#X connect 43 0 37 0;
#X connect 43 0 40 1;
#X connect 43 0 41 1;
