#N canvas 529 120 769 532 10;
#X obj 50 248 gemwin;
#X msg 50 76 create;
#X msg 96 118 1;
#X msg 96 148 0;
#X obj 186 89 gemhead;
#X obj 186 208 separator;
#X obj 186 401 translateXYZ 0 2 0;
#X obj 328 208 separator;
#X obj 328 401 translateXYZ 0 -2 0;
#X obj 328 380 pix_texture;
#X obj 186 380 pix_texture;
#X obj 328 298 pix_rtx;
#X msg 258 78 dimen 256 128;
#X obj 258 57 loadbang;
#X msg 50 195 destroy;
#X obj 328 422 rectangle 3 1.5;
#X obj 186 422 rectangle 3 1.5;
#X msg 471 170 clear;
#X msg 470 280 mode 1;
#X msg 470 257 mode 0;
#X text 523 169 clear the buffer;
#X text 60 14 pix_rtx;
#X text 261 14 transform the x-axis into the t-axis and vice-versa
on the fly;
#X text 382 29 let's assume \, that there is a capture-card installed
and working to gnerate lots of pictures to be tranformed;
#X text 185 447 upper-picture;
#X text 336 448 lower-picture;
#X text 181 465 NO transformation;
#X text 336 467 RTX-tranformed;
#X text 59 24 =======;
#X text 523 258 lock time on x-axis;
#X text 519 282 lock x on x-axis;
#X text 638 282 (default);
#X msg 472 211 set;
#X text 506 213 fill the buffer with current frame;
#X msg 261 137 dimen 64 64;
#X obj 186 115 pix_videoDS 64 64;
#X msg 395 109 open 0;
#X msg 395 84 enumerate;
#X msg 395 135 close;
#X obj 394 61 tgl 15 0 empty empty empty 0 -6 0 8 -262144 -1 -1 0 1
;
#X text 74 42 turn on/off rendering;
#X connect 1 0 0 0;
#X connect 2 0 0 0;
#X connect 3 0 0 0;
#X connect 4 0 35 0;
#X connect 5 0 10 0;
#X connect 6 0 16 0;
#X connect 7 0 11 0;
#X connect 8 0 15 0;
#X connect 9 0 8 0;
#X connect 10 0 6 0;
#X connect 11 0 9 0;
#X connect 13 0 12 0;
#X connect 14 0 0 0;
#X connect 17 0 11 0;
#X connect 18 0 11 0;
#X connect 19 0 11 0;
#X connect 32 0 11 0;
#X connect 34 0 35 0;
#X connect 35 0 5 0;
#X connect 35 0 7 0;
#X connect 36 0 35 0;
#X connect 37 0 35 0;
#X connect 39 0 35 0;
