#N canvas 89 81 1309 946 10;
#X obj 44 71 multi_osc1;
#X obj 190 -118 dumpOSC 10001;
#X obj 127 -96 OSCroute /osc1;
#X obj 334 798 dac~;
#X obj 132 44 OSCroute /osc;
#X obj 43 176 envelope;
#X obj 312 615 mixer;
#X obj 43 437 *~ 1;
#X obj 224 470 *~ 1;
#X obj 713 140 bng 15 250 50 0 empty empty empty 17 7 0 10 -262144
-1 -1;
#X obj 225 70 multi_osc1;
#X obj 224 175 envelope;
#X obj 224 436 *~ 1;
#X obj 395 69 multi_osc1;
#X obj 394 174 envelope;
#X obj 393 437 *~ 1;
#X obj 560 63 multi_osc1;
#X obj 559 168 envelope;
#X obj 559 433 *~ 1;
#X obj 256 -39 mtof;
#X obj 157 -68 OSCroute /note;
#X obj 179 -1 t b f;
#X obj 168 -46 unpack f f;
#X obj 161 -23 spigot;
#X obj 257 44 mtof;
#X obj 420 38 mtof;
#X obj 589 36 mtof;
#X obj 229 45 + 3;
#X obj 318 565 *~ 1;
#X obj 880 68 multi_osc1;
#X obj 859 -43 + 1;
#X obj 859 -19 mtof;
#X obj 884 -96 hsl 128 15 -60 60 0 0 empty empty empty -2 -8 0 10 -262144
-1 -1 2857 1;
#X floatatom 903 -64 5 0 0 0 - - -;
#X obj 874 -64 int;
#X obj 1029 -81 osc~;
#X obj 964 -64 tgl 15 0 empty empty empty 17 7 0 10 -262144 -1 -1 1
1;
#X obj 936 42 pack f f f f;
#X obj 1016 -9 snapshot~;
#X obj 963 -13 t b b;
#X obj 1032 -102 hsl 128 15 0.1 10 1 0 empty empty empty -2 -8 0 10
-262144 -1 -1 3093 1;
#X obj 964 -43 metro 10;
#X obj 940 16 hsl 128 15 0 127 0 0 empty empty empty -2 -8 0 10 -262144
-1 -1 5000 1;
#X obj 1029 -59 *~ 0.98;
#X obj 1028 -35 +~ 0.01;
#X obj 105 505 flanger_st;
#X obj 214 709 env~;
#X floatatom 214 730 5 0 0 0 - - -;
#X msg 733 295 53 0.8 3.4 0.9 24 0.7 6 1;
#X floatatom 1127 -105 5 0 0 0 - - -;
#X msg 813 -92 -33;
#X msg 263 503 0 67 251 80 70 77;
#X msg 846 -92 -19;
#X obj 1062 417 *~ 1;
#X obj 1019 362 instrument.7;
#X obj 983 335 OSCroute /drm;
#X msg 1085 338 1;
#X obj 1095 312 loadbang;
#X obj 1184 -110 loadbang;
#X msg 1186 -84 0.307;
#X obj 167 -58 OSCroute /note;
#X obj 738 321 unpack f f f f f f f f;
#X obj 566 365 echo;
#X obj 729 399 unpack f f f f f f f f;
#X obj 42 304 echo;
#X obj 51 370 echo;
#X obj 223 303 echo;
#X obj 231 370 echo;
#X obj 393 302 echo;
#X obj 400 368 echo;
#X obj 558 296 echo;
#X msg 726 372 115 0.8 62 0.77 91 0.9 217 1;
#X obj 264 476 loadbang;
#X obj 726 237 loadbang;
#X obj 870 227 vcf~;
#X obj 899 202 hsl 128 15 0.1 10 1 0 empty empty empty -2 -8 0 10 -262144
-1 -1 12700 1;
#X obj 895 179 hsl 128 15 20 10000 1 0 empty empty empty -2 -8 0 10
-262144 -1 -1 5600 1;
#X floatatom 992 179 5 0 0 0 - - -;
#X floatatom 998 205 5 0 0 0 - - -;
#X obj 1037 123 OSCroute /vcf;
#X obj 1048 172 OSCroute /r;
#X obj 1048 148 OSCroute /f;
#X obj 418 544 OSCroute /mix;
#X obj 337 588 *~ 1;
#X obj 416 -102 OSCroute /chord;
#X msg 1085 17 50;
#X msg 411 -57 3;
#X obj 411 -24 * 1;
#X obj 569 -90 print;
#X obj 417 -82 route 1 2 3;
#X msg 462 -56 5;
#X msg 557 -56 11;
#X msg 511 -55 7;
#X obj 393 39 + 3;
#X obj 561 37 + 3;
#X obj 1096 199 loadbang;
#X msg 1095 218 50;
#X msg 1103 240 10;
#X obj 1022 416 *~ 1;
#X connect 0 0 5 0;
#X connect 1 0 2 0;
#X connect 1 0 79 0;
#X connect 1 0 82 0;
#X connect 1 0 55 0;
#X connect 2 0 4 0;
#X connect 2 0 20 0;
#X connect 2 0 84 0;
#X connect 4 0 0 2;
#X connect 5 0 64 0;
#X connect 6 0 3 0;
#X connect 6 1 3 1;
#X connect 7 0 8 0;
#X connect 8 0 45 0;
#X connect 9 0 5 1;
#X connect 9 0 11 1;
#X connect 9 0 14 1;
#X connect 9 0 17 1;
#X connect 10 0 11 0;
#X connect 11 0 66 0;
#X connect 12 0 8 0;
#X connect 13 0 14 0;
#X connect 14 0 68 0;
#X connect 15 0 8 0;
#X connect 16 0 17 0;
#X connect 17 0 70 0;
#X connect 18 0 8 0;
#X connect 19 0 0 0;
#X connect 20 0 22 0;
#X connect 20 0 23 0;
#X connect 21 0 9 0;
#X connect 21 1 19 0;
#X connect 21 1 27 0;
#X connect 21 1 30 0;
#X connect 21 1 93 0;
#X connect 21 1 94 0;
#X connect 22 1 23 1;
#X connect 23 0 21 0;
#X connect 24 0 10 0;
#X connect 25 0 13 0;
#X connect 26 0 16 0;
#X connect 27 0 24 0;
#X connect 28 0 6 0;
#X connect 28 0 6 1;
#X connect 28 0 46 0;
#X connect 29 0 74 0;
#X connect 30 0 31 0;
#X connect 31 0 29 0;
#X connect 32 0 34 0;
#X connect 34 0 30 1;
#X connect 34 0 33 0;
#X connect 35 0 43 0;
#X connect 36 0 41 0;
#X connect 37 0 29 1;
#X connect 38 0 37 3;
#X connect 39 0 42 0;
#X connect 39 1 38 0;
#X connect 40 0 35 0;
#X connect 40 0 49 0;
#X connect 41 0 39 0;
#X connect 42 0 37 0;
#X connect 43 0 44 0;
#X connect 44 0 38 0;
#X connect 45 0 28 0;
#X connect 46 0 47 0;
#X connect 48 0 61 0;
#X connect 50 0 32 0;
#X connect 51 0 45 9;
#X connect 52 0 32 0;
#X connect 53 0 6 5;
#X connect 54 0 53 0;
#X connect 54 0 98 0;
#X connect 55 0 54 0;
#X connect 56 0 54 1;
#X connect 57 0 56 0;
#X connect 58 0 59 0;
#X connect 58 0 36 0;
#X connect 58 0 85 0;
#X connect 59 0 40 0;
#X connect 59 0 50 0;
#X connect 61 0 64 2;
#X connect 61 1 64 3;
#X connect 61 2 66 2;
#X connect 61 3 66 3;
#X connect 61 4 68 2;
#X connect 61 5 68 3;
#X connect 61 6 70 2;
#X connect 61 7 70 3;
#X connect 62 0 18 0;
#X connect 63 0 65 2;
#X connect 63 1 65 3;
#X connect 63 2 67 2;
#X connect 63 3 67 3;
#X connect 63 4 69 2;
#X connect 63 5 69 3;
#X connect 63 6 62 2;
#X connect 63 7 62 3;
#X connect 64 0 7 0;
#X connect 64 0 65 0;
#X connect 65 0 7 0;
#X connect 66 0 12 0;
#X connect 66 0 67 0;
#X connect 67 0 12 0;
#X connect 68 0 15 0;
#X connect 68 0 69 0;
#X connect 69 0 15 0;
#X connect 70 0 18 0;
#X connect 70 0 62 0;
#X connect 71 0 63 0;
#X connect 72 0 51 0;
#X connect 73 0 48 0;
#X connect 73 0 71 0;
#X connect 74 0 83 0;
#X connect 75 0 74 2;
#X connect 75 0 78 0;
#X connect 76 0 74 1;
#X connect 76 0 77 0;
#X connect 79 0 81 0;
#X connect 79 0 80 0;
#X connect 80 0 75 0;
#X connect 81 0 76 0;
#X connect 82 0 6 8;
#X connect 83 0 6 2;
#X connect 83 0 6 3;
#X connect 84 0 88 0;
#X connect 84 0 89 0;
#X connect 85 0 42 0;
#X connect 86 0 87 0;
#X connect 87 0 27 1;
#X connect 87 0 93 1;
#X connect 87 0 94 1;
#X connect 89 0 86 0;
#X connect 89 1 90 0;
#X connect 89 2 92 0;
#X connect 89 3 91 0;
#X connect 90 0 87 0;
#X connect 91 0 87 0;
#X connect 92 0 87 0;
#X connect 93 0 25 0;
#X connect 94 0 26 0;
#X connect 95 0 96 0;
#X connect 95 0 97 0;
#X connect 96 0 76 0;
#X connect 97 0 75 0;
#X connect 98 0 6 4;
