#N canvas 547 22 853 825 10;
#X floatatom 485 626 0 0 0 0 - - -;
#X obj 604 59 gemhead;
#X obj 404 773 text3d hello world;
#X text 334 5 3-D polygonal text;
#X msg 240 303 text something really cool;
#X msg 222 275 text bar;
#X msg 188 248 text foo;
#X msg 141 225 text and now with 1 4.5;
#X obj 195 178 sel 0 1 2 3 4;
#X msg 179 44 1;
#X msg 225 55 0;
#X obj 218 107 metro 250;
#X obj 216 142 random 7;
#X msg 262 342 text good bye again;
#X msg 320 384 text rand \$1;
#X obj 485 600 counter 0 360;
#X obj 486 581 metro 20;
#X obj 449 647 rotateXYZ;
#X obj 592 740 loadbang;
#X obj 313 62 OSCroute /text;
#X obj 244 77 tgl 15 0 empty empty empty 0 -6 0 8 -262144 -1 -1 1 1
;
#X obj 429 62 bng 15 250 50 0 empty empty empty 0 -6 0 8 -262144 -1
-1;
#X floatatom 554 646 5 0 0 0 - - -;
#X obj 542 413 hsl 128 15 -4 4 0 0 empty empty empty -2 -6 0 8 -262144
-1 -1 7700 1;
#X obj 577 432 hsl 128 15 -4 4 0 0 empty empty empty -2 -6 0 8 -262144
-1 -1 8200 1;
#X obj 508 394 hsl 128 15 -4 4 0 0 empty empty empty -2 -6 0 8 -262144
-1 -1 6900 1;
#X obj 439 434 translateXYZ 0 0 1;
#X floatatom 589 433 5 0 0 0 - - -;
#X obj 320 86 OSCroute /text;
#X obj 433 261 cnv 15 160 120 empty empty empty 20 12 0 14 -24198 -66577
0;
#X obj 520 191 bng 15 250 50 0 empty empty pix_load 20 8 0 8 -262144
-1 -1;
#N canvas 0 24 1371 922 image 0;
#X obj 77 48 inlet;
#X obj 77 344 outlet;
#X obj 223 55 inlet;
#X msg 223 123 open \$1;
#X obj 223 100 openpanel;
#X obj 77 205 pix_image ../gem.doc/data/temp2.JPG;
#X connect 0 0 5 0;
#X connect 2 0 4 0;
#X connect 3 0 5 0;
#X connect 4 0 3 0;
#X connect 5 0 1 0;
#X restore 476 211 pd image;
#X text 539 212 open an image;
#X text 532 225 (JPEG \, TIFF \, ..);
#X obj 434 386 pix_texture;
#X obj 476 188 alpha;
#X floatatom 489 232 5 0 1 1 pass - -;
#X floatatom 463 285 5 0 1 1 other - -;
#X msg 477 310 0.6 0.6 0.6;
#X msg 492 334 0.2 0.2 0.2;
#X obj 434 359 pix_alpha;
#X obj 348 111 OSCroute /alpha;
#X obj 348 133 unpack f f;
#X obj 440 570 color;
#X obj 580 487 hsl 128 15 0 1 0 0 empty empty empty -2 -6 0 8 -262144
-1 -1 12700 1;
#X obj 575 508 hsl 128 15 0 1 0 0 empty empty empty -2 -6 0 8 -262144
-1 -1 12700 1;
#X obj 596 529 hsl 128 15 0 1 0 0 empty empty empty -2 -6 0 8 -262144
-1 -1 12700 1;
#X obj 483 539 pack f f f;
#X obj 481 457 OSCroute /color;
#X floatatom 556 413 5 0 0 0 - - -;
#X floatatom 517 393 5 0 0 0 - - -;
#X floatatom 587 487 5 0 0 0 - - -;
#X floatatom 583 508 5 0 0 0 - - -;
#X floatatom 604 531 5 0 0 0 - - -;
#X text 694 486 r;
#X text 692 507 g;
#X text 707 528 b;
#X text 658 431 z;
#X text 621 412 y;
#X text 589 393 x;
#X obj 350 156 hsl 128 15 0 1 0 0 empty empty empty -2 -6 0 8 -262144
-1 -1 10500 1;
#X text 437 155 alpha;
#X floatatom 364 156 5 0 0 0 - - -;
#X obj 600 161 int;
#X obj 600 141 OSCroute /size;
#X obj 643 391 line 0 1000;
#X obj 677 411 line 0 1000;
#X obj 709 431 line 0 1000;
#X obj 713 487 line 0 1000;
#X obj 708 507 line 0 1000;
#X obj 730 528 line 0 1000;
#X obj 681 310 OSCroute /trans;
#X obj 607 360 unpack f f f;
#X obj 701 372 OSCroute /t;
#X obj 595 576 hsl 128 15 -360 360 0 0 empty empty empty -2 -6 0 8
-262144 -1 -1 10600 1;
#X obj 601 595 hsl 128 15 -360 360 0 0 empty empty empty -2 -6 0 8
-262144 -1 -1 11200 1;
#X obj 497 12 OSCroute /roty;
#X obj 495 47 unpack f f;
#X obj 638 333 OSCroute /s;
#X obj 483 504 unpack f f f;
#X obj 618 558 OSCroute /t;
#X obj 481 481 OSCroute /s;
#X obj 642 182 OSCroute /font;
#X obj 464 263 line 0 50;
#X obj 296 22 inlet;
#X obj 584 106 spigot;
#X obj 614 88 tgl 15 0 empty empty empty 0 -6 0 8 -262144 -1 -1 1 1
;
#X obj 681 55 inlet;
#X msg 610 690 font fnt/cour.ttf;
#X msg 605 717 font fnt/times.ttf;
#X msg 592 762 font fnt/arial.ttf;
#X connect 0 0 17 2;
#X connect 1 0 85 0;
#X connect 4 0 2 0;
#X connect 5 0 2 0;
#X connect 6 0 2 0;
#X connect 7 0 2 0;
#X connect 8 0 7 0;
#X connect 8 1 6 0;
#X connect 8 2 5 0;
#X connect 8 3 4 0;
#X connect 8 4 13 0;
#X connect 8 5 14 0;
#X connect 9 0 11 0;
#X connect 9 0 16 0;
#X connect 10 0 11 0;
#X connect 10 0 16 0;
#X connect 11 0 12 0;
#X connect 12 0 8 0;
#X connect 13 0 2 0;
#X connect 14 0 2 0;
#X connect 15 0 0 0;
#X connect 16 0 15 0;
#X connect 17 0 2 0;
#X connect 18 0 90 0;
#X connect 19 0 21 0;
#X connect 19 0 28 0;
#X connect 19 0 64 0;
#X connect 19 0 71 0;
#X connect 19 0 41 0;
#X connect 19 0 82 0;
#X connect 20 0 11 0;
#X connect 22 0 2 1;
#X connect 23 0 49 0;
#X connect 23 0 66 0;
#X connect 24 0 27 0;
#X connect 24 0 67 0;
#X connect 25 0 50 0;
#X connect 25 0 65 0;
#X connect 26 0 43 0;
#X connect 28 0 2 0;
#X connect 28 0 48 0;
#X connect 30 0 31 1;
#X connect 31 0 40 0;
#X connect 34 0 26 0;
#X connect 35 0 31 0;
#X connect 36 0 40 1;
#X connect 37 0 40 2;
#X connect 38 0 40 3;
#X connect 39 0 40 4;
#X connect 40 0 34 0;
#X connect 41 0 42 0;
#X connect 42 0 60 0;
#X connect 42 1 83 1;
#X connect 43 0 17 0;
#X connect 44 0 51 0;
#X connect 44 0 68 0;
#X connect 45 0 52 0;
#X connect 45 0 69 0;
#X connect 46 0 53 0;
#X connect 46 0 70 0;
#X connect 47 0 43 1;
#X connect 48 0 81 0;
#X connect 48 0 80 0;
#X connect 60 0 62 0;
#X connect 60 0 83 0;
#X connect 63 0 22 0;
#X connect 64 0 63 0;
#X connect 65 0 26 1;
#X connect 66 0 26 2;
#X connect 67 0 26 3;
#X connect 68 0 47 0;
#X connect 69 0 47 1;
#X connect 70 0 47 2;
#X connect 71 0 73 0;
#X connect 71 0 78 0;
#X connect 72 0 25 0;
#X connect 72 1 23 0;
#X connect 72 2 24 0;
#X connect 73 0 65 1;
#X connect 73 0 66 1;
#X connect 73 0 67 1;
#X connect 74 0 17 1;
#X connect 75 0 17 3;
#X connect 76 0 77 0;
#X connect 77 0 16 0;
#X connect 77 1 16 1;
#X connect 78 0 72 0;
#X connect 79 0 44 0;
#X connect 79 1 45 0;
#X connect 79 2 46 0;
#X connect 80 0 68 1;
#X connect 80 0 69 1;
#X connect 80 0 70 1;
#X connect 81 0 79 0;
#X connect 82 0 90 0;
#X connect 83 0 37 0;
#X connect 84 0 19 0;
#X connect 85 0 35 0;
#X connect 86 0 85 1;
#X connect 87 0 86 0;
#X connect 88 0 2 0;
#X connect 89 0 2 0;
#X connect 90 0 2 0;
