#N canvas 588 30 871 877 8;
#X obj 172 2 dumpOSC 10001;
#X obj 40 822 dac~;
#X obj 149 3 bng 15 250 50 0 empty empty empty 0 -6 0 8 -262144 -1
-1;
#X obj 171 30 OSCroute /w1;
#X obj 241 593 loadbang;
#X obj 127 528 OSCroute /mstr;
#X msg 230 660 16 0 0 0;
#X obj 204 87 OSCroute /note;
#X floatatom 232 150 5 0 0 0 - - -;
#X obj 187 60 OSCroute /tw;
#X obj 39 592 ../cmp/mixer a_bit wider;
#X obj 61 51 bng 15 250 50 0 empty empty empty 0 -6 0 8 -262144 -1
-1;
#X obj 27 446 +~;
#X obj 59 447 +~;
#X obj 28 536 +~;
#X obj 60 537 +~;
#X msg 177 185 38;
#X msg 170 214 418;
#X obj 170 160 loadbang;
#X obj 73 805 *~ 1;
#X obj 40 803 *~ 1;
#X obj 129 791 hsl 128 15 0 100 0 0 empty empty empty -2 -6 0 8 -262144
-1 -1 0 1;
#X obj 55 785 dbtorms;
#X obj 233 219 mtof;
#X obj 99 550 *~ 1;
#X obj 126 551 *~ 1;
#X obj 242 347 *~ 1;
#X obj 289 355 *~ 1;
#X obj 204 109 unpack f f;
#X obj 10 79 noise~;
#X obj 22 -2 OSCroute /noise;
#X obj 22 22 OSCroute /trig;
#X obj 3 -1 bng 15 250 50 0 empty empty empty 0 -6 0 8 -262144 -1 -1
;
#X obj 282 88 bng 15 250 50 0 empty empty empty 0 -6 0 8 -262144 -1
-1;
#X obj 299 153 hsl 128 15 -12 12 0 0 empty empty empty -2 -6 0 8 -262144
-1 -1 7408 1;
#X floatatom 234 195 5 0 0 0 - - -;
#X floatatom 390 152 5 0 0 0 - - -;
#X obj 302 119 OSCroute /offst;
#X obj 7 100 ../cmp/envelope;
#X obj 28 237 ../cmp/echo;
#X obj 23 339 ../cmp/echo;
#X text 249 -23 comment;
#X obj 29 515 lop~;
#X obj 27 495 lop~;
#X obj 58 496 lop~;
#X obj 58 515 lop~;
#X obj 49 464 hsl 128 15 10 10000 1 0 empty empty empty -2 -6 0 8 -262144
-1 -1 0 1;
#X floatatom 149 465 5 0 0 0 - - -;
#X floatatom 272 220 5 0 0 0 - - -;
#X text 209 183 about -30 is nice;
#X obj 229 422 lop~;
#X obj 227 402 lop~;
#X obj 258 403 lop~;
#X obj 258 422 lop~;
#X obj 249 371 hsl 128 15 10 20000 1 0 empty empty empty -2 -6 0 8
-262144 -1 -1 0 1;
#X obj 230 444 ../cmp/flanger_st;
#X obj 233 172 + -30;
#X obj 269 157 int;
#X obj 399 238 ../cmp/multi_osc1;
#X obj 404 342 *~ 1;
#X obj 451 350 *~ 1;
#X obj 400 210 mtof;
#X floatatom 439 211 7 0 0 0 - - -;
#X floatatom 415 186 5 0 0 0 - - -;
#X obj 392 193 + 0;
#X obj 417 532 *~ 1;
#X obj 464 540 *~ 1;
#X obj 413 400 mtof;
#X floatatom 452 401 8 0 0 0 - - -;
#X floatatom 428 376 5 0 0 0 - - -;
#X obj 405 383 + 0;
#X obj 237 240 ../cmp/multi_osc1;
#X obj 412 428 ../cmp/multi_osc1;
#X obj 315 70 + 0;
#X obj 317 -12 block~ 64;
#N canvas 122 92 1193 812 percussion 0;
#X obj 191 44 ../drm/kick;
#X obj 585 43 ../drm/snare;
#X obj 769 51 ../drm/snare;
#X obj 317 25 OSCroute /d1;
#X obj 755 18 OSCroute /d3;
#X obj 892 27 OSCroute /d4;
#X msg 246 1 3 847 108 55 251 2.7;
#X obj 994 299 OSCroute /bell;
#X obj 994 336 OSCroute /t;
#X obj 1048 358 OSCroute /pit;
#X obj 1102 377 OSCroute /len;
#X obj 952 376 bng 15 250 50 0 empty empty empty 0 -6 0 8 -262144 -1
-1;
#X obj 994 403 ../cmp/bell;
#X obj 482 611 ../cmp/mixer a_bit wider;
#X floatatom 901 382 5 0 0 0 - - -;
#X obj 560 19 OSCroute /d2;
#X obj 211 547 *~ 1;
#X obj 307 543 *~ 1;
#X obj 424 543 *~ 1;
#X obj 467 542 *~ 1;
#X obj 603 548 *~ 1;
#X obj 646 547 *~ 1;
#X obj 812 549 *~ 1;
#X obj 857 548 *~ 1;
#X obj 636 613 ../cmp/mixer a_bit wider;
#X obj 805 608 ../cmp/mixer a_bit wider;
#X obj 737 788 outlet~;
#X obj 627 789 outlet~;
#X obj 103 8 inlet;
#X text 139 6 osc;
#X obj 930 526 *~ 1;
#X obj 975 525 *~ 1;
#X obj 161 242 ../effects/compressor_st;
#X msg 153 201 74.2 1.92 76.54 -7.53 92.54;
#X obj 398 41 ../drm/kick;
#X obj 600 435 *~ 1;
#X obj 175 363 ../cmp/flanger_st;
#X obj 590 204 ../cmp/flanger_st;
#X obj 768 200 ../cmp/flanger_st;
#X obj 395 202 ../cmp/flanger_st;
#X obj 999 144 inlet;
#X obj 1009 211 + 0;
#X obj 1036 166 hsl 128 15 0 127 0 0 empty empty empty -2 -6 0 8 -262144
-1 -1 0 1;
#X text 689 174 5;
#X text 433 182 2;
#X text 576 349 off=3/4 \, fb=2/3 \, fb_del=1/10;
#X connect 0 0 32 0;
#X connect 0 0 32 1;
#X connect 1 0 37 0;
#X connect 1 0 37 1;
#X connect 2 0 38 0;
#X connect 3 0 0 3;
#X connect 4 0 1 3;
#X connect 5 0 2 3;
#X connect 6 0 0 1;
#X connect 7 0 8 0;
#X connect 7 0 9 0;
#X connect 7 0 10 0;
#X connect 8 0 12 0;
#X connect 9 0 12 1;
#X connect 10 0 12 2;
#X connect 11 0 12 0;
#X connect 12 0 30 0;
#X connect 12 0 31 0;
#X connect 13 0 24 0;
#X connect 13 1 24 1;
#X connect 15 0 34 3;
#X connect 15 0 12 0;
#X connect 16 0 13 0;
#X connect 17 0 13 1;
#X connect 18 0 13 2;
#X connect 19 0 13 3;
#X connect 20 0 13 4;
#X connect 21 0 13 5;
#X connect 22 0 13 6;
#X connect 23 0 13 7;
#X connect 24 0 27 0;
#X connect 24 1 26 0;
#X connect 25 0 24 2;
#X connect 25 1 24 3;
#X connect 28 0 3 0;
#X connect 28 0 15 0;
#X connect 28 0 4 0;
#X connect 28 0 5 0;
#X connect 28 0 7 0;
#X connect 30 0 25 0;
#X connect 31 0 25 1;
#X connect 32 0 36 0;
#X connect 32 1 36 1;
#X connect 33 0 32 2;
#X connect 34 0 39 0;
#X connect 34 0 39 1;
#X connect 35 0 20 0;
#X connect 36 0 16 0;
#X connect 36 1 17 0;
#X connect 37 0 35 0;
#X connect 37 1 21 0;
#X connect 38 0 22 0;
#X connect 38 1 23 0;
#X connect 39 0 18 0;
#X connect 39 1 19 0;
#X connect 40 0 41 0;
#X connect 41 0 12 1;
#X connect 42 0 41 1;
#X restore 96 506 pd percussion;
#X obj 655 -19 cnv 15 170 800 empty empty empty 20 12 0 14 -233017
-66577 0;
#X obj 633 238 bng 15 250 50 0 empty empty empty 0 -6 0 8 -262144 -1
-1;
#X obj 687 104 hsl 128 15 100 10000 1 0 empty empty empty -2 -6 0 8
-262144 -1 -1 0 1;
#X obj 617 479 +~;
#X obj 639 479 +~;
#X obj 615 505 +~;
#X obj 637 505 +~;
#X obj 684 3 OSCroute /pulse;
#X obj 677 35 OSCroute /t;
#X obj 716 59 OSCroute /note;
#X obj 696 83 mtof;
#X floatatom 741 83 5 0 0 0 - - -;
#X msg 759 364 38;
#X msg 785 381 418;
#X obj 782 364 loadbang;
#X obj 661 397 ../cmp/echo;
#X obj 672 483 ../cmp/echo;
#X obj 657 236 ../cmp/envelope;
#X obj 664 130 ../cmp/multi_osc1;
#X text 677 -15 pulse;
#X obj 630 811 *~ 1;
#X obj 657 812 *~ 1;
#X obj 332 682 pack f f;
#X floatatom 326 655 5 0 0 0 - - -;
#X obj 418 682 pack f f;
#X floatatom 455 652 5 0 0 0 - - -;
#X floatatom 412 655 5 0 0 0 - - -;
#X obj 410 750 line~ 0 10;
#X obj 326 747 line~ 0 10;
#X obj 311 783 *~;
#X obj 397 781 *~;
#X floatatom 337 372 5 0 0 0 - - -;
#X floatatom 335 134 5 0 0 0 - - -;
#X msg 293 132 2;
#X obj 304 406 OSCroute /fl;
#X obj 379 428 bng 15 250 50 0 empty empty empty 0 -6 0 8 -262144 -1
-1;
#X obj 674 600 ../cmp/flanger_st;
#X obj 508 216 OSCroute /osc;
#X obj 458 176 OSCroute /off;
#X obj 474 375 OSCroute /off;
#X obj 308 215 OSCroute /osc;
#X obj 525 404 OSCroute /osc;
#X obj 532 352 OSCroute /o3;
#X obj 286 200 OSCroute /o1;
#X obj 497 196 OSCroute /o2;
#X obj 325 179 OSCroute /off;
#X obj 560 246 bng 15 250 50 0 empty empty empty 0 -6 0 8 -262144 -1
-1;
#X msg 399 614 1;
#X obj 416 -5 herc_joystk 0;
#X connect 0 0 2 0;
#X connect 0 0 3 0;
#X connect 0 0 5 0;
#X connect 3 0 30 0;
#X connect 3 0 75 0;
#X connect 3 0 83 0;
#X connect 3 0 9 0;
#X connect 3 0 110 0;
#X connect 3 0 119 0;
#X connect 3 0 120 0;
#X connect 3 0 118 0;
#X connect 4 0 6 0;
#X connect 4 0 123 0;
#X connect 5 0 10 8;
#X connect 6 0 10 8;
#X connect 7 0 28 0;
#X connect 7 0 33 0;
#X connect 8 0 56 0;
#X connect 9 0 7 0;
#X connect 9 0 37 0;
#X connect 10 0 20 0;
#X connect 10 1 19 0;
#X connect 11 0 38 1;
#X connect 12 0 43 0;
#X connect 13 0 44 0;
#X connect 14 0 10 0;
#X connect 15 0 10 1;
#X connect 16 0 39 2;
#X connect 17 0 40 2;
#X connect 18 0 17 0;
#X connect 18 0 16 0;
#X connect 18 0 109 0;
#X connect 19 0 1 1;
#X connect 20 0 1 0;
#X connect 21 0 22 0;
#X connect 22 0 19 1;
#X connect 22 0 20 1;
#X connect 23 0 48 0;
#X connect 23 0 71 0;
#X connect 24 0 10 4;
#X connect 25 0 10 5;
#X connect 26 0 51 0;
#X connect 27 0 52 0;
#X connect 28 0 8 0;
#X connect 29 0 38 0;
#X connect 30 0 31 0;
#X connect 30 0 32 0;
#X connect 31 0 11 0;
#X connect 34 0 57 0;
#X connect 35 0 23 0;
#X connect 35 0 64 0;
#X connect 35 0 70 0;
#X connect 35 0 73 0;
#X connect 35 0 75 1;
#X connect 37 0 34 0;
#X connect 38 0 39 0;
#X connect 38 0 39 1;
#X connect 38 0 12 0;
#X connect 38 0 13 0;
#X connect 39 0 12 1;
#X connect 39 0 40 0;
#X connect 39 1 13 1;
#X connect 39 1 40 1;
#X connect 40 0 13 0;
#X connect 40 1 12 0;
#X connect 42 0 14 0;
#X connect 43 0 42 0;
#X connect 44 0 45 0;
#X connect 45 0 15 0;
#X connect 46 0 43 1;
#X connect 46 0 42 1;
#X connect 46 0 44 1;
#X connect 46 0 45 1;
#X connect 46 0 47 0;
#X connect 50 0 55 0;
#X connect 51 0 50 0;
#X connect 52 0 53 0;
#X connect 53 0 55 1;
#X connect 54 0 51 1;
#X connect 54 0 50 1;
#X connect 54 0 52 1;
#X connect 54 0 53 1;
#X connect 54 0 107 0;
#X connect 55 0 105 0;
#X connect 55 1 106 0;
#X connect 56 0 35 0;
#X connect 57 0 56 1;
#X connect 57 0 36 0;
#X connect 58 0 59 0;
#X connect 58 0 60 0;
#X connect 59 0 51 0;
#X connect 60 0 52 0;
#X connect 61 0 62 0;
#X connect 61 0 58 0;
#X connect 63 0 64 1;
#X connect 64 0 61 0;
#X connect 65 0 51 0;
#X connect 66 0 52 0;
#X connect 67 0 68 0;
#X connect 67 0 72 0;
#X connect 69 0 70 1;
#X connect 70 0 67 0;
#X connect 71 0 26 0;
#X connect 71 0 27 0;
#X connect 72 0 65 0;
#X connect 72 0 66 0;
#X connect 75 0 10 2;
#X connect 75 1 10 3;
#X connect 77 0 93 1;
#X connect 78 0 94 0;
#X connect 79 0 81 0;
#X connect 80 0 82 0;
#X connect 81 0 112 0;
#X connect 82 0 112 1;
#X connect 83 0 84 0;
#X connect 83 0 85 0;
#X connect 83 0 93 3;
#X connect 84 0 77 0;
#X connect 85 0 86 0;
#X connect 85 0 87 0;
#X connect 86 0 78 0;
#X connect 88 0 91 2;
#X connect 89 0 92 2;
#X connect 90 0 89 0;
#X connect 90 0 88 0;
#X connect 91 0 79 1;
#X connect 91 1 80 1;
#X connect 91 1 92 1;
#X connect 92 0 82 1;
#X connect 92 1 81 1;
#X connect 93 0 79 0;
#X connect 93 0 80 0;
#X connect 93 0 91 1;
#X connect 94 0 93 0;
#X connect 96 0 10 6;
#X connect 97 0 10 7;
#X connect 98 0 104 0;
#X connect 99 0 98 0;
#X connect 100 0 103 0;
#X connect 101 0 100 1;
#X connect 101 0 98 1;
#X connect 102 0 100 0;
#X connect 103 0 106 1;
#X connect 104 0 105 1;
#X connect 105 0 24 0;
#X connect 106 0 25 0;
#X connect 109 0 34 0;
#X connect 110 0 55 8;
#X connect 110 0 111 0;
#X connect 112 0 96 0;
#X connect 112 1 97 0;
#X connect 113 0 58 2;
#X connect 114 0 63 0;
#X connect 115 0 69 0;
#X connect 116 0 71 2;
#X connect 117 0 72 2;
#X connect 118 0 115 0;
#X connect 118 0 117 0;
#X connect 119 0 116 0;
#X connect 119 0 121 0;
#X connect 120 0 113 0;
#X connect 120 0 114 0;
#X connect 121 0 34 0;
#X connect 123 0 99 0;
#X connect 123 0 102 0;
