#N canvas 731 24 639 875 8;
#X obj 14 10 cnv 15 200 250 empty empty empty 20 12 0 14 -233017 -66577
0;
#X msg 23 52 800 600 0 0;
#X msg 26 98 320 240 0 0;
#X msg 99 51 800 600 1440 -1;
#X msg 24 74 1024 768 0 0;
#X msg 108 71 1024 768 1440 -1;
#X msg 22 143 offset \$3 \$4;
#X msg 105 143 dimen \$1 \$2;
#X obj 38 164 t b b;
#X msg 81 210 destroy;
#X obj 142 189 tgl 15 0 empty empty empty 0 -6 0 8 -262144 -1 -1 1
1;
#X text 156 187 render;
#X msg 85 191 0;
#X msg 34 191 1;
#X obj 136 210 gemwin 20;
#X msg 21 32 640 480 0 0;
#X msg 98 31 640 480 1440 -1;
#X msg 107 95 400 300 0 0;
#X msg 16 121 1440 900 0 -1;
#X text 38 11 open window;
#X obj 285 34 bng 15 250 50 0 empty empty empty 0 -6 0 8 -262144 -1
-1;
#X msg 121 163 lighting \$1;
#X obj 100 163 tgl 15 0 empty empty empty 0 -6 0 8 -262144 -1 -1 1
1;
#X text 192 114 fullscreen;
#X obj 324 28 gemmouse;
#X msg 385 9 0;
#X msg 424 10 1;
#X msg 24 233 create;
#X msg 112 117 800 600 -1 -1;
#X obj 478 15 gemhead;
#X obj 478 37 world_light;
#X msg 396 69 fullscreen 1;
#X obj 372 31 bng 15 250 50 0 empty empty empty 0 -6 0 8 -262144 -1
-1;
#X obj 395 31 bng 15 250 50 0 empty empty empty 0 -6 0 8 -262144 -1
-1;
#X obj 419 34 bng 15 250 50 0 empty empty empty 0 -6 0 8 -262144 -1
-1;
#X msg 383 87 fullscreen 0;
#X obj 234 2 dumpOSC 10002;
#X obj 238 151 OSCroute /note;
#X obj 229 263 line 0 10;
#X obj 265 226 hsl 128 15 1 1000 0 0 empty empty empty -2 -6 0 8 -262144
-1 -1 0 1;
#X floatatom 237 172 5 0 0 0 - - -;
#X obj 235 191 * 0.05;
#X obj 480 132 OSCroute /pulsenote;
#X obj 437 112 OSCroute /pulsetrig;
#X floatatom 270 192 5 0 0 0 - - -;
#X floatatom 269 210 5 0 0 0 - - -;
#X floatatom 233 227 5 0 0 0 - - -;
#X obj 234 209 + 0;
#X obj 226 246 pack f f;
#X obj 461 239 line 0 10;
#X obj 497 202 hsl 128 15 1 1000 0 0 empty empty empty -2 -6 0 8 -262144
-1 -1 0 1;
#X floatatom 471 151 5 0 0 0 - - -;
#X obj 467 167 * 0.05;
#X floatatom 505 169 5 0 0 0 - - -;
#X floatatom 501 186 5 0 0 0 - - -;
#X floatatom 465 203 5 0 0 0 - - -;
#X obj 466 185 + 0;
#X obj 458 222 pack f f;
#X obj 446 150 * 1;
#X msg 433 131 1;
#X obj 555 112 bng 15 250 50 0 empty empty empty 0 -6 0 8 -262144 -1
-1;
#X obj 313 147 hsl 128 15 0 127 0 0 empty empty empty -2 -6 0 8 -262144
-1 -1 0 1;
#X obj 365 127 bng 15 250 50 0 empty empty empty 0 -6 0 8 -262144 -1
-1;
#X floatatom 355 260 5 0 0 0 - - -;
#X obj 367 199 line 0 10;
#X obj 379 171 del 100;
#X msg 423 171 3 200;
#X msg 338 170 0 \$1;
#X obj 505 269 hsl 128 15 0 127 0 0 empty empty empty -2 -6 0 8 -262144
-1 -1 0 1;
#X floatatom 566 347 5 0 0 0 - - -;
#X obj 559 321 line 0 10;
#X obj 571 293 del 100;
#X msg 615 293 3 200;
#X msg 530 292 0 \$1;
#X obj 478 268 bng 15 250 50 0 empty empty empty 0 -6 0 8 -262144 -1
-1;
#X obj 89 507 cnv 15 170 250 empty empty empty 20 12 0 14 -228992 -66577
0;
#X text 87 492 Example:;
#X obj 84 590 cnv 15 160 120 empty empty empty 20 12 0 14 -24198 -66577
0;
#X obj 116 416 gemhead;
#X obj 144 517 bng 15 250 50 0 empty empty pix_load 20 8 0 8 -262144
-1 -1;
#N canvas 0 0 587 366 image 0;
#X obj 77 48 inlet;
#X obj 77 344 outlet;
#X obj 77 205 pix_image ../../doc/gem/examples/data/fractal.JPG;
#X obj 223 55 inlet;
#X msg 223 123 open \$1;
#X obj 223 100 openpanel;
#X obj 261 52 inlet;
#X connect 0 0 2 0;
#X connect 2 0 1 0;
#X connect 3 0 5 0;
#X connect 4 0 2 0;
#X connect 5 0 4 0;
#X connect 6 0 2 0;
#X restore 85 565 pd image;
#X text 150 537 open an image;
#X text 143 550 (JPEG \, TIFF \, ..);
#X obj 90 723 pix_texture;
#X obj 85 542 alpha;
#X floatatom 99 594 5 0 1 1 pass - -;
#X floatatom 114 614 5 0 1 1 other - -;
#X msg 128 639 0.6 0.6 0.6;
#X msg 143 663 0.2 0.2 0.2;
#X obj 85 688 pix_alpha;
#X obj 119 447 translateXYZ;
#X obj 39 452 gemhead;
#X obj 350 667 pack f f f;
#X obj 343 638 t b f;
#X obj 387 637 t b f;
#X obj 362 783 pack f f f;
#X obj 355 754 t b f;
#X obj 399 753 t b f;
#X obj 94 835 rectangle;
#X obj 200 306 OSCroute /so1;
#X obj 209 346 sonicObject so1;
#X msg 165 563 open \$1;
#X msg 251 542 img/houselights;
#X obj 70 332 OSCroute /back;
#X obj 93 305 OSCroute /bkdrp;
#X obj 37 352 bng 15 250 50 0 empty empty empty 0 -6 0 8 -262144 -1
-1;
#X obj 66 362 unpack s;
#X obj 189 389 OSCroute /pos;
#X obj 167 765 OSCroute /size;
#X obj 320 507 OSCroute /alphaLvl;
#X obj 362 618 OSCroute /hiThesh;
#X obj 437 743 OSCroute /loThresh;
#X obj 316 305 OSCroute /so2;
#X obj 402 306 OSCroute /so3;
#X obj 311 6 print;
#X obj 436 656 3wayline 1 0 1 0 1 0 300;
#X obj 439 761 3wayline 1 0 1 0 1 0 300;
#X obj 334 531 3wayline 1 0 1 0 1 0 300;
#X obj 238 418 3wayline 6 -3 6 -3 20 -20 200;
#X obj 165 790 3wayline 30 0 30 0 1 0 300;
#X obj 437 412 ChangeText;
#X obj 488 380 tgl 15 0 empty empty empty 0 -6 0 8 -262144 -1 -1 1
1;
#X obj 325 345 sonicObject so2;
#X obj 411 345 sonicObject so3;
#X connect 1 0 6 0;
#X connect 1 0 7 0;
#X connect 1 0 8 0;
#X connect 2 0 6 0;
#X connect 2 0 7 0;
#X connect 2 0 8 0;
#X connect 3 0 6 0;
#X connect 3 0 7 0;
#X connect 3 0 8 0;
#X connect 4 0 6 0;
#X connect 4 0 7 0;
#X connect 4 0 8 0;
#X connect 5 0 7 0;
#X connect 5 0 6 0;
#X connect 5 0 8 0;
#X connect 6 0 14 0;
#X connect 7 0 14 0;
#X connect 8 0 27 0;
#X connect 8 0 13 0;
#X connect 8 1 9 0;
#X connect 8 1 12 0;
#X connect 9 0 14 0;
#X connect 10 0 14 0;
#X connect 12 0 10 0;
#X connect 12 0 22 0;
#X connect 13 0 10 0;
#X connect 13 0 22 0;
#X connect 15 0 6 0;
#X connect 15 0 7 0;
#X connect 15 0 8 0;
#X connect 16 0 8 0;
#X connect 17 0 6 0;
#X connect 17 0 7 0;
#X connect 17 0 8 0;
#X connect 18 0 7 0;
#X connect 18 0 6 0;
#X connect 18 0 8 0;
#X connect 21 0 14 0;
#X connect 22 0 21 0;
#X connect 24 3 9 0;
#X connect 25 0 31 0;
#X connect 25 0 35 0;
#X connect 26 0 31 0;
#X connect 27 0 14 0;
#X connect 28 0 7 0;
#X connect 28 0 8 0;
#X connect 28 0 26 0;
#X connect 29 0 30 0;
#X connect 31 0 14 0;
#X connect 34 0 9 0;
#X connect 35 0 14 0;
#X connect 36 0 20 0;
#X connect 36 0 37 0;
#X connect 36 0 43 0;
#X connect 36 0 42 0;
#X connect 36 0 99 0;
#X connect 36 0 104 0;
#X connect 36 0 112 0;
#X connect 36 0 113 0;
#X connect 36 0 114 0;
#X connect 36 0 120 0;
#X connect 37 0 40 0;
#X connect 39 0 48 1;
#X connect 40 0 41 0;
#X connect 40 0 74 0;
#X connect 41 0 47 0;
#X connect 42 0 58 1;
#X connect 42 0 60 0;
#X connect 43 0 59 0;
#X connect 43 0 62 0;
#X connect 44 0 41 1;
#X connect 45 0 47 1;
#X connect 46 0 48 0;
#X connect 47 0 46 0;
#X connect 48 0 38 0;
#X connect 50 0 57 1;
#X connect 51 0 52 0;
#X connect 52 0 56 0;
#X connect 53 0 52 1;
#X connect 54 0 56 1;
#X connect 55 0 57 0;
#X connect 56 0 55 0;
#X connect 57 0 49 0;
#X connect 58 0 51 0;
#X connect 59 0 58 0;
#X connect 61 0 67 0;
#X connect 61 0 65 1;
#X connect 62 0 61 0;
#X connect 62 0 65 0;
#X connect 64 0 63 0;
#X connect 65 0 66 0;
#X connect 66 0 64 0;
#X connect 67 0 64 0;
#X connect 68 0 73 0;
#X connect 68 0 71 1;
#X connect 70 0 69 0;
#X connect 71 0 72 0;
#X connect 72 0 70 0;
#X connect 73 0 70 0;
#X connect 74 0 68 0;
#X connect 74 0 71 0;
#X connect 78 0 90 0;
#X connect 79 0 80 1;
#X connect 80 0 89 0;
#X connect 84 0 80 0;
#X connect 85 0 89 1;
#X connect 86 0 89 2;
#X connect 87 0 89 3;
#X connect 88 0 89 4;
#X connect 89 0 83 0;
#X connect 90 0 84 0;
#X connect 92 0 89 3;
#X connect 93 0 92 0;
#X connect 93 1 92 1;
#X connect 94 0 92 0;
#X connect 94 1 92 2;
#X connect 95 0 89 4;
#X connect 96 0 95 0;
#X connect 96 1 95 1;
#X connect 97 0 95 0;
#X connect 97 1 95 2;
#X connect 99 0 100 0;
#X connect 101 0 80 2;
#X connect 102 0 101 0;
#X connect 103 0 106 0;
#X connect 104 0 103 0;
#X connect 104 0 108 0;
#X connect 104 0 107 0;
#X connect 104 0 109 0;
#X connect 104 0 110 0;
#X connect 104 0 111 0;
#X connect 106 0 101 0;
#X connect 107 0 105 0;
#X connect 107 0 118 0;
#X connect 108 0 119 0;
#X connect 109 0 117 0;
#X connect 110 0 115 0;
#X connect 111 0 116 0;
#X connect 112 0 122 0;
#X connect 113 0 123 0;
#X connect 115 0 92 0;
#X connect 115 1 93 0;
#X connect 115 2 94 0;
#X connect 116 0 95 0;
#X connect 116 1 96 0;
#X connect 116 2 97 0;
#X connect 117 0 85 0;
#X connect 117 1 86 0;
#X connect 118 0 90 1;
#X connect 118 1 90 2;
#X connect 118 2 90 3;
#X connect 119 0 98 1;
#X connect 119 1 98 2;
#X connect 121 0 120 1;
