#N canvas 517 45 854 663 10;
#X obj 58 632 sphere;
#X obj 333 24 translateXYZ;
#X obj 253 29 gemhead;
#X obj 315 208 rotateXYZ;
#X obj -49 47 metro 500;
#X floatatom -8 30 5 0 0 0 - - -;
#X obj -47 24 tgl 15 0 empty empty empty 0 -6 0 8 -262144 -1 -1 1 1
;
#X obj -43 86 osc~;
#X obj -37 68 hsl 128 15 0.01 10 1 0 empty empty empty -2 -6 0 8 -262144
-1 -1 10547 1;
#X obj -49 110 snapshot~;
#X obj -35 150 +;
#X obj -35 130 * 1;
#X obj -9 129 hsl 128 15 0 5 0 0 empty empty empty -2 -6 0 8 -262144
-1 -1 1200 1;
#X floatatom 24 149 5 0 0 0 - - -;
#X floatatom 95 614 5 0 0 0 - - -;
#X obj 275 118 color 0.5 0.5 0.5;
#X floatatom -12 152 5 0 0 0 - - -;
#X msg 376 598 \$1;
#X obj 349 630 circle;
#X obj 311 299 color 0.8 0.1 0.1;
#X floatatom 59 68 5 0 0 0 - - -;
#X msg 95 593 60;
#X obj 95 573 loadbang;
#X obj 118 26 inlet;
#X obj 175 28 inlet;
#X obj 360 82 pack f f f;
#X obj 353 53 t b f;
#X obj 397 52 t b f;
#X obj 372 274 pack f f f;
#X obj 365 245 t b f;
#X obj 409 244 t b f;
#X obj 320 429 cnv 15 160 120 empty empty empty 20 12 0 14 -24198 -66577
0;
#X obj 369 366 bng 15 250 50 0 empty empty pix_load 20 8 0 8 -262144
-1 -1;
#N canvas 0 0 587 366 image 0;
#X obj 77 48 inlet;
#X obj 77 344 outlet;
#X obj 77 205 pix_image ../../doc/gem/examples/data/fractal.JPG;
#X obj 223 55 inlet;
#X msg 223 123 open \$1;
#X obj 223 100 openpanel;
#X obj 332 56 inlet;
#X connect 0 0 2 0;
#X connect 2 0 1 0;
#X connect 3 0 5 0;
#X connect 4 0 2 0;
#X connect 5 0 4 0;
#X connect 6 0 2 0;
#X restore 321 404 pd image;
#X text 386 376 open an image;
#X text 379 389 (JPEG \, TIFF \, ..);
#X obj 321 554 pix_texture;
#X obj 321 381 alpha;
#X floatatom 335 433 5 0 1 1 pass - -;
#X floatatom 350 453 5 0 1 1 other - -;
#X msg 364 478 0.6 0.6 0.6;
#X msg 379 502 0.2 0.2 0.2;
#X obj 321 527 pix_alpha;
#X obj 455 454 pack f f f;
#X obj 448 425 t b f;
#X obj 492 424 t b f;
#X obj 470 550 pack f f f;
#X obj 463 521 t b f;
#X obj 507 520 t b f;
#X obj -80 382 cnv 15 160 120 empty empty empty 20 12 0 14 -24198 -66577
0;
#X obj 6 314 bng 15 250 50 0 empty empty pix_load 20 8 0 8 -262144
-1 -1;
#N canvas 0 0 587 366 image 0;
#X obj 77 48 inlet;
#X obj 77 344 outlet;
#X obj 77 205 pix_image ../../doc/gem/examples/data/fractal.JPG;
#X obj 223 55 inlet;
#X msg 223 123 open \$1;
#X obj 223 100 openpanel;
#X obj 310 54 inlet;
#X connect 0 0 2 0;
#X connect 2 0 1 0;
#X connect 3 0 5 0;
#X connect 4 0 2 0;
#X connect 5 0 4 0;
#X connect 6 0 2 0;
#X restore -79 357 pd image;
#X text -14 329 open an image;
#X text -21 342 (JPEG \, TIFF \, ..);
#X obj -79 507 pix_texture;
#X obj -79 334 alpha;
#X floatatom -65 386 5 0 1 1 pass - -;
#X floatatom -50 406 5 0 1 1 other - -;
#X msg -36 431 0.6 0.6 0.6;
#X msg -21 455 0.2 0.2 0.2;
#X obj -79 480 pix_alpha;
#X obj 55 407 pack f f f;
#X obj 48 378 t b f;
#X obj 92 377 t b f;
#X obj 70 503 pack f f f;
#X obj 63 474 t b f;
#X obj 107 473 t b f;
#X obj 190 165 OSCroute /circRot;
#X obj 190 184 OSCroute /circCol;
#X obj 190 225 OSCroute /circAlpha1;
#X obj 191 247 OSCroute /circAlpha2;
#X obj 191 269 OSCroute /circAlpha3;
#X obj 126 108 OSCroute /osc;
#X obj 123 134 OSCroute /f;
#X obj 100 91 bng 15 250 50 0 empty empty empty 0 -6 0 8 -262144 -1
-1;
#X obj -66 248 rotateXYZ;
#X obj 101 154 OSCroute /m;
#X obj -77 192 +;
#X obj -77 172 * 1;
#X obj -51 171 hsl 128 15 0 5 0 0 empty empty empty -2 -6 0 8 -262144
-1 -1 0 1;
#X floatatom -12 193 5 0 0 0 - - -;
#X floatatom -51 193 5 0 0 0 - - -;
#X obj 107 177 bng 15 250 50 0 empty empty empty 0 -6 0 8 -262144 -1
-1;
#X floatatom 60 43 5 0 0 0 - - -;
#X msg -37 294 open img/white.jpg;
#X obj -76 -3 loadbang;
#X msg 377 346 open img/white.jpg;
#X obj -65 131 + 1;
#X obj 135 57 OSCroute /tr;
#X obj 456 169 3wayline 360 0 360 0 360 0 300;
#X obj 342 161 bng 15 250 50 0 empty empty empty 0 -6 0 8 -262144 -1
-1;
#X obj 452 -5 3wayline 6 -3 6 -3 6 -3 200;
#X obj 458 263 3wayline 1 0 1 0 1 0 300;
#X obj 454 82 3wayline 1 0 1 0 1 0;
#X obj 541 443 3wayline 1 0 1 0 1 0 300;
#X obj 556 539 3wayline 1 0 1 0 1 0 300;
#X obj 534 349 3wayline 1 0 1 0 5 0 300;
#X obj 141 396 3wayline 1 0 1 0 1 0 300;
#X obj 156 492 3wayline 1 0 1 0 1 0 300;
#X obj 139 302 3wayline 1 0 1 0 5 0 300;
#X obj 15 209 3wayline 360 0 360 0 360 0 300;
#X obj 135 84 OSCroute /sphCol;
#X connect 1 0 3 0;
#X connect 1 0 15 0;
#X connect 2 0 1 0;
#X connect 3 0 19 0;
#X connect 4 0 9 0;
#X connect 5 0 4 1;
#X connect 6 0 4 0;
#X connect 7 0 9 0;
#X connect 8 0 7 0;
#X connect 8 0 20 0;
#X connect 9 0 87 0;
#X connect 10 0 17 0;
#X connect 10 0 13 0;
#X connect 11 0 10 0;
#X connect 12 0 11 1;
#X connect 14 0 0 2;
#X connect 15 0 75 0;
#X connect 16 0 10 1;
#X connect 17 0 18 1;
#X connect 19 0 37 0;
#X connect 21 0 14 0;
#X connect 22 0 21 0;
#X connect 23 0 67 0;
#X connect 23 0 69 0;
#X connect 23 0 68 0;
#X connect 23 0 70 0;
#X connect 23 0 71 0;
#X connect 23 0 72 0;
#X connect 23 0 88 0;
#X connect 23 0 101 0;
#X connect 25 0 15 1;
#X connect 26 0 25 0;
#X connect 26 1 25 1;
#X connect 27 0 25 0;
#X connect 27 1 25 2;
#X connect 28 0 19 1;
#X connect 29 0 28 0;
#X connect 29 1 28 1;
#X connect 30 0 28 0;
#X connect 30 1 28 2;
#X connect 32 0 33 1;
#X connect 33 0 42 0;
#X connect 36 0 18 0;
#X connect 37 0 33 0;
#X connect 38 0 42 1;
#X connect 39 0 42 2;
#X connect 40 0 42 3;
#X connect 41 0 42 4;
#X connect 42 0 36 0;
#X connect 43 0 42 3;
#X connect 44 0 43 0;
#X connect 44 1 43 1;
#X connect 45 0 43 0;
#X connect 45 1 43 2;
#X connect 46 0 42 4;
#X connect 47 0 46 0;
#X connect 47 1 46 1;
#X connect 48 0 46 0;
#X connect 48 1 46 2;
#X connect 50 0 51 1;
#X connect 51 0 60 0;
#X connect 54 0 0 0;
#X connect 55 0 51 0;
#X connect 56 0 60 1;
#X connect 57 0 60 2;
#X connect 58 0 60 3;
#X connect 59 0 60 4;
#X connect 60 0 54 0;
#X connect 61 0 60 3;
#X connect 62 0 61 0;
#X connect 62 1 61 1;
#X connect 63 0 61 0;
#X connect 63 1 61 2;
#X connect 64 0 60 4;
#X connect 65 0 64 0;
#X connect 65 1 64 1;
#X connect 66 0 64 0;
#X connect 66 1 64 2;
#X connect 67 0 89 0;
#X connect 68 0 90 0;
#X connect 68 0 92 0;
#X connect 69 0 96 0;
#X connect 70 0 94 0;
#X connect 71 0 95 0;
#X connect 72 0 73 0;
#X connect 72 0 76 0;
#X connect 73 0 8 0;
#X connect 73 0 83 0;
#X connect 73 0 74 0;
#X connect 75 0 55 0;
#X connect 76 0 12 0;
#X connect 76 0 82 0;
#X connect 77 0 80 0;
#X connect 77 0 99 3;
#X connect 78 0 77 0;
#X connect 79 0 78 1;
#X connect 81 0 77 1;
#X connect 84 0 51 2;
#X connect 85 0 84 0;
#X connect 85 0 86 0;
#X connect 86 0 33 2;
#X connect 87 0 78 0;
#X connect 87 0 11 0;
#X connect 88 0 91 0;
#X connect 89 0 3 1;
#X connect 89 1 3 2;
#X connect 89 2 3 3;
#X connect 91 0 1 1;
#X connect 91 1 1 2;
#X connect 91 2 1 3;
#X connect 92 0 28 0;
#X connect 92 1 29 0;
#X connect 92 2 30 0;
#X connect 93 0 25 0;
#X connect 93 1 26 0;
#X connect 93 2 27 0;
#X connect 94 0 43 0;
#X connect 94 1 44 0;
#X connect 94 2 45 0;
#X connect 95 0 46 0;
#X connect 95 1 47 0;
#X connect 95 2 48 0;
#X connect 96 0 38 0;
#X connect 96 1 39 0;
#X connect 96 2 18 1;
#X connect 97 0 61 0;
#X connect 97 1 62 0;
#X connect 97 2 63 0;
#X connect 98 0 64 0;
#X connect 98 1 65 0;
#X connect 98 2 66 0;
#X connect 99 0 56 0;
#X connect 99 1 57 0;
#X connect 99 2 0 1;
#X connect 100 0 75 1;
#X connect 100 1 75 2;
#X connect 100 2 75 3;
#X connect 101 0 93 0;
