#N canvas 262 113 373 274 10;
#X obj 80 166 tgl 15 0 empty empty empty 17 7 0 10 -262144 -1 -1 0
1;
#X msg 22 34 trigger;
#X obj 21 167 dac~;
#X obj 22 12 bng 15 250 50 0 empty empty empty 17 7 0 10 -262144 -1
-1;
#X msg 175 58 gain \$1;
#X obj 178 20 hsl 128 15 0 1 0 0 empty \$0-gain empty -2 -8 0 10 -262144
-1 -1 10160 1;
#X floatatom 186 40 5 0 0 0 - - -;
#N canvas 602 327 196 257 INIT 0;
#X obj 7 16 loadbang;
#X obj 57 75 s \$0-gain;
#X obj 56 124 s \$0-decay;
#X obj 57 175 s \$0-click;
#X text 16 210 loading default values;
#X msg 57 153 0.4;
#X msg 56 102 0.4;
#X msg 57 52 0.8;
#X connect 0 0 7 0;
#X connect 0 0 6 0;
#X connect 0 0 5 0;
#X connect 5 0 3 0;
#X connect 6 0 2 0;
#X connect 7 0 1 0;
#X restore 15 225 pd INIT;
#X obj 19 124 cnv 15 80 25 empty empty empty 20 12 0 14 -24198 -66577
0;
#X text 52 9 <- play it;
#X text 240 58 default: 0.8;
#X msg 80 225 version 0.0.1;
#X text 192 225 Author: Roman Haefeli;
#X text 107 166 <- can be used to switch~ dsp off;
#X obj 22 128 tr808-cp~;
#X connect 1 0 14 0;
#X connect 3 0 1 0;
#X connect 4 0 14 0;
#X connect 5 0 6 0;
#X connect 5 0 4 0;
#X connect 14 0 2 0;
#X connect 14 0 2 1;
#X connect 14 1 0 0;
