#N canvas 189 114 581 539 10;
#X obj 14 10 cnv 15 200 250 empty empty empty 20 12 0 14 -233017 -66577
0;
#X msg 23 52 800 600 0 0;
#X msg 26 98 320 240 0 0;
#X msg 99 51 800 600 1440 -1;
#X msg 24 74 1024 768 0 0;
#X msg 108 71 1024 768 1440 -1;
#X msg 22 143 offset \$3 \$4;
#X msg 105 143 dimen \$1 \$2;
#X obj 38 164 t b b;
#X msg 81 210 destroy;
#X obj 142 189 tgl 15 0 empty empty empty 0 -6 0 8 -262144 -1 -1 0
1;
#X text 156 187 render;
#X msg 85 191 0;
#X msg 34 191 1;
#X obj 136 210 gemwin 20;
#X msg 21 32 640 480 0 0;
#X msg 98 31 640 480 1440 -1;
#X msg 107 95 400 300 0 0;
#X msg 16 121 1440 900 0 -1;
#X text 38 11 open window;
#X msg 121 163 lighting \$1;
#X obj 100 163 tgl 15 0 empty empty empty 0 -6 0 8 -262144 -1 -1 0
1;
#X text 192 114 fullscreen;
#X msg 24 233 create;
#X msg 112 117 800 600 -1 -1;
#X obj 263 46 print;
#X obj 14 10 cnv 15 200 250 empty empty empty 20 12 0 14 -233017 -66577
0;
#X msg 23 52 800 600 0 0;
#X msg 26 98 320 240 0 0;
#X msg 99 51 800 600 1440 -1;
#X msg 24 74 1024 768 0 0;
#X msg 108 71 1024 768 1440 -1;
#X msg 22 143 offset \$3 \$4;
#X msg 105 143 dimen \$1 \$2;
#X obj 38 164 t b b;
#X msg 81 210 destroy;
#X obj 142 189 tgl 15 0 empty empty empty 0 -6 0 8 -262144 -1 -1 0
1;
#X text 156 187 render;
#X msg 85 191 0;
#X msg 34 191 1;
#X obj 136 210 gemwin 20;
#X msg 21 32 640 480 0 0;
#X msg 98 31 640 480 1440 -1;
#X msg 107 95 400 300 0 0;
#X msg 16 121 1440 900 0 -1;
#X text 38 11 open window;
#X msg 121 163 lighting \$1;
#X obj 100 163 tgl 15 0 empty empty empty 0 -6 0 8 -262144 -1 -1 0
1;
#X text 192 114 fullscreen;
#X msg 24 233 create;
#X msg 112 117 800 600 -1 -1;
#X obj 263 46 print;
#X obj 17 584 cnv 15 170 250 empty empty empty 20 12 0 14 -228992 -66577
0;
#X obj 13 481 gemhead;
#N canvas 0 0 587 366 image 0;
#X obj 77 48 inlet;
#X obj 77 344 outlet;
#X obj 77 205 pix_image ../../doc/gem/examples/data/fractal.JPG;
#X obj 223 55 inlet;
#X msg 223 123 open \$1;
#X obj 223 100 openpanel;
#X obj 261 52 inlet;
#X connect 0 0 2 0;
#X connect 2 0 1 0;
#X connect 3 0 5 0;
#X connect 4 0 2 0;
#X connect 5 0 4 0;
#X connect 6 0 2 0;
#X restore 13 642 pd image;
#X text 78 614 open an image;
#X text 71 627 (JPEG \, TIFF \, ..);
#X obj 14 668 pix_texture;
#X obj 13 619 alpha;
#X obj 14 594 translateXYZ;
#X obj 14 793 rectangle;
#X msg 93 640 open \$1;
#X msg 179 619 img/houselights;
#X obj 29 688 3wayline 30 0 30 0 1 0 300;
#X obj 34 502 3wayline 20 -10 6 -3 20 -20 200;
#X connect 1 0 6 0;
#X connect 1 0 7 0;
#X connect 1 0 8 0;
#X connect 2 0 6 0;
#X connect 2 0 7 0;
#X connect 2 0 8 0;
#X connect 3 0 6 0;
#X connect 3 0 7 0;
#X connect 3 0 8 0;
#X connect 4 0 6 0;
#X connect 4 0 7 0;
#X connect 4 0 8 0;
#X connect 5 0 7 0;
#X connect 5 0 6 0;
#X connect 5 0 8 0;
#X connect 6 0 14 0;
#X connect 7 0 14 0;
#X connect 8 0 23 0;
#X connect 8 0 13 0;
#X connect 8 1 9 0;
#X connect 8 1 12 0;
#X connect 9 0 14 0;
#X connect 10 0 14 0;
#X connect 12 0 10 0;
#X connect 12 0 21 0;
#X connect 13 0 10 0;
#X connect 13 0 21 0;
#X connect 15 0 6 0;
#X connect 15 0 7 0;
#X connect 15 0 8 0;
#X connect 16 0 8 0;
#X connect 17 0 6 0;
#X connect 17 0 7 0;
#X connect 17 0 8 0;
#X connect 18 0 7 0;
#X connect 18 0 6 0;
#X connect 18 0 8 0;
#X connect 20 0 14 0;
#X connect 21 0 20 0;
#X connect 23 0 14 0;
#X connect 24 0 7 0;
#X connect 24 0 8 0;
#X connect 27 0 32 0;
#X connect 27 0 33 0;
#X connect 27 0 34 0;
#X connect 28 0 32 0;
#X connect 28 0 33 0;
#X connect 28 0 34 0;
#X connect 29 0 32 0;
#X connect 29 0 33 0;
#X connect 29 0 34 0;
#X connect 30 0 32 0;
#X connect 30 0 33 0;
#X connect 30 0 34 0;
#X connect 31 0 33 0;
#X connect 31 0 32 0;
#X connect 31 0 34 0;
#X connect 32 0 40 0;
#X connect 33 0 40 0;
#X connect 34 0 49 0;
#X connect 34 0 39 0;
#X connect 34 1 35 0;
#X connect 34 1 38 0;
#X connect 35 0 40 0;
#X connect 36 0 40 0;
#X connect 38 0 36 0;
#X connect 38 0 47 0;
#X connect 39 0 36 0;
#X connect 39 0 47 0;
#X connect 41 0 32 0;
#X connect 41 0 33 0;
#X connect 41 0 34 0;
#X connect 42 0 34 0;
#X connect 43 0 32 0;
#X connect 43 0 33 0;
#X connect 43 0 34 0;
#X connect 44 0 33 0;
#X connect 44 0 32 0;
#X connect 44 0 34 0;
#X connect 46 0 40 0;
#X connect 47 0 46 0;
#X connect 49 0 40 0;
#X connect 50 0 33 0;
#X connect 50 0 34 0;
#X connect 53 0 59 0;
#X connect 54 0 57 0;
#X connect 57 0 60 0;
#X connect 58 0 54 0;
#X connect 59 0 58 0;
#X connect 61 0 54 2;
#X connect 62 0 61 0;
#X connect 63 0 60 1;
#X connect 63 1 60 2;
#X connect 64 0 59 1;
#X connect 64 1 59 2;
#X connect 64 2 59 3;
