#N canvas 47 75 1660 989 10;
#X obj 65 372 ../cmp/envelope;
#X obj 672 949 dac~;
#X obj 265 594 ../cmp/mixer;
#X obj 235 373 ../cmp/envelope;
#X obj 237 245 osc~;
#X obj 264 311 osc~;
#X obj 295 269 hsl 128 15 1 128 1 0 empty empty empty -2 -8 0 10 -262144
-1 -1 0 1;
#X obj 238 338 *~;
#X obj 240 222 hsl 128 15 100 10000 1 0 empty empty empty -2 -8 0 10
-262144 -1 -1 0 1;
#X obj 264 268 int;
#X obj 264 289 mtof;
#X obj 64 252 osc~;
#X obj 91 318 osc~;
#X obj 122 276 hsl 128 15 1 128 1 0 empty empty empty -2 -8 0 10 -262144
-1 -1 0 1;
#X obj 65 345 *~;
#X obj 67 229 hsl 128 15 100 10000 1 0 empty empty empty -2 -8 0 10
-262144 -1 -1 4438 1;
#X obj 91 275 int;
#X obj 91 296 mtof;
#X obj 118 24 dumpOSC 10001;
#X obj 125 55 OSCroute /ping;
#X obj 67 106 OSCroute /1;
#X obj 76 130 OSCroute /cf;
#X obj 95 158 OSCroute /mn;
#X obj 111 184 OSCroute /t;
#X obj 227 124 OSCroute /cf;
#X obj 246 152 OSCroute /mn;
#X obj 262 178 OSCroute /t;
#X obj 218 100 OSCroute /2;
#X obj 206 541 *~ 1;
#X obj 44 514 ../cmp/flanger_st;
#X obj 283 556 *~ 1;
#X obj 555 248 bng 15 250 50 0 empty empty empty 17 7 0 10 -262144
-1 -1;
#X msg 872 178 /home/robm/media/test.wav;
#X obj 465 360 openpanel;
#X obj 465 340 bng 15 250 50 0 empty empty empty 17 7 0 10 -262144
-1 -1;
#X obj 521 435 ../cmp/sampler_st;
#X obj 522 463 hip~ 1;
#X obj 473 278 hsl 128 15 0 4e+06 0 0 empty empty empty -2 -8 0 10
-262144 -1 -1 4200 1;
#X floatatom 556 279 10 0 0 0 - - -;
#X obj 564 400 hsl 128 15 0 100000 0 0 empty empty empty -2 -8 0 10
-262144 -1 -1 0 1;
#X obj 647 401 nbx 5 14 -1e+37 1e+37 0 0 empty empty empty 0 -8 0 10
-262144 -1 -1 0 256;
#X obj 521 628 ../cmp/flanger_st;
#X obj 446 226 t b b;
#X obj 455 297 +;
#X obj 450 252 random 100000;
#X obj 1314 349 bng 15 250 50 0 empty empty empty 17 7 0 10 -262144
-1 -1;
#X obj 1250 400 openpanel;
#X obj 1250 380 bng 15 250 50 0 empty empty empty 17 7 0 10 -262144
-1 -1;
#X obj 1306 475 ../cmp/sampler_st;
#X obj 1343 348 hsl 128 15 0 1e+06 0 0 empty empty empty -2 -8 0 10
-262144 -1 -1 0 1;
#X obj 1447 439 nbx 5 14 -1e+37 1e+37 0 0 empty empty empty 0 -8 0
10 -262144 -1 -1 0 256;
#X obj 1131 727 ../cmp/mixer;
#X obj 1151 667 *~ 1;
#X obj 1396 410 bng 15 250 50 0 empty empty empty 17 7 0 10 -262144
-1 -1;
#X obj 1334 391 hsl 128 15 0 4e+06 0 0 empty empty empty -2 -8 0 10
-262144 -1 -1 5711 1;
#X obj 1386 312 metro;
#X obj 1388 292 tgl 15 0 empty empty empty 17 7 0 10 -262144 -1 -1
1 1;
#X obj 1419 288 hsl 128 15 0 8000 0 0 empty empty empty -2 -8 0 10
-262144 -1 -1 12700 1;
#X msg 1419 265 1000;
#X msg 1460 264 2000;
#X msg 1499 265 4000;
#X msg 1537 264 8000;
#X obj 1101 337 osc~;
#X obj 1132 295 hsl 128 15 1 128 1 0 empty empty empty -2 -8 0 10 -262144
-1 -1 0 1;
#X obj 1075 364 *~;
#X obj 1101 294 int;
#X obj 1101 315 mtof;
#X obj 841 108 bng 15 250 50 0 empty empty empty 17 7 0 10 -262144
-1 -1;
#X obj 1247 155 openpanel;
#X obj 1246 132 bng 15 250 50 0 empty empty empty 17 7 0 10 -262144
-1 -1;
#X obj 1303 230 ../cmp/sampler_st;
#X obj 1346 195 hsl 128 15 0 1e+06 0 0 empty empty empty -2 -8 0 10
-262144 -1 -1 0 1;
#X obj 1435 194 nbx 5 14 -1e+37 1e+37 0 0 empty empty empty 0 -8 0
10 -262144 -1 -1 0 256;
#X msg 875 127 /home/robm/media/allman_bros.wav;
#X obj 1393 165 bng 15 250 50 0 empty empty empty 17 7 0 10 -262144
-1 -1;
#X obj 1327 147 hsl 128 15 0 4e+06 0 0 empty empty empty -2 -8 0 10
-262144 -1 -1 0 1;
#X obj 1383 67 metro;
#X obj 1385 47 tgl 15 0 empty empty empty 17 7 0 10 -262144 -1 -1 0
1;
#X obj 1416 43 hsl 128 15 0 8000 0 0 empty empty empty -2 -8 0 10 -262144
-1 -1 6350 1;
#X msg 1415 17 1000;
#X msg 1456 16 2000;
#X msg 1495 17 4000;
#X obj 1158 698 *~ 1;
#X obj 1041 418 ../cmp/crossfade_st;
#X floatatom 1223 295 5 0 0 0 - - -;
#X msg 874 150 /home/robm/media/boneym-heartofgold.wav;
#X obj 1209 223 symbol;
#X floatatom 1431 390 9 0 0 0 - - -;
#X obj 1198 157 list;
#X obj 1199 187 unpack f f f f f;
#X floatatom 1431 144 9 0 0 0 - - -;
#X text 282 533 noise(2);
#X text 205 519 ping (1);
#X obj 630 887 ../cmp/crossfade_st;
#X text 1136 280 warble;
#X msg 517 217 1.3228e+06;
#X obj 520 179 loadbang;
#X msg 1085 31 2.047e+06 600000 44100 0 1;
#X msg 1086 52 2.96e+06 600000 44100 0 1;
#X msg 1086 73 3.08e+06 600000 44100 0 1;
#X obj 1521 335 spigot;
#X obj 1469 312 t b b;
#X obj 1558 312 tgl 15 0 empty empty empty 17 7 0 10 -262144 -1 -1
1 1;
#X text 1579 309 autochange;
#X obj 845 77 loadbang;
#X obj 1532 397 + 1e+06;
#X obj 1526 369 random 2.5e+06;
#X obj 311 102 bng 15 250 50 0 empty empty empty 17 7 0 10 -262144
-1 -1;
#X obj 1531 69 loadbang;
#X text 89 686 fb 46;
#X text 89 702 fbdel 255;
#X text 594 791 fbdel 433;
#X text 594 775 fb 80;
#X msg 1347 113 0 1e+06 44100 0 1;
#X msg 1563 219 1;
#X msg 555 308 1.3228e+06 8000 44100 0 1;
#X connect 0 0 29 0;
#X connect 2 0 93 0;
#X connect 2 1 93 1;
#X connect 3 0 29 0;
#X connect 4 0 7 0;
#X connect 5 0 7 1;
#X connect 6 0 9 0;
#X connect 7 0 3 0;
#X connect 8 0 4 0;
#X connect 9 0 10 0;
#X connect 10 0 5 0;
#X connect 11 0 14 0;
#X connect 12 0 14 1;
#X connect 13 0 16 0;
#X connect 14 0 0 0;
#X connect 15 0 11 0;
#X connect 16 0 17 0;
#X connect 17 0 12 0;
#X connect 18 0 19 0;
#X connect 19 0 20 0;
#X connect 19 0 27 0;
#X connect 20 0 21 0;
#X connect 20 0 22 0;
#X connect 20 0 23 0;
#X connect 21 0 15 0;
#X connect 22 0 16 0;
#X connect 23 0 0 1;
#X connect 24 0 8 0;
#X connect 25 0 9 0;
#X connect 26 0 3 1;
#X connect 26 0 42 0;
#X connect 27 0 24 0;
#X connect 27 0 25 0;
#X connect 27 0 26 0;
#X connect 27 0 107 0;
#X connect 28 0 2 1;
#X connect 28 0 2 0;
#X connect 29 0 28 0;
#X connect 30 0 2 2;
#X connect 30 0 2 3;
#X connect 31 0 115 0;
#X connect 32 0 35 0;
#X connect 33 0 35 0;
#X connect 34 0 33 0;
#X connect 35 0 36 0;
#X connect 36 0 41 0;
#X connect 37 0 38 0;
#X connect 37 0 43 1;
#X connect 39 0 35 2;
#X connect 39 0 40 0;
#X connect 41 0 30 0;
#X connect 42 0 35 4;
#X connect 42 1 44 0;
#X connect 43 0 35 1;
#X connect 44 0 43 0;
#X connect 46 0 48 0;
#X connect 47 0 46 0;
#X connect 48 0 64 0;
#X connect 48 0 83 0;
#X connect 49 0 48 2;
#X connect 49 0 50 0;
#X connect 51 0 93 2;
#X connect 51 1 93 3;
#X connect 52 0 51 0;
#X connect 52 0 51 1;
#X connect 53 0 48 4;
#X connect 54 0 48 1;
#X connect 54 0 87 0;
#X connect 55 0 101 0;
#X connect 56 0 55 0;
#X connect 57 0 55 1;
#X connect 58 0 57 0;
#X connect 59 0 57 0;
#X connect 60 0 57 0;
#X connect 61 0 57 0;
#X connect 62 0 64 1;
#X connect 63 0 65 0;
#X connect 63 0 84 0;
#X connect 64 0 83 2;
#X connect 65 0 66 0;
#X connect 66 0 62 0;
#X connect 67 0 73 0;
#X connect 67 0 32 0;
#X connect 68 0 70 0;
#X connect 69 0 68 0;
#X connect 70 0 82 0;
#X connect 71 0 70 2;
#X connect 71 0 72 0;
#X connect 73 0 86 0;
#X connect 74 0 70 4;
#X connect 75 0 70 1;
#X connect 75 0 90 0;
#X connect 76 0 74 0;
#X connect 77 0 76 0;
#X connect 78 0 76 1;
#X connect 79 0 78 0;
#X connect 80 0 78 0;
#X connect 81 0 78 0;
#X connect 82 0 51 2;
#X connect 82 0 51 3;
#X connect 83 0 52 0;
#X connect 85 0 86 0;
#X connect 86 0 70 0;
#X connect 86 0 48 0;
#X connect 88 0 70 6;
#X connect 88 0 48 6;
#X connect 88 0 89 0;
#X connect 89 0 54 0;
#X connect 89 0 75 0;
#X connect 93 0 1 0;
#X connect 93 1 1 1;
#X connect 95 0 37 0;
#X connect 96 0 95 0;
#X connect 96 0 31 0;
#X connect 97 0 88 0;
#X connect 98 0 88 0;
#X connect 99 0 88 0;
#X connect 100 0 106 0;
#X connect 101 0 53 0;
#X connect 101 1 100 0;
#X connect 102 0 100 1;
#X connect 104 0 67 0;
#X connect 105 0 54 0;
#X connect 106 0 105 0;
#X connect 108 0 61 0;
#X connect 108 0 81 0;
#X connect 108 0 113 0;
#X connect 108 0 114 0;
#X connect 113 0 70 6;
#X connect 113 0 48 6;
#X connect 114 0 102 0;
#X connect 114 0 56 0;
#X connect 115 0 35 6;
