#N canvas 824 28 955 1033 10;
#X obj 88 923 *~ 1;
#X obj 104 861 hsl 128 15 0 1 0 0 empty empty empty -2 -8 0 10 -262144
-1 -1 0 1;
#X obj 145 933 *~ 1;
#X obj 182 902 hsl 128 15 0 1 0 0 empty empty empty -2 -8 0 10 -262144
-1 -1 8100 1;
#X obj 86 980 dac~ 1 2 3 4;
#X text 193 955 channel (dac) = output \, 1 = 1 \, 2 = 2 \, 3 = 5 \,
4 = 6;
#X obj 58 77 ../cmp/multi_osc1;
#X obj 380 247 adc~;
#X obj 60 379 *~;
#X obj 103 280 hsl 128 15 0 127 0 0 empty empty empty -2 -8 0 10 -262144
-1 -1 4800 1;
#X obj 75 307 *~ 1;
#X obj 74 230 +~ 1;
#X obj 122 380 *~;
#X obj 46 922 *~ 1;
#X obj 185 932 *~ 1;
#X obj 242 113 metro 100;
#X obj 305 79 hsl 128 15 0 1000 0 0 empty empty empty -2 -8 0 10 -262144
-1 -1 9100 1;
#X obj 242 91 tgl 15 0 empty empty empty 17 7 0 10 -262144 -1 -1 1
1;
#X obj 722 859 osc~;
#X obj 725 837 hsl 128 15 0 127 0 0 empty empty empty -2 -8 0 10 -262144
-1 -1 11900 1;
#X obj 62 38 hsl 128 15 0 40 0 0 empty empty empty -2 -8 0 10 -262144
-1 -1 7500 1;
#X obj 380 287 *~ 1;
#X obj 433 246 hsl 128 15 0 1 0 0 empty empty empty -2 -8 0 10 -262144
-1 -1 3300 1;
#X obj 442 284 *~ 1;
#X obj 293 351 bp~;
#X obj 263 221 + 50;
#X floatatom 309 223 5 0 0 0 - - -;
#X obj 351 312 hsl 128 15 0 12 0 0 empty empty empty -2 -8 0 10 -262144
-1 -1 11900 1;
#X floatatom 281 316 5 0 0 0 - - -;
#X msg 261 258 \$1 50;
#X obj 260 166 random 5000;
#X obj 239 353 bp~;
#X obj 252 296 line 20 1;
#X obj 301 193 hsl 128 15 50 5000 1 0 empty empty empty -2 -8 0 10
-262144 -1 -1 4000 1;
#X floatatom 444 197 5 0 0 0 - - -;
#X obj 57 429 *~ 1;
#X obj 119 427 *~ 1;
#X text 466 311 q;
#X obj 129 651 ../cmp/mixer;
#X obj 151 468 ../cmp/echo;
#X obj 185 541 ../cmp/echo;
#X obj 402 647 ../cmp/echo;
#X obj 626 647 ../cmp/mixer;
#X obj 379 443 ../cmp/flanger;
#X obj 383 153 hsl 128 15 20 10000 1 0 empty empty empty -2 -8 0 10
-262144 -1 -1 7900 1;
#X obj 570 550 hip~ 5;
#X text 777 457 read from the table;
#X obj 616 180 loadbang;
#X obj 654 292 metro 100;
#X obj 717 258 hsl 128 15 0 10000 0 0 empty empty empty -2 -8 0 10
-262144 -1 -1 2700 1;
#X obj 654 270 tgl 15 0 empty empty empty 17 7 0 10 -262144 -1 -1 1
1;
#X obj 583 350 ../cmp/sampler_st;
#X connect 0 0 4 1;
#X connect 1 0 0 1;
#X connect 1 0 13 1;
#X connect 2 0 4 2;
#X connect 3 0 2 1;
#X connect 3 0 14 1;
#X connect 6 0 11 0;
#X connect 7 0 21 0;
#X connect 7 1 23 0;
#X connect 8 0 35 0;
#X connect 9 0 10 1;
#X connect 10 0 8 0;
#X connect 10 0 12 0;
#X connect 11 0 10 0;
#X connect 12 0 36 0;
#X connect 13 0 4 0;
#X connect 14 0 4 3;
#X connect 15 0 30 0;
#X connect 16 0 15 1;
#X connect 17 0 15 0;
#X connect 19 0 18 0;
#X connect 20 0 6 0;
#X connect 21 0 31 0;
#X connect 22 0 21 1;
#X connect 22 0 23 1;
#X connect 23 0 24 0;
#X connect 24 0 12 1;
#X connect 25 0 26 0;
#X connect 25 0 29 0;
#X connect 27 0 24 2;
#X connect 27 0 31 2;
#X connect 29 0 32 0;
#X connect 30 0 25 0;
#X connect 31 0 8 1;
#X connect 32 0 24 1;
#X connect 32 0 28 0;
#X connect 32 0 31 1;
#X connect 33 0 25 1;
#X connect 33 0 34 0;
#X connect 35 0 38 0;
#X connect 35 0 39 0;
#X connect 35 0 40 0;
#X connect 35 0 40 1;
#X connect 35 0 43 0;
#X connect 36 0 38 1;
#X connect 36 0 39 1;
#X connect 38 0 2 0;
#X connect 38 0 14 0;
#X connect 38 0 13 0;
#X connect 38 0 0 0;
#X connect 39 0 38 2;
#X connect 39 1 38 3;
#X connect 40 0 38 2;
#X connect 40 1 38 3;
#X connect 43 0 38 4;
#X connect 43 0 38 5;
#X connect 44 0 31 1;
#X connect 44 0 24 1;
#X connect 45 0 38 6;
#X connect 45 0 38 7;
#X connect 48 0 51 4;
#X connect 49 0 48 1;
#X connect 50 0 48 0;
#X connect 51 0 45 0;
