#N canvas 141 56 280 177 10;
#X obj 131 67 hsl 128 15 0 127 0 0 empty empty empty -2 -6 0 8 -262144
-1 -1 0 1;
#X obj 115 117 *~ 1;
#X obj 46 76 -;
#X floatatom 46 97 5 0 0 0 - - -;
#X obj 46 115 / 127;
#X obj 14 115 *~ 1;
#X msg 47 55 127;
#X obj 134 97 / 127;
#X obj 14 15 inlet~;
#X obj 113 14 inlet~;
#X obj 180 12 inlet;
#X msg 130 44 0;
#X obj 47 35 t b f;
#X obj 171 44 loadbang;
#X obj 79 148 outlet~;
#X connect 0 0 7 0;
#X connect 0 0 12 0;
#X connect 1 0 14 0;
#X connect 2 0 3 0;
#X connect 3 0 4 0;
#X connect 4 0 5 1;
#X connect 5 0 14 0;
#X connect 6 0 2 0;
#X connect 7 0 1 1;
#X connect 8 0 5 0;
#X connect 9 0 1 0;
#X connect 10 0 0 0;
#X connect 11 0 0 0;
#X connect 12 0 6 0;
#X connect 12 1 2 1;
#X connect 13 0 11 0;
