#N canvas 346 239 255 249 10;
#X obj 35 55 random 200;
#X obj 93 36 hsl 128 15 0 127 0 0 empty empty empty -2 -6 0 8 -262144
-1 -1 0 1;
#X obj 9 136 multi_osc;
#X obj 10 77 delay;
#X obj 9 178 *~ 1;
#X obj 9 199 outlet~;
#X text 92 35 random size;
#X floatatom 171 36 8 0 0 0 - - -;
#X obj 10 157 envelope;
#X msg 66 33 0;
#X obj 10 28 t b b;
#X obj 10 5 r beat;
#X obj 98 7 loadbang;
#X obj 10 114 sequence;
#X connect 0 0 3 1;
#X connect 1 0 0 1;
#X connect 1 0 7 0;
#X connect 2 0 8 0;
#X connect 3 0 8 1;
#X connect 3 0 13 0;
#X connect 4 0 5 0;
#X connect 8 0 4 0;
#X connect 9 0 1 0;
#X connect 10 0 3 0;
#X connect 10 1 0 0;
#X connect 11 0 10 0;
#X connect 12 0 9 0;
#X connect 13 0 2 0;
