#N canvas 0 0 282 258 10;
#X obj 34 120 *~;
#X obj 65 120 *~;
#X obj 53 69 limiter~ 50 1;
#X obj 100 96 z~ 64;
#X obj 35 93 z~ 64;
#X obj 38 39 *~ 1;
#X obj 109 42 *~ 1;
#X obj 39 11 inlet~;
#X obj 111 12 inlet~;
#X obj 185 12 inlet;
#X obj 30 149 *~;
#X obj 61 149 *~;
#X obj 102 138 hsl 128 15 0 1 0 0 empty empty empty -2 -6 0 8 -262144
-1 -1 0 1;
#X obj 91 207 outlet~;
#X obj 29 207 outlet~;
#X obj 195 61 loadbang;
#X obj 184 103 0.5;
#X connect 0 0 10 0;
#X connect 1 0 11 0;
#X connect 2 0 1 0;
#X connect 2 0 0 1;
#X connect 3 0 1 1;
#X connect 4 0 0 0;
#X connect 5 0 2 0;
#X connect 5 0 4 0;
#X connect 6 0 3 0;
#X connect 6 0 2 1;
#X connect 7 0 5 0;
#X connect 8 0 6 0;
#X connect 9 0 12 0;
#X connect 10 0 14 0;
#X connect 11 0 13 0;
#X connect 12 0 11 1;
#X connect 12 0 10 1;
#X connect 15 0 16 0;
#X connect 16 0 12 0;
