#N canvas 652 294 552 350 8;
#X obj 22 47 vsl 15 128 0 127 0 0 empty mix_pre1_i empty 0 -8 0 8 -262144
-1 -1 2800 1;
#X obj 23 184 / 64;
#X obj 59 47 vsl 15 128 0 127 0 0 empty mix_pre2_i empty 0 -8 0 8 -262144
-1 -1 500 1;
#X obj 60 184 / 64;
#X obj 95 47 vsl 15 128 0 127 0 0 empty mix_pre3_i empty 0 -8 0 8 -262144
-1 -1 0 1;
#X obj 96 184 / 64;
#X obj 131 47 vsl 15 128 0 127 0 0 empty mix_pre4_i empty 0 -8 0 8
-262144 -1 -1 0 1;
#X obj 132 184 / 64;
#X obj 191 45 vsl 15 128 0 127 0 0 empty mix_out1_i empty 0 -8 0 8
-262144 -1 -1 2800 1;
#X obj 192 182 / 64;
#X obj 232 46 vsl 15 128 0 127 0 0 empty mix_out2_i empty 0 -8 0 8
-262144 -1 -1 500 1;
#X obj 229 182 / 64;
#X obj 264 45 vsl 15 128 0 127 0 0 empty mix_out3_i empty 0 -8 0 8
-262144 -1 -1 0 1;
#X obj 265 182 / 64;
#X obj 300 45 vsl 15 128 0 127 0 0 empty mix_out4_i empty 0 -8 0 8
-262144 -1 -1 0 1;
#X obj 301 182 / 64;
#X obj 301 205 *~ 1;
#X obj 265 205 *~ 1;
#X obj 229 205 *~ 1;
#X obj 192 205 *~ 1;
#X obj 132 207 *~ 1;
#X obj 96 207 *~ 1;
#X obj 60 207 *~ 1;
#X obj 23 207 *~ 1;
#X text 238 231 output out;
#X obj 69 240 *~ 1;
#X obj 251 240 *~ 1;
#X obj 67 274 outlet~;
#X obj 248 267 outlet~;
#X obj 30 12 inlet~;
#X obj 109 11 inlet~;
#X obj 196 10 inlet~;
#X obj 256 7 inlet~;
#X obj 44 29 inlet~;
#X obj 122 27 inlet~;
#X obj 208 26 inlet~;
#X obj 267 23 inlet~;
#X obj 345 83 vsl 15 128 0 127 0 0 empty mix_out1_i empty 0 -8 0 8
-262144 -1 -1 2800 1;
#X obj 365 83 vsl 15 128 0 127 0 0 empty mix_out1_i empty 0 -8 0 8
-262144 -1 -1 500 1;
#X obj 380 83 vsl 15 128 0 127 0 0 empty mix_out1_i empty 0 -8 0 8
-262144 -1 -1 0 1;
#X obj 398 83 vsl 15 128 0 127 0 0 empty mix_out1_i empty 0 -8 0 8
-262144 -1 -1 0 1;
#X obj 352 -2 OSCroute /mix;
#X obj 331 14 OSCroute /ch1;
#X obj 317 -3 inlet;
#X floatatom 344 218 5 0 0 0 - - -;
#X floatatom 362 230 5 0 0 0 - - -;
#X floatatom 380 218 5 0 0 0 - - -;
#X floatatom 398 231 5 0 0 0 - - -;
#X obj 402 13 OSCroute /ch3;
#X obj 352 30 OSCroute /ch2;
#X obj 422 28 OSCroute /ch4;
#X msg 464 103 0;
#X obj 471 88 loadbang;
#X obj 445 147 inlet;
#X obj 472 12 OSCroute /all;
#X obj 427 -3 OSCroute /time;
#X obj 319 46 pack f f;
#X obj 373 46 pack f f;
#X obj 426 46 pack f f;
#X obj 481 45 pack f f;
#X obj 319 63 line 0 10;
#X obj 371 61 line 0 10;
#X obj 426 63 line 0 10;
#X obj 481 62 line 0 10;
#X obj 438 166 unpack f f f f f;
#X obj 481 146 bng 15 250 50 0 empty empty empty 0 -6 0 8 -262144 -1
-1;
#X connect 0 0 1 0;
#X connect 1 0 23 1;
#X connect 2 0 3 0;
#X connect 3 0 22 1;
#X connect 4 0 5 0;
#X connect 5 0 21 1;
#X connect 6 0 7 0;
#X connect 7 0 20 1;
#X connect 8 0 9 0;
#X connect 9 0 19 1;
#X connect 10 0 11 0;
#X connect 11 0 18 1;
#X connect 12 0 13 0;
#X connect 13 0 17 1;
#X connect 14 0 15 0;
#X connect 15 0 16 1;
#X connect 16 0 26 0;
#X connect 17 0 26 0;
#X connect 18 0 26 0;
#X connect 19 0 26 0;
#X connect 20 0 25 0;
#X connect 21 0 25 0;
#X connect 22 0 25 0;
#X connect 23 0 25 0;
#X connect 25 0 27 0;
#X connect 26 0 28 0;
#X connect 29 0 23 0;
#X connect 30 0 22 0;
#X connect 31 0 21 0;
#X connect 32 0 20 0;
#X connect 33 0 19 0;
#X connect 34 0 18 0;
#X connect 35 0 17 0;
#X connect 36 0 16 0;
#X connect 37 0 0 0;
#X connect 37 0 8 0;
#X connect 37 0 44 0;
#X connect 38 0 10 0;
#X connect 38 0 2 0;
#X connect 38 0 45 0;
#X connect 39 0 12 0;
#X connect 39 0 4 0;
#X connect 39 0 46 0;
#X connect 40 0 14 0;
#X connect 40 0 6 0;
#X connect 40 0 47 0;
#X connect 41 0 42 0;
#X connect 41 0 48 0;
#X connect 41 0 49 0;
#X connect 41 0 50 0;
#X connect 41 0 54 0;
#X connect 41 0 55 0;
#X connect 42 0 56 0;
#X connect 43 0 41 0;
#X connect 48 0 58 0;
#X connect 49 0 57 0;
#X connect 50 0 59 0;
#X connect 51 0 40 0;
#X connect 51 0 39 0;
#X connect 51 0 38 0;
#X connect 51 0 37 0;
#X connect 52 0 51 0;
#X connect 53 0 64 0;
#X connect 53 0 65 0;
#X connect 54 0 56 0;
#X connect 54 0 57 0;
#X connect 54 0 58 0;
#X connect 54 0 59 0;
#X connect 55 0 56 1;
#X connect 55 0 59 1;
#X connect 55 0 58 1;
#X connect 55 0 57 1;
#X connect 56 0 60 0;
#X connect 57 0 61 0;
#X connect 58 0 62 0;
#X connect 59 0 63 0;
#X connect 60 0 37 0;
#X connect 61 0 38 0;
#X connect 62 0 39 0;
#X connect 63 0 40 0;
#X connect 64 0 37 0;
#X connect 64 1 38 0;
#X connect 64 2 39 0;
#X connect 64 3 40 0;
#X connect 64 4 56 1;
#X connect 64 4 57 1;
#X connect 64 4 58 1;
#X connect 64 4 59 1;
