#N canvas 19 12 637 542 10;
#X obj -2 193 ../effects/filter_sweep;
#X obj 34 120 hsl 128 15 0.1 10000 1 0 empty empty empty -2 -6 0 8
-262144 -1 -1 0 1;
#X obj 135 174 hsl 128 15 0 127 0 0 empty empty empty -2 -6 0 8 -262144
-1 -1 0 1;
#X text 100 119 sweep_freq;
#X obj 67 138 hsl 128 15 0 5000 0 0 empty empty empty -2 -6 0 8 -262144
-1 -1 0 1;
#X text 117 137 sweep_breadth;
#X obj 100 156 hsl 128 15 20 10000 1 0 empty empty empty -2 -6 0 8
-262144 -1 -1 0 1;
#X text 170 154 sweep_min;
#X text 249 171 q;
#X obj 144 18 OSCroute /sweep;
#X obj 25 53 OSCroute /sweep;
#X obj 120 53 OSCroute /sweep;
#X obj 61 76 OSCroute /sweep;
#X obj 159 74 OSCroute /sweep;
#X obj 27 95 line;
#X obj 60 97 line;
#X obj 127 99 line;
#X obj 160 99 line;
#X obj 256 75 OSCroute /time;
#X obj 219 53 OSCroute /cross;
#X floatatom 40 120 5 0 0 0 - - -;
#X floatatom 73 137 5 0 0 0 - - -;
#X floatatom 104 157 5 0 0 0 - - -;
#X floatatom 139 175 5 0 0 0 - - -;
#X obj 222 100 line;
#X msg 23 138 0;
#X connect 1 0 0 1;
#X connect 1 0 20 0;
#X connect 1 0 25 0;
#X connect 2 0 0 4;
#X connect 2 0 23 0;
#X connect 4 0 0 2;
#X connect 4 0 21 0;
#X connect 6 0 0 3;
#X connect 6 0 22 0;
#X connect 9 0 10 0;
#X connect 9 0 11 0;
#X connect 9 0 12 0;
#X connect 9 0 13 0;
#X connect 9 0 19 0;
#X connect 9 0 18 0;
#X connect 10 0 14 0;
#X connect 11 0 16 0;
#X connect 12 0 15 0;
#X connect 13 0 17 0;
#X connect 14 0 1 0;
#X connect 15 0 4 0;
#X connect 16 0 6 0;
#X connect 17 0 2 0;
#X connect 18 0 17 1;
#X connect 18 0 16 1;
#X connect 18 0 15 1;
#X connect 18 0 14 1;
#X connect 18 0 24 1;
#X connect 19 0 24 0;
#X connect 25 0 0 1;
