#N canvas 745 255 593 520 8;
#X obj 37 44 inlet;
#X obj 265 456 *~ 1;
#X obj 308 458 *~ 1;
#X obj 44 86 OSCroute /drums;
#X obj 156 116 bng 15 250 50 0 empty empty empty 0 -6 0 8 -262144 -1
-1;
#X obj 263 484 outlet~;
#X obj 317 485 outlet~;
#X obj 156 137 bng 15 250 50 0 empty empty empty 0 -6 0 8 -262144 -1
-1;
#X obj 152 166 bng 15 250 50 0 empty empty empty 0 -6 0 8 -262144 -1
-1;
#X obj 155 190 bng 15 250 50 0 empty empty empty 0 -6 0 8 -262144 -1
-1;
#X obj 155 214 bng 15 250 50 0 empty empty empty 0 -6 0 8 -262144 -1
-1;
#X obj 153 234 bng 15 250 50 0 empty empty empty 0 -6 0 8 -262144 -1
-1;
#X obj 44 114 OSCroute /sampler1;
#X obj 44 137 OSCroute /sampler2;
#X obj 43 166 OSCroute /sampler3;
#X obj 44 191 OSCroute /sampler4;
#X obj 40 215 OSCroute /sampler5;
#X obj 40 235 OSCroute /sampler6;
#X obj 98 53 bng 15 250 50 0 empty empty empty 0 -6 0 8 -262144 -1
-1;
#X obj 136 62 print in;
#X obj 220 92 outlet;
#X obj 173 119 ../effects/sampler_st_osc;
#X obj 153 265 bng 15 250 50 0 empty empty empty 0 -6 0 8 -262144 -1
-1;
#X obj 151 285 bng 15 250 50 0 empty empty empty 0 -6 0 8 -262144 -1
-1;
#X obj 38 266 OSCroute /sampler7;
#X obj 38 287 OSCroute /sampler8;
#X obj 414 228 OSCroute /mix2;
#X obj 299 42 loadbang;
#X msg 299 58 10 10 10 10;
#X obj 173 142 ../effects/sampler_st_osc;
#X obj 172 166 ../effects/sampler_st_osc;
#X obj 177 189 ../effects/sampler_st_osc;
#X obj 177 210 ../effects/sampler_st_osc;
#X obj 174 236 ../effects/sampler_st_osc;
#X obj 175 261 ../effects/sampler_st_osc;
#X obj 172 287 ../effects/sampler_st_osc;
#X obj 368 184 ../effects/mixer \$1 1;
#X obj 360 263 ../effects/mixer \$1 2;
#X connect 0 0 3 0;
#X connect 0 0 18 0;
#X connect 0 0 19 0;
#X connect 0 0 24 0;
#X connect 0 0 25 0;
#X connect 1 0 5 0;
#X connect 2 0 6 0;
#X connect 3 0 12 0;
#X connect 3 0 13 0;
#X connect 3 0 14 0;
#X connect 3 0 15 0;
#X connect 3 0 16 0;
#X connect 3 0 17 0;
#X connect 3 0 20 0;
#X connect 3 0 26 0;
#X connect 3 0 36 8;
#X connect 12 0 4 0;
#X connect 12 0 21 0;
#X connect 13 0 7 0;
#X connect 13 0 29 0;
#X connect 14 0 8 0;
#X connect 14 0 30 0;
#X connect 15 0 9 0;
#X connect 15 0 31 0;
#X connect 16 0 10 0;
#X connect 16 0 32 0;
#X connect 17 0 11 0;
#X connect 17 0 33 0;
#X connect 21 0 36 0;
#X connect 21 1 36 1;
#X connect 24 0 22 0;
#X connect 24 0 34 0;
#X connect 25 0 23 0;
#X connect 25 0 35 0;
#X connect 26 0 37 8;
#X connect 27 0 28 0;
#X connect 28 0 36 9;
#X connect 28 0 37 9;
#X connect 29 0 36 2;
#X connect 29 1 36 3;
#X connect 30 0 36 4;
#X connect 30 1 36 5;
#X connect 31 0 36 6;
#X connect 31 1 36 7;
#X connect 32 0 37 0;
#X connect 32 1 37 1;
#X connect 33 0 37 2;
#X connect 33 1 37 3;
#X connect 34 0 37 4;
#X connect 34 1 37 5;
#X connect 35 0 37 6;
#X connect 35 1 37 7;
#X connect 36 0 1 0;
#X connect 36 1 2 0;
#X connect 37 0 1 0;
#X connect 37 1 2 0;
