#N canvas 53 397 552 419 10;
#X obj 57 189 line~;
#X obj 56 227 osc~;
#X obj 176 59 bng 15 250 50 0 empty empty empty 0 -6 0 8 -262144 -1
-1;
#X obj 176 195 line~;
#X obj 152 230 *~;
#X obj 152 254 *~;
#X obj 176 114 del 10;
#X msg 221 115 1 \$1;
#X msg 176 167 0 \$1;
#X floatatom 207 89 5 0 0 0 - - -;
#X floatatom 176 145 5 0 0 0 - - -;
#X obj 112 8 inlet;
#X obj 69 8 inlet;
#X obj 53 316 *~;
#X obj 54 375 outlet~;
#X msg 56 153 \$1 \, \$2 \$3;
#X obj 56 121 pack 220 50 30;
#X obj 32 97 bng 15 250 50 0 empty empty empty 0 -6 0 8 -262144 -1
-1;
#X floatatom 56 56 5 0 0 0 - - -;
#X floatatom 95 72 5 0 0 0 - - -;
#X floatatom 136 95 5 0 0 0 - - -;
#X obj 188 7 unpack 0 0 0 0 0 0;
#X floatatom 107 188 5 0 0 0 - - -;
#X obj 207 48 loadbang;
#X msg 207 69 3;
#X obj 54 350 *~;
#X text 75 350 volume;
#X connect 0 0 1 0;
#X connect 1 0 13 0;
#X connect 2 0 6 0;
#X connect 2 0 9 0;
#X connect 2 0 16 0;
#X connect 3 0 4 0;
#X connect 3 0 4 1;
#X connect 4 0 5 0;
#X connect 4 0 5 1;
#X connect 5 0 13 1;
#X connect 6 0 10 0;
#X connect 7 0 3 0;
#X connect 8 0 3 0;
#X connect 9 0 6 1;
#X connect 9 0 7 0;
#X connect 10 0 8 0;
#X connect 11 0 21 0;
#X connect 12 0 2 0;
#X connect 13 0 25 0;
#X connect 15 0 0 0;
#X connect 16 0 15 0;
#X connect 17 0 16 0;
#X connect 18 0 16 0;
#X connect 19 0 16 1;
#X connect 20 0 16 2;
#X connect 21 1 10 0;
#X connect 21 2 18 0;
#X connect 21 3 19 0;
#X connect 21 4 20 0;
#X connect 21 5 25 1;
#X connect 22 0 1 1;
#X connect 23 0 24 0;
#X connect 24 0 9 0;
#X connect 25 0 14 0;
