#N canvas 635 43 525 557 10;
#X obj 114 26 bng 15 250 50 0 empty empty empty 0 -6 0 8 -262144 -1
-1;
#X obj 112 154 line~;
#X obj 29 152 noise~;
#X obj 30 184 *~;
#X obj 357 211 hsl 128 15 0 1 0 0 empty empty empty -2 -6 0 8 -262144
-1 -1 0 1;
#X obj 31 444 *~ 0;
#X obj 37 306 lop~;
#X obj 331 194 hsl 128 15 20 5000 0 0 empty empty empty -2 -6 0 8 -262144
-1 -1 0 1;
#X obj 38 241 hip~;
#X obj 78 304 +;
#X obj 317 176 hsl 128 15 20 5000 1 0 empty empty empty -2 -6 0 8 -262144
-1 -1 0 1;
#X obj 78 254 bng 15 250 50 0 empty empty empty 0 -6 0 8 -262144 -1
-1;
#X obj 88 189 *~;
#X obj 88 213 *~;
#X obj 114 80 del 10;
#X obj 278 138 hsl 128 15 0 127 0 0 empty empty empty -2 -6 0 8 -262144
-1 -1 0 1;
#X obj 298 156 hsl 128 15 0 2000 0 0 empty empty empty -2 -6 0 8 -262144
-1 -1 0 1;
#X msg 69 45 1 \$1;
#X msg 129 129 0 \$1;
#X obj 125 -32 unpack 0 0 0 0 0;
#X floatatom 141 47 5 0 0 0 - - -;
#X floatatom 133 102 5 0 0 0 - - -;
#X floatatom 112 236 5 0 0 0 - - -;
#X floatatom 94 279 5 0 0 0 - - -;
#X floatatom 92 336 5 0 0 0 - - -;
#X obj 276 231 pack 0 0 0 0 0;
#X obj 254 226 bng 15 250 50 0 empty empty empty 0 -6 0 8 -262144 -1
-1;
#X obj 321 452 list;
#X obj 49 -31 inlet;
#X obj 6 -31 inlet;
#X msg 252 -34 100 1000 3531 4451 1;
#X obj 261 59 loadbang;
#X msg 380 -35 100 1000 30 200 1;
#X obj 134 278 del 1;
#X obj 61 477 outlet~;
#X floatatom 111 308 5 0 0 0 - - -;
#X obj 37 340 lop~;
#X obj 38 262 hip~;
#X msg 257 84 3;
#X connect 0 0 14 0;
#X connect 0 0 20 0;
#X connect 1 0 12 0;
#X connect 1 0 12 1;
#X connect 2 0 3 0;
#X connect 3 0 8 0;
#X connect 4 0 25 4;
#X connect 4 0 26 0;
#X connect 5 0 34 0;
#X connect 6 0 36 0;
#X connect 7 0 25 3;
#X connect 7 0 26 0;
#X connect 8 0 37 0;
#X connect 9 0 6 1;
#X connect 9 0 35 0;
#X connect 9 0 36 1;
#X connect 10 0 25 2;
#X connect 10 0 26 0;
#X connect 11 0 9 0;
#X connect 12 0 13 0;
#X connect 12 0 13 1;
#X connect 13 0 3 1;
#X connect 14 0 21 0;
#X connect 15 0 25 0;
#X connect 16 0 25 1;
#X connect 16 0 26 0;
#X connect 17 0 1 0;
#X connect 18 0 1 0;
#X connect 19 1 21 0;
#X connect 19 2 22 0;
#X connect 19 3 23 0;
#X connect 19 4 24 0;
#X connect 20 0 14 1;
#X connect 20 0 17 0;
#X connect 21 0 18 0;
#X connect 22 0 11 0;
#X connect 22 0 9 1;
#X connect 22 0 8 1;
#X connect 22 0 37 1;
#X connect 23 0 9 0;
#X connect 23 0 33 0;
#X connect 24 0 5 1;
#X connect 25 0 27 0;
#X connect 25 0 19 0;
#X connect 26 0 25 0;
#X connect 28 0 19 0;
#X connect 29 0 0 0;
#X connect 30 0 19 0;
#X connect 31 0 38 0;
#X connect 32 0 19 0;
#X connect 33 0 11 0;
#X connect 36 0 5 0;
#X connect 37 0 6 0;
#X connect 38 0 17 0;
