#N canvas 564 465 355 307 10;
#X obj 135 176 wrap~;
#X obj 119 217 -~;
#X obj 135 156 +~ 0.1;
#X obj 135 197 -~ 0.1;
#X obj 28 176 wrap~;
#X obj 12 217 -~;
#X obj 28 156 +~ 0.1;
#X obj 28 197 -~ 0.1;
#X obj 12 136 *~ 127;
#X obj 119 136 *~ 127;
#X obj 119 237 /~ 127;
#X obj 12 237 /~ 127;
#X obj 12 64 inlet~;
#X obj 118 65 inlet~;
#X obj 11 279 outlet~;
#X obj 120 279 outlet~;
#X obj 194 64 inlet;
#X obj 6 15 hsl 128 15 1 1024 1 0 empty empty bits 2 8 1 10 -203904
-4160 -1 2500 1;
#X floatatom 103 18 5 0 0 0 - - -;
#X floatatom 201 232 5 0 0 0 - - -;
#X obj 195 195 + 0;
#X floatatom 199 40 5 0 0 0 - - -;
#X obj 181 18 int 0;
#X floatatom 182 0 5 0 0 0 - - -;
#X obj 245 65 OSCroute /bits;
#X obj 244 35 inlet;
#X obj 245 93 line 0 10;
#X connect 0 0 3 0;
#X connect 1 0 10 0;
#X connect 2 0 0 0;
#X connect 3 0 1 1;
#X connect 4 0 7 0;
#X connect 5 0 11 0;
#X connect 6 0 4 0;
#X connect 7 0 5 1;
#X connect 8 0 6 0;
#X connect 8 0 5 0;
#X connect 9 0 2 0;
#X connect 9 0 1 0;
#X connect 10 0 15 0;
#X connect 11 0 14 0;
#X connect 12 0 8 0;
#X connect 13 0 9 0;
#X connect 16 0 26 0;
#X connect 17 0 23 0;
#X connect 20 0 8 1;
#X connect 20 0 9 1;
#X connect 20 0 10 1;
#X connect 20 0 11 1;
#X connect 20 0 19 0;
#X connect 21 0 18 0;
#X connect 22 0 20 0;
#X connect 22 0 21 0;
#X connect 23 0 22 0;
#X connect 24 0 26 0;
#X connect 25 0 24 0;
#X connect 26 0 17 0;
#X coords 0 -1 1 1 140 50 1 0 0;
