#N canvas 19 244 624 587 10;
#X obj 193 212 moses;
#X floatatom 89 260 5 0 0 0 - - -;
#X floatatom 278 289 5 0 0 0 - - -;
#X floatatom 193 191 5 0 0 0 - - -;
#X obj 318 262 hsl 128 15 1 100 0 0 empty empty empty -2 -6 0 8 -262144
-1 -1 11100 1;
#X floatatom 414 264 5 0 0 0 - - -;
#X obj 318 290 hsl 128 15 0 3 0 0 empty empty empty -2 -6 0 8 -262144
-1 -1 12700 1;
#X floatatom 413 290 5 0 0 0 - - -;
#X obj 417 388 hsl 128 15 1 110 0 0 empty empty empty -2 -6 0 8 -262144
-1 -1 11600 1;
#X floatatom 515 389 5 0 0 0 - - -;
#X text 322 263 threshold;
#X text 317 288 compr ratio;
#X text 421 388 limit;
#X obj 273 309 -;
#X floatatom 297 310 5 0 0 0 - - -;
#X obj 273 352 +;
#X obj 273 330 *;
#X floatatom 298 332 5 0 0 0 - - -;
#X floatatom 298 353 5 0 0 0 - - -;
#X obj 273 374 /;
#X floatatom 390 414 5 0 0 0 - - -;
#X msg 202 308 1;
#X obj 202 329 bng 15 250 50 0 empty empty empty 0 -6 0 8 -262144 -1
-1;
#X obj 427 413 bng 15 250 50 0 empty empty empty 0 -6 0 8 -262144 -1
-1;
#X obj 89 277 moses;
#X obj 122 361 hsl 128 15 1 100 0 0 empty empty empty -2 -6 0 8 -262144
-1 -1 9000 1;
#X floatatom 218 361 5 0 0 0 - - -;
#X obj 121 386 hsl 128 15 -10 0 0 0 empty empty empty -2 -6 0 8 -262144
-1 -1 5700 1;
#X floatatom 216 387 5 0 0 0 - - -;
#X text 122 385 exp ratio;
#X text 126 359 low threshold;
#X obj 89 312 bng 15 250 50 0 empty empty empty 0 -6 0 8 -262144 -1
-1;
#X floatatom 82 364 5 0 0 0 - - -;
#X obj 63 409 -;
#X floatatom 88 411 5 0 0 0 - - -;
#X obj 63 451 +;
#X obj 63 430 *;
#X floatatom 88 432 5 0 0 0 - - -;
#X floatatom 89 454 5 0 0 0 - - -;
#X obj 63 472 /;
#X floatatom 89 475 5 0 0 0 - - -;
#X obj 63 389 bng 15 250 50 0 empty empty empty 0 -6 0 8 -262144 -1
-1;
#X floatatom 202 516 5 0 0 0 - - -;
#X text 332 329 x compr ratio.;
#X text 331 353 + threshold;
#X text 125 451 + threshold;
#X obj 390 456 moses;
#X obj 415 549 /;
#X obj 415 521 t b f;
#X obj 451 521 bng 15 250 50 0 empty empty empty 0 -6 0 8 -262144 -1
-1;
#X msg 315 66 0.153 0.11 0.023 1.22 0.242;
#X obj 315 130 unpack f f f f f;
#X obj 390 434 *;
#X floatatom 418 434 5 0 0 0 - - -;
#X msg 390 477 1;
#X obj 390 499 *;
#X obj 219 237 bng 15 250 50 0 empty empty empty 0 -6 0 8 -262144 -1
-1;
#X text 331 312 level - thrshhold;
#X text 295 374 / level;
#X text 271 393 gain;
#X text 452 432 output level;
#X text 441 549 limit / level;
#X msg 415 478 1;
#X obj 415 500 *;
#X obj 355 497 bng 15 250 50 0 empty empty empty 0 -6 0 8 -262144 -1
-1;
#X obj 113 214 max;
#X floatatom 126 197 5 0 0 0 - - -;
#X msg 126 176 0;
#X text 124 430 x exp ratio.;
#X obj 127 98 inlet;
#X obj 251 98 inlet;
#X obj 294 98 inlet;
#X obj 169 98 inlet;
#X obj 211 98 inlet;
#X obj 333 98 inlet;
#X obj 202 534 outlet;
#X text 123 410 thrshhold - level;
#X text 127 473 / level;
#X connect 0 0 1 0;
#X connect 0 0 65 0;
#X connect 0 1 2 0;
#X connect 0 1 56 0;
#X connect 1 0 24 0;
#X connect 2 0 13 0;
#X connect 2 0 19 1;
#X connect 3 0 0 0;
#X connect 3 0 52 1;
#X connect 3 0 63 1;
#X connect 4 0 5 0;
#X connect 4 0 0 1;
#X connect 4 0 13 1;
#X connect 4 0 15 1;
#X connect 6 0 7 0;
#X connect 6 0 16 1;
#X connect 8 0 9 0;
#X connect 8 0 46 1;
#X connect 8 0 47 0;
#X connect 13 0 14 0;
#X connect 13 0 16 0;
#X connect 15 0 18 0;
#X connect 15 0 19 0;
#X connect 16 0 17 0;
#X connect 16 0 15 0;
#X connect 19 0 20 0;
#X connect 19 0 55 1;
#X connect 20 0 23 0;
#X connect 20 0 52 0;
#X connect 21 0 22 0;
#X connect 21 0 42 0;
#X connect 24 0 32 0;
#X connect 24 0 31 0;
#X connect 24 1 21 0;
#X connect 25 0 26 0;
#X connect 25 0 24 1;
#X connect 25 0 35 1;
#X connect 25 0 33 0;
#X connect 27 0 28 0;
#X connect 27 0 36 1;
#X connect 32 0 39 1;
#X connect 32 0 41 0;
#X connect 32 0 33 1;
#X connect 33 0 34 0;
#X connect 33 0 36 0;
#X connect 35 0 38 0;
#X connect 35 0 39 0;
#X connect 36 0 37 0;
#X connect 36 0 35 0;
#X connect 39 0 40 0;
#X connect 39 0 42 0;
#X connect 41 0 33 0;
#X connect 42 0 75 0;
#X connect 46 0 54 0;
#X connect 46 1 62 0;
#X connect 47 0 42 0;
#X connect 48 0 47 0;
#X connect 48 0 49 0;
#X connect 48 1 47 1;
#X connect 50 0 51 0;
#X connect 51 0 4 0;
#X connect 51 1 6 0;
#X connect 51 2 25 0;
#X connect 51 3 27 0;
#X connect 51 4 8 0;
#X connect 52 0 46 0;
#X connect 52 0 53 0;
#X connect 54 0 55 0;
#X connect 54 0 64 0;
#X connect 55 0 42 0;
#X connect 62 0 63 0;
#X connect 63 0 48 0;
#X connect 65 0 66 0;
#X connect 66 0 65 1;
#X connect 67 0 66 0;
#X connect 69 0 3 0;
#X connect 70 0 25 0;
#X connect 71 0 27 0;
#X connect 72 0 4 0;
#X connect 73 0 6 0;
#X connect 74 0 8 0;
