#N canvas 140 90 365 324 10;
#X obj 131 79 hsl 128 15 0 127 0 0 empty empty x -2 8 1 8 -260818 -258699
-143491 0 1;
#X obj 89 142 *~ 1;
#X obj 46 76 -;
#X floatatom 46 97 5 0 0 0 - - -;
#X obj 47 116 / 127;
#X obj 13 141 *~ 1;
#X msg 47 55 127;
#X obj 128 98 / 127;
#X obj 14 15 inlet~;
#X obj 113 14 inlet~;
#X obj 212 12 inlet;
#X msg 130 56 0;
#X obj 47 35 t b f;
#X obj 130 36 loadbang;
#X obj 57 175 outlet~;
#X obj 164 141 *~ 1;
#X obj 124 142 *~ 1;
#X obj 64 13 inlet~;
#X obj 163 12 inlet~;
#X obj 134 176 outlet~;
#X text 218 78 xfade;
#X connect 0 0 7 0;
#X connect 0 0 12 0;
#X connect 1 0 14 0;
#X connect 2 0 3 0;
#X connect 3 0 4 0;
#X connect 4 0 5 1;
#X connect 4 0 16 1;
#X connect 5 0 14 0;
#X connect 6 0 2 0;
#X connect 7 0 1 1;
#X connect 7 0 15 1;
#X connect 8 0 5 0;
#X connect 9 0 1 0;
#X connect 10 0 0 0;
#X connect 11 0 0 0;
#X connect 12 0 6 0;
#X connect 12 1 2 1;
#X connect 13 0 11 0;
#X connect 15 0 19 0;
#X connect 16 0 19 0;
#X connect 17 0 16 0;
#X connect 18 0 15 0;
#X coords 0 -1 1 1 150 20 1 120 77;
