#N canvas 156 91 462 312 10;
#X obj 121 26 inlet~;
#X obj 142 238 outlet~;
#X obj 142 188 clip~ -1 1;
#X obj 140 126 *~ 1;
#X obj 59 26 inlet~;
#X obj 64 240 outlet~;
#X obj 64 190 clip~ -1 1;
#X obj 59 123 *~ 1;
#X obj 177 107 hsl 128 15 0.2 20 1 0 empty empty empty -2 -6 0 8 -262144
-1 -1 4438 1;
#X obj 176 151 * -1;
#X obj 179 129 hsl 128 15 0 1 0 0 empty empty empty -2 -6 0 8 -262144
-1 -1 12700 1;
#X text 274 128 clip;
#X floatatom 187 128 5 0 0 0 - - -;
#X floatatom 182 107 5 0 0 0 - - -;
#X text 240 106 overdrive;
#X obj 260 15 inlet;
#X obj 259 42 OSCroute /overdrive;
#X obj 278 66 OSCroute /clip;
#X obj 338 138 1;
#X obj 338 116 loadbang;
#X obj 172 17 inlet;
#X obj 213 17 inlet;
#X connect 0 0 3 0;
#X connect 2 0 1 0;
#X connect 3 0 2 0;
#X connect 4 0 7 0;
#X connect 6 0 5 0;
#X connect 7 0 6 0;
#X connect 8 0 3 1;
#X connect 8 0 7 1;
#X connect 8 0 13 0;
#X connect 9 0 2 1;
#X connect 9 0 6 1;
#X connect 10 0 2 2;
#X connect 10 0 6 2;
#X connect 10 0 9 0;
#X connect 10 0 12 0;
#X connect 15 0 17 0;
#X connect 15 0 16 0;
#X connect 16 0 13 0;
#X connect 17 0 10 0;
#X connect 18 0 10 0;
#X connect 18 0 8 0;
#X connect 19 0 18 0;
#X connect 20 0 8 0;
#X connect 21 0 10 0;
#X coords 0 -1 1 1 150 50 1 170 97;
