#N canvas 642 182 513 585 10;
#X floatatom 181 212 5 0 0 0 - - -;
#X floatatom 245 216 5 0 0 0 - - -;
#X floatatom 266 292 5 0 0 0 - - -;
#X floatatom 327 194 5 0 0 0 - - -;
#X obj 183 256 pack 10 200;
#X obj 266 242 del;
#X obj 270 116 bng 15 250 50 0 empty empty empty 0 -6 0 8 -262144 -1
-1;
#X obj 266 309 pack 1 2500;
#X msg 378 278 0;
#X floatatom 433 280 5 0 0 0 - - -;
#X obj 378 304 pack 0 200;
#X obj 378 254 del;
#X obj 54 65 hsl 128 15 1 20 0 0 empty empty empty -2 -6 0 8 -262144
-1 -1 0 1;
#X obj 54 84 hsl 128 15 1 200 0 0 empty empty empty -2 -6 0 8 -262144
-1 -1 0 1;
#X obj 52 104 hsl 128 15 0 20 0 0 empty empty empty -2 -6 0 8 -262144
-1 -1 0 1;
#X obj 53 123 hsl 128 15 10 1500 0 0 empty empty empty -2 -6 0 8 -262144
-1 -1 0 1;
#X obj 53 144 hsl 128 15 0 500 0 0 empty empty empty -2 -6 0 8 -262144
-1 -1 0 1;
#X text 55 64 attack gain;
#X text 56 83 attack time;
#X text 53 103 sustain gain;
#X text 52 121 sustain time;
#X text 54 143 decay time;
#X text 194 272 attack;
#X text 272 321 sustain;
#X text 377 319 decay;
#X floatatom 151 65 5 0 0 0 - - -;
#X floatatom 151 86 5 0 0 0 - - -;
#X floatatom 149 106 5 0 0 0 - - -;
#X floatatom 150 124 5 0 0 0 - - -;
#X floatatom 151 143 5 0 0 0 - - -;
#X obj 269 275 * 1;
#X msg 266 258 1;
#X floatatom 173 242 5 0 0 0 - - -;
#X obj 171 226 * 1;
#X msg 155 208 1;
#X obj 237 418 outlet;
#X text 80 457 MUST divide output by 10 for gain beetween 0 and 1;
#X obj 231 23 inlet;
#X connect 0 0 33 1;
#X connect 1 0 4 1;
#X connect 1 0 5 1;
#X connect 2 0 7 0;
#X connect 3 0 7 1;
#X connect 3 0 11 1;
#X connect 4 0 35 0;
#X connect 5 0 11 0;
#X connect 5 0 31 0;
#X connect 6 0 0 0;
#X connect 6 0 5 0;
#X connect 6 0 34 0;
#X connect 7 0 35 0;
#X connect 8 0 10 0;
#X connect 9 0 10 1;
#X connect 10 0 35 0;
#X connect 11 0 8 0;
#X connect 12 0 0 0;
#X connect 12 0 25 0;
#X connect 13 0 1 0;
#X connect 13 0 26 0;
#X connect 14 0 27 0;
#X connect 14 0 30 1;
#X connect 15 0 3 0;
#X connect 15 0 28 0;
#X connect 16 0 9 0;
#X connect 16 0 29 0;
#X connect 30 0 2 0;
#X connect 31 0 30 0;
#X connect 32 0 4 0;
#X connect 33 0 32 0;
#X connect 34 0 33 0;
#X connect 37 0 6 0;
#X coords 0 -1 1 1 150 120 1 40 50;
