#N canvas 139 271 656 593 8;
#X floatatom 181 212 5 0 0 0 - - -;
#X floatatom 245 216 5 0 0 0 - - -;
#X floatatom 266 292 5 0 0 0 - - -;
#X floatatom 327 194 5 0 0 0 - - -;
#X obj 183 256 pack 10 200;
#X obj 266 242 del;
#X obj 264 185 bng 15 250 50 0 empty empty empty 0 -6 0 8 -262144 -1
-1;
#X obj 266 309 pack 1 2500;
#X msg 378 278 0;
#X floatatom 433 280 5 0 0 0 - - -;
#X obj 271 525 *~;
#X obj 266 351 line~;
#X obj 378 304 pack 0 200;
#X obj 378 254 del;
#X obj 266 373 /~ 10;
#X obj 51 29 unpack 0 0 0 0 0;
#X msg 196 69 10 100 4 600 300;
#X msg 194 49 10 5 5 100 100;
#X msg 194 29 10 5 5 300 50;
#X msg 196 89 10 6 5 20 10;
#X obj 54 65 hsl 128 15 1 20 0 0 empty empty ag -2 8 0 8 -166441 -66577
-143491 6016 1;
#X obj 53 84 hsl 128 15 1 200 0 0 empty empty at -2 8 1 8 -166441 -66577
-143491 0 1;
#X obj 52 104 hsl 128 15 0 20 0 0 empty empty sg -2 8 1 8 -99865 -241291
-260818 3175 1;
#X obj 53 123 hsl 128 15 10 1500 0 0 empty empty st -2 8 1 8 -99865
-241291 -260818 3333 1;
#X obj 53 144 hsl 128 15 0 500 0 0 empty empty dt -2 8 1 8 -66577 -24198
-250685 2540 1;
#X text 78 66 attack gain;
#X text 72 83 attack time;
#X text 83 103 sustain gain;
#X text 82 121 sustain time;
#X text 81 142 decay time;
#X text 194 272 attack;
#X text 272 321 sustain;
#X text 377 319 decay;
#X floatatom 151 65 5 0 0 0 - - -;
#X floatatom 150 86 5 0 0 0 - - -;
#X floatatom 149 106 5 0 0 0 - - -;
#X floatatom 150 124 5 0 0 0 - - -;
#X floatatom 151 143 5 0 0 0 - - -;
#X obj 30 289 pack 0 0 0 0 0;
#X obj 51 492 qlist;
#X obj 53 332 openpanel;
#X obj 53 352 symbol;
#X msg 53 373 read \$1;
#X obj 110 332 savepanel;
#X obj 53 313 bng 15 250 50 0 empty empty empty 0 -6 0 8 -262144 -1
-1;
#X msg 30 419 add \$1 \$2 \$3 \$4 \$5;
#X obj 110 352 symbol;
#X msg 110 373 write \$1;
#X obj 110 311 bng 15 250 50 0 empty empty empty 0 -6 0 8 -262144 -1
-1;
#X msg 87 464 print;
#X obj 29 261 bng 15 250 50 0 empty empty empty 0 -6 0 8 -262144 -1
-1;
#X obj 31 441 print;
#X obj 270 555 outlet~;
#X obj 19 6 inlet~;
#X obj 264 161 inlet;
#X obj 300 33 loadbang;
#X obj 365 6 inlet;
#X text 416 41 input envelope;
#X text 414 54 5 param:-;
#X text 412 66 1 attack gain;
#X text 412 119 5 decay time.;
#X text 414 105 4 sustain time.;
#X text 414 91 3 sustain gain.;
#X text 412 79 2 atack time.;
#X obj 205 149 del 1;
#X obj 205 127 bng 15 250 50 0 empty empty empty 0 -6 0 8 -262144 -1
-1;
#X obj 373 550 outlet;
#X text 335 107 trigger;
#X text 365 26 input env params;
#X text 63 7 audio in;
#X obj 502 8 inlet;
#X obj 534 41 OSCroute /ag;
#X obj 534 86 OSCroute /sg;
#X obj 534 128 OSCroute /dt;
#X obj 534 166 OSCroute /t;
#X obj 536 191 OSCroute /s;
#X obj 536 211 unpack f f f f f;
#X obj 269 275 * 1;
#X msg 266 258 1;
#X floatatom 173 242 5 0 0 0 - - -;
#X obj 171 226 * 1;
#X msg 155 208 1;
#X obj 617 41 bng 15 250 50 0 empty empty empty 17 7 0 10 -262144 -1
-1;
#X obj 621 65 bng 15 250 50 0 empty empty empty 17 7 0 10 -262144 -1
-1;
#X obj 619 89 bng 15 250 50 0 empty empty empty 17 7 0 10 -262144 -1
-1;
#X obj 617 113 bng 15 250 50 0 empty empty empty 17 7 0 10 -262144
-1 -1;
#X obj 618 134 bng 15 250 50 0 empty empty empty 17 7 0 10 -262144
-1 -1;
#X obj 617 168 bng 15 250 50 0 empty empty empty 17 7 0 10 -262144
-1 -1;
#X obj 618 189 bng 15 250 50 0 empty empty empty 17 7 0 10 -262144
-1 -1;
#X obj 614 21 bng 15 250 50 0 empty empty empty 17 7 0 10 -262144 -1
-1;
#X obj 536 108 OSCroute /st;
#X obj 537 63 OSCroute /at;
#X connect 0 0 80 1;
#X connect 1 0 4 1;
#X connect 1 0 5 1;
#X connect 2 0 7 0;
#X connect 3 0 7 1;
#X connect 3 0 13 1;
#X connect 4 0 11 0;
#X connect 5 0 13 0;
#X connect 5 0 78 0;
#X connect 6 0 0 0;
#X connect 6 0 5 0;
#X connect 6 0 81 0;
#X connect 7 0 11 0;
#X connect 8 0 12 0;
#X connect 9 0 12 1;
#X connect 10 0 52 0;
#X connect 11 0 14 0;
#X connect 12 0 11 0;
#X connect 13 0 8 0;
#X connect 14 0 10 1;
#X connect 15 0 20 0;
#X connect 15 1 21 0;
#X connect 15 2 22 0;
#X connect 15 3 23 0;
#X connect 15 4 24 0;
#X connect 16 0 15 0;
#X connect 16 0 65 0;
#X connect 17 0 15 0;
#X connect 17 0 65 0;
#X connect 18 0 15 0;
#X connect 18 0 65 0;
#X connect 19 0 15 0;
#X connect 19 0 65 0;
#X connect 20 0 0 0;
#X connect 20 0 33 0;
#X connect 21 0 1 0;
#X connect 21 0 34 0;
#X connect 22 0 35 0;
#X connect 22 0 77 1;
#X connect 23 0 3 0;
#X connect 23 0 36 0;
#X connect 24 0 9 0;
#X connect 24 0 37 0;
#X connect 33 0 38 0;
#X connect 34 0 38 1;
#X connect 35 0 38 2;
#X connect 36 0 38 3;
#X connect 37 0 38 4;
#X connect 38 0 66 0;
#X connect 40 0 41 0;
#X connect 41 0 42 0;
#X connect 42 0 39 0;
#X connect 43 0 46 0;
#X connect 44 0 40 0;
#X connect 45 0 39 0;
#X connect 46 0 47 0;
#X connect 47 0 39 0;
#X connect 48 0 43 0;
#X connect 49 0 39 0;
#X connect 50 0 38 0;
#X connect 53 0 10 0;
#X connect 54 0 6 0;
#X connect 55 0 17 0;
#X connect 56 0 15 0;
#X connect 64 0 6 0;
#X connect 65 0 64 0;
#X connect 70 0 71 0;
#X connect 70 0 72 0;
#X connect 70 0 73 0;
#X connect 70 0 74 0;
#X connect 70 0 75 0;
#X connect 70 0 89 0;
#X connect 70 0 90 0;
#X connect 70 0 91 0;
#X connect 71 0 20 0;
#X connect 71 0 82 0;
#X connect 72 0 22 0;
#X connect 72 0 84 0;
#X connect 73 0 24 0;
#X connect 73 0 86 0;
#X connect 74 0 6 0;
#X connect 74 0 87 0;
#X connect 75 0 76 0;
#X connect 75 0 88 0;
#X connect 76 0 20 0;
#X connect 76 1 21 0;
#X connect 76 2 22 0;
#X connect 76 3 23 0;
#X connect 76 4 24 0;
#X connect 77 0 2 0;
#X connect 78 0 77 0;
#X connect 79 0 4 0;
#X connect 80 0 79 0;
#X connect 81 0 80 0;
#X connect 90 0 23 0;
#X connect 90 0 85 0;
#X connect 91 0 21 0;
#X connect 91 0 83 0;
#X coords 0 -1 1 1 150 120 1 40 50;
