#N canvas 492 370 462 429 10;
#X obj 43 228 outlet~;
#X obj 38 47 inlet~;
#X obj 131 178 simple_delay;
#X obj 44 182 +~;
#X obj 85 193 *~;
#X obj 240 217 outlet~;
#X obj 90 48 inlet~;
#X obj 325 172 simple_delay;
#X obj 238 176 +~;
#X obj 279 187 *~;
#X obj 176 100 hsl 128 15 0 1 0 0 empty empty empty -2 -6 0 8 -262144
-1 -1 12400 1;
#X obj 203 21 inlet;
#X obj 341 17 inlet;
#X obj 142 28 inlet;
#X obj 340 43 OSCroute /del;
#X obj 363 69 OSCroute /vol;
#X obj 176 77 hsl 128 15 0 1000 0 0 empty empty empty -2 -6 0 8 -262144
-1 -1 4500 1;
#X text 277 76 del;
#X text 280 101 vol;
#X floatatom 182 79 5 0 0 0 - - -;
#X floatatom 185 101 8 0 0 0 - - -;
#X text 5 1 get a DSP loop detected error in this patch for some reason
heave to look into it.;
#X connect 1 0 3 0;
#X connect 2 0 3 1;
#X connect 3 0 0 0;
#X connect 3 0 4 0;
#X connect 4 0 2 0;
#X connect 6 0 8 0;
#X connect 7 0 8 1;
#X connect 8 0 5 0;
#X connect 8 0 9 0;
#X connect 9 0 7 0;
#X connect 10 0 9 1;
#X connect 10 0 4 1;
#X connect 10 0 20 0;
#X connect 11 0 16 0;
#X connect 12 0 14 0;
#X connect 12 0 15 0;
#X connect 13 0 10 0;
#X connect 14 0 16 0;
#X connect 15 0 10 0;
#X connect 16 0 2 1;
#X connect 16 0 19 0;
#X connect 16 0 7 1;
#X coords 0 -1 1 1 140 60 1 170 60;
