#N canvas 153 494 450 300 8;
#X obj 114 222 vcf~;
#X obj 157 222 vcf~;
#X obj 129 140 hsl 128 15 10 10000 1 0 empty empty empty -2 -6 0 8
-262144 -1 -1 0 1;
#X obj 129 165 hsl 128 15 0 127 0 0 empty empty empty -2 -6 0 8 -262144
-1 -1 0 1;
#X obj 114 201 inlet~;
#X obj 163 200 inlet~;
#X obj 111 243 outlet~;
#X obj 176 249 outlet~;
#X obj 370 82 OSCroute /res;
#X obj 404 13 inlet;
#X floatatom 145 140 5 0 0 0 - - -;
#X floatatom 145 165 5 0 0 0 - - -;
#X obj 131 120 hsl 128 15 10 10000 1 0 empty empty empty -2 -6 0 8
-262144 -1 -1 0 1;
#X floatatom 147 120 5 0 0 0 - - -;
#X obj 95 100 *~;
#X obj 96 120 +~;
#X obj 371 46 OSCroute /mult;
#X obj 370 65 OSCroute /off;
#X obj 276 10 inlet;
#X obj 309 10 inlet;
#X obj 340 10 inlet;
#X obj 369 9 inlet;
#X text 234 143 off;
#X text 234 123 mult;
#X text 235 164 res;
#X obj 128 15 ../cmp/multi_osc1;
#X connect 0 0 6 0;
#X connect 1 0 7 0;
#X connect 2 0 10 0;
#X connect 2 0 15 1;
#X connect 3 0 0 2;
#X connect 3 0 1 2;
#X connect 3 0 11 0;
#X connect 4 0 0 0;
#X connect 5 0 1 0;
#X connect 8 0 3 0;
#X connect 9 0 8 0;
#X connect 9 0 16 0;
#X connect 9 0 17 0;
#X connect 9 0 25 2;
#X connect 12 0 13 0;
#X connect 12 0 14 1;
#X connect 14 0 15 0;
#X connect 15 0 0 1;
#X connect 15 0 1 1;
#X connect 16 0 12 0;
#X connect 17 0 2 0;
#X connect 18 0 25 0;
#X connect 19 0 12 0;
#X connect 20 0 2 0;
#X connect 21 0 3 0;
#X connect 25 0 14 0;
#X coords 0 -1 1 1 150 180 1 120 8;
