#N canvas 373 140 704 411 8;
#X obj 30 79 hsl 128 15 0 500 0 0 empty empty /offset -2 8 1 8 -1557
-24198 -228992 0 1;
#X obj 339 80 * 1;
#X floatatom 364 80 8 0 0 0 - - -;
#X obj 177 88 osc~;
#X obj 28 34 hsl 128 15 0 100 0 0 empty empty /oscf -2 8 1 8 -62784
-44926 -225280 0 1;
#X obj 29 56 hsl 128 15 0 120 0 0 empty empty /dep -2 8 1 8 -1059 -44926
-225280 0 1;
#X obj 185 184 +~ 1;
#X obj 202 5 inlet;
#X obj 152 7 inlet;
#X obj 339 13 inlet;
#X obj 14 12 inlet~;
#X obj 180 329 outlet~;
#X text 64 9 signal;
#X text 204 41 offset;
#X obj 30 142 hsl 128 15 0 127 0 0 empty empty /vol -2 8 1 8 -148928
-225280 -261681 6200 1;
#X obj 179 303 *~ 1;
#X obj 199 279 / 127;
#X obj 316 219 loadbang;
#X obj 506 13 inlet;
#X msg 317 240 62;
#X obj 28 100 hsl 128 15 0 127 0 0 empty empty /fb -2 8 1 8 -74275
-228992 -257472 0 1;
#X obj 329 279 / 127;
#X obj 306 299 *~ 0;
#X obj 384 12 inlet;
#X text 381 34 feedback;
#X text 523 34 vol;
#X obj 283 329 simple_delay;
#X obj 29 119 hsl 128 15 0 500 0 0 empty empty /fbdel -2 8 1 8 -22976
-225280 -262131 0 0;
#X obj 405 183 * 1;
#X floatatom 430 183 8 0 0 0 - - -;
#X obj 407 225 pack 0 5;
#X obj 409 258 line;
#X floatatom 447 294 5 0 0 0 - - -;
#X obj 441 15 inlet;
#X text 438 33 feedback_del;
#X text 200 54 feedback;
#X msg 459 204 50;
#X text 204 67 feedback_delay;
#X text 37 143 volume;
#X obj 570 16 inlet;
#X obj 540 126 OSCroute /dep;
#X obj 540 148 OSCroute /offset;
#X obj 540 171 OSCroute /fb;
#X obj 542 194 OSCroute /fbdel;
#X obj 542 218 OSCroute /vol;
#X obj 546 245 OSCroute /s;
#X obj 545 275 unpack f f f f f f;
#X obj 539 307 OSCroute /t;
#X obj 296 353 simple_delay;
#X obj 179 233 vd~ \$0-delay_l;
#X obj 220 358 outlet~;
#X obj 227 252 vd~ \$0-delay_r;
#X obj 96 3 inlet~;
#X obj 225 304 *~ 1;
#X obj 247 281 / 127;
#X obj 619 104 bng 15 250 50 0 empty empty empty 0 -6 0 8 -262144 -1
-1;
#X obj 641 144 bng 15 250 50 0 empty empty empty 0 -6 0 8 -262144 -1
-1;
#X obj 471 73 OSCroute /oscf;
#X obj 334 300 *~ 0;
#X text 342 0 comment;
#X floatatom 572 74 5 0 0 0 - - -;
#X msg 364 109 \$1 5;
#X obj 339 140 line~ 0 10;
#X obj 184 147 *~;
#X obj 231 119 line~ 1 10;
#X msg 231 95 \$1 5;
#X obj 15 185 delwrite~ \$0-delay_l 1000;
#X obj 29 207 delwrite~ \$0-delay_r 1000;
#X floatatom 127 36 5 0 0 0 - - -;
#X floatatom 124 57 5 0 0 0 - - -;
#X floatatom 126 80 5 0 0 0 - - -;
#X floatatom 126 101 5 0 0 0 - - -;
#X floatatom 125 121 5 0 0 0 - - -;
#X floatatom 126 143 5 0 0 0 - - -;
#X obj 631 15 inlet;
#X connect 0 0 1 0;
#X connect 0 0 70 0;
#X connect 1 0 2 0;
#X connect 1 0 61 0;
#X connect 3 0 63 0;
#X connect 4 0 3 0;
#X connect 4 0 68 0;
#X connect 5 0 65 0;
#X connect 5 0 69 0;
#X connect 6 0 49 0;
#X connect 6 0 51 0;
#X connect 7 0 4 0;
#X connect 8 0 5 0;
#X connect 9 0 0 0;
#X connect 10 0 66 0;
#X connect 14 0 16 0;
#X connect 14 0 54 0;
#X connect 14 0 73 0;
#X connect 15 0 11 0;
#X connect 16 0 15 1;
#X connect 17 0 19 0;
#X connect 18 0 14 0;
#X connect 19 0 14 0;
#X connect 20 0 21 0;
#X connect 20 0 71 0;
#X connect 21 0 22 1;
#X connect 21 0 58 1;
#X connect 22 0 26 0;
#X connect 23 0 21 0;
#X connect 23 0 20 0;
#X connect 26 0 66 0;
#X connect 27 0 28 0;
#X connect 27 0 72 0;
#X connect 28 0 29 0;
#X connect 28 0 30 0;
#X connect 30 0 31 0;
#X connect 31 0 26 1;
#X connect 31 0 32 0;
#X connect 31 0 48 1;
#X connect 33 0 27 0;
#X connect 36 0 30 1;
#X connect 39 0 40 0;
#X connect 39 0 41 0;
#X connect 39 0 42 0;
#X connect 39 0 43 0;
#X connect 39 0 44 0;
#X connect 39 0 45 0;
#X connect 39 0 47 0;
#X connect 39 0 57 0;
#X connect 40 0 5 0;
#X connect 41 0 0 0;
#X connect 41 0 56 0;
#X connect 42 0 20 0;
#X connect 43 0 27 0;
#X connect 44 0 14 0;
#X connect 45 0 46 0;
#X connect 46 0 4 0;
#X connect 46 1 5 0;
#X connect 46 2 0 0;
#X connect 46 3 20 0;
#X connect 46 4 27 0;
#X connect 46 5 14 0;
#X connect 47 0 31 1;
#X connect 48 0 67 0;
#X connect 49 0 15 0;
#X connect 49 0 22 0;
#X connect 51 0 53 0;
#X connect 51 0 58 0;
#X connect 52 0 67 0;
#X connect 53 0 50 0;
#X connect 54 0 53 1;
#X connect 57 0 4 0;
#X connect 57 0 55 0;
#X connect 57 0 60 0;
#X connect 58 0 48 0;
#X connect 61 0 62 0;
#X connect 62 0 6 0;
#X connect 63 0 6 0;
#X connect 64 0 63 1;
#X connect 65 0 64 0;
#X connect 74 0 46 0;
#X coords 0 -1 1 1 148 140 1 20 20;
