#N canvas 93 395 637 344 8;
#X obj 22 47 vsl 15 128 0 127 0 0 empty mix_pre1_i ch1 0 120 1 6 -166441
-262144 -262144 8400 1;
#X obj 59 47 vsl 15 128 0 127 0 0 empty mix_pre2_i empty 0 -8 0 8 -262144
-1 -1 9400 1;
#X obj 95 47 vsl 15 128 0 127 0 0 empty mix_pre3_i empty 0 -8 0 8 -262144
-1 -1 8200 1;
#X obj 131 47 vsl 15 128 0 127 0 0 empty mix_pre4_i empty 0 -8 0 8
-262144 -1 -1 8500 1;
#X obj 191 45 vsl 15 128 0 127 0 0 empty mix_out1_i empty 0 -8 0 8
-262144 -1 -1 8400 1;
#X obj 232 46 vsl 15 128 0 127 0 0 empty mix_out2_i empty 0 -8 0 8
-262144 -1 -1 9400 1;
#X obj 264 45 vsl 15 128 0 127 0 0 empty mix_out3_i empty 0 -8 0 8
-262144 -1 -1 8200 1;
#X obj 300 45 vsl 15 128 0 127 0 0 empty mix_out4_i empty 0 -8 0 8
-262144 -1 -1 8500 1;
#X obj 298 248 *~ 1;
#X obj 262 248 *~ 1;
#X obj 226 248 *~ 1;
#X obj 189 248 *~ 1;
#X obj 129 250 *~ 1;
#X obj 93 250 *~ 1;
#X obj 57 250 *~ 1;
#X obj 20 250 *~ 1;
#X text 235 274 output out;
#X obj 66 283 *~ 1;
#X obj 248 283 *~ 1;
#X obj 64 317 outlet~;
#X obj 245 310 outlet~;
#X obj 30 12 inlet~;
#X obj 109 11 inlet~;
#X obj 196 10 inlet~;
#X obj 256 7 inlet~;
#X obj 44 29 inlet~;
#X obj 122 27 inlet~;
#X obj 208 26 inlet~;
#X obj 267 23 inlet~;
#X obj 345 83 vsl 15 128 0 127 0 0 empty mix_out1_i ch1 0 125 1 6 -166441
-1 -262144 8400 1;
#X obj 363 82 vsl 15 128 0 127 0 0 empty mix_out1_i ch2 0 125 1 6 -166441
-1 -262144 9400 1;
#X obj 381 83 vsl 15 128 0 127 0 0 empty mix_out1_i ch3 0 125 1 6 -166441
-1 -262144 8200 1;
#X obj 399 83 vsl 15 128 0 127 0 0 empty mix_out1_i ch4 0 125 1 6 -166441
-1 -262144 8500 1;
#X obj 352 -2 OSCroute /mix;
#X obj 331 14 OSCroute /ch1;
#X obj 317 -3 inlet;
#X floatatom 344 218 5 0 0 0 - - -;
#X floatatom 362 230 5 0 0 0 - - -;
#X floatatom 380 218 5 0 0 0 - - -;
#X floatatom 392 231 5 0 0 0 - - -;
#X obj 402 13 OSCroute /ch3;
#X obj 352 30 OSCroute /ch2;
#X obj 422 28 OSCroute /ch4;
#X msg 464 103 0;
#X obj 471 88 loadbang;
#X obj 480 142 inlet;
#X obj 472 12 OSCroute /all;
#X obj 427 -3 OSCroute /time;
#X obj 319 46 pack f f;
#X obj 373 46 pack f f;
#X obj 426 46 pack f f;
#X obj 481 45 pack f f;
#X obj 319 63 line 0 10;
#X obj 371 61 line 0 10;
#X obj 426 63 line 0 10;
#X obj 481 62 line 0 10;
#X obj 466 162 unpack f f f f f;
#X obj 509 142 bng 15 250 50 0 empty empty empty 0 -6 0 8 -262144 -1
-1;
#X obj 17 184 dbtorms;
#X obj 56 184 dbtorms;
#X obj 96 184 dbtorms;
#X obj 137 185 dbtorms;
#X obj 186 182 dbtorms;
#X obj 225 185 dbtorms;
#X obj 265 182 dbtorms;
#X obj 305 182 dbtorms;
#X obj 419 82 vsl 15 128 0 127 0 0 empty empty all 2 125 1 6 -128992
-1 -262144 8300 1;
#X obj 18 221 line 0 10;
#X msg 17 203 \$1 10;
#X obj 60 223 line 0 10;
#X msg 59 205 \$1 10;
#X obj 98 222 line 0 10;
#X msg 97 204 \$1 10;
#X obj 138 222 line 0 10;
#X msg 137 204 \$1 10;
#X obj 186 223 line 0 10;
#X msg 185 205 \$1 10;
#X obj 229 221 line 0 10;
#X msg 228 203 \$1 10;
#X obj 269 219 line 0 10;
#X msg 268 201 \$1 10;
#X obj 308 219 line 0 10;
#X msg 307 201 \$1 10;
#X connect 0 0 58 0;
#X connect 1 0 59 0;
#X connect 2 0 60 0;
#X connect 3 0 61 0;
#X connect 4 0 62 0;
#X connect 5 0 63 0;
#X connect 6 0 64 0;
#X connect 7 0 65 0;
#X connect 8 0 18 0;
#X connect 9 0 18 0;
#X connect 10 0 18 0;
#X connect 11 0 18 0;
#X connect 12 0 17 0;
#X connect 13 0 17 0;
#X connect 14 0 17 0;
#X connect 15 0 17 0;
#X connect 17 0 19 0;
#X connect 18 0 20 0;
#X connect 21 0 15 0;
#X connect 22 0 14 0;
#X connect 23 0 13 0;
#X connect 24 0 12 0;
#X connect 25 0 11 0;
#X connect 26 0 10 0;
#X connect 27 0 9 0;
#X connect 28 0 8 0;
#X connect 29 0 0 0;
#X connect 29 0 4 0;
#X connect 29 0 36 0;
#X connect 30 0 5 0;
#X connect 30 0 1 0;
#X connect 30 0 37 0;
#X connect 31 0 6 0;
#X connect 31 0 2 0;
#X connect 31 0 38 0;
#X connect 32 0 7 0;
#X connect 32 0 3 0;
#X connect 32 0 39 0;
#X connect 33 0 34 0;
#X connect 33 0 40 0;
#X connect 33 0 41 0;
#X connect 33 0 42 0;
#X connect 33 0 46 0;
#X connect 33 0 47 0;
#X connect 34 0 48 0;
#X connect 35 0 33 0;
#X connect 40 0 50 0;
#X connect 41 0 49 0;
#X connect 42 0 51 0;
#X connect 43 0 32 0;
#X connect 43 0 31 0;
#X connect 43 0 30 0;
#X connect 43 0 29 0;
#X connect 44 0 43 0;
#X connect 45 0 56 0;
#X connect 45 0 57 0;
#X connect 46 0 48 0;
#X connect 46 0 49 0;
#X connect 46 0 50 0;
#X connect 46 0 51 0;
#X connect 47 0 48 1;
#X connect 47 0 51 1;
#X connect 47 0 50 1;
#X connect 47 0 49 1;
#X connect 48 0 52 0;
#X connect 49 0 53 0;
#X connect 50 0 54 0;
#X connect 51 0 55 0;
#X connect 52 0 29 0;
#X connect 53 0 30 0;
#X connect 54 0 31 0;
#X connect 55 0 32 0;
#X connect 56 0 48 0;
#X connect 56 1 49 0;
#X connect 56 2 50 0;
#X connect 56 3 51 0;
#X connect 56 4 48 1;
#X connect 56 4 49 1;
#X connect 56 4 50 1;
#X connect 56 4 51 1;
#X connect 58 0 68 0;
#X connect 59 0 70 0;
#X connect 60 0 72 0;
#X connect 61 0 74 0;
#X connect 62 0 76 0;
#X connect 63 0 78 0;
#X connect 64 0 80 0;
#X connect 65 0 82 0;
#X connect 66 0 32 0;
#X connect 66 0 31 0;
#X connect 66 0 30 0;
#X connect 66 0 29 0;
#X connect 67 0 15 1;
#X connect 68 0 67 0;
#X connect 69 0 14 1;
#X connect 70 0 69 0;
#X connect 71 0 13 1;
#X connect 72 0 71 0;
#X connect 73 0 12 1;
#X connect 74 0 73 0;
#X connect 75 0 11 1;
#X connect 76 0 75 0;
#X connect 77 0 10 1;
#X connect 78 0 77 0;
#X connect 79 0 9 1;
#X connect 80 0 79 0;
#X connect 81 0 8 1;
#X connect 82 0 81 0;
#X coords 0 -1 1 1 100 175 1 340 68;
