#N canvas 1002 440 608 453 8;
#X obj 231 436 outlet~;
#X obj 398 215 osc~;
#X floatatom 55 28 5 0 0 0 - - -;
#X obj 164 99 hsl 128 15 0 127 0 0 empty empty saw -2 8 1 8 -62784
-44926 -216384 0 1;
#X obj 243 317 *~ 1;
#X obj 277 317 / 127;
#X obj 165 78 hsl 128 15 0 127 0 0 empty empty sq -2 8 1 8 -62784 -44926
-187456 12700 1;
#X obj 111 375 *~ 1;
#X obj 144 354 / 127;
#X obj 164 122 hsl 128 15 0 127 0 0 empty empty sin -2 8 1 8 -62784
-44926 -191424 0 1;
#X obj 398 258 *~ 1;
#X obj 417 235 / 127;
#X floatatom 262 80 5 0 0 0 - - -;
#X floatatom 260 100 5 0 0 0 - - -;
#X msg 135 99 0;
#X msg 135 75 0;
#X msg 134 122 50;
#X obj 397 281 +~ 0;
#X text 139 7 frequency;
#X floatatom 261 123 5 0 0 0 - - -;
#X text 312 317 saw;
#X text 426 213 sin;
#X obj 190 20 loadbang;
#X obj 301 125 r sn;
#X obj 301 99 r sw;
#X obj 304 74 r pl;
#X obj 275 11 inlet;
#X obj 382 9 inlet;
#X obj 384 32 OSCroute /s;
#X obj 385 67 OSCroute /sq;
#X obj 386 90 OSCroute /saw;
#X obj 387 112 OSCroute /sin;
#X obj 242 222 phasor~;
#X obj 242 260 abs~;
#X obj 242 241 -~ 0.5;
#X obj 241 281 -~ 0.25;
#X obj 241 298 *~ 4;
#X obj 166 58 hsl 128 15 -0.99 0.99 0 0 empty empty dut -2 8 1 8 -62784
-44926 -166592 7700 1;
#X floatatom 263 61 5 0 0 0 - - -;
#X obj 385 51 OSCroute /dut;
#X floatatom 191 252 5 0 0 0 - - -;
#X text 38 367 square;
#X obj 56 125 sig~;
#X obj 228 408 *~ 1;
#X obj 53 201 phasor~;
#X obj 55 225 -~ 0.5;
#X obj 54 251 *~ 2;
#X obj 49 273 +~ 0;
#X obj 49 295 *~ 1e+06;
#X obj 49 328 clip~ -1 1;
#X obj 103 8 inlet;
#X text 534 18 frequency;
#X obj 498 19 inlet~;
#X obj 261 32 unpack f f f f;
#X obj 387 130 OSCroute /f;
#X text 432 306 comment;
#X floatatom 510 79 5 0 0 0 - - -;
#X obj 506 53 snapshot~;
#X obj 531 36 bng 15 250 50 0 empty empty empty 17 7 0 10 -262144 -1
-1;
#X obj 64 164 +~;
#X connect 1 0 10 0;
#X connect 2 0 42 0;
#X connect 3 0 5 0;
#X connect 3 0 13 0;
#X connect 4 0 43 0;
#X connect 5 0 4 1;
#X connect 6 0 12 0;
#X connect 6 0 8 0;
#X connect 7 0 43 0;
#X connect 8 0 7 1;
#X connect 9 0 11 0;
#X connect 9 0 19 0;
#X connect 10 0 17 0;
#X connect 11 0 10 1;
#X connect 14 0 3 0;
#X connect 15 0 6 0;
#X connect 15 0 37 0;
#X connect 16 0 9 0;
#X connect 17 0 43 0;
#X connect 22 0 15 0;
#X connect 22 0 14 0;
#X connect 22 0 16 0;
#X connect 23 0 9 0;
#X connect 24 0 3 0;
#X connect 25 0 6 0;
#X connect 26 0 53 0;
#X connect 27 0 28 0;
#X connect 27 0 29 0;
#X connect 27 0 30 0;
#X connect 27 0 31 0;
#X connect 27 0 39 0;
#X connect 27 0 54 0;
#X connect 28 0 53 0;
#X connect 29 0 6 0;
#X connect 30 0 3 0;
#X connect 31 0 9 0;
#X connect 32 0 34 0;
#X connect 33 0 35 0;
#X connect 34 0 33 0;
#X connect 35 0 36 0;
#X connect 36 0 4 0;
#X connect 37 0 47 1;
#X connect 37 0 38 0;
#X connect 39 0 37 0;
#X connect 42 0 59 0;
#X connect 43 0 0 0;
#X connect 44 0 45 0;
#X connect 45 0 46 0;
#X connect 46 0 47 0;
#X connect 47 0 48 0;
#X connect 48 0 49 0;
#X connect 49 0 7 0;
#X connect 50 0 2 0;
#X connect 52 0 57 0;
#X connect 52 0 59 1;
#X connect 53 0 6 0;
#X connect 53 1 3 0;
#X connect 53 2 9 0;
#X connect 53 3 37 0;
#X connect 54 0 2 0;
#X connect 57 0 56 0;
#X connect 58 0 57 0;
#X connect 59 0 44 0;
#X connect 59 0 32 0;
#X connect 59 0 1 0;
#X coords 0 -1 1 1 138 95 1 160 45;
