#N canvas 90 395 450 463 8;
#X floatatom 105 150 5 0 0 0 - - -;
#X obj 136 161 dbtorms;
#X floatatom 145 181 5 0 0 0 - - -;
#X obj 86 122 env~ 2048;
#X obj 187 108 hsl 128 15 0 1 0 0 empty empty /outputvol -2 8 1 8 -42246
-241291 -260818 0 1;
#X obj 23 223 *~;
#X obj 117 211 /;
#X floatatom 120 229 5 0 0 0 - - -;
#X obj 15 55 inlet~;
#X obj 21 434 outlet~;
#X obj 161 143 metro 100;
#X obj 187 90 hsl 128 15 0 400 0 0 empty empty /rate -2 8 1 8 -24198
-241291 -62784 800 1;
#X obj 164 91 tgl 15 0 empty empty /on -5 20 1 8 -24198 -42246 -90881
0 1;
#X floatatom 281 109 5 0 0 0 - - -;
#X floatatom 277 92 5 0 0 0 - - -;
#X text 310 33 rate;
#X obj 51 56 inlet~;
#X obj 50 221 *~;
#X obj 63 433 outlet~;
#X text 272 3 outputvol;
#X obj 76 247 line~ 10;
#X obj 130 264 pack f f;
#X obj 120 52 inlet;
#X obj 153 53 inlet;
#X obj 184 55 inlet;
#X obj 361 52 inlet;
#X obj 344 79 OSCroute /rate;
#X obj 344 98 OSCroute /on;
#X obj 344 117 OSCroute /outputvol;
#X obj 144 199 mavg;
#X obj 225 198 hsl 128 15 0 127 0 0 empty empty empty -2 -6 0 8 -262144
-1 -1 2000 1;
#X floatatom 174 214 5 0 0 0 - - -;
#X obj 187 243 min 300;
#X obj 288 159 loadbang;
#X floatatom 244 201 5 0 0 0 - - -;
#X obj 78 287 env~ 2048;
#X floatatom 91 308 5 0 0 0 - - -;
#X floatatom 143 343 5 0 0 0 - - -;
#X floatatom 189 348 5 0 0 0 - - -;
#X obj 23 396 *~ 1;
#X obj 63 402 *~ 1;
#X obj 169 299 dbtorms;
#X floatatom 216 302 5 0 0 0 - - -;
#X msg 132 360 1;
#X floatatom 249 419 5 0 0 0 - - -;
#X obj 227 402 max;
#X msg 247 382 0;
#X obj 267 361 bng 15 250 50 0 empty empty empty 0 -6 0 8 -262144 -1
-1;
#X obj 177 384 * 0.1;
#X obj 169 403 + 0.9;
#X msg 265 179 20;
#X obj 152 318 moses 0.9;
#X obj 185 367 - 0.9;
#X obj 188 127 hsl 128 15 0 1 0 0 empty empty /limit -2 8 1 8 -1109
-241291 -260818 0 1;
#X floatatom 282 127 5 0 0 0 - - -;
#X text 300 23 limit;
#X obj 344 133 OSCroute /limit;
#X obj 223 57 inlet;
#X obj 97 411 line~ 10;
#X obj 166 424 pack f 2;
#X connect 0 0 1 0;
#X connect 1 0 2 0;
#X connect 2 0 29 0;
#X connect 3 0 0 0;
#X connect 4 0 6 0;
#X connect 4 0 13 0;
#X connect 5 0 35 0;
#X connect 5 0 39 0;
#X connect 6 0 7 0;
#X connect 7 0 21 0;
#X connect 8 0 5 0;
#X connect 8 0 3 0;
#X connect 10 0 6 0;
#X connect 11 0 10 1;
#X connect 11 0 14 0;
#X connect 11 0 21 1;
#X connect 12 0 10 0;
#X connect 16 0 17 0;
#X connect 16 0 3 0;
#X connect 17 0 35 0;
#X connect 17 0 40 0;
#X connect 20 0 5 1;
#X connect 20 0 17 1;
#X connect 21 0 20 0;
#X connect 22 0 12 0;
#X connect 23 0 4 0;
#X connect 24 0 11 0;
#X connect 25 0 26 0;
#X connect 25 0 27 0;
#X connect 25 0 28 0;
#X connect 25 0 56 0;
#X connect 26 0 11 0;
#X connect 27 0 12 0;
#X connect 28 0 4 0;
#X connect 29 0 6 1;
#X connect 29 0 31 0;
#X connect 30 0 29 1;
#X connect 30 0 34 0;
#X connect 32 0 21 0;
#X connect 33 0 50 0;
#X connect 35 0 36 0;
#X connect 36 0 41 0;
#X connect 37 0 43 0;
#X connect 38 0 52 0;
#X connect 39 0 9 0;
#X connect 40 0 18 0;
#X connect 41 0 42 0;
#X connect 42 0 51 0;
#X connect 43 0 59 0;
#X connect 44 0 45 1;
#X connect 45 0 44 0;
#X connect 46 0 45 1;
#X connect 46 0 44 0;
#X connect 47 0 46 0;
#X connect 48 0 49 0;
#X connect 49 0 45 0;
#X connect 49 0 59 0;
#X connect 50 0 30 0;
#X connect 51 0 37 0;
#X connect 51 1 38 0;
#X connect 52 0 48 0;
#X connect 53 0 52 1;
#X connect 53 0 49 1;
#X connect 53 0 51 1;
#X connect 53 0 54 0;
#X connect 56 0 53 0;
#X connect 57 0 53 0;
#X connect 58 0 40 1;
#X connect 58 0 39 1;
#X connect 59 0 58 0;
#X coords 0 -1 1 1 170 70 1 160 75;
