#N canvas 70 410 450 300 10;
#X obj 86 39 inlet;
#X obj 134 82 hsl 128 15 10 1000 1 0 empty empty empty -2 -8 0 10 -262144
-1 -1 0 1;
#X floatatom 85 162 5 0 0 0 - - -;
#X floatatom 85 65 5 0 0 0 - - -;
#X obj 85 129 line 0 1;
#X obj 81 100 pack f f;
#X floatatom 223 81 5 0 0 0 - - -;
#X obj 136 39 inlet;
#X obj 207 39 inlet;
#X obj 264 45 OSCroute /del;
#X text 139 81 del;
#X obj 84 187 outlet;
#X connect 0 0 3 0;
#X connect 1 0 5 1;
#X connect 1 0 6 0;
#X connect 2 0 11 0;
#X connect 3 0 5 0;
#X connect 4 0 2 0;
#X connect 5 0 4 0;
#X connect 7 0 1 0;
#X connect 8 0 9 0;
#X connect 9 0 1 0;
#X coords 0 -1 1 1 140 30 1 130 70;
