#N canvas 1159 159 758 300 10;
#X obj 305 61 freeverb~;
#X msg 169 10 roomsize \$1;
#X msg 169 32 damping \$1;
#X msg 169 54 width \$1;
#X msg 169 76 wet \$1;
#X msg 169 98 dry \$1;
#X msg 169 120 print;
#X msg 169 141 freeze \$1;
#X msg 169 163 bypass \$1;
#X obj 7 4 hsl 128 15 0 1 0 0 empty empty roomsize 2 8 1 10 -261234
-258113 -258113 0 1;
#X obj 7 25 hsl 128 15 0 1 0 0 empty empty damping 2 8 1 10 -261313
-258113 -258113 0 1;
#X obj 8 47 hsl 128 15 0 1 0 0 empty empty width 2 8 1 10 -261505 -258113
-258113 0 1;
#X obj 7 68 hsl 128 15 0 1 0 0 empty empty wet 2 8 1 10 -261025 -258113
-258113 0 1;
#X obj 8 91 hsl 128 15 0 1 0 0 empty empty dry 2 8 1 10 -262109 -258113
-258113 0 1;
#X obj 511 24 OSCroute /reverb;
#X obj 522 48 OSCroute /roomsize;
#X obj 524 93 OSCroute /width;
#X obj 524 115 OSCroute /wet;
#X obj 523 137 OSCroute /dry;
#X obj 511 -1 inlet;
#X obj 305 15 inlet~;
#X obj 355 15 inlet~;
#X obj 401 35 unpack f f f f f;
#X obj 401 14 inlet;
#X floatatom 103 4 5 0 0 0 - - -;
#X floatatom 102 27 5 0 0 0 - - -;
#X floatatom 107 47 5 0 0 0 - - -;
#X floatatom 103 68 5 0 0 0 - - -;
#X floatatom 104 91 5 0 0 0 - - -;
#X obj 7 111 tgl 15 0 empty empty freeze 16 8 0 10 -191407 -1 -1 0
1;
#X obj 61 111 tgl 15 0 empty empty bypass 16 8 0 10 -203904 -1 -1 0
1;
#X obj 305 212 outlet~;
#X obj 355 212 outlet~;
#X obj 122 111 bng 15 250 50 0 empty empty p 4 8 0 10 -260097 -257985
-1;
#X obj 524 159 OSCroute /set;
#X obj 524 71 OSCroute /damping;
#X obj 651 47 line 0 10;
#X obj 648 70 line 0 10;
#X obj 646 93 line 0 10;
#X obj 643 114 line 0 10;
#X obj 642 137 line 0 10;
#X obj 523 182 OSCroute /time;
#X text 556 -3 OSC;
#X text 440 13 set;
#X text 354 -5 right;
#X text 304 -4 left;
#X connect 0 0 31 0;
#X connect 0 1 32 0;
#X connect 1 0 0 0;
#X connect 2 0 0 0;
#X connect 3 0 0 0;
#X connect 4 0 0 0;
#X connect 5 0 0 0;
#X connect 6 0 0 0;
#X connect 7 0 0 0;
#X connect 8 0 0 0;
#X connect 9 0 1 0;
#X connect 9 0 24 0;
#X connect 10 0 2 0;
#X connect 10 0 25 0;
#X connect 11 0 3 0;
#X connect 11 0 26 0;
#X connect 12 0 4 0;
#X connect 12 0 27 0;
#X connect 13 0 5 0;
#X connect 13 0 28 0;
#X connect 14 0 15 0;
#X connect 14 0 16 0;
#X connect 14 0 17 0;
#X connect 14 0 18 0;
#X connect 14 0 34 0;
#X connect 14 0 35 0;
#X connect 14 0 41 0;
#X connect 15 0 36 0;
#X connect 16 0 38 0;
#X connect 17 0 39 0;
#X connect 18 0 40 0;
#X connect 19 0 14 0;
#X connect 20 0 0 0;
#X connect 21 0 0 1;
#X connect 22 0 9 0;
#X connect 22 1 10 0;
#X connect 22 2 11 0;
#X connect 22 3 12 0;
#X connect 22 4 13 0;
#X connect 23 0 22 0;
#X connect 29 0 7 0;
#X connect 30 0 8 0;
#X connect 33 0 6 0;
#X connect 34 0 22 0;
#X connect 35 0 37 0;
#X connect 36 0 9 0;
#X connect 37 0 10 0;
#X connect 38 0 11 0;
#X connect 39 0 12 0;
#X connect 40 0 13 0;
#X connect 41 0 36 1;
#X connect 41 0 37 1;
#X connect 41 0 38 1;
#X connect 41 0 39 1;
#X connect 41 0 40 1;
#X coords 0 -1 1 1 140 130 1 0 0;
