#N canvas 959 107 674 342 10;
#X text 263 5 Table Feedback Tutorial;
#X text 298 261 2008 (GPL) Claude Heiland-Allen <claudiusmaximus@goto10.org>
;
#X text 263 25 Part 2: A Simple Loop;
#X text 263 65 Let's see how to make a feedback loop:;
#X obj 148 270 table \$0-table 515;
#X obj 8 193 tabosc4~ \$0-table;
#X obj 8 273 tabwrite~ \$0-table;
#X obj 148 233 metro 100;
#X obj 148 213 tgl 15 0 empty empty empty 17 7 0 10 -262144 -1 -1 1
1;
#X floatatom 8 173 5 0 0 0 - - -;
#X msg 28 141 100;
#X obj 33 121 s \$0-table;
#X obj 6 61 bng 15 250 50 0 empty empty trig 17 7 0 10 -99865 -260097
-258113;
#X text 296 244 You should hear an ugly modulating tone.;
#X obj 10 41 hsl 128 15 1 1000 1 0 empty empty writerate_(ms) 2 8 0
10 -191407 -258113 -258113 9100 1;
#X floatatom 105 41 5 0 0 0 - - -;
#X text 33 76 1: initialise table;
#X text 63 169 2: set playback frequency;
#X text 142 252 3: start feedback process;
#X obj 9 3 hsl 128 15 10 10000 1 0 empty empty readrate_(Hz) 2 8 0
10 -191407 -258113 -258113 9958 1;
#X floatatom 104 3 5 0 0 0 - - -;
#X msg 30 93 sinesum 512 3;
#X obj 65 140 loadbang;
#X obj 31 303 outlet~;
#X obj 276 87 inlet;
#X obj 390 139 line 0 10;
#X obj 285 139 OSCroute /read;
#X obj 285 163 OSCroute /write;
#X obj 285 205 OSCroute /trig;
#X obj 276 228 OSCroute /time;
#X obj 276 113 OSCroute /screetch;
#X obj 389 164 line 0 10;
#X obj 489 102 loadbang;
#X msg 452 103 0;
#X msg 147 189 1;
#X obj 9 22 hsl 128 15 0 1 0 0 empty empty feedback_vol 2 8 0 10 -191407
-258113 -258113 12700 1;
#X floatatom 104 22 5 0 0 0 - - -;
#X obj 8 232 *~ 1;
#X obj 284 184 OSCroute /fbvol;
#X connect 5 0 23 0;
#X connect 5 0 37 0;
#X connect 7 0 6 0;
#X connect 8 0 7 0;
#X connect 9 0 5 0;
#X connect 10 0 9 0;
#X connect 12 0 21 0;
#X connect 14 0 7 1;
#X connect 14 0 15 0;
#X connect 19 0 20 0;
#X connect 19 0 9 0;
#X connect 21 0 11 0;
#X connect 22 0 10 0;
#X connect 22 0 34 0;
#X connect 24 0 30 0;
#X connect 25 0 19 0;
#X connect 26 0 25 0;
#X connect 27 0 31 0;
#X connect 28 0 12 0;
#X connect 29 0 31 1;
#X connect 29 0 25 1;
#X connect 30 0 26 0;
#X connect 30 0 27 0;
#X connect 30 0 28 0;
#X connect 30 0 29 0;
#X connect 30 0 38 0;
#X connect 31 0 14 0;
#X connect 32 0 33 0;
#X connect 33 0 25 1;
#X connect 33 0 31 1;
#X connect 34 0 8 0;
#X connect 35 0 36 0;
#X connect 35 0 37 1;
#X connect 37 0 6 0;
#X connect 38 0 35 0;
#X coords 0 -1 1 1 150 80 1 0 0;
