#N canvas 588 221 450 300 10;
#X obj 16 54 delwrite~ \$0-delay1 500;
#X obj 14 12 inlet~;
#X text 64 9 signal;
#X floatatom 222 90 5 0 0 0 - - -;
#X msg 222 62 1;
#X obj 222 39 loadbang;
#X obj 210 16 inlet;
#X obj 216 180 outlet~;
#X obj 216 158 vd~ \$0-delay1;
#X obj 215 135 line~ 0 10;
#X msg 213 113 \$1 10;
#X connect 1 0 0 0;
#X connect 3 0 10 0;
#X connect 4 0 3 0;
#X connect 5 0 4 0;
#X connect 6 0 3 0;
#X connect 8 0 7 0;
#X connect 9 0 8 0;
#X connect 10 0 9 0;
