#N canvas 150 621 531 362 10;
#X obj 77 33 loadbang;
#X msg 44 63 40;
#X floatatom 149 164 5 0 0 0 - - -;
#X obj 69 136 tgl 15 0 empty empty empty 0 -6 0 8 -262144 -1 -1 1 1
;
#X obj 57 94 hradio 15 1 0 17 empty empty empty 0 -6 0 8 -262144 -1
-1 13;
#X obj 184 120 hsl 128 15 1 3 0 0 empty empty empty -2 -6 0 8 -262144
-1 -1 0 1;
#X obj 184 142 hsl 128 15 0.1 127 1 0 empty empty empty -2 -6 0 8 -262144
-1 -1 10000 1;
#X obj 265 172 bng 15 250 50 0 empty empty empty 0 -6 0 8 -262144 -1
-1;
#X floatatom 225 169 5 0 0 0 - - -;
#X obj 38 192 ../cmp/waveshape;
#X obj 21 14 inlet~;
#X obj 67 11 inlet~;
#X floatatom 190 121 5 0 0 0 - - -;
#X floatatom 190 143 5 0 0 0 - - -;
#X obj 45 116 hsl 128 15 0 127 0 0 empty empty empty -2 -6 0 8 -262144
-1 -1 4000 1;
#X obj 99 136 hsl 50 10 0 50 0 0 empty empty empty -2 -6 0 8 -262144
-1 -1 1960 1;
#X obj 114 149 hsl 50 10 0 50 0 0 empty empty empty -2 -6 0 8 -262144
-1 -1 1960 1;
#X msg 111 55 20;
#X msg 77 62 1;
#X obj 348 7 inlet;
#X obj 370 34 OSCroute /idx;
#X obj 370 56 OSCroute /expMorphOn;
#X obj 370 78 OSCroute /expMorphRate;
#X obj 370 98 OSCroute /expMorphStep;
#X obj 370 119 OSCroute /shape;
#X obj 369 141 OSCroute /var1;
#X obj 369 162 OSCroute /var2;
#X obj 370 183 OSCroute /linMorphTrig;
#X obj 370 204 OSCroute /linMorphStep;
#X text 263 156 lin trig;
#X text 201 155 lin step;
#X obj 79 328 outlet~;
#X obj 171 336 outlet~;
#X obj 418 11 bng 15 250 50 0 empty empty empty 0 -6 0 8 -262144 -1
-1;
#X text 26 176 caution: high proc usage(1);
#X text 155 131 1;
#X text 260 119 var1;
#X text 300 120 comment;
#X text 266 143 var2;
#X text 301 146 comment;
#X text 274 94 shape;
#X text 149 114 idx;
#X floatatom 52 116 5 0 0 0 - - -;
#X connect 0 0 1 0;
#X connect 0 0 17 0;
#X connect 0 0 18 0;
#X connect 1 0 14 0;
#X connect 2 0 9 6;
#X connect 3 0 9 3;
#X connect 4 0 2 0;
#X connect 5 0 9 7;
#X connect 5 0 12 0;
#X connect 6 0 9 8;
#X connect 6 0 13 0;
#X connect 7 0 9 10;
#X connect 8 0 9 9;
#X connect 9 0 31 0;
#X connect 9 1 32 0;
#X connect 10 0 9 0;
#X connect 11 0 9 1;
#X connect 14 0 9 2;
#X connect 14 0 42 0;
#X connect 15 0 9 4;
#X connect 16 0 9 5;
#X connect 17 0 15 0;
#X connect 17 0 16 0;
#X connect 18 0 3 0;
#X connect 19 0 20 0;
#X connect 19 0 21 0;
#X connect 19 0 22 0;
#X connect 19 0 23 0;
#X connect 19 0 24 0;
#X connect 19 0 25 0;
#X connect 19 0 26 0;
#X connect 19 0 27 0;
#X connect 19 0 28 0;
#X connect 19 0 33 0;
#X connect 20 0 14 0;
#X connect 21 0 3 0;
#X connect 22 0 15 0;
#X connect 23 0 16 0;
#X connect 24 0 4 0;
#X connect 25 0 5 0;
#X connect 26 0 6 0;
#X connect 27 0 7 0;
#X connect 28 0 8 0;
#X coords 0 -1 1 1 300 230 1 20 80;
