#N canvas 35 114 1531 971 10;
#X obj 40 377 bng 15 250 50 0 empty empty empty 17 7 0 10 -262144 -1
-1;
#X obj 685 739 dac~;
#X obj 78 398 hsl 128 15 10 1000 1 0 empty empty empty -2 -8 0 10 -262144
-1 -1 7102 1;
#X floatatom 174 399 5 0 0 0 - - -;
#X obj 101 180 hsl 128 15 -100 200 0 0 empty empty empty -2 -8 0 10
-262144 -1 -1 8467 1;
#X floatatom 182 180 8 0 0 0 - - -;
#X text 18 78 location;
#X text 101 137 speed;
#X obj 231 127 hsl 128 15 -1000 1000 0 0 empty empty empty -2 -8 0
10 -262144 -1 -1 0 1;
#X floatatom 329 126 5 0 0 0 - - -;
#X obj 59 158 bng 15 250 50 0 empty empty empty 17 7 0 10 -262144 -1
-1;
#X text 234 127 transpose;
#X obj 74 380 metro 1000;
#X obj 74 363 tgl 15 0 empty empty empty 17 7 0 10 -262144 -1 -1 1
1;
#X msg 239 179 0;
#X obj 146 380 hsl 128 15 10 1000 0 0 empty empty empty -2 -8 0 10
-262144 -1 -1 5738 1;
#X floatatom 240 380 5 0 0 0 - - -;
#X obj 9 421 crossfade;
#X obj 652 561 ../cmp/mixer;
#X obj 78 419 hsl 128 15 0 127 0 0 empty empty empty -2 -8 0 10 -262144
-1 -1 12700 1;
#X obj 469 -158 dumpOSC 10001;
#X obj 208 85 OSCroute /a1;
#X msg 272 179 100;
#X obj 647 498 sendOSC;
#X msg 823 489 connect localhost 10011;
#X obj 823 472 loadbang;
#X msg 248 350 send /v1/pos \$1;
#X obj -5 -210 hsl 500 15 0 15 0 0 empty empty empty -2 -8 0 10 -262144
-1 -1 0 0;
#X msg 306 291 29;
#X msg 340 292 25;
#X text 365 293 fps;
#X obj 249 297 * 25;
#X text 278 297 comment;
#X floatatom -8 -163 8 0 0 0 - - -;
#X text 5 -211 sec;
#X floatatom 34 -209 5 0 0 0 - - -;
#X floatatom 295 313 8 0 0 0 - - -;
#X obj 246 274 / 1000;
#X msg 302 179 115;
#X obj 775 532 OSCroute /m1;
#X msg 264 330 send /v1/fr \$1;
#X obj 2 116 OSCroute /loc;
#X floatatom 10 136 5 0 0 0 - - -;
#X obj 10 458 crossfade;
#X obj 79 456 hsl 128 15 0 127 0 0 empty empty empty -2 -8 0 10 -262144
-1 -1 0 1;
#X obj 5 204 I07.phase.vocoder;
#X obj 198 254 hradio 15 1 0 3 empty empty empty 0 -8 0 10 -262144
-1 -1 0;
#X obj 99 149 OSCroute /spd;
#X obj 229 106 OSCroute /tsp;
#X obj 357 83 t b b;
#X obj 377 116 bang;
#X obj 358 60 loadbang;
#X msg 201 229 0;
#X obj 231 155 * 25;
#X floatatom 304 153 5 0 0 0 - - -;
#X obj 264 154 + 0.01;
#X obj 88 117 OSCroute /file;
#X obj 185 153 / 100;
#X msg 16 160 0;
#X obj -8 -187 * 44100;
#X obj 499 359 bng 15 250 50 0 empty empty empty 17 7 0 10 -262144
-1 -1;
#X obj 537 380 hsl 128 15 10 1000 1 0 empty empty empty -2 -8 0 10
-262144 -1 -1 3279 1;
#X floatatom 633 381 5 0 0 0 - - -;
#X obj 560 162 hsl 128 15 -100 200 0 0 empty empty empty -2 -8 0 10
-262144 -1 -1 8467 1;
#X floatatom 641 162 8 0 0 0 - - -;
#X text 477 60 location;
#X text 560 119 speed;
#X obj 690 109 hsl 128 15 -1000 1000 0 0 empty empty empty -2 -8 0
10 -262144 -1 -1 0 1;
#X floatatom 788 108 5 0 0 0 - - -;
#X obj 518 140 bng 15 250 50 0 empty empty empty 17 7 0 10 -262144
-1 -1;
#X text 693 109 transpose;
#X obj 533 362 metro 1000;
#X obj 533 345 tgl 15 0 empty empty empty 17 7 0 10 -262144 -1 -1 1
1;
#X msg 698 161 0;
#X obj 605 362 hsl 128 15 10 1000 0 0 empty empty empty -2 -8 0 10
-262144 -1 -1 7694 1;
#X floatatom 699 362 5 0 0 0 - - -;
#X obj 468 403 crossfade;
#X obj 537 401 hsl 128 15 0 127 0 0 empty empty empty -2 -8 0 10 -262144
-1 -1 12700 1;
#X msg 731 161 100;
#X msg 761 161 115;
#X obj 461 98 OSCroute /loc;
#X floatatom 469 118 5 0 0 0 - - -;
#X obj 469 440 crossfade;
#X obj 538 438 hsl 128 15 0 127 0 0 empty empty empty -2 -8 0 10 -262144
-1 -1 0 1;
#X obj 464 186 I07.phase.vocoder;
#X obj 657 236 hradio 15 1 0 3 empty empty empty 0 -8 0 10 -262144
-1 -1 0;
#X obj 558 131 OSCroute /spd;
#X obj 688 88 OSCroute /tsp;
#X obj 816 65 t b b;
#X obj 836 98 bang;
#X obj 817 42 loadbang;
#X msg 660 211 0;
#X obj 690 137 * 25;
#X floatatom 763 135 5 0 0 0 - - -;
#X obj 723 136 + 0.01;
#X obj 547 99 OSCroute /file;
#X obj 644 135 / 100;
#X msg 475 142 0;
#X obj 667 67 OSCroute /a2;
#X obj 578 33 print;
#X msg 784 252 29;
#X msg 818 253 25;
#X text 843 254 fps;
#X obj 727 258 * 25;
#X text 756 258 comment;
#X floatatom 773 274 8 0 0 0 - - -;
#X obj 724 235 / 1000;
#X obj 458 -188 hsl 500 15 0 15 0 0 empty empty empty -2 -8 0 10 -262144
-1 -1 0 0;
#X floatatom 464 -20 8 0 0 0 - - -;
#X text 462 -121 sec;
#X floatatom 487 -185 5 0 0 0 - - -;
#X obj 464 -44 * 44100;
#X msg 742 291 send /v2/fr \$1;
#X msg 726 311 send /v2/pos \$1;
#X obj 1037 158 bng 15 250 50 0 empty empty empty 17 7 0 10 -262144
-1 -1;
#X obj 1075 179 hsl 128 15 10 1000 1 0 empty empty empty -2 -8 0 10
-262144 -1 -1 7717 1;
#X floatatom 1171 180 5 0 0 0 - - -;
#X obj 1098 -39 hsl 128 15 -100 200 0 0 empty empty empty -2 -8 0 10
-262144 -1 -1 8467 1;
#X floatatom 1179 -39 8 0 0 0 - - -;
#X text 1015 -141 location;
#X text 1098 -82 speed;
#X obj 1228 -92 hsl 128 15 -1000 1000 0 0 empty empty empty -2 -8 0
10 -262144 -1 -1 0 1;
#X floatatom 1326 -93 5 0 0 0 - - -;
#X obj 1056 -61 bng 15 250 50 0 empty empty empty 17 7 0 10 -262144
-1 -1;
#X text 1231 -92 transpose;
#X obj 1072 155 metro 1000;
#X obj 1072 138 tgl 15 0 empty empty empty 17 7 0 10 -262144 -1 -1
1 1;
#X msg 1236 -40 0;
#X obj 1144 155 hsl 128 15 10 1000 0 0 empty empty empty -2 -8 0 10
-262144 -1 -1 1827 1;
#X floatatom 1238 155 5 0 0 0 - - -;
#X obj 1006 202 crossfade;
#X obj 1075 200 hsl 128 15 0 127 0 0 empty empty empty -2 -8 0 10 -262144
-1 -1 12700 1;
#X msg 1269 -40 100;
#X msg 1299 -40 115;
#X obj 999 -103 OSCroute /loc;
#X floatatom 1007 -83 5 0 0 0 - - -;
#X obj 1007 239 crossfade;
#X obj 1076 237 hsl 128 15 0 127 0 0 empty empty empty -2 -8 0 10 -262144
-1 -1 0 1;
#X obj 1002 -15 I07.phase.vocoder;
#X obj 1195 35 hradio 15 1 0 3 empty empty empty 0 -8 0 10 -262144
-1 -1 0;
#X obj 1096 -70 OSCroute /spd;
#X obj 1226 -113 OSCroute /tsp;
#X obj 1354 -136 t b b;
#X obj 1374 -103 bang;
#X obj 1355 -159 loadbang;
#X msg 1198 10 0;
#X obj 1228 -64 * 25;
#X floatatom 1301 -66 5 0 0 0 - - -;
#X obj 1261 -65 + 0.01;
#X obj 1085 -102 OSCroute /file;
#X obj 1182 -66 / 100;
#X msg 1013 -59 0;
#X obj 1116 -168 print;
#X msg 1322 51 29;
#X msg 1356 52 25;
#X text 1381 53 fps;
#X obj 1265 57 * 25;
#X text 1294 57 comment;
#X floatatom 1311 73 8 0 0 0 - - -;
#X obj 1262 34 / 1000;
#X obj 1026 601 bng 15 250 50 0 empty empty empty 17 7 0 10 -262144
-1 -1;
#X obj 1064 622 hsl 128 15 10 1000 1 0 empty empty empty -2 -8 0 10
-262144 -1 -1 8645 1;
#X floatatom 1160 623 5 0 0 0 - - -;
#X obj 1087 404 hsl 128 15 -100 200 0 0 empty empty empty -2 -8 0 10
-262144 -1 -1 8467 1;
#X floatatom 1168 404 8 0 0 0 - - -;
#X text 1004 302 location;
#X text 1087 361 speed;
#X obj 1217 351 hsl 128 15 -1000 1000 0 0 empty empty empty -2 -8 0
10 -262144 -1 -1 0 1;
#X floatatom 1315 350 5 0 0 0 - - -;
#X obj 1045 382 bng 15 250 50 0 empty empty empty 17 7 0 10 -262144
-1 -1;
#X text 1220 351 transpose;
#X obj 1060 604 metro 1000;
#X obj 1060 587 tgl 15 0 empty empty empty 17 7 0 10 -262144 -1 -1
1 1;
#X msg 1225 403 0;
#X obj 1132 604 hsl 128 15 10 1000 0 0 empty empty empty -2 -8 0 10
-262144 -1 -1 3783 1;
#X floatatom 1226 604 5 0 0 0 - - -;
#X obj 995 645 crossfade;
#X obj 1064 643 hsl 128 15 0 127 0 0 empty empty empty -2 -8 0 10 -262144
-1 -1 12700 1;
#X msg 1258 403 100;
#X msg 1288 403 115;
#X obj 988 340 OSCroute /loc;
#X floatatom 996 360 5 0 0 0 - - -;
#X obj 996 682 crossfade;
#X obj 1065 680 hsl 128 15 0 127 0 0 empty empty empty -2 -8 0 10 -262144
-1 -1 0 1;
#X obj 991 428 I07.phase.vocoder;
#X obj 1184 478 hradio 15 1 0 3 empty empty empty 0 -8 0 10 -262144
-1 -1 0;
#X obj 1085 373 OSCroute /spd;
#X obj 1215 330 OSCroute /tsp;
#X obj 1343 307 t b b;
#X obj 1363 340 bang;
#X obj 1344 284 loadbang;
#X msg 1187 453 0;
#X obj 1217 379 * 25;
#X floatatom 1290 377 5 0 0 0 - - -;
#X obj 1250 378 + 0.01;
#X obj 1074 341 OSCroute /file;
#X obj 1171 377 / 100;
#X msg 1002 384 0;
#X obj 1105 275 print;
#X msg 1311 494 29;
#X msg 1345 495 25;
#X text 1370 496 fps;
#X obj 1254 500 * 25;
#X text 1283 500 comment;
#X floatatom 1300 516 8 0 0 0 - - -;
#X obj 1251 477 / 1000;
#X msg 1280 90 send /v3/fr \$1;
#X msg 1264 110 send /v3/pos \$1;
#X msg 1269 533 send /v4/fr \$1;
#X msg 1253 553 send /v4/pos \$1;
#X obj 985 -211 hsl 500 15 0 15 0 0 empty empty empty -2 -8 0 10 -262144
-1 -1 0 0;
#X floatatom 1014 -208 5 0 0 0 - - -;
#X floatatom 983 -164 8 0 0 0 - - -;
#X obj 983 -188 * 44100;
#X obj 1205 -134 OSCroute /a3;
#X obj 1194 309 OSCroute /a4;
#X obj 983 268 hsl 500 15 0 15 0 0 empty empty empty -2 -8 0 10 -262144
-1 -1 0 0;
#X floatatom 1012 271 5 0 0 0 - - -;
#X floatatom 981 315 8 0 0 0 - - -;
#X obj 981 291 * 44100;
#X floatatom 1157 680 5 0 0 0 - - -;
#X obj 1215 682 OSCroute /vol;
#X obj 1212 232 OSCroute /vol;
#X obj 679 438 OSCroute /vol;
#X floatatom 633 439 5 0 0 0 - - -;
#X floatatom 1172 238 5 0 0 0 - - -;
#X floatatom 172 458 5 0 0 0 - - -;
#X obj 222 456 OSCroute /vol;
#X obj 121 -143 hsl 128 15 10 300 0 0 empty empty empty -2 -8 0 10
-262144 -1 -1 2900 1;
#X floatatom 215 -143 5 0 0 0 - - -;
#X obj 118 -119 *;
#X floatatom 146 -117 5 0 0 0 - - -;
#X obj 127 -96 *;
#X floatatom 155 -94 5 0 0 0 - - -;
#X obj 144 -74 *;
#X floatatom 172 -72 5 0 0 0 - - -;
#X obj 157 -49 *;
#X floatatom 185 -47 5 0 0 0 - - -;
#X obj 419 500 spigot;
#X obj 451 481 tgl 15 0 empty empty empty 17 7 0 10 -262144 -1 -1 0
1;
#X obj 1281 641 spigot;
#X obj 1313 622 tgl 15 0 empty empty empty 17 7 0 10 -262144 -1 -1
0 1;
#X obj 232 -112 hsl 128 15 -100 100 0 0 empty empty empty -2 -8 0 10
-262144 -1 -1 11900 1;
#X obj 229 -88 *;
#X floatatom 257 -86 5 0 0 0 - - -;
#X obj 238 -65 *;
#X floatatom 266 -63 5 0 0 0 - - -;
#X obj 255 -43 *;
#X floatatom 283 -41 5 0 0 0 - - -;
#X obj 268 -18 *;
#X floatatom 296 -16 5 0 0 0 - - -;
#X obj 184 -117 bng 15 250 50 0 empty empty empty 17 7 0 10 -262144
-1 -1;
#X obj 191 -96 bng 15 250 50 0 empty empty empty 17 7 0 10 -262144
-1 -1;
#X obj 207 -73 bng 15 250 50 0 empty empty empty 17 7 0 10 -262144
-1 -1;
#X obj 222 -46 bng 15 250 50 0 empty empty empty 17 7 0 10 -262144
-1 -1;
#X obj 454 655 keyIn;
#X obj 494 380 env;
#X obj -10 -84 hsl 128 15 10 300 0 0 empty empty empty -2 -8 0 10 -262144
-1 -1 1000 1;
#X floatatom 84 -84 5 0 0 0 - - -;
#X obj -13 -60 *;
#X floatatom 15 -58 5 0 0 0 - - -;
#X obj -4 -37 *;
#X floatatom 24 -35 5 0 0 0 - - -;
#X obj 13 -15 *;
#X floatatom 41 -13 5 0 0 0 - - -;
#X obj 26 10 *;
#X floatatom 54 12 5 0 0 0 - - -;
#X obj 53 -58 bng 15 250 50 0 empty empty empty 17 7 0 10 -262144 -1
-1;
#X obj 60 -37 bng 15 250 50 0 empty empty empty 17 7 0 10 -262144 -1
-1;
#X obj 76 -14 bng 15 250 50 0 empty empty empty 17 7 0 10 -262144 -1
-1;
#X obj 91 13 bng 15 250 50 0 empty empty empty 17 7 0 10 -262144 -1
-1;
#X text 21 -106 env length;
#X text 130 -162 metro time;
#X text 267 -128 transpose;
#X obj 35 398 env;
#X obj 1032 179 env;
#X obj 1021 622 env;
#X connect 0 0 274 1;
#X connect 2 0 3 0;
#X connect 2 0 274 2;
#X connect 4 0 5 0;
#X connect 4 0 45 1;
#X connect 4 0 57 0;
#X connect 8 0 9 0;
#X connect 8 0 45 4;
#X connect 10 0 45 2;
#X connect 12 0 0 0;
#X connect 13 0 12 0;
#X connect 14 0 4 0;
#X connect 15 0 12 1;
#X connect 15 0 16 0;
#X connect 17 0 43 0;
#X connect 18 0 1 0;
#X connect 18 1 1 1;
#X connect 19 0 17 2;
#X connect 20 0 21 0;
#X connect 20 0 39 0;
#X connect 20 0 98 0;
#X connect 20 0 214 0;
#X connect 20 0 215 0;
#X connect 21 0 41 0;
#X connect 21 0 47 0;
#X connect 21 0 48 0;
#X connect 21 0 56 0;
#X connect 21 0 227 0;
#X connect 22 0 4 0;
#X connect 24 0 23 0;
#X connect 25 0 24 0;
#X connect 26 0 23 0;
#X connect 27 0 35 0;
#X connect 27 0 59 0;
#X connect 28 0 31 1;
#X connect 29 0 31 1;
#X connect 31 0 26 0;
#X connect 31 0 36 0;
#X connect 33 0 45 0;
#X connect 37 0 31 0;
#X connect 38 0 4 0;
#X connect 39 0 18 8;
#X connect 40 0 23 0;
#X connect 41 0 42 0;
#X connect 41 0 45 0;
#X connect 43 0 18 0;
#X connect 43 0 18 1;
#X connect 44 0 43 2;
#X connect 44 0 226 0;
#X connect 45 0 17 0;
#X connect 45 0 274 0;
#X connect 45 1 37 0;
#X connect 46 0 45 5;
#X connect 47 0 4 0;
#X connect 48 0 8 0;
#X connect 49 0 52 0;
#X connect 49 1 50 0;
#X connect 50 0 38 0;
#X connect 51 0 49 0;
#X connect 52 0 46 0;
#X connect 53 0 55 0;
#X connect 55 0 40 0;
#X connect 56 0 45 3;
#X connect 57 0 53 0;
#X connect 58 0 45 0;
#X connect 59 0 33 0;
#X connect 60 0 238 0;
#X connect 60 0 256 1;
#X connect 61 0 62 0;
#X connect 61 0 256 2;
#X connect 63 0 64 0;
#X connect 63 0 84 1;
#X connect 63 0 96 0;
#X connect 67 0 68 0;
#X connect 67 0 84 4;
#X connect 69 0 84 2;
#X connect 71 0 60 0;
#X connect 72 0 71 0;
#X connect 73 0 63 0;
#X connect 74 0 71 1;
#X connect 74 0 75 0;
#X connect 76 0 82 0;
#X connect 77 0 76 2;
#X connect 78 0 63 0;
#X connect 79 0 63 0;
#X connect 80 0 81 0;
#X connect 80 0 84 0;
#X connect 82 0 18 2;
#X connect 82 0 18 3;
#X connect 83 0 82 2;
#X connect 83 0 224 0;
#X connect 84 0 76 0;
#X connect 84 0 256 0;
#X connect 84 1 106 0;
#X connect 85 0 84 5;
#X connect 86 0 63 0;
#X connect 87 0 67 0;
#X connect 88 0 91 0;
#X connect 88 1 89 0;
#X connect 89 0 79 0;
#X connect 90 0 88 0;
#X connect 91 0 85 0;
#X connect 92 0 94 0;
#X connect 94 0 112 0;
#X connect 95 0 84 3;
#X connect 95 0 99 0;
#X connect 96 0 92 0;
#X connect 97 0 84 0;
#X connect 98 0 80 0;
#X connect 98 0 86 0;
#X connect 98 0 87 0;
#X connect 98 0 95 0;
#X connect 98 0 223 0;
#X connect 100 0 103 1;
#X connect 101 0 103 1;
#X connect 103 0 113 0;
#X connect 103 0 105 0;
#X connect 106 0 103 0;
#X connect 107 0 110 0;
#X connect 107 0 111 0;
#X connect 108 0 84 0;
#X connect 111 0 108 0;
#X connect 112 0 23 0;
#X connect 113 0 23 0;
#X connect 114 0 275 1;
#X connect 115 0 116 0;
#X connect 115 0 275 2;
#X connect 117 0 118 0;
#X connect 117 0 138 1;
#X connect 117 0 150 0;
#X connect 121 0 122 0;
#X connect 121 0 138 4;
#X connect 123 0 138 2;
#X connect 125 0 114 0;
#X connect 126 0 125 0;
#X connect 127 0 117 0;
#X connect 128 0 125 1;
#X connect 128 0 129 0;
#X connect 130 0 136 0;
#X connect 131 0 130 2;
#X connect 132 0 117 0;
#X connect 133 0 117 0;
#X connect 134 0 135 0;
#X connect 134 0 138 0;
#X connect 136 0 18 4;
#X connect 136 0 18 5;
#X connect 137 0 136 2;
#X connect 137 0 225 0;
#X connect 138 0 130 0;
#X connect 138 0 275 0;
#X connect 138 1 159 0;
#X connect 139 0 138 5;
#X connect 140 0 117 0;
#X connect 141 0 121 0;
#X connect 142 0 145 0;
#X connect 142 1 143 0;
#X connect 143 0 133 0;
#X connect 144 0 142 0;
#X connect 145 0 139 0;
#X connect 146 0 148 0;
#X connect 148 0 206 0;
#X connect 149 0 138 3;
#X connect 149 0 152 0;
#X connect 150 0 146 0;
#X connect 151 0 138 0;
#X connect 153 0 156 1;
#X connect 154 0 156 1;
#X connect 156 0 207 0;
#X connect 156 0 158 0;
#X connect 159 0 156 0;
#X connect 160 0 240 0;
#X connect 160 0 276 1;
#X connect 161 0 162 0;
#X connect 161 0 276 2;
#X connect 163 0 164 0;
#X connect 163 0 184 1;
#X connect 163 0 196 0;
#X connect 167 0 168 0;
#X connect 167 0 184 4;
#X connect 169 0 184 2;
#X connect 171 0 160 0;
#X connect 172 0 171 0;
#X connect 173 0 163 0;
#X connect 174 0 171 1;
#X connect 174 0 175 0;
#X connect 176 0 182 0;
#X connect 177 0 176 2;
#X connect 178 0 163 0;
#X connect 179 0 163 0;
#X connect 180 0 181 0;
#X connect 180 0 184 0;
#X connect 182 0 18 6;
#X connect 182 0 18 7;
#X connect 183 0 182 2;
#X connect 183 0 220 0;
#X connect 184 0 176 0;
#X connect 184 0 276 0;
#X connect 184 1 205 0;
#X connect 185 0 184 5;
#X connect 186 0 163 0;
#X connect 187 0 167 0;
#X connect 188 0 191 0;
#X connect 188 1 189 0;
#X connect 189 0 179 0;
#X connect 190 0 188 0;
#X connect 191 0 185 0;
#X connect 192 0 194 0;
#X connect 194 0 208 0;
#X connect 195 0 184 3;
#X connect 195 0 198 0;
#X connect 196 0 192 0;
#X connect 197 0 184 0;
#X connect 199 0 202 1;
#X connect 200 0 202 1;
#X connect 202 0 209 0;
#X connect 202 0 204 0;
#X connect 205 0 202 0;
#X connect 206 0 23 0;
#X connect 207 0 23 0;
#X connect 208 0 23 0;
#X connect 209 0 23 0;
#X connect 210 0 211 0;
#X connect 210 0 213 0;
#X connect 212 0 138 0;
#X connect 213 0 212 0;
#X connect 214 0 134 0;
#X connect 214 0 140 0;
#X connect 214 0 141 0;
#X connect 214 0 149 0;
#X connect 214 0 222 0;
#X connect 215 0 180 0;
#X connect 215 0 186 0;
#X connect 215 0 187 0;
#X connect 215 0 195 0;
#X connect 215 0 221 0;
#X connect 216 0 217 0;
#X connect 216 0 219 0;
#X connect 218 0 184 0;
#X connect 219 0 218 0;
#X connect 221 0 183 0;
#X connect 222 0 137 0;
#X connect 223 0 83 0;
#X connect 227 0 44 0;
#X connect 228 0 229 0;
#X connect 228 0 230 0;
#X connect 228 0 232 0;
#X connect 228 0 234 0;
#X connect 228 0 236 0;
#X connect 230 0 15 0;
#X connect 231 0 230 1;
#X connect 231 0 251 0;
#X connect 232 0 74 0;
#X connect 233 0 232 1;
#X connect 233 0 252 0;
#X connect 234 0 128 0;
#X connect 235 0 234 1;
#X connect 235 0 253 0;
#X connect 236 0 174 0;
#X connect 237 0 236 1;
#X connect 237 0 254 0;
#X connect 238 0 107 0;
#X connect 239 0 238 1;
#X connect 240 0 216 0;
#X connect 241 0 240 1;
#X connect 242 0 243 0;
#X connect 242 0 245 0;
#X connect 242 0 247 0;
#X connect 242 0 249 0;
#X connect 243 0 45 4;
#X connect 244 0 243 1;
#X connect 245 0 84 4;
#X connect 246 0 245 1;
#X connect 247 0 138 4;
#X connect 248 0 247 1;
#X connect 249 0 184 4;
#X connect 250 0 249 1;
#X connect 251 0 230 0;
#X connect 252 0 232 0;
#X connect 253 0 234 0;
#X connect 254 0 236 0;
#X connect 255 0 23 0;
#X connect 256 0 76 1;
#X connect 257 0 258 0;
#X connect 257 0 259 0;
#X connect 257 0 261 0;
#X connect 257 0 263 0;
#X connect 257 0 265 0;
#X connect 259 0 2 0;
#X connect 260 0 259 1;
#X connect 260 0 267 0;
#X connect 261 0 61 0;
#X connect 262 0 261 1;
#X connect 262 0 268 0;
#X connect 263 0 115 0;
#X connect 264 0 263 1;
#X connect 264 0 269 0;
#X connect 265 0 161 0;
#X connect 266 0 265 1;
#X connect 266 0 270 0;
#X connect 267 0 259 0;
#X connect 268 0 261 0;
#X connect 269 0 263 0;
#X connect 270 0 265 0;
#X connect 274 0 17 1;
#X connect 275 0 130 1;
#X connect 276 0 176 1;
