#N canvas 101 3 484 203 10;
#X text 313 41 set the number per frame;
#X obj 27 83 hsl 128 15 -2 2 0 1 empty empty empty -2 -6 0 8 -262144
-1 -1 6350 1;
#X obj 55 100 hsl 128 15 -2 2 0 1 empty empty empty -2 -6 0 8 -262144
-1 -1 6350 1;
#X obj 78 121 hsl 128 15 -20 20 0 1 empty empty empty -2 -6 0 8 -262144
-1 -1 3747 1;
#X floatatom 27 83 5 0 0 0 - - -;
#X floatatom 59 102 5 0 0 0 - - -;
#X floatatom 83 121 5 0 0 0 - - -;
#X obj 17 61 unpack f f f;
#X obj 9 40 OSCroute /s;
#X obj 132 14 OSCroute /t;
#X obj 273 123 line 0 100;
#X obj 264 100 line 0 100;
#X obj 230 81 line 0 100;
#X obj 161 80 pack f f;
#X obj 194 101 pack f f;
#X obj 212 123 pack f f;
#X obj 84 40 OSCroute /x;
#X obj 158 40 OSCroute /y;
#X obj 228 39 OSCroute /z;
#X text 138 83 x;
#X text 170 97 y;
#X text 190 120 z;
#X obj 51 14 inlet;
#X obj 35 157 outlet;
#X obj 81 158 outlet;
#X obj 127 159 outlet;
#X connect 1 0 4 0;
#X connect 1 0 13 0;
#X connect 2 0 5 0;
#X connect 2 0 14 0;
#X connect 3 0 6 0;
#X connect 3 0 15 0;
#X connect 7 0 1 0;
#X connect 7 1 2 0;
#X connect 7 2 6 0;
#X connect 8 0 7 0;
#X connect 9 0 13 1;
#X connect 9 0 14 1;
#X connect 9 0 15 1;
#X connect 10 0 25 0;
#X connect 11 0 24 0;
#X connect 12 0 23 0;
#X connect 13 0 12 0;
#X connect 14 0 11 0;
#X connect 15 0 10 0;
#X connect 16 0 1 0;
#X connect 17 0 2 0;
#X connect 18 0 3 0;
#X connect 22 0 9 0;
#X connect 22 0 8 0;
#X connect 22 0 16 0;
#X connect 22 0 17 0;
#X connect 22 0 18 0;
