#N canvas 168 56 777 527 10;
#X obj 14 10 cnv 15 200 250 empty empty empty 20 12 0 14 -233017 -66577
0;
#X msg 23 52 800 600 0 0;
#X msg 26 98 320 240 0 0;
#X msg 99 51 800 600 1440 -1;
#X msg 24 74 1024 768 0 0;
#X msg 108 71 1024 768 1440 -1;
#X msg 22 143 offset \$3 \$4;
#X msg 105 143 dimen \$1 \$2;
#X obj 38 164 t b b;
#X msg 81 210 destroy;
#X obj 142 189 tgl 15 0 empty empty empty 0 -6 0 8 -262144 -1 -1 0
1;
#X text 156 187 render;
#X msg 85 191 0;
#X msg 34 191 1;
#X obj 136 210 gemwin 20;
#X msg 22 32 640 480 0 0;
#X msg 98 31 640 480 1440 -1;
#X msg 107 95 400 300 0 0;
#X msg 16 121 1440 900 0 -1;
#X text 38 11 open window;
#X obj 228 12 dumpOSC 10002;
#X obj 218 156 6frame;
#X obj 298 120 OSCroute /particle;
#X obj 298 155 particle;
#X obj 391 175 sphereosc;
#X obj 394 151 OSCroute /sphere;
#X obj 333 20 OSCroute /control;
#X obj 358 48 unpack f f f;
#X obj 285 34 bng 15 250 50 0 empty empty empty 0 -6 0 8 -262144 -1
-1;
#X obj 299 188 tgl 15 0 empty empty empty 0 -6 0 8 -262144 -1 -1 0
1;
#X obj 250 128 tgl 15 0 empty empty empty 0 -6 0 8 -262144 -1 -1 0
1;
#X obj 340 138 tgl 15 0 empty empty empty 0 -6 0 8 -262144 -1 -1 0
1;
#X msg 121 163 lighting \$1;
#X obj 100 163 tgl 15 0 empty empty empty 0 -6 0 8 -262144 -1 -1 0
1;
#X obj 443 127 tgl 15 0 empty empty empty 0 -6 0 8 -262144 -1 -1 0
1;
#X text 192 114 fullscreen;
#X obj 251 243 gemmouse;
#X msg 270 275 0;
#X msg 309 276 1;
#X msg 24 233 create;
#X msg 112 117 800 600 -1 -1;
#X obj 357 213 gemhead;
#X obj 361 247 world_light;
#X msg 146 269 fullscreen 1;
#X obj 242 207 ChangeText;
#X connect 1 0 6 0;
#X connect 1 0 7 0;
#X connect 1 0 8 0;
#X connect 2 0 6 0;
#X connect 2 0 7 0;
#X connect 2 0 8 0;
#X connect 3 0 6 0;
#X connect 3 0 7 0;
#X connect 3 0 8 0;
#X connect 4 0 6 0;
#X connect 4 0 7 0;
#X connect 4 0 8 0;
#X connect 5 0 7 0;
#X connect 5 0 6 0;
#X connect 5 0 8 0;
#X connect 6 0 14 0;
#X connect 7 0 14 0;
#X connect 8 0 39 0;
#X connect 8 0 13 0;
#X connect 8 1 9 0;
#X connect 8 1 12 0;
#X connect 9 0 14 0;
#X connect 10 0 14 0;
#X connect 12 0 10 0;
#X connect 12 0 33 0;
#X connect 13 0 10 0;
#X connect 13 0 33 0;
#X connect 15 0 6 0;
#X connect 15 0 7 0;
#X connect 15 0 8 0;
#X connect 16 0 8 0;
#X connect 17 0 6 0;
#X connect 17 0 7 0;
#X connect 17 0 8 0;
#X connect 18 0 7 0;
#X connect 18 0 6 0;
#X connect 18 0 8 0;
#X connect 20 0 28 0;
#X connect 20 0 21 0;
#X connect 20 0 22 0;
#X connect 20 0 26 0;
#X connect 20 0 44 0;
#X connect 22 0 23 0;
#X connect 22 1 25 0;
#X connect 25 0 24 0;
#X connect 26 0 27 0;
#X connect 27 0 30 0;
#X connect 27 1 29 0;
#X connect 27 2 34 0;
#X connect 27 2 31 0;
#X connect 29 0 44 1;
#X connect 30 0 21 1;
#X connect 31 0 23 1;
#X connect 32 0 14 0;
#X connect 33 0 32 0;
#X connect 34 0 24 1;
#X connect 36 3 37 0;
#X connect 36 4 38 0;
#X connect 37 0 43 0;
#X connect 38 0 43 0;
#X connect 39 0 14 0;
#X connect 40 0 7 0;
#X connect 40 0 8 0;
#X connect 40 0 38 0;
#X connect 41 0 42 0;
#X connect 43 0 14 0;
