#N canvas 266 248 768 527 8;
#X obj 292 203 ../drums/drum_sampler;
#X obj 102 153 OSCroute /main;
#X obj 221 63 OSCroute /preview;
#X obj 229 115 ../effects/sampler_st_osc;
#X obj 154 308 loadbang;
#X msg 154 326 8 8 8 8;
#X obj 230 87 spigot;
#X obj 268 83 tgl 15 0 empty empty empty 0 -6 0 8 -262144 -1 -1 0 1
;
#X obj 25 170 ../oc/filter;
#X obj 23 144 noise~;
#X obj 26 209 ../oc/flange_st;
#X floatatom 401 272 5 0 0 0 - - -;
#X obj 483 330 bng 15 250 50 0 /sphere/size empty empty 0 -6 0 8 -262144
-1 -1;
#X obj 360 387 sendOSC;
#X obj 376 347 bng 15 250 50 0 empty empty empty 0 -6 0 8 -262144 -1
-1;
#X floatatom 360 310 5 0 0 0 - - -;
#X msg 376 366 connect localhost 10011;
#X obj 485 100 loadbang;
#X obj 329 365 spigot;
#X obj 356 347 tgl 15 0 empty empty empty 0 -6 0 8 -262144 -1 -1 0
1;
#X obj 297 309 env~ 8192;
#X obj 286 348 + 0;
#X msg 263 313 1;
#X obj 278 264 tgl 15 0 empty empty empty 0 -6 0 8 -262144 -1 -1 0
1;
#X msg 361 325 send /sphere/size \$1;
#X obj 271 287 metro 50;
#X obj 54 444 *~;
#X obj 85 444 *~;
#X obj 85 391 limiter~ 50 1;
#X obj 120 420 z~ 64;
#X obj 55 417 z~ 64;
#X obj 59 368 *~ 1;
#X obj 134 372 *~ 1;
#X obj 52 471 *~;
#X obj 83 471 *~;
#X obj 124 460 hsl 128 15 0 1 0 0 empty empty empty -2 -6 0 8 -262144
-1 -1 6350 1;
#X obj 144 57 bng 15 250 50 0 empty empty empty 0 -6 0 8 -262144 -1
-1;
#X obj 183 394 OSCroute /limit_gain;
#X floatatom 129 461 5 0 0 0 - - -;
#X obj 371 25 cnv 15 60 100 empty empty empty 20 12 0 14 -233017 -66577
0;
#X obj 417 74 bng 15 250 50 0 empty empty empty 0 -6 0 8 -262144 -1
-1;
#X obj 386 93 genin;
#X obj 400 74 tgl 15 0 empty empty empty 0 -6 0 8 -262144 -1 -1 1 1
;
#X obj 394 48 r in;
#X obj 386 28 r in8;
#X obj 43 8 inlet;
#X obj 51 496 outlet~;
#X obj 110 495 outlet~;
#X obj 59 346 ../effects/mixer;
#X obj 495 197 inlet;
#X connect 0 1 20 0;
#X connect 0 1 48 2;
#X connect 0 2 48 3;
#X connect 1 0 48 8;
#X connect 2 0 6 0;
#X connect 3 0 48 6;
#X connect 3 1 48 7;
#X connect 4 0 5 0;
#X connect 5 0 48 9;
#X connect 6 0 3 0;
#X connect 7 0 6 1;
#X connect 8 0 10 0;
#X connect 8 1 10 1;
#X connect 9 0 8 0;
#X connect 9 0 8 1;
#X connect 10 0 48 0;
#X connect 10 1 48 1;
#X connect 14 0 16 0;
#X connect 15 0 24 0;
#X connect 16 0 13 0;
#X connect 17 0 40 0;
#X connect 17 0 42 0;
#X connect 17 0 14 0;
#X connect 18 0 13 0;
#X connect 19 0 18 1;
#X connect 20 0 21 1;
#X connect 21 0 15 0;
#X connect 22 0 21 0;
#X connect 23 0 25 0;
#X connect 24 0 12 0;
#X connect 24 0 18 0;
#X connect 25 0 22 0;
#X connect 26 0 33 0;
#X connect 27 0 34 0;
#X connect 28 0 27 0;
#X connect 28 0 26 1;
#X connect 29 0 27 1;
#X connect 30 0 26 0;
#X connect 31 0 28 0;
#X connect 31 0 30 0;
#X connect 32 0 29 0;
#X connect 32 0 28 1;
#X connect 33 0 46 0;
#X connect 34 0 47 0;
#X connect 35 0 34 1;
#X connect 35 0 33 1;
#X connect 35 0 38 0;
#X connect 37 0 35 0;
#X connect 40 0 41 3;
#X connect 42 0 41 2;
#X connect 43 0 41 1;
#X connect 44 0 41 0;
#X connect 45 0 0 0;
#X connect 45 0 1 0;
#X connect 45 0 2 0;
#X connect 45 0 8 2;
#X connect 45 0 10 2;
#X connect 45 0 36 0;
#X connect 45 0 37 0;
#X connect 48 0 31 0;
#X connect 48 1 32 0;
#X connect 49 0 19 0;
#X connect 49 0 23 0;
