#N canvas 368 139 404 283 10;
#X obj -198 174 sendOSC;
#X obj -207 19 inlet;
#X obj -12 17 inlet;
#X obj 29 21 bng 15 250 50 0 empty empty empty 0 -6 0 8 -262144 -1
-1;
#X obj -97 19 keyIn;
#X msg -207 121 send /in \$1 \$2 \$3 \$4;
#X obj -97 42 spigot;
#X obj -54 15 inlet;
#X obj -199 72 unpack f f f f f f f f;
#X obj -208 96 pack f f f f;
#X obj -128 99 pack f f f f;
#X msg -171 45 send /in \$1;
#X obj -171 19 inlet;
#X obj 63 24 inlet;
#X msg -121 144 send /in1 \$1 \$2 \$3 \$4;
#X obj 63 48 bng 15 250 50 0 /mov_trig empty empty 0 -6 0 8 -262144
-1 -1;
#X msg -13 91 connect localhost 10011;
#X connect 1 0 8 0;
#X connect 2 0 16 0;
#X connect 3 0 16 0;
#X connect 4 0 6 0;
#X connect 5 0 0 0;
#X connect 6 0 0 0;
#X connect 7 0 6 1;
#X connect 8 0 9 0;
#X connect 8 1 9 1;
#X connect 8 2 9 2;
#X connect 8 3 9 3;
#X connect 8 4 10 0;
#X connect 8 5 10 1;
#X connect 8 6 10 2;
#X connect 8 7 10 3;
#X connect 9 0 5 0;
#X connect 10 0 14 0;
#X connect 11 0 0 0;
#X connect 12 0 11 0;
#X connect 13 0 0 0;
#X connect 13 0 15 0;
#X connect 14 0 0 0;
#X connect 16 0 0 0;
