#N canvas 414 78 933 737 8;
#X obj 248 165 * 1;
#X obj 264 143 hsl 128 15 0 1 0 0 empty empty empty -2 -6 0 8 -262144
-1 -1 0 1;
#X floatatom 361 144 5 0 0 0 - - -;
#X text 363 127 0.716;
#X obj 298 165 bng 15 250 50 0 empty empty empty 0 -6 0 8 -262144 -1
-1;
#X obj 248 94 bng 15 250 50 0 empty empty empty 0 -6 0 8 -262144 -1
-1;
#X obj 429 255 hsl 128 15 -50 50 0 0 empty empty empty -2 -6 0 4 -262144
-1 -1 7747 0;
#X text 473 254 pitch;
#X floatatom 521 254 5 0 0 0 - - -;
#X obj 5 612 *~ 1;
#X obj -30 573 hsl 128 15 0 2 0 0 empty empty empty -2 -6 0 8 -262144
-1 -1 2184 1;
#X text 30 518 main vol;
#X obj 211 42 OSCroute /sampler;
#X obj 326 76 OSCroute /set;
#X obj 298 97 OSCroute /trig;
#X obj 223 73 OSCroute /file;
#X obj 408 36 OSCroute /pitch;
#X floatatom 408 84 8 0 0 0 - - -;
#X obj 410 102 t f b;
#X floatatom 431 165 5 0 0 0 - - -;
#X obj 60 358 hsl 128 15 0 127 0 0 empty empty empty -2 -6 0 8 -262144
-1 -1 0 1;
#X obj 61 380 hsl 128 15 0 100 0 0 empty empty empty -2 -6 0 8 -262144
-1 -1 0 1;
#X obj 60 400 hsl 128 15 1 400 1 0 empty empty empty -2 -6 0 8 -262144
-1 -1 0 1;
#X obj 60 454 hsl 128 15 0 127 0 0 empty empty empty -2 -6 0 8 -262144
-1 -1 0 1;
#X text 66 452 volume;
#X text 60 397 offset;
#X text 61 379 LFO Freq;
#X text 63 358 depth;
#X obj 57 418 hsl 128 15 0 127 0 0 empty empty empty -2 -6 0 8 -262144
-1 -1 0 1;
#X text 60 416 feedback;
#X obj 58 436 hsl 128 15 0 127 0 0 empty empty empty -2 -6 0 8 -262144
-1 -1 0 1;
#X text 61 434 feedback delay;
#X floatatom 156 361 5 0 0 0 - - -;
#X floatatom 157 380 5 0 0 0 - - -;
#X floatatom 156 401 5 0 0 0 - - -;
#X floatatom 155 420 5 0 0 0 - - -;
#X floatatom 157 435 5 0 0 0 - - -;
#X floatatom 156 453 5 0 0 0 - - -;
#X obj 11 500 ../effects/flanger;
#X obj 241 213 ../effects/tape_pitchshift;
#X obj -38 119 OSCroute /flange_set;
#X obj 2 163 OSCroute /flange;
#X obj 22 208 OSCroute /lfofreq;
#X obj 22 229 OSCroute /offset;
#X obj 23 252 OSCroute /feedback;
#X obj 23 274 OSCroute /fbdel;
#X obj 545 4 cnv 15 60 100 empty empty empty 20 12 0 14 -233017 -66577
0;
#X obj 590 54 bng 15 250 50 0 empty empty empty 0 -6 0 8 -262144 -1
-1;
#X obj 559 73 genin;
#X obj 573 54 tgl 15 0 empty empty empty 0 -6 0 8 -262144 -1 -1 1 1
;
#X obj 567 28 r in;
#X obj 559 8 r in8;
#X obj 240 118 OSCroute /start;
#X obj 102 2 OSCroute /metro;
#X obj 95 135 metro 500;
#X obj 103 50 OSCroute /time;
#X obj 51 29 OSCroute /on;
#X obj 95 117 tgl 15 0 empty empty empty 0 -6 0 8 -262144 -1 -1 1 1
;
#X obj 88 71 OSCroute /set;
#X obj 92 94 unpack f f;
#X floatatom 178 105 5 0 0 0 - - -;
#X obj 22 186 OSCroute /depth;
#X obj 115 575 OSCroute /mstr_vol;
#X msg 434 126 60;
#X obj 410 146 - 60;
#X obj 120 622 line;
#X obj 119 602 unpack f f;
#X obj -24 302 line;
#X obj -9 322 line;
#X obj 15 300 line;
#X obj 37 327 line;
#X obj 57 298 line;
#X obj 75 328 line;
#X obj 87 298 OSCroute /vol;
#X obj 116 314 OSCroute /time;
#X obj 205 597 bng 15 250 50 0 empty empty empty 0 -6 0 8 -262144 -1
-1;
#X floatatom 649 135 5 0 0 0 - - -;
#X obj 22 545 vcf~;
#X obj 323 512 hsl 128 15 20 25000 1 0 empty empty empty -2 -6 0 8
-262144 -1 -1 0 1;
#X obj 326 536 hsl 128 15 0 20 0 0 empty empty empty -2 -6 0 8 -262144
-1 -1 0 1;
#X obj 393 -2 hsl 128 15 50 500 0 0 empty empty empty -2 -6 0 8 -262144
-1 -1 0 1;
#X floatatom 407 1 5 0 0 0 - - -;
#X obj 223 190 ../effects/sampler_st;
#X obj 214 619 *~ 1;
#X obj 233 586 hsl 128 15 0 2 0 0 empty empty empty -2 -6 0 8 -262144
-1 -1 2184 1;
#X text 121 558 main vol;
#X obj 185 507 ../effects/flanger;
#X obj 543 552 ../drums/drum_sampler;
#X obj 258 234 ../effects/tape_pitchshift;
#X obj 429 212 pack f f;
#X obj 426 233 line;
#X obj 408 187 hsl 128 15 0 400 0 0 empty empty empty -2 -6 0 8 -262144
-1 -1 571 1;
#X floatatom 508 187 5 0 0 0 - - -;
#X obj 415 60 unpack f f;
#X text 416 187 portamento;
#X obj 426 327 mtof;
#X obj 308 18 bng 15 250 50 0 empty empty empty 0 -6 0 8 -262144 -1
-1;
#X obj 457 306 hsl 128 15 0 127 0 0 empty empty empty -2 -6 0 8 -262144
-1 -1 0 1;
#X obj 425 305 + 0;
#X floatatom 552 306 5 0 0 0 - - -;
#X msg 540 284 37;
#X obj 428 376 ../effects/multi_osc;
#X obj 431 352 hsl 128 15 0 300 0 0 empty empty empty -2 -6 0 8 -262144
-1 -1 653 1;
#X obj 467 397 hsl 128 15 0 1 0 0 empty empty empty -2 -6 0 8 -262144
-1 -1 0 1;
#X obj 428 398 *~;
#X msg 535 376 0 50 50;
#X msg 601 398 0.8;
#X obj 184 537 vcf~;
#X obj 388 459 OSCroute /set;
#X obj 389 476 unpack f f;
#X obj 477 443 OSCroute /vcf;
#X obj 462 468 OSCroute /freq;
#X obj 516 489 OSCroute /q;
#X text 325 538 q;
#X floatatom 408 515 8 0 0 0 - - -;
#X floatatom 424 539 5 0 0 0 - - -;
#X text 328 514 cutoff;
#X obj 608 297 OSCroute /osc;
#X obj 620 319 OSCroute /base;
#X obj 625 343 OSCroute /vol;
#X obj 561 616 *~ 1;
#X obj 588 615 hsl 128 15 0 1 0 0 empty empty empty -2 -6 0 8 -262144
-1 -1 1270 1;
#X obj 514 644 line;
#X obj 509 624 unpack f f;
#X obj 491 624 bng 15 250 50 0 empty empty empty 0 -6 0 8 -262144 -1
-1;
#X obj 543 645 *~ 1;
#X obj 573 641 hsl 128 15 0 1 0 0 empty empty empty -2 -6 0 8 -262144
-1 -1 1270 1;
#X obj 567 199 bng 15 250 50 0 /mov_trig empty empty 0 -6 0 8 -262144
-1 -1;
#X obj 608 250 sendOSC;
#X obj 624 210 bng 15 250 50 0 empty empty empty 0 -6 0 8 -262144 -1
-1;
#X floatatom 592 137 5 0 0 0 - - -;
#X msg 624 230 connect localhost 10011;
#X obj 653 382 OSCroute /sin;
#X obj 650 364 OSCroute /sq;
#X obj 641 406 pack 0 f f;
#X obj 633 379 bng 15 250 50 0 empty empty empty 0 -6 0 8 -262144 -1
-1;
#X obj 201 319 ../effects/compressor_st;
#X obj 623 194 loadbang;
#X obj 300 270 OSCroute /compressor;
#X obj 304 292 OSCroute /set;
#X obj -34 142 unpack f f f f f f f f;
#X obj 119 336 bng 15 250 50 0 empty empty empty 0 -6 0 8 -262144 -1
-1;
#X obj 506 588 OSCroute /drum_vol;
#X floatatom 688 618 5 0 0 0 - - -;
#X floatatom 674 644 5 0 0 0 - - -;
#X obj 224 382 ../effects/crossfade_st;
#X obj 266 341 hsl 128 15 0 127 0 0 empty empty empty -2 -6 0 8 -262144
-1 -1 0 1;
#X obj 327 317 OSCroute /mix;
#X floatatom 366 343 5 0 0 0 - - -;
#X text 274 342 compressor_mix;
#X obj 643 504 loadbang;
#X msg 642 531 0.1;
#X obj 561 120 OSCroute /mov_trig_send;
#X obj 577 228 spigot;
#X obj 595 211 tgl 15 0 empty empty empty 0 -6 0 8 -262144 -1 -1 0
1;
#X obj 264 702 ../tools/recorder;
#X obj 136 673 *~ 1;
#X obj 176 670 *~ 1;
#X obj 305 663 bng 15 250 50 0 empty empty empty 0 -6 0 8 -262144 -1
-1;
#X obj 336 661 bng 15 250 50 0 empty empty empty 0 -6 0 8 -262144 -1
-1;
#X obj 292 612 OSCroute /rec;
#X obj 363 663 OSCroute /file;
#X obj 302 645 OSCroute /stop;
#X obj 365 680 bng 15 250 50 0 empty empty empty 0 -6 0 8 -262144 -1
-1;
#X obj 281 632 OSCroute /start;
#X floatatom 70 576 5 0 0 0 - - -;
#X floatatom 334 587 5 0 0 0 - - -;
#X obj 577 251 bng 15 250 50 0 /mov_trig empty empty 0 -6 0 8 -262144
-1 -1;
#X obj 594 152 bng 15 250 50 0 /mov_trig empty empty 0 -6 0 8 -262144
-1 -1;
#X msg 592 172 send /mov_trig;
#X obj 702 517 OSCroute /trig;
#X obj 718 500 OSCroute /set;
#X obj 830 490 bng 15 250 50 0 empty empty empty 0 -6 0 8 -262144 -1
-1;
#X obj 805 439 bng 15 250 50 0 empty empty empty 0 -6 0 8 -262144 -1
-1;
#X obj 696 424 OSCroute /mov;
#X obj 704 446 OSCroute /drums;
#X obj 712 462 OSCroute /sampler1;
#X obj 717 482 OSCroute /file;
#X obj 211 18 inlet;
#X obj 136 699 outlet~;
#X obj 177 698 outlet~;
#X obj 661 63 inlet;
#X connect 0 0 82 1;
#X connect 1 0 0 1;
#X connect 1 0 2 0;
#X connect 4 0 82 4;
#X connect 4 0 130 0;
#X connect 6 0 8 0;
#X connect 6 0 39 1;
#X connect 6 0 88 1;
#X connect 6 0 98 0;
#X connect 9 0 156 0;
#X connect 10 0 9 1;
#X connect 10 0 165 0;
#X connect 12 0 13 0;
#X connect 12 0 14 0;
#X connect 12 0 15 0;
#X connect 12 0 16 0;
#X connect 12 0 40 0;
#X connect 12 0 41 0;
#X connect 12 0 52 0;
#X connect 12 0 53 0;
#X connect 12 0 62 0;
#X connect 12 0 110 0;
#X connect 12 0 117 0;
#X connect 12 0 138 0;
#X connect 13 0 82 6;
#X connect 14 0 4 0;
#X connect 15 0 5 0;
#X connect 15 0 82 0;
#X connect 16 0 93 0;
#X connect 17 0 18 0;
#X connect 18 0 64 0;
#X connect 18 1 63 0;
#X connect 19 0 89 0;
#X connect 20 0 32 0;
#X connect 20 0 38 1;
#X connect 20 0 86 1;
#X connect 21 0 33 0;
#X connect 21 0 38 2;
#X connect 21 0 86 2;
#X connect 22 0 34 0;
#X connect 22 0 38 3;
#X connect 22 0 86 3;
#X connect 23 0 37 0;
#X connect 23 0 38 6;
#X connect 23 0 86 6;
#X connect 28 0 35 0;
#X connect 28 0 38 4;
#X connect 28 0 86 4;
#X connect 30 0 36 0;
#X connect 30 0 38 5;
#X connect 30 0 86 5;
#X connect 38 0 77 0;
#X connect 39 0 145 0;
#X connect 39 0 136 0;
#X connect 40 0 140 0;
#X connect 41 0 42 0;
#X connect 41 0 43 0;
#X connect 41 0 44 0;
#X connect 41 0 61 0;
#X connect 41 0 45 0;
#X connect 41 0 73 0;
#X connect 41 0 74 0;
#X connect 42 0 68 0;
#X connect 43 0 69 0;
#X connect 44 0 70 0;
#X connect 45 0 71 0;
#X connect 47 0 48 3;
#X connect 49 0 48 2;
#X connect 50 0 48 1;
#X connect 51 0 48 0;
#X connect 52 0 82 1;
#X connect 53 0 55 0;
#X connect 53 0 56 0;
#X connect 53 0 58 0;
#X connect 54 0 4 0;
#X connect 55 0 54 1;
#X connect 55 0 60 0;
#X connect 56 0 57 0;
#X connect 57 0 54 0;
#X connect 58 0 59 0;
#X connect 59 0 57 0;
#X connect 59 1 54 1;
#X connect 59 1 60 0;
#X connect 60 0 54 1;
#X connect 61 0 67 0;
#X connect 62 0 66 0;
#X connect 62 0 75 0;
#X connect 63 0 64 1;
#X connect 64 0 19 0;
#X connect 65 0 10 0;
#X connect 65 0 84 0;
#X connect 66 0 65 0;
#X connect 66 1 65 1;
#X connect 67 0 20 0;
#X connect 68 0 21 0;
#X connect 69 0 22 0;
#X connect 70 0 28 0;
#X connect 71 0 30 0;
#X connect 72 0 23 0;
#X connect 73 0 72 0;
#X connect 74 0 72 1;
#X connect 74 0 71 1;
#X connect 74 0 70 1;
#X connect 74 0 69 1;
#X connect 74 0 68 1;
#X connect 74 0 67 1;
#X connect 74 0 141 0;
#X connect 77 0 9 0;
#X connect 78 0 77 1;
#X connect 78 0 107 1;
#X connect 78 0 114 0;
#X connect 79 0 77 2;
#X connect 79 0 107 2;
#X connect 79 0 115 0;
#X connect 80 0 81 0;
#X connect 82 0 39 0;
#X connect 82 1 88 0;
#X connect 83 0 157 0;
#X connect 84 0 83 1;
#X connect 84 0 166 0;
#X connect 86 0 107 0;
#X connect 87 1 125 0;
#X connect 87 2 120 0;
#X connect 88 0 145 1;
#X connect 88 0 136 1;
#X connect 89 0 90 0;
#X connect 90 0 6 0;
#X connect 91 0 89 1;
#X connect 91 0 92 0;
#X connect 93 0 17 0;
#X connect 93 1 91 0;
#X connect 95 0 102 0;
#X connect 97 0 98 1;
#X connect 97 0 99 0;
#X connect 98 0 95 0;
#X connect 100 0 97 0;
#X connect 101 0 104 0;
#X connect 102 0 101 0;
#X connect 103 0 104 1;
#X connect 104 0 83 0;
#X connect 104 0 9 0;
#X connect 105 0 101 1;
#X connect 106 0 103 0;
#X connect 107 0 83 0;
#X connect 108 0 109 0;
#X connect 109 0 78 0;
#X connect 109 1 79 0;
#X connect 110 0 108 0;
#X connect 110 0 111 0;
#X connect 110 0 112 0;
#X connect 111 0 78 0;
#X connect 112 0 79 0;
#X connect 117 0 118 0;
#X connect 117 0 119 0;
#X connect 117 0 133 0;
#X connect 117 0 132 0;
#X connect 118 0 97 0;
#X connect 119 0 103 0;
#X connect 120 0 157 0;
#X connect 121 0 120 1;
#X connect 121 0 143 0;
#X connect 122 0 121 0;
#X connect 122 0 126 0;
#X connect 123 0 122 0;
#X connect 123 1 122 1;
#X connect 125 0 156 0;
#X connect 126 0 125 1;
#X connect 126 0 144 0;
#X connect 129 0 131 0;
#X connect 130 0 168 0;
#X connect 131 0 128 0;
#X connect 132 0 134 2;
#X connect 132 0 135 0;
#X connect 133 0 134 1;
#X connect 133 0 135 0;
#X connect 134 0 101 1;
#X connect 135 0 134 0;
#X connect 136 0 145 2;
#X connect 136 1 145 3;
#X connect 137 0 129 0;
#X connect 137 0 47 0;
#X connect 137 0 49 0;
#X connect 138 0 139 0;
#X connect 138 0 147 0;
#X connect 139 0 136 2;
#X connect 140 0 67 0;
#X connect 140 1 68 0;
#X connect 140 2 69 0;
#X connect 140 3 70 0;
#X connect 140 4 71 0;
#X connect 140 5 72 0;
#X connect 140 6 72 1;
#X connect 140 6 71 1;
#X connect 140 6 70 1;
#X connect 140 6 69 1;
#X connect 140 6 68 1;
#X connect 140 6 67 1;
#X connect 142 0 123 0;
#X connect 142 0 124 0;
#X connect 145 0 38 0;
#X connect 145 1 86 0;
#X connect 146 0 145 4;
#X connect 146 0 148 0;
#X connect 147 0 146 0;
#X connect 150 0 151 0;
#X connect 151 0 121 0;
#X connect 151 0 126 0;
#X connect 152 0 154 0;
#X connect 153 0 128 0;
#X connect 154 0 153 1;
#X connect 156 0 155 0;
#X connect 156 0 179 0;
#X connect 157 0 155 1;
#X connect 157 0 180 0;
#X connect 158 0 155 2;
#X connect 159 0 155 3;
#X connect 160 0 161 0;
#X connect 160 0 162 0;
#X connect 160 0 164 0;
#X connect 161 0 155 4;
#X connect 161 0 163 0;
#X connect 162 0 159 0;
#X connect 164 0 158 0;
#X connect 168 0 169 0;
#X connect 169 0 127 0;
#X connect 169 0 153 0;
#X connect 170 0 4 0;
#X connect 171 0 82 6;
#X connect 174 0 175 0;
#X connect 175 0 173 0;
#X connect 175 0 176 0;
#X connect 176 0 177 0;
#X connect 176 0 171 0;
#X connect 176 0 170 0;
#X connect 177 0 82 0;
#X connect 178 0 12 0;
#X connect 178 0 87 0;
#X connect 178 0 96 0;
#X connect 178 0 142 0;
#X connect 178 0 152 0;
#X connect 178 0 160 0;
#X connect 178 0 174 0;
#X connect 181 0 129 0;
#X connect 181 0 154 0;
