#N canvas 528 100 604 504 10;
#X obj 40 305 gemwin;
#X msg 40 97 create;
#X msg 60 135 destroy;
#X obj 198 50 gemhead;
#X obj 198 82 part_head;
#X obj 198 136 part_color;
#X obj 198 447 part_draw;
#X msg 103 158 1;
#X msg 115 187 0;
#X text 329 37 set the color range;
#X text 299 174 set the size;
#X text 310 269 set the number per frame;
#X text 310 378 set the age to kill at;
#X text 404 196 the velocity domain;
#X msg 219 413 draw line;
#X msg 298 413 draw point;
#X obj 198 270 part_source 25;
#X obj 198 381 part_killold 45;
#X text 402 230 radius = 0.2;
#X msg 336 97 1 0 1;
#X msg 396 98 0 1 0;
#X obj 198 220 part_velsphere 0 0 0 0.2;
#X floatatom 375 301 0 0 0 0 - - -;
#X obj 198 334 part_orbitpoint 0 1 0 0.08;
#X text 390 333 orbit point and gravity;
#X obj 198 174 part_size 0.4;
#X obj 360 61 loadbang;
#X text 401 213 a sphere at 0 0 0;
#X text 415 299 keep the gravity low;
#N canvas 87 154 247 179 Gem.init 0;
#X obj 118 46 loadbang;
#X msg 118 81 reset;
#X obj 118 113 outlet;
#X connect 0 0 1 0;
#X connect 1 0 2 0;
#X restore 95 271 pd Gem.init;
#X obj 460 253 hsl 128 15 -2 2 0 1 empty empty empty -2 -6 0 8 -262144
-1 -1 1100 1;
#X obj 470 263 hsl 128 15 -2 2 0 1 empty empty empty -2 -6 0 8 -262144
-1 -1 2500 1;
#X obj 480 273 hsl 128 15 -0.5 0.5 0 1 empty empty empty -2 -6 0 8
-262144 -1 -1 6700 1;
#X obj 459 318 pack 0 0 0;
#X obj 428 319 bng 15 250 50 0 empty empty empty 0 -6 0 8 -262144 -1
-1;
#X connect 1 0 0 0;
#X connect 2 0 0 0;
#X connect 3 0 4 0;
#X connect 4 0 5 0;
#X connect 5 0 25 0;
#X connect 7 0 0 0;
#X connect 8 0 0 0;
#X connect 14 0 6 0;
#X connect 15 0 6 0;
#X connect 16 0 23 0;
#X connect 17 0 6 0;
#X connect 19 0 5 1;
#X connect 20 0 5 2;
#X connect 21 0 16 0;
#X connect 22 0 23 2;
#X connect 23 0 17 0;
#X connect 25 0 21 0;
#X connect 26 0 20 0;
#X connect 26 0 19 0;
#X connect 29 0 0 0;
#X connect 30 0 33 0;
#X connect 31 0 33 1;
#X connect 31 0 34 0;
#X connect 32 0 34 0;
#X connect 32 0 33 2;
#X connect 33 0 23 1;
#X connect 34 0 33 0;
