#N canvas 537 68 860 704 10;
#X obj 192 24 gemhead;
#X obj 198 82 part_head;
#X obj 198 136 part_color;
#X obj 187 621 part_draw;
#X text 282 140 set the size;
#X text 702 568 set the number per frame;
#X text 310 387 set the age to kill at;
#X msg 208 587 draw line;
#X msg 287 587 draw point;
#X obj 198 270 part_source 25;
#X obj 198 390 part_killold 45;
#X floatatom 438 294 0 0 0 0 - - -;
#X obj 198 334 part_orbitpoint 0 1 0 0.08;
#X text 514 3 orbit point and gravity;
#X text 513 18 keep the gravity low;
#X obj 432 86 hsl 128 15 0 1 0 1 empty empty empty -2 -6 0 8 -262144
-1 -1 10160 1;
#X obj 458 105 hsl 128 15 0 1 0 1 empty empty empty -2 -6 0 8 -262144
-1 -1 10160 1;
#X obj 486 124 hsl 128 15 0 1 0 1 empty empty empty -2 -6 0 8 -262144
-1 -1 10160 1;
#X obj 427 146 pack 0 0 0;
#X obj 299 298 hsl 128 15 0 5 0 0 empty empty empty -2 -6 0 8 -262144
-1 -1 0 1;
#X obj 284 154 hsl 128 15 0.01 15 1 0 empty empty empty -2 -6 0 8 -262144
-1 -1 0 1;
#X obj 189 552 translateXYZ;
#X obj 212 519 rotateXYZ;
#X obj 104 52 inlet;
#X floatatom 437 86 5 0 0 0 - - -;
#X floatatom 464 105 5 0 0 0 - - -;
#X floatatom 500 124 5 0 0 0 - - -;
#X msg 425 107 0.8;
#X obj 445 -1 loadbang;
#X obj 283 366 hsl 128 15 1 1000 1 0 empty empty empty -2 -6 0 8 -262144
-1 -1 0 1;
#X obj 422 64 unpack f f f;
#X text 543 86 r;
#X text 574 100 g;
#X text 594 123 b;
#X obj 414 43 OSCroute /s;
#X obj 410 21 OSCroute /colour1;
#X obj 715 98 hsl 128 15 0 1 0 1 empty empty empty -2 -6 0 8 -262144
-1 -1 0 1;
#X obj 742 115 hsl 128 15 0 1 0 1 empty empty empty -2 -6 0 8 -262144
-1 -1 0 1;
#X obj 710 158 pack 0 0 0;
#X floatatom 720 98 5 0 0 0 - - -;
#X floatatom 747 117 5 0 0 0 - - -;
#X msg 710 116 0.8;
#X obj 698 78 unpack f f f;
#X text 826 98 r;
#X text 857 112 g;
#X text 877 135 b;
#X obj 697 55 OSCroute /s;
#X obj 693 34 OSCroute /colour2;
#X obj 583 411 hsl 128 15 -4 4 0 1 empty empty empty -2 -6 0 8 -262144
-1 -1 8255 1;
#X obj 610 428 hsl 128 15 -10 10 0 1 empty empty empty -2 -6 0 8 -262144
-1 -1 6794 1;
#X obj 609 450 hsl 128 15 -5 5 0 1 empty empty empty -2 -6 0 8 -262144
-1 -1 5207 1;
#X obj 590 474 pack 0 0 0;
#X floatatom 588 411 5 0 0 0 - - -;
#X floatatom 615 430 5 0 0 0 - - -;
#X floatatom 618 452 5 0 0 0 - - -;
#X obj 573 389 unpack f f f;
#X text 694 411 r;
#X text 725 425 g;
#X text 718 450 b;
#X obj 565 368 OSCroute /s;
#X obj 684 366 OSCroute /t;
#X obj 562 339 OSCroute /orbit;
#X obj 584 447 bng 15 250 50 0 empty empty empty 0 -6 0 8 -262144 -1
-1;
#X obj 289 241 hsl 128 15 0 100 0 0 empty empty empty -2 -6 0 8 -262144
-1 -1 0 1;
#X floatatom 303 156 5 0 0 0 - - -;
#X obj 284 121 OSCroute /size;
#X obj 296 278 OSCroute /grav;
#X obj 321 194 hsl 128 15 0 1 0 0 empty empty empty -2 -6 0 8 -262144
-1 -1 0 1;
#X obj 563 244 hsl 128 15 -4 4 0 1 empty empty empty -2 -6 0 8 -262144
-1 -1 6667 1;
#X obj 590 261 hsl 128 15 -4 4 0 1 empty empty empty -2 -6 0 8 -262144
-1 -1 7937 1;
#X obj 617 282 hsl 128 15 -20 20 0 1 empty empty empty -2 -6 0 8 -262144
-1 -1 6100 1;
#X obj 558 304 pack 0 0 0;
#X floatatom 568 244 5 0 0 0 - - -;
#X floatatom 595 263 5 0 0 0 - - -;
#X floatatom 619 282 5 0 0 0 - - -;
#X obj 553 222 unpack f f f;
#X text 674 244 r;
#X text 705 258 g;
#X text 725 281 b;
#X obj 545 201 OSCroute /s;
#X obj 664 199 OSCroute /t;
#X obj 546 276 bng 15 250 50 0 empty empty empty 0 -6 0 8 -262144 -1
-1;
#X obj 542 171 OSCroute /vsphere;
#X obj 314 475 hsl 128 15 -360 360 0 1 empty empty empty -2 -6 0 8
-262144 -1 -1 7497 1;
#X obj 340 494 hsl 128 15 -360 360 0 1 empty empty empty -2 -6 0 8
-262144 -1 -1 12700 1;
#X obj 368 513 hsl 128 15 -360 360 0 1 empty empty empty -2 -6 0 8
-262144 -1 -1 12700 1;
#X floatatom 319 475 5 0 0 0 - - -;
#X floatatom 346 493 5 0 0 0 - - -;
#X floatatom 368 514 5 0 0 0 - - -;
#X obj 293 453 unpack f f f;
#X obj 296 432 OSCroute /s;
#X obj 406 423 OSCroute /t;
#X obj 292 404 OSCroute /rot;
#X obj 416 610 hsl 128 15 -2 2 0 1 empty empty empty -2 -6 0 8 -262144
-1 -1 7620 1;
#X obj 444 627 hsl 128 15 -2 2 0 1 empty empty empty -2 -6 0 8 -262144
-1 -1 7620 1;
#X obj 467 648 hsl 128 15 -20 20 0 1 empty empty empty -2 -6 0 8 -262144
-1 -1 2603 1;
#X floatatom 419 611 5 0 0 0 - - -;
#X floatatom 448 629 5 0 0 0 - - -;
#X floatatom 472 648 5 0 0 0 - - -;
#X obj 406 588 unpack f f f;
#X obj 398 567 OSCroute /s;
#X obj 521 541 OSCroute /t;
#X obj 390 536 OSCroute /trans;
#X floatatom 333 192 5 0 0 0 - - -;
#X obj 198 174 part_size 0.4;
#X obj 199 219 part_velsphere 0 0 0 0.2;
#X msg 114 340 box;
#X msg 107 361 sphere;
#X msg 40 430 25 sphere 1 1 1 1;
#X obj 755 234 line 0 100;
#X obj 780 255 line 0 100;
#X obj 809 277 line 0 100;
#X obj 794 408 line 0 100;
#X obj 820 428 line 0 100;
#X obj 820 452 line 0 100;
#X obj 662 650 line 0 100;
#X obj 653 627 line 0 100;
#X obj 619 608 line 0 100;
#X obj 563 513 line 0 100;
#X obj 537 492 line 0 100;
#X obj 515 469 line 0 100;
#X obj 550 607 pack f f;
#X obj 583 628 pack f f;
#X obj 601 650 pack f f;
#X obj 729 411 pack f f;
#X obj 756 431 pack f f;
#X obj 750 454 pack f f;
#X obj 698 237 pack f f;
#X obj 723 258 pack f f;
#X obj 752 280 pack f f;
#X obj 426 127 bng 15 250 50 0 empty empty empty 0 -6 0 8 -262144 -1
-1;
#X obj 684 139 bng 15 250 50 0 empty empty empty 0 -6 0 8 -262144 -1
-1;
#X obj 322 172 OSCroute /r;
#X obj 372 340 OSCroute /kill;
#X obj 456 471 pack f f;
#X obj 480 492 pack f f;
#X obj 505 513 pack f f;
#X floatatom 297 367 5 0 0 0 - - -;
#X obj 768 136 hsl 128 15 0 1 0 1 empty empty empty -2 -6 0 8 -262144
-1 -1 12700 1;
#X obj 473 567 OSCroute /x;
#X obj 547 567 OSCroute /y;
#X obj 617 566 OSCroute /z;
#X obj 371 448 OSCroute /x;
#X obj 441 448 OSCroute /y;
#X obj 512 447 OSCroute /z;
#X text 425 475 x;
#X text 457 491 y;
#X text 476 512 z;
#X text 527 610 x;
#X text 559 624 y;
#X text 579 647 z;
#X floatatom 778 136 5 0 0 0 - - -;
#X obj 751 189 print;
#X obj 218 51 spigot;
#X obj 241 28 tgl 15 0 empty empty empty 0 -6 0 8 -262144 -1 -1 0 1
;
#X obj 253 8 inlet;
#X connect 0 0 153 0;
#X connect 1 0 2 0;
#X connect 2 0 104 0;
#X connect 7 0 3 0;
#X connect 8 0 3 0;
#X connect 9 0 12 0;
#X connect 10 0 21 0;
#X connect 12 0 10 0;
#X connect 15 0 24 0;
#X connect 15 0 18 0;
#X connect 16 0 25 0;
#X connect 16 0 130 0;
#X connect 16 0 18 1;
#X connect 17 0 26 0;
#X connect 17 0 18 2;
#X connect 18 0 2 1;
#X connect 19 0 11 0;
#X connect 19 0 12 2;
#X connect 20 0 64 0;
#X connect 20 0 104 1;
#X connect 21 0 22 0;
#X connect 22 0 3 0;
#X connect 23 0 35 0;
#X connect 23 0 47 0;
#X connect 23 0 61 0;
#X connect 23 0 65 0;
#X connect 23 0 82 0;
#X connect 23 0 92 0;
#X connect 23 0 102 0;
#X connect 23 0 133 0;
#X connect 26 0 130 0;
#X connect 27 0 15 0;
#X connect 27 0 16 0;
#X connect 27 0 17 0;
#X connect 28 0 27 0;
#X connect 29 0 10 1;
#X connect 29 0 137 0;
#X connect 30 0 15 0;
#X connect 30 1 16 0;
#X connect 30 2 17 0;
#X connect 34 0 30 0;
#X connect 35 0 34 0;
#X connect 36 0 39 0;
#X connect 36 0 38 0;
#X connect 37 0 40 0;
#X connect 37 0 131 0;
#X connect 38 0 2 2;
#X connect 38 0 152 0;
#X connect 40 0 38 1;
#X connect 41 0 36 0;
#X connect 41 0 37 0;
#X connect 41 0 138 0;
#X connect 42 0 36 0;
#X connect 42 1 37 0;
#X connect 42 2 138 0;
#X connect 46 0 42 0;
#X connect 47 0 46 0;
#X connect 47 1 138 0;
#X connect 48 0 52 0;
#X connect 48 0 124 0;
#X connect 49 0 53 0;
#X connect 49 0 125 0;
#X connect 50 0 126 0;
#X connect 50 0 54 0;
#X connect 51 0 12 1;
#X connect 55 0 48 0;
#X connect 55 1 49 0;
#X connect 55 2 50 0;
#X connect 59 0 55 0;
#X connect 60 0 126 1;
#X connect 60 0 125 1;
#X connect 60 0 124 1;
#X connect 61 0 59 0;
#X connect 61 0 60 0;
#X connect 61 0 66 0;
#X connect 62 0 51 0;
#X connect 63 0 9 1;
#X connect 65 0 20 0;
#X connect 66 0 19 0;
#X connect 67 0 103 0;
#X connect 67 0 105 2;
#X connect 68 0 72 0;
#X connect 68 0 127 0;
#X connect 69 0 73 0;
#X connect 69 0 81 0;
#X connect 69 0 128 0;
#X connect 70 0 74 0;
#X connect 71 0 105 1;
#X connect 74 0 81 0;
#X connect 74 0 129 0;
#X connect 75 0 68 0;
#X connect 75 1 69 0;
#X connect 75 2 74 0;
#X connect 79 0 75 0;
#X connect 80 0 127 1;
#X connect 80 0 128 1;
#X connect 80 0 129 1;
#X connect 81 0 71 0;
#X connect 82 0 79 0;
#X connect 82 0 80 0;
#X connect 82 0 132 0;
#X connect 83 0 86 0;
#X connect 83 0 134 0;
#X connect 84 0 87 0;
#X connect 84 0 135 0;
#X connect 85 0 136 0;
#X connect 88 0 85 0;
#X connect 89 0 83 0;
#X connect 89 1 84 0;
#X connect 89 2 88 0;
#X connect 90 0 89 0;
#X connect 91 0 134 1;
#X connect 91 0 135 1;
#X connect 91 0 136 1;
#X connect 92 0 90 0;
#X connect 92 0 91 0;
#X connect 92 0 142 0;
#X connect 92 0 144 0;
#X connect 92 0 143 0;
#X connect 93 0 96 0;
#X connect 93 0 121 0;
#X connect 94 0 97 0;
#X connect 94 0 122 0;
#X connect 95 0 98 0;
#X connect 95 0 123 0;
#X connect 99 0 93 0;
#X connect 99 1 94 0;
#X connect 99 2 98 0;
#X connect 100 0 99 0;
#X connect 101 0 121 1;
#X connect 101 0 122 1;
#X connect 101 0 123 1;
#X connect 102 0 100 0;
#X connect 102 0 101 0;
#X connect 102 0 139 0;
#X connect 102 0 140 0;
#X connect 102 0 141 0;
#X connect 104 0 105 0;
#X connect 105 0 9 0;
#X connect 107 0 9 1;
#X connect 108 0 9 1;
#X connect 109 0 71 0;
#X connect 110 0 71 1;
#X connect 111 0 71 2;
#X connect 112 0 51 0;
#X connect 113 0 51 1;
#X connect 113 0 62 0;
#X connect 114 0 51 2;
#X connect 114 0 62 0;
#X connect 115 0 21 3;
#X connect 116 0 21 2;
#X connect 117 0 21 1;
#X connect 118 0 22 3;
#X connect 119 0 22 2;
#X connect 120 0 22 1;
#X connect 121 0 117 0;
#X connect 122 0 116 0;
#X connect 123 0 115 0;
#X connect 124 0 112 0;
#X connect 125 0 113 0;
#X connect 126 0 114 0;
#X connect 127 0 109 0;
#X connect 128 0 110 0;
#X connect 129 0 111 0;
#X connect 130 0 18 0;
#X connect 131 0 38 0;
#X connect 132 0 67 0;
#X connect 133 0 29 0;
#X connect 134 0 120 0;
#X connect 135 0 119 0;
#X connect 136 0 118 0;
#X connect 138 0 131 0;
#X connect 138 0 38 2;
#X connect 138 0 151 0;
#X connect 139 0 93 0;
#X connect 140 0 94 0;
#X connect 141 0 95 0;
#X connect 142 0 83 0;
#X connect 143 0 84 0;
#X connect 144 0 88 0;
#X connect 153 0 1 0;
#X connect 154 0 153 1;
#X connect 155 0 154 0;
