#N canvas 595 8 808 481 10;
#X obj 156 64 gemhead;
#X floatatom 257 185 0 0 0 0 - - -;
#X obj 267 379 sphere;
#X obj 22 325 world_light;
#X obj 63 79 gemhead 1;
#X text 341 399 change the number of slices;
#X obj 239 213 rotateXYZ;
#X msg 376 373 15;
#X msg 339 373 5;
#X obj 312 351 hsl 128 15 0 127 0 0 empty empty empty -2 -6 0 8 -262144
-1 -1 3000 1;
#X obj 206 28 inlet;
#X obj 432 214 OSCroute /size;
#X obj 363 39 bng 15 250 50 0 empty empty empty 0 -6 0 8 -262144 -1
-1;
#X floatatom 443 235 5 0 0 0 - - -;
#X obj 524 185 OSCroute /div;
#X obj 514 299 /;
#X floatatom 521 235 5 0 0 0 - - -;
#X obj 529 211 hsl 128 15 0 127 0 0 empty empty empty -2 -6 0 8 -262144
-1 -1 600 1;
#X obj 447 278 - 40;
#X obj 466 257 hsl 128 15 0 127 0 0 empty empty empty -2 -6 0 8 -262144
-1 -1 6300 1;
#X floatatom 478 256 5 0 0 0 - - -;
#X obj 236 241 color;
#X obj 458 116 hsl 128 15 0 1 0 1 empty empty empty -2 -6 0 8 -262144
-1 -1 12700 1;
#X obj 484 135 hsl 128 15 0 1 0 1 empty empty empty -2 -6 0 8 -262144
-1 -1 7620 1;
#X obj 512 154 hsl 128 15 0 1 0 1 empty empty empty -2 -6 0 8 -262144
-1 -1 0 1;
#X obj 450 178 pack 0 0 0;
#X floatatom 463 116 5 0 0 0 - - -;
#X floatatom 490 135 5 0 0 0 - - -;
#X floatatom 526 154 5 0 0 0 - - -;
#X msg 448 139 0.8;
#X obj 450 94 unpack f f f;
#X text 569 116 r;
#X text 601 129 g;
#X obj 449 159 bng 15 250 50 0 empty empty empty 0 -6 0 8 -262144 -1
-1;
#X obj 541 77 bng 15 250 50 0 empty empty empty 0 -6 0 8 -262144 -1
-1;
#X obj 447 69 OSCroute /col;
#X obj 317 329 OSCroute /sides;
#X floatatom 408 380 5 0 0 0 - - -;
#X obj 228 323 translateXYZ;
#X obj 307 291 3wayline;
#X text 624 154 b;
#X obj 615 185 OSCroute /base;
#X obj 314 270 OSCroute /pos;
#X obj 467 350 line 0 50;
#X obj 463 324 pack f 100;
#X obj 117 124 spigot;
#X obj 220 85 tgl 15 0 empty empty empty 0 -6 0 8 -262144 -1 -1 0 1
;
#X obj 252 58 inlet;
#X obj 177 123 spigot;
#X obj 505 198 bng 15 250 50 0 empty empty empty 0 -6 0 8 -262144 -1
-1;
#X connect 0 0 48 0;
#X connect 1 0 6 1;
#X connect 1 0 6 2;
#X connect 4 0 45 0;
#X connect 6 0 21 0;
#X connect 7 0 2 2;
#X connect 8 0 2 2;
#X connect 9 0 2 2;
#X connect 9 0 37 0;
#X connect 10 0 11 0;
#X connect 10 0 12 0;
#X connect 10 0 14 0;
#X connect 10 0 35 0;
#X connect 10 0 36 0;
#X connect 10 0 41 0;
#X connect 10 0 42 0;
#X connect 11 0 13 0;
#X connect 13 0 18 0;
#X connect 14 0 17 0;
#X connect 14 0 49 0;
#X connect 15 0 44 0;
#X connect 16 0 15 1;
#X connect 17 0 16 0;
#X connect 18 0 15 0;
#X connect 19 0 20 0;
#X connect 19 0 18 1;
#X connect 21 0 38 0;
#X connect 22 0 26 0;
#X connect 22 0 25 0;
#X connect 23 0 27 0;
#X connect 23 0 33 0;
#X connect 23 0 25 1;
#X connect 24 0 28 0;
#X connect 24 0 25 2;
#X connect 25 0 21 1;
#X connect 28 0 33 0;
#X connect 29 0 22 0;
#X connect 29 0 23 0;
#X connect 29 0 24 0;
#X connect 30 0 22 0;
#X connect 30 1 23 0;
#X connect 30 2 24 0;
#X connect 33 0 25 0;
#X connect 35 0 30 0;
#X connect 35 0 34 0;
#X connect 36 0 9 0;
#X connect 38 0 2 0;
#X connect 39 0 38 1;
#X connect 39 1 38 2;
#X connect 39 2 38 3;
#X connect 41 0 19 0;
#X connect 42 0 39 0;
#X connect 43 0 2 1;
#X connect 44 0 43 0;
#X connect 45 0 3 0;
#X connect 46 0 45 1;
#X connect 46 0 48 1;
#X connect 47 0 46 0;
#X connect 48 0 6 0;
