#N canvas 653 1 730 831 8;
#X obj 68 -19 bng 15 250 50 0 empty empty empty 0 -6 0 8 -262144 -1
-1;
#X obj 62 1 openpanel;
#X obj 45 442 rectangle;
#X obj 45 394 pix_texture;
#X obj 239 113 hsl 128 15 -3 3 0 0 empty mov_kgrep_x empty -2 -6 0
8 -262144 -1 -1 6350 1;
#X obj 205 141 bng 15 250 50 0 empty empty empty 0 -6 0 8 -262144 -1
-1;
#X obj 245 89 hsl 128 15 -3 3 0 0 empty empty empty -2 -6 0 8 -262144
-1 -1 10583 1;
#X obj 250 65 hsl 128 15 -3 3 0 0 empty empty empty -2 -6 0 8 -262144
-1 -1 6350 1;
#X obj 211 8 hsl 128 15 -180 180 0 0 empty empty empty -2 -6 0 8 -262144
-1 -1 6350 1;
#X obj 289 135 bng 15 250 50 0 empty empty empty 0 -6 0 8 -262144 -1
-1;
#X obj 318 139 hsl 128 15 0 3 0 0 empty empty empty -2 -6 0 8 -262144
-1 -1 4233 1;
#X msg 345 6 0;
#X msg 389 65 0;
#X msg 379 87 0;
#X msg 375 113 0;
#X floatatom 344 114 5 0 0 0 - - -;
#X floatatom 341 88 5 0 0 0 - - -;
#X floatatom 344 65 5 0 0 0 - - -;
#X msg 452 139 1;
#X floatatom 415 140 5 0 0 0 - - -;
#X floatatom 308 6 5 0 0 0 - - -;
#X obj 229 28 hsl 128 15 -180 180 0 0 empty empty empty -2 -6 0 8 -262144
-1 -1 6350 1;
#X msg 363 26 0;
#X floatatom 326 26 5 0 0 0 - - -;
#X obj 263 46 hsl 128 15 -180 180 0 0 empty empty empty -2 -6 0 8 -262144
-1 -1 9525 1;
#X msg 397 44 0;
#X floatatom 360 44 5 0 0 0 - - -;
#X obj 3 32 gemhead;
#X obj 130 370 pix_delay;
#X obj 125 442 rectangle;
#X obj 125 394 pix_texture;
#X obj 151 -9 hsl 128 15 0 127 0 0 empty empty empty -2 -6 0 8 -262144
-1 -1 800 1;
#X floatatom 227 -10 5 0 0 0 - - -;
#X text 159 -9 delay;
#X obj 206 367 pix_delay;
#X obj 203 441 rectangle;
#X obj 203 393 pix_texture;
#X obj 627 243 loadbang;
#X obj 282 368 pix_delay;
#X obj 277 439 rectangle;
#X obj 277 395 pix_texture;
#X obj 353 375 pix_delay;
#X obj 353 440 rectangle;
#X obj 353 396 pix_texture;
#X obj 428 373 pix_delay;
#X obj 428 438 rectangle;
#X obj 428 394 pix_texture;
#X floatatom 47 343 5 0 0 0 - - -;
#X floatatom 83 343 5 0 0 0 - - -;
#X obj 50 258 hsl 128 15 0.1 10000 1 0 empty empty empty -2 -6 0 8
-262144 -1 -1 3504 1;
#X obj 50 278 hsl 128 15 0 15 0 0 empty empty empty -2 -6 0 8 -262144
-1 -1 93 1;
#X obj 53 238 hsl 128 15 0 15 0 0 empty empty empty -2 -6 0 8 -262144
-1 -1 1693 1;
#X msg 49 215 3;
#X obj 81 214 loadbang;
#X text 111 276 hegiht;
#X text 122 237 size;
#X floatatom 152 239 5 0 0 0 - - -;
#X floatatom 141 259 5 0 0 0 - - -;
#X floatatom 146 278 5 0 0 0 - - -;
#X obj 497 312 bng 15 250 50 0 empty empty empty 0 -6 0 8 -262144 -1
-1;
#X obj 551 337 hsl 128 15 -30 30 0 0 empty empty empty -2 -6 0 8 -262144
-1 -1 6646 1;
#X obj 277 416 kal_gut2;
#X text 321 138 scale;
#X text 240 112 x;
#X text 247 87 y;
#X text 255 64 z;
#X obj 335 158 hsl 128 15 10 2000 0 0 empty empty empty -2 -6 0 8 -262144
-1 -1 6318 1;
#X obj 553 371 pack 0 0 0 -4 0 0 1 0;
#X text 346 160 time;
#X obj 58 277 * 0.75;
#X msg 119 562 1.256;
#X obj 94 502 bng 15 250 50 0 empty empty empty 0 -6 0 8 -262144 -1
-1;
#X msg 117 471 0 0 0 -2.72 2.009 0 2.16 1000;
#X msg 117 492 0 180 0 -2.49 0 0 1 1000;
#X msg 118 514 180 180 0 -2.48 1.879 0 1 1000;
#X msg 118 537 0 180 0 -2.48 0 0 1 1000;
#X obj 377 6 bng 15 250 50 0 empty empty empty 0 -6 0 8 -262144 -1
-1;
#X msg 410 112 1.6;
#X msg 363 182 -4;
#X msg 397 10 0;
#X obj 167 325 tgl 15 0 empty empty empty 0 -6 0 8 -262144 -1 -1 1
1;
#X obj 171 348 == 0;
#X obj 125 323 spigot;
#X obj 130 348 spigot;
#X obj 247 321 tgl 15 0 empty empty empty 0 -6 0 8 -262144 -1 -1 1
1;
#X obj 247 343 == 0;
#X obj 202 319 spigot;
#X obj 206 343 spigot;
#X obj 323 321 tgl 15 0 empty empty empty 0 -6 0 8 -262144 -1 -1 1
1;
#X obj 325 343 == 0;
#X obj 278 320 spigot;
#X obj 281 345 spigot;
#X obj 396 319 tgl 15 0 empty empty empty 0 -6 0 8 -262144 -1 -1 0
1;
#X obj 398 343 == 0;
#X obj 354 319 spigot;
#X obj 354 343 spigot;
#X obj 468 320 tgl 15 0 empty empty empty 0 -6 0 8 -262144 -1 -1 0
1;
#X obj 470 344 == 0;
#X obj 426 320 spigot;
#X obj 426 344 spigot;
#X obj 377 262 tgl 15 0 empty empty empty 0 -6 0 8 -262144 -1 -1 0
1;
#X msg 159 561 1;
#X msg 158 592 0;
#X symbolatom 60 -34 50 0 0 0 - - -;
#X msg 377 241 1;
#X obj 6 -32 r mov;
#X symbolatom 52 568 10 0 0 0 - - -;
#X obj 40 -11 bng 15 250 50 0 empty empty empty 0 -6 0 8 -262144 -1
-1;
#X obj 88 636 bng 15 250 50 0 empty empty empty 0 -6 0 8 -262144 -1
-1;
#X obj 86 654 bng 15 250 50 0 empty empty empty 0 -6 0 8 -262144 -1
-1;
#X obj 106 636 OSCroute /mov;
#X obj 106 654 OSCroute /mov_pos;
#X obj 201 654 s mov_pos;
#X obj 179 637 s mov;
#X obj 181 608 bng 15 250 50 0 empty empty empty 0 -6 0 8 -262144 -1
-1;
#X obj 4 -9 symbol;
#X obj 258 609 OSCroute /mov_kal;
#X obj 258 632 OSCroute /mov_del;
#X obj 259 654 t b f;
#X obj 553 319 hsl 128 15 -5 5 0 0 empty empty empty -2 -6 0 8 -262144
-1 -1 8255 1;
#X obj 557 188 OSCroute /mov_kg1;
#X obj 431 498 OSCroute /mov_kg2;
#X obj 433 519 OSCroute /mov_kg3;
#X obj 433 540 OSCroute /mov_kg4;
#X obj 434 606 OSCroute /mov_size;
#X obj 665 189 bng 15 250 50 0 empty empty empty 0 -6 0 8 -262144 -1
-1;
#X obj 540 497 bng 15 250 50 0 empty empty empty 0 -6 0 8 -262144 -1
-1;
#X obj 540 519 bng 15 250 50 0 empty empty empty 0 -6 0 8 -262144 -1
-1;
#X obj 542 541 bng 15 250 50 0 empty empty empty 0 -6 0 8 -262144 -1
-1;
#X obj 541 561 bng 15 250 50 0 empty empty empty 0 -6 0 8 -262144 -1
-1;
#X obj 541 584 bng 15 250 50 0 empty empty empty 0 -6 0 8 -262144 -1
-1;
#X obj 432 562 OSCroute /mov_kg5;
#X obj 432 583 OSCroute /mov_kg6;
#X obj 546 607 bng 15 250 50 0 empty empty empty 0 -6 0 8 -262144 -1
-1;
#X obj 27 655 print;
#X obj 546 628 bng 15 250 50 0 empty empty empty 0 -6 0 8 -262144 -1
-1;
#X obj 434 627 OSCroute /mov_wh;
#X floatatom 640 320 5 0 0 0 - - -;
#X floatatom 640 340 5 0 0 0 - - -;
#X obj 556 671 bng 15 250 50 0 empty empty empty 0 -6 0 8 -262144 -1
-1;
#X obj 439 666 OSCroute /mov_delay;
#X obj 562 693 bng 15 250 50 0 empty empty empty 0 -6 0 8 -262144 -1
-1;
#X obj 271 262 unpack f f f f f;
#X obj 440 688 OSCroute /mov_screen;
#X obj 672 390 bng 15 250 50 0 empty empty empty 0 -6 0 8 -262144 -1
-1;
#X obj 217 184 pack f f f f f f f f;
#X obj 647 391 tgl 15 0 empty empty empty 0 -6 0 8 -262144 -1 -1 0
1;
#X obj 545 302 hsl 128 15 -20 20 0 0 empty empty empty -2 -6 0 8 -262144
-1 -1 5852 1;
#X obj 544 282 hsl 128 15 0 6 0 0 empty empty empty -2 -6 0 8 -262144
-1 -1 2963 1;
#X floatatom 640 301 5 0 0 0 - - -;
#X floatatom 430 159 5 0 0 0 - - -;
#X obj 552 420 ../processing_osc/genin1;
#X obj 284 -15 ../processing_osc/del_msg_in;
#X obj 553 206 unpack f f f f f f f f;
#X floatatom 640 282 5 0 0 0 - - -;
#X text 628 338 x;
#X text 622 318 y;
#X text 623 301 z;
#X text 602 283 scale;
#X msg 520 319 0;
#X obj 184 260 hsl 56 15 -100 100 0 0 empty empty empty -2 -6 0 8 -262144
-1 -1 0 1;
#X text 214 263 -ve;
#X text 63 256 +ve;
#X obj 45 368 pack f f;
#X obj 97 367 bng 15 250 50 0 empty empty empty 0 -6 0 8 -262144 -1
-1;
#X text 104 257 width;
#X obj 45 415 kal_gut2;
#X obj 125 415 kal_gut2;
#X obj 203 414 kal_gut2;
#X obj 353 417 kal_gut2;
#X obj 428 415 kal_gut2;
#X obj 581 547 print;
#X obj 11 681 OSCroute /rec;
#X obj 10 698 s rec;
#X obj 40 124 tgl 15 0 empty empty empty 0 -6 0 8 -262144 -1 -1 1 1
;
#X obj 94 70 r mov_pos;
#X obj 54 36 r mov_fr;
#X obj 39 105 r mov_auto;
#X obj 436 649 unpack f f f;
#X obj 86 674 bng 15 250 50 0 empty empty empty 0 -6 0 8 -262144 -1
-1;
#X obj 106 674 OSCroute /mov_fr;
#X obj 201 674 s mov_fr;
#X obj 86 693 bng 15 250 50 0 empty empty empty 0 -6 0 8 -262144 -1
-1;
#X obj 108 693 OSCroute /mov_auto;
#X obj 209 694 s mov_auto;
#X obj 89 713 bng 15 250 50 0 empty empty empty 0 -6 0 8 -262144 -1
-1;
#X obj 109 712 OSCroute /mov_setup;
#X obj 46 298 pack f f;
#X obj 47 317 line;
#X obj 103 298 pack f f;
#X obj 104 317 line;
#X obj 42 615 dumpOSC 10002;
#X obj 211 712 OSCroute /mov_trig;
#X obj 331 710 bng 15 250 50 0 empty empty empty 0 -6 0 8 -262144 -1
-1;
#X obj 546 263 hsl 128 15 -180 180 0 0 empty empty empty -2 -6 0 8
-262144 -1 -1 6800 1;
#X msg 680 261 0;
#X floatatom 642 266 5 0 0 0 - - -;
#X msg 618 262 90;
#X obj 546 243 hsl 128 15 -180 180 0 0 empty empty empty -2 -6 0 8
-262144 -1 -1 6350 1;
#X msg 680 244 0;
#X floatatom 640 245 5 0 0 0 - - -;
#X msg 615 244 90;
#X obj 545 225 hsl 128 15 -180 180 0 0 empty empty empty -2 -6 0 8
-262144 -1 -1 6350 1;
#X msg 681 225 0;
#X floatatom 640 228 5 0 0 0 - - -;
#X msg 616 225 90;
#X text 215 8 xr;
#X text 232 30 yr;
#X text 268 47 zr;
#X text 548 228 xr;
#X text 548 247 yr;
#X text 549 264 zr;
#X obj 91 734 bng 15 250 50 0 empty empty empty 0 -6 0 8 -262144 -1
-1;
#X obj 111 733 OSCroute /mov_indexin;
#X obj 92 753 bng 15 250 50 0 empty empty empty 0 -6 0 8 -262144 -1
-1;
#X obj 113 754 OSCroute /mov_indexout;
#X obj 21 71 r mov_indexin;
#X obj 107 107 r mov_indexout;
#X obj 226 734 s mov_indexin;
#X obj 231 754 s mov_indexout;
#X floatatom 109 140 5 0 0 0 - - -;
#X obj 9 156 multiFilm a_bit_wider;
#X floatatom 54 52 5 0 0 0 - - -;
#X floatatom 94 85 5 0 0 0 - - -;
#X obj 107 125 hradio 12 1 0 5 empty empty empty 0 -6 0 8 -262144 -1
-1 1;
#X floatatom 22 104 2 0 0 0 - - -;
#X obj 23 89 hradio 12 1 0 5 empty empty empty 0 -6 0 8 -262144 -1
-1 0;
#X msg 502 -6 800 600 0 0;
#X msg 505 40 320 240 0 0;
#X msg 578 -7 800 600 1440 -1;
#X msg 503 16 1024 768 0 0;
#X msg 587 13 1024 768 1440 -1;
#X msg 501 85 offset \$3 \$4;
#X msg 584 85 dimen \$1 \$2;
#X obj 535 107 t b b;
#X msg 515 152 create;
#X msg 560 152 destroy;
#X obj 621 131 tgl 15 0 empty empty empty 0 -6 0 8 -262144 -1 -1 1
1;
#X text 635 129 render;
#X msg 564 133 0;
#X msg 513 133 1;
#X obj 612 152 gemwin 20;
#X msg 501 -26 640 480 0 0;
#X msg 577 -27 640 480 1440 -1;
#X msg 586 37 400 300 0 0;
#X msg 495 63 1440 900 0 -1;
#X floatatom 179 281 5 0 0 0 - - -;
#X obj 19 741 s osc;
#X connect 0 0 1 0;
#X connect 1 0 103 0;
#X connect 1 0 221 5;
#X connect 3 0 166 0;
#X connect 4 0 5 0;
#X connect 4 0 9 0;
#X connect 4 0 15 0;
#X connect 4 0 145 3;
#X connect 5 0 145 0;
#X connect 6 0 5 0;
#X connect 6 0 9 0;
#X connect 6 0 16 0;
#X connect 6 0 145 4;
#X connect 7 0 5 0;
#X connect 7 0 9 0;
#X connect 7 0 17 0;
#X connect 7 0 145 5;
#X connect 8 0 5 0;
#X connect 8 0 9 0;
#X connect 8 0 20 0;
#X connect 8 0 145 0;
#X connect 9 0 10 0;
#X connect 10 0 5 0;
#X connect 10 0 19 0;
#X connect 10 0 145 6;
#X connect 11 0 8 0;
#X connect 12 0 7 0;
#X connect 13 0 6 0;
#X connect 14 0 4 0;
#X connect 18 0 10 0;
#X connect 21 0 23 0;
#X connect 21 0 5 0;
#X connect 21 0 9 0;
#X connect 21 0 145 1;
#X connect 22 0 21 0;
#X connect 24 0 26 0;
#X connect 24 0 5 0;
#X connect 24 0 9 0;
#X connect 24 0 145 2;
#X connect 25 0 24 0;
#X connect 27 0 221 0;
#X connect 28 0 30 0;
#X connect 28 0 87 0;
#X connect 30 0 167 0;
#X connect 31 0 32 0;
#X connect 31 0 28 1;
#X connect 31 0 34 1;
#X connect 31 0 38 1;
#X connect 31 0 41 1;
#X connect 31 0 44 1;
#X connect 34 0 36 0;
#X connect 34 0 91 0;
#X connect 36 0 168 0;
#X connect 37 0 18 0;
#X connect 37 0 77 0;
#X connect 37 0 59 0;
#X connect 38 0 40 0;
#X connect 38 0 95 0;
#X connect 40 0 61 0;
#X connect 41 0 43 0;
#X connect 41 0 99 0;
#X connect 43 0 169 0;
#X connect 44 0 46 0;
#X connect 46 0 170 0;
#X connect 47 0 2 1;
#X connect 47 0 29 1;
#X connect 47 0 35 1;
#X connect 47 0 39 1;
#X connect 47 0 42 1;
#X connect 47 0 45 1;
#X connect 47 0 163 0;
#X connect 47 0 164 0;
#X connect 48 0 2 2;
#X connect 48 0 29 2;
#X connect 48 0 35 2;
#X connect 48 0 39 2;
#X connect 48 0 42 2;
#X connect 48 0 45 2;
#X connect 48 0 163 1;
#X connect 49 0 57 0;
#X connect 50 0 189 0;
#X connect 50 0 246 0;
#X connect 51 0 49 0;
#X connect 51 0 56 0;
#X connect 51 0 69 0;
#X connect 52 0 51 0;
#X connect 53 0 52 0;
#X connect 57 0 187 0;
#X connect 58 0 50 0;
#X connect 59 0 67 0;
#X connect 60 0 59 0;
#X connect 60 0 67 3;
#X connect 60 0 138 0;
#X connect 61 0 39 0;
#X connect 66 0 145 7;
#X connect 66 0 150 0;
#X connect 66 0 5 0;
#X connect 66 0 67 7;
#X connect 67 0 151 0;
#X connect 67 0 166 1;
#X connect 69 0 50 0;
#X connect 70 0 51 0;
#X connect 71 0 70 0;
#X connect 71 0 101 0;
#X connect 71 0 75 0;
#X connect 71 0 74 0;
#X connect 71 0 73 0;
#X connect 71 0 72 0;
#X connect 72 0 166 1;
#X connect 73 0 167 1;
#X connect 74 0 168 1;
#X connect 75 0 61 1;
#X connect 76 0 11 0;
#X connect 76 0 22 0;
#X connect 76 0 25 0;
#X connect 76 0 12 0;
#X connect 76 0 13 0;
#X connect 76 0 18 0;
#X connect 76 0 77 0;
#X connect 76 0 78 0;
#X connect 76 0 79 0;
#X connect 76 0 104 0;
#X connect 77 0 4 0;
#X connect 78 0 59 0;
#X connect 78 0 67 3;
#X connect 80 0 81 0;
#X connect 80 0 82 1;
#X connect 81 0 83 1;
#X connect 82 0 30 0;
#X connect 82 0 86 0;
#X connect 83 0 28 0;
#X connect 84 0 85 0;
#X connect 84 0 86 1;
#X connect 85 0 87 1;
#X connect 86 0 36 0;
#X connect 86 0 90 0;
#X connect 87 0 34 0;
#X connect 88 0 89 0;
#X connect 88 0 90 1;
#X connect 89 0 91 1;
#X connect 90 0 94 0;
#X connect 90 0 40 0;
#X connect 91 0 38 0;
#X connect 92 0 93 0;
#X connect 92 0 94 1;
#X connect 93 0 95 1;
#X connect 94 0 98 0;
#X connect 94 0 43 0;
#X connect 95 0 41 0;
#X connect 96 0 97 0;
#X connect 96 0 98 1;
#X connect 97 0 99 1;
#X connect 98 0 46 0;
#X connect 99 0 44 0;
#X connect 100 0 96 0;
#X connect 100 0 92 0;
#X connect 100 0 88 0;
#X connect 100 0 84 0;
#X connect 100 0 80 0;
#X connect 101 0 31 0;
#X connect 101 0 88 0;
#X connect 101 0 84 0;
#X connect 101 0 80 0;
#X connect 101 0 102 0;
#X connect 102 0 92 0;
#X connect 102 0 96 0;
#X connect 104 0 100 0;
#X connect 105 0 106 0;
#X connect 105 0 107 0;
#X connect 105 0 115 0;
#X connect 110 0 108 0;
#X connect 110 0 113 0;
#X connect 111 0 109 0;
#X connect 111 0 112 0;
#X connect 115 0 103 0;
#X connect 115 0 221 5;
#X connect 116 0 71 0;
#X connect 117 0 118 0;
#X connect 118 0 76 0;
#X connect 118 1 31 0;
#X connect 119 0 67 4;
#X connect 119 0 59 0;
#X connect 119 0 137 0;
#X connect 120 0 125 0;
#X connect 120 0 153 0;
#X connect 121 0 126 0;
#X connect 121 0 167 1;
#X connect 122 0 127 0;
#X connect 122 0 168 1;
#X connect 123 0 61 1;
#X connect 123 0 128 0;
#X connect 123 0 171 0;
#X connect 124 0 51 0;
#X connect 124 0 133 0;
#X connect 131 0 129 0;
#X connect 131 0 169 1;
#X connect 132 0 130 0;
#X connect 132 0 170 1;
#X connect 136 0 135 0;
#X connect 136 0 178 0;
#X connect 140 0 139 0;
#X connect 140 0 31 0;
#X connect 142 0 80 0;
#X connect 142 1 84 0;
#X connect 142 2 88 0;
#X connect 142 3 92 0;
#X connect 142 4 96 0;
#X connect 143 0 141 0;
#X connect 143 0 142 0;
#X connect 144 0 151 4;
#X connect 145 0 61 1;
#X connect 145 0 151 0;
#X connect 145 0 167 1;
#X connect 145 0 168 1;
#X connect 145 0 169 1;
#X connect 145 0 170 1;
#X connect 146 0 151 3;
#X connect 147 0 149 0;
#X connect 147 0 67 5;
#X connect 147 0 59 0;
#X connect 148 0 67 6;
#X connect 148 0 59 0;
#X connect 148 0 154 0;
#X connect 152 0 8 0;
#X connect 152 1 21 0;
#X connect 152 2 24 0;
#X connect 152 3 4 0;
#X connect 152 4 6 0;
#X connect 152 5 7 0;
#X connect 152 6 10 0;
#X connect 152 7 66 0;
#X connect 153 0 67 0;
#X connect 153 1 67 1;
#X connect 153 2 67 2;
#X connect 153 3 60 0;
#X connect 153 4 119 0;
#X connect 153 5 147 0;
#X connect 153 6 148 0;
#X connect 153 7 66 0;
#X connect 159 0 119 0;
#X connect 160 0 57 0;
#X connect 163 0 151 1;
#X connect 164 0 163 0;
#X connect 166 0 2 0;
#X connect 167 0 29 0;
#X connect 168 0 35 0;
#X connect 169 0 42 0;
#X connect 170 0 45 0;
#X connect 172 0 173 0;
#X connect 174 0 221 2;
#X connect 175 0 223 0;
#X connect 176 0 222 0;
#X connect 177 0 174 0;
#X connect 178 0 57 0;
#X connect 178 1 50 0;
#X connect 178 2 189 1;
#X connect 178 2 187 1;
#X connect 180 0 179 0;
#X connect 180 0 181 0;
#X connect 183 0 182 0;
#X connect 183 0 184 0;
#X connect 186 0 185 0;
#X connect 186 0 242 0;
#X connect 187 0 188 0;
#X connect 188 0 47 0;
#X connect 189 0 190 0;
#X connect 190 0 48 0;
#X connect 191 0 110 0;
#X connect 191 0 111 0;
#X connect 191 0 114 0;
#X connect 191 0 117 0;
#X connect 191 0 116 0;
#X connect 191 0 120 0;
#X connect 191 0 122 0;
#X connect 191 0 123 0;
#X connect 191 0 124 0;
#X connect 191 0 131 0;
#X connect 191 0 132 0;
#X connect 191 0 121 0;
#X connect 191 0 136 0;
#X connect 191 0 140 0;
#X connect 191 0 143 0;
#X connect 191 0 152 0;
#X connect 191 0 172 0;
#X connect 191 0 180 0;
#X connect 191 0 183 0;
#X connect 191 0 186 0;
#X connect 191 0 192 0;
#X connect 191 0 213 0;
#X connect 191 0 215 0;
#X connect 191 0 247 0;
#X connect 192 0 193 0;
#X connect 194 0 196 0;
#X connect 194 0 59 0;
#X connect 194 0 67 2;
#X connect 195 0 194 0;
#X connect 197 0 194 0;
#X connect 197 0 59 0;
#X connect 197 0 67 2;
#X connect 198 0 200 0;
#X connect 198 0 67 1;
#X connect 198 0 59 0;
#X connect 199 0 198 0;
#X connect 200 0 198 0;
#X connect 201 0 198 0;
#X connect 201 0 67 1;
#X connect 201 0 59 0;
#X connect 202 0 204 0;
#X connect 202 0 67 0;
#X connect 202 0 59 0;
#X connect 203 0 202 0;
#X connect 205 0 202 0;
#X connect 205 0 59 0;
#X connect 205 0 67 0;
#X connect 213 0 212 0;
#X connect 213 0 218 0;
#X connect 215 0 214 0;
#X connect 215 0 219 0;
#X connect 216 0 226 0;
#X connect 217 0 224 0;
#X connect 220 0 221 6;
#X connect 221 0 3 0;
#X connect 221 0 83 0;
#X connect 221 0 82 0;
#X connect 222 0 221 3;
#X connect 223 0 221 4;
#X connect 224 0 220 0;
#X connect 225 0 221 1;
#X connect 226 0 225 0;
#X connect 227 0 232 0;
#X connect 227 0 233 0;
#X connect 227 0 234 0;
#X connect 228 0 232 0;
#X connect 228 0 233 0;
#X connect 228 0 234 0;
#X connect 229 0 232 0;
#X connect 229 0 233 0;
#X connect 229 0 234 0;
#X connect 230 0 232 0;
#X connect 230 0 233 0;
#X connect 230 0 234 0;
#X connect 231 0 233 0;
#X connect 231 0 232 0;
#X connect 231 0 234 0;
#X connect 232 0 241 0;
#X connect 233 0 241 0;
#X connect 234 0 235 0;
#X connect 234 0 240 0;
#X connect 234 1 236 0;
#X connect 234 1 239 0;
#X connect 235 0 241 0;
#X connect 236 0 241 0;
#X connect 237 0 241 0;
#X connect 239 0 237 0;
#X connect 240 0 237 0;
#X connect 242 0 232 0;
#X connect 242 0 233 0;
#X connect 242 0 234 0;
#X connect 243 0 234 0;
#X connect 244 0 232 0;
#X connect 244 0 233 0;
#X connect 244 0 234 0;
#X connect 245 0 233 0;
#X connect 245 0 232 0;
#X connect 245 0 234 0;
