#N canvas 83 0 855 414 10;
#X obj 270 107 - 80;
#X floatatom 270 62 5 0 0 0 - - -;
#X obj 270 131 moses 0;
#X obj 316 154 / 4;
#X floatatom 354 69 5 0 0 2 tresh - -;
#X floatatom 402 68 5 1 100 2 ratio - -;
#X obj 316 175 + 80;
#X obj 316 196 -;
#X obj 316 237 dbtorms;
#X floatatom 316 257 8 0 0 0 - - -;
#X obj 316 216 + 100;
#X obj 270 81 t f f;
#X obj 354 15 inlet;
#X obj 402 14 inlet;
#X msg 270 255 1;
#X text 203 160 linear;
#X obj 270 315 outlet;
#X obj 270 23 inlet;
#X text 318 108 calculate the compression factor;
#X text 354 153 apply the ratio;
#X text 341 130 compress if we are over 0;
#X text 351 196 get the difference in level to the original;
#X text 370 218 convert dB to factor (in pd 0 dB == 100);
#X connect 0 0 2 0;
#X connect 1 0 11 0;
#X connect 2 0 14 0;
#X connect 2 1 3 0;
#X connect 3 0 6 0;
#X connect 4 0 0 1;
#X connect 4 0 6 1;
#X connect 5 0 3 1;
#X connect 6 0 7 0;
#X connect 7 0 10 0;
#X connect 8 0 9 0;
#X connect 9 0 16 0;
#X connect 10 0 8 0;
#X connect 11 0 0 0;
#X connect 11 1 7 1;
#X connect 12 0 4 0;
#X connect 13 0 5 0;
#X connect 14 0 16 0;
#X connect 17 0 1 0;

