#N canvas 247 457 613 464 10;
#X obj 90 417 dac~;
#X obj 184 68 random 100;
#X obj 115 161 *~;
#X obj 183 134 vline~;
#X msg 183 112 \$1 20 \, 0 200 10;
#X obj 184 47 metro 500;
#X msg 184 24 bang;
#X floatatom 116 36 5 0 0 0 - - -;
#X obj 116 66 osc~ 110;
#X floatatom 224 202 5 1 100 2 ratio - -;
#X floatatom 179 201 5 0 100 2 thresh - -;
#X obj 184 91 / 100;
#X obj 114 373 *~;
#X obj 136 329 line~;
#X obj 136 253 moses 1;
#X obj 136 297 pack 0 20;
#X obj 212 299 pack 0 200;
#X obj 136 199 env~;
#X obj 136 229 compress;
#X floatatom 273 202 5 0 0 2 attack - -;
#X floatatom 323 202 5 0 0 2 decay - -;
#X text 297 69 compress: calculate compression ratio;
#X connect 1 0 11 0;
#X connect 2 0 12 0;
#X connect 2 0 17 0;
#X connect 3 0 2 1;
#X connect 4 0 3 0;
#X connect 5 0 1 0;
#X connect 6 0 5 0;
#X connect 7 0 8 0;
#X connect 8 0 2 0;
#X connect 9 0 18 2;
#X connect 10 0 18 1;
#X connect 11 0 4 0;
#X connect 12 0 0 0;
#X connect 12 0 0 1;
#X connect 13 0 12 1;
#X connect 14 0 15 0;
#X connect 14 1 16 0;
#X connect 15 0 13 0;
#X connect 16 0 13 0;
#X connect 17 0 18 0;
#X connect 18 0 14 0;
#X connect 19 0 15 1;
#X connect 20 0 16 1;

