#N canvas 107 160 599 730 10;
#N canvas 0 0 450 300 (subpatch) 0;
#X array \$0-tab 235199 float 0;
#X coords 0 1 235198 -1 50 50 1;
#X restore 34 -173 graph;
#X obj 16 -77 soundfiler;
#X obj 16 -119 symbol \$0-tab;
#X obj 16 -138 bng 15 250 50 0 empty empty empty 17 7 0 10 -262144
-1 -1;
#X obj 22 328 dac~;
#X obj 21 286 *~ 1;
#X obj 57 285 hsl 128 15 0 1 0 0 empty empty empty -2 -8 0 10 -262144
-1 -1 12700 1;
#X text 56 284 volume;
#X obj 16 -48 metro 1000;
#X obj 84 -49 tgl 15 0 empty empty empty 17 7 0 10 -262144 -1 -1 1
1;
#X obj 16 -26 tabplay~ \$0-tab;
#X obj 52 1 tgl 15 0 empty empty empty 17 7 0 10 -262144 -1 -1 1 1
;
#X obj 16 2 *~ 0;
#X obj 17 29 *~ 1;
#X obj 20 170 compress~;
#X obj 39 88 hsl 128 15 0 10 0 0 empty empty empty -2 -8 0 10 -262144
-1 -1 3400 1;
#X floatatom 135 89 5 0 0 0 - - -;
#X obj 50 108 hsl 128 15 0 1 0 0 empty empty empty -2 -8 0 10 -262144
-1 -1 12700 1;
#X floatatom 146 109 5 0 0 0 - - -;
#X obj 64 129 hsl 128 15 0 127 0 0 empty empty empty -2 -8 0 10 -262144
-1 -1 5900 1;
#X floatatom 160 130 5 0 0 0 - - -;
#X obj 76 147 hsl 128 15 0 127 0 0 empty empty empty -2 -8 0 10 -262144
-1 -1 5800 1;
#X floatatom 172 148 5 0 0 0 - - -;
#X obj 26 66 hsl 128 15 0 1 0 0 empty empty empty -2 -8 0 10 -262144
-1 -1 370 1;
#X floatatom 122 67 5 0 0 0 - - -;
#X text 37 67 th;
#X text 47 90 c1;
#X text 58 109 c2;
#X text 70 128 att;
#X text 83 146 rel;
#X msg 16 -98 read -resize ../90reg_e2.wav \$1;
#X text 217 37 seems to work well .. much better than my attempt :(
;
#X text 222 -4 frank breckenrachts compressor;
#X text 197 107 <-- behaves like expander at low input levels level
is reduced;
#X obj 55 26 hsl 128 15 0 100 0 0 empty empty empty -2 -8 0 10 -262144
-1 -1 8800 1;
#X text 60 27 threshold;
#X floatatom 152 27 5 0 0 0 - - -;
#X obj 53 44 dbtorms;
#X connect 2 0 30 0;
#X connect 3 0 2 0;
#X connect 5 0 4 0;
#X connect 5 0 4 1;
#X connect 6 0 5 1;
#X connect 8 0 10 0;
#X connect 9 0 8 0;
#X connect 10 0 12 0;
#X connect 11 0 12 1;
#X connect 12 0 13 0;
#X connect 13 0 14 0;
#X connect 14 0 5 0;
#X connect 15 0 16 0;
#X connect 15 0 14 2;
#X connect 17 0 18 0;
#X connect 17 0 14 3;
#X connect 19 0 20 0;
#X connect 19 0 14 4;
#X connect 21 0 22 0;
#X connect 21 0 14 5;
#X connect 23 0 24 0;
#X connect 23 0 14 1;
#X connect 30 0 1 0;
#X connect 34 0 36 0;
#X connect 34 0 37 0;
#X connect 37 0 23 0;
