#N canvas 93 607 593 458 10;
#X floatatom 134 98 0 0 0 0 - - -;
#X obj 77 74 float;
#X obj 266 174 == 0;
#X obj 271 202 select 1;
#X obj 75 34 inlet;
#X obj 136 137 % \$1;
#X obj 136 184 - \$2;
#X obj 135 217 outlet;
#X obj 289 233 outlet;
#X obj 134 73 + \$3;
#X obj 172 33 inlet;
#X connect 0 0 5 0;
#X connect 1 0 9 0;
#X connect 2 0 3 0;
#X connect 3 0 8 0;
#X connect 4 0 1 0;
#X connect 5 0 2 0;
#X connect 5 0 6 0;
#X connect 6 0 7 0;
#X connect 9 0 0 0;
#X connect 9 0 1 1;
#X connect 10 0 9 1;
