#N canvas 21 103 863 989 10;
#X obj 36 523 ../cmp/envelope;
#X obj 516 904 dac~;
#X obj 385 557 ../cmp/mixer;
#X obj 206 524 ../cmp/envelope;
#X obj 237 245 osc~;
#X obj 259 376 osc~;
#X obj 231 399 *~;
#X obj 240 222 hsl 128 15 100 10000 1 0 empty empty empty -2 -8 0 10
-262144 -1 -1 0 1;
#X obj 264 268 int;
#X obj 55 292 osc~;
#X obj 81 408 osc~;
#X obj 55 435 *~;
#X obj 67 229 hsl 128 15 100 10000 1 0 empty empty empty -2 -8 0 10
-262144 -1 -1 4438 1;
#X obj 82 315 int;
#X obj 83 359 mtof;
#X obj 118 24 dumpOSC 10001;
#X obj 125 55 OSCroute /ping;
#X obj 67 106 OSCroute /1;
#X obj 76 130 OSCroute /cf;
#X obj 95 158 OSCroute /mn;
#X obj 111 184 OSCroute /t;
#X obj 227 124 OSCroute /cf;
#X obj 246 152 OSCroute /mn;
#X obj 262 178 OSCroute /t;
#X obj 218 100 OSCroute /2;
#X obj 373 510 *~ 1;
#X obj 41 687 ../cmp/flanger_st;
#X obj 410 510 *~ 1;
#X obj 555 248 bng 15 250 50 0 empty empty empty 17 7 0 10 -262144
-1 -1;
#X obj 465 360 openpanel;
#X obj 465 340 bng 15 250 50 0 empty empty empty 17 7 0 10 -262144
-1 -1;
#X obj 521 435 ../cmp/sampler_st;
#X obj 522 463 hip~ 1;
#X obj 473 278 hsl 128 15 0 4e+06 0 0 empty empty empty -2 -8 0 10
-262144 -1 -1 4200 1;
#X floatatom 556 279 10 0 0 0 - - -;
#X obj 564 400 hsl 128 15 0 100000 0 0 empty empty empty -2 -8 0 10
-262144 -1 -1 0 1;
#X obj 647 401 nbx 5 14 -1e+37 1e+37 0 0 empty empty empty 0 -8 0 10
-262144 -1 -1 0 256;
#X obj 571 556 ../cmp/flanger_st;
#X obj 446 226 t b b;
#X obj 455 297 +;
#X obj 450 252 random 100000;
#X text 403 489 noise(2);
#X text 201 671 ping (1);
#X msg 551 173 1.3228e+06;
#X obj 554 135 loadbang;
#X obj 311 102 bng 15 250 50 0 empty empty empty 17 7 0 10 -262144
-1 -1;
#X msg 555 308 1.3228e+06 8000 44100 0 1;
#X obj 574 531 vcf~;
#X obj 588 469 hsl 128 15 20 10000 1 0 empty empty empty -2 -8 0 10
-262144 -1 -1 8800 1;
#X obj 612 499 hsl 128 15 1 127 1 0 empty empty empty -2 -8 0 10 -262144
-1 -1 2500 1;
#X floatatom 678 470 5 0 0 0 - - -;
#X floatatom 699 498 5 0 0 0 - - -;
#X obj 450 83 OSCroute /noise;
#X obj 439 111 OSCroute /t;
#X obj 484 144 bng 15 250 50 0 empty empty empty 17 7 0 10 -262144
-1 -1;
#X obj 457 190 bng 15 250 50 0 empty empty empty 17 7 0 10 -262144
-1 -1;
#X msg 193 787 500;
#X msg 226 788 250;
#X msg 259 789 125;
#X msg 610 375 /home/robm/media/test.wav;
#X obj 611 351 bng 15 250 50 0 empty empty empty 17 7 0 10 -262144
-1 -1;
#X obj 612 329 loadbang;
#X msg 535 214 100000;
#X msg 635 214 0;
#X msg 590 214 10000;
#X msg 120 442 10 1.8 5 700 30;
#X msg 122 469 10 1.8 5 10 30;
#X msg 299 444 10 1.8 5 700 30;
#X msg 301 471 10 1.8 5 10 30;
#X msg 296 790 62.5;
#X obj 683 120 noise~;
#X obj 682 199 vcf~;
#X obj 697 143 hsl 128 15 20 10000 1 0 empty empty empty -2 -8 0 10
-262144 -1 -1 7379 1;
#X obj 709 173 hsl 128 15 1 127 1 0 empty empty empty -2 -8 0 10 -262144
-1 -1 12073 1;
#X floatatom 786 144 5 0 0 0 - - -;
#X floatatom 797 174 5 0 0 0 - - -;
#X obj 446 510 *~ 1;
#X obj 682 272 *~ 1;
#X obj 709 250 hsl 128 15 0.01 20 1 0 empty empty empty -2 -8 0 10
-262144 -1 -1 12700 1;
#X floatatom 801 251 5 0 0 0 - - -;
#X obj 683 42 * 1;
#X obj 682 90 mtof;
#X obj 782 209 expr $f1/5;
#X obj 469 531 *~ 1;
#X msg 743 656 500;
#X msg 776 657 250;
#X msg 809 658 125;
#X obj 82 338 + 0;
#X obj 118 316 hsl 128 15 -32 32 0 0 empty empty empty -2 -8 0 10 -262144
-1 -1 6350 0;
#X floatatom 209 316 5 0 0 0 - - -;
#X obj 120 345 int;
#X msg 195 290 0;
#X text 174 334 pitch;
#X obj 307 302 hsl 128 15 -32 32 0 0 empty empty empty -2 -8 0 10 -262144
-1 -1 0 0;
#X floatatom 398 302 5 0 0 0 - - -;
#X obj 309 331 int;
#X msg 384 276 0;
#X text 363 320 pitch;
#X obj 263 315 + 0;
#X floatatom 25 336 5 0 0 0 - - -;
#X obj 85 384 spigot;
#X obj 143 384 tgl 15 0 empty empty empty 17 7 0 10 -262144 -1 -1 1
1;
#X obj 264 342 mtof;
#X msg 740 635 110;
#X msg 194 765 110;
#X text 161 382 no sequence;
#X obj 729 53 hsl 128 15 -32 32 0 0 empty empty empty -2 -8 0 10 -262144
-1 -1 0 0;
#X floatatom 820 53 5 0 0 0 - - -;
#X obj 731 82 int;
#X msg 806 27 0;
#X text 785 71 pitch;
#X obj 685 66 + 0;
#X msg 842 173 100;
#X obj 826 110 loadbang;
#X obj 766 556 loadbang;
#X obj 229 710 loadbang;
#X obj 737 423 loadbang;
#X msg 725 468 1000;
#X msg 747 499 4;
#X connect 0 0 26 0;
#X connect 2 0 1 0;
#X connect 2 1 1 1;
#X connect 3 0 26 0;
#X connect 4 0 6 0;
#X connect 5 0 6 1;
#X connect 6 0 3 0;
#X connect 7 0 4 0;
#X connect 8 0 98 0;
#X connect 9 0 11 0;
#X connect 10 0 11 1;
#X connect 11 0 0 0;
#X connect 12 0 9 0;
#X connect 13 0 87 0;
#X connect 14 0 100 0;
#X connect 15 0 16 0;
#X connect 15 0 52 0;
#X connect 16 0 17 0;
#X connect 16 0 24 0;
#X connect 17 0 18 0;
#X connect 17 0 19 0;
#X connect 17 0 20 0;
#X connect 18 0 12 0;
#X connect 19 0 13 0;
#X connect 19 0 80 0;
#X connect 20 0 0 1;
#X connect 21 0 7 0;
#X connect 22 0 8 0;
#X connect 23 0 3 1;
#X connect 24 0 21 0;
#X connect 24 0 22 0;
#X connect 24 0 23 0;
#X connect 24 0 45 0;
#X connect 25 0 2 1;
#X connect 25 0 2 0;
#X connect 26 0 25 0;
#X connect 27 0 2 2;
#X connect 27 0 2 3;
#X connect 28 0 46 0;
#X connect 29 0 31 0;
#X connect 30 0 29 0;
#X connect 31 0 32 0;
#X connect 32 0 47 0;
#X connect 33 0 34 0;
#X connect 33 0 39 1;
#X connect 35 0 31 2;
#X connect 35 0 36 0;
#X connect 37 0 27 0;
#X connect 38 0 31 4;
#X connect 38 1 40 0;
#X connect 39 0 31 1;
#X connect 40 0 39 0;
#X connect 43 0 33 0;
#X connect 44 0 43 0;
#X connect 44 0 28 0;
#X connect 46 0 31 6;
#X connect 47 0 37 0;
#X connect 48 0 47 1;
#X connect 48 0 50 0;
#X connect 49 0 47 2;
#X connect 49 0 51 0;
#X connect 52 0 53 0;
#X connect 53 0 38 0;
#X connect 53 0 54 0;
#X connect 55 0 38 0;
#X connect 56 0 26 6;
#X connect 57 0 26 6;
#X connect 58 0 26 6;
#X connect 59 0 31 0;
#X connect 60 0 59 0;
#X connect 61 0 60 0;
#X connect 62 0 40 1;
#X connect 63 0 40 1;
#X connect 64 0 40 1;
#X connect 65 0 0 2;
#X connect 66 0 0 2;
#X connect 67 0 3 2;
#X connect 68 0 3 2;
#X connect 69 0 26 6;
#X connect 70 0 71 0;
#X connect 71 0 77 0;
#X connect 72 0 71 1;
#X connect 72 0 74 0;
#X connect 73 0 71 2;
#X connect 73 0 75 0;
#X connect 73 0 82 0;
#X connect 76 0 2 4;
#X connect 76 0 2 5;
#X connect 77 0 76 0;
#X connect 78 0 77 1;
#X connect 78 0 79 0;
#X connect 80 0 111 0;
#X connect 81 0 72 0;
#X connect 82 0 78 0;
#X connect 83 0 2 6;
#X connect 83 0 2 7;
#X connect 84 0 37 6;
#X connect 85 0 37 6;
#X connect 86 0 37 6;
#X connect 87 0 14 0;
#X connect 87 0 99 0;
#X connect 88 0 90 0;
#X connect 90 0 87 1;
#X connect 90 0 89 0;
#X connect 91 0 88 0;
#X connect 93 0 95 0;
#X connect 95 0 94 0;
#X connect 95 0 98 1;
#X connect 96 0 93 0;
#X connect 98 0 102 0;
#X connect 100 0 10 0;
#X connect 101 0 100 1;
#X connect 102 0 5 0;
#X connect 103 0 37 5;
#X connect 104 0 26 5;
#X connect 106 0 108 0;
#X connect 108 0 107 0;
#X connect 108 0 111 1;
#X connect 109 0 106 0;
#X connect 111 0 81 0;
#X connect 112 0 73 0;
#X connect 113 0 112 0;
#X connect 114 0 103 0;
#X connect 114 0 86 0;
#X connect 115 0 104 0;
#X connect 115 0 57 0;
#X connect 116 0 117 0;
#X connect 116 0 118 0;
#X connect 117 0 48 0;
#X connect 118 0 49 0;
