#N canvas 284 319 642 763 10;
#X obj 70 19 inlet;
#X obj 16 375 translateXYZ;
#X msg 134 398 draw line;
#X msg 134 418 draw fill;
#X obj 352 357 pack f f f;
#X obj 364 244 t b b b;
#X obj 367 208 bng 15 250 50 0 empty empty empty 17 7 0 10 -262144
-1 -1;
#X obj 306 298 random 1;
#X obj 373 298 random 1;
#X obj 439 297 random 1;
#X msg 494 266 255;
#X obj 310 322 / 255;
#X obj 377 324 / 255;
#X obj 443 325 / 255;
#X obj 496 230 loadbang;
#X floatatom 313 87 0 0 0 0 - - -;
#X msg 256 38 bang;
#X obj 313 62 + 1;
#X obj 256 63 float;
#X obj 315 173 - 4;
#X obj 315 126 % 9;
#X obj 355 129 == 0;
#X obj 404 130 select 1;
#X obj 14 265 color;
#X text 11 51 gemhead;
#X obj 75 290 loadbang;
#X obj 253 12 inlet;
#X obj 111 111 bng 15 250 50 0 empty empty empty 17 7 0 10 -262144
-1 -1;
#X floatatom 115 169 5 0 0 0 - - -;
#X obj 43 327 float \$1;
#X obj 117 330 float \$2;
#X obj 67 81 separator;
#X obj 18 457 cube;
#X obj 312 11 inlet;
#X obj 360 10 inlet;
#X connect 0 0 31 0;
#X connect 1 0 32 0;
#X connect 2 0 32 0;
#X connect 3 0 32 0;
#X connect 4 0 23 1;
#X connect 5 0 7 0;
#X connect 5 1 8 0;
#X connect 5 2 9 0;
#X connect 6 0 5 0;
#X connect 7 0 11 0;
#X connect 8 0 12 0;
#X connect 9 0 13 0;
#X connect 10 0 9 1;
#X connect 10 0 8 1;
#X connect 10 0 7 1;
#X connect 11 0 4 0;
#X connect 12 0 4 1;
#X connect 13 0 4 2;
#X connect 14 0 10 0;
#X connect 15 0 20 0;
#X connect 16 0 18 0;
#X connect 17 0 15 0;
#X connect 17 0 18 1;
#X connect 18 0 17 0;
#X connect 20 0 19 0;
#X connect 20 0 21 0;
#X connect 21 0 22 0;
#X connect 22 0 6 0;
#X connect 23 0 1 0;
#X connect 25 0 29 0;
#X connect 25 0 30 0;
#X connect 26 0 16 0;
#X connect 29 0 1 1;
#X connect 30 0 1 2;
#X connect 31 0 23 0;
#X connect 33 0 32 0;
#X connect 34 0 32 1;
