#N canvas 925 141 941 958 10;
#X obj 14 10 cnv 15 200 250 empty empty empty 20 12 0 14 -233017 -66577
0;
#X msg 23 52 800 600 0 0;
#X msg 26 98 320 240 0 0;
#X msg 24 74 1024 768 0 0;
#X msg 108 71 1024 768 1440 -1;
#X msg 13 146 offset \$3 \$4;
#X msg 105 143 dimen \$1 \$2;
#X obj 38 164 t b b;
#X msg 81 210 destroy;
#X obj 142 189 tgl 15 0 empty empty empty 0 -6 0 8 -262144 -1 -1 1
1;
#X text 156 187 render;
#X msg 85 191 0;
#X msg 34 191 1;
#X obj 136 210 gemwin 20;
#X msg 21 32 640 480 0 0;
#X msg 110 28 640 480 1440 -1;
#X msg 107 95 400 300 0 0;
#X msg 16 121 1440 900 0 -1;
#X text 38 11 open window;
#X msg 121 163 lighting \$1;
#X obj 100 163 tgl 15 0 empty empty empty 0 -6 0 8 -262144 -1 -1 1
1;
#X text 192 114 fullscreen;
#X msg 112 117 800 600 -1 -1;
#X obj 18 303 world_light;
#X obj 18 272 gemhead;
#X obj 54 401 mblur;
#X obj 55 377 tgl 15 0 empty empty empty 17 7 0 10 -262144 -1 -1 0
1;
#X obj 55 341 loadbang;
#X msg 55 359 1;
#X msg 183 141 fullscreen 1;
#X obj 232 12 t b b;
#X msg 25 233 create :0.0;
#X msg 197 164 border 1;
#X obj 449 18 gemhead;
#X msg 303 105 border 0;
#X msg 299 72 1280 1024 1900 0;
#X msg 99 51 1280 1024 1900 0;
#X msg 763 74 bang;
#X obj 426 555 bng 15 250 50 0 empty empty empty 17 7 0 10 -262144
-1 -1;
#X obj 529 555 bng 15 250 50 0 empty empty empty 17 7 0 10 -262144
-1 -1;
#X obj 637 550 bng 15 250 50 0 empty empty empty 17 7 0 10 -262144
-1 -1;
#X obj 754 547 bng 15 250 50 0 empty empty empty 17 7 0 10 -262144
-1 -1;
#X obj 866 548 bng 15 250 50 0 empty empty empty 17 7 0 10 -262144
-1 -1;
#X floatatom 754 168 5 0 0 0 - - -;
#X obj 774 208 * 1;
#X obj 418 412 rotateXYZ;
#X obj 756 -7 tgl 15 0 empty empty empty 17 7 0 10 -262144 -1 -1 1
1;
#X obj 437 290 spigot;
#X obj 474 270 tgl 15 0 empty empty empty 17 7 0 10 -262144 -1 -1 1
1;
#X obj 459 356 spigot;
#X obj 496 336 tgl 15 0 empty empty empty 17 7 0 10 -262144 -1 -1 0
1;
#X obj 519 379 spigot;
#X obj 556 359 tgl 15 0 empty empty empty 17 7 0 10 -262144 -1 -1 0
1;
#X obj 426 136 translateXYZ;
#X floatatom 508 108 5 0 0 0 - - -;
#X obj 762 44 metro 250;
#X obj 437 258 + 45;
#X obj 444 600 squareCtl -2 2;
#X obj 512 188 hsl 128 15 -30 30 0 0 empty empty empty -2 -8 0 10 -262144
-1 -1 1400 1;
#X floatatom 600 188 5 0 0 0 - - -;
#X msg 813 -3 125;
#X msg 848 -2 250;
#X msg 881 -2 500;
#X obj 591 234 hsl 128 15 -30 30 0 0 empty empty empty -2 -8 0 10 -262144
-1 -1 0 1;
#X floatatom 679 234 5 0 0 0 - - -;
#X obj 662 264 hsl 128 15 -30 30 0 0 empty empty empty -2 -8 0 10 -262144
-1 -1 0 1;
#X floatatom 750 264 5 0 0 0 - - -;
#X obj 547 47 tgl 15 0 empty empty empty 17 7 0 10 -262144 -1 -1 0
1;
#X msg 803 264 0;
#X msg 727 232 0;
#X msg 648 186 0;
#X obj 341 600 squareCtl 2 2;
#X obj 552 595 squareCtl 2 -2;
#X obj 781 593 squareCtl 0 0;
#X obj 669 592 squareCtl -2 -2;
#X obj 628 444 hsl 128 15 0 2 0 0 empty empty empty -2 -8 0 10 -262144
-1 -1 6350 1;
#X obj 673 336 osc~;
#X msg 674 312 2;
#X obj 670 381 snapshot~;
#X obj 671 359 +~ 1;
#X obj 733 356 metro 20;
#X obj 735 334 tgl 15 0 empty empty empty 17 7 0 10 -262144 -1 -1 0
1;
#X floatatom 746 378 5 0 0 0 - - -;
#X msg 717 307 1;
#X text 761 336 pulse to music;
#X obj 548 3 loadbang;
#X msg 548 26 0;
#X msg 760 306 loadbang;
#X obj 434 231 ctr 360 180 2;
#X obj 293 245 ctr 360 180 10;
#X obj 756 114 ctr 9 4 1;
#X obj 460 312 ctr 360 180 2;
#X obj 520 335 ctr 360 180 2;
#X obj 485 80 ctr 12 9 1;
#X msg 463 384 0;
#X msg 508 409 0;
#X msg 426 383 0;
#X connect 1 0 5 0;
#X connect 1 0 6 0;
#X connect 1 0 7 0;
#X connect 2 0 5 0;
#X connect 2 0 6 0;
#X connect 2 0 7 0;
#X connect 3 0 5 0;
#X connect 3 0 6 0;
#X connect 3 0 7 0;
#X connect 4 0 6 0;
#X connect 4 0 5 0;
#X connect 4 0 7 0;
#X connect 5 0 13 0;
#X connect 6 0 13 0;
#X connect 6 0 25 1;
#X connect 7 0 31 0;
#X connect 7 0 12 0;
#X connect 7 1 8 0;
#X connect 7 1 11 0;
#X connect 8 0 13 0;
#X connect 9 0 13 0;
#X connect 11 0 9 0;
#X connect 11 0 20 0;
#X connect 12 0 9 0;
#X connect 12 0 20 0;
#X connect 14 0 5 0;
#X connect 14 0 6 0;
#X connect 14 0 7 0;
#X connect 15 0 7 0;
#X connect 16 0 5 0;
#X connect 16 0 6 0;
#X connect 16 0 7 0;
#X connect 17 0 6 0;
#X connect 17 0 5 0;
#X connect 17 0 7 0;
#X connect 19 0 13 0;
#X connect 20 0 19 0;
#X connect 22 0 6 0;
#X connect 22 0 7 0;
#X connect 24 0 23 0;
#X connect 26 0 25 0;
#X connect 27 0 28 0;
#X connect 27 0 30 0;
#X connect 28 0 26 0;
#X connect 29 0 13 0;
#X connect 30 0 3 0;
#X connect 30 1 32 0;
#X connect 31 0 13 0;
#X connect 32 0 13 0;
#X connect 33 0 53 0;
#X connect 34 0 13 0;
#X connect 36 0 5 0;
#X connect 36 0 6 0;
#X connect 36 0 7 0;
#X connect 37 0 88 0;
#X connect 37 0 89 0;
#X connect 37 0 90 0;
#X connect 37 0 91 0;
#X connect 37 0 92 0;
#X connect 37 0 93 0;
#X connect 38 0 71 1;
#X connect 39 0 57 1;
#X connect 40 0 72 1;
#X connect 41 0 74 1;
#X connect 42 0 73 1;
#X connect 43 0 44 0;
#X connect 44 0 38 0;
#X connect 44 0 39 0;
#X connect 44 0 40 0;
#X connect 44 0 41 0;
#X connect 44 0 42 0;
#X connect 45 0 57 0;
#X connect 45 0 71 0;
#X connect 45 0 72 0;
#X connect 45 0 73 0;
#X connect 45 0 74 0;
#X connect 46 0 55 0;
#X connect 47 0 45 1;
#X connect 48 0 47 1;
#X connect 49 0 45 2;
#X connect 50 0 49 1;
#X connect 51 0 45 3;
#X connect 52 0 51 1;
#X connect 53 0 45 0;
#X connect 55 0 37 0;
#X connect 56 0 47 0;
#X connect 58 0 59 0;
#X connect 58 0 88 1;
#X connect 60 0 55 1;
#X connect 61 0 55 1;
#X connect 62 0 55 1;
#X connect 63 0 64 0;
#X connect 63 0 91 1;
#X connect 65 0 66 0;
#X connect 65 0 92 1;
#X connect 67 0 93 1;
#X connect 68 0 65 0;
#X connect 69 0 63 0;
#X connect 70 0 58 0;
#X connect 75 0 71 3;
#X connect 75 0 57 3;
#X connect 75 0 72 3;
#X connect 75 0 74 3;
#X connect 75 0 73 3;
#X connect 76 0 79 0;
#X connect 77 0 76 0;
#X connect 78 0 75 0;
#X connect 78 0 82 0;
#X connect 79 0 78 0;
#X connect 80 0 78 0;
#X connect 81 0 80 0;
#X connect 83 0 76 0;
#X connect 85 0 86 0;
#X connect 86 0 67 0;
#X connect 87 0 77 0;
#X connect 88 0 56 0;
#X connect 89 0 25 3;
#X connect 90 0 43 0;
#X connect 91 0 49 0;
#X connect 92 0 51 0;
#X connect 93 0 53 3;
#X connect 93 0 54 0;
#X connect 94 0 45 2;
#X connect 95 0 45 3;
#X connect 96 0 45 1;
