#N canvas 613 210 302 221 8;
#X obj 23 100 ../effects/compressor_st;
#X obj 92 37 OSCroute /compressor;
#X obj 138 73 OSCroute /set;
#X obj 47 163 ../effects/crossfade_st;
#X obj 160 128 hsl 128 15 0 127 0 0 empty empty empty -2 -6 0 8 -262144
-1 -1 0 1;
#X obj 157 104 OSCroute /mix;
#X floatatom 260 130 5 0 0 0 - - -;
#X text 166 127 compressor_mix;
#X obj 21 7 inlet~;
#X obj 80 9 inlet~;
#X obj 137 8 inlet;
#X obj 36 204 outlet~;
#X obj 154 199 outlet~;
#X connect 0 0 3 2;
#X connect 0 1 3 3;
#X connect 1 0 2 0;
#X connect 1 0 5 0;
#X connect 2 0 0 2;
#X connect 3 0 11 0;
#X connect 3 1 12 0;
#X connect 4 0 3 4;
#X connect 4 0 6 0;
#X connect 5 0 4 0;
#X connect 8 0 0 0;
#X connect 8 0 3 0;
#X connect 9 0 0 1;
#X connect 9 0 3 1;
#X connect 10 0 1 0;
