#N canvas 226 319 462 312 8;
#X obj 121 26 inlet~;
#X obj 142 238 outlet~;
#X obj 142 188 clip~ -1 1;
#X obj 140 126 *~ 1;
#X obj 59 26 inlet~;
#X obj 64 240 outlet~;
#X obj 64 190 clip~ -1 1;
#X obj 59 123 *~ 1;
#X obj 173 89 hsl 128 15 0.2 300 1 0 empty empty empty -2 -6 0 8 -262144
-1 -1 5431 1;
#X obj 176 151 * -1;
#X obj 179 129 hsl 128 15 0 1 0 0 empty empty empty -2 -6 0 8 -262144
-1 -1 3810 1;
#X text 274 128 clip;
#X floatatom 187 128 5 0 0 0 - - -;
#X floatatom 174 92 5 0 0 0 - - -;
#X text 239 88 overdrive;
#X obj 218 -1 inlet;
#X obj 185 38 OSCroute /overdrive;
#X obj 223 18 OSCroute /dst;
#X obj 177 108 OSCroute /clip;
#X obj 333 106 1;
#X obj 357 66 loadbang;
#X obj 173 70 line 300 10;
#X obj 172 54 pack f 300;
#X connect 0 0 3 0;
#X connect 2 0 1 0;
#X connect 3 0 2 0;
#X connect 4 0 7 0;
#X connect 6 0 5 0;
#X connect 7 0 6 0;
#X connect 8 0 3 1;
#X connect 8 0 7 1;
#X connect 8 0 13 0;
#X connect 9 0 2 1;
#X connect 9 0 6 1;
#X connect 10 0 2 2;
#X connect 10 0 6 2;
#X connect 10 0 9 0;
#X connect 10 0 12 0;
#X connect 15 0 17 0;
#X connect 16 0 22 0;
#X connect 17 0 16 0;
#X connect 17 0 18 0;
#X connect 18 0 10 0;
#X connect 19 0 10 0;
#X connect 19 0 8 0;
#X connect 20 0 19 0;
#X connect 21 0 8 0;
#X connect 22 0 21 0;
