#N canvas 0 337 450 300 8;
#X obj 83 201 ../effects/envelope;
#X obj 174 36 OSCroute /env;
#X obj 205 121 OSCroute /sus gn;
#X obj 236 154 OSCroute /decay;
#X obj 221 138 OSCroute /sus_tm;
#X obj 128 69 OSCroute /trig;
#X obj 189 105 OSCroute /att_tm;
#X obj 173 90 OSCroute /att_gn;
#X obj 173 172 pack f f f f f;
#X obj 81 237 outlet~;
#X obj 83 127 inlet~;
#X obj 180 12 inlet;
#X obj 115 14 inlet;
#X obj 220 59 OSCroute /set;
#X connect 0 0 9 0;
#X connect 1 0 2 0;
#X connect 1 0 4 0;
#X connect 1 0 3 0;
#X connect 1 0 5 0;
#X connect 1 0 7 0;
#X connect 1 0 6 0;
#X connect 1 0 13 0;
#X connect 2 0 8 2;
#X connect 3 0 8 4;
#X connect 4 0 8 3;
#X connect 5 0 0 1;
#X connect 6 0 8 1;
#X connect 7 0 8 0;
#X connect 8 0 0 2;
#X connect 10 0 0 0;
#X connect 11 0 1 0;
#X connect 12 0 0 1;
#X connect 13 0 0 2;
