#N canvas 902 250 421 534 8;
#X obj 91 261 vcf~;
#X obj 104 133 hsl 128 15 20 22000 1 0 empty empty empty -2 -6 0 8
-262144 -1 -1 3800 1;
#X obj 186 248 hsl 128 15 0 100 0 0 empty empty empty -2 -6 0 8 -262144
-1 -1 0 1;
#X text 300 245 q;
#X text 219 137 f;
#X floatatom 181 135 5 0 0 0 - - -;
#X floatatom 140 249 5 0 0 0 - - -;
#X obj 7 385 *~;
#X obj 38 385 *~;
#X obj 38 332 limiter~ 50 1;
#X obj 136 355 z~ 64;
#X obj 8 358 z~ 64;
#X text 176 356 just a small delay of 64 samples;
#X obj 38 298 *~ 1;
#X obj 125 309 *~ 1;
#X obj 42 109 *~ 1;
#X obj 69 89 hsl 128 15 0 20 0 0 empty empty empty -2 -6 0 8 -262144
-1 -1 9100 1;
#X obj 3 488 *~;
#X obj 34 488 *~;
#X obj 76 498 hsl 128 15 0 1 0 0 empty empty empty -2 -6 0 8 -262144
-1 -1 0 1;
#X obj 44 51 inlet~;
#X obj 208 14 inlet;
#X obj 207 32 OSCroute /filter;
#X obj 78 26 loadbang;
#X msg 66 70 1;
#X obj 141 287 line 0 1000;
#X obj 220 221 OSCroute /q;
#X obj 269 201 OSCroute /t;
#X obj 99 67 OSCroute /in_gain;
#X obj 75 462 OSCroute /out_gain;
#X obj 75 483 line 0 30;
#X obj 135 203 ../oc/multi_osc;
#X obj 102 203 sig~;
#X obj 239 54 OSCroute /fosc;
#X obj 103 229 +~;
#X obj 51 263 vcf~;
#X obj -3 51 inlet~;
#X obj 0 109 *~ 1;
#X obj 240 99 hsl 128 15 0.1 10 1 0 empty empty empty -2 -6 0 8 -262144
-1 -1 6350 1;
#X obj 134 228 *~ 1;
#X obj 281 119 hsl 128 15 1 5000 1 0 empty empty empty -2 -6 0 8 -262144
-1 -1 5948 1;
#X msg 253 71 0 0 0;
#X obj 7 524 outlet~;
#X obj 66 523 outlet~;
#X floatatom 80 90 5 0 0 0 - - -;
#X obj 170 30 bng 15 250 50 0 empty empty empty 0 -6 0 8 -262144 -1
-1;
#X obj 295 225 bng 15 250 50 0 empty empty empty 0 -6 0 8 -262144 -1
-1;
#X floatatom 55 164 5 0 0 0 - - -;
#X floatatom 353 201 5 0 0 0 - - -;
#X obj 103 155 pack f f;
#X obj 140 266 pack f f;
#X obj 103 178 line 0 100;
#X obj 296 76 OSCroute /aosc;
#X floatatom 300 121 5 0 0 0 - - -;
#X floatatom 187 250 5 0 0 0 - - -;
#X obj 97 113 ../oc/pitch_in;
#X floatatom 252 101 5 0 0 0 - - -;
#X floatatom 79 500 5 0 0 0 - - -;
#X connect 0 0 14 0;
#X connect 1 0 5 0;
#X connect 1 0 49 0;
#X connect 2 0 6 0;
#X connect 2 0 54 0;
#X connect 6 0 50 0;
#X connect 7 0 17 0;
#X connect 8 0 18 0;
#X connect 9 0 8 0;
#X connect 9 0 7 1;
#X connect 10 0 8 1;
#X connect 11 0 7 0;
#X connect 13 0 9 0;
#X connect 13 0 11 0;
#X connect 14 0 10 0;
#X connect 14 0 9 1;
#X connect 15 0 0 0;
#X connect 16 0 15 1;
#X connect 16 0 37 1;
#X connect 16 0 44 0;
#X connect 17 0 42 0;
#X connect 18 0 43 0;
#X connect 19 0 18 1;
#X connect 19 0 17 1;
#X connect 19 0 57 0;
#X connect 20 0 15 0;
#X connect 21 0 22 0;
#X connect 22 0 26 0;
#X connect 22 0 27 0;
#X connect 22 0 28 0;
#X connect 22 0 29 0;
#X connect 22 0 31 1;
#X connect 22 0 33 0;
#X connect 22 0 45 0;
#X connect 22 0 52 0;
#X connect 22 0 55 0;
#X connect 23 0 24 0;
#X connect 23 0 41 0;
#X connect 24 0 16 0;
#X connect 25 0 0 2;
#X connect 25 0 35 2;
#X connect 26 0 6 0;
#X connect 26 0 46 0;
#X connect 27 0 48 0;
#X connect 27 0 50 1;
#X connect 28 0 16 0;
#X connect 29 0 30 0;
#X connect 30 0 19 0;
#X connect 31 0 39 0;
#X connect 32 0 34 0;
#X connect 33 0 31 0;
#X connect 33 0 38 0;
#X connect 34 0 0 1;
#X connect 34 0 35 1;
#X connect 35 0 13 0;
#X connect 36 0 37 0;
#X connect 37 0 35 0;
#X connect 38 0 31 0;
#X connect 38 0 56 0;
#X connect 39 0 34 1;
#X connect 40 0 39 1;
#X connect 40 0 53 0;
#X connect 41 0 31 2;
#X connect 48 0 49 1;
#X connect 49 0 51 0;
#X connect 50 0 25 0;
#X connect 51 0 32 0;
#X connect 51 0 47 0;
#X connect 52 0 39 1;
#X connect 52 0 40 0;
#X connect 55 0 1 0;
