#N canvas 561 276 560 465 8;
#X obj 145 248 hsl 128 15 0 127 0 0 empty empty empty -2 -6 0 8 -262144
-1 -1 7800 1;
#X obj 146 269 hsl 128 15 0 100 0 0 empty empty empty -2 -6 0 8 -262144
-1 -1 6985 1;
#X obj 145 289 hsl 128 15 1 400 1 0 empty empty empty -2 -6 0 8 -262144
-1 -1 0 1;
#X obj 145 343 hsl 128 15 0 127 0 0 empty empty empty -2 -6 0 8 -262144
-1 -1 8600 1;
#X text 151 341 volume;
#X text 145 286 offset;
#X text 146 268 LFO Freq;
#X text 148 247 depth;
#X obj 142 307 hsl 128 15 0 127 0 0 empty empty empty -2 -6 0 8 -262144
-1 -1 5500 1;
#X text 145 305 feedback;
#X obj 143 325 hsl 128 15 0 127 0 0 empty empty empty -2 -6 0 8 -262144
-1 -1 1000 1;
#X text 146 323 feedback delay;
#X floatatom 241 250 5 0 0 0 - - -;
#X floatatom 242 269 5 0 0 0 - - -;
#X floatatom 241 290 5 0 0 0 - - -;
#X floatatom 240 309 5 0 0 0 - - -;
#X floatatom 242 324 5 0 0 0 - - -;
#X floatatom 241 342 5 0 0 0 - - -;
#X obj 47 8 OSCroute /flange_set;
#X obj 84 51 OSCroute /flange;
#X obj 107 97 OSCroute /lfofreq;
#X obj 107 118 OSCroute /offset;
#X obj 108 141 OSCroute /feedback;
#X obj 108 163 OSCroute /fbdel;
#X obj 107 75 OSCroute /depth;
#X obj 61 191 line;
#X obj 76 211 line;
#X obj 100 189 line;
#X obj 122 216 line;
#X obj 142 187 line;
#X obj 160 217 line;
#X obj 172 187 OSCroute /vol;
#X obj 201 203 OSCroute /time;
#X obj 270 396 ../effects/flanger;
#X obj 51 31 unpack f f f f f f f f;
#X obj 204 225 bng 15 250 50 0 empty empty empty 0 -6 0 8 -262144 -1
-1;
#X obj 74 323 inlet~;
#X obj 284 351 inlet~;
#X obj 349 4 inlet;
#X obj 100 430 outlet~;
#X obj 272 430 outlet~;
#X obj 96 389 ../effects/flanger;
#X obj 170 49 bng 15 250 50 0 empty empty empty 0 -6 0 8 -262144 -1
-1;
#X connect 0 0 12 0;
#X connect 0 0 33 1;
#X connect 0 0 41 1;
#X connect 1 0 13 0;
#X connect 1 0 33 2;
#X connect 1 0 41 2;
#X connect 2 0 14 0;
#X connect 2 0 33 3;
#X connect 2 0 41 3;
#X connect 3 0 17 0;
#X connect 3 0 33 6;
#X connect 3 0 41 6;
#X connect 8 0 15 0;
#X connect 8 0 33 4;
#X connect 8 0 41 4;
#X connect 10 0 16 0;
#X connect 10 0 33 5;
#X connect 10 0 41 5;
#X connect 18 0 34 0;
#X connect 19 0 20 0;
#X connect 19 0 21 0;
#X connect 19 0 22 0;
#X connect 19 0 24 0;
#X connect 19 0 23 0;
#X connect 19 0 31 0;
#X connect 19 0 32 0;
#X connect 19 0 42 0;
#X connect 20 0 26 0;
#X connect 21 0 27 0;
#X connect 22 0 28 0;
#X connect 23 0 29 0;
#X connect 24 0 25 0;
#X connect 25 0 0 0;
#X connect 26 0 1 0;
#X connect 27 0 2 0;
#X connect 28 0 8 0;
#X connect 29 0 10 0;
#X connect 30 0 3 0;
#X connect 31 0 30 0;
#X connect 32 0 30 1;
#X connect 32 0 29 1;
#X connect 32 0 28 1;
#X connect 32 0 27 1;
#X connect 32 0 26 1;
#X connect 32 0 25 1;
#X connect 32 0 35 0;
#X connect 33 0 40 0;
#X connect 34 0 25 0;
#X connect 34 1 26 0;
#X connect 34 2 27 0;
#X connect 34 3 28 0;
#X connect 34 4 29 0;
#X connect 34 5 30 0;
#X connect 34 6 30 1;
#X connect 34 6 29 1;
#X connect 34 6 28 1;
#X connect 34 6 27 1;
#X connect 34 6 26 1;
#X connect 34 6 25 1;
#X connect 36 0 41 0;
#X connect 37 0 33 0;
#X connect 38 0 18 0;
#X connect 38 0 19 0;
#X connect 41 0 39 0;
