#N canvas 0 0 450 300 8;
#X obj 62 48 OSCroute /osc;
#X obj 120 138 OSCroute /sin;
#X obj 93 105 OSCroute /sq;
#X obj 108 122 OSCroute /saw;
#X obj 87 157 pack f f f;
#X obj 66 152 bng 15 250 50 0 empty empty empty 0 -6 0 8 -262144 -1
-1;
#X obj 96 22 inlet;
#X obj 22 23 inlet;
#X obj 52 72 OSCroute /freq;
#X obj 141 73 OSCroute /set;
#X obj 52 213 outlet~;
#X obj 54 183 ../effects/multi_osc;
#X obj 140 24 inlet;
#X connect 0 0 1 0;
#X connect 0 0 2 0;
#X connect 0 0 3 0;
#X connect 0 0 8 0;
#X connect 0 0 9 0;
#X connect 1 0 4 2;
#X connect 1 0 5 0;
#X connect 2 0 4 0;
#X connect 2 0 5 0;
#X connect 3 0 4 1;
#X connect 3 0 5 0;
#X connect 4 0 11 1;
#X connect 5 0 4 0;
#X connect 6 0 0 0;
#X connect 7 0 11 0;
#X connect 8 0 11 0;
#X connect 9 0 11 1;
#X connect 11 0 10 0;
#X connect 12 0 11 1;
