#N canvas 817 267 378 395 8;
#X obj 76 221 hsl 128 15 -50 50 0 0 empty empty empty -2 -6 0 4 -262144
-1 -1 4300 0;
#X text 80 222 pitch;
#X floatatom 176 224 5 0 0 0 - - -;
#X obj 55 35 OSCroute /pitch;
#X floatatom 56 85 8 0 0 0 - - -;
#X obj 58 103 t f b;
#X floatatom 73 166 5 0 0 0 - - -;
#X msg 73 121 60;
#X obj 58 137 - 60;
#X obj 73 180 pack f f;
#X obj 73 199 line;
#X obj 111 129 hsl 128 15 0 400 0 0 empty empty empty -2 -6 0 8 -262144
-1 -1 4100 1;
#X floatatom 210 131 5 0 0 0 - - -;
#X obj 63 61 unpack f f;
#X text 109 129 portamento;
#X obj 73 297 mtof;
#X obj 105 261 hsl 128 15 0 127 0 0 empty empty empty -2 -6 0 8 -262144
-1 -1 2950 1;
#X obj 73 260 + 0;
#X floatatom 200 261 5 0 0 0 - - -;
#X msg 102 241 37;
#X obj 183 52 loadbang;
#X obj 73 321 outlet;
#X obj 49 4 inlet;
#X obj 149 34 OSCroute /pbase;
#X obj 108 157 * 1;
#X obj 134 153 hsl 128 15 0 5 0 0 empty empty empty -2 -6 0 8 -262144
-1 -1 6300 1;
#X text 137 155 portamento multiplier;
#X floatatom 250 155 5 0 0 0 - - -;
#X obj 100 10 OSCroute /pit;
#X obj 185 81 OSCroute /port_mult;
#X obj 159 279 hsl 128 15 -4 4 0 0 empty empty empty -2 -6 0 8 -262144
-1 -1 12550 1;
#X obj 74 280 + 0;
#X obj 108 281 * 12;
#X obj 135 281 int;
#X floatatom 170 282 5 0 0 0 - - -;
#X floatatom 30 270 5 0 0 0 - - -;
#X obj 254 243 OSCroute /octave;
#X obj 254 262 - 4;
#X msg 328 219 4;
#X floatatom 288 260 5 0 0 0 - - -;
#X obj 135 239 bng 15 250 50 0 empty empty empty 0 -6 0 8 -262144 -1
-1;
#X connect 0 0 2 0;
#X connect 0 0 17 0;
#X connect 3 0 13 0;
#X connect 4 0 5 0;
#X connect 5 0 8 0;
#X connect 5 1 7 0;
#X connect 6 0 9 0;
#X connect 7 0 8 1;
#X connect 8 0 6 0;
#X connect 9 0 10 0;
#X connect 10 0 0 0;
#X connect 11 0 12 0;
#X connect 11 0 24 0;
#X connect 13 0 4 0;
#X connect 13 1 11 0;
#X connect 15 0 21 0;
#X connect 16 0 17 1;
#X connect 16 0 18 0;
#X connect 16 0 40 0;
#X connect 17 0 31 0;
#X connect 19 0 16 0;
#X connect 20 0 19 0;
#X connect 20 0 38 0;
#X connect 22 0 28 0;
#X connect 23 0 16 0;
#X connect 24 0 9 1;
#X connect 25 0 24 1;
#X connect 25 0 27 0;
#X connect 28 0 3 0;
#X connect 28 0 23 0;
#X connect 28 0 29 0;
#X connect 28 0 36 0;
#X connect 29 0 25 0;
#X connect 30 0 33 0;
#X connect 31 0 15 0;
#X connect 31 0 35 0;
#X connect 32 0 31 1;
#X connect 33 0 34 0;
#X connect 33 0 32 0;
#X connect 36 0 37 0;
#X connect 36 0 39 0;
#X connect 37 0 30 0;
#X connect 38 0 37 0;
#X connect 40 0 17 0;
