#N canvas 370 435 487 336 10;
#X msg 18 151 8bit;
#X msg 18 127 16bit;
#X msg 18 104 float;
#X floatatom 170 117 0 0 0 0 - - -;
#X msg 17 175 help;
#X obj 204 166 quantize~ 16;
#X obj 203 56 inlet~;
#X obj 74 57 inlet~;
#X obj 292 52 inlet;
#X obj 86 267 outlet~;
#X obj 198 262 outlet~;
#X obj 255 83 OSCroute /quantise;
#X obj 87 214 ../effects/crossfade_st;
#X obj 323 143 OSCroute /xfade;
#X obj 179 29 hsl 128 15 0 16 0 0 empty empty empty -2 -6 0 8 -262144
-1 -1 4400 1;
#X obj 324 163 hsl 128 15 0 127 0 0 empty empty empty -2 -6 0 8 -262144
-1 -1 12700 1;
#X floatatom 332 167 5 0 0 0 - - -;
#X floatatom 185 28 5 0 0 0 - - -;
#X text 249 28 bits;
#X obj 221 106 OSCroute /bits;
#X obj 162 79 int;
#X obj 96 164 quantize~ 16;
#X connect 0 0 21 0;
#X connect 1 0 21 0;
#X connect 2 0 21 0;
#X connect 3 0 5 0;
#X connect 3 0 21 0;
#X connect 4 0 21 0;
#X connect 5 0 12 3;
#X connect 6 0 5 0;
#X connect 6 0 12 1;
#X connect 7 0 12 0;
#X connect 7 0 21 0;
#X connect 8 0 11 0;
#X connect 11 0 13 0;
#X connect 11 0 19 0;
#X connect 12 0 9 0;
#X connect 12 1 10 0;
#X connect 13 0 15 0;
#X connect 14 0 17 0;
#X connect 14 0 20 0;
#X connect 15 0 12 4;
#X connect 15 0 16 0;
#X connect 19 0 14 0;
#X connect 20 0 3 0;
#X connect 21 0 12 2;
