#N canvas 130 106 539 382 8;
#X obj 173 173 * 1;
#X obj 189 151 hsl 128 15 0 1 0 0 empty empty empty -2 -6 0 8 -262144
-1 -1 0 1;
#X obj 223 173 bng 15 250 50 0 empty empty empty 0 -6 0 8 -262144 -1
-1;
#X obj 173 102 bng 15 250 50 0 empty empty empty 0 -6 0 8 -262144 -1
-1;
#X obj 251 84 OSCroute /set;
#X obj 223 105 OSCroute /trig;
#X obj 148 81 OSCroute /file;
#X obj 165 126 OSCroute /start;
#X obj 28 45 OSCroute /metro;
#X obj 21 178 metro 500;
#X obj 51 89 OSCroute /time;
#X obj 18 67 OSCroute /on;
#X obj 21 160 tgl 15 0 empty empty empty 0 -6 0 8 -262144 -1 -1 0 1
;
#X obj 27 115 OSCroute /set;
#X obj 18 137 unpack f f;
#X floatatom 104 148 5 0 0 0 - - -;
#X obj 148 198 ../effects/sampler_st;
#X obj 138 13 OSCroute /s;
#X obj 148 219 outlet~;
#X obj 247 220 outlet~;
#X text 251 153 startpos(0-1);
#X floatatom 199 153 5 0 0 0 - - -;
#X obj 136 -5 inlet;
#X text 358 17 /s/metro/time int;
#X text 359 29 /s/metro/set [0|1] int;
#X text 357 5 /s/metro/on [0|1];
#X text 359 46 /s/file;
#X text 360 57 /s/set f st len sr trig vol;
#X text 359 70 /s/start;
#X text 361 82 /s/trig;
#X obj 237 65 OSCroute /vol;
#X obj 198 47 OSCroute /sr;
#X obj 174 31 OSCroute /len;
#X text 360 93 /s/len;
#X text 361 104 /s/sr;
#X text 362 115 /s/vol;
#X connect 0 0 16 1;
#X connect 1 0 0 1;
#X connect 1 0 21 0;
#X connect 2 0 16 4;
#X connect 4 0 16 6;
#X connect 5 0 2 0;
#X connect 6 0 3 0;
#X connect 6 0 16 0;
#X connect 7 0 16 1;
#X connect 8 0 10 0;
#X connect 8 0 11 0;
#X connect 8 0 13 0;
#X connect 9 0 2 0;
#X connect 10 0 9 1;
#X connect 10 0 15 0;
#X connect 11 0 12 0;
#X connect 12 0 9 0;
#X connect 13 0 14 0;
#X connect 14 0 12 0;
#X connect 14 1 9 1;
#X connect 14 1 15 0;
#X connect 15 0 9 1;
#X connect 16 0 18 0;
#X connect 16 1 19 0;
#X connect 17 0 4 0;
#X connect 17 0 5 0;
#X connect 17 0 6 0;
#X connect 17 0 7 0;
#X connect 17 0 8 0;
#X connect 17 0 30 0;
#X connect 17 0 31 0;
#X connect 17 0 32 0;
#X connect 22 0 17 0;
#X connect 30 0 16 5;
#X connect 31 0 16 3;
#X connect 32 0 16 2;
