#N canvas 721 509 570 535 10;
#X obj 111 222 samplerate~;
#X obj 111 246 /;
#X obj 41 31 inlet;
#X obj 29 487 outlet;
#X obj 100 79 table \$1 \$2;
#X obj 127 143 float \$2;
#X obj 90 488 tabwrite~ \$1;
#X obj 41 55 t b b;
#X obj 111 294 -~ 0.5;
#X obj 111 390 clip~ -0.5 0.5;
#X obj 111 366 *~ 1;
#X obj 111 414 cos~;
#X obj 111 318 wrap~;
#X obj 111 342 -~ 0.5;
#X obj 111 462 *~ -0.5;
#X obj 111 438 -~ 1;
#X obj 159 342 max 1;
#X obj 111 270 phasor~;
#X obj 9 95 float \$3;
#X obj 195 31 inlet;
#X obj 195 55 t b f;
#X obj 9 119 s \$0-sharpness;
#X obj 159 318 r \$0-sharpness;
#X obj 91 119 bng 15 250 50 0 empty empty empty 20 8 0 8 -262144 -1
-1;
#X msg 240 201 1;
#X obj 250 223 /;
#X obj 268 201 t b f;
#X obj 250 243 * 2;
#X obj 128 175 + 3;
#X text 303 240 this section offsets the phase just a little so that
there are no sharp edges if the cosine is fully clipped;
#X text 206 155 produce a sharpened cosine window. adapted from the
help patch 29.sampler.loop.smooth.pd;
#X text 3 4 usage: nm-sharpened-cos window_name window_size sharpness
;
#X connect 0 0 1 0;
#X connect 1 0 17 0;
#X connect 2 0 7 0;
#X connect 5 0 28 0;
#X connect 7 0 23 0;
#X connect 7 0 18 0;
#X connect 8 0 12 0;
#X connect 9 0 11 0;
#X connect 10 0 9 0;
#X connect 11 0 15 0;
#X connect 12 0 13 0;
#X connect 13 0 10 0;
#X connect 14 0 6 0;
#X connect 15 0 14 0;
#X connect 16 0 10 1;
#X connect 17 0 8 0;
#X connect 18 0 21 0;
#X connect 19 0 20 0;
#X connect 20 0 23 0;
#X connect 20 1 16 0;
#X connect 22 0 16 0;
#X connect 23 0 0 0;
#X connect 23 0 6 0;
#X connect 23 0 5 0;
#X connect 23 0 24 0;
#X connect 24 0 25 0;
#X connect 25 0 27 0;
#X connect 26 0 24 0;
#X connect 26 1 25 1;
#X connect 27 0 17 1;
#X connect 28 0 1 1;
#X connect 28 0 3 0;
#X connect 28 0 26 0;
