#N canvas 894 327 682 611 10;
#X msg 539 79 \; pd dsp 0;
#X obj 425 60 s \$0-start;
#X obj 443 -1 loadbang;
#X obj 443 20 bng 15 250 50 0 empty empty empty 20 8 0 8 -4033 -1 -1
;
#X obj 444 41 bng 15 250 50 0 empty empty empty 0 -6 0 8 -4033 -1 -1
;
#X obj 444 84 s \$0-retrigger;
#X obj 409 181 s \$0-filepath;
#N canvas 267 693 753 402 osc-to-granular 0;
#X obj 164 8 inlet;
#X obj 285 38 OSCroute /pos;
#X obj 296 81 OSCroute /posr;
#X obj 313 103 OSCroute /gsize;
#X obj 329 125 OSCroute /gsizer;
#X obj 348 147 OSCroute /trans;
#X obj 366 172 OSCroute /transr;
#X obj 402 220 OSCroute /density;
#X obj 435 267 OSCroute /panr;
#X obj 85 103 s \$0-position-in;
#X obj 53 125 s \$0-position-random-in;
#X obj 146 147 s \$0-size-in;
#X obj 115 172 s \$0-size-random-in;
#X obj 120 220 s \$0-transpose-random-in;
#X obj 7 217 s \$0-transpose-in;
#X obj 35 293 s \$0-grain-density-in;
#X obj 207 315 s \$0-pan-random-in;
#X obj 352 292 mavg 3;
#X text 16 41 mavg may be too cheap;
#X text 14 59 if so consider interpolate;
#X obj 401 39 OSCroute /filepath;
#X symbolatom 444 103 10 0 0 0 - - -;
#X obj 457 124 s \$0-filepath;
#X obj 463 289 OSCroute /vol;
#X obj 445 364 s \$0-vol;
#X obj 7 198 expr 96*($f1-0.5);
#X obj 446 342 * 100;
#X obj 232 268 * 20;
#X text 79 348 NOTE: all inputs from osc are 0-1 floats!;
#X obj 418 243 OSCroute /pan;
#X obj 190 293 s \$0-pan-in;
#X obj 400 194 OSCroute /playbackrate;
#X obj 114 244 s \$0-playback-rate-in;
#X obj 524 341 OSCroute /startstop;
#X obj 527 366 s \$0-start-stop-toggle-out;
#X obj 198 81 mavg 1;
#X obj 281 223 mavg 1;
#X obj 213 102 mavg 1;
#X obj 230 125 mavg 1;
#X obj 245 146 mavg 1;
#X obj 267 172 mavg 1;
#X obj 283 195 mavg 1;
#X obj 319 245 mavg 1;
#X obj 335 270 mavg 1;
#X floatatom 345 205 5 0 0 0 - - -;
#X floatatom 285 60 5 0 0 0 - - -;
#X obj 586 32 OSCroute /len;
#X obj 588 91 del;
#X floatatom 601 63 5 0 0 0 - - -;
#X obj 561 2 OSCroute /st;
#X msg 609 132 0;
#X obj 533 24 bng 15 250 50 0 empty empty empty 0 -6 0 10 -262144 -1
-1;
#X connect 0 0 1 0;
#X connect 0 0 2 0;
#X connect 0 0 3 0;
#X connect 0 0 4 0;
#X connect 0 0 5 0;
#X connect 0 0 6 0;
#X connect 0 0 7 0;
#X connect 0 0 8 0;
#X connect 0 0 20 0;
#X connect 0 0 23 0;
#X connect 0 0 29 0;
#X connect 0 0 31 0;
#X connect 0 0 33 0;
#X connect 1 0 45 0;
#X connect 2 0 37 0;
#X connect 3 0 38 0;
#X connect 4 0 39 0;
#X connect 5 0 40 0;
#X connect 6 0 41 0;
#X connect 7 0 42 0;
#X connect 8 0 17 0;
#X connect 17 0 16 0;
#X connect 20 0 21 0;
#X connect 21 0 22 0;
#X connect 23 0 26 0;
#X connect 25 0 14 0;
#X connect 26 0 24 0;
#X connect 27 0 15 0;
#X connect 29 0 43 0;
#X connect 31 0 44 0;
#X connect 33 0 34 0;
#X connect 35 0 9 0;
#X connect 36 0 32 0;
#X connect 37 0 10 0;
#X connect 38 0 11 0;
#X connect 39 0 12 0;
#X connect 40 0 25 0;
#X connect 41 0 13 0;
#X connect 42 0 27 0;
#X connect 43 0 30 0;
#X connect 44 0 36 0;
#X connect 45 0 35 0;
#X connect 46 0 48 0;
#X connect 47 0 50 0;
#X connect 48 0 47 1;
#X connect 49 0 51 0;
#X connect 51 0 47 0;
#X restore 60 540 pd osc-to-granular;
#X text 75 461 The position slider can only be moved while the playback
rate is set to 0 Otherwise \, position advances according to the selected
playback rate.;
#N canvas 369 142 564 347 startup-values 0;
#X obj 336 69 s \$0-position-in;
#X obj 336 93 s \$0-position-random-in;
#X obj 336 117 s \$0-size-in;
#X obj 336 141 s \$0-size-random-in;
#X obj 336 189 s \$0-transpose-random-in;
#X obj 336 165 s \$0-transpose-in;
#X obj 336 237 s \$0-grain-density-in;
#X obj 336 285 s \$0-pan-random-in;
#X msg 263 237 0.5;
#X obj 263 21 r \$0-start;
#X msg 263 45 0.3;
#X msg 263 69 0;
#X msg 263 117 0;
#X msg 263 165 0;
#X msg 263 213 10;
#X msg 263 261 0;
#X msg 263 141 0;
#X msg 263 93 0.003;
#X msg 263 189 1;
#X obj 336 261 s \$0-pan-in;
#X obj 308 195 tgl 15 0 empty empty empty 0 -6 0 8 -262144 -1 -1 0
1;
#X obj 336 213 s \$0-playback-rate-in;
#X obj 24 21 r \$0-reset-position;
#X obj 24 45 r \$0-reset-position-random;
#X obj 24 69 r \$0-reset-size;
#X obj 24 93 r \$0-reset-size-random;
#X obj 24 117 r \$0-reset-transpose;
#X obj 24 141 r \$0-reset-transpose-random;
#X obj 24 189 r \$0-reset-grain-density;
#X obj 24 213 r \$0-reset-pan;
#X obj 24 237 r \$0-reset-pan-random;
#X obj 24 165 r \$0-start-stop-toggle;
#X obj 97 296 s \$0-start-stop-toggle-out;
#X connect 8 0 19 0;
#X connect 9 0 17 0;
#X connect 9 0 16 0;
#X connect 9 0 12 0;
#X connect 9 0 13 0;
#X connect 9 0 11 0;
#X connect 9 0 18 0;
#X connect 9 0 14 0;
#X connect 9 0 8 0;
#X connect 9 0 15 0;
#X connect 9 0 10 0;
#X connect 10 0 0 0;
#X connect 11 0 1 0;
#X connect 12 0 3 0;
#X connect 13 0 4 0;
#X connect 14 0 6 0;
#X connect 15 0 7 0;
#X connect 16 0 5 0;
#X connect 17 0 2 0;
#X connect 18 0 20 0;
#X connect 18 0 32 0;
#X connect 20 0 21 0;
#X connect 22 0 10 0;
#X connect 23 0 11 0;
#X connect 24 0 17 0;
#X connect 25 0 12 0;
#X connect 26 0 16 0;
#X connect 27 0 13 0;
#X connect 28 0 14 0;
#X connect 29 0 8 0;
#X connect 30 0 15 0;
#X connect 31 0 20 0;
#X restore 289 520 pd startup-values;
#X obj 25 208 cnv 15 600 300 empty empty empty 20 12 0 14 -233017 -66577
0;
#N canvas 25 175 441 212 everything-else 0;
#X obj 45 84 r \$0-start;
#X msg 255 87 MUTE;
#N canvas 164 56 549 300 output 0;
#X obj 363 138 t b;
#X obj 363 88 f;
#X obj 363 38 inlet;
#X text 363 16 mute;
#X obj 363 163 f;
#X msg 450 156 0;
#X msg 363 63 bang;
#X obj 363 113 moses 1;
#X obj 450 131 t b f;
#X obj 422 92 moses 1;
#X obj 104 144 dbtorms;
#X obj 44 171 inlet~;
#X obj 233 36 inlet;
#X text 233 13 level;
#X msg 117 61 set \$1;
#X obj 117 86 outlet;
#X msg 248 60 \; pd dsp 1;
#X obj 104 194 line~;
#X obj 44 214 *~;
#X obj 104 169 pack 0 50;
#X text 117 110 show level;
#X obj 28 192 inlet~;
#X obj 28 235 *~;
#X obj 422 67 r \$0-master-lvl;
#X obj 363 188 s \$0-master-lvl;
#X obj 233 95 s \$0-master-lvl;
#X obj 104 38 r \$0-master-lvl;
#X obj 227 274 dac~;
#X obj 27 257 outlet~;
#X obj 42 279 outlet~;
#X connect 0 0 4 0;
#X connect 1 0 7 0;
#X connect 2 0 6 0;
#X connect 4 0 24 0;
#X connect 5 0 24 0;
#X connect 6 0 1 0;
#X connect 7 0 0 0;
#X connect 7 1 8 0;
#X connect 8 0 5 0;
#X connect 9 1 4 1;
#X connect 10 0 19 0;
#X connect 11 0 18 0;
#X connect 12 0 16 0;
#X connect 12 0 25 0;
#X connect 14 0 15 0;
#X connect 17 0 18 1;
#X connect 17 0 22 1;
#X connect 18 0 29 0;
#X connect 19 0 17 0;
#X connect 21 0 22 0;
#X connect 22 0 28 0;
#X connect 23 0 1 1;
#X connect 23 0 9 0;
#X connect 26 0 10 0;
#X connect 26 0 14 0;
#X restore 141 113 pd output -------;
#X msg 45 113 90;
#X obj 77 113 r \$0-vol;
#X obj 141 142 s \$0-output-level-in;
#X obj 238 35 r \$0-output-level;
#X obj 255 58 r \$0-mute-toggle;
#N canvas 857 500 492 508 guts 0;
#N canvas 341 775 368 274 grainpos-calc 0;
#X obj 39 44 inlet;
#X obj 101 44 inlet;
#X obj 131 103 tgl 15 0 empty empty empty 20 8 0 8 -262144 -1 -1 0
1;
#X obj 44 199 s \$0-grainposition;
#X obj 131 81 > 0;
#X obj 142 45 r \$0-random-rate;
#N canvas 5 55 454 216 rand-ms 0;
#X obj 90 30 inlet;
#X obj 144 32 inlet;
#X obj 24 168 outlet;
#X obj 11 66 noise~;
#X obj 19 144 snapshot~;
#X obj 91 68 metro 100;
#X obj 11 88 /~ 2;
#X obj 11 110 +~ 0.5;
#X text 102 112 produces a random number between o and 1 every x milliseconds
where x is on the second inlet. defaults to 100ms per random value
;
#X connect 0 0 5 0;
#X connect 1 0 5 1;
#X connect 3 0 6 0;
#X connect 4 0 2 0;
#X connect 5 0 4 0;
#X connect 6 0 7 0;
#X connect 7 0 4 0;
#X restore 131 122 pd rand-ms;
#N canvas 47 145 460 310 range 0;
#X obj 20 22 inlet;
#X obj 78 22 inlet;
#X obj 132 22 inlet;
#X obj 96 134 +;
#X obj 78 44 / 2;
#X obj 44 134 -;
#X obj 78 66 t b f;
#X obj 36 234 outlet;
#X text 121 183 takes a centre float and a range float and a position
(0 to 1) and outputs a number proportionately within the range from
the centre figure;
#N canvas 295 324 506 302 from-to 0;
#X obj 91 150 *;
#X obj 64 120 -;
#X obj 45 94 t b f;
#X obj 91 120 t b f;
#X obj 131 120 t;
#X obj 81 178 +;
#X obj 10 20 inlet;
#X obj 194 20 inlet;
#X obj 76 262 outlet;
#X obj 54 20 inlet;
#X text 131 161 takes a left limit and a right limit and a position
(0 to 1) and outputs a number proportionally distanced between the
left and right limits;
#X connect 0 0 5 0;
#X connect 1 0 0 0;
#X connect 2 0 1 0;
#X connect 2 0 5 0;
#X connect 2 1 1 1;
#X connect 2 1 5 1;
#X connect 3 0 0 0;
#X connect 3 1 0 1;
#X connect 4 0 0 0;
#X connect 5 0 8 0;
#X connect 6 0 2 0;
#X connect 7 0 4 0;
#X connect 7 0 1 0;
#X connect 9 0 3 0;
#X restore 44 158 pd from-to;
#X connect 0 0 3 0;
#X connect 0 0 5 0;
#X connect 1 0 4 0;
#X connect 2 0 9 1;
#X connect 3 0 9 2;
#X connect 4 0 6 0;
#X connect 5 0 9 0;
#X connect 6 0 3 0;
#X connect 6 0 5 0;
#X connect 6 1 3 1;
#X connect 6 1 5 1;
#X connect 9 0 7 0;
#X restore 44 146 pd range;
#X text 59 66 reconnect here to silence if no randomness;
#X msg 101 102 1;
#X floatatom 185 195 5 0 0 0 - - -;
#X connect 0 0 7 0;
#X connect 1 0 6 0;
#X connect 1 0 7 1;
#X connect 2 0 6 0;
#X connect 4 0 2 0;
#X connect 5 0 6 1;
#X connect 5 0 9 0;
#X connect 6 0 7 2;
#X connect 7 0 3 0;
#X connect 7 0 10 0;
#X connect 9 0 6 0;
#X restore 21 35 pd grainpos-calc;
#N canvas 778 115 424 390 grainsize-calc 0;
#X obj 166 141 tgl 15 0 empty empty empty 20 8 0 8 -262144 -1 -1 0
1;
#X obj 82 163 *;
#X obj 82 141 t b f;
#X obj 127 163 *;
#X obj 127 141 t b f;
#X obj 105 276 s \$0-grainsize;
#X obj 105 254 moses 1;
#X obj 166 119 > 0;
#X obj 82 74 inlet;
#X obj 138 72 inlet;
#X obj 20 72 inlet;
#X obj 108 112 / 2;
#X obj 187 74 r \$0-random-rate;
#N canvas 0 22 458 308 range 0;
#X obj 20 22 inlet;
#X obj 78 22 inlet;
#X obj 132 22 inlet;
#X obj 96 134 +;
#X obj 78 44 / 2;
#X obj 44 134 -;
#X obj 78 66 t b f;
#X obj 36 234 outlet;
#X text 121 183 takes a centre float and a range float and a position
(0 to 1) and outputs a number proportionately within the range from
the centre figure;
#N canvas 0 22 506 302 from-to 0;
#X obj 91 150 *;
#X obj 61 120 -;
#X obj 45 94 t b f;
#X obj 91 120 t b f;
#X obj 131 120 t;
#X obj 81 178 +;
#X obj 10 20 inlet;
#X obj 194 20 inlet;
#X obj 76 262 outlet;
#X obj 54 20 inlet;
#X text 131 161 takes a left limit and a right limit and a position
(0 to 1) and outputs a number proportionally distanced between the
left and right limits;
#X connect 0 0 5 0;
#X connect 1 0 0 0;
#X connect 2 0 1 0;
#X connect 2 0 5 0;
#X connect 2 1 1 1;
#X connect 2 1 5 1;
#X connect 3 0 0 0;
#X connect 3 1 0 1;
#X connect 4 0 0 0;
#X connect 5 0 8 0;
#X connect 6 0 2 0;
#X connect 7 0 4 0;
#X connect 7 0 1 0;
#X connect 9 0 3 0;
#X restore 44 158 pd from-to;
#X connect 0 0 3 0;
#X connect 0 0 5 0;
#X connect 1 0 4 0;
#X connect 2 0 9 1;
#X connect 3 0 9 2;
#X connect 4 0 6 0;
#X connect 5 0 9 0;
#X connect 6 0 3 0;
#X connect 6 0 5 0;
#X connect 6 1 3 1;
#X connect 6 1 5 1;
#X connect 9 0 7 0;
#X restore 103 230 pd range;
#N canvas 0 22 452 214 rand-ms 0;
#X obj 90 30 inlet;
#X obj 144 32 inlet;
#X obj 24 168 outlet;
#X obj 11 66 noise~;
#X obj 19 144 snapshot~;
#X obj 91 68 metro 100;
#X obj 11 88 /~ 2;
#X obj 11 110 +~ 0.5;
#X text 102 112 produces a random number between o and 1 every x milliseconds
where x is on the second inlet. defaults to 100ms per random value
;
#X connect 0 0 5 0;
#X connect 1 0 5 1;
#X connect 3 0 6 0;
#X connect 4 0 2 0;
#X connect 5 0 4 0;
#X connect 6 0 7 0;
#X connect 7 0 4 0;
#X restore 168 159 pd rand-ms;
#X connect 0 0 14 0;
#X connect 1 0 13 0;
#X connect 2 0 1 0;
#X connect 2 1 1 1;
#X connect 3 0 13 1;
#X connect 4 0 3 0;
#X connect 4 1 3 1;
#X connect 6 1 5 0;
#X connect 7 0 0 0;
#X connect 8 0 2 0;
#X connect 9 0 4 0;
#X connect 9 0 7 0;
#X connect 10 0 11 0;
#X connect 10 0 1 0;
#X connect 11 0 3 0;
#X connect 12 0 14 1;
#X connect 13 0 6 0;
#X connect 14 0 13 2;
#X restore 22 106 pd grainsize-calc;
#X obj 22 60 r \$0-samplesize;
#X obj 22 83 / 2;
#X obj 22 131 r \$0-start;
#N canvas 211 489 444 306 graintranspose-calc 0;
#X obj 32 15 inlet;
#X obj 158 17 inlet;
#X obj 192 104 tgl 15 0 empty empty empty 20 8 0 8 -262144 -1 -1 0
1;
#X obj 108 126 *;
#X obj 108 104 t b f;
#X obj 153 126 *;
#X obj 153 104 t b f;
#X obj 175 225 s \$0-graintranspose;
#X obj 175 203 moses 0.01;
#X obj 192 82 > 0;
#X obj 72 17 inlet;
#X obj 72 62 / 2;
#X obj 203 21 r \$0-random-rate;
#N canvas 5 55 454 216 rand-ms 0;
#X obj 90 30 inlet;
#X obj 144 32 inlet;
#X obj 24 168 outlet;
#X obj 11 66 noise~;
#X obj 19 144 snapshot~;
#X obj 91 68 metro 100;
#X obj 11 88 /~ 2;
#X obj 11 110 +~ 0.5;
#X text 102 112 produces a random number between o and 1 every x milliseconds
where x is on the second inlet. defaults to 100ms per random value
;
#X connect 0 0 5 0;
#X connect 1 0 5 1;
#X connect 3 0 6 0;
#X connect 4 0 2 0;
#X connect 5 0 4 0;
#X connect 6 0 7 0;
#X connect 7 0 4 0;
#X restore 192 124 pd rand-ms;
#N canvas 5 55 458 308 range 0;
#X obj 20 22 inlet;
#X obj 78 22 inlet;
#X obj 132 22 inlet;
#X obj 96 134 +;
#X obj 78 44 / 2;
#X obj 44 134 -;
#X obj 78 66 t b f;
#X obj 36 234 outlet;
#X text 121 183 takes a centre float and a range float and a position
(0 to 1) and outputs a number proportionately within the range from
the centre figure;
#N canvas 0 22 506 302 from-to 0;
#X obj 91 150 *;
#X obj 61 120 -;
#X obj 45 94 t b f;
#X obj 91 120 t b f;
#X obj 131 120 t;
#X obj 81 178 +;
#X obj 10 20 inlet;
#X obj 194 20 inlet;
#X obj 76 262 outlet;
#X obj 54 20 inlet;
#X text 131 161 takes a left limit and a right limit and a position
(0 to 1) and outputs a number proportionally distanced between the
left and right limits;
#X connect 0 0 5 0;
#X connect 1 0 0 0;
#X connect 2 0 1 0;
#X connect 2 0 5 0;
#X connect 2 1 1 1;
#X connect 2 1 5 1;
#X connect 3 0 0 0;
#X connect 3 1 0 1;
#X connect 4 0 0 0;
#X connect 5 0 8 0;
#X connect 6 0 2 0;
#X connect 7 0 4 0;
#X connect 7 0 1 0;
#X connect 9 0 3 0;
#X restore 44 158 pd from-to;
#X connect 0 0 3 0;
#X connect 0 0 5 0;
#X connect 1 0 4 0;
#X connect 2 0 9 1;
#X connect 3 0 9 2;
#X connect 4 0 6 0;
#X connect 5 0 9 0;
#X connect 6 0 3 0;
#X connect 6 0 5 0;
#X connect 6 1 3 1;
#X connect 6 1 5 1;
#X connect 9 0 7 0;
#X restore 173 178 pd range;
#X connect 0 0 3 0;
#X connect 0 0 11 0;
#X connect 1 0 6 0;
#X connect 1 0 9 0;
#X connect 2 0 13 0;
#X connect 3 0 14 0;
#X connect 4 0 3 0;
#X connect 4 1 3 1;
#X connect 5 0 14 1;
#X connect 6 0 5 0;
#X connect 6 1 5 1;
#X connect 8 1 7 0;
#X connect 9 0 2 0;
#X connect 10 0 4 0;
#X connect 11 0 5 0;
#X connect 12 0 13 1;
#X connect 13 0 14 2;
#X connect 14 0 8 0;
#X restore 22 282 pd graintranspose-calc;
#N canvas 0 22 306 290 grainpan 0;
#X obj 88 87 tgl 15 0 empty empty empty 20 8 0 8 -262144 -1 -1 0 1
;
#X obj 73 232 s \$0-grainpan;
#X obj 88 65 > 0;
#X obj 22 20 inlet;
#X obj 70 18 inlet;
#X obj 117 19 r \$0-random-rate;
#N canvas 0 22 454 304 range 0;
#X obj 20 22 inlet;
#X obj 78 22 inlet;
#X obj 132 22 inlet;
#X obj 96 134 +;
#X obj 78 44 / 2;
#X obj 44 134 -;
#X obj 78 66 t b f;
#X obj 36 234 outlet;
#X text 121 183 takes a centre float and a range float and a position
(0 to 1) and outputs a number proportionately within the range from
the centre figure;
#N canvas 0 22 506 302 from-to 0;
#X obj 91 150 *;
#X obj 61 120 -;
#X obj 45 94 t b f;
#X obj 91 120 t b f;
#X obj 131 120 t;
#X obj 81 178 +;
#X obj 10 20 inlet;
#X obj 194 20 inlet;
#X obj 76 262 outlet;
#X obj 54 20 inlet;
#X text 131 161 takes a left limit and a right limit and a position
(0 to 1) and outputs a number proportionally distanced between the
left and right limits;
#X connect 0 0 5 0;
#X connect 1 0 0 0;
#X connect 2 0 1 0;
#X connect 2 0 5 0;
#X connect 2 1 1 1;
#X connect 2 1 5 1;
#X connect 3 0 0 0;
#X connect 3 1 0 1;
#X connect 4 0 0 0;
#X connect 5 0 8 0;
#X connect 6 0 2 0;
#X connect 7 0 4 0;
#X connect 7 0 1 0;
#X connect 9 0 3 0;
#X restore 42 166 pd from-to;
#X connect 0 0 3 0;
#X connect 0 0 5 0;
#X connect 1 0 4 0;
#X connect 2 0 9 1;
#X connect 3 0 9 2;
#X connect 4 0 6 0;
#X connect 5 0 9 0;
#X connect 6 0 3 0;
#X connect 6 0 5 0;
#X connect 6 1 3 1;
#X connect 6 1 5 1;
#X connect 9 0 7 0;
#X restore 71 208 pd range;
#N canvas 0 22 452 214 rand-ms 0;
#X obj 90 30 inlet;
#X obj 144 32 inlet;
#X obj 24 168 outlet;
#X obj 11 66 noise~;
#X obj 19 144 snapshot~;
#X obj 91 68 metro 100;
#X obj 11 88 /~ 2;
#X obj 11 110 +~ 0.5;
#X text 102 112 produces a random number between o and 1 every x milliseconds
where x is on the second inlet. defaults to 100ms per random value
;
#X connect 0 0 5 0;
#X connect 1 0 5 1;
#X connect 3 0 6 0;
#X connect 4 0 2 0;
#X connect 5 0 4 0;
#X connect 6 0 7 0;
#X connect 7 0 4 0;
#X restore 90 108 pd rand-ms;
#X connect 0 0 7 0;
#X connect 2 0 0 0;
#X connect 3 0 6 0;
#X connect 4 0 2 0;
#X connect 4 0 6 1;
#X connect 5 0 7 1;
#X connect 6 0 1 0;
#X connect 7 0 6 2;
#X restore 23 340 pd grainpan;
#X msg 22 154 1;
#X obj 56 82 r \$0-size;
#X obj 127 82 r \$0-size-random;
#X obj 26 13 r \$0-position;
#X obj 125 13 r \$0-position-random;
#X obj 53 154 r \$0-transpose;
#X obj 161 154 r \$0-transpose-random;
#X obj 60 259 mtof;
#X obj 73 217 ftom;
#X obj 60 238 +;
#X msg 73 197 1;
#X obj 72 177 r \$0-start;
#X obj 24 315 r \$0-pan;
#X obj 89 315 r \$0-pan-random;
#N canvas 303 188 610 524 autoplaycontrol 0;
#X obj 30 355 phasor~;
#X obj 30 331 /;
#X obj 30 377 snapshot~;
#X obj 132 195 /;
#X obj 132 265 * 1000;
#X obj 160 151 samplerate~;
#X obj 80 333 tgl 15 0 empty empty empty 20 8 0 8 -262144 -1 -1 0 1
;
#X obj 146 173 *;
#X obj 132 309 /;
#X obj 132 287 t b f;
#X obj 88 311 != 0;
#X obj 30 438 outlet;
#X obj 132 242 /;
#X obj 132 218 t b f;
#X msg 80 189 0;
#X obj 132 330 abs;
#X obj 142 440 outlet;
#X obj 30 269 t b f;
#X text 157 341 <-- milliseconds per grain position update at the current
set of parameters;
#X obj 117 124 t b b;
#X obj 160 125 t b f;
#X obj 80 354 metro 100;
#X obj 70 54 r \$0-grainsize;
#X obj 158 31 r \$0-start;
#X obj 44 31 r \$0-samplesize;
#X obj 308 53 r \$0-graintranspose;
#X obj 106 8 r \$0-retrigger;
#X obj 144 397 tgl 15 0 empty empty empty 20 8 0 8 -262144 -1 -1 1
1;
#X obj 142 416 metro 100;
#X obj 152 375 == 0;
#X obj 30 398 spigot;
#X obj 254 193 /;
#X obj 254 263 * 1000;
#X obj 282 149 samplerate~;
#X obj 268 171 *;
#X obj 254 307 /;
#X obj 254 285 t b f;
#X obj 254 240 /;
#X obj 254 216 t b f;
#X obj 254 328 abs;
#X obj 245 122 t b b;
#X obj 282 123 t b f;
#X msg 281 100 1;
#X text 225 70 repeat of whole rate calculator for the stationary rate
(random grain play);
#X obj 236 30 r \$0-grain-density;
#X obj 176 53 r \$0-playback-rate;
#X floatatom 376 112 5 0 0 0 - - -;
#X floatatom 70 215 5 0 0 0 - - -;
#X obj 232 0 r \$0-set_position;
#X connect 0 0 2 0;
#X connect 1 0 0 0;
#X connect 2 0 30 0;
#X connect 3 0 12 0;
#X connect 4 0 8 0;
#X connect 5 0 7 1;
#X connect 6 0 21 0;
#X connect 6 0 30 1;
#X connect 7 0 3 1;
#X connect 7 0 1 0;
#X connect 8 0 15 0;
#X connect 9 0 8 0;
#X connect 9 1 8 1;
#X connect 10 0 6 0;
#X connect 12 0 4 0;
#X connect 13 0 12 0;
#X connect 13 1 12 1;
#X connect 14 0 47 0;
#X connect 15 0 21 1;
#X connect 17 0 1 0;
#X connect 17 1 1 1;
#X connect 19 0 14 0;
#X connect 19 1 5 0;
#X connect 20 0 3 0;
#X connect 20 1 7 0;
#X connect 21 0 2 0;
#X connect 22 0 3 0;
#X connect 22 0 31 0;
#X connect 23 0 19 0;
#X connect 23 0 40 0;
#X connect 24 0 17 0;
#X connect 25 0 13 0;
#X connect 25 0 38 0;
#X connect 26 0 19 0;
#X connect 27 0 28 0;
#X connect 27 0 42 0;
#X connect 28 0 16 0;
#X connect 29 0 27 0;
#X connect 30 0 11 0;
#X connect 31 0 37 0;
#X connect 32 0 35 0;
#X connect 33 0 34 1;
#X connect 34 0 31 1;
#X connect 35 0 39 0;
#X connect 36 0 35 0;
#X connect 36 1 35 1;
#X connect 37 0 32 0;
#X connect 38 0 37 0;
#X connect 38 1 37 1;
#X connect 39 0 28 1;
#X connect 40 1 33 0;
#X connect 41 0 31 0;
#X connect 41 1 34 0;
#X connect 42 0 41 0;
#X connect 44 0 9 0;
#X connect 44 0 36 0;
#X connect 44 0 46 0;
#X connect 45 0 20 0;
#X connect 45 0 10 0;
#X connect 45 0 29 0;
#X connect 47 0 0 1;
#X connect 48 0 47 0;
#X restore 20 375 pd autoplaycontrol;
#N canvas 541 85 458 308 bang-timer 0;
#X obj 47 26 inlet;
#X obj 45 68 bng 15 250 50 0 empty empty empty 20 8 0 8 -262144 -1
-1;
#X obj 47 104 timer;
#X obj 67 154 mavg;
#X msg 91 105 3;
#X obj 51 247 outlet;
#X connect 0 0 1 0;
#X connect 1 0 2 1;
#X connect 1 0 2 0;
#X connect 1 0 4 0;
#X connect 2 0 3 0;
#X connect 3 0 5 0;
#X connect 4 0 3 1;
#X restore 33 397 pd bang-timer;
#X obj 33 419 s \$0-random-rate;
#X obj 20 441 s \$0-position-in;
#X obj 204 439 outlet~;
#X obj 261 440 outlet~;
#X obj 260 344 *;
#X obj 260 322 t b f;
#N canvas 0 22 414 318 up-or-dn 0;
#X obj 18 132 <;
#X obj 18 154 * -2;
#X obj 18 176 + 1;
#X obj 18 110 t f f;
#X obj 19 10 inlet;
#X obj 19 272 outlet;
#X text 56 39 this unit outputs a +1 if the current input is greater
than the previous input \, and outputs a -1 if the current input is
less than the previous input.;
#X connect 0 0 1 0;
#X connect 1 0 2 0;
#X connect 2 0 5 0;
#X connect 3 0 0 1;
#X connect 3 1 0 0;
#X connect 4 0 3 0;
#X restore 260 300 pd up-or-dn;
#X obj 260 278 r \$0-grainsize;
#X obj 345 301 r \$0-grainpan;
#X obj 260 257 r \$0-graintranspose;
#X obj 296 387 s \$0-samplesize;
#X obj 315 323 r \$0-grainposition;
#X obj 214 237 r \$0-filepath;
#X obj 214 365 nm-poly-stereo-grain 30;
#X connect 2 0 3 0;
#X connect 3 0 1 0;
#X connect 4 0 7 0;
#X connect 7 0 5 0;
#X connect 8 0 1 1;
#X connect 9 0 1 2;
#X connect 10 0 0 0;
#X connect 11 0 0 1;
#X connect 12 0 16 0;
#X connect 13 0 5 2;
#X connect 14 0 5 1;
#X connect 15 0 16 1;
#X connect 16 0 14 0;
#X connect 17 0 15 0;
#X connect 18 0 17 0;
#X connect 19 0 6 0;
#X connect 20 0 6 1;
#X connect 21 0 24 0;
#X connect 21 1 22 0;
#X connect 22 0 23 0;
#X connect 27 0 36 1;
#X connect 28 0 27 0;
#X connect 28 1 27 1;
#X connect 29 0 28 0;
#X connect 30 0 27 0;
#X connect 31 0 36 3;
#X connect 32 0 36 0;
#X connect 34 0 29 0;
#X connect 34 0 36 2;
#X connect 35 0 36 0;
#X connect 36 0 25 0;
#X connect 36 1 26 0;
#X connect 36 2 33 0;
#X restore 141 85 pd guts;
#X obj 140 175 outlet~;
#X obj 191 177 outlet~;
#X connect 0 0 3 0;
#X connect 1 0 2 3;
#X connect 2 0 9 0;
#X connect 2 1 10 0;
#X connect 2 2 5 0;
#X connect 3 0 5 0;
#X connect 4 0 5 0;
#X connect 6 0 2 2;
#X connect 7 0 1 0;
#X connect 8 0 2 0;
#X connect 8 1 2 1;
#X restore 464 519 pd everything-else;
#X obj 104 360 tgl 15 0 \$0-start-stop-toggle \$0-start-stop-toggle-out
stop-start -70 8 0 10 -262081 -258699 -143491 0 1;
#X obj 104 245 bng 15 250 50 0 \$0-reset-position-random empty empty
0 -6 0 8 -44926 -1 -1;
#X obj 104 268 bng 15 250 50 0 \$0-reset-size empty empty 0 -6 0 8
-262081 -1 -1;
#X obj 104 291 bng 15 250 50 0 \$0-reset-size-random empty empty 0
-6 0 8 -44926 -1 -1;
#X obj 104 314 bng 15 250 50 0 \$0-reset-transpose empty empty 0 -6
0 8 -262081 -1 -1;
#X obj 104 337 bng 15 250 50 0 \$0-reset-transpose-random empty empty
0 -6 0 8 -44926 -1 -1;
#X obj 104 383 bng 15 250 50 0 \$0-reset-grain-density empty empty
0 -6 0 8 -262081 -1 -1;
#X obj 104 406 bng 15 250 50 0 \$0-reset-pan empty empty 0 -6 0 8 -262081
-1 -1;
#X obj 104 429 bng 15 250 50 0 \$0-reset-pan-random empty empty 0 -6
0 8 -44926 -1 -1;
#X obj 133 407 hsl 128 15 0 1 0 1 \$0-pan \$0-pan-in grain-panning
6 6 0 10 -262102 -1 -1 6350 1;
#X obj 133 430 hsl 128 15 0 1 0 0 \$0-pan-random \$0-pan-random-in
randomness-amount 6 6 0 10 -135168 -1 -1 0 1;
#X obj 269 406 nbx 5 14 0 1 0 0 empty \$0-pan 0->1 60 8 0 10 -262102
-1 -1 0.5 256;
#X obj 269 428 nbx 5 14 0 1 0 0 empty \$0-pan-random empty 0 -6 0 10
-135168 -1 -1 0 256;
#X obj 131 224 hsl 350 15 0 1 0 0 \$0-position \$0-position-in position-of-current-grain-in-sample
6 6 0 10 -262102 -1 -1 13640 0;
#X obj 133 246 hsl 350 15 0 1 0 0 \$0-position-random \$0-position-random-in
randomness-amount 6 6 0 10 -135168 -1 -1 0 1;
#X obj 133 269 hsl 350 15 0.0001 1 1 0 \$0-size \$0-size-in grain-size-(fraction-of-sample-length)
6 6 0 10 -262102 -1 -1 12888 1;
#X obj 133 292 hsl 350 15 0 1 0 0 \$0-size-random \$0-size-random-in
randomness-amount 6 6 0 10 -135168 -1 -1 0 1;
#X obj 133 338 hsl 350 15 0 1 0 0 \$0-transpose-random \$0-transpose-random-in
randomness-amount 6 6 0 10 -135168 -1 -1 0 1;
#X obj 133 315 hsl 350 15 -48 48 0 0 \$0-transpose \$0-transpose-in
grain-transpose-(semitones) 6 6 0 10 -262102 -1 -1 17450 0;
#X obj 133 361 hsl 350 15 -10 10 0 1 \$0-playback-rate \$0-playback-rate-in
playback-rate 6 6 0 10 -262102 -1 -1 17450 0;
#X obj 133 384 hsl 350 15 0.01 30 1 0 \$0-grain-density \$0-grain-density-in
number-of-simultaneous-grains 6 6 0 10 -262081 -1 -1 30111 1;
#X obj 492 384 nbx 5 14 0.01 30 1 0 empty \$0-grain-density 0->30 60
8 0 10 -262102 -1 -1 9.99973 256;
#X obj 492 360 nbx 5 14 -10 10 0 0 empty \$0-playback-rate -10->+10
60 8 0 10 -262102 -1 -1 0 256;
#X obj 492 315 nbx 5 14 -48 48 0 0 empty \$0-transpose -48->+48 60
8 0 10 -262102 -1 -1 0 256;
#X obj 492 337 nbx 5 14 0 1 0 0 empty \$0-transpose-random empty 0
-6 0 10 -135168 -1 -1 0 256;
#X obj 492 292 nbx 5 14 0 1 0 0 empty \$0-size-random empty 0 -6 0
10 -135168 -1 -1 0 256;
#X obj 492 246 nbx 5 14 0 1 0 0 empty \$0-position-random empty 0 -6
0 10 -135168 -1 -1 0 256;
#X obj 492 223 nbx 5 14 0 1 0 0 empty \$0-position 0->1 60 8 0 10 -262102
-1 -1 0.390831 256;
#X obj 492 269 nbx 5 14 0 100000 0 0 empty \$0-grainsize samples 60
8 0 10 -262102 -1 -1 2868.57 256;
#X obj 421 421 bng 15 250 50 0 \$0-mute-toggle empty mute-unmute 0
22 0 10 -258699 -1 -1;
#X obj 443 421 nbx 5 14 0 110 0 0 \$0-output-level \$0-output-level-in
output-level -20 -10 0 10 -4033 -1 -1 0 256;
#X obj 338 144 openpanel;
#X obj 410 126 bng 15 250 50 0 empty empty empty 20 8 0 8 -4033 -1
-1;
#X symbolatom 409 164 40 0 0 0 - - -;
#X obj 409 145 bng 15 250 50 0 empty empty empty 20 8 0 8 -4033 -1
-1;
#X text 432 125 <-- bang to open soundfile;
#X text 432 145 <-- bang to re-open soundfile;
#X text 466 21 <-- bang to reset all;
#X text 466 41 <-- bang to re-trigger sample;
#X text 538 110 emergency kill dsp!;
#X text 105 460 NOTE - The position slider (at the top) can only be
moved while the playback rate is set to 0 Otherwise \, the position
advances according to the selected playback rate.;
#X text 58 560 Open Sound Control facilities;
#N canvas 783 415 786 700 rm_Control 1;
#X obj 397 110 inlet;
#X obj 297 305 OSCroute /pos;
#X obj 313 356 OSCroute /posr;
#X obj 343 377 OSCroute /gsize;
#X obj 346 400 OSCroute /gsizer;
#X obj 372 420 OSCroute /trans;
#X obj 378 444 OSCroute /transr;
#X obj 419 495 OSCroute /density;
#X obj 452 542 OSCroute /panr;
#X obj 70 400 s \$0-position-random-in;
#X obj 163 422 s \$0-size-in;
#X obj 132 447 s \$0-size-random-in;
#X obj 137 495 s \$0-transpose-random-in;
#X obj 25 499 s \$0-transpose-in;
#X obj 52 568 s \$0-grain-density-in;
#X obj 224 590 s \$0-pan-random-in;
#X obj 371 584 mavg 3;
#X text 33 316 mavg may be too cheap;
#X text 31 334 if so consider interpolate;
#X obj 443 294 OSCroute /filepath;
#X symbolatom 472 342 10 0 0 0 - - -;
#X obj 474 399 s \$0-filepath;
#X obj 468 563 OSCroute /vol;
#X obj 467 660 s \$0-vol;
#X obj 23 470 expr 96*($f1-0.5);
#X obj 467 614 * 100;
#X obj 249 543 * 20;
#X text 96 623 NOTE: all inputs from osc are 0-1 floats!;
#X obj 435 518 OSCroute /pan;
#X obj 207 568 s \$0-pan-in;
#X obj 417 469 OSCroute /playbackrate;
#X obj 131 519 s \$0-playback-rate-in;
#X obj 553 612 OSCroute /startstop;
#X obj 568 654 s \$0-start-stop-toggle-out;
#X obj 215 356 mavg 1;
#X obj 298 498 mavg 1;
#X obj 230 377 mavg 1;
#X obj 247 400 mavg 1;
#X obj 262 421 mavg 1;
#X obj 280 446 mavg 1;
#X obj 300 470 mavg 1;
#X obj 318 527 mavg 1;
#X obj 352 545 mavg 1;
#X floatatom 362 480 5 0 0 0 - - -;
#X floatatom 297 331 5 0 0 0 - - -;
#X obj 463 64 OSCroute /len;
#X obj 605 366 del;
#X floatatom 618 338 8 0 0 0 - - -;
#X msg 626 407 0;
#X obj 506 207 bng 15 250 50 0 empty empty empty 0 -6 0 10 -262144
-1 -1;
#X obj 467 636 line 0 10;
#X obj 6 4 hsl 128 15 0 1 0 0 empty \$0-pos_sldr /pos 2 8 0 10 -262144
-1 -1 0 1;
#X floatatom 103 5 5 0 0 0 - - -;
#X obj 6 42 hsl 128 15 0.0001 1 1 0 empty empty /gsize 2 8 0 10 -262144
-1 -1 0 1;
#X floatatom 103 43 5 0 0 0 - - -;
#X obj 6 61 hsl 128 15 -48 48 0 0 empty \$0-trans_sldr /trans 2 8 0
10 -262144 -1 -1 0 1;
#X floatatom 103 61 5 0 0 0 - - -;
#X obj 6 81 hsl 128 15 -10 10 0 0 empty \$0-pr_sldr /playbackrate 2
8 0 10 -262144 -1 -1 0 1;
#X floatatom 103 82 5 0 0 0 - - -;
#X obj 6 100 hsl 128 15 0.001 1 1 0 empty empty /density 2 8 0 10 -262144
-1 -1 0 1;
#X floatatom 103 101 5 0 0 0 - - -;
#X floatatom 293 383 5 0 0 0 - - -;
#X floatatom 328 425 5 0 0 0 - - -;
#X floatatom 375 507 5 0 0 0 - - -;
#X obj 7 121 hsl 128 15 0 1 0 0 empty empty /pan 2 8 0 10 -262144 -1
-1 0 1;
#X floatatom 104 122 5 0 0 0 - - -;
#X floatatom 419 562 5 0 0 0 - - -;
#X obj 506 185 OSCroute /trig;
#X obj 6 23 hsl 128 15 0 1 0 0 empty \$0-len_sldr /len 2 8 0 10 -262144
-1 -1 0 1;
#X floatatom 102 24 5 0 0 0 - - -;
#X obj 3 157 bng 15 250 50 0 empty empty /trig 16 8 0 10 -258113 -260097
-4160;
#X obj 470 274 openpanel;
#X obj 57 157 tgl 15 0 empty empty /startstop 16 8 0 10 -258113 -86277
-258113 0 1;
#X obj 4 178 bng 15 250 50 0 empty empty open 16 8 0 10 -258113 -260097
-83269;
#X floatatom 467 588 5 0 0 0 - - -;
#X msg 515 614 10;
#X obj 515 587 loadbang;
#X obj 507 228 t b b b;
#X obj 7 139 hsl 128 15 0 1 0 0 empty empty /vol 2 8 0 10 -262144 -1
-1 0 1;
#X floatatom 104 140 5 0 0 0 - - -;
#X floatatom 403 537 5 0 0 0 - - -;
#X obj 554 -7 r \$0-samplesize;
#X floatatom 554 15 8 0 0 0 - - -;
#X obj 556 32 * 1;
#X obj 87 376 s \$0-set_position;
#X obj 619 573 t f f;
#X obj 583 581 * 1;
#X obj 583 78 samplerate~;
#X obj 556 99 /;
#X obj 541 165 int;
#X obj 556 53 t f b;
#X obj 541 124 * 1;
#X floatatom 601 119 8 0 0 0 - - -;
#X floatatom 677 90 5 0 0 0 - - -;
#X floatatom 606 56 8 0 0 0 - - -;
#X msg 666 18 1;
#X obj 666 -3 loadbang;
#X obj 542 145 * 1000;
#X text 656 121 length (sec);
#X obj 448 109 inlet;
#X text 446 125 trig;
#X text 411 125 OSC;
#X obj 474 319 symbol;
#X obj 56 180 bng 15 250 50 0 \$0-reset empty reset 15 6 0 10 -258113
-257985 -13381;
#X obj 207 1 r \$0-reset;
#X obj 255 31 s \$0-pos_sldr;
#X msg 221 31 0;
#X obj 244 55 s \$0-len_sldr;
#X msg 210 55 1;
#X msg 208 77 0;
#X obj 242 77 s \$0-trans_sldr;
#X obj 242 97 s \$0-pr_sldr;
#X msg 208 97 1;
#X obj 150 65 int;
#X obj 322 2 route pos trans vol plrate file;
#X obj 502 -21 inlet;
#X connect 0 0 1 0;
#X connect 0 0 2 0;
#X connect 0 0 3 0;
#X connect 0 0 4 0;
#X connect 0 0 5 0;
#X connect 0 0 6 0;
#X connect 0 0 7 0;
#X connect 0 0 8 0;
#X connect 0 0 19 0;
#X connect 0 0 22 0;
#X connect 0 0 28 0;
#X connect 0 0 30 0;
#X connect 0 0 32 0;
#X connect 0 0 45 0;
#X connect 0 0 67 0;
#X connect 1 0 44 0;
#X connect 1 0 52 0;
#X connect 2 0 36 0;
#X connect 3 0 61 0;
#X connect 3 0 54 0;
#X connect 4 0 38 0;
#X connect 5 0 56 0;
#X connect 5 0 113 0;
#X connect 6 0 40 0;
#X connect 7 0 63 0;
#X connect 7 0 60 0;
#X connect 8 0 66 0;
#X connect 16 0 15 0;
#X connect 19 0 102 0;
#X connect 20 0 21 0;
#X connect 22 0 74 0;
#X connect 22 0 79 0;
#X connect 24 0 13 0;
#X connect 25 0 50 0;
#X connect 26 0 14 0;
#X connect 28 0 80 0;
#X connect 28 0 65 0;
#X connect 30 0 43 0;
#X connect 30 0 58 0;
#X connect 32 0 33 0;
#X connect 34 0 84 0;
#X connect 35 0 31 0;
#X connect 36 0 9 0;
#X connect 37 0 10 0;
#X connect 38 0 11 0;
#X connect 39 0 13 0;
#X connect 40 0 12 0;
#X connect 41 0 26 0;
#X connect 42 0 29 0;
#X connect 43 0 35 0;
#X connect 44 0 34 0;
#X connect 45 0 69 0;
#X connect 45 0 91 0;
#X connect 46 0 48 0;
#X connect 47 0 46 1;
#X connect 48 0 25 0;
#X connect 48 0 35 0;
#X connect 49 0 46 0;
#X connect 49 0 77 0;
#X connect 50 0 23 0;
#X connect 51 0 52 0;
#X connect 51 0 44 0;
#X connect 53 0 54 0;
#X connect 53 0 61 0;
#X connect 55 0 113 0;
#X connect 57 0 58 0;
#X connect 57 0 43 0;
#X connect 59 0 60 0;
#X connect 59 0 63 0;
#X connect 61 0 37 0;
#X connect 62 0 39 0;
#X connect 63 0 41 0;
#X connect 64 0 65 0;
#X connect 64 0 80 0;
#X connect 66 0 16 0;
#X connect 67 0 49 0;
#X connect 68 0 69 0;
#X connect 68 0 91 0;
#X connect 70 0 49 0;
#X connect 71 0 102 0;
#X connect 72 0 85 0;
#X connect 73 0 71 0;
#X connect 74 0 25 0;
#X connect 74 0 86 1;
#X connect 75 0 50 1;
#X connect 76 0 75 0;
#X connect 77 0 74 0;
#X connect 77 1 43 0;
#X connect 77 2 44 0;
#X connect 78 0 79 0;
#X connect 78 0 74 0;
#X connect 80 0 42 0;
#X connect 81 0 82 0;
#X connect 82 0 83 0;
#X connect 83 0 90 0;
#X connect 83 0 94 0;
#X connect 85 0 86 0;
#X connect 85 1 33 0;
#X connect 86 0 25 0;
#X connect 87 0 88 1;
#X connect 87 0 93 0;
#X connect 88 0 91 1;
#X connect 88 0 92 0;
#X connect 89 0 47 0;
#X connect 90 0 88 0;
#X connect 90 1 87 0;
#X connect 91 0 97 0;
#X connect 95 0 83 1;
#X connect 96 0 95 0;
#X connect 97 0 89 0;
#X connect 99 0 49 0;
#X connect 102 0 20 0;
#X connect 104 0 108 0;
#X connect 104 0 109 0;
#X connect 104 0 112 0;
#X connect 106 0 105 0;
#X connect 108 0 107 0;
#X connect 109 0 110 0;
#X connect 112 0 111 0;
#X connect 113 0 62 0;
#X connect 113 0 56 0;
#X connect 114 0 44 0;
#X connect 114 0 52 0;
#X connect 114 1 113 0;
#X connect 114 1 56 0;
#X connect 114 2 74 0;
#X connect 114 2 79 0;
#X connect 114 3 43 0;
#X connect 114 3 58 0;
#X connect 114 4 20 0;
#X connect 115 0 114 0;
#X coords 0 -1 1 1 140 200 1 0 0;
#X restore 7 4 pd rm_Control;
#X obj 165 5 inlet;
#X obj 467 563 outlet~;
#X obj 565 558 outlet~;
#X obj 207 4 inlet;
#X text 207 21 trig;
#X text 166 22 OSC;
#X obj 252 3 inlet;
#X text 252 20 trig;
#X connect 2 0 3 0;
#X connect 3 0 1 0;
#X connect 4 0 5 0;
#X connect 11 0 56 0;
#X connect 11 1 57 0;
#X connect 43 0 45 0;
#X connect 44 0 43 0;
#X connect 45 0 6 0;
#X connect 46 0 45 0;
#X connect 55 0 54 0;
#X connect 58 0 54 1;
#X connect 61 0 54 2;
#X coords 0 -1 1 1 150 210 1 0 0;
