#N canvas 814 356 550 597 8;
#X obj 16 2 ../cmp/sampler_st;
#X obj 144 180 ../cmp/tape_pitchshift;
#X obj 288 28 OSCroute /sampler;
#X obj 156 -10 OSCroute /metro;
#X obj 174 133 metro 500;
#X obj 180 35 OSCroute /time;
#X obj 170 11 OSCroute /on;
#X obj 174 111 tgl 15 0 empty empty empty 0 -6 0 8 -262144 -1 -1 0
1;
#X obj 167 65 OSCroute /set;
#X obj 171 88 unpack f f;
#X floatatom 216 51 5 0 0 0 - - -;
#X obj 361 2 bng 15 250 50 0 empty empty empty 0 -6 0 8 -262144 -1
-1;
#X obj 113 524 dac~;
#X obj 14 135 ../cmp/tape_pitchshift;
#X obj 93 478 *~ 1;
#X obj 102 432 hsl 128 15 0 2 0 0 empty empty empty -2 -6 0 8 -262144
-1 -1 5080 1;
#X obj 258 404 OSCroute /mstr_vol;
#X obj 261 442 line;
#X obj 259 424 unpack f f;
#X obj 316 425 bng 15 250 50 0 empty empty empty 0 -6 0 8 -262144 -1
-1;
#X obj 137 478 *~ 1;
#X obj 147 460 hsl 128 15 0 2 0 0 empty empty empty -2 -6 0 8 -262144
-1 -1 5080 1;
#X floatatom 202 435 5 0 0 0 - - -;
#X obj 279 0 dumpOSC 10001;
#X obj 99 252 ../cmp/mixer;
#X obj 184 511 env~ 2048;
#X floatatom 186 533 5 0 0 0 - - -;
#X obj 241 535 max;
#X obj 271 535 f;
#X floatatom 272 554 5 0 0 0 - - -;
#X msg 244 505 0;
#X floatatom 226 368 5 0 0 0 - - -;
#X obj 401 2 ../cmp/herc_joystk 0;
#X connect 0 0 13 0;
#X connect 0 1 1 0;
#X connect 2 0 3 0;
#X connect 2 0 0 7;
#X connect 2 0 13 2;
#X connect 2 0 1 2;
#X connect 2 0 16 0;
#X connect 3 0 5 0;
#X connect 3 0 6 0;
#X connect 3 0 8 0;
#X connect 4 0 0 4;
#X connect 5 0 4 1;
#X connect 5 0 10 0;
#X connect 6 0 7 0;
#X connect 7 0 4 0;
#X connect 8 0 9 0;
#X connect 9 0 7 0;
#X connect 9 1 4 1;
#X connect 9 1 10 0;
#X connect 10 0 4 1;
#X connect 13 0 24 0;
#X connect 13 0 24 1;
#X connect 14 0 12 0;
#X connect 15 0 14 1;
#X connect 15 0 22 0;
#X connect 16 0 18 0;
#X connect 16 0 19 0;
#X connect 16 0 31 0;
#X connect 17 0 15 0;
#X connect 17 0 21 0;
#X connect 18 0 17 0;
#X connect 18 1 17 1;
#X connect 20 0 12 1;
#X connect 20 0 25 0;
#X connect 21 0 20 1;
#X connect 23 0 2 0;
#X connect 23 0 11 0;
#X connect 23 0 24 8;
#X connect 24 0 14 0;
#X connect 24 1 20 0;
#X connect 25 0 26 0;
#X connect 26 0 27 0;
#X connect 27 0 28 0;
#X connect 28 0 27 1;
#X connect 28 0 29 0;
#X connect 30 0 28 0;
