#N canvas 760 276 550 300 10;
#X obj 14 10 cnv 15 200 250 empty empty empty 20 12 0 14 -233017 -66577
0;
#X msg 23 52 800 600 0 0;
#X msg 26 98 320 240 0 0;
#X msg 99 51 800 600 1440 -1;
#X msg 24 74 1024 768 0 0;
#X msg 108 71 1024 768 1440 -1;
#X msg 22 143 offset \$3 \$4;
#X msg 105 143 dimen \$1 \$2;
#X obj 38 164 t b b;
#X msg 81 210 destroy;
#X obj 142 189 tgl 15 0 empty empty empty 0 -6 0 8 -262144 -1 -1 0
1;
#X text 156 187 render;
#X msg 85 191 0;
#X msg 34 191 1;
#X obj 136 210 gemwin 20;
#X msg 22 32 640 480 0 0;
#X msg 98 31 640 480 1440 -1;
#X msg 107 95 400 300 0 0;
#X msg 16 121 1440 900 0 -1;
#X text 38 11 open window;
#X msg 121 163 lighting \$1;
#X obj 100 163 tgl 15 0 empty empty empty 0 -6 0 8 -262144 -1 -1 0
1;
#X text 192 114 fullscreen;
#X msg 24 233 create;
#X msg 112 117 800 600 -1 -1;
#X obj 301 62 bng 15 250 50 0 empty empty empty 0 -6 0 8 -262144 -1
-1;
#X obj 267 109 ChangeText;
#X obj 342 58 loadbang;
#X obj 363 105 tgl 15 0 empty empty empty 17 7 0 10 -262144 -1 -1 1
1;
#X obj 482 23 gemhead;
#X obj 293 264 world_light;
#X floatatom 373 216 5 0 0 0 - - -;
#X obj 293 234 rotateXYZ 0 -120 0;
#X obj 251 23 dumpOSC 10002;
#X msg 234 187 fullscreen 1;
#X msg 383 182 360;
#X obj 246 162 6frame;
#X obj 278 134 tgl 15 0 empty empty empty 0 -6 0 8 -262144 -1 -1 0
1;
#X connect 1 0 6 0;
#X connect 1 0 7 0;
#X connect 1 0 8 0;
#X connect 2 0 6 0;
#X connect 2 0 7 0;
#X connect 2 0 8 0;
#X connect 3 0 6 0;
#X connect 3 0 7 0;
#X connect 3 0 8 0;
#X connect 4 0 6 0;
#X connect 4 0 7 0;
#X connect 4 0 8 0;
#X connect 5 0 7 0;
#X connect 5 0 6 0;
#X connect 5 0 8 0;
#X connect 6 0 14 0;
#X connect 7 0 14 0;
#X connect 8 0 23 0;
#X connect 8 0 13 0;
#X connect 8 1 9 0;
#X connect 8 1 12 0;
#X connect 9 0 14 0;
#X connect 10 0 14 0;
#X connect 12 0 10 0;
#X connect 12 0 21 0;
#X connect 13 0 10 0;
#X connect 13 0 21 0;
#X connect 15 0 6 0;
#X connect 15 0 7 0;
#X connect 15 0 8 0;
#X connect 16 0 8 0;
#X connect 17 0 6 0;
#X connect 17 0 7 0;
#X connect 17 0 8 0;
#X connect 18 0 7 0;
#X connect 18 0 6 0;
#X connect 18 0 8 0;
#X connect 20 0 14 0;
#X connect 21 0 20 0;
#X connect 23 0 14 0;
#X connect 24 0 7 0;
#X connect 24 0 8 0;
#X connect 27 0 28 0;
#X connect 27 0 35 0;
#X connect 28 0 26 1;
#X connect 29 0 32 0;
#X connect 31 0 32 2;
#X connect 32 0 30 0;
#X connect 33 0 25 0;
#X connect 33 0 26 0;
#X connect 33 0 36 0;
#X connect 34 0 14 0;
#X connect 35 0 31 0;
#X connect 37 0 36 1;
