#N canvas 132 222 1704 872 10;
#X obj 146 47 noise~;
#X obj 226 364 *~ 1;
#X obj 224 648 dac~;
#X obj 184 182 vcf~;
#X obj 212 65 hsl 128 15 10 20000 1 0 empty empty empty -2 -8 0 10
-262144 -1 -1 1485 1;
#X obj 232 108 hsl 128 15 0 127 0 0 empty empty empty -2 -8 0 10 -262144
-1 -1 5300 1;
#X floatatom 302 67 5 0 0 0 - - -;
#X floatatom 317 108 5 0 0 0 - - -;
#X floatatom 337 283 5 0 0 0 - - -;
#X obj 210 215 *~;
#X obj 238 251 hsl 128 15 0 1 0 0 empty empty empty -2 -8 0 10 -262144
-1 -1 7112 1;
#X floatatom 328 252 5 0 0 0 - - -;
#X obj 183 256 *~ 1;
#X obj 383 110 hsl 128 15 1 200 1 0 empty empty empty -2 -8 0 10 -262144
-1 -1 188 1;
#X obj 547 115 hsl 128 15 1 200 1 0 empty empty empty -2 -8 0 10 -262144
-1 -1 940 1;
#X floatatom 475 110 5 0 0 0 - - -;
#X floatatom 638 115 5 0 0 0 - - -;
#X floatatom 510 55 5 0 0 0 - - -;
#X obj 490 80 * 1;
#X obj 425 34 hsl 128 15 0 10 0 0 empty empty empty -2 -8 0 10 -262144
-1 -1 0 1;
#X floatatom 520 34 5 0 0 0 - - -;
#X obj 420 61 * 1;
#X obj 289 -87 OSCroute /noise;
#X obj 352 -128 dumpOSC 10001;
#X obj 259 36 OSCroute /r;
#X obj 375 1 OSCroute /osc1;
#X obj 488 0 OSCroute /osc2;
#X obj 401 246 OSCroute /mix;
#X obj 227 440 ../cmp/mixer;
#X obj 316 407 OSCroute /mixer;
#X obj 204 -59 OSCroute /note;
#X obj 203 28 mtof;
#X obj 770 -46 noise~;
#X obj 768 71 clip~ -1 1;
#X obj 769 45 *~ 1;
#X obj 247 387 *~ 1;
#X obj 797 25 hsl 128 15 1 10000 1 0 empty empty empty -2 -8 0 10 -262144
-1 -1 4800 1;
#X floatatom 887 25 5 0 0 0 - - -;
#X obj 807 139 ../cmp/multi_osc1;
#X obj 769 267 *~;
#X obj 817 115 hsl 128 15 0.1 20 1 0 empty empty empty -2 -8 0 10 -262144
-1 -1 8979 1;
#X obj 808 239 +~ 1;
#X floatatom 909 116 5 0 0 0 - - -;
#X obj 679 146 + 0;
#X msg 679 119 0;
#X obj 204 6 + 0;
#X obj 751 326 ../cmp/bitcrush;
#X obj 784 -86 OSCroute /blast;
#X obj 801 -7 OSCroute /od;
#X obj 904 52 OSCroute /osc;
#X obj 267 138 ../cmp/multi_osc1;
#X obj 431 143 ../cmp/multi_osc1;
#X obj 848 75 OSCroute /freq;
#X obj 816 94 - 1;
#X obj 675 15 OSCroute /trig;
#X obj 180 -37 select 0;
#X floatatom 399 -22 5 0 0 0 - - -;
#X obj 672 423 delayline;
#X obj 225 310 delayline;
#X obj 1156 -118 OSCroute /tick;
#X obj 271 414 *~ 1;
#X obj 1266 -93 print;
#X obj 1143 14 tick;
#X obj 1134 -26 OSCroute /0;
#X obj 1227 -26 OSCroute /1;
#X obj 1322 -26 OSCroute /2;
#X obj 1416 -25 OSCroute /3;
#X obj 1144 59 *~ 1;
#X obj 1239 61 *~ 1;
#X obj 1330 60 *~ 1;
#X obj 1428 57 *~ 1;
#X obj 1300 160 *~ 1;
#X obj 1518 55 *~ 1;
#X obj 1506 -27 OSCroute /4;
#X obj 256 -21 OSCroute /notebase;
#X obj 245 9 OSCroute /f;
#X floatatom 331 11 6 0 0 0 - - -;
#X obj 195 87 pack f 100;
#X obj 196 154 line 0 10;
#X obj 1236 14 tick;
#X obj 1330 14 tick;
#X obj 1425 15 tick;
#X obj 1515 13 tick;
#X obj 685 184 bng 15 250 50 0 empty empty empty 17 7 0 10 -262144
-1 -1;
#X obj 975 81 OSCroute /sq;
#X msg 975 101 127 0 0;
#X obj 456 -74 OSCroute /vid;
#X obj 475 -51 print;
#X floatatom 64 273 5 0 0 0 - - -;
#X obj 979 -16 loadbang;
#X connect 0 0 3 0;
#X connect 1 0 28 1;
#X connect 1 0 28 0;
#X connect 3 0 9 0;
#X connect 3 0 12 0;
#X connect 4 0 6 0;
#X connect 4 0 77 0;
#X connect 5 0 3 2;
#X connect 5 0 7 0;
#X connect 9 0 58 0;
#X connect 10 0 11 0;
#X connect 10 0 12 1;
#X connect 12 0 58 0;
#X connect 13 0 15 0;
#X connect 13 0 43 1;
#X connect 13 0 50 0;
#X connect 14 0 16 0;
#X connect 14 0 51 0;
#X connect 17 0 18 1;
#X connect 18 0 14 0;
#X connect 19 0 20 0;
#X connect 19 0 21 0;
#X connect 21 0 18 0;
#X connect 21 0 13 0;
#X connect 22 0 24 0;
#X connect 22 0 25 0;
#X connect 22 0 26 0;
#X connect 22 0 27 0;
#X connect 22 0 30 0;
#X connect 22 0 58 2;
#X connect 22 0 74 0;
#X connect 22 0 75 0;
#X connect 23 0 22 0;
#X connect 23 0 29 0;
#X connect 23 0 47 0;
#X connect 23 0 59 0;
#X connect 23 0 86 0;
#X connect 24 0 5 0;
#X connect 25 0 13 0;
#X connect 26 0 14 0;
#X connect 27 0 10 0;
#X connect 28 0 2 0;
#X connect 28 1 2 1;
#X connect 29 0 28 8;
#X connect 30 0 55 0;
#X connect 31 0 4 0;
#X connect 32 0 34 0;
#X connect 33 0 39 0;
#X connect 34 0 33 0;
#X connect 35 0 28 2;
#X connect 35 0 28 3;
#X connect 36 0 37 0;
#X connect 36 0 34 1;
#X connect 38 0 41 0;
#X connect 39 0 46 0;
#X connect 40 0 38 0;
#X connect 40 0 42 0;
#X connect 41 0 39 1;
#X connect 43 0 40 0;
#X connect 43 0 83 0;
#X connect 44 0 43 0;
#X connect 45 0 31 0;
#X connect 46 0 57 0;
#X connect 46 0 57 1;
#X connect 47 0 48 0;
#X connect 47 0 46 3;
#X connect 47 0 49 0;
#X connect 47 0 52 0;
#X connect 47 0 54 0;
#X connect 47 0 57 2;
#X connect 47 0 84 0;
#X connect 48 0 36 0;
#X connect 49 0 38 2;
#X connect 50 0 9 1;
#X connect 51 0 9 1;
#X connect 52 0 53 0;
#X connect 53 0 40 0;
#X connect 54 0 44 0;
#X connect 55 1 45 0;
#X connect 57 0 35 0;
#X connect 58 0 1 0;
#X connect 59 0 61 0;
#X connect 59 0 63 0;
#X connect 59 0 64 0;
#X connect 59 0 65 0;
#X connect 59 0 66 0;
#X connect 59 0 73 0;
#X connect 60 0 28 4;
#X connect 60 0 28 5;
#X connect 62 0 67 0;
#X connect 63 0 62 0;
#X connect 64 0 79 0;
#X connect 65 0 80 0;
#X connect 66 0 81 0;
#X connect 67 0 71 0;
#X connect 68 0 71 0;
#X connect 69 0 71 0;
#X connect 70 0 71 0;
#X connect 71 0 60 0;
#X connect 72 0 71 0;
#X connect 73 0 82 0;
#X connect 74 0 45 1;
#X connect 74 0 56 0;
#X connect 75 0 76 0;
#X connect 75 0 4 0;
#X connect 77 0 78 0;
#X connect 78 0 3 1;
#X connect 78 0 88 0;
#X connect 79 0 68 0;
#X connect 80 0 69 0;
#X connect 81 0 70 0;
#X connect 82 0 72 0;
#X connect 84 0 85 0;
#X connect 85 0 38 1;
#X connect 86 0 87 0;
#X connect 89 0 85 0;
