#N canvas 265 181 894 603 10;
#X obj 65 157 ../cmp/envelope;
#X obj 30 54 noise~;
#X obj 208 132 OSCroute /env;
#X obj 64 126 vcf~;
#X obj 79 79 hsl 128 15 10 20000 1 0 empty empty empty -2 -8 0 10 -262144
-1 -1 4972 1;
#X obj 92 100 hsl 128 15 0 127 0 0 empty empty empty -2 -8 0 10 -262144
-1 -1 6000 1;
#X floatatom 169 78 5 0 0 0 - - -;
#X floatatom 177 100 5 0 0 0 - - -;
#X obj 112 134 bng 15 250 50 0 empty empty empty 17 7 0 10 -262144
-1 -1;
#X obj 58 346 *~ 1;
#X obj 138 -68 inlet;
#X obj 59 395 outlet~;
#X obj 225 42 OSCroute /f;
#X obj 226 101 OSCroute /r;
#X obj 113 -44 OSCroute /note;
#X obj 397 -54 loadbang;
#X msg 319 66 60;
#X obj 95 14 mtof;
#X obj 91 38 t b f;
#X obj 109 -22 unpack f f;
#X obj 34 -13 spigot;
#X obj 399 69 10 5 5 10 10;
#X connect 0 0 9 0;
#X connect 1 0 3 0;
#X connect 2 0 0 3;
#X connect 3 0 0 0;
#X connect 4 0 3 1;
#X connect 4 0 6 0;
#X connect 5 0 3 2;
#X connect 5 0 7 0;
#X connect 8 0 0 1;
#X connect 9 0 11 0;
#X connect 10 0 2 0;
#X connect 10 0 12 0;
#X connect 10 0 13 0;
#X connect 10 0 14 0;
#X connect 12 0 4 0;
#X connect 13 0 5 0;
#X connect 14 0 19 0;
#X connect 15 0 16 0;
#X connect 15 0 21 0;
#X connect 16 0 5 0;
#X connect 17 0 18 0;
#X connect 18 0 8 0;
#X connect 18 1 4 0;
#X connect 19 0 17 0;
#X connect 21 0 0 2;
