#N canvas 386 121 379 573 10;
#X obj 1 0 cnv 15 500 600 empty empty sparklel 20 12 0 14 -233017 -66577
0;
#X obj 48 141 cnv 15 300 300 empty empty interface 20 12 1 14 -262144
-66577 0;
#X obj 65 345 hsl 268 15 0 127 0 0 \$0-mainpitch \$0-mainpitch pitch
-2 -6 0 8 -68534 -1 -1 0 1;
#X obj 65 284 hsl 128 15 0 6 0 0 \$0-phasorbank-volume \$0-phasorbank-volume
phasorbank-vol -2 -6 0 8 -184310 -1 -1 0 1;
#X obj 207 229 hsl 128 15 0 127 0 0 \$0-voice-extent \$0-voice-extent
voice-extent -2 -6 0 8 -261681 -1 -1 0 1;
#X obj 206 256 hsl 128 15 0 1 0 0 \$0-voice-vibrato \$0-voice-vibrato
voice-vibrato -2 -6 0 8 -225280 -1 -1 0 1;
#X obj 205 284 hsl 128 15 0 1 0 0 \$0-voice-volume \$0-voice-volume
voice-vol -2 -6 0 8 -225271 -1 -1 0 1;
#X obj 66 256 hsl 127 15 0 0.25 0 0 \$0-phasors-shift \$0-phasors-shift
phasors-shift -2 -6 0 8 -191808 -262144 -1 0 1;
#X obj 208 201 hsl 128 15 0 1 0 0 \$0-sparkleyness \$0-sparkleyness
sparkleyness -2 -6 0 8 -228992 -1 -1 0 1;
#X obj 65 314 hsl 128 15 -127 127 0 0 \$0-harm1 \$0-harm1 harm1 -2
-6 0 8 -241330 -1 -1 0 1;
#X obj 205 314 hsl 128 15 -127 127 0 0 \$0-harm2 \$0-harm2 harm2 -2
-6 0 8 -262131 -1 -1 0 1;
#X obj 65 375 hsl 128 15 0 127 0 0 \$0-verbd \$0-verbd verb-dly -2
-6 0 8 -260773 -1 -1 0 1;
#X obj 205 375 hsl 128 15 0 100 0 0 \$0-verbf \$0-verbf verb-fb -2
-6 0 8 -261681 -1 -1 0 1;
#X obj 65 408 hsl 128 15 0 10 0 0 \$0-chorusa \$0-chorusa chorus-amt
-2 -6 0 8 -241127 -1 -1 0 1;
#X obj 205 408 hsl 128 15 1e-04 18 0 0 \$0-chorusf \$0-chorusf chorus-speed
-2 -6 0 8 -208033 -1 -1 0 1;
#X obj 48 39 cnv 15 300 80 empty empty score 20 12 1 14 -262144 -66577
0;
#X obj 48 466 cnv 15 300 80 empty empty synth 20 12 1 14 -262144 -66577
0;
#X obj 48 70 bng 15 250 50 0 empty empty empty 0 -6 0 8 -262144 -1
-1;
#N canvas 0 0 1218 862 padscore-"legend" 0;
#X obj 10 139 cnv 15 1200 150 empty empty time_control 20 12 1 14 -261681
-66577 0;
#X obj 13 734 cnv 15 1200 60 empty empty params 20 12 0 14 -233017
-66577 0;
#X obj 14 664 cnv 15 1200 60 empty empty conditioners 20 12 0 14 -125919
-66577 0;
#X obj 10 293 cnv 15 1200 330 empty empty composition 20 12 0 14 -224954
-66577 0;
#X msg 200 463 49 -3;
#X msg 246 466 50 -3;
#X msg 292 469 52 -3;
#X msg 338 470 54 -7;
#X msg 382 471 59 -5 -19;
#X msg 460 471 59 -5 -7 2 1.998;
#X msg 687 430 59 4 -19 3 1 1 1;
#X msg 674 450 59 2 -19 3 1 1 0.9;
#X msg 653 470 59 -3 -19 3 1 1 0.8;
#X msg 613 491 59 -5 -19 3 1 1 0.5;
#X msg 529 446 59 -5 -19 12 8 1 0.2;
#X msg 763 511 59 -7 -22 3 1 1 0.5 0.2;
#X msg 825 475 59 -3 -19 4 1 1 1 0.3;
#X msg 845 455 59 2 -19 6 1 1 0.7 0.4;
#X msg 859 435 59 4 -19 2 1 1 1 0.5;
#X msg 879 399 59 4 -5 2 1 1 1 0.55;
#X obj 80 362 sel 0 8 16 32 40 44 46 64 72 76 128 192;
#X obj 361 361 sel 0 8 12 16 32 34 36 38 64 70 74 96 100 104 102 128
;
#X obj 738 360 sel 0 2 4 6 8 10 16 18 20 32 34 36 48 50 52 64;
#X msg 507 322 0 0 0 0 0 0 0 0 0 0;
#X msg 154 469 45 4;
#X msg 42 449 47 -7 0 2 2 0.5 1;
#X obj 589 99 inlet;
#X obj 611 174 bng 15 250 50 0 empty empty empty 0 -6 0 8 -262144 -1
-1;
#X obj 217 769 s \$0-harm2;
#X obj 137 769 s \$0-harm1;
#X obj 28 769 s \$0-mainpitch;
#X obj 295 769 s \$0-phaseratio1;
#X obj 413 769 s \$0-phaseratio2;
#X obj 530 769 s \$0-voice-volume;
#X obj 656 769 s \$0-phasorbank-volume;
#X obj 508 604 unpack f f f f f f f f;
#X obj 819 769 s \$0-sparkleyness;
#X text 649 324 resetall;
#N canvas 0 0 682 438 barsection 0;
#X obj 339 125 f 0;
#X obj 338 100 metro 100;
#X obj 375 126 + 1;
#X msg 309 53 0;
#X obj 339 148 moses 128;
#X obj 397 178 - 128;
#X obj 309 29 t b;
#X obj 338 53 del 3;
#X msg 338 78 1;
#X obj 474 221 - 192;
#X obj 416 201 moses 192;
#X obj 474 249 sel 128;
#X obj 257 391 outlet;
#X obj 347 391 outlet;
#X obj 430 390 outlet;
#X obj 520 390 outlet done;
#X obj 309 4 inlet;
#X obj 159 389 outlet time;
#X msg 370 77 0;
#X obj 372 5 inlet stop;
#X connect 0 0 2 0;
#X connect 0 0 4 0;
#X connect 0 0 17 0;
#X connect 1 0 0 0;
#X connect 2 0 0 1;
#X connect 3 0 0 0;
#X connect 4 0 12 0;
#X connect 4 1 5 0;
#X connect 5 0 10 0;
#X connect 6 0 3 0;
#X connect 6 0 7 0;
#X connect 7 0 8 0;
#X connect 8 0 1 0;
#X connect 9 0 11 0;
#X connect 9 0 14 0;
#X connect 10 0 13 0;
#X connect 10 1 9 0;
#X connect 11 0 15 0;
#X connect 11 0 18 0;
#X connect 16 0 6 0;
#X connect 18 0 1 0;
#X connect 19 0 18 0;
#X restore 565 204 pd barsection;
#X obj 951 768 s \$0-chorusa;
#X obj 1043 768 s \$0-chorusf;
#X obj 951 700 clip 0 10;
#X obj 1081 360 / 128;
#X obj 1043 700 clip 0 18;
#X obj 1111 426 -;
#X msg 1085 405 3.5;
#X obj 1097 384 t b f;
#X obj 1043 677 + 0.5;
#X text 1027 321 continuous f(t) controls;
#X text 276 325 discontinuous f(t) controls;
#X text 536 571 chords ajf2006;
#X obj 1133 768 s \$0-verbf;
#X obj 1133 746 s \$0-verbd;
#X obj 1149 357 / 512;
#X obj 1129 701 clip 0 100;
#X obj 1151 445 * 100;
#X obj 342 743 s \$0-voice-extent;
#X obj 195 742 s \$0-voice-vibrato;
#X obj 311 547 line;
#X obj 311 568 * 100;
#X msg 298 501 0.5;
#X msg 327 501 0.65;
#X msg 311 526 \$1 3000;
#X obj 479 743 s \$0-phasors-shift;
#X obj 620 147 del 5;
#X obj 590 123 t b b;
#X obj 528 157 s \$0-1init;
#X obj 483 678 r \$0-1init;
#X msg 481 701 0.001;
#X obj 507 300 r \$0-1init;
#X obj 814 704 line;
#X obj 849 661 del 5000;
#X obj 815 739 s \$0-mainvol;
#X msg 768 684 1 50;
#X obj 768 661 r \$0-1init;
#X obj 849 797 s \$0-loadnext;
#X msg 814 683 0.5 500;
#X msg 655 563 0 0 0 0 0 0 0 0 0 0 0 0 0 0 0 0;
#X obj 655 540 r \$0-1init;
#X obj 508 567 list;
#X connect 4 0 79 0;
#X connect 5 0 79 0;
#X connect 6 0 79 0;
#X connect 7 0 79 0;
#X connect 8 0 79 0;
#X connect 9 0 79 0;
#X connect 10 0 79 0;
#X connect 11 0 79 0;
#X connect 12 0 79 0;
#X connect 13 0 79 0;
#X connect 14 0 79 0;
#X connect 15 0 79 0;
#X connect 16 0 79 0;
#X connect 17 0 79 0;
#X connect 18 0 79 0;
#X connect 19 0 79 0;
#X connect 20 0 25 0;
#X connect 20 0 60 0;
#X connect 20 1 4 0;
#X connect 20 2 5 0;
#X connect 20 3 24 0;
#X connect 20 4 25 0;
#X connect 20 5 4 0;
#X connect 20 6 5 0;
#X connect 20 7 6 0;
#X connect 20 8 7 0;
#X connect 20 9 8 0;
#X connect 20 10 9 0;
#X connect 20 11 14 0;
#X connect 21 0 13 0;
#X connect 21 1 12 0;
#X connect 21 2 11 0;
#X connect 21 3 10 0;
#X connect 21 4 13 0;
#X connect 21 5 12 0;
#X connect 21 6 11 0;
#X connect 21 7 10 0;
#X connect 21 8 18 0;
#X connect 21 9 17 0;
#X connect 21 10 16 0;
#X connect 21 11 17 0;
#X connect 21 12 18 0;
#X connect 21 12 61 0;
#X connect 21 13 17 0;
#X connect 21 14 18 0;
#X connect 21 15 15 0;
#X connect 22 0 16 0;
#X connect 22 1 17 0;
#X connect 22 2 18 0;
#X connect 22 3 16 0;
#X connect 22 4 17 0;
#X connect 22 5 18 0;
#X connect 22 6 12 0;
#X connect 22 6 60 0;
#X connect 22 7 11 0;
#X connect 22 8 10 0;
#X connect 22 9 12 0;
#X connect 22 10 11 0;
#X connect 22 11 10 0;
#X connect 22 12 16 0;
#X connect 22 13 17 0;
#X connect 22 14 18 0;
#X connect 22 15 19 0;
#X connect 23 0 79 0;
#X connect 24 0 79 0;
#X connect 25 0 79 0;
#X connect 26 0 65 0;
#X connect 27 0 38 0;
#X connect 35 0 30 0;
#X connect 35 1 29 0;
#X connect 35 2 28 0;
#X connect 35 3 31 0;
#X connect 35 4 32 0;
#X connect 35 5 33 0;
#X connect 35 6 34 0;
#X connect 35 7 36 0;
#X connect 38 0 42 0;
#X connect 38 0 53 0;
#X connect 38 1 20 0;
#X connect 38 2 21 0;
#X connect 38 3 22 0;
#X connect 38 4 71 0;
#X connect 41 0 39 0;
#X connect 42 0 41 0;
#X connect 42 0 46 0;
#X connect 43 0 40 0;
#X connect 44 0 47 0;
#X connect 45 0 44 0;
#X connect 46 0 45 0;
#X connect 46 1 44 1;
#X connect 47 0 43 0;
#X connect 53 0 55 0;
#X connect 54 0 52 0;
#X connect 54 0 51 0;
#X connect 55 0 54 0;
#X connect 58 0 57 0;
#X connect 58 0 59 0;
#X connect 59 0 56 0;
#X connect 60 0 62 0;
#X connect 61 0 62 0;
#X connect 62 0 58 0;
#X connect 64 0 38 0;
#X connect 65 0 66 0;
#X connect 65 1 64 0;
#X connect 67 0 68 0;
#X connect 68 0 63 0;
#X connect 69 0 23 0;
#X connect 70 0 72 0;
#X connect 71 0 76 0;
#X connect 71 0 75 0;
#X connect 73 0 70 0;
#X connect 74 0 73 0;
#X connect 76 0 70 0;
#X connect 77 0 35 0;
#X connect 78 0 77 0;
#X connect 79 0 35 0;
#X restore 48 92 pd padscore-"legend";
#N canvas 183 67 765 756 prettyvoices 0;
#X obj 1 0 cnv 15 760 760 empty empty synth 20 24 1 32 -237228 -66577
0;
#X obj 129 358 *~ 0.2;
#X msg 192 448 100;
#X obj 192 425 loadbang;
#X obj 254 360 *~ 0.2;
#X msg 480 561 /feedback \$1;
#X obj 322 742 dac~;
#X obj 254 633 hip~ 20;
#X obj 366 632 hip~ 20;
#X msg 481 631 /delay \$1;
#N canvas 0 0 450 300 cmreverb 0;
#X obj 25 22 inlet~;
#X obj 85 22 inlet~;
#X obj 397 5 inlet;
#X obj 239 88 delread~ \$0-A 100;
#X obj 269 108 delread~ \$0-B 161.8;
#X obj 299 128 delread~ \$0-C 261.8;
#X obj 329 148 delread~ \$0-D 61.8;
#X obj 185 142 +~;
#X obj 227 142 +~;
#X obj 22 213 outlet~;
#X obj 92 213 outlet~;
#X obj 170 192 +~;
#X obj 274 193 +~;
#X obj 212 192 -~;
#X obj 314 192 -~;
#X obj 169 248 +~;
#X obj 213 249 +~;
#X obj 257 250 -~;
#X obj 296 250 -~;
#X obj 256 332 *~ 0;
#X obj 214 331 *~ 0;
#X obj 169 330 *~ 0;
#X obj 297 333 *~ 0;
#X obj 296 353 delwrite~ \$0-D 1000;
#X obj 257 376 delwrite~ \$0-C 1000;
#X obj 215 399 delwrite~ \$0-B 1000;
#X obj 170 421 delwrite~ \$0-A 1000;
#X obj 396 190 min 100;
#X obj 396 214 max 0;
#X obj 396 238 / 200;
#X obj 239 67 * 1;
#X obj 269 67 * 1.618;
#X obj 329 67 * 2.618;
#X obj 389 67 / 1.618;
#X obj 397 31 route /feedback /delay;
#X connect 0 0 7 0;
#X connect 1 0 8 0;
#X connect 2 0 34 0;
#X connect 3 0 7 1;
#X connect 4 0 8 1;
#X connect 5 0 14 0;
#X connect 5 0 12 0;
#X connect 6 0 14 1;
#X connect 6 0 12 1;
#X connect 7 0 9 0;
#X connect 7 0 11 0;
#X connect 7 0 13 0;
#X connect 8 0 10 0;
#X connect 8 0 11 1;
#X connect 8 0 13 1;
#X connect 11 0 15 0;
#X connect 11 0 17 0;
#X connect 12 0 17 1;
#X connect 12 0 15 1;
#X connect 13 0 16 0;
#X connect 13 0 18 0;
#X connect 14 0 16 1;
#X connect 14 0 18 1;
#X connect 15 0 21 0;
#X connect 16 0 20 0;
#X connect 17 0 19 0;
#X connect 18 0 22 0;
#X connect 19 0 24 0;
#X connect 20 0 25 0;
#X connect 21 0 26 0;
#X connect 22 0 23 0;
#X connect 27 0 28 0;
#X connect 28 0 29 0;
#X connect 29 0 22 1;
#X connect 29 0 19 1;
#X connect 29 0 20 1;
#X connect 29 0 21 1;
#X connect 30 0 3 0;
#X connect 31 0 4 0;
#X connect 32 0 5 0;
#X connect 33 0 6 0;
#X connect 34 0 27 0;
#X connect 34 1 33 0;
#X connect 34 1 32 0;
#X connect 34 1 31 0;
#X connect 34 1 30 0;
#X restore 296 669 pd cmreverb;
#X obj 306 360 *~ 0.2;
#X floatatom 368 453 0 0 0 0 - - -;
#X msg 368 431 100;
#X obj 368 408 loadbang;
#N canvas 0 0 570 559 densechord 0;
#X obj 167 166 line;
#N canvas 0 0 719 476 phasorbank 0;
#X obj 217 274 *~ 0.0125;
#X obj 126 220 phasor~;
#X obj 185 220 phasor~;
#X obj 242 219 phasor~;
#X obj 301 219 phasor~;
#X obj 358 219 phasor~;
#X obj 417 219 phasor~;
#X obj 474 218 phasor~;
#X obj 533 218 phasor~;
#X obj 179 183 *;
#X obj 211 183 *;
#X obj 244 183 *;
#X obj 276 183 *;
#X obj 309 183 *;
#X obj 341 182 *;
#X obj 374 183 *;
#X obj 406 183 *;
#X obj 141 176 * 1;
#X obj 430 141 * 1;
#X obj 165 282 * 2;
#X obj 218 301 lop~ 1000;
#X obj 218 325 hip~ 20;
#X obj 215 368 outlet~;
#X obj 185 50 inlet;
#X obj 185 78 unpack f f;
#X connect 0 0 20 0;
#X connect 1 0 0 0;
#X connect 2 0 0 0;
#X connect 3 0 0 0;
#X connect 4 0 0 0;
#X connect 5 0 0 0;
#X connect 6 0 0 0;
#X connect 7 0 0 0;
#X connect 8 0 0 0;
#X connect 9 0 1 0;
#X connect 9 0 10 0;
#X connect 10 0 2 0;
#X connect 10 0 11 0;
#X connect 11 0 3 0;
#X connect 11 0 12 0;
#X connect 12 0 4 0;
#X connect 12 0 13 0;
#X connect 13 0 5 0;
#X connect 13 0 14 0;
#X connect 14 0 6 0;
#X connect 14 0 15 0;
#X connect 15 0 7 0;
#X connect 15 0 16 0;
#X connect 16 0 8 0;
#X connect 17 0 9 0;
#X connect 18 0 9 1;
#X connect 18 0 10 1;
#X connect 18 0 11 1;
#X connect 18 0 12 1;
#X connect 18 0 13 1;
#X connect 18 0 14 1;
#X connect 18 0 15 1;
#X connect 18 0 16 1;
#X connect 19 0 20 1;
#X connect 20 0 21 0;
#X connect 21 0 22 0;
#X connect 23 0 24 0;
#X connect 24 0 17 0;
#X connect 24 0 19 0;
#X connect 24 1 18 0;
#X restore 146 242 pd phasorbank;
#X obj 147 219 pack 1 2;
#X obj 167 193 t;
#X obj 146 274 outlet~;
#X obj 117 115 inlet;
#X obj 168 114 inlet;
#X msg 168 145 \$1 2;
#X connect 0 0 2 1;
#X connect 0 0 3 0;
#X connect 1 0 4 0;
#X connect 2 0 1 0;
#X connect 3 0 2 0;
#X connect 5 0 2 0;
#X connect 6 0 7 0;
#X connect 7 0 0 0;
#X restore 173 259 pd densechord;
#X obj 254 326 *~ 1;
#X obj 50 161 mtof;
#X obj 309 252 *~ 0.3;
#X obj 174 282 *~ 1;
#X obj 29 189 s freq;
#X obj 53 137 * 1;
#X obj 26 464 *~ 0.02;
#N canvas 232 482 740 441 pafvox 0;
#N canvas 0 0 875 612 pafvoice 0;
#X msg 41 258 freq \$1 100;
#X msg 131 258 amp \$1 100;
#X obj 216 234 mtof;
#X msg 216 259 cf \$1 100;
#X msg 290 259 bw \$1 100;
#X obj 290 234 mtof;
#X msg 369 259 vib \$1 100;
#X msg 449 259 vfr \$1 100;
#X obj 449 234 / 8;
#X obj 369 234 / 660;
#X msg 534 259 shift \$1 100;
#X obj 131 233 dbtorms;
#X obj 289 287 paf~;
#X msg 631 260 phase 0 0 0;
#X obj 289 319 outlet~;
#X obj 67 83 inlet;
#X obj 123 81 inlet;
#X obj 182 81 inlet;
#X obj 238 79 inlet;
#X obj 301 79 inlet;
#X obj 357 77 inlet;
#X obj 405 76 inlet;
#X connect 0 0 12 0;
#X connect 1 0 12 0;
#X connect 2 0 3 0;
#X connect 3 0 12 0;
#X connect 4 0 12 0;
#X connect 5 0 4 0;
#X connect 6 0 12 0;
#X connect 7 0 12 0;
#X connect 8 0 7 0;
#X connect 9 0 6 0;
#X connect 10 0 12 0;
#X connect 11 0 1 0;
#X connect 12 0 14 0;
#X connect 13 0 12 0;
#X connect 15 0 0 0;
#X connect 16 0 11 0;
#X connect 17 0 2 0;
#X connect 18 0 5 0;
#X connect 19 0 9 0;
#X connect 20 0 8 0;
#X connect 21 0 10 0;
#X restore 149 185 pd pafvoice;
#X obj 99 54 inlet amp;
#X obj 178 55 inlet fc;
#X obj 249 55 inlet bw;
#X obj 322 57 inlet vib;
#X obj 21 55 inlet freq;
#X obj 286 117 * 12;
#X obj 310 86 clip 0 1;
#X obj 150 226 outlet~;
#X obj 329 117 * 48;
#X connect 0 0 8 0;
#X connect 1 0 0 1;
#X connect 2 0 0 2;
#X connect 3 0 0 3;
#X connect 4 0 7 0;
#X connect 5 0 0 0;
#X connect 6 0 0 4;
#X connect 7 0 6 0;
#X connect 7 0 9 0;
#X connect 9 0 0 5;
#X restore 309 232 pd pafvox;
#X obj 259 182 /;
#X obj 259 234 +;
#X obj 259 205 t b f;
#X obj 259 157 t b f;
#X obj 310 176 r \$0-voice-extent;
#X obj 306 130 r \$0-voice-volume;
#X obj 305 108 r \$0-voice-vibrato;
#X obj 97 158 r \$0-phasorbank-volume;
#X obj 168 134 r \$0-phasors-shift;
#X obj 309 202 r cfreq;
#X obj 161 401 r \$0-harm1;
#X obj 337 383 r \$0-harm2;
#X obj 53 115 r \$0-mainpitch;
#N canvas 0 0 410 569 sparkley 0;
#X obj 45 389 f;
#X obj 84 390 f;
#X obj 126 391 f;
#X obj 57 290 sel 0 1 2;
#X obj 57 221 metro 200;
#X obj 86 243 + 1;
#X obj 57 242 f 0;
#X obj 93 460 osc~;
#X obj 57 267 mod 3;
#X obj 100 362 +;
#X obj 177 362 +;
#X obj 93 417 mtof;
#X obj 46 314 r freq;
#X obj 177 337 t b f;
#X obj 100 337 t b f;
#X obj 92 485 *~;
#X obj 276 382 line~;
#X obj 253 315 sel 0 1;
#X obj 92 515 *~ 1;
#X obj 205 46 r \$0-sparkleyness;
#X obj 205 70 clip 0.001 0.99999;
#X obj 206 93 pow -1;
#X obj 114 124 * 50;
#X obj 276 360 pack f f;
#X msg 254 337 1;
#X msg 292 337 0;
#X obj 327 172 * 10;
#X obj 269 125 * 4;
#X obj 269 147 log;
#X obj 253 295 %;
#X obj 269 169 - 0.4;
#X obj 57 179 loadbang;
#X msg 57 200 1;
#X obj 203 147 clip 0 1;
#X obj 114 147 clip 10 3000;
#X obj 93 437 * 4;
#X obj 203 126 + 0;
#X obj 176 316 r \$0-harm2;
#X obj 100 316 r \$0-harm1;
#X obj 93 537 outlet~;
#X connect 0 0 11 0;
#X connect 1 0 11 0;
#X connect 2 0 11 0;
#X connect 3 0 0 0;
#X connect 3 1 1 0;
#X connect 3 2 2 0;
#X connect 4 0 6 0;
#X connect 5 0 6 1;
#X connect 6 0 5 0;
#X connect 6 0 8 0;
#X connect 6 0 29 0;
#X connect 7 0 15 0;
#X connect 8 0 3 0;
#X connect 9 0 1 1;
#X connect 10 0 2 1;
#X connect 11 0 35 0;
#X connect 12 0 0 1;
#X connect 12 0 9 0;
#X connect 12 0 10 0;
#X connect 13 0 10 0;
#X connect 13 1 10 1;
#X connect 14 0 9 0;
#X connect 14 1 9 1;
#X connect 15 0 18 0;
#X connect 16 0 15 1;
#X connect 17 0 24 0;
#X connect 17 1 25 0;
#X connect 18 0 39 0;
#X connect 19 0 20 0;
#X connect 19 0 36 0;
#X connect 20 0 21 0;
#X connect 21 0 22 0;
#X connect 21 0 26 0;
#X connect 21 0 27 0;
#X connect 22 0 34 0;
#X connect 23 0 16 0;
#X connect 24 0 23 0;
#X connect 25 0 23 0;
#X connect 26 0 23 1;
#X connect 27 0 28 0;
#X connect 28 0 30 0;
#X connect 29 0 17 0;
#X connect 30 0 29 1;
#X connect 31 0 32 0;
#X connect 32 0 4 0;
#X connect 33 0 18 1;
#X connect 34 0 4 1;
#X connect 35 0 7 0;
#X connect 36 0 33 0;
#X connect 37 0 13 0;
#X connect 38 0 14 0;
#X restore 25 442 pd sparkley;
#X obj 284 555 r \$0-chorusf;
#X obj 313 530 r \$0-chorusa;
#X obj 480 516 r \$0-verbf;
#X obj 481 590 r \$0-verbd;
#X obj 173 303 hip~ 10;
#X obj 308 272 hip~ 120;
#X obj 308 294 hip~ 120;
#X obj 482 655 r \$0-mainvol;
#X obj 359 706 *~ 1;
#X obj 296 707 *~ 1;
#X text 136 52 scaterbank + fof vox + sine scanner - three part pad
synth with interger raio and fine shift tuning;
#X obj 95 209 s cfreq;
#X obj 173 229 r cfreq;
#X obj 166 89 r \$0-phaseratio2;
#X obj 166 112 r \$0-phaseratio1;
#X obj 481 611 clip 2 127;
#X obj 480 538 clip 2 127;
#X obj 97 184 * 6;
#X obj 306 152 * 100;
#N canvas 0 0 698 381 chorus 0;
#X obj 255 224 cos~;
#X obj 255 247 +~ 1;
#X obj 342 168 +~ 0.25;
#X obj 342 223 cos~;
#X obj 342 246 +~ 1;
#X obj 255 350 outlet~;
#X obj 342 351 outlet~;
#X obj 441 167 +~ 0.25;
#X obj 441 222 cos~;
#X obj 441 245 +~ 1;
#X obj 536 165 +~ 0.25;
#X obj 536 220 cos~;
#X obj 536 243 +~ 1;
#X obj 256 40 inlet;
#X obj 51 35 inlet~;
#X obj 630 97 line~;
#X obj 630 76 pack 0 50;
#X obj 536 304 *~;
#X obj 441 306 *~;
#X obj 342 307 *~;
#X obj 255 308 *~;
#X obj 256 90 line~;
#X obj 256 69 pack 0 50;
#X obj 255 115 phasor~;
#X obj 441 349 outlet~;
#X obj 536 346 outlet~;
#X obj 630 33 inlet;
#X obj 50 95 delwrite~ \$0-chr 1000;
#X obj 255 329 vd~ \$0-chr;
#X obj 342 328 vd~ \$0-chr;
#X obj 441 327 vd~ \$0-chr;
#X obj 536 325 vd~ \$0-chr;
#X text 263 17 F;
#X text 643 11 M;
#X connect 0 0 1 0;
#X connect 1 0 20 0;
#X connect 2 0 3 0;
#X connect 2 0 7 0;
#X connect 3 0 4 0;
#X connect 4 0 19 0;
#X connect 7 0 8 0;
#X connect 7 0 10 0;
#X connect 8 0 9 0;
#X connect 9 0 18 0;
#X connect 10 0 11 0;
#X connect 11 0 12 0;
#X connect 12 0 17 0;
#X connect 13 0 22 0;
#X connect 14 0 27 0;
#X connect 15 0 17 1;
#X connect 15 0 18 1;
#X connect 15 0 19 1;
#X connect 15 0 20 1;
#X connect 16 0 15 0;
#X connect 17 0 31 0;
#X connect 18 0 30 0;
#X connect 19 0 29 0;
#X connect 20 0 28 0;
#X connect 21 0 23 0;
#X connect 22 0 21 0;
#X connect 23 0 0 0;
#X connect 23 0 2 0;
#X connect 26 0 16 0;
#X connect 28 0 5 0;
#X connect 29 0 6 0;
#X connect 30 0 24 0;
#X connect 31 0 25 0;
#X restore 255 585 pd chorus;
#N canvas 0 0 592 521 harmoniser1 0;
#X obj 50 462 hip~ 5;
#X obj 109 340 *~;
#X obj 198 277 line~;
#X obj 198 253 pack 0 200;
#X obj 264 142 moses 1;
#X msg 239 142 1;
#X obj 50 144 exp;
#X obj 50 249 /;
#X obj 166 186 * 0.001;
#X obj 309 346 line~;
#X obj 310 320 pack 0 200;
#X text 352 244 delay (msec);
#X obj 109 364 +~;
#X msg 310 296 1;
#X obj 310 272 moses 1.5;
#X obj 50 387 cos~;
#X obj 50 411 *~;
#X obj 50 438 +~;
#X obj 129 302 wrap~;
#X obj 252 340 *~;
#X obj 252 370 +~;
#X obj 195 395 cos~;
#X obj 195 419 *~;
#X obj 166 210 t b f;
#X obj 50 298 phasor~ 0;
#X obj 129 278 +~ 0.5;
#X obj 50 339 -~ 0.5;
#X obj 50 363 *~ 0.5;
#X obj 195 339 -~ 0.5;
#X obj 195 369 *~ 0.5;
#X floatatom 239 166 0 0 0 0 - - -;
#X obj 50 192 - 1;
#X obj 50 120 * 0.05776;
#X obj 50 216 * -1;
#X text 91 78 <-- transposition;
#X text 96 96 (halftones);
#X text 116 163 speed;
#X text 115 176 change;
#X text 298 116 <--window (msec);
#X text 82 243 tape head;
#X text 83 255 rotation speed;
#X obj 4 14 inlet~;
#X obj 50 483 outlet~;
#X obj 50 79 inlet;
#X obj 264 117 inlet;
#X obj 310 245 inlet;
#X text 55 10 HARMONISER;
#X obj 4 34 delwrite~ \$0-hrm 2000;
#X obj 252 397 vd~ \$0-hrm;
#X obj 109 387 vd~ \$0-hrm;
#X connect 0 0 42 0;
#X connect 1 0 12 0;
#X connect 2 0 1 1;
#X connect 2 0 19 1;
#X connect 3 0 2 0;
#X connect 4 0 5 0;
#X connect 4 1 30 0;
#X connect 5 0 30 0;
#X connect 6 0 31 0;
#X connect 7 0 24 0;
#X connect 8 0 23 0;
#X connect 9 0 12 1;
#X connect 9 0 20 1;
#X connect 10 0 9 0;
#X connect 12 0 49 0;
#X connect 13 0 10 0;
#X connect 14 0 13 0;
#X connect 14 1 10 0;
#X connect 15 0 16 0;
#X connect 16 0 17 0;
#X connect 17 0 0 0;
#X connect 18 0 19 0;
#X connect 18 0 28 0;
#X connect 19 0 20 0;
#X connect 20 0 48 0;
#X connect 21 0 22 0;
#X connect 22 0 17 1;
#X connect 23 0 7 0;
#X connect 23 1 7 1;
#X connect 24 0 1 0;
#X connect 24 0 26 0;
#X connect 24 0 25 0;
#X connect 25 0 18 0;
#X connect 26 0 27 0;
#X connect 27 0 15 0;
#X connect 28 0 29 0;
#X connect 29 0 21 0;
#X connect 30 0 3 0;
#X connect 30 0 8 0;
#X connect 31 0 33 0;
#X connect 32 0 6 0;
#X connect 33 0 7 0;
#X connect 41 0 47 0;
#X connect 43 0 32 0;
#X connect 44 0 4 0;
#X connect 45 0 14 0;
#X connect 48 0 22 1;
#X connect 49 0 16 1;
#X restore 130 476 pd harmoniser1;
#N canvas 0 0 592 521 harmoniser2 0;
#X obj 50 462 hip~ 5;
#X obj 109 340 *~;
#X obj 198 277 line~;
#X obj 198 253 pack 0 200;
#X obj 264 142 moses 1;
#X msg 239 142 1;
#X obj 50 144 exp;
#X obj 50 249 /;
#X obj 166 186 * 0.001;
#X obj 309 346 line~;
#X obj 310 320 pack 0 200;
#X text 352 244 delay (msec);
#X obj 109 364 +~;
#X msg 310 296 1;
#X obj 310 272 moses 1.5;
#X obj 50 387 cos~;
#X obj 50 411 *~;
#X obj 50 438 +~;
#X obj 129 302 wrap~;
#X obj 252 340 *~;
#X obj 252 370 +~;
#X obj 195 395 cos~;
#X obj 195 419 *~;
#X obj 166 210 t b f;
#X obj 50 298 phasor~ 0;
#X obj 129 278 +~ 0.5;
#X obj 50 339 -~ 0.5;
#X obj 50 363 *~ 0.5;
#X obj 195 339 -~ 0.5;
#X obj 195 369 *~ 0.5;
#X floatatom 239 166 0 0 0 0 - - -;
#X obj 50 192 - 1;
#X obj 50 120 * 0.05776;
#X obj 50 216 * -1;
#X text 91 78 <-- transposition;
#X text 96 96 (halftones);
#X text 116 163 speed;
#X text 115 176 change;
#X text 298 116 <--window (msec);
#X text 82 243 tape head;
#X text 83 255 rotation speed;
#X obj 4 14 inlet~;
#X obj 50 483 outlet~;
#X obj 50 79 inlet;
#X obj 264 117 inlet;
#X obj 310 245 inlet;
#X text 55 10 HARMONISER;
#X obj 4 34 delwrite~ \$0-hrn 2000;
#X obj 109 387 vd~ \$0-hrn;
#X obj 252 397 vd~ \$0-hrn;
#X connect 0 0 42 0;
#X connect 1 0 12 0;
#X connect 2 0 1 1;
#X connect 2 0 19 1;
#X connect 3 0 2 0;
#X connect 4 0 5 0;
#X connect 4 1 30 0;
#X connect 5 0 30 0;
#X connect 6 0 31 0;
#X connect 7 0 24 0;
#X connect 8 0 23 0;
#X connect 9 0 12 1;
#X connect 9 0 20 1;
#X connect 10 0 9 0;
#X connect 12 0 48 0;
#X connect 13 0 10 0;
#X connect 14 0 13 0;
#X connect 14 1 10 0;
#X connect 15 0 16 0;
#X connect 16 0 17 0;
#X connect 17 0 0 0;
#X connect 18 0 19 0;
#X connect 18 0 28 0;
#X connect 19 0 20 0;
#X connect 20 0 49 0;
#X connect 21 0 22 0;
#X connect 22 0 17 1;
#X connect 23 0 7 0;
#X connect 23 1 7 1;
#X connect 24 0 1 0;
#X connect 24 0 26 0;
#X connect 24 0 25 0;
#X connect 25 0 18 0;
#X connect 26 0 27 0;
#X connect 27 0 15 0;
#X connect 28 0 29 0;
#X connect 29 0 21 0;
#X connect 30 0 3 0;
#X connect 30 0 8 0;
#X connect 31 0 33 0;
#X connect 32 0 6 0;
#X connect 33 0 7 0;
#X connect 41 0 47 0;
#X connect 43 0 32 0;
#X connect 44 0 4 0;
#X connect 45 0 14 0;
#X connect 48 0 16 1;
#X connect 49 0 22 1;
#X restore 306 477 pd harmoniser2;
#X connect 1 0 58 0;
#X connect 2 0 58 2;
#X connect 3 0 2 0;
#X connect 4 0 57 0;
#X connect 5 0 10 2;
#X connect 7 0 10 0;
#X connect 8 0 10 1;
#X connect 9 0 10 2;
#X connect 10 0 47 0;
#X connect 10 1 46 0;
#X connect 11 0 59 0;
#X connect 12 0 59 2;
#X connect 13 0 12 0;
#X connect 14 0 13 0;
#X connect 15 0 19 0;
#X connect 16 0 1 0;
#X connect 16 0 4 0;
#X connect 16 0 11 0;
#X connect 17 0 49 0;
#X connect 18 0 43 0;
#X connect 19 0 42 0;
#X connect 21 0 17 0;
#X connect 21 0 20 0;
#X connect 22 0 10 0;
#X connect 23 0 18 0;
#X connect 24 0 26 0;
#X connect 25 0 15 1;
#X connect 26 0 25 0;
#X connect 26 1 25 1;
#X connect 27 0 24 0;
#X connect 27 1 24 1;
#X connect 28 0 23 2;
#X connect 28 0 23 3;
#X connect 29 0 56 0;
#X connect 30 0 23 4;
#X connect 31 0 55 0;
#X connect 32 0 25 0;
#X connect 33 0 23 0;
#X connect 34 0 58 1;
#X connect 35 0 59 1;
#X connect 36 0 21 0;
#X connect 37 0 22 0;
#X connect 38 0 57 1;
#X connect 39 0 57 2;
#X connect 40 0 54 0;
#X connect 41 0 53 0;
#X connect 42 0 16 0;
#X connect 43 0 44 0;
#X connect 44 0 16 0;
#X connect 45 0 46 1;
#X connect 45 0 47 1;
#X connect 46 0 6 1;
#X connect 47 0 6 0;
#X connect 50 0 15 0;
#X connect 51 0 27 0;
#X connect 52 0 24 0;
#X connect 53 0 9 0;
#X connect 54 0 5 0;
#X connect 55 0 19 1;
#X connect 56 0 23 1;
#X connect 57 0 7 0;
#X connect 57 1 46 0;
#X connect 57 3 8 0;
#X connect 57 3 46 0;
#X connect 58 0 57 0;
#X connect 59 0 57 0;
#X restore 131 496 pd prettyvoices;
#X obj 171 166 vsl 15 64 0 1 0 0 \$0-mainvol \$0-mainvol main_vol 0
-8 2 8 -214995 -24198 -1 0 1;
#N canvas 0 0 1206 663 padscore-"outaspace" 0;
#X obj -2 -6 cnv 15 1200 150 empty empty time_control 20 12 1 14 -261681
-66577 0;
#X obj 1 589 cnv 15 1200 60 empty empty params 20 12 0 14 -233017 -66577
0;
#X obj 2 519 cnv 15 1200 60 empty empty conditioners 20 12 0 14 -125919
-66577 0;
#X obj -4 139 cnv 15 1200 380 empty empty composition 20 12 0 14 -224954
-66577 0;
#X obj 553 27 inlet;
#X obj 205 624 s \$0-harm2;
#X obj 125 624 s \$0-harm1;
#X obj 16 624 s \$0-mainpitch;
#X obj 283 624 s \$0-phaseratio1;
#X obj 401 624 s \$0-phaseratio2;
#X obj 518 624 s \$0-voice-volume;
#X obj 644 624 s \$0-phasorbank-volume;
#X obj 496 459 unpack f f f f f f f f;
#X obj 807 624 s \$0-sparkleyness;
#N canvas 0 0 682 438 barsection 0;
#X obj 339 125 f 0;
#X obj 338 100 metro 100;
#X obj 375 126 + 1;
#X msg 309 53 0;
#X obj 339 148 moses 128;
#X obj 397 178 - 128;
#X obj 309 29 t b;
#X obj 338 53 del 3;
#X msg 338 78 1;
#X obj 474 221 - 192;
#X obj 416 201 moses 192;
#X obj 474 249 sel 128;
#X obj 257 391 outlet;
#X obj 347 391 outlet;
#X obj 430 390 outlet;
#X obj 520 390 outlet done;
#X obj 309 4 inlet;
#X obj 159 389 outlet time;
#X msg 370 77 0;
#X obj 372 5 inlet stop;
#X connect 0 0 2 0;
#X connect 0 0 4 0;
#X connect 0 0 17 0;
#X connect 1 0 0 0;
#X connect 2 0 0 1;
#X connect 3 0 0 0;
#X connect 4 0 12 0;
#X connect 4 1 5 0;
#X connect 5 0 10 0;
#X connect 6 0 3 0;
#X connect 6 0 7 0;
#X connect 7 0 8 0;
#X connect 8 0 1 0;
#X connect 9 0 11 0;
#X connect 9 0 14 0;
#X connect 10 0 13 0;
#X connect 10 1 9 0;
#X connect 11 0 15 0;
#X connect 11 0 18 0;
#X connect 16 0 6 0;
#X connect 18 0 1 0;
#X connect 19 0 18 0;
#X restore 553 59 pd barsection;
#X obj 939 623 s \$0-chorusa;
#X obj 1031 623 s \$0-chorusf;
#X obj 939 555 clip 0 10;
#X obj 1031 555 clip 0 18;
#X obj 1031 532 + 0.5;
#X text 366 145 continuous f(t) controls;
#X text 524 426 chords ajf2006;
#X obj 1121 623 s \$0-verbf;
#X obj 1121 601 s \$0-verbd;
#X obj 1117 556 clip 0 100;
#X obj 330 598 s \$0-voice-extent;
#X obj 183 597 s \$0-voice-vibrato;
#X obj 299 402 line;
#X obj 299 423 * 100;
#X msg 286 356 0.5;
#X msg 315 356 0.65;
#X msg 299 381 \$1 3000;
#X obj 415 314 mod 32;
#X obj 415 335 / 32;
#X obj 415 378 cos;
#X obj 415 399 * 32;
#X obj 415 356 * 6.243;
#X obj 415 446 + 64;
#X obj 415 293 / 4;
#X msg 1069 408 1;
#X msg 1110 408 12;
#X msg 1152 408 90;
#X obj 464 198 mod 512;
#X obj 472 281 -;
#X msg 449 259 4;
#X obj 464 239 t b f;
#X text 959 319 initial controls;
#X obj 503 387 pack f f f f f f f f;
#X obj 586 314 t b b b b b b b b;
#X obj 661 214 cos;
#X obj 661 192 * 6.243;
#X obj 661 150 mod 8;
#X obj 661 171 / 8;
#X obj 661 235 * 8;
#X obj 661 257 + 16;
#X obj 721 214 cos;
#X obj 721 192 * 6.243;
#X obj 721 150 mod 8;
#X obj 721 171 / 8;
#X obj 721 235 * 8;
#X obj 721 257 + 32;
#X obj 415 421 *;
#X obj 415 488 line;
#X msg 415 467 \$1 200;
#X msg 734 347 1;
#X msg 609 346 20;
#X obj 464 218 / 1024;
#X msg 703 348 0.2;
#X msg 671 348 0.3;
#X msg 639 348 21;
#X obj 818 214 cos;
#X obj 818 192 * 6.243;
#X obj 818 257 + 32;
#X obj 818 235 * 32;
#X obj 818 279 / 64;
#X obj 818 150 mod 64;
#X obj 818 171 / 64;
#X obj 818 309 * 5;
#X obj 448 29 r \$0-loadnext;
#X obj 448 60 s \$0-init2;
#X obj 1079 349 r \$0-init2;
#X obj 782 571 line;
#X obj 780 596 s \$0-mainvol;
#X obj 732 486 r \$0-init2;
#X obj 636 41 bng 15 250 50 0 empty empty empty 0 -6 0 8 -262144 -1
-1;
#X obj 878 595 s \$0-load3;
#X obj 870 550 del 50;
#X msg 734 510 1 100;
#X connect 4 0 14 0;
#X connect 4 0 79 0;
#X connect 12 0 7 0;
#X connect 12 1 6 0;
#X connect 12 2 5 0;
#X connect 12 3 8 0;
#X connect 12 4 9 0;
#X connect 12 5 10 0;
#X connect 12 6 11 0;
#X connect 12 7 13 0;
#X connect 14 0 38 0;
#X connect 14 0 42 0;
#X connect 14 0 48 0;
#X connect 14 0 51 0;
#X connect 14 0 57 0;
#X connect 14 0 75 0;
#X connect 14 4 86 0;
#X connect 17 0 15 0;
#X connect 18 0 16 0;
#X connect 19 0 18 0;
#X connect 24 0 23 0;
#X connect 24 0 22 0;
#X connect 27 0 26 0;
#X connect 27 0 28 0;
#X connect 28 0 25 0;
#X connect 29 0 31 0;
#X connect 30 0 31 0;
#X connect 31 0 27 0;
#X connect 32 0 33 0;
#X connect 33 0 36 0;
#X connect 34 0 35 0;
#X connect 35 0 61 0;
#X connect 36 0 34 0;
#X connect 37 0 63 0;
#X connect 38 0 32 0;
#X connect 39 0 17 0;
#X connect 40 0 19 0;
#X connect 41 0 24 0;
#X connect 42 0 66 0;
#X connect 43 0 38 1;
#X connect 44 0 43 0;
#X connect 45 0 44 0;
#X connect 45 1 43 1;
#X connect 47 0 12 0;
#X connect 48 2 65 0;
#X connect 48 3 69 0;
#X connect 48 4 68 0;
#X connect 48 5 67 0;
#X connect 48 6 64 0;
#X connect 49 0 53 0;
#X connect 50 0 49 0;
#X connect 51 0 52 0;
#X connect 52 0 50 0;
#X connect 53 0 54 0;
#X connect 54 0 47 1;
#X connect 55 0 59 0;
#X connect 56 0 55 0;
#X connect 57 0 58 0;
#X connect 58 0 56 0;
#X connect 59 0 60 0;
#X connect 60 0 47 2;
#X connect 61 0 37 0;
#X connect 62 0 47 0;
#X connect 63 0 62 0;
#X connect 64 0 47 7;
#X connect 65 0 47 3;
#X connect 66 0 45 0;
#X connect 66 0 61 1;
#X connect 67 0 47 6;
#X connect 68 0 47 5;
#X connect 69 0 47 4;
#X connect 70 0 73 0;
#X connect 71 0 70 0;
#X connect 72 0 74 0;
#X connect 73 0 72 0;
#X connect 74 0 19 0;
#X connect 74 0 77 0;
#X connect 75 0 76 0;
#X connect 76 0 71 0;
#X connect 77 0 17 0;
#X connect 78 0 14 0;
#X connect 78 0 79 0;
#X connect 80 0 39 0;
#X connect 80 0 40 0;
#X connect 80 0 41 0;
#X connect 81 0 82 0;
#X connect 83 0 87 0;
#X connect 84 0 14 1;
#X connect 86 0 85 0;
#X connect 87 0 81 0;
#X restore 101 72 pd padscore-"outaspace";
#N canvas 0 0 1188 787 padscore-"prelude" 0;
#X obj -2 -6 cnv 15 1200 150 empty empty time_control 20 12 1 14 -261681
-66577 0;
#X obj -1 668 cnv 15 1200 120 empty empty params 20 12 0 14 -233017
-66577 0;
#X obj -6 518 cnv 15 1200 180 empty empty conditioners 20 12 0 14 -125919
-66577 0;
#X obj -4 139 cnv 15 1200 380 empty empty composition 20 12 0 14 -224954
-66577 0;
#X obj 76 29 inlet;
#X obj 303 726 s \$0-harm2;
#X obj 223 726 s \$0-harm1;
#X obj 114 726 s \$0-mainpitch;
#X obj 381 726 s \$0-phaseratio1;
#X obj 499 726 s \$0-phaseratio2;
#X obj 616 726 s \$0-voice-volume;
#X obj 113 763 s \$0-phasorbank-volume;
#X obj 279 764 s \$0-sparkleyness;
#X obj 813 764 s \$0-chorusa;
#X obj 906 764 s \$0-chorusf;
#X obj 1079 764 s \$0-verbf;
#X obj 999 764 s \$0-verbd;
#X obj 543 764 s \$0-voice-extent;
#X obj 407 764 s \$0-voice-vibrato;
#X obj 676 764 s \$0-phasors-shift;
#X obj 377 464 r nextpp;
#N canvas 0 0 571 405 morph 0;
#X obj 10 164 line;
#X obj 45 164 line;
#X obj 79 164 line;
#X obj 114 164 line;
#X obj 148 164 line;
#X obj 183 164 line;
#X obj 217 164 line;
#X obj 252 164 line;
#X obj 285 164 line;
#X obj 320 164 line;
#X obj 354 164 line;
#X obj 389 164 line;
#X obj 423 164 line;
#X obj 457 164 line;
#X obj 492 164 line;
#X obj 46 278 t b;
#X obj 122 65 inlet;
#X obj 115 339 outlet;
#X text 427 65 change time;
#X text 97 44 new parameter list;
#X text 237 17 15 way linear slope;
#X obj 65 118 + 0;
#X obj 529 164 line;
#X obj 122 91 unpack f f f f f f f f f f f f f f f f f;
#X obj 116 310 pack f f f f f f f f f f f f f f f f;
#X connect 0 0 24 0;
#X connect 1 0 15 0;
#X connect 1 0 24 1;
#X connect 2 0 15 0;
#X connect 2 0 24 2;
#X connect 3 0 15 0;
#X connect 3 0 24 3;
#X connect 4 0 15 0;
#X connect 4 0 24 4;
#X connect 5 0 15 0;
#X connect 5 0 24 5;
#X connect 6 0 15 0;
#X connect 6 0 24 6;
#X connect 7 0 15 0;
#X connect 7 0 24 7;
#X connect 8 0 15 0;
#X connect 8 0 24 8;
#X connect 9 0 15 0;
#X connect 9 0 24 9;
#X connect 10 0 15 0;
#X connect 10 0 24 10;
#X connect 11 0 15 0;
#X connect 11 0 24 11;
#X connect 12 0 15 0;
#X connect 12 0 24 12;
#X connect 13 0 15 0;
#X connect 13 0 24 13;
#X connect 14 0 15 0;
#X connect 14 0 24 14;
#X connect 15 0 24 0;
#X connect 16 0 23 0;
#X connect 21 0 0 1;
#X connect 21 0 1 1;
#X connect 21 0 2 1;
#X connect 21 0 3 1;
#X connect 21 0 4 1;
#X connect 21 0 5 1;
#X connect 21 0 6 1;
#X connect 21 0 7 1;
#X connect 21 0 8 1;
#X connect 21 0 9 1;
#X connect 21 0 10 1;
#X connect 21 0 11 1;
#X connect 21 0 12 1;
#X connect 21 0 13 1;
#X connect 21 0 14 1;
#X connect 21 0 22 1;
#X connect 22 0 24 15;
#X connect 23 0 21 0;
#X connect 23 1 0 0;
#X connect 23 2 1 0;
#X connect 23 3 2 0;
#X connect 23 4 3 0;
#X connect 23 5 4 0;
#X connect 23 6 5 0;
#X connect 23 7 6 0;
#X connect 23 8 7 0;
#X connect 23 9 8 0;
#X connect 23 10 9 0;
#X connect 23 11 10 0;
#X connect 23 12 11 0;
#X connect 23 13 12 0;
#X connect 23 14 13 0;
#X connect 23 15 14 0;
#X connect 23 16 22 0;
#X connect 24 0 17 0;
#X restore 338 389 pd morph;
#X obj 338 364 r morph;
#X obj 338 411 s nextpp;
#N canvas 0 0 1253 916 last-params 0;
#X obj -2 130 r \$0-mainpitch;
#X obj 25 151 r \$0-harm1;
#X obj 25 172 r \$0-harm2;
#X obj -16 193 r \$0-phaseratio1;
#X obj -18 214 r \$0-phaseratio2;
#X obj -23 309 r \$0-voice-volume;
#X obj -55 263 r \$0-phasorbank-volume;
#X obj -23 239 r \$0-sparkleyness;
#X obj -28 287 r \$0-voice-vibrato;
#X obj -22 331 r \$0-voice-extent;
#X obj -26 365 r \$0-phasors-shift;
#X obj 14 386 r \$0-chorusa;
#X obj 14 407 r \$0-chorusf;
#X obj 28 428 r \$0-verbd;
#X obj 29 448 r \$0-verbf;
#X obj -294 495 outlet;
#X obj 103 131 nbx 7 14 -1e+37 1e+37 0 0 empty empty empty 0 -6 0 10
-262144 -1 -1 0 256;
#X obj 104 150 nbx 7 14 -1e+37 1e+37 0 0 empty empty empty 0 -6 0 10
-262144 -1 -1 0 256;
#X obj 104 171 nbx 7 14 -1e+37 1e+37 0 0 empty empty empty 0 -6 0 10
-262144 -1 -1 0 256;
#X obj 105 191 nbx 7 14 -1e+37 1e+37 0 0 empty empty empty 0 -6 0 10
-262144 -1 -1 4 256;
#X obj 106 213 nbx 7 14 -1e+37 1e+37 0 0 empty empty empty 0 -6 0 10
-262144 -1 -1 1 256;
#X obj 107 263 nbx 7 14 -1e+37 1e+37 0 0 empty empty empty 0 -6 0 10
-262144 -1 -1 0 256;
#X obj 106 238 nbx 7 14 -1e+37 1e+37 0 0 empty empty empty 0 -6 0 10
-262144 -1 -1 0 256;
#X obj 108 287 nbx 7 14 -1e+37 1e+37 0 0 empty empty empty 0 -6 0 10
-262144 -1 -1 0 256;
#X obj 109 309 nbx 7 14 -1e+37 1e+37 0 0 empty empty empty 0 -6 0 10
-262144 -1 -1 0 256;
#X obj 110 331 nbx 7 14 -1e+37 1e+37 0 0 empty empty empty 0 -6 0 10
-262144 -1 -1 0 256;
#X obj 110 367 nbx 7 14 -1e+37 1e+37 0 0 empty empty empty 0 -6 0 10
-262144 -1 -1 0 256;
#X obj 111 386 nbx 7 14 -1e+37 1e+37 0 0 empty empty empty 0 -6 0 10
-262144 -1 -1 0 256;
#X obj 112 407 nbx 7 14 -1e+37 1e+37 0 0 empty empty empty 0 -6 0 10
-262144 -1 -1 0 256;
#X obj 113 426 nbx 7 14 -1e+37 1e+37 0 0 empty empty empty 0 -6 0 10
-262144 -1 -1 0 256;
#X obj 113 446 nbx 7 14 -1e+37 1e+37 0 0 empty empty empty 0 -6 0 10
-262144 -1 -1 0 256;
#X obj 103 105 nbx 7 14 -1e+37 1e+37 0 0 empty empty empty 0 -6 0 10
-262144 -1 -1 0 256;
#X obj -2 104 r \$0-mainvol;
#X msg -294 431 500;
#X obj -294 471 pack f f f f f f f f f f f f f f f f f;
#X obj -294 73 inlet;
#X connect 0 0 16 0;
#X connect 0 0 34 2;
#X connect 1 0 17 0;
#X connect 1 0 34 3;
#X connect 2 0 18 0;
#X connect 2 0 34 4;
#X connect 3 0 19 0;
#X connect 3 0 34 5;
#X connect 4 0 20 0;
#X connect 4 0 34 6;
#X connect 5 0 24 0;
#X connect 5 0 34 10;
#X connect 6 0 21 0;
#X connect 6 0 34 8;
#X connect 7 0 22 0;
#X connect 7 0 34 7;
#X connect 8 0 23 0;
#X connect 8 0 34 9;
#X connect 9 0 25 0;
#X connect 9 0 34 11;
#X connect 10 0 26 0;
#X connect 10 0 34 12;
#X connect 11 0 27 0;
#X connect 11 0 34 13;
#X connect 12 0 28 0;
#X connect 12 0 34 14;
#X connect 13 0 29 0;
#X connect 13 0 34 15;
#X connect 14 0 30 0;
#X connect 14 0 34 16;
#X connect 32 0 31 0;
#X connect 32 0 34 1;
#X connect 33 0 34 0;
#X connect 34 0 15 0;
#X connect 35 0 33 0;
#X coords 0 0 1 1 150 250 0;
#X restore 18 236 pd last-params;
#X text 242 229 identity - morph to self;
#X obj 290 399 print;
#X obj 10 727 s \$0-mainvol;
#X obj 377 489 unpack f f f f f f f f f f f f f f f f;
#X text 14 552 remove all modifiers to preserve loop identity;
#X obj 20 215 bng 15 250 50 0 empty empty empty 0 -6 0 8 -262144 -1
-1;
#X msg 443 462 0 0 0 0 0 0 0 0 0 0 0 0 0 0 0 0;
#X msg 16 297 500 0.65873 42 24 24 20 21 0.256693 0.388819 0.96063
0.192913 43 0 0.984252 1.78308 87 80.5512;
#X msg 17 260 set \$1 \$2 \$3 \$4 \$5 \$6 \$7 \$8 \$9 \$10 \$11 \$12
\$13 \$14 \$15 \$16 \$17;
#X obj 181 10 r \$0-load3;
#N canvas 66 13 1118 875 morphscore 0;
#X obj 108 222 f 0;
#X obj 140 221 + 1;
#X msg 107 139 1;
#X msg 169 118 0;
#X obj 148 67 inlet;
#X obj 108 302 sel 0 1 2 3 4 5 6 7 8 9 10;
#X obj 134 94 t b b;
#X obj 127 261 sel 16;
#X obj 108 162 metro 10000;
#X msg 133 663 \; morph 8000 0.5 75.3243 24 40 20 21 1 0.2 0.5 0.3
50 0.001 5 1.5 90 90;
#X msg 171 624 \; morph 8000 0.5 59.6282 -2 -6 9 9 0.389764 1.3337
0.701575 0.244094 48 0.00396825 0 1.5 84 60.8661;
#X msg 195 565 \; morph 8000 0.5 75.3248 -18 -52 21 21 0.362992 0.672283
0.322835 0.838583 68 0 5 1.5 90 90;
#X msg 223 513 \; morph 8000 0.5 75.3248 36 -52 21 21 0.846457 0.672283
0.362992 0.322835 68 0.0248016 5 1.5 90 90;
#X msg 268 459 \; morph 8000 0.5 75.3243 36 -4 20 21 0.3 0.294331 1
0.846457 68 0.0109127 5 1.5 90 90;
#X msg 315 407 \; morph 8000 0.5 75.3243 36 44 20 21 0.846457 0.294331
0.3 1 68 0.0109127 5 1.5 90 90;
#X msg 351 357 \; morph 8000 0.5 42 24 40 20 21 1 0.2 0.5 0.3 50 0.001
5 1.5 90 90;
#X msg 375 308 \; morph 8000 0.65873 42 24 24 20 21 0.192913 0.388819
0.256693 0.96063 43 0 0.984252 1.78308 87 80.5512;
#X connect 0 0 1 0;
#X connect 0 0 5 0;
#X connect 0 0 7 0;
#X connect 1 0 0 1;
#X connect 2 0 8 0;
#X connect 3 0 8 0;
#X connect 3 0 0 1;
#X connect 4 0 6 0;
#X connect 5 0 9 0;
#X connect 5 1 10 0;
#X connect 5 2 11 0;
#X connect 5 3 12 0;
#X connect 5 4 13 0;
#X connect 5 5 14 0;
#X connect 5 6 15 0;
#X connect 5 7 16 0;
#X connect 6 0 2 0;
#X connect 6 1 3 0;
#X connect 7 0 3 0;
#X connect 8 0 0 0;
#X restore 138 197 pd morphscore;
#X obj 163 173 bng 15 250 50 0 empty empty empty 0 -6 0 8 -262144 -1
-1;
#X connect 4 0 35 0;
#X connect 20 0 28 0;
#X connect 21 0 23 0;
#X connect 22 0 21 0;
#X connect 22 0 26 0;
#X connect 24 0 33 0;
#X connect 28 0 27 0;
#X connect 28 1 7 0;
#X connect 28 2 6 0;
#X connect 28 3 5 0;
#X connect 28 4 8 0;
#X connect 28 5 9 0;
#X connect 28 6 10 0;
#X connect 28 7 11 0;
#X connect 28 8 12 0;
#X connect 28 9 18 0;
#X connect 28 10 17 0;
#X connect 28 11 19 0;
#X connect 28 12 13 0;
#X connect 28 13 14 0;
#X connect 28 14 16 0;
#X connect 28 15 15 0;
#X connect 30 0 24 0;
#X connect 31 0 28 0;
#X connect 33 0 32 0;
#X connect 34 0 35 0;
#X connect 36 0 35 0;
#X restore 195 93 pd padscore-"prelude";
#X obj 72 182 hsl 32 15 1 32 0 1 \$0-phaseratio1 \$0-phaseratio1 ratio
-2 -6 0 8 -257472 -1 -1 300 1;
#X obj 72 202 hsl 32 15 1 32 0 1 \$0-phaseratio2 \$0-phaseratio2 empty
-2 -6 0 8 -257472 -1 -1 0 1;
#X floatatom 122 181 5 0 0 0 A #0-phaseratio1 -;
#X floatatom 123 201 5 0 0 0 B #0-phaseratio2 -;
#X connect 17 0 18 0;
