#N canvas 160 259 641 400 8;
#X obj 14 10 cnv 15 200 250 empty empty empty 20 12 0 14 -233017 -66577
0;
#X msg 23 52 800 600 0 0;
#X msg 26 98 320 240 0 0;
#X msg 99 51 800 600 1440 -1;
#X msg 24 74 1024 768 0 0;
#X msg 108 71 1024 768 1440 -1;
#X msg 26 145 offset \$3 \$4;
#X msg 105 143 dimen \$1 \$2;
#X obj 38 164 t b b;
#X msg 81 210 destroy;
#X obj 142 189 tgl 15 0 empty empty empty 0 -6 0 8 -262144 -1 -1 1
1;
#X text 156 187 render;
#X msg 85 191 0;
#X msg 34 191 1;
#X obj 136 210 gemwin 20;
#X msg 21 32 640 480 0 0;
#X msg 107 95 400 300 0 0;
#X msg 16 121 1440 900 0 -1;
#X text 38 11 open window;
#X msg 113 164 lighting \$1;
#X obj 94 165 tgl 15 0 empty empty empty 0 -6 0 8 -262144 -1 -1 1 1
;
#X text 192 114 fullscreen;
#X msg 112 117 800 600 -1 -1;
#X obj 284 106 gemhead;
#X obj 285 205 pix_texture;
#X obj 18 303 world_light;
#X obj 18 272 gemhead;
#X obj 338 12 dumpOSC 10002;
#X obj 300 42 OSCroute /v1;
#X obj 559 41 OSCroute /v2;
#X obj 300 15 bng 15 250 50 0 empty empty empty 17 7 0 10 -262144 -1
-1;
#X obj 284 127 singleFilm;
#X msg 407 79 /home/robm/media/video/drive/IMGP0197.AVI;
#X obj 284 245 rectRepeat;
#X msg 377 62 /home/robm/media/video/60_com/avi/7upburger.avi;
#X obj 264 70 print;
#X msg 24 233 create :0.1;
#X obj 253 142 tgl 15 0 empty empty empty 0 -6 0 10 -262144 -1 -1 0
1;
#X msg 184 141 fullscreen \$1;
#X msg 98 31 1280 1024 0 0;
#X obj 195 38 t b b;
#X msg 187 163 border 0;
#X obj 514 98 gemhead;
#X obj 514 182 pix_texture;
#X obj 514 116 singleFilm;
#X obj 194 16 OSCroute /start;
#X obj 514 201 rectRepeat;
#X connect 1 0 6 0;
#X connect 1 0 7 0;
#X connect 1 0 8 0;
#X connect 2 0 6 0;
#X connect 2 0 7 0;
#X connect 2 0 8 0;
#X connect 3 0 6 0;
#X connect 3 0 7 0;
#X connect 3 0 8 0;
#X connect 4 0 6 0;
#X connect 4 0 7 0;
#X connect 4 0 8 0;
#X connect 5 0 7 0;
#X connect 5 0 6 0;
#X connect 5 0 8 0;
#X connect 6 0 14 0;
#X connect 7 0 14 0;
#X connect 8 0 36 0;
#X connect 8 0 13 0;
#X connect 8 1 9 0;
#X connect 8 1 12 0;
#X connect 9 0 14 0;
#X connect 10 0 14 0;
#X connect 12 0 10 0;
#X connect 12 0 20 0;
#X connect 13 0 10 0;
#X connect 13 0 20 0;
#X connect 15 0 6 0;
#X connect 15 0 7 0;
#X connect 15 0 8 0;
#X connect 16 0 6 0;
#X connect 16 0 7 0;
#X connect 16 0 8 0;
#X connect 17 0 7 0;
#X connect 17 0 6 0;
#X connect 17 0 8 0;
#X connect 19 0 14 0;
#X connect 20 0 19 0;
#X connect 22 0 7 0;
#X connect 22 0 8 0;
#X connect 23 0 31 0;
#X connect 24 0 33 0;
#X connect 26 0 25 0;
#X connect 27 0 28 0;
#X connect 27 0 29 0;
#X connect 27 0 30 0;
#X connect 27 0 35 0;
#X connect 27 0 45 0;
#X connect 28 0 31 1;
#X connect 28 0 33 1;
#X connect 29 0 42 0;
#X connect 31 0 24 0;
#X connect 32 0 31 2;
#X connect 34 0 31 2;
#X connect 36 0 14 0;
#X connect 37 0 38 0;
#X connect 38 0 14 0;
#X connect 39 0 8 0;
#X connect 40 0 4 0;
#X connect 40 1 41 0;
#X connect 41 0 14 0;
#X connect 42 0 44 0;
#X connect 43 0 46 0;
#X connect 44 0 43 0;
#X connect 45 0 40 0;
