#N canvas 681 456 473 469 10;
#X obj 24 16 inlet;
#X text 71 14 gemhead;
#X obj 99 240 rectangle 3 2;
#X obj 26 300 outlet;
#X obj 135 10 inlet;
#X obj 243 12 inlet;
#X text 179 12 osc;
#X text 281 16 list;
#X obj 30 49 spigot;
#X obj 338 18 inlet;
#X text 380 16 on;
#X obj 79 50 tgl 15 0 empty empty empty 17 7 0 10 -262144 -1 -1 0 1
;
#X obj 101 98 vid_pos;
#X connect 0 0 8 0;
#X connect 4 0 12 1;
#X connect 5 0 12 2;
#X connect 8 0 12 0;
#X connect 9 0 11 0;
#X connect 11 0 8 1;
#X connect 12 0 2 0;
#X connect 12 0 3 0;
#X connect 12 1 2 1;
#X connect 12 2 2 2;
