#N canvas 668 199 575 697 10;
#X obj -11 136 translateXYZ 0 0 0;
#X obj -1 257 rotateXYZ 0 0 0;
#X obj -1 410 scale 1;
#X obj 20 383 pack f f f;
#X obj -5 604 rectangle;
#X obj -12 -24 inlet;
#X text 26 32 gemlist;
#X obj -5 633 outlet;
#X obj 12 48 3wayline 20 -10 20 -10 20 -10 300;
#X obj 17 163 3wayline 360 0 360 0 360 0 300;
#X obj 13 280 3wayline 20 0 20 0 20 0 300;
#X obj 98 383 bng 15 250 50 0 empty empty empty 17 7 0 10 -262144 -1
-1;
#X obj 218 -10 inlet;
#X obj 221 50 unpack f f f;
#X obj 270 213 inlet;
#X obj 240 87 inlet;
#X obj 229 166 unpack f f f;
#X obj 5 9 spigot;
#X obj 58 -3 tgl 15 0 empty empty empty 17 7 0 10 -262144 -1 -1 1 1
;
#X obj 100 -8 loadbang;
#X msg 100 15 1;
#X obj 501 -9 inlet;
#X obj 316 79 inlet;
#X obj 315 116 unpack f f f;
#X obj 315 157 line 0 10;
#X obj 314 137 pack f f;
#X obj 356 205 line 0 10;
#X obj 356 181 pack f f;
#X text 34 -22 gemhead;
#X text 216 -26 trans;
#X text 236 70 rotate;
#X text 277 195 scale;
#X text 354 77 wid hgt;
#X text 374 -21 time;
#X text 500 -26 on;
#X obj 415 -5 inlet;
#X text 415 -25 alpha;
#X text 367 614 open an image;
#X text 367 602 (JPEG \, TIFF \, ..);
#X msg 313 611 open \$1;
#X obj 313 538 openpanel;
#X obj 318 517 bng 15 250 50 0 empty empty empty 17 7 0 10 -262144
-1 -1;
#X obj -4 552 pix_alpha;
#X obj 46 428 hsl 128 15 0 1 0 0 empty empty empty -2 -8 0 10 -262144
-1 -1 3810 1;
#X obj 46 449 hsl 128 15 0 1 0 0 empty empty empty -2 -8 0 10 -262144
-1 -1 0 1;
#X floatatom 139 429 5 0 0 0 - - -;
#X floatatom 149 449 5 0 0 0 - - -;
#X obj -5 491 alpha;
#X obj 56 480 loadbang;
#X msg 59 506 1 1 1;
#X msg 59 528 0 0 0;
#X msg 334 563 img/white.jpg;
#X text 46 428 low_threshold;
#X text 47 449 high threshold;
#X obj 245 449 line 0 10;
#X obj 248 423 pack f f;
#X msg 299 394 300;
#X obj 332 394 loadbang;
#X obj 266 497 line 0 10;
#X obj 266 473 pack f f;
#X obj 253 353 unpack f f;
#X obj 367 31 * 1;
#X obj 370 -4 inlet;
#X msg 333 30 300;
#X obj 409 640 pix_image;
#X obj 28 581 pix_texture;
#X obj 459 -7 inlet;
#X text 458 -24 del;
#X msg 474 39 0;
#X obj 446 41 * 1;
#X obj 237 113 del;
#X obj 265 114 list;
#X obj 214 114 bng 15 250 50 0 empty empty empty 17 7 0 10 -262144
-1 -1;
#X obj 213 22 del;
#X obj 242 24 list;
#X obj 190 23 bng 15 250 50 0 empty empty empty 17 7 0 10 -262144 -1
-1;
#X obj 255 241 del;
#X obj 283 242 list;
#X obj 232 242 bng 15 250 50 0 empty empty empty 17 7 0 10 -262144
-1 -1;
#X floatatom 473 81 8 0 0 0 - - -;
#X floatatom 510 23 5 0 0 0 - - -;
#X obj 459 18 * \$1;
#X obj 349 586 symbol;
#X connect 0 0 1 0;
#X connect 1 0 2 0;
#X connect 2 0 47 0;
#X connect 3 0 2 1;
#X connect 4 0 7 0;
#X connect 5 0 17 0;
#X connect 8 0 0 1;
#X connect 8 1 0 2;
#X connect 8 2 0 3;
#X connect 9 0 1 1;
#X connect 9 1 1 2;
#X connect 9 2 1 3;
#X connect 10 0 3 0;
#X connect 10 1 3 1;
#X connect 10 1 11 0;
#X connect 10 2 3 2;
#X connect 10 2 11 0;
#X connect 11 0 3 0;
#X connect 12 0 75 0;
#X connect 12 0 74 1;
#X connect 13 0 8 1;
#X connect 13 1 8 2;
#X connect 13 2 8 3;
#X connect 14 0 78 0;
#X connect 14 0 77 0;
#X connect 15 0 72 0;
#X connect 15 0 71 1;
#X connect 16 0 9 1;
#X connect 16 1 9 2;
#X connect 16 2 9 3;
#X connect 17 0 0 0;
#X connect 18 0 17 1;
#X connect 19 0 20 0;
#X connect 19 0 63 0;
#X connect 20 0 18 0;
#X connect 21 0 18 0;
#X connect 22 0 23 0;
#X connect 23 0 25 0;
#X connect 23 1 27 0;
#X connect 24 0 4 1;
#X connect 25 0 24 0;
#X connect 26 0 4 2;
#X connect 27 0 26 0;
#X connect 35 0 60 0;
#X connect 39 0 64 0;
#X connect 40 0 39 0;
#X connect 41 0 40 0;
#X connect 42 0 65 0;
#X connect 43 0 42 1;
#X connect 43 0 45 0;
#X connect 44 0 42 2;
#X connect 44 0 46 0;
#X connect 47 0 42 0;
#X connect 48 0 49 0;
#X connect 48 0 50 0;
#X connect 48 0 51 0;
#X connect 49 0 42 3;
#X connect 50 0 42 4;
#X connect 51 0 82 0;
#X connect 54 0 43 0;
#X connect 55 0 54 0;
#X connect 56 0 55 1;
#X connect 57 0 56 0;
#X connect 58 0 44 0;
#X connect 59 0 58 0;
#X connect 60 0 55 0;
#X connect 60 1 59 0;
#X connect 61 0 8 4;
#X connect 61 0 9 4;
#X connect 61 0 10 4;
#X connect 61 0 25 1;
#X connect 61 0 26 1;
#X connect 61 0 55 1;
#X connect 61 0 59 1;
#X connect 62 0 61 0;
#X connect 63 0 61 0;
#X connect 65 0 4 0;
#X connect 66 0 81 0;
#X connect 68 0 69 0;
#X connect 69 0 70 1;
#X connect 69 0 73 1;
#X connect 69 0 76 1;
#X connect 69 0 79 0;
#X connect 70 0 71 0;
#X connect 71 0 16 0;
#X connect 72 0 70 0;
#X connect 73 0 74 0;
#X connect 74 0 13 0;
#X connect 75 0 73 0;
#X connect 76 0 77 0;
#X connect 77 0 10 1;
#X connect 78 0 76 0;
#X connect 81 0 69 0;
#X connect 82 0 39 0;
