#N canvas 1110 203 593 686 10;
#X obj 48 141 inlet;
#X obj 59 572 outlet;
#X text 110 577 gemList;
#X text 51 155 gemList;
#X obj 161 167 pack f f f;
#X obj 142 168 bng 15 250 50 0 empty empty empty 17 7 0 10 -262144
-1 -1;
#X obj 211 347 hsl 128 15 0.2 20 1 0 empty empty empty -2 -8 0 10 -262144
-1 -1 3700 1;
#X floatatom 309 349 5 0 0 0 - - -;
#X text 214 347 scale;
#X obj 217 311 pack f f f;
#X obj 198 312 bng 15 250 50 0 empty empty empty 17 7 0 10 -262144
-1 -1;
#X obj 411 652 hsl 128 15 10 1000 1 0 empty empty empty -2 -8 0 10
-262144 -1 -1 9380 1;
#X floatatom 504 654 5 0 0 0 - - -;
#X text 414 634 time;
#X obj 390 157 pack f f f;
#X obj 371 158 bng 15 250 50 0 empty empty empty 17 7 0 10 -262144
-1 -1;
#X obj 399 335 hsl 128 15 0 20 0 0 empty empty empty -2 -8 0 10 -262144
-1 -1 775 1;
#X floatatom 486 336 5 0 0 0 - - -;
#X text 400 335 scale;
#X obj 399 310 pack f f f;
#X obj 380 311 bng 15 250 50 0 empty empty empty 17 7 0 10 -262144
-1 -1;
#X msg 147 28 0 0 0.5;
#X msg 554 654 300;
#X obj 442 479 pack f f f;
#X obj 415 480 bng 15 250 50 0 empty empty empty 17 7 0 10 -262144
-1 -1;
#X obj 168 214 3wayline 360 0 360 0 360 0 300;
#X obj 396 204 3wayline 360 0 360 0 360 0 300;
#X msg 390 41 0 0 0.5;
#X msg 479 172 0 0 0;
#X msg 266 183 0 0 0;
#X obj 159 77 3wayline 4 -2 4 -2 4 -2 300;
#X obj 449 611 pack f f f;
#X obj 419 612 bng 15 250 50 0 empty empty empty 17 7 0 10 -262144
-1 -1;
#X text 208 55 repeat translate;
#X text 487 48 first translate;
#X text 500 187 first rotate;
#X obj 384 391 3wayline 10 0 10 0 10 0 300;
#X text 509 496 alpha all;
#X text 337 369 width & height all;
#X text 264 199 repeat rotate;
#X text 493 319 first scale;
#X text 307 328 repeat scale;
#X obj 394 511 3wayline 1 0 1 0 1 0 300 wider;
#X msg 318 183 0 0 180;
#X obj 388 67 3wayline 20 -10 20 -10 30 -20 300;
#X obj 82 471 hsl 128 15 1 1000 1 0 empty empty empty -2 -8 0 10 -262144
-1 -1 0 1;
#X floatatom 177 471 5 0 0 0 - - -;
#X text 88 469 delay;
#X obj 191 421 * 1;
#X floatatom 177 495 5 0 0 0 - - -;
#X msg 76 437 1;
#X obj 291 6 loadbang;
#X msg 540 383 4 3 0;
#X msg 555 512 0.3;
#X msg 348 347 0.7;
#X obj 48 175 rectBase 1;
#X obj 47 366 rectBase 9;
#X obj 48 198 rectBase 2;
#X obj 49 221 rectBase 3;
#X obj 47 244 rectBase 4;
#X obj 48 270 rectBase 5;
#X obj 46 294 rectBase 6;
#X obj 47 318 rectBase 7;
#X obj 47 341 rectBase 8;
#X msg 544 335 1;
#X obj 456 4 inlet;
#X obj 485 30 OSCroute /tr;
#X obj 115 442 OSCroute /rdel;
#X obj 284 314 OSCroute /rsc;
#X obj 174 188 OSCroute /rro;
#X obj 208 36 OSCroute /rtr;
#X obj 506 153 OSCroute /ro;
#X obj 502 300 OSCroute /sc;
#X obj 450 368 OSCroute /wh;
#X obj 514 475 OSCroute /al;
#X obj 512 629 OSCroute /tm;
#X text 0 11 /tr;
#X text 0 22 /ro;
#X text 0 33 /sc;
#X text 1 43 /wh;
#X text 1 53 /al;
#X text 0 64 /tm;
#X text 1 74 /rtr;
#X text 2 84 /rro;
#X text 1 95 /rsc;
#X text 1 105 /rdel;
#X text 32 11 int(3);
#X text 32 22 int(3);
#X text 32 43 int(3);
#X text 32 53 int(3);
#X text 32 74 int(3);
#X text 32 84 int(3);
#X text 32 32 int(1);
#X text 32 64 int(1);
#X text 32 94 int(1);
#X text 32 104 int(1);
#X connect 0 0 55 0;
#X connect 4 0 56 1;
#X connect 4 0 57 1;
#X connect 4 0 58 1;
#X connect 4 0 59 1;
#X connect 4 0 60 1;
#X connect 4 0 61 1;
#X connect 4 0 62 1;
#X connect 4 0 63 1;
#X connect 5 0 4 0;
#X connect 6 0 7 0;
#X connect 6 0 56 3;
#X connect 6 0 57 3;
#X connect 6 0 58 3;
#X connect 6 0 59 3;
#X connect 6 0 60 3;
#X connect 6 0 61 3;
#X connect 6 0 62 3;
#X connect 6 0 63 3;
#X connect 9 0 56 2;
#X connect 9 0 57 2;
#X connect 9 0 58 2;
#X connect 9 0 59 2;
#X connect 9 0 60 2;
#X connect 9 0 61 2;
#X connect 9 0 62 2;
#X connect 9 0 63 2;
#X connect 10 0 9 0;
#X connect 11 0 12 0;
#X connect 11 0 55 5;
#X connect 11 0 56 5;
#X connect 11 0 57 5;
#X connect 11 0 58 5;
#X connect 11 0 59 5;
#X connect 11 0 60 5;
#X connect 11 0 61 5;
#X connect 11 0 62 5;
#X connect 11 0 63 5;
#X connect 14 0 55 1;
#X connect 15 0 14 0;
#X connect 16 0 17 0;
#X connect 16 0 55 3;
#X connect 19 0 55 2;
#X connect 20 0 19 0;
#X connect 21 0 4 0;
#X connect 22 0 11 0;
#X connect 23 0 55 4;
#X connect 23 0 56 4;
#X connect 23 0 57 4;
#X connect 23 0 58 4;
#X connect 23 0 59 4;
#X connect 23 0 60 4;
#X connect 23 0 61 4;
#X connect 23 0 62 4;
#X connect 23 0 63 4;
#X connect 24 0 23 0;
#X connect 25 0 9 0;
#X connect 25 1 9 1;
#X connect 25 1 10 0;
#X connect 25 2 9 2;
#X connect 25 2 10 0;
#X connect 26 0 19 0;
#X connect 26 1 19 1;
#X connect 26 1 20 0;
#X connect 26 2 19 2;
#X connect 26 2 20 0;
#X connect 27 0 14 0;
#X connect 28 0 19 0;
#X connect 29 0 9 0;
#X connect 30 0 4 0;
#X connect 30 1 4 1;
#X connect 30 1 5 0;
#X connect 30 2 4 2;
#X connect 30 2 5 0;
#X connect 31 0 55 6;
#X connect 31 0 56 6;
#X connect 31 0 57 6;
#X connect 31 0 58 6;
#X connect 31 0 59 6;
#X connect 31 0 60 6;
#X connect 31 0 61 6;
#X connect 31 0 62 6;
#X connect 31 0 63 6;
#X connect 32 0 31 0;
#X connect 36 0 23 0;
#X connect 36 1 23 1;
#X connect 36 1 24 0;
#X connect 36 2 23 2;
#X connect 36 2 24 0;
#X connect 42 0 31 0;
#X connect 42 1 31 1;
#X connect 42 1 32 0;
#X connect 42 2 31 2;
#X connect 42 2 32 0;
#X connect 43 0 9 0;
#X connect 44 0 14 0;
#X connect 44 1 14 1;
#X connect 44 1 15 0;
#X connect 44 2 14 2;
#X connect 44 2 15 0;
#X connect 45 0 46 0;
#X connect 45 0 48 0;
#X connect 48 0 55 7;
#X connect 48 0 56 7;
#X connect 48 0 57 7;
#X connect 48 0 58 7;
#X connect 48 0 59 7;
#X connect 48 0 60 7;
#X connect 48 0 61 7;
#X connect 48 0 62 7;
#X connect 48 0 63 7;
#X connect 50 0 45 0;
#X connect 51 0 21 0;
#X connect 51 0 27 0;
#X connect 51 0 29 0;
#X connect 51 0 28 0;
#X connect 51 0 52 0;
#X connect 51 0 53 0;
#X connect 51 0 54 0;
#X connect 51 0 50 0;
#X connect 51 0 64 0;
#X connect 51 0 22 0;
#X connect 52 0 23 0;
#X connect 53 0 31 0;
#X connect 54 0 6 0;
#X connect 55 0 57 0;
#X connect 56 0 1 0;
#X connect 57 0 58 0;
#X connect 58 0 59 0;
#X connect 59 0 60 0;
#X connect 60 0 61 0;
#X connect 61 0 62 0;
#X connect 62 0 63 0;
#X connect 63 0 56 0;
#X connect 64 0 16 0;
#X connect 65 0 66 0;
#X connect 65 0 71 0;
#X connect 65 0 72 0;
#X connect 65 0 73 0;
#X connect 65 0 74 0;
#X connect 65 0 75 0;
#X connect 65 0 68 0;
#X connect 65 0 70 0;
#X connect 65 0 69 0;
#X connect 65 0 67 0;
#X connect 66 0 44 0;
#X connect 67 0 45 0;
#X connect 68 0 6 0;
#X connect 69 0 25 0;
#X connect 70 0 30 0;
#X connect 71 0 26 0;
#X connect 72 0 16 0;
#X connect 73 0 36 0;
#X connect 74 0 42 0;
#X connect 75 0 11 0;
#X coords 0 -1 1 1 85 120 1 0 0;
