#N canvas 28 549 493 361 10;
#X obj 24 16 inlet;
#X text 69 18 gemhead;
#X obj 186 13 inlet;
#X text 230 11 osc;
#X obj 180 42 OSCroute /rep;
#X obj 299 18 inlet;
#X text 233 21 osc;
#X obj 323 57 tgl 15 0 empty empty empty 17 7 0 10 -262144 -1 -1 0
1;
#X text 343 19 list;
#X obj 360 98 list;
#X msg 283 124 \$1 \$2 \$3 \$4 \$5 \$6 \$7 \$8 \$9;
#X obj 101 164 rect_base;
#X obj 66 123 rect_base;
#X obj 221 295 rect_base;
#X obj 192 269 rect_base;
#X obj 246 320 rect_base;
#X obj 125 191 rect_base;
#X obj 146 217 rect_base;
#X obj 170 244 rect_base;
#X connect 0 0 12 0;
#X connect 2 0 4 0;
#X connect 4 0 11 1;
#X connect 4 0 12 1;
#X connect 4 0 13 1;
#X connect 4 0 14 1;
#X connect 4 0 15 1;
#X connect 4 0 16 1;
#X connect 4 0 17 1;
#X connect 4 0 18 1;
#X connect 5 0 10 0;
#X connect 7 0 11 3;
#X connect 7 0 12 3;
#X connect 7 0 13 3;
#X connect 7 0 14 3;
#X connect 7 0 15 3;
#X connect 7 0 16 3;
#X connect 7 0 17 3;
#X connect 7 0 18 3;
#X connect 10 0 11 2;
#X connect 10 0 12 2;
#X connect 10 0 13 2;
#X connect 10 0 14 2;
#X connect 10 0 15 2;
#X connect 10 0 16 2;
#X connect 10 0 17 2;
#X connect 10 0 18 2;
#X connect 11 0 16 0;
#X connect 12 0 11 0;
#X connect 13 0 15 0;
#X connect 14 0 13 0;
#X connect 16 0 17 0;
#X connect 17 0 18 0;
#X connect 18 0 14 0;
