#N canvas 3 277 594 638 8;
#X obj 194 -10 inlet;
#X obj 51 471 outlet;
#X obj 15 28 hsl 120 8 -3 3 0 0 empty empty x 4 3 1 7 -262144 -1 -1
0 1;
#X obj 15 39 hsl 120 8 -3 3 0 0 empty empty y 4 3 1 7 -262144 -1 -1
0 1;
#X obj 16 50 hsl 120 8 -3 3 0 0 empty empty z 4 3 1 7 -262144 -1 -1
0 1;
#X obj 16 61 hsl 120 8 -360 360 0 0 empty empty rx 4 3 1 7 -262144
-1 -1 0 1;
#X obj 15 72 hsl 120 8 -360 360 0 0 empty empty ry 4 3 1 7 -262144
-1 -1 0 1;
#X obj 15 83 hsl 120 8 -360 360 0 0 empty empty rz 4 3 1 7 -262144
-1 -1 0 1;
#X obj 15 94 hsl 120 8 0 1000 0 0 empty empty time 4 3 1 7 -262144
-1 -1 0 1;
#X obj 15 105 hsl 120 8 0 8 0 0 empty empty wid 4 3 1 7 -262144 -1
-1 0 1;
#X obj 15 117 hsl 120 8 0 5 0 0 empty empty hgt 4 3 1 7 -262144 -1
-1 0 1;
#X obj 222 29 pack 0 0;
#X floatatom 96 93 6 0 0 0 - - -;
#X obj 253 -9 pack 0 0;
#X obj 281 30 pack 0 0;
#X obj 228 126 pack 0 0;
#X obj 263 87 pack 0 0;
#X obj 296 121 pack 0 0;
#X obj 281 48 line 0 10;
#X obj 223 48 line 0 10;
#X obj 253 9 line 0 10;
#X obj 296 140 line 0 10;
#X obj 228 144 line 0 10;
#X obj 263 105 line 0 10;
#X obj 216 445 pack 0 0;
#X obj 216 464 line 0 10;
#X obj 279 446 pack 0 0;
#X obj 279 465 line 0 10;
#X obj 217 492 outlet;
#X obj 281 492 outlet;
#X msg 139 80 300;
#X obj 139 45 loadbang;
#X floatatom 366 31 5 0 0 0 - - -;
#X obj 194 65 translateXYZ 0 0 0;
#X obj 198 178 rotateXYZ 0 0 0;
#X obj 60 11 bng 15 250 50 0 empty empty empty 17 7 0 10 -262144 -1
-1;
#X text 75 14 r0;
#X msg 152 125 0;
#X obj 455 160 inlet;
#X floatatom 107 26 5 0 0 0 - - -;
#X floatatom 105 39 5 0 0 0 - - -;
#X floatatom 106 51 5 0 0 0 - - -;
#X floatatom 107 61 5 0 0 0 - - -;
#X floatatom 105 72 5 0 0 0 - - -;
#X floatatom 105 84 5 0 0 0 - - -;
#X floatatom 104 104 5 0 0 0 - - -;
#X floatatom 103 116 5 0 0 0 - - -;
#X obj 422 191 OSCroute /x;
#X obj 422 211 OSCroute /y;
#X obj 423 231 OSCroute /z;
#X obj 425 251 OSCroute /rx;
#X obj 423 269 OSCroute /ry;
#X obj 423 289 OSCroute /rz;
#X obj 423 308 OSCroute /time;
#X obj 423 326 OSCroute /wid;
#X obj 423 345 OSCroute /hgt;
#X obj 518 160 inlet;
#X obj 429 418 unpack f f f f f f f f f;
#X obj 533 452 * 1;
#X obj 459 505 pack f f f f f f f f f;
#X obj 459 540 outlet;
#X obj 411 504 bng 15 250 50 0 empty empty empty 17 7 0 10 -262144
-1 -1;
#X text 286 511 V size;
#X text 216 515 H Size;
#X text 53 488 gemList;
#X text 460 555 slider output;
#X text 436 145 OSC;
#X text 197 4 gemList;
#X text 519 146 list;
#X floatatom 26 363 5 0 0 0 - - -;
#X connect 0 0 33 0;
#X connect 2 0 11 0;
#X connect 2 0 39 0;
#X connect 2 0 59 0;
#X connect 2 0 61 0;
#X connect 3 0 13 0;
#X connect 3 0 40 0;
#X connect 3 0 59 1;
#X connect 3 0 61 0;
#X connect 4 0 14 0;
#X connect 4 0 41 0;
#X connect 4 0 59 2;
#X connect 4 0 61 0;
#X connect 5 0 15 0;
#X connect 5 0 42 0;
#X connect 5 0 59 3;
#X connect 5 0 61 0;
#X connect 6 0 16 0;
#X connect 6 0 43 0;
#X connect 6 0 59 4;
#X connect 6 0 61 0;
#X connect 7 0 17 0;
#X connect 7 0 44 0;
#X connect 7 0 59 5;
#X connect 7 0 61 0;
#X connect 8 0 12 0;
#X connect 8 0 59 8;
#X connect 8 0 61 0;
#X connect 9 0 45 0;
#X connect 9 0 59 6;
#X connect 9 0 61 0;
#X connect 10 0 46 0;
#X connect 10 0 59 7;
#X connect 10 0 61 0;
#X connect 11 0 19 0;
#X connect 12 0 14 1;
#X connect 12 0 11 1;
#X connect 12 0 13 1;
#X connect 12 0 17 1;
#X connect 12 0 16 1;
#X connect 12 0 15 1;
#X connect 12 0 24 1;
#X connect 12 0 26 1;
#X connect 13 0 20 0;
#X connect 14 0 18 0;
#X connect 15 0 22 0;
#X connect 16 0 23 0;
#X connect 17 0 21 0;
#X connect 18 0 33 3;
#X connect 19 0 33 1;
#X connect 20 0 32 0;
#X connect 20 0 33 2;
#X connect 21 0 34 3;
#X connect 22 0 34 1;
#X connect 23 0 34 2;
#X connect 24 0 25 0;
#X connect 25 0 28 0;
#X connect 25 0 69 0;
#X connect 26 0 27 0;
#X connect 27 0 29 0;
#X connect 30 0 12 0;
#X connect 31 0 30 0;
#X connect 33 0 34 0;
#X connect 34 0 1 0;
#X connect 35 0 37 0;
#X connect 37 0 5 0;
#X connect 37 0 6 0;
#X connect 37 0 7 0;
#X connect 38 0 47 0;
#X connect 38 0 48 0;
#X connect 38 0 49 0;
#X connect 38 0 50 0;
#X connect 38 0 51 0;
#X connect 38 0 52 0;
#X connect 38 0 53 0;
#X connect 38 0 54 0;
#X connect 38 0 55 0;
#X connect 45 0 24 0;
#X connect 46 0 26 0;
#X connect 47 0 11 0;
#X connect 47 0 39 0;
#X connect 48 0 13 0;
#X connect 48 0 40 0;
#X connect 49 0 14 0;
#X connect 49 0 41 0;
#X connect 50 0 15 0;
#X connect 50 0 42 0;
#X connect 51 0 16 0;
#X connect 51 0 43 0;
#X connect 52 0 17 0;
#X connect 52 0 44 0;
#X connect 53 0 12 0;
#X connect 54 0 45 0;
#X connect 55 0 46 0;
#X connect 56 0 57 0;
#X connect 57 0 39 0;
#X connect 57 1 40 0;
#X connect 57 2 41 0;
#X connect 57 3 42 0;
#X connect 57 4 43 0;
#X connect 57 5 44 0;
#X connect 57 6 45 0;
#X connect 57 7 46 0;
#X connect 57 8 58 0;
#X connect 58 0 26 1;
#X connect 58 0 17 1;
#X connect 58 0 15 1;
#X connect 58 0 14 1;
#X connect 58 0 11 1;
#X connect 58 0 13 1;
#X connect 58 0 16 1;
#X connect 58 0 24 1;
#X connect 59 0 60 0;
#X connect 61 0 59 0;
#X coords 0 -1 1 1 130 120 1 10 10;
