#N canvas 0 0 450 300 10;
#X obj 104 217 pdp_glx;
#X obj 78 109 pdp_noise;
#X obj 94 35 metro 40;
#X obj 59 21 tgl 15 0 empty empty empty 0 -6 0 8 -262144 -1 -1 1 1
;
#X obj 142 152 pdp_zoom;
#X obj 208 39 hsl 128 15 0 20 0 0 empty empty empty -2 -6 0 8 -260818
-1 -1 2900 1;
#X obj 28 150 pdp_reg;
#X obj 12 83 metro 40;
#X obj 22 49 tgl 15 0 empty empty empty 0 -6 0 8 -262144 -1 -1 0 1
;
#X msg 237 83 dim 16 400;
#X obj 150 3;
#X msg 256 146 type yv12;
#X msg 242 179 type yv grey;
#X connect 1 0 4 0;
#X connect 2 0 1 0;
#X connect 3 0 2 0;
#X connect 4 0 0 0;
#X connect 5 0 4 1;
#X connect 7 0 6 0;
#X connect 8 0 7 0;
