#N canvas 399 210 481 439 10;
#X obj 40 63 gemhead;
#X obj 51 152 rotateXYZ;
#X obj 83 125 hsl 128 15 -256 256 0 0 empty empty empty -2 -6 0 8 -262144
-1 -1 9100 1;
#X obj 50 209 translateXYZ;
#X obj 135 170 hsl 128 15 -256 256 0 0 empty empty empty -2 -6 0 8
-262144 -1 -1 3700 1;
#X obj 79 176 / 100;
#X obj 85 392 cube;
#X text 131 149 rotate;
#X text 146 207 translate;
#X msg 79 34 set 2;
#X text 125 29 sets the order of renering for this object;
#X text 131 240 light stuff doesnt work;
#X msg 302 68 create;
#X msg 380 103 1;
#X msg 381 126 0;
#X msg 420 68 destroy;
#X text 417 107 start rendering;
#X text 420 130 stop render;
#X text 357 68 window;
#X obj 306 152 gemwin \$0;
#X obj 215 284 bng 15 250 50 0 empty empty empty 0 -6 0 8 -262144 -1
-1;
#X obj 208 308 openpanel;
#X msg 204 334 open \$1;
#X obj 196 365 pix_image;
#X obj 195 391 pix_texture;
#X msg 141 69 1 1 1;
#X obj 46 99 color 0.2 0.2 0.8;
#X text 234 281 open featherTexture.tiff;
#X msg 95 315 quality 1;
#X connect 0 0 26 0;
#X connect 1 0 3 0;
#X connect 2 0 1 1;
#X connect 2 0 1 2;
#X connect 3 0 23 0;
#X connect 4 0 5 0;
#X connect 5 0 3 3;
#X connect 5 0 3 2;
#X connect 5 0 3 1;
#X connect 9 0 0 0;
#X connect 12 0 19 0;
#X connect 13 0 19 0;
#X connect 14 0 19 0;
#X connect 15 0 19 0;
#X connect 20 0 21 0;
#X connect 21 0 22 0;
#X connect 22 0 23 0;
#X connect 23 0 24 0;
#X connect 24 0 6 0;
#X connect 25 0 26 1;
#X connect 26 0 1 0;
#X connect 28 0 24 0;
