#N canvas 292 64 603 546 10;
#X msg 436 43 create;
#X msg 514 78 1;
#X msg 515 101 0;
#X msg 554 43 destroy;
#X text 551 82 start rendering;
#X text 554 105 stop render;
#X text 491 43 window;
#X obj 23 37 gemhead;
#X obj 34 126 rotateXYZ;
#X obj 66 99 hsl 128 15 -256 256 0 0 empty empty empty -2 -6 0 8 -262144
-1 -1 0 1;
#X obj 33 183 translateXYZ;
#X obj 118 144 hsl 128 15 -256 256 0 0 empty empty empty -2 -6 0 8
-262144 -1 -1 0 1;
#X obj 62 150 / 100;
#X obj 31 280 cube;
#X text 191 74 set color rgb between 0-1;
#X obj 33 246 alpha;
#X text 114 123 rotate;
#X text 129 181 translate;
#X obj 29 73 color 0.8 0.2 0.2 0.7;
#X text 94 435;
#X text 101 262;
#X msg 56 7 set 1;
#X obj 192 228 gemhead;
#X obj 203 317 rotateXYZ;
#X obj 235 290 hsl 128 15 -256 256 0 0 empty empty empty -2 -6 0 8
-262144 -1 -1 0 1;
#X obj 202 374 translateXYZ;
#X obj 287 335 hsl 128 15 -256 256 0 0 empty empty empty -2 -6 0 8
-262144 -1 -1 0 1;
#X obj 231 341 / 100;
#X obj 200 471 cube;
#X text 360 265 set color rgb between 0-1;
#X obj 202 437 alpha;
#X text 283 314 rotate;
#X text 298 372 translate;
#X obj 198 264 color 0.2 0.2 0.8 0.7;
#X msg 231 199 set 2;
#X text 277 194 sets the order of renering for this object;
#X text 107 6 sets the order of renering for this object;
#X obj 51 211 shininess 100;
#X obj 345 484 diffuse 0.5 0.2 0;
#X obj 39 307 gemhead;
#X obj 40 413 light;
#X obj 4 378 translateXYZ;
#X obj 85 337 hsl 128 15 -256 256 0 0 empty empty empty -2 -6 0 8 -262144
-1 -1 600 1;
#X obj 33 345 / 100;
#X text 100 376 translate;
#X msg 59 454 1 1 1;
#X msg 97 414 0 1 0;
#X obj 440 127 gemwin \$0;
#X text 283 405 light stuff doesnt work;
#X connect 0 0 47 0;
#X connect 1 0 47 0;
#X connect 2 0 47 0;
#X connect 3 0 47 0;
#X connect 7 0 18 0;
#X connect 8 0 10 0;
#X connect 9 0 8 1;
#X connect 9 0 8 2;
#X connect 10 0 37 0;
#X connect 11 0 12 0;
#X connect 12 0 10 3;
#X connect 12 0 10 2;
#X connect 12 0 10 1;
#X connect 15 0 13 0;
#X connect 18 0 8 0;
#X connect 21 0 7 0;
#X connect 22 0 33 0;
#X connect 23 0 25 0;
#X connect 24 0 23 1;
#X connect 24 0 23 2;
#X connect 25 0 30 0;
#X connect 26 0 27 0;
#X connect 27 0 25 3;
#X connect 27 0 25 2;
#X connect 27 0 25 1;
#X connect 30 0 28 0;
#X connect 33 0 23 0;
#X connect 34 0 22 0;
#X connect 37 0 15 0;
#X connect 39 0 43 0;
#X connect 41 0 40 0;
#X connect 42 0 43 0;
#X connect 43 0 41 3;
#X connect 43 0 41 2;
#X connect 43 0 41 1;
#X connect 45 0 40 1;
#X connect 46 0 40 1;
