#N canvas 1081 36 332 684 10;
#X obj 440 127 gemwin;
#X msg 436 43 create;
#X msg 514 78 1;
#X msg 515 101 0;
#X obj 23 37 gemhead;
#X msg 554 43 destroy;
#X text 551 82 start rendering;
#X text 554 105 stop render;
#X text 19 17 this is what to render ...;
#X text 86 37 local object to manage rendering of descendants;
#X text 113 305 render cube;
#X text 491 43 window;
#X obj 46 169 rotateXYZ;
#X obj 78 142 hsl 128 15 -256 256 0 0 empty empty empty -2 -6 0 8 -262144
-1 -1 6400 1;
#X obj 45 226 translateXYZ;
#X obj 130 187 hsl 128 15 -256 256 0 0 empty empty empty -2 -6 0 8
-262144 -1 -1 4800 1;
#X obj 74 193 / 100;
#X obj 438 245 gemhead;
#X obj 450 432 cube;
#X text 501 245 local object to manage rendering of descendants;
#X text 482 416 render cube;
#X obj 443 303 rotateXYZ;
#X obj 525 299 hsl 128 15 -256 256 0 0 empty empty empty -2 -6 0 8
-262144 -1 -1 2200 1;
#X obj 437 338 translateXYZ;
#X obj 558 326 hsl 128 15 -256 256 0 0 empty empty empty -2 -6 0 8
-262144 -1 -1 8100 1;
#X obj 47 518 cube;
#X obj 68 398 translateXYZ;
#X obj 171 334 hsl 128 15 -256 256 0 0 empty empty empty -2 -6 0 8
-262144 -1 -1 4000 1;
#X obj 113 367 / 50;
#X obj 50 301 cube 0.5;
#X text 91 497 this cube inherits from first plus additional translation.
;
#X msg 143 257 draw fill;
#X msg 218 256 draw line;
#X text 434 225 this additionally is what to render ...;
#X msg 296 257 draw point;
#X obj 29 73 color 0.8 0.2 0.2;
#X text 162 74 set color rgb between 0-1;
#X obj 78 450 alpha;
#X obj 14 338 color 0.2 0.8 0.2 0.5;
#X text 72 125 rotate;
#X text 308 240 fills;
#X text 132 201 translate;
#X obj 325 534 bng 15 250 50 0 empty empty empty 0 -6 0 8 -262144 -1
-1;
#X obj 318 558 openpanel;
#X msg 314 584 open \$1;
#X text 344 531 open featherTexture.tiff;
#X msg 249 533 quality 1;
#X obj 305 616 pix_image;
#X obj 525 326 / 25;
#X obj 480 627 pix_draw;
#X obj 497 519 bng 15 250 50 0 empty empty empty 0 -6 0 8 -262144 -1
-1;
#X obj 490 543 openpanel;
#X msg 486 569 open \$1;
#X text 516 516 open featherTexture.tiff;
#X obj 485 596 pix_image;
#X obj 304 642 pix_texture;
#X obj 442 277 shininess;
#X obj 545 277 hsl 128 15 -256 256 0 0 empty empty empty -2 -6 0 8
-262144 -1 -1 10400 1;
#X obj 509 275 / 25;
#X obj 170 449 hsl 128 15 -256 256 0 0 empty empty empty -2 -6 0 8
-262144 -1 -1 6700 1;
#X msg 550 159 dimen 1024 768;
#X obj 558 348 hsl 128 15 -256 256 0 0 empty empty empty -2 -6 0 8
-262144 -1 -1 6400 1;
#X obj 526 347 / 25;
#X obj 558 368 hsl 128 15 -256 256 0 0 empty empty empty -2 -6 0 8
-262144 -1 -1 4900 1;
#X obj 526 367 / 25;
#X obj 522 433 hsl 128 15 -256 256 0 0 empty empty empty -2 -6 0 8
-262144 -1 -1 10500 1;
#X obj 490 432 / 25;
#X obj 128 448 / 200;
#X connect 1 0 0 0;
#X connect 2 0 0 0;
#X connect 3 0 0 0;
#X connect 4 0 35 0;
#X connect 5 0 0 0;
#X connect 12 0 14 0;
#X connect 13 0 12 1;
#X connect 13 0 12 2;
#X connect 14 0 29 0;
#X connect 15 0 16 0;
#X connect 16 0 14 3;
#X connect 16 0 14 2;
#X connect 16 0 14 1;
#X connect 17 0 56 0;
#X connect 21 0 23 0;
#X connect 22 0 21 1;
#X connect 22 0 21 2;
#X connect 23 0 47 0;
#X connect 24 0 48 0;
#X connect 26 0 37 0;
#X connect 27 0 28 0;
#X connect 28 0 26 3;
#X connect 29 0 38 0;
#X connect 31 0 29 0;
#X connect 32 0 29 0;
#X connect 34 0 29 0;
#X connect 35 0 12 0;
#X connect 37 0 25 0;
#X connect 38 0 26 0;
#X connect 42 0 43 0;
#X connect 43 0 44 0;
#X connect 44 0 47 0;
#X connect 46 0 55 0;
#X connect 47 0 55 0;
#X connect 48 0 23 1;
#X connect 50 0 51 0;
#X connect 51 0 52 0;
#X connect 52 0 54 0;
#X connect 54 0 49 0;
#X connect 55 0 18 0;
#X connect 56 0 21 0;
#X connect 57 0 58 0;
#X connect 58 0 56 1;
#X connect 59 0 67 0;
#X connect 60 0 0 0;
#X connect 61 0 62 0;
#X connect 62 0 23 2;
#X connect 63 0 64 0;
#X connect 64 0 23 3;
#X connect 65 0 66 0;
#X connect 66 0 18 1;
#X connect 67 0 37 1;
