#N canvas 409 124 450 300 10;
#X obj 59 32 openpanel;
#X msg 64 59 open \$1;
#X msg 56 7 bang;
#X obj 94 131 pdp_qt;
#X obj 114 223 pdp_glx;
#X obj 172 69 metro 40;
#X msg 22 102 loop \$1;
#X obj 47 166 pdp_nervous;
#X obj 21 72 tgl 15 0 empty empty empty 0 -6 0 8 -262144 -1 -1 1 1
;
#X obj 137 188 pdp_warhol;
#X obj 271 70 vradio 15 1 0 8 empty empty empty 0 -6 0 8 -262144 -1
-1 6;
#X obj 268 42 hradio 15 1 0 8 empty empty empty 0 -6 0 8 -262144 -1
-1 7;
#X obj 176 35 tgl 15 0 empty empty empty 0 -6 0 8 -262144 -1 -1 0 1
;
#X connect 0 0 1 0;
#X connect 1 0 3 0;
#X connect 2 0 0 0;
#X connect 3 0 7 0;
#X connect 3 0 9 0;
#X connect 5 0 3 0;
#X connect 6 0 3 0;
#X connect 8 0 6 0;
#X connect 9 0 4 0;
#X connect 10 0 9 2;
#X connect 11 0 9 1;
#X connect 12 0 5 0;
