#N canvas 8 10 660 517 10;
#X obj 194 45 metro 40;
#X msg 88 111 open /dev/video0;
#X msg 443 167 record 0 160;
#X obj 468 227 pdp_loop;
#X obj 519 264 pdp_glx;
#X obj 94 216 pdp_nervous;
#X obj 85 154 pdp_v4l;
#X obj 299 323 pdp_loop;
#X obj 302 365 pdp_glx;
#X msg 274 263 record 0 80;
#X obj 49 302 pdp_glx;
#X msg 38 58 fullscreen;
#X text 228 111 record video in;
#X text 155 154 formats vidoe;
#X text 361 261 record 80 frames;
#X obj 347 44 pdp_ieee1394;
#X text 449 47 on a mac;
#X text 372 323 loop frames only for captured stuff;
#X connect 0 0 6 0;
#X connect 0 0 3 0;
#X connect 0 0 9 0;
#X connect 1 0 6 0;
#X connect 2 0 3 0;
#X connect 3 0 4 0;
#X connect 5 0 2 0;
#X connect 5 0 10 0;
#X connect 5 0 7 0;
#X connect 6 0 5 0;
#X connect 7 0 8 0;
#X connect 9 0 7 0;
