#N canvas 25 0 999 692 10;
#X msg 426 366 \; pd dsp 1;
#X obj 426 346 loadbang;
#X text 386 434 2006 \, <grh@mur.at>;
#N canvas 210 358 999 692 speaker 1;
#X obj 43 118 flite \$0-text;
#X obj 147 118 table \$0-text;
#X obj 43 165 tabplay~ \$0-text;
#X msg 43 141 bang;
#X obj 43 85 list;
#X obj 43 51 inlet text;
#X text 40 30 the text as a list;
#X obj 43 221 outlet~;
#X text 46 244 audio;
#X text 148 242 text finished;
#X obj 150 221 outlet finished;
#X text 236 66 the speech synthesis;
#X connect 0 0 3 0;
#X connect 2 0 7 0;
#X connect 2 1 10 0;
#X connect 3 0 2 0;
#X connect 4 0 0 0;
#X connect 5 0 4 0;
#X restore 112 355 pd speaker;
#N canvas 0 0 642 414 textfile_parser 0;
#X obj 109 312 textfile;
#X obj 65 136 inlet open;
#X obj 65 162 openpanel;
#X msg 109 214 read \$1 cr;
#X text 110 45 Little parser which uses [textfile] to parse files.
It will play the whole file !;
#X obj 65 186 t b b s;
#X msg 65 278 bang;
#X msg 87 246 rewind;
#X obj 109 340 outlet line;
#X text 110 361 one line of the text;
#X text 50 113 bang to open a file;
#X obj 331 138 inlet next_line;
#X text 320 117 bang to read next line;
#X obj 331 261 spigot 0;
#X msg 354 233 1;
#X msg 392 233 0;
#X connect 0 0 8 0;
#X connect 0 1 15 0;
#X connect 1 0 2 0;
#X connect 2 0 5 0;
#X connect 3 0 0 0;
#X connect 5 0 6 0;
#X connect 5 1 7 0;
#X connect 5 1 14 0;
#X connect 5 2 3 0;
#X connect 6 0 0 0;
#X connect 7 0 0 0;
#X connect 11 0 13 0;
#X connect 13 0 6 0;
#X connect 14 0 13 1;
#X connect 15 0 13 1;
#X restore 174 309 pd textfile_parser;
#X obj 174 284 bng 15 250 50 0 empty empty empty 0 -6 0 8 -262144 -1
-1;
#X obj 177 380 bng 15 250 50 0 empty empty empty 0 -6 0 8 -262144 -1
-1;
#X text 195 379 over;
#X text 195 283 <- open a textfile to read it;
#X obj 57 242 dumpOSC 9999;
#X obj 65 280 OSCroute /test;
#X obj 113 422 s~ alice;
#X obj 38 340 print;
#X obj 111 489 r~ alice;
#X obj 111 526 dac~;
#X text 218 498 test;
#X connect 1 0 0 0;
#X connect 3 0 11 0;
#X connect 3 1 6 0;
#X connect 4 0 3 0;
#X connect 5 0 4 0;
#X connect 6 0 4 1;
#X connect 9 0 10 0;
#X connect 10 0 3 0;
#X connect 10 0 12 0;
