#N canvas 0 0 999 692 10;
#X obj 13 68 *~ 3;
#X text 800 28 \$2 : doppler effect;
#N canvas 590 401 804 649 carttopol 0;
#X obj 36 137 cartopol;
#X obj 36 20 inlet;
#X obj 87 21 inlet;
#X obj 36 46 - 128;
#X obj 36 108 / 64;
#X obj 87 107 / 64;
#X msg 36 185 \$1 50;
#X obj 36 212 line~;
#X msg 106 186 \$1 50;
#X obj 106 212 line~;
#X obj 107 249 outlet~;
#X obj 37 249 outlet~;
#X obj 87 47 - 128;
#X obj 87 68 abs;
#X connect 0 0 6 0;
#X connect 0 1 8 0;
#X connect 1 0 3 0;
#X connect 2 0 12 0;
#X connect 3 0 4 0;
#X connect 4 0 0 1;
#X connect 5 0 0 0;
#X connect 6 0 7 0;
#X connect 7 0 11 0;
#X connect 8 0 9 0;
#X connect 9 0 10 0;
#X connect 12 0 13 0;
#X connect 13 0 5 0;
#X restore 97 63 pd carttopol;
#X text 800 76 \$4 : ampitude pan (0 to 1);
#X text 800 52 \$3 : pan time shift;
#X text 800 4 \$1 : distance to amplitude;
#X obj 13 41 bp~ 244 10;
#X obj 12 14 r~ sp1;
#X obj 13 129 s~ spout1;
#X obj 102 129 s~ spout2;
#X floatatom 103 26 4 0 0 0 - - -;
#X floatatom 140 26 4 0 0 0 - - -;
#X text 114 42 x;
#X text 151 42 y;
#X obj 103 2 unpack;
#X obj 103 -22 r s_1;
#N canvas 0 0 999 692 BOXING 0;
#X obj 9 7 cnv 15 600 400 empty empty empty 20 12 0 14 -1 -66577 0
;
#X obj 578 113 cnv 10 4 4 s_1 r_1 m1 20 12 0 10 -24198 -66577 0;
#X obj 82 40 cnv 10 4 4 s_2 r_1 m2 20 12 0 14 -24198 -66577 0;
#X obj 208 40 cnv 10 4 4 s_1 r_1 m3 20 12 2 14 -24198 -66577 0;
#X obj 73 133 cnv 10 4 4 s_4 r_1 m4 20 12 0 14 -24198 -66577 0;
#X obj 128 85 cnv 10 4 4 s_5 r_1 m5 20 12 0 14 -24198 -66577 0;
#X obj 378 117 cnv 10 4 4 s_6 r_1 m6 20 12 0 14 -24198 -66577 0;
#X obj 73 219 cnv 10 4 4 s_7 r_1 m7 20 12 0 14 -24198 -66577 0;
#X obj 204 217 cnv 10 4 4 s_8 r_1 m8 20 12 0 14 -24198 -66577 0;
#X restore 90 518 pd BOXING;
#X msg 59 550 \; r_1 get_pos;
#X obj 29 494 metro 100;
#X obj 55 474 tgl 15 1 empty empty empty 20 8 0 10 -262144 -1 -1 1
1;
#X obj 922 183 s~ sp1;
#X obj 841 106 r~ spout1;
#X obj 847 168 dac~;
#X obj 921 104 r~ spout2;
#X obj 13 95 spatialisation 10 10 20 1;
#X text 796 133 test;
#X obj 164 3 / 7;
#X obj 197 2 / 5;
#X obj 914 144 adc~;
#X obj 244 47 *~ 3;
#N canvas 590 401 804 649 carttopol 0;
#X obj 36 137 cartopol;
#X obj 36 20 inlet;
#X obj 87 21 inlet;
#X obj 36 46 - 128;
#X obj 36 108 / 64;
#X obj 87 107 / 64;
#X msg 36 185 \$1 50;
#X obj 36 212 line~;
#X msg 106 186 \$1 50;
#X obj 106 212 line~;
#X obj 107 249 outlet~;
#X obj 37 249 outlet~;
#X obj 87 47 - 128;
#X obj 87 68 abs;
#X connect 0 0 6 0;
#X connect 0 1 8 0;
#X connect 1 0 3 0;
#X connect 2 0 12 0;
#X connect 3 0 4 0;
#X connect 4 0 0 1;
#X connect 5 0 0 0;
#X connect 6 0 7 0;
#X connect 7 0 11 0;
#X connect 8 0 9 0;
#X connect 9 0 10 0;
#X connect 12 0 13 0;
#X connect 13 0 5 0;
#X restore 329 42 pd carttopol;
#X obj 244 20 bp~ 244 10;
#X floatatom 335 11 4 0 0 0 - - -;
#X floatatom 372 5 4 0 0 0 - - -;
#X text 346 19 x;
#X text 383 19 y;
#X obj 335 -16 unpack;
#X obj 244 74 spatialisation 10 10 20 1;
#X obj 396 -19 / 7;
#X obj 429 -19 / 5;
#X obj 480 41 *~ 3;
#N canvas 590 401 804 649 carttopol 0;
#X obj 36 137 cartopol;
#X obj 36 20 inlet;
#X obj 87 21 inlet;
#X obj 36 46 - 128;
#X obj 36 108 / 64;
#X obj 87 107 / 64;
#X msg 36 185 \$1 50;
#X obj 36 212 line~;
#X msg 106 186 \$1 50;
#X obj 106 212 line~;
#X obj 107 249 outlet~;
#X obj 37 249 outlet~;
#X obj 87 47 - 128;
#X obj 87 68 abs;
#X connect 0 0 6 0;
#X connect 0 1 8 0;
#X connect 1 0 3 0;
#X connect 2 0 12 0;
#X connect 3 0 4 0;
#X connect 4 0 0 1;
#X connect 5 0 0 0;
#X connect 6 0 7 0;
#X connect 7 0 11 0;
#X connect 8 0 9 0;
#X connect 9 0 10 0;
#X connect 12 0 13 0;
#X connect 13 0 5 0;
#X restore 565 36 pd carttopol;
#X obj 480 14 bp~ 244 10;
#X floatatom 571 5 4 0 0 0 - - -;
#X floatatom 608 -1 4 0 0 0 - - -;
#X text 582 13 x;
#X text 619 13 y;
#X obj 571 -22 unpack;
#X obj 480 68 spatialisation 10 10 20 1;
#X obj 632 -25 / 7;
#X obj 665 -25 / 5;
#X obj 457 242 *~ 3;
#N canvas 590 401 804 649 carttopol 0;
#X obj 36 137 cartopol;
#X obj 36 20 inlet;
#X obj 87 21 inlet;
#X obj 36 46 - 128;
#X obj 36 108 / 64;
#X obj 87 107 / 64;
#X msg 36 185 \$1 50;
#X obj 36 212 line~;
#X msg 106 186 \$1 50;
#X obj 106 212 line~;
#X obj 107 249 outlet~;
#X obj 37 249 outlet~;
#X obj 87 47 - 128;
#X obj 87 68 abs;
#X connect 0 0 6 0;
#X connect 0 1 8 0;
#X connect 1 0 3 0;
#X connect 2 0 12 0;
#X connect 3 0 4 0;
#X connect 4 0 0 1;
#X connect 5 0 0 0;
#X connect 6 0 7 0;
#X connect 7 0 11 0;
#X connect 8 0 9 0;
#X connect 9 0 10 0;
#X connect 12 0 13 0;
#X connect 13 0 5 0;
#X restore 542 237 pd carttopol;
#X obj 457 215 bp~ 244 10;
#X floatatom 548 206 4 0 0 0 - - -;
#X floatatom 585 200 4 0 0 0 - - -;
#X text 559 214 x;
#X text 596 214 y;
#X obj 548 179 unpack;
#X obj 457 269 spatialisation 10 10 20 1;
#X obj 609 176 / 7;
#X obj 642 176 / 5;
#X obj 248 228 *~ 3;
#N canvas 590 401 804 649 carttopol 0;
#X obj 36 137 cartopol;
#X obj 36 20 inlet;
#X obj 87 21 inlet;
#X obj 36 46 - 128;
#X obj 36 108 / 64;
#X obj 87 107 / 64;
#X msg 36 185 \$1 50;
#X obj 36 212 line~;
#X msg 106 186 \$1 50;
#X obj 106 212 line~;
#X obj 107 249 outlet~;
#X obj 37 249 outlet~;
#X obj 87 47 - 128;
#X obj 87 68 abs;
#X connect 0 0 6 0;
#X connect 0 1 8 0;
#X connect 1 0 3 0;
#X connect 2 0 12 0;
#X connect 3 0 4 0;
#X connect 4 0 0 1;
#X connect 5 0 0 0;
#X connect 6 0 7 0;
#X connect 7 0 11 0;
#X connect 8 0 9 0;
#X connect 9 0 10 0;
#X connect 12 0 13 0;
#X connect 13 0 5 0;
#X restore 333 223 pd carttopol;
#X obj 248 201 bp~ 244 10;
#X floatatom 339 192 4 0 0 0 - - -;
#X floatatom 376 186 4 0 0 0 - - -;
#X text 350 200 x;
#X text 387 200 y;
#X obj 339 165 unpack;
#X obj 248 255 spatialisation 10 10 20 1;
#X obj 400 162 / 7;
#X obj 433 162 / 5;
#X obj 6 245 *~ 3;
#N canvas 590 401 804 649 carttopol 0;
#X obj 36 137 cartopol;
#X obj 36 20 inlet;
#X obj 87 21 inlet;
#X obj 36 46 - 128;
#X obj 36 108 / 64;
#X obj 87 107 / 64;
#X msg 36 185 \$1 50;
#X obj 36 212 line~;
#X msg 106 186 \$1 50;
#X obj 106 212 line~;
#X obj 107 249 outlet~;
#X obj 37 249 outlet~;
#X obj 87 47 - 128;
#X obj 87 68 abs;
#X connect 0 0 6 0;
#X connect 0 1 8 0;
#X connect 1 0 3 0;
#X connect 2 0 12 0;
#X connect 3 0 4 0;
#X connect 4 0 0 1;
#X connect 5 0 0 0;
#X connect 6 0 7 0;
#X connect 7 0 11 0;
#X connect 8 0 9 0;
#X connect 9 0 10 0;
#X connect 12 0 13 0;
#X connect 13 0 5 0;
#X restore 91 240 pd carttopol;
#X obj 6 218 bp~ 244 10;
#X floatatom 97 209 4 0 0 0 - - -;
#X floatatom 134 203 4 0 0 0 - - -;
#X text 108 217 x;
#X text 145 217 y;
#X obj 97 182 unpack;
#X obj 6 272 spatialisation 10 10 20 1;
#X obj 158 179 / 7;
#X obj 191 179 / 5;
#X obj 121 402 *~ 3;
#N canvas 590 401 804 649 carttopol 0;
#X obj 36 137 cartopol;
#X obj 36 20 inlet;
#X obj 87 21 inlet;
#X obj 36 46 - 128;
#X obj 36 108 / 64;
#X obj 87 107 / 64;
#X msg 36 185 \$1 50;
#X obj 36 212 line~;
#X msg 106 186 \$1 50;
#X obj 106 212 line~;
#X obj 107 249 outlet~;
#X obj 37 249 outlet~;
#X obj 87 47 - 128;
#X obj 87 68 abs;
#X connect 0 0 6 0;
#X connect 0 1 8 0;
#X connect 1 0 3 0;
#X connect 2 0 12 0;
#X connect 3 0 4 0;
#X connect 4 0 0 1;
#X connect 5 0 0 0;
#X connect 6 0 7 0;
#X connect 7 0 11 0;
#X connect 8 0 9 0;
#X connect 9 0 10 0;
#X connect 12 0 13 0;
#X connect 13 0 5 0;
#X restore 206 397 pd carttopol;
#X obj 121 375 bp~ 244 10;
#X floatatom 212 366 4 0 0 0 - - -;
#X floatatom 249 360 4 0 0 0 - - -;
#X text 223 374 x;
#X text 260 374 y;
#X obj 212 339 unpack;
#X obj 121 429 spatialisation 10 10 20 1;
#X obj 273 336 / 7;
#X obj 306 336 / 5;
#X obj 346 424 *~ 3;
#N canvas 590 401 804 649 carttopol 0;
#X obj 36 137 cartopol;
#X obj 36 20 inlet;
#X obj 87 21 inlet;
#X obj 36 46 - 128;
#X obj 36 108 / 64;
#X obj 87 107 / 64;
#X msg 36 185 \$1 50;
#X obj 36 212 line~;
#X msg 106 186 \$1 50;
#X obj 106 212 line~;
#X obj 107 249 outlet~;
#X obj 37 249 outlet~;
#X obj 87 47 - 128;
#X obj 87 68 abs;
#X connect 0 0 6 0;
#X connect 0 1 8 0;
#X connect 1 0 3 0;
#X connect 2 0 12 0;
#X connect 3 0 4 0;
#X connect 4 0 0 1;
#X connect 5 0 0 0;
#X connect 6 0 7 0;
#X connect 7 0 11 0;
#X connect 8 0 9 0;
#X connect 9 0 10 0;
#X connect 12 0 13 0;
#X connect 13 0 5 0;
#X restore 431 419 pd carttopol;
#X obj 346 397 bp~ 244 10;
#X floatatom 437 388 4 0 0 0 - - -;
#X floatatom 474 382 4 0 0 0 - - -;
#X text 448 396 x;
#X text 485 396 y;
#X obj 437 361 unpack;
#X obj 346 451 spatialisation 10 10 20 1;
#X obj 498 358 / 7;
#X obj 531 358 / 5;
#X obj 244 -7 r~ sp2;
#X obj 479 -14 r~ sp3;
#X obj 6 191 r~ sp4;
#X obj 248 174 r~ sp5;
#X obj 456 188 r~ sp6;
#X obj 120 349 r~ sp7;
#X obj 346 369 r~ sp8;
#X obj 335 -43 r s_2;
#X obj 571 -49 r s_3;
#X obj 97 155 r s_4;
#X obj 245 108 s~ spout3;
#X obj 334 108 s~ spout4;
#X obj 481 102 s~ spout5;
#X obj 569 102 s~ spout6;
#X obj 8 305 s~ spout7;
#X obj 94 307 s~ spout8;
#X obj 249 288 s~ spout9;
#X obj 337 288 s~ spout10;
#X obj 459 303 s~ spout11;
#X obj 548 302 s~ spout12;
#X obj 122 463 s~ spout13;
#X obj 211 462 s~ spout14;
#X obj 347 485 s~ spout15;
#X obj 436 486 s~ spout16;
#X obj 339 138 r s_5;
#X obj 547 151 r s_6;
#X obj 212 312 r s_7;
#X obj 437 334 r s_8;
#X connect 0 0 24 0;
#X connect 2 0 24 1;
#X connect 2 1 24 2;
#X connect 6 0 0 0;
#X connect 7 0 6 0;
#X connect 10 0 26 0;
#X connect 11 0 27 0;
#X connect 14 0 10 0;
#X connect 14 1 11 0;
#X connect 15 0 14 0;
#X connect 18 0 17 0;
#X connect 19 0 18 0;
#X connect 24 0 8 0;
#X connect 24 1 9 0;
#X connect 26 0 2 1;
#X connect 27 0 2 0;
#X connect 29 0 37 0;
#X connect 30 0 37 1;
#X connect 30 1 37 2;
#X connect 31 0 29 0;
#X connect 32 0 38 0;
#X connect 33 0 39 0;
#X connect 36 0 32 0;
#X connect 36 1 33 0;
#X connect 37 0 116 0;
#X connect 37 1 117 0;
#X connect 38 0 30 1;
#X connect 39 0 30 0;
#X connect 40 0 48 0;
#X connect 41 0 48 1;
#X connect 41 1 48 2;
#X connect 42 0 40 0;
#X connect 43 0 49 0;
#X connect 44 0 50 0;
#X connect 47 0 43 0;
#X connect 47 1 44 0;
#X connect 48 0 118 0;
#X connect 48 1 119 0;
#X connect 49 0 41 1;
#X connect 50 0 41 0;
#X connect 51 0 59 0;
#X connect 52 0 59 1;
#X connect 52 1 59 2;
#X connect 53 0 51 0;
#X connect 54 0 60 0;
#X connect 55 0 61 0;
#X connect 58 0 54 0;
#X connect 58 1 55 0;
#X connect 59 0 124 0;
#X connect 59 1 125 0;
#X connect 60 0 52 1;
#X connect 61 0 52 0;
#X connect 62 0 70 0;
#X connect 63 0 70 1;
#X connect 63 1 70 2;
#X connect 64 0 62 0;
#X connect 65 0 71 0;
#X connect 66 0 72 0;
#X connect 69 0 65 0;
#X connect 69 1 66 0;
#X connect 70 0 122 0;
#X connect 70 1 123 0;
#X connect 71 0 63 1;
#X connect 72 0 63 0;
#X connect 73 0 81 0;
#X connect 74 0 81 1;
#X connect 74 1 81 2;
#X connect 75 0 73 0;
#X connect 76 0 82 0;
#X connect 77 0 83 0;
#X connect 80 0 76 0;
#X connect 80 1 77 0;
#X connect 81 0 120 0;
#X connect 81 1 121 0;
#X connect 82 0 74 1;
#X connect 83 0 74 0;
#X connect 84 0 92 0;
#X connect 85 0 92 1;
#X connect 85 1 92 2;
#X connect 86 0 84 0;
#X connect 87 0 93 0;
#X connect 88 0 94 0;
#X connect 91 0 87 0;
#X connect 91 1 88 0;
#X connect 92 0 126 0;
#X connect 92 1 127 0;
#X connect 93 0 85 1;
#X connect 94 0 85 0;
#X connect 95 0 103 0;
#X connect 96 0 103 1;
#X connect 96 1 103 2;
#X connect 97 0 95 0;
#X connect 98 0 104 0;
#X connect 99 0 105 0;
#X connect 102 0 98 0;
#X connect 102 1 99 0;
#X connect 103 0 128 0;
#X connect 103 1 129 0;
#X connect 104 0 96 1;
#X connect 105 0 96 0;
#X connect 106 0 31 0;
#X connect 107 0 42 0;
#X connect 108 0 75 0;
#X connect 109 0 64 0;
#X connect 110 0 53 0;
#X connect 111 0 86 0;
#X connect 112 0 97 0;
#X connect 113 0 36 0;
#X connect 114 0 47 0;
#X connect 115 0 80 0;
#X connect 130 0 69 0;
#X connect 131 0 58 0;
#X connect 132 0 91 0;
#X connect 133 0 102 0;
