#N canvas 25 76 999 692 10;
#X obj 29 114 metro 50;
#X floatatom 80 89 5 0 0 0 - - -;
#X floatatom 74 285 5 0 0 0 - - -;
#X text 113 161 Reset To Initial Conditions;
#X text 115 212 Modify Parameters;
#X floatatom 29 285 5 0 0 0 - - -;
#X floatatom 120 285 5 0 0 0 - - -;
#X text 58 258 Output;
#X obj 29 177 rossler;
#X msg 115 193 param 0.01 0.39 0.4 5.8;
#X msg 114 143 reset 0.1 0 0;
#X obj 80 320 * 4;
#X obj 94 356 osc~;
#X obj 141 316 * 1;
#X text 114 31 uses chaos attractors external;
#X obj 69 51 r ross_speed;
#X obj 76 448 s~ rossl_out;
#X obj 32 25 loadbang;
#X connect 0 0 8 0;
#X connect 1 0 0 1;
#X connect 2 0 13 0;
#X connect 5 0 11 0;
#X connect 6 0 13 1;
#X connect 8 0 5 0;
#X connect 8 1 2 0;
#X connect 8 2 6 0;
#X connect 9 0 8 0;
#X connect 10 0 8 0;
#X connect 11 0 12 0;
#X connect 12 0 16 0;
#X connect 13 0 12 1;
#X connect 15 0 0 1;
#X connect 17 0 0 0;
