#N canvas 0 0 999 624 10;
#X obj 247 173 adc~ 2;
#X obj 178 173 adc~ 1;
#X obj 311 171 adc~ 3;
#X obj 379 171 adc~ 4;
#X obj 445 173 adc~ 5;
#X obj 513 173 adc~ 6;
#X obj 577 171 adc~ 7;
#X obj 646 171 adc~ 8;
#X obj 176 218 s~ s1;
#X obj 246 221 s~ s2;
#X obj 308 223 s~ s3;
#X obj 379 228 s~ s4;
#X obj 444 220 s~ s5;
#X obj 513 223 s~ s6;
#X obj 577 227 s~ s7;
#X obj 647 230 s~ s8;
#X obj 215 301 r~ o1;
#X obj 308 296 r~ o2;
#X obj 214 333 dac~ 9;
#X obj 309 333 dac~ 10;
#X connect 0 0 9 0;
#X connect 1 0 8 0;
#X connect 2 0 10 0;
#X connect 3 0 11 0;
#X connect 4 0 12 0;
#X connect 5 0 13 0;
#X connect 6 0 14 0;
#X connect 7 0 15 0;
#X connect 16 0 18 0;
#X connect 17 0 19 0;
