#N canvas 0 0 999 692 10;
#X floatatom 140 214 0 0 0 0 - - -;
#X obj 147 151 + 1;
#X msg 147 47 bang;
#X msg 56 105 stop;
#X obj 147 125 float;
#X obj 147 73 trigger bang bang;
#X obj 56 79 select 10;
#X obj 147 174 mod 8;
#X obj 174 195 + 1;
#X floatatom 206 40 5 0 0 0 - - -;
#X obj 294 72 * 100;
#X obj 194 240 s counter1;
#X obj 305 38 r jekyll1;
#X floatatom 418 217 0 0 0 0 - - -;
#X obj 425 154 + 1;
#X msg 425 50 bang;
#X obj 425 128 float;
#X obj 425 76 trigger bang bang;
#X obj 425 177 mod 8;
#X obj 452 198 + 1;
#X floatatom 484 43 5 0 0 0 - - -;
#X obj 57 8 loadbang;
#X obj 593 34 r jekyll2;
#X obj 472 243 s counter2;
#X floatatom 69 463 0 0 0 0 - - -;
#X obj 76 400 + 1;
#X msg 76 296 bang;
#X obj 76 374 float;
#X obj 76 322 trigger bang bang;
#X obj 76 423 mod 8;
#X obj 103 444 + 1;
#X floatatom 135 289 5 0 0 0 - - -;
#X floatatom 342 491 0 0 0 0 - - -;
#X obj 349 428 + 1;
#X msg 349 324 bang;
#X obj 349 402 float;
#X obj 349 350 trigger bang bang;
#X obj 349 451 mod 8;
#X obj 376 472 + 1;
#X floatatom 408 317 5 0 0 0 - - -;
#X obj 235 283 r jekyll3;
#X obj 123 489 s counter3;
#X obj 507 313 r jekyll4;
#X obj 396 517 s counter4;
#X obj 774 134 metro 5000;
#X obj 816 48 r jbang1;
#X obj 810 208 * 100;
#X obj 813 170 r jbang2;
#X obj 809 321 r jbang3;
#X obj 806 442 r jbang4;
#X obj 763 527 metro 50;
#X obj 739 392 metro 500;
#X obj 807 357 * 10;
#X obj 812 86 * 100;
#X obj 685 171 s bang1;
#X obj 687 278 s bang2;
#X obj 705 460 s bang3;
#X obj 708 566 s bang4;
#X obj 781 172 tgl 15 0 empty empty empty 0 -6 0 8 -262144 -1 -1 1
1;
#X obj 771 441 tgl 15 0 empty empty empty 0 -6 0 8 -262144 -1 -1 0
1;
#X obj 771 441 tgl 15 0 empty empty empty 0 -6 0 8 -262144 -1 -1 0
1;
#X obj 769 560 tgl 15 0 empty empty empty 0 -6 0 8 -262144 -1 -1 0
1;
#X obj 769 560 tgl 15 0 empty empty empty 0 -6 0 8 -262144 -1 -1 1
1;
#X obj 349 375 metro 50;
#X obj 76 347 metro 100;
#X obj 147 99 metro 1000;
#X obj 223 320 * 10;
#X obj 425 103 metro 100;
#X obj 590 72 * 50;
#X obj 767 249 metro 1000;
#X obj 760 299 tgl 15 0 empty empty empty 0 -6 0 8 -262144 -1 -1 0
1;
#X connect 1 0 4 1;
#X connect 1 0 7 0;
#X connect 2 0 5 0;
#X connect 4 0 1 0;
#X connect 5 0 65 0;
#X connect 6 0 3 0;
#X connect 7 0 8 0;
#X connect 8 0 0 0;
#X connect 8 0 11 0;
#X connect 9 0 10 0;
#X connect 10 0 65 1;
#X connect 12 0 10 0;
#X connect 14 0 16 1;
#X connect 14 0 18 0;
#X connect 15 0 17 0;
#X connect 16 0 14 0;
#X connect 17 0 67 0;
#X connect 18 0 19 0;
#X connect 19 0 13 0;
#X connect 19 0 23 0;
#X connect 20 0 68 0;
#X connect 21 0 2 0;
#X connect 21 0 15 0;
#X connect 21 0 26 0;
#X connect 21 0 34 0;
#X connect 21 0 44 0;
#X connect 21 0 50 0;
#X connect 21 0 51 0;
#X connect 21 0 69 0;
#X connect 22 0 68 0;
#X connect 25 0 27 1;
#X connect 25 0 29 0;
#X connect 26 0 28 0;
#X connect 27 0 25 0;
#X connect 28 0 64 0;
#X connect 29 0 30 0;
#X connect 30 0 24 0;
#X connect 30 0 41 0;
#X connect 31 0 66 0;
#X connect 33 0 35 1;
#X connect 33 0 37 0;
#X connect 34 0 36 0;
#X connect 35 0 33 0;
#X connect 36 0 63 0;
#X connect 37 0 38 0;
#X connect 38 0 32 0;
#X connect 38 0 43 0;
#X connect 39 0 63 1;
#X connect 40 0 66 0;
#X connect 42 0 63 1;
#X connect 44 0 54 0;
#X connect 44 0 58 0;
#X connect 45 0 53 0;
#X connect 46 0 69 1;
#X connect 47 0 46 0;
#X connect 48 0 52 0;
#X connect 49 0 50 1;
#X connect 50 0 57 0;
#X connect 50 0 62 0;
#X connect 51 0 56 0;
#X connect 51 0 60 0;
#X connect 52 0 51 1;
#X connect 53 0 44 1;
#X connect 63 0 35 0;
#X connect 64 0 27 0;
#X connect 65 0 4 0;
#X connect 66 0 64 1;
#X connect 67 0 16 0;
#X connect 68 0 67 1;
#X connect 69 0 70 0;
#X connect 69 0 55 0;
