#N canvas 0 0 999 692 10;
#X msg 106 175 1 \$1;
#X msg 104 198 2 \$1;
#X msg 104 221 3 \$1;
#X floatatom 77 139 0 0 0 0 - - -;
#X floatatom 70 172 0 0 0 0 - - -;
#X floatatom 69 201 0 0 0 0 - - -;
#X floatatom 95 95 0 0 0 0 - - -;
#X msg 105 143 0 \$1;
#X obj 305 290 mixer~ 8 _______________________;
#X floatatom 76 296 0 0 0 0 - - -;
#X floatatom 65 322 0 0 0 0 - - -;
#X floatatom 54 346 0 0 0 0 - - -;
#X floatatom 84 265 0 0 0 0 - - -;
#X msg 100 288 4 \$1;
#X msg 101 319 5 \$1;
#X msg 99 344 6 \$1;
#X msg 99 366 7 \$1;
#X obj 48 92 r m1;
#X obj 39 121 r m2;
#X obj 29 160 r m3;
#X obj 24 194 r m4;
#X obj 25 232 r m5;
#X obj 15 260 r m6;
#X obj 4 299 r m7;
#X obj 1 334 r m8;
#X obj 309 383 s~ mixout1;
#X obj 304 213 r~ mix1;
#X obj 359 213 r~ mix2;
#X obj 415 209 r~ mix3;
#X obj 470 201 r~ mix4;
#X obj 531 199 r~ mix5;
#X obj 593 200 r~ mix6;
#X obj 659 199 r~ mix7;
#X obj 726 196 r~ mix8;
#X connect 0 0 8 0;
#X connect 1 0 8 0;
#X connect 2 0 8 0;
#X connect 3 0 0 0;
#X connect 4 0 1 0;
#X connect 5 0 2 0;
#X connect 6 0 7 0;
#X connect 7 0 8 0;
#X connect 8 0 25 0;
#X connect 9 0 14 0;
#X connect 10 0 15 0;
#X connect 11 0 16 0;
#X connect 12 0 13 0;
#X connect 13 0 8 0;
#X connect 14 0 8 0;
#X connect 15 0 8 0;
#X connect 17 0 7 0;
#X connect 18 0 0 0;
#X connect 19 0 1 0;
#X connect 20 0 2 0;
#X connect 21 0 13 0;
#X connect 22 0 14 0;
#X connect 23 0 15 0;
#X connect 24 0 16 0;
#X connect 26 0 8 1;
#X connect 27 0 8 2;
#X connect 28 0 8 3;
#X connect 29 0 8 4;
#X connect 30 0 8 5;
#X connect 31 0 8 6;
#X connect 32 0 8 7;
#X connect 33 0 8 8;
