#N canvas 0 0 999 692 10;
#X text 57 26 select one channel only for output;
#X obj 306 27 r final_select;
#X floatatom 239 78 5 0 0 0 - - -;
#X obj 346 309 s~ sel1;
#X floatatom 418 38 5 0 0 0 - - -;
#X obj 343 55 mod 8;
#X obj 319 81 + 1;
#X obj 200 124 r~ so1;
#X obj 244 125 r~ so2;
#X obj 294 125 r~ so3;
#X obj 339 125 r~ so4;
#X obj 390 124 r~ so5;
#X obj 441 123 r~ so6;
#X obj 281 150 r~ so7;
#X obj 324 150 r~ so8;
#X obj 316 198 mux~ . . . . . . . .;
#X connect 1 0 2 0;
#X connect 1 0 5 0;
#X connect 4 0 5 0;
#X connect 5 0 6 0;
#X connect 6 0 15 0;
#X connect 7 0 15 0;
#X connect 8 0 15 1;
#X connect 9 0 15 2;
#X connect 10 0 15 3;
#X connect 11 0 15 4;
#X connect 12 0 15 5;
#X connect 13 0 15 6;
#X connect 14 0 15 7;
#X connect 15 0 3 0;
