#N canvas 0 0 999 692 12;
#N canvas 0 0 999 692 fiddler 0;
#X obj 215 212 outlet;
#X obj 262 522 phasor~;
#X obj 531 616 unpack;
#X floatatom 531 666 0 0 0 0 - - -;
#X msg 437 449 print;
#X obj 262 500 sig~;
#X floatatom 262 478 0 0 0 0 - - -;
#X obj 262 456 mtof;
#X floatatom 262 434 0 0 0 0 - - -;
#X floatatom 545 643 0 0 0 0 - - -;
#X obj 531 576 route 1 2 3 4;
#X obj 614 616 unpack;
#X floatatom 614 666 0 0 0 0 - - -;
#X floatatom 628 643 0 0 0 0 - - -;
#X obj 698 616 unpack;
#X floatatom 698 666 0 0 0 0 - - -;
#X floatatom 712 643 0 0 0 0 - - -;
#X obj 389 616 unpack;
#X floatatom 210 580 0 0 0 0 - - -;
#X floatatom 403 643 0 0 0 0 - - -;
#X obj 334 545 *~;
#X obj 322 394 loadbang;
#X obj 353 522 sig~;
#X floatatom 353 500 0 0 0 0 - - -;
#X msg 322 478 1;
#X msg 353 478 0;
#X floatatom 496 441 0 0 0 0 - - -;
#X msg 555 45 \; pd dsp 1;
#X text 460 39 click here;
#X text 460 61 to start DSP;
#X text 669 535 number of pitch outlets (1-3 \, default 1);
#X text 669 557 number of peaks to find (1-100 \, default 20);
#X text 669 579 number of peaks to output (default 0.);
#X msg 441 107 amp-range 40 50;
#X msg 439 227 reattack 100 10;
#X msg 438 282 npartial 7;
#X msg 438 170 vibrato 50 0.5;
#X text 560 91 a low and high amplitude threshold: if signal amplitude
is below the low threshold \, no pitches or peaks are output. The high
threshold is a minimum at which cooked outputs may appear.;
#X text 560 152 A period in milliseconds (50) over which the raw pitch
may not deviate more than an interval in half-tones (0.5) from the
average pitch to report it as a note to the cooked pitch outlet.;
#X text 560 213 A period in milliseconds (100) over which a re-attack
is reported if the amplitude rises more than (1) dB. The re-attack
will result in a bang in the attack outlet and may give rise to repeated
notes in the cooked pitch output.;
#X text 330 444 test input;
#X text 330 457 amplitude;
#X obj 410 545 fiddle~ 1024 1 20 3;
#X text 538 690 individual sinusoidal components;
#X text 466 688 amplitude;
#X text 476 703 (dB);
#X text 389 688 raw pitch;
#X text 376 712 and amplitude;
#X text 364 729 (up to 3 outputs);
#X text 287 708 attack;
#X text 545 545 ------ arguments:;
#X msg 262 412 57;
#X msg 440 340 auto 1;
#X msg 440 362 auto 0;
#X msg 440 407 bang;
#X text 561 405 poll current values --- useful if not in auto mode
\,;
#X text 560 274 Higher partials are weighed less strongly than lower
ones in determining the pitch. This specifies the number of the partial
(7) which will be weighted half as strongly as the fundamental.;
#X text 560 335 start and stop auto mode (on by default.) If off \,
output only appears on bang (poll mode).;
#X text 561 448 print out all settings;
#X text 669 513 window size (128-2048 \, default 1024);
#X obj 226 63 inlet~;
#X connect 1 0 20 0;
#X connect 2 0 3 0;
#X connect 2 1 9 0;
#X connect 4 0 42 0;
#X connect 5 0 1 0;
#X connect 6 0 5 0;
#X connect 7 0 6 0;
#X connect 8 0 7 0;
#X connect 10 0 2 0;
#X connect 10 1 11 0;
#X connect 10 2 14 0;
#X connect 11 0 12 0;
#X connect 11 1 13 0;
#X connect 14 0 15 0;
#X connect 14 1 16 0;
#X connect 17 0 18 0;
#X connect 17 1 19 0;
#X connect 18 0 0 0;
#X connect 21 0 51 0;
#X connect 21 0 24 0;
#X connect 22 0 20 1;
#X connect 23 0 22 0;
#X connect 24 0 23 0;
#X connect 25 0 23 0;
#X connect 33 0 42 0;
#X connect 34 0 42 0;
#X connect 35 0 42 0;
#X connect 36 0 42 0;
#X connect 42 2 17 0;
#X connect 42 3 26 0;
#X connect 42 4 10 0;
#X connect 51 0 8 0;
#X connect 52 0 42 0;
#X connect 53 0 42 0;
#X connect 54 0 42 0;
#X connect 60 0 42 0;
#X restore 259 179 pd fiddler;
#X floatatom 201 281 5 0 0 0 - - -;
#X obj 261 212 threshold~ 10 100 10 100;
#X obj 300 101 r~ which one1;
#X obj 302 266 s fidtrig1;
#X floatatom 294 331 5 0 0 0 - - -;
#X obj 345 316 tgl 15 0 empty empty empty 0 -6 0 8 -262144 -1 -1 1
1;
#X obj 160 249 s rawamp;
#X connect 0 0 1 0;
#X connect 0 0 2 0;
#X connect 1 0 7 0;
#X connect 2 0 4 0;
#X connect 2 0 5 0;
#X connect 2 0 6 0;
#X connect 3 0 0 0;
