#N canvas 381 213 1380 771 10;
#X obj 172 491 ../cmp/mixer;
#X obj 292 505 ../cmp/mixer;
#X obj 209 736 dac~ 1 2 3 4 5 6 7 8;
#X obj 181 439 *~ 1;
#X obj 131 243 ../cmp/envelope;
#X obj 180 404 *~ 1;
#X obj 415 492 hip~ 5;
#X obj 461 216 osc~;
#X obj 482 241 tgl 18 0 empty empty empty 0 -6 0 8 -262144 -1 -1 1
1;
#X obj 460 266 *~;
#X obj 504 216 osc~;
#X obj 525 241 tgl 18 0 empty empty empty 0 -6 0 8 -262144 -1 -1 1
1;
#X obj 503 266 *~;
#X obj 504 193 * 2;
#X obj 547 216 osc~;
#X obj 568 241 tgl 18 0 empty empty empty 0 -6 0 8 -262144 -1 -1 1
1;
#X obj 546 266 *~;
#X obj 590 216 osc~;
#X obj 611 241 tgl 18 0 empty empty empty 0 -6 0 8 -262144 -1 -1 1
1;
#X obj 589 266 *~;
#X obj 633 216 osc~;
#X obj 654 241 tgl 18 0 empty empty empty 0 -6 0 8 -262144 -1 -1 1
1;
#X obj 632 266 *~;
#X obj 461 193 * 1;
#X text 682 240 <-- On/Off;
#X obj 416 361 *~;
#X text 700 224 partials;
#X obj 554 392 osc~;
#X floatatom 554 333 3 0 200 0 - - -;
#X obj 554 361 *;
#X obj 418 154 * 1;
#X obj 418 132 mtof;
#X obj 420 110 hsl 128 15 0 127 0 0 empty empty empty -2 -8 0 10 -262144
-1 -1 5700 1;
#X obj 418 216 osc~;
#X obj 439 241 tgl 18 0 empty empty empty 0 -6 0 8 -262144 -1 -1 1
1;
#X obj 417 266 *~;
#X obj 418 193 * 0;
#X floatatom 595 348 5 0 0 0 - - -;
#X msg 597 324 16;
#X obj 417 65 line 0 10;
#X obj 417 89 int;
#X msg 417 42 \$1 \, \$2 \$3;
#X obj 558 -11 hsl 128 15 0 127 0 0 empty empty empty -2 -8 0 10 -262144
-1 -1 12200 1;
#X obj 591 7 hsl 128 15 0 127 0 0 empty empty empty -2 -8 0 10 -262144
-1 -1 5700 1;
#X obj 624 26 hsl 128 15 0 2000 0 0 empty empty empty -2 -8 0 10 -262144
-1 -1 1200 1;
#X obj 555 47 pack f f f;
#X obj 557 95 list;
#X msg 580 69 list \$1 \$2 \$3;
#X obj 556 73 bng 15 250 50 0 empty empty empty 17 7 0 10 -262144 -1
-1;
#X obj 599 26 bng 15 250 50 0 empty empty empty 17 7 0 10 -262144 -1
-1;
#X obj 123 55 ../cmp/multi_osc1;
#X obj 547 193 * 4;
#X obj 590 193 * 8;
#X obj 633 193 * 16;
#X obj 697 77 metro 100;
#X obj 755 52 hsl 128 15 100 10000 1 0 empty empty empty -2 -8 0 10
-262144 -1 -1 7700 1;
#X obj 696 57 tgl 15 0 empty empty empty 17 7 0 10 -262144 -1 -1 1
1;
#X floatatom 849 50 5 0 0 0 - - -;
#X floatatom 651 -10 5 0 0 0 - - -;
#X floatatom 681 8 5 0 0 0 - - -;
#X floatatom 711 26 5 0 0 0 - - -;
#X obj 494 562 scope;
#X obj 955 425 *~;
#X obj 970 401 line~;
#X obj 879 357 cos~;
#X obj 879 332 +~;
#X obj 970 378 pack 0 50;
#X floatatom 970 330 0 0 300 0 - - -;
#X obj 970 354 / 100;
#X obj 879 307 phasor~;
#X obj 954 306 osc~;
#X floatatom 879 236 3 0 15 0 - - -;
#X obj 879 283 *;
#X obj 954 285 *;
#X floatatom 954 238 3 0 15 0 - - -;
#X text 960 252 mod 1;
#X text 999 332 index1;
#X obj 1058 427 *~;
#X obj 1073 403 line~;
#X obj 1073 380 pack 0 50;
#X floatatom 1073 332 0 0 300 0 - - -;
#X obj 1073 356 / 100;
#X obj 1057 308 osc~;
#X obj 1057 287 *;
#X floatatom 1057 240 3 0 15 0 - - -;
#X text 1063 254 mod 2;
#X text 1107 332 index2;
#X obj 983 687 *~ 1;
#X obj 933 491 ../cmp/envelope;
#X obj 982 652 *~ 1;
#X obj 883 179 hsl 128 15 0 127 0 0 empty empty empty -2 -8 0 10 -262144
-1 -1 100 1;
#X obj 956 201 hsl 128 15 0 127 0 0 empty empty empty -2 -8 0 10 -262144
-1 -1 200 1;
#X obj 1058 220 hsl 128 15 0 127 0 0 empty empty empty -2 -8 0 10 -262144
-1 -1 7500 1;
#X obj 1154 257 hsl 128 15 0 127 0 0 empty empty empty -2 -8 0 10 -262144
-1 -1 8400 1;
#X obj 879 258 mtof;
#X obj 804 126 metro 100;
#X floatatom 875 76 5 0 0 0 - - -;
#X obj 851 98 / 1;
#X obj 891 101 bng 15 250 50 0 empty empty empty 17 7 0 10 -262144
-1 -1;
#X connect 0 0 2 0;
#X connect 0 0 61 0;
#X connect 0 1 2 1;
#X connect 1 0 2 4;
#X connect 1 0 2 5;
#X connect 1 0 2 2;
#X connect 1 0 2 3;
#X connect 1 0 2 6;
#X connect 3 0 0 0;
#X connect 3 0 0 1;
#X connect 3 0 1 1;
#X connect 3 0 1 0;
#X connect 4 0 5 0;
#X connect 5 0 3 0;
#X connect 7 0 9 0;
#X connect 8 0 9 1;
#X connect 9 0 25 0;
#X connect 10 0 12 0;
#X connect 11 0 12 1;
#X connect 12 0 25 0;
#X connect 13 0 10 0;
#X connect 14 0 16 0;
#X connect 15 0 16 1;
#X connect 16 0 25 0;
#X connect 17 0 19 0;
#X connect 18 0 19 1;
#X connect 19 0 25 0;
#X connect 20 0 22 0;
#X connect 21 0 22 1;
#X connect 22 0 25 0;
#X connect 23 0 7 0;
#X connect 25 0 6 0;
#X connect 25 0 4 0;
#X connect 27 0 25 1;
#X connect 28 0 29 0;
#X connect 29 0 27 0;
#X connect 30 0 23 0;
#X connect 30 0 13 0;
#X connect 30 0 36 0;
#X connect 30 0 51 0;
#X connect 30 0 52 0;
#X connect 30 0 53 0;
#X connect 31 0 30 0;
#X connect 32 0 31 0;
#X connect 33 0 35 0;
#X connect 34 0 35 1;
#X connect 35 0 25 0;
#X connect 36 0 33 0;
#X connect 37 0 29 1;
#X connect 38 0 37 0;
#X connect 39 0 40 0;
#X connect 40 0 32 0;
#X connect 41 0 39 0;
#X connect 42 0 45 0;
#X connect 42 0 58 0;
#X connect 43 0 45 1;
#X connect 43 0 49 0;
#X connect 43 0 59 0;
#X connect 44 0 45 2;
#X connect 44 0 49 0;
#X connect 44 0 60 0;
#X connect 45 0 47 0;
#X connect 46 0 41 0;
#X connect 47 0 46 1;
#X connect 48 0 46 0;
#X connect 48 0 4 1;
#X connect 49 0 45 0;
#X connect 51 0 14 0;
#X connect 52 0 17 0;
#X connect 53 0 20 0;
#X connect 54 0 48 0;
#X connect 55 0 54 1;
#X connect 55 0 57 0;
#X connect 55 0 97 0;
#X connect 56 0 54 0;
#X connect 56 0 95 0;
#X connect 62 0 65 1;
#X connect 63 0 62 1;
#X connect 64 0 88 0;
#X connect 65 0 64 0;
#X connect 66 0 63 0;
#X connect 67 0 68 0;
#X connect 68 0 66 0;
#X connect 69 0 65 0;
#X connect 70 0 62 0;
#X connect 71 0 94 0;
#X connect 72 0 69 0;
#X connect 73 0 70 0;
#X connect 74 0 73 0;
#X connect 77 0 65 1;
#X connect 78 0 77 1;
#X connect 79 0 78 0;
#X connect 80 0 81 0;
#X connect 81 0 79 0;
#X connect 82 0 77 0;
#X connect 83 0 82 0;
#X connect 84 0 83 0;
#X connect 87 0 1 2;
#X connect 87 0 1 3;
#X connect 87 0 0 2;
#X connect 87 0 0 3;
#X connect 88 0 89 0;
#X connect 89 0 87 0;
#X connect 90 0 71 0;
#X connect 91 0 74 0;
#X connect 92 0 84 0;
#X connect 93 0 83 1;
#X connect 93 0 73 1;
#X connect 93 0 72 1;
#X connect 94 0 72 0;
#X connect 95 0 88 1;
#X connect 96 0 97 1;
#X connect 96 0 98 0;
#X connect 97 0 95 1;
#X connect 98 0 97 0;
