#N canvas 486 304 723 496 10;
#X obj 107 183 ../cmp/mixer;
#X obj 33 5 dumpOSC 10001;
#X obj 28 37 OSCroute /note1;
#X obj 125 37 OSCroute /base;
#X obj 225 36 OSCroute /note0;
#N canvas 64 290 304 789 gen1 1;
#X obj 40 365 ../cmp/envelope;
#X obj 42 498 ../cmp/bitcrush;
#X obj 34 91 hsl 128 15 20 10000 1 0 empty empty empty -2 -6 0 10 -262144
-1 -1 0 1;
#X obj 197 367 bng 15 250 50 0 empty empty empty 0 -6 0 10 -262144
-1 -1;
#X obj 36 124 ../cmp/spring_trig;
#X obj 55 224 hsl 128 15 20 20000 1 0 empty empty empty -2 -6 0 10
-262144 -1 -1 0 1;
#X msg 233 91 0;
#X obj 188 90 t b b;
#X obj 188 68 bng 15 250 50 0 empty empty empty 0 -6 0 10 -262144 -1
-1;
#X obj 188 133 del 100;
#X floatatom 134 92 5 0 0 0 - - -;
#X text 183 158 7841 197 43;
#X text 216 67 <- trigger;
#X obj 33 62 OSCroute /f;
#X obj 189 45 OSCroute /t;
#X obj 49 558 ../cmp/echo;
#X obj 18 642 +~;
#X obj 77 643 +~;
#X obj 40 258 ../cmp/multi_osc1;
#X obj 28 17 inlet;
#X obj 17 684 outlet~;
#X obj 79 681 outlet~;
#X floatatom 222 484 5 0 0 0 - - -;
#X msg 220 510 \$1 1000;
#X obj 200 229 OSCroute /osc;
#X obj 205 334 OSCroute /env;
#X obj 197 535 OSCroute /echo;
#X connect 0 0 1 0;
#X connect 0 0 1 1;
#X connect 1 0 15 0;
#X connect 1 0 16 0;
#X connect 1 1 15 1;
#X connect 1 1 17 0;
#X connect 2 0 4 0;
#X connect 2 0 10 0;
#X connect 3 0 0 1;
#X connect 4 0 18 3;
#X connect 4 1 5 0;
#X connect 6 0 4 0;
#X connect 7 0 9 0;
#X connect 8 0 7 0;
#X connect 9 0 2 0;
#X connect 9 0 3 0;
#X connect 13 0 2 0;
#X connect 14 0 8 0;
#X connect 15 0 16 1;
#X connect 15 1 17 1;
#X connect 16 0 20 0;
#X connect 17 0 21 0;
#X connect 18 0 0 0;
#X connect 19 0 13 0;
#X connect 19 0 14 0;
#X connect 19 0 4 1;
#X connect 19 0 1 3;
#X connect 19 0 24 0;
#X connect 19 0 25 0;
#X connect 19 0 26 0;
#X connect 22 0 23 0;
#X connect 22 0 1 2;
#X connect 24 0 18 2;
#X connect 25 0 0 3;
#X connect 26 0 15 3;
#X restore 28 62 pd gen1;
#N canvas 60 178 345 895 gen2 1;
#X obj 87 406 ../cmp/envelope;
#X obj 81 132 hsl 128 15 20 10000 1 0 empty empty empty -2 -6 0 10
-262144 -1 -1 0 1;
#X obj 244 408 bng 15 250 50 0 empty empty empty 0 -6 0 10 -262144
-1 -1;
#X obj 83 165 ../cmp/spring_trig;
#X obj 102 265 hsl 128 15 20 20000 1 0 empty empty empty -2 -6 0 10
-262144 -1 -1 0 1;
#X msg 274 112 0;
#X obj 229 111 t b b;
#X obj 229 89 bng 15 250 50 0 empty empty empty 0 -6 0 10 -262144 -1
-1;
#X obj 229 154 del 100;
#X floatatom 181 133 5 0 0 0 - - -;
#X text 230 199 7841 197 43;
#X text 257 88 <- trigger;
#X obj 75 93 OSCroute /f;
#X obj 230 66 OSCroute /t;
#X obj 65 683 +~;
#X obj 124 684 +~;
#X obj 87 299 ../cmp/multi_osc1;
#X obj 71 64 inlet;
#X obj 65 723 outlet~;
#X obj 123 721 outlet~;
#X obj 89 539 ../cmp/bitcrush;
#X obj 96 599 ../cmp/echo;
#X obj 251 276 OSCroute /osc;
#X obj 249 371 OSCroute /env;
#X obj 251 573 OSCroute /echo;
#X connect 0 0 20 0;
#X connect 0 0 20 1;
#X connect 1 0 3 0;
#X connect 1 0 9 0;
#X connect 2 0 0 1;
#X connect 3 0 16 3;
#X connect 3 1 4 0;
#X connect 5 0 3 0;
#X connect 6 0 8 0;
#X connect 7 0 6 0;
#X connect 8 0 1 0;
#X connect 8 0 2 0;
#X connect 12 0 1 0;
#X connect 13 0 7 0;
#X connect 14 0 18 0;
#X connect 15 0 19 0;
#X connect 16 0 0 0;
#X connect 17 0 12 0;
#X connect 17 0 13 0;
#X connect 17 0 3 1;
#X connect 17 0 22 0;
#X connect 17 0 23 0;
#X connect 17 0 24 0;
#X connect 17 0 20 3;
#X connect 20 0 14 0;
#X connect 20 0 21 0;
#X connect 20 1 15 0;
#X connect 20 1 21 1;
#X connect 21 0 14 1;
#X connect 21 1 15 1;
#X connect 22 0 16 2;
#X connect 23 0 0 2;
#X connect 24 0 21 3;
#X restore 225 65 pd gen2;
#N canvas 159 204 625 932 gen3 0;
#X obj 39 67 hsl 128 15 20 30000 1 0 empty empty freq -2 8 0 10 -262144
-1 -1 0 1;
#X floatatom 119 67 8 0 0 0 - - -;
#X obj 52 160 line~ 0 10;
#X obj 52 136 pack f f;
#X obj 65 114 hsl 128 15 10 1000 0 0 empty empty time -2 8 0 10 -262144
-1 -1 295 1;
#X floatatom 163 115 5 0 0 0 - - -;
#X obj 53 291 ../cmp/waveshapeCtl;
#X obj 31 45 OSCroute /f;
#X text 203 114 33;
#X obj 175 159 +~;
#X obj 208 159 hsl 128 15 0 10 0 0 empty empty empty -2 -6 0 10 -262144
-1 -1 2095 1;
#X floatatom 305 160 5 0 0 0 - - -;
#X obj 65 845 *~;
#X obj 154 843 *~;
#X obj 53 185 ../cmp/multi_osc1;
#X obj 199 186 ../cmp/multi_osc1;
#X obj 68 894 outlet~;
#X obj 153 891 outlet~;
#X obj 32 4 inlet;
#X obj 52 545 ../cmp/bitcrush;
#X obj 205 137 OSCroute /fdiff;
#X obj 62 90 OSCroute /port;
#X obj 112 134 OSCroute /osc1;
#X obj 286 105 OSCroute /osc2;
#X obj 347 266 OSCroute /ws;
#X obj 307 589 /;
#X msg 303 563 1;
#X obj 303 540 t b f;
#X obj 307 611 * 1000;
#X obj 255 636 metro 100;
#X obj 255 613 tgl 15 0 empty empty empty 0 -6 0 10 -262144 -1 -1 1
1;
#X floatatom 325 637 5 0 0 0 - - -;
#X obj 192 664 ../cmp/envelope;
#X obj 222 633 bng 15 250 50 0 empty empty empty 0 -6 0 10 -262144
-1 -1;
#X msg 215 810 1;
#X obj 382 537 hsl 128 15 0.1 100 1 0 empty empty empty -2 -6 0 10
-262144 -1 -1 8056 1;
#X obj 221 540 metro 100;
#X obj 221 582 + 10;
#X obj 203 541 tgl 15 0 empty empty empty 0 -6 0 10 -262144 -1 -1 0
1;
#X obj 221 560 random 400;
#X obj 399 490 hsl 128 15 0 500 0 0 empty empty empty -2 -6 0 10 -262144
-1 -1 0 1;
#X floatatom 492 489 5 0 0 0 - - -;
#X floatatom 478 538 5 0 0 0 - - -;
#X obj 370 425 OSCroute /chop;
#X obj 360 448 OSCroute /rnd_on;
#X obj 395 468 OSCroute /rnd_max;
#X obj 363 581 OSCroute /on;
#X obj 360 607 OSCroute /env;
#X obj 380 513 OSCroute /f;
#X obj 262 800 loadbang;
#X connect 0 0 1 0;
#X connect 0 0 3 0;
#X connect 2 0 9 0;
#X connect 2 0 14 3;
#X connect 3 0 2 0;
#X connect 4 0 5 0;
#X connect 4 0 3 1;
#X connect 6 0 19 0;
#X connect 6 1 19 1;
#X connect 7 0 0 0;
#X connect 9 0 15 3;
#X connect 10 0 9 1;
#X connect 10 0 11 0;
#X connect 12 0 16 0;
#X connect 13 0 17 0;
#X connect 14 0 6 0;
#X connect 14 0 6 1;
#X connect 15 0 6 0;
#X connect 15 0 6 1;
#X connect 18 0 7 0;
#X connect 18 0 20 0;
#X connect 18 0 21 0;
#X connect 18 0 22 0;
#X connect 18 0 23 0;
#X connect 18 0 24 0;
#X connect 18 0 19 3;
#X connect 18 0 43 0;
#X connect 19 0 32 0;
#X connect 20 0 10 0;
#X connect 21 0 4 0;
#X connect 22 0 14 2;
#X connect 23 0 15 2;
#X connect 24 0 6 2;
#X connect 25 0 28 0;
#X connect 26 0 25 0;
#X connect 27 0 26 0;
#X connect 27 1 25 1;
#X connect 28 0 29 1;
#X connect 28 0 31 0;
#X connect 29 0 32 1;
#X connect 30 0 29 0;
#X connect 32 0 12 0;
#X connect 32 0 13 0;
#X connect 33 0 32 1;
#X connect 34 0 13 1;
#X connect 34 0 12 1;
#X connect 35 0 27 0;
#X connect 35 0 42 0;
#X connect 36 0 39 0;
#X connect 37 0 29 1;
#X connect 37 0 31 0;
#X connect 38 0 36 0;
#X connect 39 0 37 0;
#X connect 40 0 39 1;
#X connect 40 0 41 0;
#X connect 43 0 44 0;
#X connect 43 0 45 0;
#X connect 43 0 46 0;
#X connect 43 0 47 0;
#X connect 43 0 48 0;
#X connect 44 0 38 0;
#X connect 45 0 40 0;
#X connect 46 0 30 0;
#X connect 47 0 32 3;
#X connect 48 0 35 0;
#X connect 49 0 34 0;
#X restore 125 62 pd gen3;
#N canvas 731 272 269 483 gen4 0;
#X obj 49 16 inlet;
#X obj 47 323 outlet~;
#X obj 51 146 ../cmp/reverb;
#X obj 128 324 outlet~;
#X obj 51 52 ../cmp/screech;
#X connect 0 0 2 3;
#X connect 0 0 4 0;
#X connect 2 0 1 0;
#X connect 2 1 3 0;
#X connect 4 0 2 0;
#X connect 4 0 2 1;
#X restore 330 64 pd gen4;
#X obj 330 37 OSCroute /scr;
#X obj 179 8 print;
#X obj 483 195 ../cmp/mixer;
#N canvas 8 77 450 300 drums 1;
#X obj 67 16 inlet;
#X obj 67 227 outlet~;
#X obj 156 228 outlet~;
#X obj 67 78 KickDrum;
#X obj 67 48 OSCroute /d1;
#X obj 151 78 KickDrum;
#X obj 238 78 KickDrum;
#X obj 151 48 OSCroute /d2;
#X obj 238 47 OSCroute /d3;
#X connect 0 0 4 0;
#X connect 0 0 7 0;
#X connect 0 0 8 0;
#X connect 3 0 1 0;
#X connect 3 1 2 0;
#X connect 4 0 3 0;
#X connect 5 0 1 0;
#X connect 5 1 2 0;
#X connect 6 0 1 0;
#X connect 6 1 2 0;
#X connect 7 0 5 0;
#X connect 8 0 6 0;
#X restore 468 88 pd drums;
#X obj 449 37 OSCroute /drm;
#X obj 315 431 *~ 1;
#X obj 373 431 *~ 1;
#X obj 329 461 dac~;
#X connect 0 0 14 0;
#X connect 0 1 15 0;
#X connect 1 0 2 0;
#X connect 1 0 3 0;
#X connect 1 0 4 0;
#X connect 1 0 0 8;
#X connect 1 0 9 0;
#X connect 1 0 10 0;
#X connect 1 0 13 0;
#X connect 2 0 5 0;
#X connect 3 0 7 0;
#X connect 4 0 6 0;
#X connect 5 0 0 0;
#X connect 5 1 0 1;
#X connect 6 0 0 4;
#X connect 6 1 0 5;
#X connect 7 0 0 2;
#X connect 7 1 0 3;
#X connect 8 0 0 6;
#X connect 8 1 0 7;
#X connect 9 0 8 0;
#X connect 11 0 14 0;
#X connect 11 1 15 0;
#X connect 12 0 11 0;
#X connect 12 1 11 1;
#X connect 13 0 12 0;
#X connect 14 0 16 0;
#X connect 15 0 16 1;
