#N canvas 573 208 404 549 10;
#X obj 52 172 hsl 128 15 0 127 0 0 empty empty empty -2 -6 0 8 -262144
-1 -1 9700 1;
#X obj 54 194 hsl 128 15 0 100 0 0 empty empty empty -2 -6 0 8 -262144
-1 -1 6858 1;
#X obj 53 214 hsl 128 15 1 400 1 0 empty empty empty -2 -6 0 8 -262144
-1 -1 2939 1;
#X obj 53 268 hsl 128 15 0 127 0 0 empty empty empty -2 -6 0 8 -262144
-1 -1 8600 1;
#X text 55 265 volume;
#X text 53 211 offset;
#X text 54 193 LFO Freq;
#X text 53 171 depth;
#X obj 52 232 hsl 128 15 0 127 0 0 empty empty empty -2 -6 0 8 -262144
-1 -1 100 1;
#X text 55 230 feedback;
#X obj 52 250 hsl 128 15 0 127 0 0 empty empty empty -2 -6 0 8 -262144
-1 -1 2700 1;
#X text 55 248 feedback delay;
#X floatatom 149 175 5 0 0 0 - - -;
#X floatatom 150 194 5 0 0 0 - - -;
#X floatatom 149 215 5 0 0 0 - - -;
#X floatatom 150 234 5 0 0 0 - - -;
#X floatatom 151 249 5 0 0 0 - - -;
#X floatatom 149 267 5 0 0 0 - - -;
#X obj 35 488 dac~;
#X obj 32 293 ../effects/flanger;
#X obj 31 102 ../effects/multi_osc;
#X obj 38 459 *~ 1;
#X obj 60 440 hsl 128 15 0 1 0 0 empty empty empty -2 -6 0 8 -262144
-1 -1 7600 1;
#X obj 52 149 unpack f f f f f f;
#X floatatom 157 440 5 0 0 0 - - -;
#X text 61 437 main vol;
#X obj 199 182 mtof;
#X obj 193 81 bng 15 250 50 0 empty empty empty 0 -6 0 8 -262144 -1
-1;
#X obj 208 59 notein;
#X obj 247 150 pack 0 0 100;
#X obj 247 133 bng 15 250 50 0 empty empty empty 0 -6 0 8 -262144 -1
-1;
#X obj 249 107 route 0;
#X obj 265 191 bendin;
#X obj 280 288 ctlin;
#X floatatom 273 317 5 0 0 0 - - -;
#X floatatom 299 368 5 0 0 0 - - -;
#X floatatom 294 337 5 0 0 0 - - -;
#X obj 177 355 pack f f;
#X floatatom 176 412 5 0 0 0 - - -;
#X floatatom 211 411 5 0 0 0 - - -;
#X floatatom 235 428 5 0 0 0 - - -;
#X obj 248 214 - 8192;
#X obj 201 142 +;
#X floatatom 203 205 5 0 0 0 - - -;
#X floatatom 307 223 5 0 0 0 - - -;
#X obj 247 258 t b f;
#X obj 178 376 route 74 71 76 77 78;
#X obj 248 237 / 4096;
#X connect 0 0 12 0;
#X connect 0 0 19 1;
#X connect 1 0 13 0;
#X connect 1 0 19 2;
#X connect 2 0 14 0;
#X connect 2 0 19 3;
#X connect 3 0 17 0;
#X connect 3 0 19 6;
#X connect 8 0 15 0;
#X connect 8 0 19 4;
#X connect 10 0 16 0;
#X connect 10 0 19 5;
#X connect 19 0 21 0;
#X connect 20 0 19 0;
#X connect 21 0 18 0;
#X connect 21 0 18 1;
#X connect 22 0 21 1;
#X connect 22 0 24 0;
#X connect 23 0 0 0;
#X connect 23 1 1 0;
#X connect 23 2 2 0;
#X connect 23 3 8 0;
#X connect 23 4 10 0;
#X connect 23 5 3 0;
#X connect 26 0 20 0;
#X connect 28 0 27 0;
#X connect 28 0 42 0;
#X connect 28 1 29 2;
#X connect 28 1 31 0;
#X connect 28 1 29 1;
#X connect 29 0 20 1;
#X connect 30 0 29 0;
#X connect 31 1 30 0;
#X connect 32 0 41 0;
#X connect 33 0 34 0;
#X connect 33 1 36 0;
#X connect 33 2 35 0;
#X connect 34 0 37 1;
#X connect 36 0 37 0;
#X connect 37 0 46 0;
#X connect 41 0 47 0;
#X connect 42 0 26 0;
#X connect 42 0 43 0;
#X connect 45 0 42 0;
#X connect 45 1 42 1;
#X connect 46 0 38 0;
#X connect 46 0 0 0;
#X connect 46 1 39 0;
#X connect 46 1 1 0;
#X connect 46 2 40 0;
#X connect 46 2 2 0;
#X connect 46 3 8 0;
#X connect 46 4 10 0;
#X connect 47 0 44 0;
#X connect 47 0 45 0;
