#N canvas 153 228 572 424 10;
#X text 17 20 INLETS:;
#X text 72 20 offset(trig) odur ndur opitch npitch audio-tab window
porta;
#N canvas 0 0 450 300 graph1 0;
#X array test 88941 float 0;
#X coords 0 1 88940 -1 200 140 1;
#X restore 347 73 graph;
#N canvas 0 0 220 177 soundfile 0;
#X obj 38 56 openpanel;
#X msg 38 75 read -resize \$1 test;
#X obj 38 94 soundfiler;
#X obj 38 132 s odur;
#X obj 38 113 / 44.1;
#X obj 38 37 inlet;
#X obj 85 132 s ndur;
#X obj 132 132 s orig;
#X connect 0 0 1 0;
#X connect 1 0 2 0;
#X connect 2 0 4 0;
#X connect 4 0 3 0;
#X connect 4 0 6 0;
#X connect 4 0 7 0;
#X connect 5 0 0 0;
#X restore 213 112 pd soundfile;
#X obj 213 95 bng 15 250 50 0 empty empty empty 0 -6 0 8 -262144 -1
-1;
#X obj 79 210 r odur;
#X floatatom 79 230 5 0 0 1 original-duration - -;
#X floatatom 106 244 5 0 0 1 new-duration ndur -;
#X floatatom 133 258 3 0 0 1 original-pitch opitch -;
#X floatatom 161 272 3 0 0 1 new-pitch npitch -;
#X msg 188 287 test;
#X text 17 35 INIT: buffer-name buffer-size(ms) audio-table;
#X floatatom 215 304 5 1 300 1 window(ms) window -;
#X floatatom 243 318 5 0 0 1 portamento(ms) porta -;
#X floatatom 68 168 5 0 100000 2 offset - -;
#X obj 79 190 s offset;
#X obj 52 190 f;
#N canvas 0 0 254 197 offset 0;
#X obj 91 65 r offset;
#X obj 91 105 -;
#X obj 91 85 t b f;
#X obj 91 125 s odur;
#X obj 132 88 r orig;
#X connect 0 0 2 0;
#X connect 1 0 3 0;
#X connect 2 0 1 0;
#X connect 2 1 1 1;
#X connect 4 0 1 0;
#X restore 213 76 pd offset;
#X obj 52 139 bng 15 250 50 0 empty empty trigger 0 -6 0 12 -262144
-1 -1;
#X text 27 94 FIRST: load a soundfile-->;
#X text 389 245 SECOND: bang this!;
#X obj 417 262 bng 15 250 50 0 empty empty empty 0 -6 0 8 -262144 -1
-1;
#X obj 52 395 dac~;
#X floatatom 147 355 5 0 0 0 position - -;
#X floatatom 243 355 5 0 0 1 duration - -;
#X obj 52 373 hip~ 18;
#X msg 417 281 \; opitch 60 \; npitch 60 \; window 50 \; porta 10 \;
pd dsp 1;
#X obj 52 336 p-t-player~ buffer1 300 test;
#X connect 4 0 3 0;
#X connect 5 0 6 0;
#X connect 6 0 27 1;
#X connect 7 0 27 2;
#X connect 8 0 27 3;
#X connect 9 0 27 4;
#X connect 10 0 27 5;
#X connect 12 0 27 6;
#X connect 13 0 27 7;
#X connect 14 0 15 0;
#X connect 14 0 16 1;
#X connect 16 0 27 0;
#X connect 18 0 16 0;
#X connect 21 0 26 0;
#X connect 25 0 22 0;
#X connect 25 0 22 1;
#X connect 27 0 25 0;
#X connect 27 1 23 0;
#X connect 27 2 24 0;
