#N canvas 306 56 599 351 10;
#X floatatom 162 100 0 0 0 0 - - -;
#X floatatom 100 100 0 0 0 0 - - -;
#X floatatom 224 100 5 0 0 0 - - -;
#X floatatom 187 174 5 0 0 0 - - -;
#X floatatom 59 112 5 0 0 0 - - -;
#X obj 59 131 pack f f f f;
#X msg 72 179 set \$1;
#X floatatom 230 192 5 0 0 0 - - -;
#X floatatom 272 209 5 1 500 0 - - -;
#X obj 146 284 outlet~;
#X text 224 17 pitch;
#X text 279 17 pitch;
#X text 369 6 window;
#X obj 59 33 inlet;
#X obj 100 33 inlet;
#X obj 162 33 inlet;
#X obj 224 33 inlet;
#X obj 279 33 inlet;
#X obj 374 33 inlet;
#X text 283 7 new;
#X text 217 7 original;
#X text 93 17 duration;
#X text 96 5 original;
#X text 168 6 new;
#X text 154 17 duration;
#X text 49 4 offset;
#X text 49 16 (trig);
#X obj 327 33 inlet;
#X text 326 6 audio;
#X text 326 17 table;
#X text 85 308 INLETS:;
#X obj 59 59 t f b;
#X text 374 16 time;
#X obj 423 33 inlet;
#X floatatom 423 119 5 0 0 0 - - -;
#X text 409 17 portamento;
#X obj 439 279 outlet;
#X floatatom 235 284 0 0 0 0 - - -;
#X floatatom 320 269 0 0 0 0 - - -;
#X obj 320 252 / 44.1;
#X obj 320 286 outlet;
#X obj 235 267 envrms~;
#X obj 224 76 60;
#X obj 279 76 60;
#X obj 374 76 58;
#X obj 423 76 0;
#X obj 439 262 300;
#X obj 162 76 300;
#X obj 100 76 300;
#X obj 423 59 loadbang;
#N canvas 0 0 275 244 pitch-window-list 0;
#X text 60 9 [old new] window;
#X obj 135 132 /;
#X text 183 9 pitch;
#X obj 96 124 0;
#X obj 186 107 mtof;
#X obj 135 156 *;
#X obj 135 178 ftom;
#X obj 69 144 line~;
#X obj 135 200 outlet;
#X obj 53 200 outlet~;
#X obj 69 123 l;
#X obj 69 102 t b b;
#X obj 53 178 +~;
#X text 18 9 start;
#X obj 20 95 sig~;
#X obj 69 54 unpack 0 500 1000 60;
#X obj 69 33 inlet;
#X obj 146 103 pack;
#X obj 122 80 * 44.1;
#X obj 20 77 * 44.1;
#X connect 1 0 5 0;
#X connect 3 0 7 0;
#X connect 4 0 5 1;
#X connect 5 0 6 0;
#X connect 6 0 8 0;
#X connect 7 0 12 1;
#X connect 10 0 7 0;
#X connect 11 0 10 0;
#X connect 11 1 3 0;
#X connect 12 0 9 0;
#X connect 14 0 12 0;
#X connect 15 0 11 0;
#X connect 15 0 19 0;
#X connect 15 1 1 0;
#X connect 15 1 18 0;
#X connect 15 2 1 1;
#X connect 15 2 17 1;
#X connect 15 3 4 0;
#X connect 16 0 15 0;
#X connect 17 0 10 1;
#X connect 18 0 17 0;
#X connect 19 0 14 0;
#X restore 59 151 pd pitch-window-list;
#N canvas 0 0 540 589 sample-pish-time 0;
#X floatatom 19 133 0 0 0 0 - - -;
#X obj 84 375 *~;
#X obj 226 308 line~;
#X obj 226 280 pack 0 200;
#X obj 19 175 exp;
#X floatatom 19 196 0 0 0 0 - - -;
#X obj 19 259 /;
#X obj 140 214 * 0.001;
#X obj 19 416 cos~;
#X obj 19 437 *~;
#X obj 19 466 +~;
#X obj 188 352 wrap~;
#X obj 251 376 *~;
#X obj 188 420 cos~;
#X obj 188 448 *~;
#X obj 140 241 t b f;
#X floatatom 19 280 0 0 0 0 - - -;
#X obj 19 349 phasor~ 0;
#X obj 188 331 +~ 0.5;
#X obj 19 374 -~ 0.5;
#X obj 19 395 *~ 0.5;
#X obj 188 375 -~ 0.5;
#X obj 188 398 *~ 0.5;
#X floatatom 226 196 0 0 0 0 - - -;
#X obj 19 217 - 1;
#X obj 19 238 * -1;
#X text 76 134 <-- transposition;
#X text 119 147 (halftones);
#X obj 19 16 inlet~;
#X obj 100 72 inlet;
#X obj 140 72 inlet;
#X obj 19 154 * 0.057763;
#X obj 275 96 inlet;
#X obj 251 422 vd~ \$1;
#X obj 84 411 vd~ \$1;
#X obj 19 516 outlet~;
#X text 58 56 pitch input new;
#X obj 100 115 expr $f2 - $f1;
#X obj 19 493 hip~ 16;
#X obj 100 95 f;
#X obj 226 156 f;
#X text 241 78 window time (ms);
#X obj 313 120 loadbang;
#X msg 313 138 75;
#X obj 314 267 inlet;
#X obj 19 303 pack 0 20;
#X obj 19 328 line~;
#X text 297 250 portamento time (ms);
#X floatatom 314 285 5 0 0 0 - - -;
#X obj 140 93 t b f;
#X obj 226 114 t b;
#X obj 374 119 block~ 1;
#X text 97 500 in~ pitch-old new window-ms port;
#X obj 19 39 delwrite~ \$1 \$2;
#X text 94 528 modified from doc/3.audio.examples/56.delay.pitchshift.
;
#X text 93 541 Thanks to Miller Puckette for this bit.;
#X connect 0 0 31 0;
#X connect 1 0 34 0;
#X connect 2 0 1 1;
#X connect 2 0 12 1;
#X connect 3 0 2 0;
#X connect 4 0 5 0;
#X connect 5 0 24 0;
#X connect 6 0 16 0;
#X connect 7 0 15 0;
#X connect 8 0 9 0;
#X connect 9 0 10 0;
#X connect 10 0 38 0;
#X connect 11 0 12 0;
#X connect 11 0 21 0;
#X connect 12 0 33 0;
#X connect 13 0 14 0;
#X connect 14 0 10 1;
#X connect 15 0 6 0;
#X connect 15 1 6 1;
#X connect 16 0 45 0;
#X connect 17 0 1 0;
#X connect 17 0 19 0;
#X connect 17 0 18 0;
#X connect 18 0 11 0;
#X connect 19 0 20 0;
#X connect 20 0 8 0;
#X connect 21 0 22 0;
#X connect 22 0 13 0;
#X connect 23 0 3 0;
#X connect 23 0 7 0;
#X connect 24 0 25 0;
#X connect 25 0 6 0;
#X connect 28 0 53 0;
#X connect 29 0 39 0;
#X connect 29 0 50 0;
#X connect 30 0 49 0;
#X connect 31 0 4 0;
#X connect 32 0 40 0;
#X connect 33 0 14 1;
#X connect 34 0 9 1;
#X connect 37 0 0 0;
#X connect 38 0 35 0;
#X connect 39 0 37 0;
#X connect 40 0 23 0;
#X connect 42 0 43 0;
#X connect 43 0 40 0;
#X connect 44 0 48 0;
#X connect 45 0 46 0;
#X connect 46 0 17 0;
#X connect 48 0 3 1;
#X connect 48 0 45 1;
#X connect 49 0 39 0;
#X connect 49 1 37 1;
#X connect 50 0 40 0;
#X restore 145 229 pd sample-pish-time \$1 \$2;
#X text 140 308 offset(trig) odur ndur opitch npitch audio-tab window
porta;
#X obj 72 204 tabread4~ \$3;
#X text 85 322 OUTLETS: audio~ table-position playback-duration;
#X connect 0 0 5 2;
#X connect 1 0 5 1;
#X connect 2 0 5 3;
#X connect 3 0 51 1;
#X connect 4 0 5 0;
#X connect 5 0 50 0;
#X connect 6 0 53 0;
#X connect 7 0 51 2;
#X connect 8 0 51 3;
#X connect 13 0 31 0;
#X connect 14 0 48 0;
#X connect 15 0 46 1;
#X connect 15 0 47 0;
#X connect 16 0 42 0;
#X connect 17 0 43 0;
#X connect 18 0 44 0;
#X connect 27 0 6 0;
#X connect 31 0 4 0;
#X connect 31 1 42 0;
#X connect 31 1 43 0;
#X connect 31 1 44 0;
#X connect 31 1 45 0;
#X connect 31 1 46 0;
#X connect 31 1 47 0;
#X connect 31 1 48 0;
#X connect 33 0 45 0;
#X connect 34 0 51 4;
#X connect 37 0 39 0;
#X connect 38 0 40 0;
#X connect 39 0 38 0;
#X connect 41 0 37 0;
#X connect 42 0 2 0;
#X connect 43 0 7 0;
#X connect 44 0 8 0;
#X connect 45 0 34 0;
#X connect 46 0 36 0;
#X connect 47 0 0 0;
#X connect 48 0 1 0;
#X connect 49 0 45 0;
#X connect 49 0 44 0;
#X connect 49 0 43 0;
#X connect 49 0 42 0;
#X connect 49 0 47 0;
#X connect 49 0 48 0;
#X connect 49 0 46 0;
#X connect 50 0 41 0;
#X connect 50 0 53 0;
#X connect 50 1 3 0;
#X connect 51 0 9 0;
#X connect 53 0 51 0;
