#N canvas 1018 87 856 983 10;
#X obj 276 199 pix_mask;
#X obj 384 40 gemhead;
#X obj 278 271 pix_texture;
#X obj 294 135 gemhead 20;
#X obj 293 911 square 3;
#X text 234 59 blending \, using mask;
#X obj 20 89 cnv 15 220 70 empty empty empty 20 12 0 14 -195568 -66577
0;
#N canvas 15 132 454 304 gemwin 0;
#X obj 132 136 gemwin;
#X obj 67 89 outlet;
#X obj 67 10 inlet;
#X obj 67 41 route create;
#X msg 67 70 set destroy;
#X msg 182 68 set create;
#X msg 132 112 create \, 1;
#X msg 238 112 destroy;
#N canvas 96 220 247 179 Gem.init 0;
#X obj 88 46 loadbang;
#X msg 118 81 reset;
#X obj 118 113 outlet;
#X obj 88 64 t b b;
#X msg 25 82 color 0 0 0 0;
#X connect 0 0 3 0;
#X connect 1 0 2 0;
#X connect 3 0 4 0;
#X connect 3 1 1 0;
#X connect 4 0 2 0;
#X restore 289 80 pd Gem.init;
#X msg 267 202 dimen 1024 768;
#X connect 2 0 3 0;
#X connect 3 0 4 0;
#X connect 3 0 6 0;
#X connect 3 1 5 0;
#X connect 3 1 7 0;
#X connect 4 0 1 0;
#X connect 5 0 1 0;
#X connect 6 0 0 0;
#X connect 7 0 0 0;
#X connect 8 0 0 0;
#X connect 9 0 0 0;
#X restore 25 133 pd gemwin;
#X msg 25 109 destroy;
#X text 21 89 Create window and render;
#X obj 275 109 pix_image ./tree_1000.jpg;
#X obj 294 168 pix_image tree_1000_mask.jpg;
#X obj 297 561 rotateXYZ 0 0 0;
#X obj 23 908 square 3;
#X obj 235 787 hsl 128 15 0 10 0 0 empty empty empty -2 -8 0 10 -262144
-1 -1 7100 1;
#X floatatom 331 788 5 0 0 0 - - -;
#X obj 274 220 alpha;
#X obj 29 565 rotateXYZ 0 0 0;
#X obj 51 500 hsl 128 15 0 360 0 0 empty empty empty -2 -8 0 10 -262144
-1 -1 0 1;
#X floatatom 145 502 5 0 0 0 - - -;
#X obj 65 521 hsl 128 15 0 360 0 0 empty empty empty -2 -8 0 10 -262144
-1 -1 0 1;
#X floatatom 159 523 5 0 0 0 - - -;
#X obj 75 541 hsl 128 15 0 360 0 0 empty empty empty -2 -8 0 10 -262144
-1 -1 5900 1;
#X floatatom 173 544 5 0 0 0 - - -;
#X msg 49 475 180;
#X obj 293 397 separator;
#X obj 32 419 separator;
#X obj 64 641 hsl 128 15 -10 10 0 0 empty empty empty -2 -8 0 10 -262144
-1 -1 6350 1;
#X floatatom 158 643 5 0 0 0 - - -;
#X obj 72 661 hsl 128 15 -10 10 0 0 empty empty empty -2 -8 0 10 -262144
-1 -1 10500 1;
#X floatatom 171 662 5 0 0 0 - - -;
#X obj 92 683 hsl 128 15 -10 10 0 0 empty empty empty -2 -8 0 10 -262144
-1 -1 0 1;
#X floatatom 186 685 5 0 0 0 - - -;
#X obj 42 706 translateXYZ 0 0 0;
#X msg 62 616 0;
#X msg 94 613 0;
#X obj 379 682 * 1;
#X obj 293 715 translateXYZ 0 0 0;
#X obj 326 533 * 1;
#X obj 379 528 + 180;
#X obj 347 684 * 1;
#X obj 322 687 * 1;
#X obj 485 909 square 3;
#X obj 491 574 rotateXYZ 0 0 0;
#X obj 483 413 separator;
#X obj 571 712 * 1;
#X obj 485 745 translateXYZ 0 0 0;
#X obj 517 544 * 1;
#X obj 576 543 + 180;
#X obj 539 714 * 1;
#X obj 514 717 * 1;
#X obj 706 905 square 3;
#X obj 711 584 rotateXYZ 0 0 0;
#X obj 707 420 separator;
#X obj 792 680 * 1;
#X obj 706 713 translateXYZ 0 0 0;
#X obj 736 557 * 1;
#X obj 796 555 + 180;
#X obj 760 682 * 1;
#X obj 735 685 * 1;
#X obj 437 483 * 1;
#X msg 426 450 90;
#X msg 455 450 120;
#X msg 482 450 180;
#X obj 588 511 * 2;
#X obj 773 515 * 3;
#X obj 352 530 * 1;
#X obj 542 542 * 1;
#X obj 763 556 * 1;
#X obj 276 246 pix_alpha;
#X text 420 142 set the alpha value;
#X obj 344 247 hsl 128 15 0 1 0 0 empty empty empty -2 -8 0 10 -262144
-1 -1 12700 1;
#X obj 284 24 inlet;
#X obj 700 399 spigot;
#X obj 734 374 tgl 15 0 empty empty empty 17 7 0 10 -262144 -1 -1 1
1;
#X obj 35 392 spigot;
#X obj 69 367 tgl 15 0 empty empty empty 17 7 0 10 -262144 -1 -1 1
1;
#X obj 282 372 spigot;
#X obj 316 347 tgl 15 0 empty empty empty 17 7 0 10 -262144 -1 -1 1
1;
#X obj 474 384 spigot;
#X obj 508 359 tgl 15 0 empty empty empty 17 7 0 10 -262144 -1 -1 1
1;
#X obj 475 98 rotateXYZ 0 0 0;
#X obj 497 33 hsl 128 15 0 360 0 0 empty empty empty -2 -8 0 10 -262144
-1 -1 100 1;
#X floatatom 591 35 5 0 0 0 - - -;
#X obj 511 54 hsl 128 15 0 360 0 0 empty empty empty -2 -8 0 10 -262144
-1 -1 0 1;
#X floatatom 605 56 5 0 0 0 - - -;
#X obj 521 74 hsl 128 15 0 360 0 0 empty empty empty -2 -8 0 10 -262144
-1 -1 0 1;
#X floatatom 619 77 5 0 0 0 - - -;
#X msg 495 8 180;
#X msg 643 158 open \$1_mask.jpg;
#X msg 611 190 open \$1.jpg;
#X obj 623 233 print fls;
#X connect 0 0 16 0;
#X connect 1 0 81 0;
#X connect 2 0 73 0;
#X connect 2 0 79 0;
#X connect 2 0 77 0;
#X connect 2 0 75 0;
#X connect 3 0 11 0;
#X connect 7 0 8 0;
#X connect 8 0 7 0;
#X connect 10 0 0 0;
#X connect 11 0 0 1;
#X connect 12 0 37 0;
#X connect 14 0 15 0;
#X connect 14 0 13 1;
#X connect 14 0 4 1;
#X connect 14 0 42 1;
#X connect 14 0 51 1;
#X connect 16 0 69 0;
#X connect 17 0 33 0;
#X connect 18 0 19 0;
#X connect 18 0 17 1;
#X connect 18 0 38 0;
#X connect 18 0 47 0;
#X connect 18 0 56 0;
#X connect 20 0 21 0;
#X connect 20 0 17 2;
#X connect 20 0 66 0;
#X connect 20 0 67 0;
#X connect 20 0 68 0;
#X connect 22 0 23 0;
#X connect 22 0 17 3;
#X connect 22 0 39 0;
#X connect 22 0 57 0;
#X connect 22 0 48 0;
#X connect 24 0 18 0;
#X connect 25 0 12 0;
#X connect 26 0 17 0;
#X connect 27 0 28 0;
#X connect 27 0 33 1;
#X connect 27 0 41 0;
#X connect 27 0 50 0;
#X connect 27 0 59 0;
#X connect 29 0 30 0;
#X connect 29 0 33 2;
#X connect 29 0 40 0;
#X connect 29 0 49 0;
#X connect 29 0 58 0;
#X connect 31 0 32 0;
#X connect 31 0 33 3;
#X connect 31 0 36 0;
#X connect 31 0 54 0;
#X connect 31 0 45 0;
#X connect 33 0 13 0;
#X connect 34 0 27 0;
#X connect 35 0 29 0;
#X connect 36 0 37 3;
#X connect 37 0 4 0;
#X connect 38 0 12 1;
#X connect 39 0 12 3;
#X connect 40 0 37 2;
#X connect 41 0 37 1;
#X connect 43 0 46 0;
#X connect 44 0 43 0;
#X connect 45 0 46 3;
#X connect 46 0 42 0;
#X connect 47 0 43 1;
#X connect 48 0 43 3;
#X connect 49 0 46 2;
#X connect 50 0 46 1;
#X connect 52 0 55 0;
#X connect 53 0 52 0;
#X connect 54 0 55 3;
#X connect 55 0 51 0;
#X connect 56 0 52 1;
#X connect 57 0 52 3;
#X connect 58 0 55 2;
#X connect 59 0 55 1;
#X connect 60 0 39 1;
#X connect 60 0 64 0;
#X connect 60 0 65 0;
#X connect 61 0 60 0;
#X connect 62 0 60 0;
#X connect 63 0 60 0;
#X connect 64 0 48 1;
#X connect 65 0 57 1;
#X connect 66 0 12 2;
#X connect 67 0 43 2;
#X connect 68 0 52 2;
#X connect 69 0 2 0;
#X connect 71 0 69 2;
#X connect 72 0 10 0;
#X connect 73 0 53 0;
#X connect 74 0 73 1;
#X connect 75 0 26 0;
#X connect 76 0 75 1;
#X connect 77 0 25 0;
#X connect 78 0 77 1;
#X connect 79 0 44 0;
#X connect 80 0 79 1;
#X connect 81 0 10 0;
#X connect 82 0 83 0;
#X connect 82 0 81 1;
#X connect 84 0 85 0;
#X connect 84 0 81 2;
#X connect 86 0 87 0;
#X connect 86 0 81 3;
#X connect 88 0 82 0;
#X connect 89 0 91 0;
#X connect 90 0 91 0;
