#N canvas 25 161 1571 876 10;
#X obj 375 0 metro 100;
#X obj 474 -47 hsl 128 15 10 1000 1 0 empty empty empty -2 -8 0 10
-262144 -1 -1 8877 1;
#X obj 374 -20 tgl 15 0 empty empty empty 17 7 0 10 -262144 -1 -1 1
1;
#X floatatom 432 61 0 0 0 0 - - -;
#X obj 432 36 + 1;
#X obj 375 37 float;
#X floatatom 376 63 5 0 0 0 - - -;
#X obj 380 89 mod 16;
#X obj 220 589 ../cmp/mixer;
#X obj 351 803 dac~;
#X obj 264 566 *~ 1;
#X msg 737 -45 4 -3 -5 5 -1 0 0 3 4 6 7 -14 4 -3 4 5;
#X obj 316 773 *~ 1;
#X obj 225 772 *~ 1;
#X obj 356 771 hsl 128 15 0 3 0 0 empty empty empty -2 -8 0 10 -262144
-1 -1 0 1;
#X obj 426 -22 / 2;
#X obj 458 -20 hsl 128 15 1 16 0 0 empty empty empty -2 -8 0 10 -262144
-1 -1 0 1;
#X obj 456 0 t b f;
#X msg 654 -21 4;
#X msg 620 -22 2;
#X msg 592 -22 1;
#X floatatom 549 -18 5 0 0 0 - - -;
#X floatatom 571 -47 5 0 0 0 - - -;
#X msg 624 93 2;
#X floatatom 627 125 5 0 0 0 - - -;
#X msg 660 92 1;
#X floatatom 405 349 5 0 0 0 - - -;
#X obj 404 450 ../cmp/multi_osc1;
#X obj 314 534 *~ 1;
#X obj 405 367 + 62;
#X obj 406 407 mtof;
#X obj 601 408 ../cmp/flanger_st;
#X obj 405 386 + 1;
#X obj 438 388 hsl 128 10 -24 24 0 0 empty empty empty -2 -8 0 10 -262144
-1 -1 9525 0;
#X obj 443 407 int;
#X obj 602 383 *~;
#X msg 738 -19 4 -3 -6 -10 -8 3 0 3 0 6 7 18 4 10 4 5;
#X msg 612 -47 250;
#X msg 746 386 21 5.7 62 0 250 94;
#X msg 726 365 3.9 1.9 0 93 125 94;
#X msg 720 7 -7 -3 -6 -10 -4 3 0 3 5 7 16 -5 -2 10 13 15;
#X obj 48 89 ../cmp/multi_osc1;
#X obj 49 424 *~ 1;
#X obj 21 49 hsl 128 15 20 3000 1 0 empty empty empty -2 -8 0 10 -262144
-1 -1 2271 1;
#X obj 40 397 vcf~;
#X obj 52 382 hsl 128 10 100 3000 1 0 empty empty empty -2 -8 0 10
-262144 -1 -1 12400 1;
#X obj 78 398 hsl 128 15 0.5 100 1 0 empty empty empty -2 -8 0 10 -262144
-1 -1 5500 1;
#X obj 9 29 mtof;
#X obj 59 8 hsl 128 15 0 127 0 0 empty empty empty -2 -8 0 10 -262144
-1 -1 3100 1;
#X obj 56 28 int;
#X floatatom 156 9 5 0 0 0 - - -;
#X obj 57 -55 random 12;
#X obj 113 -14 bng 15 250 50 0 empty empty empty 17 7 0 10 -262144
-1 -1;
#X obj 57 -15 + 25;
#X obj 86 -36 hsl 128 15 0 127 0 0 empty empty empty -2 -8 0 10 -262144
-1 -1 2200 1;
#X obj 48 209 *~ 1;
#X obj 88 208 hsl 128 15 0.1 1000 1 0 empty empty empty -2 -8 0 10
-262144 -1 -1 11600 1;
#X obj 23 -47 bng 15 250 50 0 empty empty empty 17 7 0 10 -262144 -1
-1;
#X obj 46 345 *~;
#X obj 216 565 *~ 1;
#X obj 238 538 *~ 1;
#X obj 724 277 print s2;
#X obj 316 329 print s1;
#X obj 537 316 bng 15 250 50 0 empty empty empty 17 7 0 10 -262144
-1 -1;
#X floatatom 183 -34 5 0 0 0 - - -;
#X msg 760 411 22 0 70 52 70 94;
#X obj 381 148 seq2;
#X msg 695 32 21 40 41 42 41 55 45 51 47 37 49 35 37 52 62 60;
#X msg 763 441 22 0 0 65 23 94;
#X obj 312 93 mod 8;
#X msg 688 56 41 44 49 46 48 59 52 58 52 46 55 43 43 52 62 60;
#X msg 791 286 1 1 1 1 1 1 1 1 1 1 1 1 1 1 1 1 1;
#X msg 791 242 4 7 4 7 11 8 7 3 4 7 4 7 11 17 12 3;
#X msg 766 470 0 0 0 87 192 64;
#X msg 336 67 16;
#X msg 303 67 8;
#X msg 585 95 4;
#X obj 62 245 seq2;
#X obj 288 131 == 0;
#X msg 792 264 1 1 0 1 1 1 0 1 0 1 1 1 1 1 1 1;
#X obj 962 348 seq2;
#X obj 1096 528 I07.phase.vocoder;
#X obj 982 668 *~;
#X obj 983 690 *~ 1;
#X obj 299 566 *~ 1;
#X obj 1160 490 openpanel;
#X obj 1161 467 bng 15 250 50 0 empty empty empty 17 7 0 10 -262144
-1 -1;
#X obj 1078 460 bng 15 250 50 0 empty empty empty 17 7 0 10 -262144
-1 -1;
#X obj 1010 602 == 0;
#X obj 989 636 *~ 1;
#X obj 1010 584 tgl 15 0 empty empty empty 17 7 0 10 -262144 -1 -1
1 1;
#X obj 975 603 == 1;
#X obj 927 604 sig~ 1;
#X obj 1124 665 hsl 128 15 0 10 0 0 empty empty empty -2 -8 0 10 -262144
-1 -1 7000 1;
#X obj 1101 689 *~ 1;
#X floatatom 1218 666 5 0 0 0 - - -;
#X obj 917 533 env;
#X obj 950 637 *~ 0;
#X obj 1099 501 * 1;
#X msg 1097 480 1;
#X obj 1167 440 hsl 128 15 1 5000 0 0 empty empty empty -2 -8 0 10
-262144 -1 -1 0 1;
#X floatatom 1263 439 5 0 0 0 - - -;
#X floatatom 1123 505 5 0 0 0 - - -;
#X obj 925 489 sig~ 1;
#X msg 1224 471 /media/disk1/media/samples/pfx/Guitars/019_110bluesguitarriff_A_06.wav
;
#X obj 978 780 *~ 1;
#X obj 974 759 vcf~;
#X obj 986 744 hsl 128 10 100 3000 1 0 empty empty empty -2 -8 0 10
-262144 -1 -1 3700 1;
#X obj 1012 760 hsl 128 15 0.5 100 1 0 empty empty empty -2 -8 0 10
-262144 -1 -1 2000 1;
#X obj 946 719 crossfade;
#X obj 1019 721 hsl 128 15 0 127 0 0 empty empty empty -2 -8 0 10 -262144
-1 -1 0 1;
#X obj 905 782 *~ 1;
#X floatatom 531 387 5 0 0 0 - - -;
#X obj 680 -49 loadbang;
#X obj 268 -7 metro 100;
#X floatatom 325 41 0 0 0 0 - - -;
#X obj 325 16 + 1;
#X obj 268 17 float;
#X floatatom 269 43 5 0 0 0 - - -;
#X obj 211 -51 / 2;
#X obj 243 -49 hsl 128 15 1 16 0 0 empty empty empty -2 -8 0 10 -262144
-1 -1 0 1;
#X msg 439 -50 4;
#X msg 405 -51 2;
#X msg 377 -51 1;
#X floatatom 334 -47 5 0 0 0 - - -;
#X obj 308 -32 / 2;
#X obj 240 -31 t b f;
#X msg 1397 502 -945;
#X msg 1438 501 3000;
#X obj 1261 504 hsl 128 15 -3000 3000 0 0 empty empty empty -2 -8 0
10 -262144 -1 -1 0 0;
#X obj 1259 578 line;
#X obj 1321 553 hsl 128 15 0 2000 0 0 empty empty empty -2 -8 0 10
-262144 -1 -1 0 1;
#X floatatom 1351 522 6 0 0 0 - - -;
#X text 1258 506 level;
#X floatatom 1416 553 5 0 0 0 - - -;
#X obj 1262 554 pack f f;
#X msg 1474 500 300;
#X text 1323 554 porta;
#X msg 1512 501 1582;
#X floatatom 1317 438 5 0 0 0 - - -;
#X msg 1483 522 -300;
#X msg 647 -49 100;
#X msg 1534 524 -1000;
#X floatatom 183 208 5 0 0 0 - - -;
#X obj 557 361 * 3;
#X obj 560 334 random 16;
#X obj 582 362 - 8;
#X floatatom 149 380 5 0 0 0 - - -;
#X obj 213 429 line;
#X obj 273 396 hsl 128 15 0 2000 0 0 empty empty empty -2 -8 0 10 -262144
-1 -1 0 1;
#X floatatom 368 396 5 0 0 0 - - -;
#X obj 214 397 pack f f;
#X text 275 397 porta;
#X obj 215 357 random 1900;
#X obj 215 377 + 100;
#X obj 258 340 tgl 15 0 empty empty empty 17 7 0 10 -262144 -1 -1 0
1;
#X obj 213 339 spigot;
#X obj 1271 80 sendOSC;
#X obj 1271 30 loadbang;
#X msg 1270 58 connect localhost 10002;
#X msg 1172 41 send /time \$1;
#X obj 1097 459 select 0;
#X obj 582 299 spigot;
#X obj 616 274 tgl 15 0 empty empty empty 17 7 0 10 -262144 -1 -1 1
1;
#X obj 970 166 spigot;
#X msg 1005 145 1;
#X msg 1160 95 send /met \$1;
#X obj 993 89 bng 15 250 50 0 empty empty empty 17 7 0 10 -262144 -1
-1;
#X obj 1035 144 bng 15 250 50 0 empty empty empty 17 7 0 10 -262144
-1 -1;
#X msg 970 142 0;
#X obj 1000 187 bng 15 250 50 0 empty empty empty 17 7 0 10 -262144
-1 -1;
#X obj 1004 116 del 200;
#X text 1307 453 make sure the fucking disk is mounted!!!!;
#X obj 1044 64 hsl 128 15 100 3000 0 0 empty empty empty -2 -8 0 10
-262144 -1 -1 3200 1;
#X floatatom 1138 65 5 0 0 0 - - -;
#X obj 1058 185 spigot;
#X obj 940 98 t b b b;
#X obj 1083 143 loadbang;
#X text 483 227 3;
#X text 360 194 490;
#X msg 477 407 0 95 83 -0.8;
#X msg 477 427 0 78 0 10 -0.8;
#X msg 91 67 30 0 104 -0.9;
#X msg 1040 38 1600;
#X msg 1080 40 1600;
#X text 221 209 comment;
#X connect 0 0 5 0;
#X connect 1 0 15 0;
#X connect 1 0 22 0;
#X connect 1 0 125 0;
#X connect 2 0 0 0;
#X connect 2 0 114 0;
#X connect 4 0 3 0;
#X connect 4 0 5 1;
#X connect 5 0 4 0;
#X connect 5 0 6 0;
#X connect 6 0 7 0;
#X connect 7 0 66 0;
#X connect 7 0 80 0;
#X connect 8 0 13 0;
#X connect 8 1 12 0;
#X connect 10 0 8 4;
#X connect 10 0 8 5;
#X connect 11 0 66 2;
#X connect 12 0 9 1;
#X connect 13 0 9 0;
#X connect 14 0 12 1;
#X connect 14 0 13 1;
#X connect 15 0 0 1;
#X connect 16 0 17 0;
#X connect 16 0 21 0;
#X connect 17 0 15 0;
#X connect 17 1 15 1;
#X connect 18 0 16 0;
#X connect 19 0 16 0;
#X connect 20 0 16 0;
#X connect 23 0 24 0;
#X connect 24 0 66 1;
#X connect 25 0 24 0;
#X connect 26 0 29 0;
#X connect 27 0 35 0;
#X connect 28 0 10 0;
#X connect 29 0 32 0;
#X connect 30 0 27 0;
#X connect 31 0 28 0;
#X connect 32 0 30 0;
#X connect 33 0 34 0;
#X connect 33 0 112 0;
#X connect 34 0 32 1;
#X connect 35 0 31 0;
#X connect 36 0 66 2;
#X connect 37 0 1 0;
#X connect 38 0 31 9;
#X connect 39 0 31 9;
#X connect 40 0 66 2;
#X connect 41 0 55 0;
#X connect 42 0 59 0;
#X connect 43 0 41 0;
#X connect 44 0 42 0;
#X connect 45 0 44 1;
#X connect 45 0 147 0;
#X connect 46 0 44 2;
#X connect 47 0 43 0;
#X connect 48 0 49 0;
#X connect 49 0 47 0;
#X connect 49 0 50 0;
#X connect 51 0 52 0;
#X connect 51 0 53 0;
#X connect 53 0 48 0;
#X connect 54 0 53 1;
#X connect 54 0 64 0;
#X connect 55 0 58 0;
#X connect 56 0 55 1;
#X connect 56 0 143 0;
#X connect 57 0 51 0;
#X connect 58 0 44 0;
#X connect 59 0 8 0;
#X connect 59 0 8 1;
#X connect 60 0 8 2;
#X connect 60 0 8 3;
#X connect 63 0 57 0;
#X connect 65 0 31 9;
#X connect 66 0 26 0;
#X connect 66 0 176 0;
#X connect 66 1 35 1;
#X connect 66 2 61 0;
#X connect 66 3 162 0;
#X connect 67 0 66 2;
#X connect 68 0 31 9;
#X connect 69 0 77 0;
#X connect 70 0 66 2;
#X connect 71 0 66 2;
#X connect 72 0 66 2;
#X connect 73 0 31 9;
#X connect 74 0 69 1;
#X connect 75 0 69 1;
#X connect 76 0 24 0;
#X connect 77 1 58 1;
#X connect 77 2 62 0;
#X connect 77 3 63 0;
#X connect 77 3 156 0;
#X connect 79 0 66 2;
#X connect 80 0 161 0;
#X connect 81 0 94 0;
#X connect 82 0 83 0;
#X connect 83 0 109 0;
#X connect 83 0 106 0;
#X connect 84 0 8 6;
#X connect 84 0 8 7;
#X connect 85 0 81 3;
#X connect 86 0 85 0;
#X connect 88 0 89 1;
#X connect 89 0 82 0;
#X connect 90 0 88 0;
#X connect 90 0 91 0;
#X connect 91 0 97 1;
#X connect 92 0 97 0;
#X connect 93 0 94 1;
#X connect 93 0 95 0;
#X connect 94 0 96 0;
#X connect 94 0 82 1;
#X connect 96 0 89 0;
#X connect 97 0 82 0;
#X connect 98 0 81 0;
#X connect 98 0 102 0;
#X connect 99 0 98 0;
#X connect 100 0 98 1;
#X connect 100 0 101 0;
#X connect 104 0 81 3;
#X connect 105 0 111 0;
#X connect 106 0 105 0;
#X connect 107 0 106 1;
#X connect 108 0 106 2;
#X connect 109 0 111 0;
#X connect 110 0 109 2;
#X connect 111 0 84 0;
#X connect 113 0 37 0;
#X connect 114 0 117 0;
#X connect 116 0 115 0;
#X connect 116 0 117 1;
#X connect 117 0 116 0;
#X connect 117 0 118 0;
#X connect 118 0 69 0;
#X connect 120 0 124 0;
#X connect 120 0 126 0;
#X connect 121 0 120 0;
#X connect 122 0 120 0;
#X connect 123 0 120 0;
#X connect 125 0 114 1;
#X connect 126 0 125 0;
#X connect 126 1 125 1;
#X connect 127 0 129 0;
#X connect 128 0 129 0;
#X connect 129 0 132 0;
#X connect 129 0 135 0;
#X connect 130 0 81 4;
#X connect 131 0 134 0;
#X connect 131 0 135 1;
#X connect 135 0 130 0;
#X connect 136 0 129 0;
#X connect 138 0 129 0;
#X connect 140 0 129 0;
#X connect 141 0 1 0;
#X connect 142 0 129 0;
#X connect 144 0 33 0;
#X connect 145 0 146 0;
#X connect 146 0 144 0;
#X connect 148 0 45 0;
#X connect 149 0 150 0;
#X connect 149 0 151 1;
#X connect 151 0 148 0;
#X connect 153 0 154 0;
#X connect 154 0 151 0;
#X connect 155 0 156 1;
#X connect 156 0 153 0;
#X connect 158 0 159 0;
#X connect 159 0 157 0;
#X connect 160 0 157 0;
#X connect 161 0 87 0;
#X connect 161 0 96 1;
#X connect 161 0 99 0;
#X connect 162 0 145 0;
#X connect 163 0 162 1;
#X connect 164 0 166 0;
#X connect 164 0 170 0;
#X connect 165 0 164 1;
#X connect 165 0 168 0;
#X connect 165 0 175 1;
#X connect 166 0 157 0;
#X connect 169 0 164 1;
#X connect 169 0 175 1;
#X connect 171 0 165 0;
#X connect 173 0 171 1;
#X connect 173 0 174 0;
#X connect 173 0 160 0;
#X connect 175 0 171 0;
#X connect 176 0 167 0;
#X connect 176 0 169 0;
#X connect 176 1 164 0;
#X connect 176 2 175 0;
#X connect 177 0 165 0;
#X connect 180 0 27 1;
#X connect 181 0 27 1;
#X connect 182 0 41 1;
