#N canvas 491 73 1317 1037 10;
#X obj 276 199 pix_mask;
#X obj 278 271 pix_texture;
#X obj 294 135 gemhead 20;
#X text 320 22 blending \, using mask;
#X obj 275 109 pix_image ./tree_1000.jpg;
#X obj 294 168 pix_image tree_1000_mask.jpg;
#X obj 297 561 rotateXYZ 0 0 0;
#X obj 237 744 hsl 128 15 0 10 0 0 empty \$0-wid empty -2 -8 0 10 -262144
-1 -1 1900 1;
#X floatatom 333 745 5 0 0 0 - - -;
#X obj 33 581 rotateXYZ 0 0 0;
#X obj 57 485 hsl 128 15 0 360 0 0 empty \$0-r1-x empty -2 -8 0 10
-262144 -1 -1 0 1;
#X floatatom 151 487 5 0 0 0 - - -;
#X obj 71 506 hsl 128 15 0 360 0 0 empty \$0-r1-y empty -2 -8 0 10
-262144 -1 -1 0 1;
#X floatatom 165 508 5 0 0 0 - - -;
#X obj 81 526 hsl 128 15 0 360 0 0 empty \$0-r1-z empty -2 -8 0 10
-262144 -1 -1 0 1;
#X floatatom 179 529 5 0 0 0 - - -;
#X msg 55 460 180;
#X obj 293 397 separator;
#X obj 32 419 separator;
#X obj 66 615 hsl 128 15 -10 10 0 0 empty \$0-t1-x empty -2 -8 0 10
-262144 -1 -1 4445 1;
#X floatatom 160 617 5 0 0 0 - - -;
#X obj 74 635 hsl 128 15 -10 10 0 0 empty \$0-t1-y empty -2 -8 0 10
-262144 -1 -1 5715 1;
#X floatatom 173 636 5 0 0 0 - - -;
#X obj 94 657 hsl 128 15 -10 10 0 0 empty \$0-t1-z empty -2 -8 0 10
-262144 -1 -1 6350 1;
#X floatatom 188 659 5 0 0 0 - - -;
#X obj 42 722 translateXYZ 0 0 0;
#X msg 65 597 0;
#X msg 97 594 0;
#X obj 293 715 translateXYZ 0 0 0;
#X obj 491 574 rotateXYZ 0 0 0;
#X obj 483 413 separator;
#X obj 485 745 translateXYZ 0 0 0;
#X obj 711 584 rotateXYZ 0 0 0;
#X obj 707 420 separator;
#X obj 706 713 translateXYZ 0 0 0;
#X obj 437 483 * 1;
#X obj 650 532 * 2;
#X obj 868 526 * 3;
#X obj 276 246 pix_alpha;
#X text 420 142 set the alpha value;
#X obj 344 247 hsl 128 15 0 1 0 0 empty \$0-alpha empty -2 -8 0 10
-262144 -1 -1 5800 1;
#X obj 284 24 inlet;
#X obj 700 399 spigot;
#X obj 734 374 tgl 15 0 empty empty empty 17 7 0 10 -262144 -1 -1 1
1;
#X obj 35 392 spigot;
#X obj 69 367 tgl 15 0 empty empty empty 17 7 0 10 -262144 -1 -1 1
1;
#X obj 282 372 spigot;
#X obj 316 347 tgl 15 0 empty empty empty 17 7 0 10 -262144 -1 -1 1
1;
#X obj 474 384 spigot;
#X obj 508 359 tgl 15 0 empty empty empty 17 7 0 10 -262144 -1 -1 1
1;
#X msg 611 190 open \$1.jpg;
#X obj 608 101 inlet;
#X obj 632 134 symbol;
#X obj 580 138 symbol;
#X obj 35 883 rotateXYZ 0 0 0;
#X obj 55 776 hsl 128 15 0 360 0 0 empty \$0-r2-x empty -2 -8 0 10
-262144 -1 -1 0 1;
#X floatatom 149 778 5 0 0 0 - - -;
#X obj 69 797 hsl 128 15 0 360 0 0 empty \$0-r2-y empty -2 -8 0 10
-262144 -1 -1 0 1;
#X floatatom 163 799 5 0 0 0 - - -;
#X obj 79 817 hsl 128 15 0 360 0 0 empty \$0-r2-z empty -2 -8 0 10
-262144 -1 -1 0 1;
#X floatatom 177 820 5 0 0 0 - - -;
#X msg 53 751 180;
#X obj 287 853 rotateXYZ 0 0 0;
#X obj 481 861 rotateXYZ 0 0 0;
#X obj 703 877 rotateXYZ 0 0 0;
#X msg 91 749 180;
#X obj 892 571 rotateXYZ 0 0 0;
#X obj 884 410 separator;
#X obj 886 742 translateXYZ 0 0 0;
#X obj 1112 581 rotateXYZ 0 0 0;
#X obj 1108 417 separator;
#X obj 1107 710 translateXYZ 0 0 0;
#X obj 1101 396 spigot;
#X obj 1135 371 tgl 15 0 empty empty empty 17 7 0 10 -262144 -1 -1
0 1;
#X obj 875 381 spigot;
#X obj 909 356 tgl 15 0 empty empty empty 17 7 0 10 -262144 -1 -1 0
1;
#X obj 882 858 rotateXYZ 0 0 0;
#X obj 1102 868 rotateXYZ 0 0 0;
#X obj 434 447 /;
#X obj 799 190 hsl 128 15 1 6 0 0 empty \$0-num empty -2 -8 0 10 -262144
-1 -1 7620 1;
#X floatatom 892 189 5 0 0 0 - - -;
#X obj 797 245 * 1;
#X msg 425 411 360;
#X obj 1053 520 * 4;
#X obj 1230 533 * 5;
#X obj 989 360 > 4;
#X obj 536 358 > 2;
#X obj 777 350 > 3;
#X obj 352 335 > 1;
#X obj 1151 340 > 5;
#X obj 411 374 t b b f;
#X obj 1032 43 hsl 128 15 0 360 0 0 \$0-r1-x empty empty -2 -8 0 10
-262144 -1 -1 0 1;
#X floatatom 1126 45 5 0 0 0 - - -;
#X obj 1031 65 hsl 128 15 0 360 0 0 \$0-r1-y empty empty -2 -8 0 10
-262144 -1 -1 0 1;
#X floatatom 1125 67 5 0 0 0 - - -;
#X obj 1032 86 hsl 128 15 0 360 0 0 \$0-r1-z empty empty -2 -8 0 10
-262144 -1 -1 0 1;
#X floatatom 1130 89 5 0 0 0 - - -;
#X msg 1168 43 180;
#X obj 1034 117 hsl 128 15 -10 10 0 0 \$0-t1-x empty empty -2 -8 0
10 -262144 -1 -1 4445 1;
#X floatatom 1128 119 5 0 0 0 - - -;
#X obj 1034 137 hsl 128 15 -10 10 0 0 \$0-t1-y empty empty -2 -8 0
10 -262144 -1 -1 5715 1;
#X floatatom 1133 138 5 0 0 0 - - -;
#X obj 1036 158 hsl 128 15 -10 10 0 0 \$0-t1-z empty empty -2 -8 0
10 -262144 -1 -1 6350 1;
#X floatatom 1130 160 5 0 0 0 - - -;
#X msg 1169 113 0;
#X msg 1169 135 0;
#X obj 1037 190 hsl 128 15 0 360 0 0 \$0-r2-x empty empty -2 -8 0 10
-262144 -1 -1 0 1;
#X floatatom 1131 192 5 0 0 0 - - -;
#X obj 1037 211 hsl 128 15 0 360 0 0 \$0-r2-y empty empty -2 -8 0 10
-262144 -1 -1 0 1;
#X floatatom 1131 213 5 0 0 0 - - -;
#X obj 1038 231 hsl 128 15 0 360 0 0 \$0-r2-z empty empty -2 -8 0 10
-262144 -1 -1 0 1;
#X floatatom 1136 234 5 0 0 0 - - -;
#X msg 1172 189 180;
#X msg 1172 208 180;
#X obj 849 208 int;
#X obj 1077 5 hsl 80 15 1 6 0 0 empty empty empty -2 -8 0 10 -262144
-1 -1 6300 1;
#X floatatom 1128 5 5 0 0 0 - - -;
#X obj 1169 4 int;
#X obj 1200 3 s \$0-num;
#X floatatom 437 248 5 0 0 0 - - -;
#X obj 1032 24 hsl 128 15 0 1 0 0 \$0-alpha empty empty -2 -8 0 10
-262144 -1 -1 5800 1;
#X floatatom 1125 25 5 0 0 0 - - -;
#X text 1080 6 num;
#X text 1033 24 alpha;
#X text 1035 44 r1-x;
#X text 1033 66 r1-y;
#X text 1036 86 r1-z;
#X text 1034 117 t1-x;
#X text 1035 136 t1-y;
#X text 1038 157 t1-z;
#X text 1038 190 r2-x;
#X text 1038 211 r2-y;
#X text 1040 230 r2-z;
#X obj 1037 260 hsl 128 15 0 10 0 0 \$0-wid empty empty -2 -8 0 10
-262144 -1 -1 1900 1;
#X floatatom 1133 261 5 0 0 0 - - -;
#X msg 643 158 open \$1_mask.jpg;
#X obj 101 339 > 0;
#X obj 23 908 rectangle 3 3;
#X obj 294 911 rectangle 3 3;
#X obj 485 909 rectangle 3 3;
#X obj 706 905 rectangle 3 3;
#X obj 887 906 rectangle 3 3;
#X obj 1107 902 rectangle 3 3;
#X obj 405 760 hsl 128 15 0 10 0 0 empty \$0-hgt empty -2 -8 0 10 -262144
-1 -1 0 1;
#X floatatom 501 761 5 0 0 0 - - -;
#X text 238 785 width;
#X text 406 759 height;
#X obj 1036 281 hsl 128 15 0 10 0 0 \$0-hgt empty empty -2 -8 0 10
-262144 -1 -1 0 1;
#X floatatom 1132 282 5 0 0 0 - - -;
#X text 1042 281 hgt;
#X text 1043 260 wid;
#X obj 304 71 separator;
#X obj 289 49 spigot;
#X obj 335 52 tgl 15 0 empty \$0-on empty 17 7 0 10 -262144 -1 -1 1
1;
#X obj 1030 7 tgl 15 0 \$0-on empty empty 17 7 0 10 -262144 -1 -1 1
1;
#X text 1034 9 on;
#X obj 322 495 ln1 300 \$0;
#X obj 1185 300 s \$0-trans-time;
#X obj 1037 301 hsl 128 15 1 3000 1 0 empty empty empty -2 -8 0 10
-262144 -1 -1 11600 1;
#X obj 1140 524 ln1 300 \$0;
#X obj 1126 503 ln1 300 \$0;
#X obj 925 532 ln1 300 \$0;
#X obj 920 513 ln1 300 \$0;
#X obj 735 510 ln1 300 \$0;
#X obj 764 529 ln1 300 \$0;
#X obj 545 531 ln1 300 \$0;
#X obj 520 510 ln1 300 \$0;
#X obj 352 515 ln1 300 \$0;
#X floatatom 1133 302 5 0 0 0 - - -;
#X obj 575 555 ln1r 2 300 \$0;
#X obj 129 548 ln1 300 \$0;
#X obj 147 568 ln1 300 \$0;
#X obj 258 560 * 0;
#X obj 324 645 ln1 300 \$0;
#X obj 347 667 ln1 300 \$0;
#X obj 393 688 ln1 300 \$0;
#X obj 509 679 ln1 300 \$0;
#X obj 549 695 ln1 300 \$0;
#X obj 583 714 ln1 300 \$0;
#X obj 729 650 ln1 300 \$0;
#X obj 767 670 ln1 300 \$0;
#X obj 794 688 ln1 300 \$0;
#X obj 900 669 ln1 300 \$0;
#X obj 941 690 ln1 300 \$0;
#X obj 972 709 ln1 300 \$0;
#X obj 1117 681 ln1 300 \$0;
#X obj 1166 654 ln1 300 \$0;
#X obj 1195 677 ln1 300 \$0;
#X obj 1188 843 ln1 300 \$0;
#X obj 1159 822 ln1 300 \$0;
#X obj 1127 802 ln1 300 \$0;
#X obj 969 840 ln1 300 \$0;
#X obj 938 822 ln1 300 \$0;
#X obj 911 805 ln1 300 $;
#X obj 788 857 ln1 300 \$0;
#X obj 753 843 ln1 300 \$0;
#X obj 730 822 ln1 300 \$0;
#X obj 568 841 ln1 300 \$0;
#X obj 536 829 ln1 300 \$0;
#X obj 509 809 ln1 300 \$0;
#X obj 369 835 ln1 300 \$0;
#X obj 342 817 ln1 300 \$0;
#X obj 314 804 ln1 300 \$0;
#X obj 384 538 ln1r 1 100 \$0;
#X obj 796 554 ln1r 3 300 \$0;
#X obj 1170 552 ln1r 5 300 \$0;
#X obj 978 548 ln1r 4 300 \$0;
#X obj 156 589 ln1r 1 100 \$0;
#X obj 233 763 ln1 300 \$0;
#X obj 401 779 ln1 300 \$0;
#X obj 77 678 ln1 300 \$0;
#X obj 98 699 ln1 300 \$0;
#X obj 147 678 ln1 300 \$0;
#X obj 54 839 ln1 300 \$0;
#X obj 77 860 ln1 300 \$0;
#X obj 126 839 ln1 300 \$0;
#X text 1036 301 trans_time;
#X obj 647 -71 inlet;
#X obj 938 1 unpack f f f;
#X obj 942 99 unpack f f f;
#X obj 944 163 unpack f f f;
#X text 758 136 15=r1(3);
#X text 758 148 16=t1(3);
#X text 759 161 17=r2(3);
#X text 766 -26 0 = on;
#X text 767 -16 1 = num;
#X text 761 120 14 = trans_time;
#X text 763 109 13 = hgt;
#X text 763 98 12 = wid;
#X text 763 87 11 = r2-z;
#X text 763 76 10 = r2-y;
#X text 763 64 9 = r2-x;
#X text 764 53 8 = t1-z;
#X text 765 42 7 = t1-y;
#X text 764 32 6 = t1-x;
#X text 766 22 5 = r1-z;
#X text 766 13 4 = r1-y;
#X text 766 4 3 = r1-x;
#X text 767 -6 2 = alpha;
#X obj 952 258 unpack f f;
#X obj 690 -70 route 0 1 2 3 4 5 6 7 8 9 10 11 12 13 14 15 16 17 18
;
#X text 759 174 18=size(2);
#X connect 0 0 38 0;
#X connect 1 0 42 0;
#X connect 1 0 48 0;
#X connect 1 0 46 0;
#X connect 1 0 44 0;
#X connect 1 0 74 0;
#X connect 1 0 72 0;
#X connect 2 0 5 0;
#X connect 4 0 0 0;
#X connect 5 0 0 1;
#X connect 6 0 28 0;
#X connect 7 0 8 0;
#X connect 7 0 208 0;
#X connect 9 0 25 0;
#X connect 10 0 11 0;
#X connect 10 0 156 0;
#X connect 10 0 160 0;
#X connect 10 0 162 0;
#X connect 10 0 163 0;
#X connect 10 0 166 0;
#X connect 10 0 170 0;
#X connect 12 0 13 0;
#X connect 12 0 159 0;
#X connect 12 0 161 0;
#X connect 12 0 164 0;
#X connect 12 0 165 0;
#X connect 12 0 167 0;
#X connect 12 0 171 0;
#X connect 14 0 15 0;
#X connect 14 0 169 0;
#X connect 14 0 203 0;
#X connect 14 0 204 0;
#X connect 14 0 205 0;
#X connect 14 0 206 0;
#X connect 14 0 207 0;
#X connect 16 0 10 0;
#X connect 17 0 6 0;
#X connect 18 0 9 0;
#X connect 19 0 20 0;
#X connect 19 0 173 0;
#X connect 19 0 176 0;
#X connect 19 0 179 0;
#X connect 19 0 182 0;
#X connect 19 0 185 0;
#X connect 19 0 210 0;
#X connect 21 0 22 0;
#X connect 21 0 174 0;
#X connect 21 0 177 0;
#X connect 21 0 180 0;
#X connect 21 0 183 0;
#X connect 21 0 186 0;
#X connect 21 0 211 0;
#X connect 23 0 24 0;
#X connect 23 0 175 0;
#X connect 23 0 178 0;
#X connect 23 0 181 0;
#X connect 23 0 184 0;
#X connect 23 0 187 0;
#X connect 23 0 212 0;
#X connect 25 0 54 0;
#X connect 26 0 19 0;
#X connect 27 0 21 0;
#X connect 28 0 62 0;
#X connect 29 0 31 0;
#X connect 30 0 29 0;
#X connect 31 0 63 0;
#X connect 32 0 34 0;
#X connect 33 0 32 0;
#X connect 34 0 64 0;
#X connect 35 0 36 0;
#X connect 35 0 37 0;
#X connect 35 0 83 0;
#X connect 35 0 84 0;
#X connect 35 0 172 0;
#X connect 35 0 203 2;
#X connect 36 0 169 2;
#X connect 37 0 204 2;
#X connect 38 0 1 0;
#X connect 40 0 38 2;
#X connect 40 0 119 0;
#X connect 41 0 152 0;
#X connect 42 0 33 0;
#X connect 43 0 42 1;
#X connect 44 0 18 0;
#X connect 45 0 44 1;
#X connect 46 0 17 0;
#X connect 47 0 46 1;
#X connect 48 0 30 0;
#X connect 49 0 48 1;
#X connect 50 0 4 0;
#X connect 51 0 52 0;
#X connect 51 0 53 0;
#X connect 52 0 135 0;
#X connect 53 0 50 0;
#X connect 54 0 137 0;
#X connect 55 0 56 0;
#X connect 55 0 190 0;
#X connect 55 0 193 0;
#X connect 55 0 196 0;
#X connect 55 0 199 0;
#X connect 55 0 202 0;
#X connect 55 0 213 0;
#X connect 57 0 189 0;
#X connect 57 0 192 0;
#X connect 57 0 195 0;
#X connect 57 0 198 0;
#X connect 57 0 201 0;
#X connect 57 0 58 0;
#X connect 57 0 214 0;
#X connect 59 0 60 0;
#X connect 59 0 188 0;
#X connect 59 0 191 0;
#X connect 59 0 194 0;
#X connect 59 0 197 0;
#X connect 59 0 200 0;
#X connect 59 0 215 0;
#X connect 61 0 55 0;
#X connect 62 0 138 0;
#X connect 63 0 139 0;
#X connect 64 0 140 0;
#X connect 65 0 57 0;
#X connect 66 0 68 0;
#X connect 67 0 66 0;
#X connect 68 0 76 0;
#X connect 69 0 71 0;
#X connect 70 0 69 0;
#X connect 71 0 77 0;
#X connect 72 0 70 0;
#X connect 73 0 72 1;
#X connect 74 0 67 0;
#X connect 75 0 74 1;
#X connect 76 0 141 0;
#X connect 77 0 142 0;
#X connect 78 0 35 0;
#X connect 79 0 114 0;
#X connect 81 0 88 0;
#X connect 81 0 86 0;
#X connect 81 0 87 0;
#X connect 81 0 85 0;
#X connect 81 0 89 0;
#X connect 81 0 90 0;
#X connect 81 0 136 0;
#X connect 82 0 78 0;
#X connect 83 0 206 2;
#X connect 84 0 205 2;
#X connect 85 0 75 0;
#X connect 86 0 49 0;
#X connect 87 0 43 0;
#X connect 88 0 47 0;
#X connect 89 0 73 0;
#X connect 90 0 169 0;
#X connect 90 0 203 0;
#X connect 90 0 204 0;
#X connect 90 0 205 0;
#X connect 90 0 206 0;
#X connect 90 0 207 0;
#X connect 90 1 82 0;
#X connect 90 2 78 1;
#X connect 91 0 92 0;
#X connect 93 0 94 0;
#X connect 95 0 96 0;
#X connect 97 0 91 0;
#X connect 98 0 99 0;
#X connect 100 0 101 0;
#X connect 102 0 103 0;
#X connect 104 0 98 0;
#X connect 105 0 100 0;
#X connect 106 0 107 0;
#X connect 108 0 109 0;
#X connect 110 0 111 0;
#X connect 112 0 106 0;
#X connect 113 0 108 0;
#X connect 114 0 80 0;
#X connect 114 0 81 0;
#X connect 115 0 117 0;
#X connect 117 0 116 0;
#X connect 117 0 118 0;
#X connect 120 0 121 0;
#X connect 133 0 134 0;
#X connect 135 0 5 0;
#X connect 136 0 45 0;
#X connect 143 0 144 0;
#X connect 143 0 209 0;
#X connect 147 0 148 0;
#X connect 151 0 4 0;
#X connect 152 0 151 0;
#X connect 153 0 152 1;
#X connect 156 0 6 1;
#X connect 158 0 157 0;
#X connect 158 0 168 0;
#X connect 159 0 69 2;
#X connect 160 0 69 1;
#X connect 161 0 66 2;
#X connect 162 0 66 1;
#X connect 163 0 32 1;
#X connect 164 0 32 2;
#X connect 165 0 29 2;
#X connect 166 0 29 1;
#X connect 167 0 6 2;
#X connect 169 0 29 3;
#X connect 170 0 9 1;
#X connect 171 0 9 2;
#X connect 172 0 207 2;
#X connect 173 0 28 1;
#X connect 174 0 28 2;
#X connect 175 0 28 3;
#X connect 176 0 31 1;
#X connect 177 0 31 2;
#X connect 178 0 31 3;
#X connect 179 0 34 1;
#X connect 180 0 34 2;
#X connect 181 0 34 3;
#X connect 182 0 68 1;
#X connect 183 0 68 2;
#X connect 184 0 68 3;
#X connect 185 0 71 1;
#X connect 186 0 71 2;
#X connect 187 0 71 3;
#X connect 188 0 77 3;
#X connect 189 0 77 2;
#X connect 190 0 77 1;
#X connect 191 0 76 3;
#X connect 192 0 76 2;
#X connect 193 0 76 1;
#X connect 194 0 64 3;
#X connect 195 0 64 2;
#X connect 196 0 64 1;
#X connect 197 0 63 3;
#X connect 198 0 63 2;
#X connect 199 0 63 1;
#X connect 200 0 62 3;
#X connect 201 0 62 2;
#X connect 202 0 62 1;
#X connect 203 0 6 3;
#X connect 204 0 32 3;
#X connect 205 0 69 3;
#X connect 206 0 66 3;
#X connect 207 0 9 3;
#X connect 208 0 137 1;
#X connect 208 0 138 1;
#X connect 208 0 139 1;
#X connect 208 0 140 1;
#X connect 208 0 141 1;
#X connect 208 0 142 1;
#X connect 209 0 137 2;
#X connect 209 0 138 2;
#X connect 209 0 139 2;
#X connect 209 0 140 2;
#X connect 209 0 141 2;
#X connect 209 0 142 2;
#X connect 210 0 25 1;
#X connect 211 0 25 2;
#X connect 212 0 25 3;
#X connect 213 0 54 1;
#X connect 214 0 54 2;
#X connect 215 0 54 3;
#X connect 217 0 240 0;
#X connect 218 0 91 0;
#X connect 218 1 93 0;
#X connect 218 2 95 0;
#X connect 219 0 98 0;
#X connect 219 1 100 0;
#X connect 219 2 102 0;
#X connect 220 0 106 0;
#X connect 220 1 108 0;
#X connect 220 2 133 0;
#X connect 239 0 133 0;
#X connect 239 1 147 0;
#X connect 240 0 154 0;
#X connect 240 1 115 0;
#X connect 240 2 120 0;
#X connect 240 3 91 0;
#X connect 240 4 93 0;
#X connect 240 5 95 0;
#X connect 240 6 98 0;
#X connect 240 7 100 0;
#X connect 240 8 102 0;
#X connect 240 9 106 0;
#X connect 240 10 108 0;
#X connect 240 11 110 0;
#X connect 240 12 133 0;
#X connect 240 13 147 0;
#X connect 240 14 158 0;
#X connect 240 15 218 0;
#X connect 240 16 219 0;
#X connect 240 17 220 0;
#X connect 240 18 239 0;
#X coords 0 -1 1 1 155 320 1 1020 0;
