#N canvas 631 524 450 300 10;
#X obj 43 41 inlet;
#X obj 48 136 line 0 10;
#X obj 49 98 pack f f;
#X obj 92 39 inlet;
#X obj 215 15 loadbang;
#X obj 48 164 outlet;
#X obj 159 15 float \$1;
#X floatatom 91 78 5 0 0 0 - - -;
#X obj 239 43 inlet;
#X obj 240 69 float \$2;
#X obj 133 41 r \$2-trans-time;
#X connect 0 0 2 0;
#X connect 1 0 5 0;
#X connect 2 0 1 0;
#X connect 3 0 7 0;
#X connect 4 0 6 0;
#X connect 6 0 7 0;
#X connect 7 0 2 1;
#X connect 10 0 7 0;
