#N canvas 335 723 450 300 10;
#X obj 44 20 inlet;
#X obj 48 136 line 0 10;
#X obj 49 98 pack f f;
#X obj 94 23 inlet;
#X obj 194 -6 loadbang;
#X obj 48 164 outlet;
#X floatatom 91 78 5 0 0 0 - - -;
#X obj 264 -3 inlet;
#X obj 136 61 float \$2;
#X obj 264 27 float \$1;
#X obj 53 76 +;
#X obj 138 30 r \$3-trans-time;
#X connect 0 0 10 0;
#X connect 1 0 5 0;
#X connect 2 0 1 0;
#X connect 3 0 6 0;
#X connect 4 0 9 0;
#X connect 4 0 8 0;
#X connect 6 0 2 1;
#X connect 7 0 9 0;
#X connect 8 0 6 0;
#X connect 9 0 10 1;
#X connect 10 0 2 0;
#X connect 11 0 6 0;
