#N canvas 1086 156 787 808 10;
#X obj 313 133 gemhead;
#X obj 316 161 alpha;
#X obj 426 163 alpha;
#X obj 624 163 alpha;
#X obj 686 164 tgl 15 0 empty empty empty 17 7 0 10 -262144 -1 -1 0
1;
#X obj 425 129 gemhead;
#X obj 624 130 gemhead;
#X text 369 682 todo: control sigs \,;
#X obj 206 286 kalMask;
#X obj 339 37 metro 2000;
#X obj 619 246 kalMask;
#X obj 427 243 kalMask;
#X obj 287 203 kalVars;
#X obj 585 27 loadbang;
#X obj 499 185 kalVars;
#X obj 713 209 kalVars;
#X obj 401 9 hsl 128 15 100 3000 0 0 empty empty empty -2 -8 0 10 -262144
-1 -1 5269 1;
#X obj 588 56 t b b;
#X msg 490 79 14 \$1;
#X floatatom 493 11 5 0 0 0 - - -;
#X obj 9 8 cnv 15 200 250 empty empty empty 20 12 0 14 -233017 -66577
0;
#X msg 23 52 800 600 0 0;
#X msg 26 98 320 240 0 0;
#X msg 99 51 800 600 1440 -1;
#X msg 24 74 1024 768 0 0;
#X msg 108 71 1024 768 1440 -1;
#X msg 22 143 offset \$3 \$4;
#X msg 105 143 dimen \$1 \$2;
#X obj 38 164 t b b;
#X msg 81 210 destroy;
#X obj 142 189 tgl 15 0 empty empty empty 0 -6 0 8 -262144 -1 -1 1
1;
#X text 156 187 render;
#X msg 85 191 0;
#X msg 34 191 1;
#X obj 136 210 gemwin 20;
#X msg 21 32 640 480 0 0;
#X msg 107 95 400 300 0 0;
#X msg 16 121 1440 900 0 -1;
#X text 38 11 open window;
#X obj 100 163 tgl 15 0 empty empty empty 0 -6 0 8 -262144 -1 -1 1
1;
#X text 193 108 fullscreen;
#X msg 112 117 800 600 -1 -1;
#X msg 183 141 fullscreen 1;
#X obj 232 12 t b b;
#X msg 197 164 border 0;
#X msg 98 31 1024 768 1920 -1;
#X msg 194 121 fullscreen 0;
#X msg 25 233 create :0.0;
#X msg 213 78 offset 1920 0;
#X msg 207 186 border 1;
#X obj 664 8 dumpOSC 10002;
#X obj 672 30 bng 15 250 50 0 empty empty empty 17 7 0 10 -262144 -1
-1;
#X obj 655 54 OSCroute /met;
#X obj 671 76 OSCroute /time;
#X msg 540 7 1600;
#X msg 731 159 1 4;
#X msg 731 182 2 0.5;
#X obj 337 7 tgl 15 0 empty empty empty 17 7 0 10 -262144 -1 -1 1 1
;
#X text 287 -6 DONT LEAVE ON!!;
#X msg 744 114 0 1;
#X msg 124 162 lighting 0;
#X msg 209 56 dimen 1024 768;
#X connect 0 0 1 0;
#X connect 1 0 8 0;
#X connect 2 0 11 0;
#X connect 3 0 10 0;
#X connect 4 0 2 1;
#X connect 4 0 3 1;
#X connect 4 0 1 1;
#X connect 5 0 2 0;
#X connect 6 0 3 0;
#X connect 9 0 12 0;
#X connect 9 0 14 0;
#X connect 9 0 15 0;
#X connect 12 0 8 1;
#X connect 12 1 8 2;
#X connect 13 0 17 0;
#X connect 14 0 11 1;
#X connect 14 1 11 2;
#X connect 15 0 10 1;
#X connect 15 1 10 2;
#X connect 16 0 9 1;
#X connect 16 0 18 0;
#X connect 16 0 19 0;
#X connect 17 0 56 0;
#X connect 17 1 54 0;
#X connect 17 1 59 0;
#X connect 17 1 55 0;
#X connect 18 0 8 2;
#X connect 18 0 11 2;
#X connect 18 0 10 2;
#X connect 21 0 26 0;
#X connect 21 0 27 0;
#X connect 21 0 28 0;
#X connect 22 0 26 0;
#X connect 22 0 27 0;
#X connect 22 0 28 0;
#X connect 23 0 26 0;
#X connect 23 0 27 0;
#X connect 23 0 28 0;
#X connect 24 0 26 0;
#X connect 24 0 27 0;
#X connect 24 0 28 0;
#X connect 25 0 27 0;
#X connect 25 0 26 0;
#X connect 25 0 28 0;
#X connect 26 0 34 0;
#X connect 27 0 34 0;
#X connect 28 0 47 0;
#X connect 28 0 33 0;
#X connect 28 1 29 0;
#X connect 28 1 32 0;
#X connect 29 0 34 0;
#X connect 30 0 34 0;
#X connect 32 0 30 0;
#X connect 32 0 39 0;
#X connect 33 0 30 0;
#X connect 33 0 39 0;
#X connect 35 0 26 0;
#X connect 35 0 27 0;
#X connect 35 0 28 0;
#X connect 36 0 26 0;
#X connect 36 0 27 0;
#X connect 36 0 28 0;
#X connect 37 0 27 0;
#X connect 37 0 26 0;
#X connect 37 0 28 0;
#X connect 39 0 60 0;
#X connect 41 0 27 0;
#X connect 41 0 28 0;
#X connect 42 0 34 0;
#X connect 43 0 24 0;
#X connect 43 1 44 0;
#X connect 44 0 34 0;
#X connect 45 0 28 0;
#X connect 46 0 34 0;
#X connect 47 0 34 0;
#X connect 48 0 34 0;
#X connect 49 0 34 0;
#X connect 50 0 51 0;
#X connect 50 0 52 0;
#X connect 50 0 53 0;
#X connect 52 0 12 0;
#X connect 52 0 14 0;
#X connect 52 0 15 0;
#X connect 53 0 16 0;
#X connect 54 0 16 0;
#X connect 55 0 10 2;
#X connect 55 0 11 2;
#X connect 55 0 8 2;
#X connect 56 0 10 2;
#X connect 56 0 11 2;
#X connect 56 0 8 2;
#X connect 57 0 9 0;
#X connect 59 0 10 2;
#X connect 59 0 11 2;
#X connect 59 0 8 2;
#X connect 60 0 34 0;
#X connect 61 0 34 0;
