#N canvas 838 132 758 771 10;
#X obj 14 10 cnv 15 200 250 empty empty empty 20 12 0 14 -233017 -66577
0;
#X msg 23 52 800 600 0 0;
#X msg 26 98 320 240 0 0;
#X msg 99 51 800 600 1440 -1;
#X msg 24 74 1024 768 0 0;
#X msg 108 71 1024 768 1440 -1;
#X msg 22 143 offset \$3 \$4;
#X msg 105 143 dimen \$1 \$2;
#X obj 38 164 t b b;
#X msg 81 210 destroy;
#X obj 142 189 tgl 15 0 empty empty empty 0 -6 0 8 -262144 -1 -1 1
1;
#X text 156 187 render;
#X msg 85 191 0;
#X msg 34 191 1;
#X obj 136 210 gemwin 20;
#X msg 21 32 640 480 0 0;
#X msg 98 31 640 480 1440 -1;
#X msg 107 95 400 300 0 0;
#X msg 16 121 1440 900 0 -1;
#X text 38 11 open window;
#X msg 121 163 lighting \$1;
#X obj 100 163 tgl 15 0 empty empty empty 0 -6 0 8 -262144 -1 -1 1
1;
#X text 192 114 fullscreen;
#X msg 112 117 800 600 -1 -1;
#X obj 18 303 world_light;
#X obj 18 272 gemhead;
#X msg 181 139 fullscreen 1;
#X obj 174 12 t b b;
#X obj 152 13 bng 15 250 50 0 empty empty empty 0 -6 0 10 -262144 -1
-1;
#X obj 42 53 openW;
#X obj 576 162 mblur;
#X obj 310 60 singleFilm;
#X obj 310 24 gemhead;
#X obj 317 154 pix_texture;
#X obj 318 221 rectangle;
#X msg 25 233 create :0.0;
#X msg 197 164 border 1;
#X obj 345 178 hsl 128 15 0 10 0 0 empty empty empty -2 -6 0 10 -262144
-1 -1 7620 1;
#X obj 370 199 hsl 128 15 0 10 0 0 empty empty empty -2 -6 0 10 -262144
-1 -1 5080 1;
#X floatatom 444 179 5 0 0 0 - - -;
#X floatatom 467 201 5 0 0 0 - - -;
#X msg 481 176 6;
#X msg 508 199 4;
#X msg 402 24 /home/robm/media/video/60_com/avi/7upburger.avi;
#X obj 446 501 text3d hello world;
#X msg 456 428 font ../data/vera.ttf;
#X msg 463 458 font \$1;
#X obj 535 457 openpanel;
#X msg 615 456 bang;
#X obj 533 477 hsl 128 15 0 50 0 0 empty empty empty -2 -6 0 10 -262144
-1 -1 0 1;
#X floatatom 632 478 5 0 0 0 - - -;
#X obj 331 591 rectangle;
#X obj 358 548 hsl 128 15 0 10 0 0 empty empty empty -2 -6 0 10 -262144
-1 -1 7620 1;
#X obj 383 569 hsl 128 15 0 10 0 0 empty empty empty -2 -6 0 10 -262144
-1 -1 5080 1;
#X floatatom 457 549 5 0 0 0 - - -;
#X floatatom 480 571 5 0 0 0 - - -;
#X msg 494 546 6;
#X msg 521 569 4;
#X obj 331 525 color 0 0 0;
#X obj 371 415 translateXYZ;
#X obj 424 387 hsl 128 15 -1 1 0 0 empty empty empty -2 -6 0 10 -262144
-1 -1 0 1;
#X obj 331 500 translateXYZ;
#X msg 399 479 -0.1;
#X obj 59 591 pix_mask;
#X obj 59 730 rectangle;
#X obj 86 687 hsl 128 15 0 10 0 0 empty empty empty -2 -6 0 10 -262144
-1 -1 7620 1;
#X obj 111 708 hsl 128 15 0 10 0 0 empty empty empty -2 -6 0 10 -262144
-1 -1 5080 1;
#X floatatom 185 688 5 0 0 0 - - -;
#X floatatom 208 710 5 0 0 0 - - -;
#X msg 222 685 6;
#X msg 249 708 4;
#X obj 59 632 pix_texture;
#X obj 59 612 alpha;
#X obj 58 663 translateXYZ;
#X obj 147 663 hsl 128 15 -1 10 0 0 empty empty empty -2 -6 0 10 -262144
-1 -1 1100 1;
#X obj 167 465 gemhead 20;
#X obj 121 536 pix_image dancer.JPG;
#X connect 1 0 6 0;
#X connect 1 0 7 0;
#X connect 1 0 8 0;
#X connect 2 0 6 0;
#X connect 2 0 7 0;
#X connect 2 0 8 0;
#X connect 3 0 6 0;
#X connect 3 0 7 0;
#X connect 3 0 8 0;
#X connect 4 0 6 0;
#X connect 4 0 7 0;
#X connect 4 0 8 0;
#X connect 5 0 7 0;
#X connect 5 0 6 0;
#X connect 5 0 8 0;
#X connect 6 0 14 0;
#X connect 7 0 14 0;
#X connect 8 0 35 0;
#X connect 8 0 13 0;
#X connect 8 1 9 0;
#X connect 8 1 12 0;
#X connect 9 0 14 0;
#X connect 10 0 14 0;
#X connect 12 0 10 0;
#X connect 12 0 21 0;
#X connect 13 0 10 0;
#X connect 13 0 21 0;
#X connect 15 0 6 0;
#X connect 15 0 7 0;
#X connect 15 0 8 0;
#X connect 16 0 8 0;
#X connect 17 0 6 0;
#X connect 17 0 7 0;
#X connect 17 0 8 0;
#X connect 18 0 7 0;
#X connect 18 0 6 0;
#X connect 18 0 8 0;
#X connect 20 0 14 0;
#X connect 21 0 20 0;
#X connect 23 0 7 0;
#X connect 23 0 8 0;
#X connect 25 0 24 0;
#X connect 26 0 14 0;
#X connect 27 0 4 0;
#X connect 27 1 36 0;
#X connect 31 0 63 0;
#X connect 32 0 31 0;
#X connect 33 0 34 0;
#X connect 35 0 14 0;
#X connect 36 0 14 0;
#X connect 37 0 34 1;
#X connect 37 0 39 0;
#X connect 38 0 34 2;
#X connect 38 0 40 0;
#X connect 41 0 42 0;
#X connect 41 0 37 0;
#X connect 42 0 38 0;
#X connect 43 0 31 1;
#X connect 45 0 44 0;
#X connect 46 0 44 0;
#X connect 47 0 46 0;
#X connect 48 0 47 0;
#X connect 49 0 50 0;
#X connect 49 0 44 1;
#X connect 52 0 51 1;
#X connect 52 0 54 0;
#X connect 53 0 51 2;
#X connect 53 0 55 0;
#X connect 56 0 57 0;
#X connect 56 0 52 0;
#X connect 57 0 53 0;
#X connect 58 0 51 0;
#X connect 59 0 44 0;
#X connect 59 0 61 0;
#X connect 60 0 59 3;
#X connect 61 0 58 0;
#X connect 62 0 61 3;
#X connect 63 0 72 0;
#X connect 65 0 64 1;
#X connect 65 0 67 0;
#X connect 66 0 64 2;
#X connect 66 0 68 0;
#X connect 69 0 70 0;
#X connect 69 0 65 0;
#X connect 70 0 66 0;
#X connect 71 0 73 0;
#X connect 72 0 71 0;
#X connect 73 0 64 0;
#X connect 74 0 73 3;
#X connect 75 0 76 0;
#X connect 76 0 63 1;
