#N canvas 10 416 789 638 10;
#X obj 140 307 hsl 128 15 -100 200 0 0 empty empty empty -2 -8 0 10
-262144 -1 -1 0 1;
#X floatatom 236 308 5 0 0 0 - - -;
#X text 144 307 speed;
#X obj 166 326 bng 15 250 50 0 empty empty empty 17 7 0 10 -262144
-1 -1;
#X msg 240 287 0;
#X obj 126 252 OSCroute /pos;
#X msg 269 287 100;
#X obj 131 273 print;
#X obj 265 143 - 64;
#X obj 264 164 * 100;
#X floatatom 312 185 5 0 0 0 - - -;
#X obj 385 296 hsl 128 15 -1000 1000 0 0 empty empty empty -2 -8 0
10 -262144 -1 -1 0 1;
#X floatatom 481 295 5 0 0 0 - - -;
#X text 385 297 transpose;
#X msg 116 226 0;
#X obj 262 194 t b f b;
#X floatatom 313 209 5 0 0 0 - - -;
#X obj 86 25 inlet;
#X obj 135 26 inlet;
#X obj 178 27 inlet;
#X obj 218 258 OSCroute /spd;
#X obj 396 268 OSCroute /tsp;
#X obj 343 331 OSCroute /file;
#X obj 354 26 inlet;
#X obj 74 522 outlet~;
#X text 93 8 loc;
#X text 139 9 spd;
#X text 185 8 tsp;
#X obj 222 25 inlet;
#X text 231 9 midi;
#X text 356 11 osc;
#X obj 328 88 OSCroute /ds;
#X obj 273 27 inlet;
#X text 276 11 file;
#X obj 72 370 I07.phase.vocoder;
#X obj 309 26 inlet;
#X text 312 10 bank;
#X connect 0 0 1 0;
#X connect 0 0 34 1;
#X connect 3 0 34 2;
#X connect 4 0 0 0;
#X connect 5 0 7 0;
#X connect 5 0 34 0;
#X connect 6 0 0 0;
#X connect 8 0 9 0;
#X connect 9 0 10 0;
#X connect 9 0 15 0;
#X connect 11 0 12 0;
#X connect 11 0 34 4;
#X connect 14 0 34 0;
#X connect 15 1 16 0;
#X connect 15 2 14 0;
#X connect 17 0 34 0;
#X connect 18 0 0 0;
#X connect 19 0 11 0;
#X connect 20 0 2 0;
#X connect 21 0 34 4;
#X connect 22 0 34 3;
#X connect 23 0 31 0;
#X connect 28 0 8 0;
#X connect 31 0 5 0;
#X connect 31 0 21 0;
#X connect 31 0 20 0;
#X connect 31 0 22 0;
#X connect 32 0 34 3;
#X connect 34 0 24 0;
#X connect 35 0 34 5;
