#N canvas 630 105 1256 971 10;
#X obj 41 345 bng 15 250 50 0 empty empty empty 17 7 0 10 -262144 -1
-1;
#X obj 26 740 dac~;
#X obj 79 366 hsl 128 15 10 1000 1 0 empty empty empty -2 -8 0 10 -262144
-1 -1 0 1;
#X floatatom 175 367 5 0 0 0 - - -;
#X obj -4 158 hsl 500 15 0 100000 0 0 empty empty empty -2 -8 0 10
-262144 -1 -1 7800 1;
#X obj 61 180 hsl 128 15 -100 200 0 0 empty empty empty -2 -8 0 10
-262144 -1 -1 9102 1;
#X floatatom 142 180 8 0 0 0 - - -;
#X floatatom 121 161 8 0 0 0 - - -;
#X text 41 159 location;
#X text 65 180 speed;
#X obj 315 193 hsl 128 15 -1000 1000 0 0 empty empty empty -2 -8 0
10 -262144 -1 -1 0 1;
#X floatatom 413 192 5 0 0 0 - - -;
#X obj 87 199 bng 15 250 50 0 empty empty empty 17 7 0 10 -262144 -1
-1;
#X text 318 193 transpose;
#X obj 75 348 metro 1000;
#X obj 75 331 tgl 15 0 empty empty empty 17 7 0 10 -262144 -1 -1 0
1;
#X msg 199 179 0;
#X obj 147 348 hsl 128 15 10 1000 0 0 empty empty empty -2 -8 0 10
-262144 -1 -1 0 1;
#X floatatom 241 348 5 0 0 0 - - -;
#X obj 10 389 crossfade;
#X obj 7 517 ../cmp/mixer;
#X obj 79 387 hsl 128 15 0 127 0 0 empty empty empty -2 -8 0 10 -262144
-1 -1 0 1;
#X obj 469 -158 dumpOSC 10001;
#X obj 223 102 OSCroute /a1;
#X msg 232 179 100;
#X obj 272 138 print;
#X obj 109 -62 sendOSC;
#X msg 267 -98 connect localhost 10011;
#X obj 267 -115 loadbang;
#X msg 109 -107 send /v1/pos \$1;
#X obj -12 -193 hsl 500 15 0 100 0 0 empty empty empty -2 -8 0 10 -262144
-1 -1 0 0;
#X msg 167 -166 29;
#X msg 201 -165 25;
#X text 226 -164 fps;
#X obj 110 -160 * 25;
#X text 139 -160 comment;
#X floatatom -1 -106 8 0 0 0 - - -;
#X text -2 -194 sec;
#X obj 55 -140 * 1000;
#X floatatom 27 -192 5 0 0 0 - - -;
#X floatatom 156 -144 8 0 0 0 - - -;
#X obj 124 -85 herc_joystk;
#X obj 148 -13 bng 15 250 50 0 empty empty empty 17 7 0 10 -262144
-1 -1;
#X obj 167 39 - 64;
#X obj 166 60 * 100;
#X floatatom 208 63 5 0 0 0 - - -;
#X obj 497 97 hsl 128 15 0 10000 0 0 empty empty empty -2 -8 0 10 -262144
-1 -1 0 1;
#X obj 517 118 hsl 128 15 -100 200 0 0 empty empty empty -2 -8 0 10
-262144 -1 -1 8467 1;
#X floatatom 613 119 5 0 0 0 - - -;
#X floatatom 590 97 5 0 0 0 - - -;
#X text 503 98 location;
#X text 521 118 speed;
#X msg 655 117 0;
#X msg 688 117 100;
#X obj 762 107 hsl 128 15 -1000 1000 0 0 empty empty empty -2 -8 0
10 -262144 -1 -1 0 1;
#X floatatom 858 106 5 0 0 0 - - -;
#X text 767 107 transpose;
#X obj 36 366 env;
#X msg 499 50 0;
#X obj 62 -172 / 1000;
#X msg 262 179 115;
#X obj 630 -85 midi.inst.single 3;
#X obj 547 248 hsl 128 15 0 100000 0 0 empty empty empty -2 -8 0 10
-262144 -1 -1 0 1;
#X obj 567 269 hsl 128 15 -100 200 0 0 empty empty empty -2 -8 0 10
-262144 -1 -1 8424 1;
#X floatatom 663 270 5 0 0 0 - - -;
#X floatatom 640 248 5 0 0 0 - - -;
#X text 553 249 location;
#X text 571 269 speed;
#X msg 705 268 0;
#X msg 738 268 100;
#X obj 812 258 hsl 128 15 -1000 1000 0 0 empty empty empty -2 -8 0
10 -262144 -1 -1 0 1;
#X floatatom 908 257 5 0 0 0 - - -;
#X text 817 258 transpose;
#X obj 546 371 hsl 128 15 0 1000 0 0 empty empty empty -2 -8 0 10 -262144
-1 -1 0 1;
#X obj 566 392 hsl 128 15 -100 200 0 0 empty empty empty -2 -8 0 10
-262144 -1 -1 8467 1;
#X floatatom 662 393 5 0 0 0 - - -;
#X floatatom 639 371 5 0 0 0 - - -;
#X text 552 372 location;
#X text 570 392 speed;
#X msg 704 391 0;
#X msg 738 391 100;
#X obj 803 392 hsl 128 15 -1000 1000 0 0 empty empty empty -2 -8 0
10 -262144 -1 -1 0 1;
#X floatatom 899 391 5 0 0 0 - - -;
#X text 810 390 transpose;
#X obj 549 47 bng 15 250 50 0 empty empty empty 17 7 0 10 -262144 -1
-1;
#X floatatom 592 -63 5 0 0 0 - - -;
#X obj 181 -10 midi.inst.single 1;
#X obj 532 484 hsl 128 15 0 100000 0 0 empty empty empty -2 -8 0 10
-262144 -1 -1 0 1;
#X obj 552 505 hsl 128 15 -100 200 0 0 empty empty empty -2 -8 0 10
-262144 -1 -1 8467 1;
#X floatatom 648 506 5 0 0 0 - - -;
#X floatatom 625 484 5 0 0 0 - - -;
#X text 538 485 location;
#X text 556 505 speed;
#X msg 690 504 0;
#X msg 723 504 100;
#X obj 794 508 hsl 128 15 -1000 1000 0 0 empty empty empty -2 -8 0
10 -262144 -1 -1 6286 1;
#X floatatom 890 507 5 0 0 0 - - -;
#X text 799 508 transpose;
#X obj 634 -37 route 70 69 68 67;
#X msg 688 481 3;
#X msg 708 366 3;
#X obj 449 -80 OSCroute /midi3;
#X obj 458 -58 OSCroute /note;
#X obj 634 -124 unpack f f;
#X obj 722 16 print;
#X obj 638 -10 bng 15 250 50 0 empty empty empty 17 7 0 10 -262144
-1 -1;
#X obj 663 -9 bng 15 250 50 0 empty empty empty 17 7 0 10 -262144 -1
-1;
#X obj 684 -7 bng 15 250 50 0 empty empty empty 17 7 0 10 -262144 -1
-1;
#X obj 762 466 bng 15 250 50 0 empty empty empty 17 7 0 10 -262144
-1 -1;
#X obj 1129 522 OSCroute /m2;
#X obj 116 517 OSCroute /m1;
#X obj 1091 574 mixer;
#X obj 359 176 * 25;
#X floatatom 432 174 5 0 0 0 - - -;
#X obj 313 174 / 115;
#X msg 125 -127 send /v1/fr \$1;
#X msg 706 -59 70;
#X obj 343 -139 OSCroute /note;
#X obj 342 -161 OSCroute /midi1;
#X obj 188 -31 unpack f f;
#X obj 113 127 OSCroute /loc;
#X floatatom 200 129 5 0 0 0 - - -;
#X obj 392 175 + 0.01;
#X obj 706 -14 bng 15 250 50 0 empty empty empty 17 7 0 10 -262144
-1 -1;
#X obj 794 464 random 800;
#X obj 791 486 - 400;
#X obj 808 214 random 1000;
#X obj 808 235 - 500;
#X obj 10 458 crossfade;
#X obj 79 456 hsl 128 15 0 127 0 0 empty empty empty -2 -8 0 10 -262144
-1 -1 0 1;
#X obj 730 215 random 100;
#X obj 730 236 + 50;
#X msg 576 527 /mnt/sda6/robm/patch/OpenNight15Apr10/samps/23.wav 0
;
#X msg 711 322 /mnt/sda6/robm/patch/OpenNight15Apr10/samps/DrumHits/Shaker.wav
1;
#X msg 591 291 /mnt/sda6/robm/patch/OpenNight15Apr10/samps/DrumHits/Hat.wav
0;
#X msg 590 414 /mnt/sda6/robm/patch/OpenNight15Apr10/samps/DrumHits/FX.wav
0;
#X msg 160 265 /mnt/sda6/robm/patch/OpenNight15Apr10/bingo3.wav 2;
#X msg 159 245 /mnt/sda6/robm/patch/OpenNight15Apr10/bingo2.wav 1;
#X obj 552 451 drumsamp abitwider;
#X obj 538 576 drumsamp abitwider;
#X obj 553 328 drumsamp abitwider;
#X obj 508 212 drumsamp abitwider;
#X obj 654 575 hradio 15 1 0 3 empty empty empty 0 -8 0 10 -262144
-1 -1 1;
#X obj 674 451 hradio 15 1 0 3 empty empty empty 0 -8 0 10 -262144
-1 -1 0;
#X obj 668 328 hradio 15 1 0 3 empty empty empty 0 -8 0 10 -262144
-1 -1 2;
#X obj 642 210 hradio 15 1 0 3 empty empty empty 0 -8 0 10 -262144
-1 -1 1;
#X msg 597 545 /mnt/sda6/robm/patch/OpenNight15Apr10/samps/17.wav 2
;
#X msg 708 564 /mnt/sda6/robm/patch/OpenNight15Apr10/samps/DrumHits/kick1.wav
1;
#X msg 751 353 /mnt/sda6/robm/patch/OpenNight15Apr10/samps/DrumHits/hat1.wav
2;
#X obj 1030 228 int;
#X floatatom 1028 247 5 0 0 0 - - -;
#X obj 1030 209 random 3;
#X obj 760 63 random 1000;
#X obj 2 228 I07.phase.vocoder;
#X obj 162 294 hradio 15 1 0 3 empty empty empty 0 -8 0 10 -262144
-1 -1 0;
#X obj 183 484 env~;
#X floatatom 242 476 5 0 0 0 - - -;
#X obj 299 456 metro 10;
#X obj 299 436 tgl 15 0 empty empty empty 17 7 0 10 -262144 -1 -1 0
1;
#X msg 281 487 0;
#X obj 282 519 +;
#X floatatom 407 549 5 0 0 0 - - -;
#X msg 275 -71 send /v1/hgt \$1;
#X obj 295 545 - 50;
#X obj 344 548 * 0.1;
#X obj 300 389 OSCroute /vhenv1;
#X obj 490 303 loadbang;
#X msg 546 175 /mnt/sda6/robm/patch/OpenNight15Apr10/samps/DrumHits/29.wav
0;
#X msg 558 141 /mnt/sda6/robm/patch/OpenNight15Apr10/samps/DrumHits/27.wav
1;
#X obj 760 84 - 900;
#X obj 799 -5 OSCroute /ds1;
#X obj 758 41 spigot;
#X obj 809 39 tgl 15 0 empty empty empty 17 7 0 10 -262144 -1 -1 0
1;
#X obj 1061 143 OSCroute /rnd;
#X obj 1028 187 spigot;
#X obj 1058 168 tgl 15 0 empty empty empty 17 7 0 10 -262144 -1 -1
1 1;
#X obj 1004 113 OSCroute /ds2;
#X obj 911 78 int;
#X floatatom 909 97 5 0 0 0 - - -;
#X obj 942 -7 OSCroute /rnd;
#X obj 909 37 spigot;
#X obj 939 18 tgl 15 0 empty empty empty 17 7 0 10 -262144 -1 -1 1
1;
#X obj 812 14 OSCroute /tspr;
#X obj 911 59 random 2;
#X obj 891 228 spigot;
#X obj 921 209 tgl 15 0 empty empty empty 17 7 0 10 -262144 -1 -1 0
1;
#X obj 924 184 OSCroute /tspr;
#X obj 1010 485 int;
#X floatatom 1008 504 5 0 0 0 - - -;
#X obj 1038 406 OSCroute /rnd;
#X obj 1008 444 spigot;
#X obj 1038 425 tgl 15 0 empty empty empty 17 7 0 10 -262144 -1 -1
1 1;
#X obj 1010 466 random 2;
#X obj 1016 386 OSCroute /ds4;
#X obj 33 71 OSCroute /locpt;
#N canvas 22 61 549 315 points 0;
#X obj 76 17 inlet;
#X obj 18 47 cnv 15 500 100 empty empty empty 20 12 0 14 -233017 -66577
0;
#X text 19 47 bingo1;
#X floatatom 486 100 5 0 0 0 - - -;
#X msg 23 84 0;
#X msg 55 85 1402;
#X text 50 113 down;
#X obj 22 283 outlet;
#X text 16 102 hot at top;
#X msg 85 84 9018;
#X text 83 106 work diagonal;
#X msg 121 82 15631;
#X text 121 98 no snaking;
#X msg 163 83 17835;
#X text 160 102 you know;
#X text 200 114 go turbo;
#X msg 203 82 22645;
#X msg 242 82 33066;
#X text 238 102 in 3;
#X text 274 113 in 2;
#X msg 279 82 34669;
#X text 316 102 in 1;
#X msg 318 83 36873;
#X text 353 113 go turbo;
#X msg 357 83 37474;
#X text 396 102 wel b taking;
#X msg 399 81 39078;
#X text 433 112 more calls;
#X msg 442 79 39879;
#X text 17 149 first call;
#X msg 61 131 56312;
#X text 62 158 hello;
#X msg 106 132 57915;
#X text 105 149 other hello;
#X msg 152 131 59919;
#X text 151 160 sabrina;
#X floatatom 517 140 5 0 0 0 - - -;
#X msg 196 131 63126;
#X text 195 148 what you go for;
#X text 238 160 lets see;
#X msg 294 129 70340;
#X text 293 147 if it is there;
#X msg 343 130 72144;
#X text 338 162 is it one of the hot names;
#X msg 380 127 74348;
#X text 384 149 is not a hot name;
#X msg 429 127 78156;
#X text 431 176 this is turbo;
#X msg 471 127 82565;
#X text 469 189 hello it amanda;
#X msg 237 130 69538;
#X msg 21 132 55811;
#X obj 89 42 route 1 2 3 4 5 6 7 8 9 10 11 12 13 14 15 16 17 18 19
20 21 22 23 24;
#X connect 0 0 52 0;
#X connect 3 0 7 0;
#X connect 4 0 3 0;
#X connect 5 0 3 0;
#X connect 9 0 3 0;
#X connect 11 0 3 0;
#X connect 13 0 3 0;
#X connect 16 0 3 0;
#X connect 17 0 3 0;
#X connect 20 0 3 0;
#X connect 22 0 3 0;
#X connect 24 0 3 0;
#X connect 26 0 3 0;
#X connect 28 0 3 0;
#X connect 30 0 36 0;
#X connect 32 0 36 0;
#X connect 34 0 36 0;
#X connect 36 0 7 0;
#X connect 37 0 36 0;
#X connect 40 0 36 0;
#X connect 42 0 36 0;
#X connect 44 0 36 0;
#X connect 46 0 36 0;
#X connect 48 0 36 0;
#X connect 50 0 36 0;
#X connect 51 0 36 0;
#X connect 52 0 4 0;
#X connect 52 1 5 0;
#X connect 52 2 9 0;
#X connect 52 3 11 0;
#X connect 52 4 13 0;
#X connect 52 5 16 0;
#X connect 52 6 17 0;
#X connect 52 7 20 0;
#X connect 52 9 22 0;
#X connect 52 10 24 0;
#X connect 52 11 26 0;
#X connect 52 12 28 0;
#X connect 52 13 51 0;
#X connect 52 14 30 0;
#X connect 52 15 32 0;
#X connect 52 16 34 0;
#X connect 52 17 37 0;
#X connect 52 18 50 0;
#X connect 52 19 40 0;
#X connect 52 20 42 0;
#X connect 52 21 44 0;
#X connect 52 22 46 0;
#X connect 52 23 48 0;
#X restore 31 92 pd points;
#X msg 158 224 /mnt/sda6/robm/patch/OpenNight15Apr10/bingo1.wav 0;
#X obj -9 48 OSCroute /trig;
#X obj -8 123 f;
#X obj -9 87 bng 15 250 50 0 empty empty empty 17 7 0 10 -262144 -1
-1;
#X obj -28 179 OSCroute /spd;
#X obj 253 122 OSCroute /tsp;
#X obj 352 85 t b b;
#X obj 358 110 bang;
#X obj 358 60 loadbang;
#X msg 219 294 0;
#X connect 0 0 57 1;
#X connect 2 0 3 0;
#X connect 2 0 57 2;
#X connect 4 0 7 0;
#X connect 4 0 153 0;
#X connect 5 0 6 0;
#X connect 5 0 114 0;
#X connect 5 0 153 1;
#X connect 10 0 11 0;
#X connect 10 0 153 4;
#X connect 12 0 153 2;
#X connect 14 0 0 0;
#X connect 15 0 14 0;
#X connect 16 0 5 0;
#X connect 17 0 14 1;
#X connect 17 0 18 0;
#X connect 19 0 128 0;
#X connect 20 0 1 0;
#X connect 20 1 1 1;
#X connect 21 0 19 2;
#X connect 22 0 23 0;
#X connect 22 0 101 0;
#X connect 22 0 110 0;
#X connect 22 0 109 0;
#X connect 22 0 118 0;
#X connect 22 0 165 0;
#X connect 22 0 170 0;
#X connect 22 0 176 0;
#X connect 22 0 193 0;
#X connect 23 0 120 0;
#X connect 23 0 194 0;
#X connect 23 0 197 0;
#X connect 23 0 200 0;
#X connect 23 0 201 0;
#X connect 24 0 5 0;
#X connect 27 0 26 0;
#X connect 28 0 27 0;
#X connect 29 0 26 0;
#X connect 30 0 38 0;
#X connect 30 0 39 0;
#X connect 31 0 34 1;
#X connect 32 0 34 1;
#X connect 34 0 29 0;
#X connect 34 0 40 0;
#X connect 38 0 36 0;
#X connect 38 0 46 0;
#X connect 38 0 4 0;
#X connect 41 0 26 0;
#X connect 43 0 44 0;
#X connect 44 0 45 0;
#X connect 44 0 0 0;
#X connect 44 0 153 4;
#X connect 46 0 49 0;
#X connect 46 0 141 0;
#X connect 47 0 48 0;
#X connect 47 0 141 1;
#X connect 52 0 47 0;
#X connect 53 0 47 0;
#X connect 54 0 55 0;
#X connect 54 0 141 2;
#X connect 57 0 19 1;
#X connect 58 0 46 0;
#X connect 59 0 34 0;
#X connect 60 0 5 0;
#X connect 61 0 85 0;
#X connect 61 0 98 0;
#X connect 62 0 65 0;
#X connect 62 0 140 0;
#X connect 63 0 64 0;
#X connect 63 0 140 1;
#X connect 68 0 63 0;
#X connect 69 0 63 0;
#X connect 70 0 71 0;
#X connect 70 0 140 2;
#X connect 73 0 76 0;
#X connect 73 0 138 0;
#X connect 74 0 75 0;
#X connect 74 0 138 1;
#X connect 79 0 74 0;
#X connect 80 0 74 0;
#X connect 81 0 82 0;
#X connect 81 0 138 2;
#X connect 86 0 42 0;
#X connect 86 0 43 0;
#X connect 87 0 90 0;
#X connect 87 0 139 0;
#X connect 88 0 89 0;
#X connect 88 0 139 1;
#X connect 93 0 88 0;
#X connect 94 0 88 0;
#X connect 95 0 96 0;
#X connect 95 0 139 2;
#X connect 98 0 105 0;
#X connect 98 0 141 3;
#X connect 98 1 106 0;
#X connect 98 1 140 3;
#X connect 98 2 107 0;
#X connect 98 2 138 3;
#X connect 98 3 123 0;
#X connect 99 0 88 0;
#X connect 100 0 74 0;
#X connect 101 0 102 0;
#X connect 102 0 103 0;
#X connect 103 0 61 0;
#X connect 103 1 61 1;
#X connect 105 0 171 0;
#X connect 105 0 180 0;
#X connect 106 0 130 0;
#X connect 106 0 174 0;
#X connect 106 0 184 0;
#X connect 108 0 124 0;
#X connect 108 0 139 3;
#X connect 108 0 190 0;
#X connect 109 0 111 8;
#X connect 110 0 20 8;
#X connect 111 0 20 2;
#X connect 111 0 20 3;
#X connect 112 0 122 0;
#X connect 114 0 112 0;
#X connect 115 0 26 0;
#X connect 116 0 98 0;
#X connect 117 0 119 0;
#X connect 118 0 117 0;
#X connect 119 0 86 0;
#X connect 119 1 86 1;
#X connect 120 0 4 0;
#X connect 120 0 121 0;
#X connect 122 0 115 0;
#X connect 123 0 108 0;
#X connect 124 0 125 0;
#X connect 125 0 95 0;
#X connect 126 0 127 0;
#X connect 127 0 70 0;
#X connect 128 0 20 0;
#X connect 128 0 20 1;
#X connect 128 0 155 0;
#X connect 129 0 128 2;
#X connect 130 0 131 0;
#X connect 131 0 63 0;
#X connect 132 0 139 4;
#X connect 133 0 140 4;
#X connect 134 0 140 4;
#X connect 135 0 138 4;
#X connect 136 0 153 3;
#X connect 137 0 153 3;
#X connect 138 0 111 4;
#X connect 139 0 111 6;
#X connect 140 0 111 2;
#X connect 141 0 111 0;
#X connect 142 0 139 5;
#X connect 143 0 138 6;
#X connect 144 0 140 5;
#X connect 145 0 141 5;
#X connect 146 0 139 4;
#X connect 147 0 139 4;
#X connect 148 0 140 4;
#X connect 149 0 150 0;
#X connect 150 0 144 0;
#X connect 151 0 149 0;
#X connect 152 0 169 0;
#X connect 153 0 19 0;
#X connect 153 0 57 0;
#X connect 153 1 59 0;
#X connect 154 0 153 5;
#X connect 155 0 156 0;
#X connect 155 0 160 1;
#X connect 157 0 159 0;
#X connect 158 0 157 0;
#X connect 159 0 160 0;
#X connect 160 0 163 0;
#X connect 162 0 26 0;
#X connect 163 0 164 0;
#X connect 164 0 162 0;
#X connect 165 0 158 0;
#X connect 166 0 167 0;
#X connect 166 0 53 0;
#X connect 166 0 134 0;
#X connect 166 0 133 0;
#X connect 166 0 148 0;
#X connect 166 0 69 0;
#X connect 166 0 80 0;
#X connect 166 0 135 0;
#X connect 166 0 94 0;
#X connect 166 0 132 0;
#X connect 166 0 146 0;
#X connect 166 0 147 0;
#X connect 166 0 168 0;
#X connect 167 0 141 4;
#X connect 168 0 141 4;
#X connect 169 0 54 0;
#X connect 170 0 182 0;
#X connect 170 0 179 0;
#X connect 171 0 152 0;
#X connect 172 0 171 1;
#X connect 173 0 175 0;
#X connect 174 0 151 0;
#X connect 175 0 174 1;
#X connect 176 0 173 0;
#X connect 176 0 186 0;
#X connect 177 0 178 0;
#X connect 178 0 145 0;
#X connect 179 0 181 0;
#X connect 180 0 183 0;
#X connect 181 0 180 1;
#X connect 182 0 172 0;
#X connect 183 0 177 0;
#X connect 184 0 126 0;
#X connect 185 0 184 1;
#X connect 186 0 185 0;
#X connect 187 0 188 0;
#X connect 188 0 142 0;
#X connect 189 0 191 0;
#X connect 190 0 192 0;
#X connect 191 0 190 1;
#X connect 192 0 187 0;
#X connect 193 0 189 0;
#X connect 194 0 195 0;
#X connect 195 0 198 1;
#X connect 196 0 153 3;
#X connect 197 0 199 0;
#X connect 198 0 4 0;
#X connect 199 0 198 0;
#X connect 200 0 5 0;
#X connect 201 0 10 0;
#X connect 202 0 205 0;
#X connect 202 1 203 0;
#X connect 203 0 196 0;
#X connect 203 0 137 0;
#X connect 203 0 136 0;
#X connect 203 0 60 0;
#X connect 204 0 202 0;
#X connect 205 0 154 0;
