#N canvas 1464 201 365 352 10;
#X floatatom 52 100 5 0 0 0 - - -;
#X floatatom 103 100 5 0 0 0 - - -;
#X obj 24 33 inlet;
#X obj 124 36 inlet;
#X text 66 32 note;
#X text 161 37 vel;
#X obj 55 269 outlet;
#X obj 106 270 outlet;
#X obj 63 13 notein \$1;
#X obj 46 140 spigot;
#X connect 0 0 9 0;
#X connect 1 0 9 1;
#X connect 1 0 7 0;
#X connect 2 0 0 0;
#X connect 3 0 1 0;
#X connect 8 0 0 0;
#X connect 8 1 1 0;
#X connect 9 0 6 0;
