#N canvas 783 103 365 352 10;
#X floatatom 52 100 5 0 0 0 - - -;
#X floatatom 103 100 5 0 0 0 - - -;
#X obj 63 165 poly 4 1;
#X obj 63 191 pack 0 0 0;
#X obj 63 221 route 1 2 3 4;
#X obj 24 33 inlet;
#X obj 124 36 inlet;
#X text 70 35 note;
#X text 174 37 vel;
#X msg 140 136 stop;
#X obj 141 118 bng 15 250 50 0 empty stop empty 17 7 0 10 -262144 -1
-1;
#X obj 61 247 outlet;
#X obj 84 267 outlet;
#X obj 106 290 outlet;
#X obj 122 313 outlet;
#X obj 63 13 notein \$1;
#X obj 142 96 r midi-stop;
#X connect 0 0 2 0;
#X connect 1 0 2 1;
#X connect 2 0 3 0;
#X connect 2 1 3 1;
#X connect 2 2 3 2;
#X connect 3 0 4 0;
#X connect 4 0 11 0;
#X connect 4 1 12 0;
#X connect 4 2 13 0;
#X connect 4 3 14 0;
#X connect 5 0 0 0;
#X connect 6 0 1 0;
#X connect 9 0 2 0;
#X connect 10 0 9 0;
#X connect 15 0 0 0;
#X connect 15 1 1 0;
#X connect 16 0 10 0;
