#N canvas 902 69 1375 712 10;
#X text -25 14 everything;
#X floatatom 60 42 0 0 0 0 - - -;
#X floatatom 61 65 0 0 0 0 - - -;
#X floatatom 63 15 0 0 0 0 - - -;
#X obj -4 42 ctlin;
#X text -1 103 these are herc controls;
#X obj 136 43 hradio 15 1 0 6 empty empty empty 0 -6 0 8 -262144 -1
-1 5;
#X floatatom 144 136 5 0 0 0 - - -;
#X floatatom 152 119 5 0 0 0 - - -;
#X floatatom 136 153 5 0 0 0 - - -;
#X floatatom 160 102 5 0 0 0 - - -;
#X obj 136 23 - 33;
#X floatatom 187 136 5 0 0 0 - - -;
#X floatatom 195 119 5 0 0 0 - - -;
#X floatatom 179 153 5 0 0 0 - - -;
#X floatatom 203 102 5 0 0 0 - - -;
#X obj 180 22 - 37;
#X obj 137 80 gate 5;
#X obj 179 80 gate 5;
#X obj 179 61 hradio 15 1 0 6 empty empty empty 0 -6 0 8 -262144 -1
-1 5;
#X obj 228 43 hradio 15 1 0 6 empty empty empty 0 -6 0 8 -262144 -1
-1 2;
#X floatatom 236 136 5 0 0 0 - - -;
#X floatatom 244 119 5 0 0 0 - - -;
#X floatatom 228 153 5 0 0 0 - - -;
#X floatatom 252 102 5 0 0 0 - - -;
#X floatatom 279 136 5 0 0 0 - - -;
#X floatatom 287 119 5 0 0 0 - - -;
#X floatatom 271 153 5 0 0 0 - - -;
#X floatatom 295 102 5 0 0 0 - - -;
#X obj 229 80 gate 5;
#X obj 271 80 gate 5;
#X obj 271 61 hradio 15 1 0 6 empty empty empty 0 -6 0 8 -262144 -1
-1 0;
#X obj 771 28 hradio 15 1 0 6 empty empty empty 0 -6 0 8 -262144 -1
-1 5;
#X floatatom 779 121 5 0 0 0 - - -;
#X floatatom 787 104 5 0 0 0 - - -;
#X floatatom 771 138 5 0 0 0 - - -;
#X floatatom 795 87 5 0 0 0 - - -;
#X floatatom 822 121 5 0 0 0 - - -;
#X floatatom 830 104 5 0 0 0 - - -;
#X floatatom 814 138 5 0 0 0 - - -;
#X floatatom 838 87 5 0 0 0 - - -;
#X obj 772 65 gate 5;
#X obj 814 65 gate 5;
#X obj 814 46 hradio 15 1 0 6 empty empty empty 0 -6 0 8 -262144 -1
-1 5;
#X obj 228 23 - 41;
#X obj 272 22 - 45;
#X obj 72 262 hsl 128 15 1 100000 1 0 empty empty empty -2 -6 0 8 -262144
-1 -1 12700 1;
#X obj -34 262 hradio 15 1 0 5 empty empty empty 0 -6 0 8 -262144 -1
-1 1;
#X floatatom -34 302 10 0 0 0 l_jog - l_jog;
#X obj 72 322 hsl 128 15 1 10000 1 0 empty empty empty -2 -6 0 8 -262144
-1 -1 0 1;
#X obj -34 323 hradio 15 1 0 5 empty empty empty 0 -6 0 8 -262144 -1
-1 2;
#X floatatom -34 363 10 0 0 0 l_bass - l_bass;
#X obj 72 383 hsl 128 15 1 10000 1 0 empty empty empty -2 -6 0 8 -262144
-1 -1 11437 1;
#X obj -34 384 hradio 15 1 0 5 empty empty empty 0 -6 0 8 -262144 -1
-1 2;
#X floatatom -34 424 10 0 0 0 l_mid - l_mid;
#X obj 70 442 hsl 128 15 1 10000 1 0 empty empty empty -2 -6 0 8 -262144
-1 -1 732 1;
#X obj -36 444 hradio 15 1 0 5 empty empty empty 0 -6 0 8 -262144 -1
-1 2;
#X floatatom -36 484 10 0 0 0 l_treb - l_treb;
#X obj 71 507 hsl 128 15 1 10000 1 0 empty empty empty -2 -6 0 8 -262144
-1 -1 5075 1;
#X obj -35 507 hradio 15 1 0 5 empty empty empty 0 -6 0 8 -262144 -1
-1 1;
#X floatatom -35 547 10 0 0 0 l_vol - l_vol;
#X obj 72 570 hsl 128 15 1 10000 1 0 empty empty empty -2 -6 0 8 -262144
-1 -1 0 1;
#X obj -34 570 hradio 15 1 0 5 empty empty empty 0 -6 0 8 -262144 -1
-1 2;
#X floatatom -34 610 10 0 0 0 l_pitch - l_pitch;
#X msg 42 442 2;
#X msg 44 568 2;
#X msg 42 506 1;
#X obj 319 261 hsl 128 15 1 100000 1 0 empty empty empty -2 -6 0 8
-262144 -1 -1 0 1;
#X obj 213 261 hradio 15 1 0 5 empty empty empty 0 -6 0 8 -262144 -1
-1 1;
#X floatatom 213 301 10 0 0 0 l_jog - l_jog;
#X obj 319 321 hsl 128 15 1 10000 1 0 empty empty empty -2 -6 0 8 -262144
-1 -1 0 1;
#X obj 213 322 hradio 15 1 0 5 empty empty empty 0 -6 0 8 -262144 -1
-1 2;
#X floatatom 213 362 10 0 0 0 r_bass - r_bass;
#X obj 319 382 hsl 128 15 1 10000 1 0 empty empty empty -2 -6 0 8 -262144
-1 -1 0 1;
#X obj 213 383 hradio 15 1 0 5 empty empty empty 0 -6 0 8 -262144 -1
-1 2;
#X floatatom 213 423 10 0 0 0 r_mid - r_mid;
#X obj 317 441 hsl 128 15 1 10000 1 0 empty empty empty -2 -6 0 8 -262144
-1 -1 0 1;
#X obj 211 443 hradio 15 1 0 5 empty empty empty 0 -6 0 8 -262144 -1
-1 2;
#X floatatom 211 483 10 0 0 0 r_treb - r_treb;
#X obj 318 506 hsl 128 15 1 10000 1 0 empty empty empty -2 -6 0 8 -262144
-1 -1 0 1;
#X obj 212 506 hradio 15 1 0 5 empty empty empty 0 -6 0 8 -262144 -1
-1 1;
#X floatatom 212 546 10 0 0 0 r_vol - r_vol;
#X obj 319 569 hsl 128 15 1 10000 1 0 empty empty empty -2 -6 0 8 -262144
-1 -1 0 1;
#X obj 213 569 hradio 15 1 0 5 empty empty empty 0 -6 0 8 -262144 -1
-1 2;
#X floatatom 213 609 10 0 0 0 r_pitch - r_pitch;
#X msg 289 441 2;
#X msg 291 567 2;
#X msg 289 505 1;
#X msg 290 382 2;
#X msg 291 321 2;
#X msg 290 260 1;
#X msg 44 383 2;
#X msg 45 322 2;
#X msg 44 261 1;
#X obj 369 213 loadbang;
#X obj 235 632 hsl 128 15 1 10000 1 0 empty empty empty -2 -6 0 8 -262144
-1 -1 0 1;
#X obj 129 632 hradio 15 1 0 5 empty empty empty 0 -6 0 8 -262144 -1
-1 2;
#X floatatom 129 672 10 0 0 0 cross - cross;
#X msg 207 630 3;
#X obj 456 118 hradio 15 1 0 5 empty empty empty 0 -6 0 8 -262144 -1
-1 3;
#X floatatom 456 158 10 0 0 0 mouse_y - mouse_y;
#X obj 586 175 hsl 128 15 1 10000 1 0 empty empty empty -2 -6 0 8 -262144
-1 -1 0 1;
#X obj 477 177 hradio 15 1 0 5 empty empty empty 0 -6 0 8 -262144 -1
-1 3;
#X floatatom 477 217 10 0 0 0 mouse_x - mouse_x;
#X obj 570 39 vsl 15 128 1 10000 1 0 empty empty empty 0 -8 0 8 -262144
-1 -1 0 1;
#X msg 533 117 3;
#X msg 554 176 3;
#X obj 331 526 r r_vol_i;
#X obj 336 590 r r_pitch_i;
#X obj 327 463 r r_treb_i;
#X obj 328 403 r r_mid_i;
#X obj 328 340 r r_bass_i;
#X obj 329 281 r r_jog_i;
#X obj 79 281 r l_jog_i;
#X obj 80 342 r l_bass_i;
#X obj 78 463 r l_treb_i;
#X obj 78 526 r l_vol_i;
#X obj 79 589 r l_pitch_i;
#X obj 242 651 r cross_i;
#X obj 594 194 r mouse_x_i;
#X obj 866 27 hradio 15 1 0 6 empty empty empty 0 -6 0 8 -262144 -1
-1 5;
#X floatatom 874 120 5 0 0 0 - - -;
#X floatatom 882 103 5 0 0 0 - - -;
#X floatatom 866 137 5 0 0 0 - - -;
#X floatatom 890 86 5 0 0 0 - - -;
#X floatatom 917 120 5 0 0 0 - - -;
#X floatatom 925 103 5 0 0 0 - - -;
#X floatatom 909 137 5 0 0 0 - - -;
#X floatatom 933 86 5 0 0 0 - - -;
#X obj 867 64 gate 5;
#X obj 909 64 gate 5;
#X obj 909 45 hradio 15 1 0 6 empty empty empty 0 -6 0 8 -262144 -1
-1 5;
#X obj 960 26 hradio 15 1 0 6 empty empty empty 0 -6 0 8 -262144 -1
-1 5;
#X floatatom 968 119 5 0 0 0 - - -;
#X floatatom 976 102 5 0 0 0 - - -;
#X floatatom 960 136 5 0 0 0 - - -;
#X floatatom 984 85 5 0 0 0 - - -;
#X floatatom 1011 119 5 0 0 0 - - -;
#X floatatom 1019 102 5 0 0 0 - - -;
#X floatatom 1003 136 5 0 0 0 - - -;
#X floatatom 1027 85 5 0 0 0 - - -;
#X obj 960 67 gate 5;
#X obj 1003 63 gate 5;
#X obj 1003 44 hradio 15 1 0 6 empty empty empty 0 -6 0 8 -262144 -1
-1 5;
#X obj 1052 26 hradio 15 1 0 6 empty empty empty 0 -6 0 8 -262144 -1
-1 5;
#X floatatom 1060 119 5 0 0 0 - - -;
#X floatatom 1068 102 5 0 0 0 - - -;
#X floatatom 1052 136 5 0 0 0 - - -;
#X floatatom 1076 85 5 0 0 0 - - -;
#X obj 1053 63 gate 5;
#X obj 777 5 - 0;
#X obj 872 4 - 8;
#X obj 912 6 - 12;
#X obj 966 3 - 16;
#X obj 1006 5 - 20;
#X obj 1058 3 - 24;
#X obj 817 7 - 4;
#X obj 698 235 hradio 15 1 0 5 empty r_toparr_sel empty 0 -6 0 8 -262144
-1 -1 1;
#X floatatom 697 277 10 0 0 0 r_toparr - r_toparr;
#X obj 505 241 hradio 15 1 0 5 empty l_toparr_sel empty 0 -6 0 8 -262144
-1 -1 1;
#X floatatom 504 283 10 0 0 0 l_toparr - l_toparr;
#X obj 697 295 hradio 15 1 0 5 empty r_1_sel empty 0 -6 0 8 -262144
-1 -1 1;
#X floatatom 696 337 10 0 0 0 r_1 - r_1;
#X obj 504 301 hradio 15 1 0 5 l_1_sel empty empty 0 -6 0 8 -262144
-1 -1 1;
#X floatatom 503 343 10 0 0 0 l_1 - l_1;
#X obj 696 360 hradio 15 1 0 5 empty r_2_sel empty 0 -6 0 8 -262144
-1 -1 1;
#X floatatom 695 402 10 0 0 0 r_2 - r_2;
#X obj 503 366 hradio 15 1 0 5 empty l_2_sel empty 0 -6 0 8 -262144
-1 -1 1;
#X floatatom 502 408 10 0 0 0 l_2 - l_2;
#X obj 695 421 hradio 15 1 0 5 empty r_3_sel empty 0 -6 0 8 -262144
-1 -1 1;
#X floatatom 694 463 10 0 0 0 r_3 - r_3;
#X obj 502 427 hradio 15 1 0 5 empty l_3_sel empty 0 -6 0 8 -262144
-1 -1 1;
#X floatatom 501 469 10 0 0 0 l_3 - l_3;
#X obj 694 483 hradio 15 1 0 5 empty r_phones_sel empty 0 -6 0 8 -262144
-1 -1 1;
#X floatatom 692 525 10 0 0 0 r_phones - r_phones;
#X obj 501 489 hradio 15 1 0 5 empty l_phones_sel empty 0 -6 0 8 -262144
-1 -1 1;
#X floatatom 500 531 10 0 0 0 l_phones - l_phones;
#X obj 692 544 hradio 15 1 0 5 empty r_pitch_pls_sel empty 0 -6 0 8
-262144 -1 -1 1;
#X floatatom 691 586 10 0 0 0 r_pitch_pls - r_pitch_pls;
#X obj 499 550 hradio 15 1 0 5 empty l_pitch_pls_sel empty 0 -6 0 8
-262144 -1 -1 1;
#X floatatom 498 592 10 0 0 0 l_pitch_pls - l_pitch_pls;
#X obj 691 607 hradio 15 1 0 5 empty r_pitch_min_sel empty 0 -6 0 8
-262144 -1 -1 1;
#X floatatom 690 649 10 0 0 0 r_pitch_min - r_pitch_min;
#X obj 498 613 hradio 15 1 0 5 empty l_pitch_min_sel empty 0 -6 0 8
-262144 -1 -1 1;
#X floatatom 497 655 10 0 0 0 l_pitch_min - l_pitch_min;
#X obj 911 232 hradio 15 1 0 5 empty l_sidearr_sel empty 0 -6 0 8 -262144
-1 -1 1;
#X floatatom 910 274 10 0 0 0 l_sidearr - l_sidearr;
#X obj 1093 230 hradio 15 1 0 5 empty r_sidearr_sel empty 0 -6 0 8
-262144 -1 -1 1;
#X floatatom 1092 272 10 0 0 0 r_sidearr - r_sidearr;
#X obj 910 292 hradio 15 1 0 5 empty l_mouse_sel empty 0 -6 0 8 -262144
-1 -1 1;
#X floatatom 909 334 10 0 0 0 l_mouse - l_mouse;
#X obj 1092 290 hradio 15 1 0 5 empty r_mouse_sel empty 0 -6 0 8 -262144
-1 -1 1;
#X floatatom 1091 332 10 0 0 0 r_mouse - r_mouse;
#X obj 909 357 hradio 15 1 0 5 empty l_autobeat_sel empty 0 -6 0 8
-262144 -1 -1 1;
#X floatatom 908 399 10 0 0 0 l_autobeat - l_autobeat;
#X obj 1091 355 hradio 15 1 0 5 empty r_autobeat_sel empty 0 -6 0 8
-262144 -1 -1 1;
#X floatatom 1090 397 10 0 0 0 r_autobeat - r_autobeat;
#X obj 908 418 hradio 15 1 0 5 empty l_prev_sel empty 0 -6 0 8 -262144
-1 -1 1;
#X floatatom 907 460 10 0 0 0 l_prev - l_prev;
#X obj 1090 416 hradio 15 1 0 5 empty r_prev_sel empty 0 -6 0 8 -262144
-1 -1 1;
#X floatatom 1089 458 10 0 0 0 r_prev - r_prev;
#X obj 907 480 hradio 15 1 0 5 empty l_next_sel empty 0 -6 0 8 -262144
-1 -1 1;
#X floatatom 906 522 10 0 0 0 l_next - l_next;
#X obj 1089 478 hradio 15 1 0 5 empty r_next_sel empty 0 -6 0 8 -262144
-1 -1 1;
#X floatatom 1088 520 10 0 0 0 r_next - r_next;
#X obj 905 541 hradio 15 1 0 5 empty l_cue_sel empty 0 -6 0 8 -262144
-1 -1 4;
#X floatatom 904 583 10 0 0 0 l_cue - l_cue;
#X obj 1087 539 hradio 15 1 0 5 empty r_cue_sel empty 0 -6 0 8 -262144
-1 -1 1;
#X floatatom 1086 581 10 0 0 0 r_cue - r_cue;
#X obj 904 604 hradio 15 1 0 5 empty l_play_sel empty 0 -6 0 8 -262144
-1 -1 4;
#X floatatom 903 646 10 0 0 0 l_play - l_play;
#X obj 1086 602 hradio 15 1 0 5 empty r_play_sel empty 0 -6 0 8 -262144
-1 -1 1;
#X floatatom 1086 643 10 0 0 0 r_play - r_play;
#X msg 584 240 1;
#X msg 583 300 1;
#X msg 582 364 1;
#X msg 581 426 1;
#X msg 580 488 1;
#X msg 578 549 1;
#X msg 577 612 1;
#X msg 770 606 1;
#X msg 771 543 1;
#X msg 772 482 1;
#X msg 774 420 1;
#X msg 775 359 1;
#X msg 776 294 1;
#X msg 777 234 1;
#X msg 990 231 1;
#X msg 989 291 1;
#X msg 988 356 1;
#X msg 987 417 1;
#X msg 985 479 1;
#X msg 984 540 1;
#X msg 983 603 1;
#X msg 1167 601 1;
#X msg 1166 538 1;
#X msg 1168 477 1;
#X msg 1169 415 1;
#X msg 1170 354 1;
#X msg 1171 289 1;
#X msg 1171 229 1;
#X obj 630 363 loadbang;
#X obj 1030 361 loadbang;
#X obj 107 301 r l_jog_sel;
#X obj 94 362 r l_bass_sel;
#X obj 96 483 r l_treb_sel;
#X obj 94 547 r l_vol_sel;
#X obj 103 611 r l_pitch_sel;
#X obj 31 609 r l_pitch_v;
#X obj 34 546 r l_vol_v;
#X obj 30 484 r l_treb_v;
#X obj 32 421 r l_lid_v;
#X obj 29 362 r l_bass_v;
#X obj 31 303 r l_jog_v;
#X obj 280 302 r r_jog_v;
#X obj 281 363 r r_bass_v;
#X obj 280 423 r r_lid_v;
#X obj 279 484 r r_treb_v;
#X obj 283 546 r r_vol_v;
#X obj 279 610 r r_pitch_v;
#X obj 340 302 r r_jog_sel;
#X obj 346 363 r r_bass_sel;
#X obj 339 423 r r_lid_sel;
#X obj 344 484 r r_treb_sel;
#X obj 343 547 r r_vol_sel;
#X obj 352 611 r r_pitch_sel;
#X obj 107 301 r l_jog_sel;
#X obj 613 215 r mouse_x_sel;
#X obj 541 215 r mouse_x_v;
#X obj 259 671 r cross_sel;
#X obj 198 671 r cross_v;
#X obj 483 97 r mouse_y_sel;
#X obj 411 95 r mouse_y_v;
#X obj 79 402 r l_mid_i;
#X obj 91 421 r l_mid_sel;
#X obj 33 421 r l_mid_v;
#X obj 569 280 r l_toparr_i;
#X obj 571 342 r l_1_i;
#X obj 573 405 r l_2_i;
#X obj 573 466 r l_3_i;
#X obj 571 529 r l_phones_i;
#X obj 568 589 r l_pitch_pls_i;
#X obj 565 655 r l_pitch_min_i;
#X obj 757 648 r r_pitch_min_i;
#X obj 756 583 r r_pitch_pls_i;
#X obj 757 521 r r_phones_i;
#X obj 769 460 r r_3_i;
#X obj 762 400 r r_2_i;
#X obj 764 336 r r_1_i;
#X obj 766 276 r r_toparr_i;
#X obj 977 272 r l_sidearr_i;
#X obj 979 332 r l_mouse_i;
#X obj 976 395 r l_autobeat_i;
#X obj 979 458 r l_prev_i;
#X obj 971 520 r l_next_i;
#X obj 974 581 r l_cue_i;
#X obj 971 645 r l_play_i;
#X obj 1151 640 r r_play_i;
#X obj 1151 578 r r_cue_i;
#X obj 1153 517 r r_next_i;
#X obj 1154 455 r r_prev_i;
#X obj 1154 392 r r_autobeat_i;
#X obj 1155 329 r r_mouse_i;
#X obj 1156 270 r r_sidearr_i;
#X obj 213 341 hercinp_input_type;
#X obj 143 282 bng 15 250 50 0 empty empty empty 0 -6 0 8 -262144 -1
-1;
#X obj 147 343 bng 15 250 50 0 empty empty empty 0 -6 0 8 -262144 -1
-1;
#X obj 141 402 bng 15 250 50 0 empty empty empty 0 -6 0 8 -262144 -1
-1;
#X obj 144 464 bng 15 250 50 0 empty empty empty 0 -6 0 8 -262144 -1
-1;
#X obj 138 527 bng 15 250 50 0 empty empty empty 0 -6 0 8 -262144 -1
-1;
#X obj 154 594 bng 15 250 50 0 empty empty empty 0 -6 0 8 -262144 -1
-1;
#X obj 302 653 bng 15 250 50 0 empty empty empty 0 -6 0 8 -262144 -1
-1;
#X obj 408 592 bng 15 250 50 0 empty empty empty 0 -6 0 8 -262144 -1
-1;
#X obj 392 528 bng 15 250 50 0 empty empty empty 0 -6 0 8 -262144 -1
-1;
#X obj 394 467 bng 15 250 50 0 empty empty empty 0 -6 0 8 -262144 -1
-1;
#X obj 389 404 bng 15 250 50 0 empty empty empty 0 -6 0 8 -262144 -1
-1;
#X obj 395 341 bng 15 250 50 0 empty empty empty 0 -6 0 8 -262144 -1
-1;
#X obj 389 283 bng 15 250 50 0 empty empty empty 0 -6 0 8 -262144 -1
-1;
#X obj 523 158 bng 15 250 50 0 empty empty empty 0 -6 0 8 -262144 -1
-1;
#X obj 668 194 bng 15 250 50 0 empty empty empty 0 -6 0 8 -262144 -1
-1;
#X obj 12 136 hercinp_test_midiin;
#X obj 1091 309 hercinp_input_but;
#X obj 906 499 hercinp_input_but;
#X obj 904 623 hercinp_input_but;
#X obj 497 632 hercinp_input_but;
#X obj 504 260 hercinp_input_but;
#X obj 697 254 hercinp_input_but;
#X obj 696 314 hercinp_input_but;
#X obj 503 320 hercinp_input_but;
#X obj 695 379 hercinp_input_but;
#X obj 502 385 hercinp_input_but;
#X obj 694 440 hercinp_input_but;
#X obj 501 446 hercinp_input_but;
#X obj 693 502 hercinp_input_but;
#X obj 500 508 hercinp_input_but;
#X obj 691 563 hercinp_input_but;
#X obj 498 569 hercinp_input_but;
#X obj 690 626 hercinp_input_but;
#X obj 1091 250 hercinp_input_but;
#X obj 909 311 hercinp_input_but;
#X obj 908 376 hercinp_input_but;
#X obj 1090 374 hercinp_input_but;
#X obj 907 437 hercinp_input_but;
#X obj 1089 435 hercinp_input_but;
#X obj 1088 497 hercinp_input_but;
#X obj 904 560 hercinp_input_but;
#X obj 1085 559 hercinp_input_but;
#X obj 910 250 hercinp_input_but;
#X obj 1085 620 hercinp_input_but;
#X obj -35 281 hercinp_input_type;
#X obj 477 196 hercinp_input_type;
#X obj 456 137 hercinp_input_type;
#X obj 211 462 hercinp_input_type;
#X obj -34 342 hercinp_input_type;
#X obj -35 526 hercinp_input_type;
#X obj -34 403 hercinp_input_type;
#X obj -36 463 hercinp_input_type;
#X obj -34 589 hercinp_input_type;
#X obj 212 525 hercinp_input_type;
#X obj 213 280 hercinp_input_type;
#X obj 213 402 hercinp_input_type;
#X obj 213 588 hercinp_input_type;
#X obj 129 651 hercinp_input_type;
#X connect 1 0 11 0;
#X connect 1 0 16 0;
#X connect 1 0 44 0;
#X connect 1 0 45 0;
#X connect 1 0 150 0;
#X connect 1 0 151 0;
#X connect 1 0 152 0;
#X connect 1 0 153 0;
#X connect 1 0 154 0;
#X connect 1 0 155 0;
#X connect 1 0 156 0;
#X connect 2 0 17 1;
#X connect 2 0 18 1;
#X connect 2 0 29 1;
#X connect 2 0 30 1;
#X connect 2 0 41 1;
#X connect 2 0 42 1;
#X connect 2 0 129 1;
#X connect 2 0 141 1;
#X connect 2 0 142 1;
#X connect 2 0 149 1;
#X connect 2 0 130 1;
#X connect 4 0 2 0;
#X connect 4 1 1 0;
#X connect 4 2 3 0;
#X connect 6 0 17 0;
#X connect 7 0 360 1;
#X connect 8 0 352 1;
#X connect 9 0 304 1;
#X connect 10 0 353 1;
#X connect 11 0 6 0;
#X connect 12 0 356 1;
#X connect 13 0 362 1;
#X connect 14 0 355 1;
#X connect 15 0 357 1;
#X connect 16 0 19 0;
#X connect 17 0 9 0;
#X connect 17 1 7 0;
#X connect 17 2 8 0;
#X connect 17 3 10 0;
#X connect 18 0 14 0;
#X connect 18 1 12 0;
#X connect 18 2 13 0;
#X connect 18 3 15 0;
#X connect 19 0 18 0;
#X connect 20 0 29 0;
#X connect 21 0 354 1;
#X connect 22 0 358 1;
#X connect 23 0 361 1;
#X connect 24 0 349 1;
#X connect 25 0 350 1;
#X connect 26 0 351 1;
#X connect 27 0 359 1;
#X connect 29 0 23 0;
#X connect 29 1 21 0;
#X connect 29 2 22 0;
#X connect 29 3 24 0;
#X connect 30 0 27 0;
#X connect 30 1 25 0;
#X connect 30 2 26 0;
#X connect 30 3 28 0;
#X connect 31 0 30 0;
#X connect 32 0 41 0;
#X connect 33 0 348 1;
#X connect 34 0 346 1;
#X connect 35 0 326 1;
#X connect 36 0 341 1;
#X connect 37 0 344 1;
#X connect 38 0 325 1;
#X connect 39 0 343 1;
#X connect 40 0 323 1;
#X connect 41 0 35 0;
#X connect 41 1 33 0;
#X connect 41 2 34 0;
#X connect 41 3 36 0;
#X connect 42 0 39 0;
#X connect 42 1 37 0;
#X connect 42 2 38 0;
#X connect 42 3 40 0;
#X connect 43 0 42 0;
#X connect 44 0 20 0;
#X connect 45 0 31 0;
#X connect 46 0 349 2;
#X connect 47 0 349 0;
#X connect 49 0 353 2;
#X connect 50 0 353 0;
#X connect 52 0 355 2;
#X connect 53 0 355 0;
#X connect 55 0 356 2;
#X connect 56 0 356 0;
#X connect 58 0 354 2;
#X connect 59 0 354 0;
#X connect 61 0 357 2;
#X connect 62 0 357 0;
#X connect 64 0 56 0;
#X connect 65 0 62 0;
#X connect 66 0 59 0;
#X connect 67 0 359 2;
#X connect 68 0 359 0;
#X connect 70 0 304 2;
#X connect 71 0 304 0;
#X connect 73 0 360 2;
#X connect 74 0 360 0;
#X connect 76 0 352 2;
#X connect 77 0 352 0;
#X connect 79 0 358 2;
#X connect 80 0 358 0;
#X connect 82 0 361 2;
#X connect 83 0 361 0;
#X connect 85 0 77 0;
#X connect 86 0 83 0;
#X connect 87 0 80 0;
#X connect 88 0 74 0;
#X connect 89 0 71 0;
#X connect 90 0 68 0;
#X connect 91 0 53 0;
#X connect 92 0 50 0;
#X connect 93 0 47 0;
#X connect 94 0 90 0;
#X connect 94 0 89 0;
#X connect 94 0 88 0;
#X connect 94 0 85 0;
#X connect 94 0 87 0;
#X connect 94 0 86 0;
#X connect 94 0 65 0;
#X connect 94 0 66 0;
#X connect 94 0 64 0;
#X connect 94 0 91 0;
#X connect 94 0 92 0;
#X connect 94 0 93 0;
#X connect 94 0 98 0;
#X connect 94 0 105 0;
#X connect 94 0 106 0;
#X connect 94 0 46 0;
#X connect 94 0 67 0;
#X connect 94 0 70 0;
#X connect 94 0 73 0;
#X connect 94 0 76 0;
#X connect 94 0 79 0;
#X connect 94 0 82 0;
#X connect 94 0 61 0;
#X connect 94 0 58 0;
#X connect 94 0 55 0;
#X connect 94 0 52 0;
#X connect 94 0 49 0;
#X connect 94 0 104 0;
#X connect 94 0 101 0;
#X connect 94 0 95 0;
#X connect 95 0 362 2;
#X connect 96 0 362 0;
#X connect 98 0 96 0;
#X connect 99 0 351 0;
#X connect 101 0 350 2;
#X connect 102 0 350 0;
#X connect 104 0 351 2;
#X connect 105 0 99 0;
#X connect 106 0 102 0;
#X connect 107 0 358 3;
#X connect 108 0 361 3;
#X connect 109 0 352 3;
#X connect 110 0 360 3;
#X connect 111 0 304 3;
#X connect 112 0 359 3;
#X connect 113 0 349 3;
#X connect 114 0 353 3;
#X connect 115 0 356 3;
#X connect 116 0 354 3;
#X connect 117 0 357 3;
#X connect 118 0 362 3;
#X connect 119 0 350 3;
#X connect 120 0 129 0;
#X connect 121 0 340 1;
#X connect 122 0 342 1;
#X connect 123 0 345 1;
#X connect 124 0 322 1;
#X connect 125 0 330 1;
#X connect 126 0 328 1;
#X connect 127 0 332 1;
#X connect 128 0 327 1;
#X connect 129 0 123 0;
#X connect 129 1 121 0;
#X connect 129 2 122 0;
#X connect 129 3 124 0;
#X connect 130 0 127 0;
#X connect 130 1 125 0;
#X connect 130 2 126 0;
#X connect 130 3 128 0;
#X connect 131 0 130 0;
#X connect 132 0 141 0;
#X connect 133 0 331 1;
#X connect 134 0 336 1;
#X connect 135 0 329 1;
#X connect 136 0 324 1;
#X connect 137 0 347 1;
#X connect 138 0 335 1;
#X connect 139 0 334 1;
#X connect 140 0 337 1;
#X connect 141 0 135 0;
#X connect 141 1 133 0;
#X connect 141 2 134 0;
#X connect 141 3 136 0;
#X connect 142 0 139 0;
#X connect 142 1 137 0;
#X connect 142 2 138 0;
#X connect 142 3 140 0;
#X connect 143 0 142 0;
#X connect 144 0 149 0;
#X connect 145 0 338 1;
#X connect 146 0 339 1;
#X connect 147 0 333 1;
#X connect 148 0 321 1;
#X connect 149 0 147 0;
#X connect 149 1 145 0;
#X connect 149 2 146 0;
#X connect 149 3 148 0;
#X connect 150 0 32 0;
#X connect 151 0 120 0;
#X connect 152 0 131 0;
#X connect 153 0 132 0;
#X connect 154 0 143 0;
#X connect 155 0 144 0;
#X connect 156 0 43 0;
#X connect 157 0 326 0;
#X connect 159 0 325 0;
#X connect 161 0 327 0;
#X connect 163 0 328 0;
#X connect 165 0 329 0;
#X connect 167 0 330 0;
#X connect 169 0 331 0;
#X connect 171 0 332 0;
#X connect 173 0 333 0;
#X connect 175 0 334 0;
#X connect 177 0 335 0;
#X connect 179 0 336 0;
#X connect 181 0 337 0;
#X connect 183 0 324 0;
#X connect 185 0 347 0;
#X connect 187 0 338 0;
#X connect 189 0 339 0;
#X connect 191 0 321 0;
#X connect 193 0 340 0;
#X connect 195 0 341 0;
#X connect 197 0 342 0;
#X connect 199 0 343 0;
#X connect 201 0 322 0;
#X connect 203 0 344 0;
#X connect 205 0 345 0;
#X connect 207 0 346 0;
#X connect 209 0 323 0;
#X connect 211 0 348 0;
#X connect 213 0 159 0;
#X connect 214 0 163 0;
#X connect 215 0 167 0;
#X connect 216 0 171 0;
#X connect 217 0 175 0;
#X connect 218 0 179 0;
#X connect 219 0 183 0;
#X connect 220 0 181 0;
#X connect 221 0 177 0;
#X connect 222 0 173 0;
#X connect 223 0 169 0;
#X connect 224 0 165 0;
#X connect 225 0 161 0;
#X connect 226 0 157 0;
#X connect 227 0 185 0;
#X connect 228 0 189 0;
#X connect 229 0 193 0;
#X connect 230 0 197 0;
#X connect 231 0 201 0;
#X connect 232 0 205 0;
#X connect 233 0 209 0;
#X connect 234 0 211 0;
#X connect 235 0 207 0;
#X connect 236 0 203 0;
#X connect 237 0 199 0;
#X connect 238 0 195 0;
#X connect 239 0 191 0;
#X connect 240 0 187 0;
#X connect 241 0 213 0;
#X connect 241 0 214 0;
#X connect 241 0 215 0;
#X connect 241 0 217 0;
#X connect 241 0 218 0;
#X connect 241 0 219 0;
#X connect 241 0 226 0;
#X connect 241 0 225 0;
#X connect 241 0 224 0;
#X connect 241 0 223 0;
#X connect 241 0 222 0;
#X connect 241 0 221 0;
#X connect 241 0 220 0;
#X connect 241 0 216 0;
#X connect 242 0 227 0;
#X connect 242 0 228 0;
#X connect 242 0 229 0;
#X connect 242 0 230 0;
#X connect 242 0 231 0;
#X connect 242 0 232 0;
#X connect 242 0 233 0;
#X connect 242 0 240 0;
#X connect 242 0 239 0;
#X connect 242 0 238 0;
#X connect 242 0 237 0;
#X connect 242 0 236 0;
#X connect 242 0 235 0;
#X connect 242 0 234 0;
#X connect 243 0 47 0;
#X connect 244 0 50 0;
#X connect 245 0 56 0;
#X connect 246 0 59 0;
#X connect 247 0 62 0;
#X connect 248 0 61 0;
#X connect 249 0 58 0;
#X connect 250 0 55 0;
#X connect 251 0 52 0;
#X connect 252 0 49 0;
#X connect 253 0 46 0;
#X connect 254 0 67 0;
#X connect 255 0 70 0;
#X connect 256 0 73 0;
#X connect 257 0 76 0;
#X connect 258 0 79 0;
#X connect 259 0 82 0;
#X connect 260 0 68 0;
#X connect 261 0 71 0;
#X connect 262 0 74 0;
#X connect 263 0 77 0;
#X connect 264 0 80 0;
#X connect 265 0 83 0;
#X connect 266 0 47 0;
#X connect 267 0 102 0;
#X connect 268 0 101 0;
#X connect 269 0 96 0;
#X connect 270 0 95 0;
#X connect 271 0 99 0;
#X connect 272 0 104 0;
#X connect 273 0 355 3;
#X connect 274 0 53 0;
#X connect 275 0 52 0;
#X connect 276 0 325 2;
#X connect 277 0 328 2;
#X connect 278 0 330 2;
#X connect 279 0 332 2;
#X connect 280 0 334 2;
#X connect 281 0 336 2;
#X connect 282 0 324 2;
#X connect 283 0 337 2;
#X connect 284 0 335 2;
#X connect 285 0 333 2;
#X connect 286 0 331 2;
#X connect 287 0 329 2;
#X connect 288 0 327 2;
#X connect 289 0 326 2;
#X connect 290 0 347 2;
#X connect 291 0 339 2;
#X connect 292 0 340 2;
#X connect 293 0 342 2;
#X connect 294 0 322 2;
#X connect 295 0 345 2;
#X connect 296 0 323 2;
#X connect 297 0 348 2;
#X connect 298 0 346 2;
#X connect 299 0 344 2;
#X connect 300 0 343 2;
#X connect 301 0 341 2;
#X connect 302 0 321 2;
#X connect 303 0 338 2;
#X connect 304 0 72 0;
#X connect 304 1 316 0;
#X connect 320 0 1 0;
#X connect 320 1 2 0;
#X connect 321 0 192 0;
#X connect 322 0 202 0;
#X connect 323 0 210 0;
#X connect 324 0 184 0;
#X connect 325 0 160 0;
#X connect 326 0 158 0;
#X connect 327 0 162 0;
#X connect 328 0 164 0;
#X connect 329 0 166 0;
#X connect 330 0 168 0;
#X connect 331 0 170 0;
#X connect 332 0 172 0;
#X connect 333 0 174 0;
#X connect 334 0 176 0;
#X connect 335 0 178 0;
#X connect 336 0 180 0;
#X connect 337 0 182 0;
#X connect 338 0 188 0;
#X connect 339 0 190 0;
#X connect 340 0 194 0;
#X connect 341 0 196 0;
#X connect 342 0 198 0;
#X connect 343 0 200 0;
#X connect 344 0 204 0;
#X connect 345 0 206 0;
#X connect 346 0 208 0;
#X connect 347 0 186 0;
#X connect 348 0 212 0;
#X connect 349 0 48 0;
#X connect 349 1 305 0;
#X connect 350 0 103 0;
#X connect 350 1 319 0;
#X connect 351 0 100 0;
#X connect 351 1 318 0;
#X connect 352 0 78 0;
#X connect 352 1 314 0;
#X connect 353 0 51 0;
#X connect 353 1 306 0;
#X connect 354 0 60 0;
#X connect 354 1 309 0;
#X connect 355 0 54 0;
#X connect 355 1 307 0;
#X connect 356 0 57 0;
#X connect 356 1 308 0;
#X connect 357 0 63 0;
#X connect 357 1 310 0;
#X connect 358 0 81 0;
#X connect 358 1 313 0;
#X connect 359 0 69 0;
#X connect 359 1 317 0;
#X connect 360 0 75 0;
#X connect 360 1 315 0;
#X connect 361 0 84 0;
#X connect 361 1 312 0;
#X connect 362 0 97 0;
#X connect 362 1 311 0;
