#N canvas 99 412 319 286 10;
#X obj 107 24 inlet;
#X obj 59 22 inlet;
#X obj 57 221 outlet;
#X obj 69 172 switch 4;
#X obj 74 78 gate 5;
#X obj 161 26 inlet;
#X floatatom 116 47 5 0 0 0 - - -;
#X floatatom 73 53 5 0 0 0 - - -;
#X floatatom 161 55 5 0 0 0 - - -;
#X text 164 2 gain;
#X floatatom 16 140 5 0 0 0 - - -;
#X obj 101 111 hercinp_mult;
#X floatatom 98 142 5 0 0 0 - - -;
#X obj 188 112 hercinp_bend;
#X obj 218 25 inlet;
#X msg 218 70 2;
#X text 106 6 midi;
#X text 52 3 select;
#X text 215 7 value set;
#X obj 172 221 outlet;
#X obj 173 192 bng 15 250 50 0 empty empty empty 0 -6 0 8 -262144 -1
-1;
#X obj 16 110 hercinp_accum;
#X connect 0 0 4 1;
#X connect 0 0 6 0;
#X connect 0 0 20 0;
#X connect 1 0 3 0;
#X connect 1 0 4 0;
#X connect 1 0 7 0;
#X connect 1 0 13 2;
#X connect 3 0 2 0;
#X connect 3 0 13 3;
#X connect 4 0 21 0;
#X connect 4 1 11 0;
#X connect 4 2 13 1;
#X connect 5 0 8 0;
#X connect 8 0 11 1;
#X connect 8 0 13 0;
#X connect 8 0 21 1;
#X connect 11 0 3 2;
#X connect 11 0 12 0;
#X connect 13 0 3 3;
#X connect 14 0 15 0;
#X connect 14 0 13 3;
#X connect 14 0 21 2;
#X connect 15 0 13 2;
#X connect 20 0 19 0;
#X connect 21 0 3 1;
#X connect 21 0 10 0;
