#N canvas 0 0 452 302 10;
#X floatatom 174 211 10 0 0 0 - - -;
#X obj 175 160 *;
#X obj 285 143 inlet;
#X obj 119 252 outlet;
#X obj 166 51 inlet;
#X floatatom 285 200 5 0 0 0 - - -;
#X connect 1 0 0 0;
#X connect 1 0 3 0;
#X connect 2 0 1 1;
#X connect 2 0 5 0;
#X connect 4 0 1 0;
