#N canvas 515 69 466 445 10;
#X obj 66 31 inlet;
#X obj 24 28 inlet;
#X floatatom 66 51 5 0 0 0 - - -;
#X floatatom 24 50 5 0 0 0 - - -;
#X obj 369 139 inlet;
#X text 65 13 midi;
#X text 17 9 select;
#X text 370 122 value set;
#X obj 41 100 gate 5;
#X floatatom 53 346 5 0 0 0 - - -;
#X obj 66 69 / 127;
#X obj 53 364 outlet;
#X text 230 29 2 = increment;
#X text 230 39 3 = decrement;
#X text 230 47 4 = toggle(down on \, down off);
#X obj 244 212 + 1;
#X floatatom 244 239 5 0 0 0 - - -;
#X msg 244 189 1;
#X obj 244 261 mod 2;
#X floatatom 244 285 5 0 0 0 - - -;
#X text 46 164 1;
#X text 92 134 2;
#X text 284 120 4;
#X text 230 19 1 = pushbutton(down on \, up off).;
#X obj 140 157 select 1;
#X obj 181 177 bng 15 250 50 0 empty empty empty 0 -6 0 8 -262144 -1
-1;
#X text 163 141 3;
#X obj 70 152 select 1;
#X obj 111 172 bng 15 250 50 0 empty empty empty 0 -6 0 8 -262144 -1
-1;
#X msg 68 175 1;
#X obj 68 199 + 0;
#X msg 138 180 -1;
#X obj 138 204 + 0;
#X floatatom 243 122 5 0 0 0 - - -;
#X obj 243 163 gate 2;
#X obj 243 141 tool_realgate;
#X connect 0 0 2 0;
#X connect 1 0 3 0;
#X connect 2 0 10 0;
#X connect 3 0 8 0;
#X connect 4 0 9 0;
#X connect 8 0 9 0;
#X connect 8 1 27 0;
#X connect 8 2 24 0;
#X connect 8 3 33 0;
#X connect 9 0 11 0;
#X connect 9 0 32 1;
#X connect 9 0 30 1;
#X connect 10 0 8 1;
#X connect 15 0 16 0;
#X connect 16 0 15 1;
#X connect 16 0 18 0;
#X connect 17 0 15 0;
#X connect 18 0 19 0;
#X connect 18 0 9 0;
#X connect 24 0 31 0;
#X connect 24 1 25 0;
#X connect 27 0 29 0;
#X connect 27 1 28 0;
#X connect 29 0 30 0;
#X connect 30 0 9 0;
#X connect 31 0 32 0;
#X connect 32 0 9 0;
#X connect 33 0 35 0;
#X connect 33 0 35 1;
#X connect 34 1 17 0;
#X connect 35 0 34 0;
#X connect 35 1 34 1;
