#N canvas 711 364 634 331 10;
#X obj 25 53 sampmsg_view;
#X obj 25 16 inlet;
#X obj 92 16 inlet;
#X text 96 1 add;
#X text 14 1 sampmsg_in;
#X obj 149 15 inlet;
#X text 148 -1 next;
#X obj 277 20 inlet;
#X text 276 4 load;
#X obj 435 13 inlet;
#X text 433 0 save;
#X obj 93 169 qlist;
#X msg 290 50 read \$1-qlist.txt;
#X msg 434 34 write \$1-qlist.txt;
#X obj 167 168 bng 15 250 50 0 empty empty empty 0 -6 0 8 -262144 -1
-1;
#X msg 167 189 rewind;
#X obj 93 256 outlet;
#X obj 51 204 print set;
#X obj 434 57 print wr;
#X obj 290 72 print r;
#X obj 110 54 bng 15 250 50 0 empty empty empty 0 -6 0 8 -262144 -1
-1;
#X obj 31 99 print xx;
#X msg 190 165 clear;
#X obj 167 211 print restart;
#X msg 149 51 next;
#X msg 93 139 add \$1 \$2 \$3 \$4 \$5 \$6 \$7 \$8;
#X obj 301 221 textfile;
#X msg 301 191 read \$1.txt;
#X obj 287 122 delay 1;
#X msg 287 142 bang;
#X msg 287 163 rewind;
#X obj 330 163 bng 15 250 50 0 empty empty empty 0 -6 0 8 -262144 -1
-1;
#X obj 330 142 delay 1;
#X obj 275 91 bng 15 250 50 0 empty empty empty 0 -6 0 8 -262144 -1
-1;
#X obj 404 105 sampmsg_view;
#X obj 471 85 bng 15 250 50 0 empty empty empty 0 -6 0 8 -262144 -1
-1;
#X obj 399 180 textfile;
#X msg 399 136 set \$1 \$2 \$3 \$4 \$5 \$6 \$7 \$8 \$9;
#X msg 405 158 write \$1.txt;
#X obj 261 220 print;
#X obj 209 17 inlet;
#X obj 300 252 outlet;
#X text 209 1 clear;
#X text 93 273 preset out;
#X text 300 270 song out;
#X floatatom 203 282 5 0 0 0 - - -;
#X msg 154 244 1;
#X obj 176 284 + 1;
#X msg 184 242 0;
#X obj 420 274 outlet;
#X obj 419 250 - 1;
#X connect 0 1 25 0;
#X connect 1 0 0 0;
#X connect 1 0 34 0;
#X connect 2 0 0 1;
#X connect 2 0 20 0;
#X connect 5 0 24 0;
#X connect 7 0 12 0;
#X connect 7 0 33 0;
#X connect 7 0 27 0;
#X connect 9 0 13 0;
#X connect 9 0 35 0;
#X connect 9 0 38 0;
#X connect 11 0 16 0;
#X connect 11 0 17 0;
#X connect 11 1 14 0;
#X connect 12 0 11 0;
#X connect 12 0 19 0;
#X connect 13 0 11 0;
#X connect 13 0 18 0;
#X connect 14 0 15 0;
#X connect 15 0 11 0;
#X connect 15 0 23 0;
#X connect 15 0 48 0;
#X connect 22 0 11 0;
#X connect 24 0 11 0;
#X connect 24 0 46 0;
#X connect 25 0 11 0;
#X connect 25 0 21 0;
#X connect 26 0 41 0;
#X connect 27 0 26 0;
#X connect 27 0 39 0;
#X connect 28 0 29 0;
#X connect 29 0 30 0;
#X connect 29 0 32 0;
#X connect 30 0 26 0;
#X connect 31 0 26 0;
#X connect 32 0 31 0;
#X connect 33 0 28 0;
#X connect 34 1 37 0;
#X connect 35 0 34 1;
#X connect 37 0 36 0;
#X connect 38 0 36 0;
#X connect 40 0 22 0;
#X connect 45 0 47 1;
#X connect 45 0 50 0;
#X connect 46 0 47 0;
#X connect 47 0 45 0;
#X connect 48 0 47 1;
#X connect 50 0 49 0;
