#N canvas 32 319 429 283 10;
#X obj 94 28 inlet;
#X obj -49 172 outlet;
#X obj -4 173 outlet;
#X obj 40 172 outlet;
#X obj 87 172 outlet;
#X obj 131 171 outlet;
#X obj 174 172 outlet;
#X obj 218 172 outlet;
#X obj 261 172 outlet;
#X obj 91 144 gate 9;
#X obj 303 172 outlet;
#X obj 93 88 unpack f f;
#X text -22 1 NOTE:delay added to let gate switch before getting data
out(1);
#X text 173 113 (1);
#X obj 91 114 tool_realgate;
#X obj 94 61 route 8;
#X text 15 45 take symbol at pos 9 and route it out;
#X obj 303 134 symbol;
#X text 280 152 make a symbol;
#X connect 0 0 15 0;
#X connect 9 0 1 0;
#X connect 9 1 2 0;
#X connect 9 2 3 0;
#X connect 9 3 4 0;
#X connect 9 4 5 0;
#X connect 9 5 6 0;
#X connect 9 6 7 0;
#X connect 9 7 8 0;
#X connect 11 0 14 0;
#X connect 11 1 14 1;
#X connect 14 0 9 0;
#X connect 14 1 9 1;
#X connect 15 0 17 0;
#X connect 15 1 11 0;
#X connect 17 0 10 0;
