#N canvas 360 185 337 319 10;
#X floatatom -255 27 15 0 0 0 - - -;
#X obj -202 163 *;
#X obj -234 -28 metro 50;
#X obj -254 -28 tgl 15 0 empty empty empty 0 -6 0 8 -262144 -1 -1 1
1;
#X obj -120 129 pow 2;
#X floatatom -120 173 10 0 0 0 - - -;
#X msg -149 5 2;
#X obj -254 -49 loadbang;
#X obj -120 149 / 1024;
#X obj -201 5 delay 10;
#X floatatom -158 200 10 0 10 0 - - -;
#X obj -255 4 inlet;
#X obj -104 -46 inlet;
#X msg -135 -48 10;
#X obj -202 200 outlet;
#X obj -40 200 outlet;
#X obj -149 -21 bng 15 250 50 0 empty empty empty 0 -6 0 8 -262144
-1 -1;
#X floatatom -122 -13 5 0 0 0 - - -;
#X obj -118 49 tool_round;
#X obj -119 91 tool_realgate;
#X obj -119 70 - 1;
#X text -90 69 (1);
#X text -253 -82 (1) sub 1 as tool_realgate add one before outputting.
;
#X floatatom -51 134 5 0 0 0 - - -;
#X connect 0 0 1 1;
#X connect 1 0 10 0;
#X connect 1 0 14 0;
#X connect 3 0 2 0;
#X connect 4 0 8 0;
#X connect 4 0 23 0;
#X connect 6 0 19 1;
#X connect 7 0 13 0;
#X connect 7 0 3 0;
#X connect 8 0 5 0;
#X connect 8 0 1 0;
#X connect 9 0 15 0;
#X connect 11 0 0 0;
#X connect 12 0 9 0;
#X connect 12 0 17 0;
#X connect 12 0 16 0;
#X connect 13 0 17 0;
#X connect 16 0 6 0;
#X connect 17 0 18 0;
#X connect 18 0 20 0;
#X connect 19 0 4 1;
#X connect 19 1 4 0;
#X connect 20 0 19 0;
