#N canvas 0 0 389 255 10;
#X obj 43 29 sampmsg_unpack;
#X obj 40 94 sampmsg_pack spread_out;
#X obj 7 51 change;
#X obj 48 52 change;
#X obj 89 53 change;
#X obj 130 54 change;
#X obj 19 71 change;
#X obj 60 72 change;
#X obj 101 73 change;
#X obj 142 74 change;
#X obj 43 9 inlet;
#X obj 40 116 outlet;
#X connect 0 0 2 0;
#X connect 0 1 6 0;
#X connect 0 2 3 0;
#X connect 0 3 7 0;
#X connect 0 4 4 0;
#X connect 0 5 8 0;
#X connect 0 6 5 0;
#X connect 0 7 9 0;
#X connect 1 0 11 0;
#X connect 2 0 1 0;
#X connect 3 0 1 2;
#X connect 4 0 1 4;
#X connect 5 0 1 6;
#X connect 6 0 1 1;
#X connect 7 0 1 3;
#X connect 8 0 1 5;
#X connect 9 0 1 7;
#X connect 10 0 0 0;
