#N canvas 903 482 468 318 10;
#X floatatom 12 54 10 0 0 0 - - -;
#X floatatom 28 72 10 0 0 0 - - -;
#X floatatom 45 89 10 0 0 0 - - -;
#X floatatom 62 105 10 0 0 0 - - -;
#X floatatom 79 122 10 0 0 0 - - -;
#X symbolatom 146 192 60 0 0 0 - - -;
#X obj 9 2 inlet;
#X floatatom 95 140 10 0 0 0 - - -;
#X text 77 56 start;
#X text 94 70 end;
#X text 117 87 samp rate;
#X text 133 102 activate;
#X text 150 120 repeat;
#X text 167 140 volume;
#X floatatom 113 158 5 0 0 0 - - -;
#X text 151 157 global multiplier;
#X msg 94 5 0 0 0 0 0 0 0 0 s;
#X floatatom 134 175 5 0 0 0 - - -;
#X obj 12 31 sampmsg_unpack;
#X obj 19 197 sampmsg_pack;
#X obj 20 225 outlet;
#X obj 268 4 inlet;
#X obj 174 248 outlet;
#X obj 174 224 sampmsg_pack;
#X msg 254 224 0;
#X obj 289 224 loadbang;
#X obj 209 4 loadbang;
#X obj 268 61 * 1;
#X msg 269 32 1;
#X text 166 174 global_time;
#X connect 0 0 19 0;
#X connect 0 0 27 1;
#X connect 1 0 19 1;
#X connect 1 0 23 1;
#X connect 2 0 19 2;
#X connect 2 0 23 2;
#X connect 3 0 19 3;
#X connect 3 0 23 3;
#X connect 4 0 19 4;
#X connect 4 0 23 4;
#X connect 5 0 19 8;
#X connect 5 0 23 8;
#X connect 6 0 18 0;
#X connect 7 0 19 5;
#X connect 7 0 23 5;
#X connect 14 0 19 6;
#X connect 14 0 23 6;
#X connect 16 0 18 0;
#X connect 17 0 23 7;
#X connect 18 0 0 0;
#X connect 18 1 1 0;
#X connect 18 2 2 0;
#X connect 18 3 3 0;
#X connect 18 4 4 0;
#X connect 18 5 7 0;
#X connect 18 6 14 0;
#X connect 18 7 17 0;
#X connect 18 8 5 0;
#X connect 19 0 20 0;
#X connect 21 0 28 0;
#X connect 23 0 22 0;
#X connect 24 0 23 9;
#X connect 25 0 24 0;
#X connect 26 0 16 0;
#X connect 27 0 23 0;
#X connect 28 0 27 0;
