#N canvas 123 45 799 641 10;
#X obj 14 170 vsl 15 128 0 127 0 0 empty mix_pre1_i empty 0 -8 0 8
-262144 -1 -1 6400 1;
#X obj 15 307 / 64;
#X msg 17 77 64;
#X obj 68 -12 loadbang;
#X obj 51 170 vsl 15 128 0 127 0 0 empty mix_pre2_i empty 0 -8 0 8
-262144 -1 -1 6400 1;
#X obj 52 307 / 64;
#X msg 54 77 64;
#X obj 87 170 vsl 15 128 0 127 0 0 empty mix_pre3_i empty 0 -8 0 8
-262144 -1 -1 6400 1;
#X obj 88 307 / 64;
#X msg 90 77 64;
#X obj 123 170 vsl 15 128 0 127 0 0 empty mix_pre4_i empty 0 -8 0 8
-262144 -1 -1 6400 1;
#X obj 124 307 / 64;
#X msg 126 77 64;
#X obj 183 168 vsl 15 128 0 127 0 0 empty mix_out1_i empty 0 -8 0 8
-262144 -1 -1 6400 1;
#X obj 184 305 / 64;
#X msg 185 78 64;
#X obj 224 169 vsl 15 128 0 127 0 0 empty mix_out2_i empty 0 -8 0 8
-262144 -1 -1 6400 1;
#X obj 221 305 / 64;
#X msg 222 78 64;
#X obj 256 168 vsl 15 128 0 127 0 0 empty mix_out3_i empty 0 -8 0 8
-262144 -1 -1 6400 1;
#X obj 257 305 / 64;
#X msg 258 78 64;
#X obj 292 168 vsl 15 128 0 127 0 0 empty mix_out4_i empty 0 -8 0 8
-262144 -1 -1 6400 1;
#X obj 293 305 / 64;
#X msg 294 78 64;
#X obj 245 51 loadbang;
#X obj 517 19 inlet;
#X text 195 15 1;
#X text 231 16 2;
#X text 267 16 3;
#X text 305 16 4;
#X text 27 16 1;
#X text 63 17 2;
#X text 99 17 3;
#X text 137 19 4;
#X obj 293 328 *~ 1;
#X obj 257 328 *~ 1;
#X obj 221 328 *~ 1;
#X obj 184 328 *~ 1;
#X obj 124 330 *~ 1;
#X obj 88 330 *~ 1;
#X obj 52 330 *~ 1;
#X obj 15 330 *~ 1;
#X text 7 3 preview in;
#X text 184 5 output in;
#X text 230 354 output out;
#X msg 126 98 0;
#X msg 90 98 0;
#X msg 55 98 0;
#X msg 16 96 0;
#X msg 295 99 0;
#X msg 258 99 0;
#X msg 225 99 0;
#X msg 185 99 0;
#X text 492 -1 preview channel;
#X text 587 0 crossfade;
#X obj 61 363 *~ 1;
#X text 626 379 preview out;
#X text 649 0 preview mode;
#X obj 243 363 *~ 1;
#X obj 469 502 == 1;
#X obj 505 502 == 2;
#X obj 541 502 == 3;
#X obj 522 526 *~ 1;
#X obj 486 526 *~ 1;
#X obj 450 526 *~ 1;
#X obj 243 383 outlet~;
#X obj 628 363 outlet~;
#X obj 326 96 bng 15 250 50 0 empty mix_out_0_i empty 0 -6 0 8 -262144
-1 -1;
#X text 346 96 mute output;
#X obj 326 78 bng 15 250 50 0 empty mix_out_1_i empty 0 -6 0 8 -262144
-1 -1;
#X text 344 75 all output;
#X obj 154 79 bng 15 250 50 0 empty mix_pre_1_i empty 0 -6 0 8 -262144
-1 -1;
#X obj 153 98 bng 15 250 50 0 empty mix_pre_0_i empty 0 -6 0 8 -262144
-1 -1;
#X obj 33 50 bng 15 250 50 0 empty mix_pre1_solo_i empty 0 -6 0 8 -262144
-1 -1;
#X obj 69 50 bng 15 250 50 0 empty mix_pre2_solo_i empty 0 -6 0 8 -262144
-1 -1;
#X obj 104 49 bng 15 250 50 0 empty mix_pre3_solo_i empty 0 -6 0 8
-262144 -1 -1;
#X obj 138 50 bng 15 250 50 0 empty mix_pre4_solo_i empty 0 -6 0 8
-262144 -1 -1;
#X text 1 46 solo;
#X obj 620 194 - 127;
#X obj 620 215 * -1;
#X obj 662 215 * 1;
#X obj 621 236 / 127;
#X obj 661 237 / 127;
#X obj 608 258 *~;
#X obj 648 258 *~;
#X obj 646 159 * 1;
#X text 604 332 crossfade with output signal;
#X obj 12 30 inlet~;
#X obj 53 30 inlet~;
#X obj 93 29 inlet~;
#X obj 134 30 inlet~;
#X obj 179 31 inlet~;
#X obj 219 31 inlet~;
#X obj 259 31 inlet~;
#X obj 299 31 inlet~;
#X obj 152 168 vsl 15 128 0 127 0 0 empty mix_pre_out_i empty 0 -8
0 8 -262144 -1 -1 0 1;
#X obj 318 167 vsl 15 128 0 127 0 0 empty mix_out_out_i empty 0 -8
0 8 -262144 -1 -1 0 1;
#X floatatom 541 563 5 0 0 0 - - -;
#X floatatom 505 563 5 0 0 0 - - -;
#X floatatom 469 562 5 0 0 0 - - -;
#X floatatom 540 59 5 0 0 0 - - -;
#X obj 332 -30 inlet;
#X obj 332 -10 samp_mixer_solo;
#X obj 403 -31 inlet;
#X obj 403 17 samp_mixer_solo;
#X text 331 6 preview solo;
#X obj 15 118 s mix_pre1_c;
#X obj 53 140 s mix_pre2_c;
#X obj 90 118 s mix_pre3_c;
#X obj 127 140 s mix_pre4_c;
#X obj 183 120 s mix_out1_c;
#X obj 260 121 s mix_out3_c;
#X obj 299 142 s mix_out4_c;
#X obj 14 389 tool_vuinput;
#X obj 14 411 s mix_pre1_vu_c;
#X obj 51 435 tool_vuinput;
#X obj 51 455 s mix_pre2_vu_c;
#X obj 88 478 tool_vuinput;
#X obj 88 499 s mix_pre3_vu_c;
#X obj 123 372 tool_vuinput;
#X obj 128 415 tool_vuinput;
#X obj 128 435 s mix_pre_out_vu_c;
#X obj 123 394 s mix_pre4_vu_c;
#X obj 183 456 tool_vuinput;
#X obj 183 476 s mix_out1_vu_c;
#X obj 220 498 tool_vuinput;
#X obj 256 404 tool_vuinput;
#X obj 292 447 tool_vuinput;
#X obj 319 490 tool_vuinput;
#X obj 220 518 s mix_out2_vu_c;
#X obj 256 425 s mix_out3_vu_c;
#X obj 292 468 s mix_out4_vu_c;
#X obj 319 511 s mix_out_out_vu_c;
#X obj 589 14 inlet;
#X obj 589 45 s mix_cross_c;
#X obj 646 133 r mix_cross_i;
#X obj 676 55 loadbang;
#X msg 675 77 1;
#X obj 674 98 s mix_mode_c;
#X obj 671 607 *~ 1;
#X obj 635 607 *~ 1;
#X obj 599 607 *~ 1;
#X obj 562 607 *~ 1;
#X obj 581 583 != 1;
#X obj 618 583 != 2;
#X obj 690 583 != 4;
#X obj 654 583 != 3;
#X obj 667 525 *~ 1;
#X obj 631 525 *~ 1;
#X obj 595 525 *~ 1;
#X obj 558 525 *~ 1;
#X obj 577 499 == 1;
#X obj 614 499 == 2;
#X obj 650 499 == 3;
#X obj 686 499 == 4;
#X obj 624 551 *~ 1;
#X obj 625 635 *~ 1;
#X obj 735 561 *~ 1;
#X text 697 514 this is the signal;
#X text 699 525 with the preview;
#X text 698 535 channel in it.;
#X obj 651 18 loadbang;
#X msg 626 18 0;
#X obj 223 142 s mix_out2_c;
#X connect 0 0 1 0;
#X connect 1 0 42 1;
#X connect 2 0 107 0;
#X connect 3 0 2 0;
#X connect 3 0 6 0;
#X connect 3 0 9 0;
#X connect 3 0 12 0;
#X connect 4 0 5 0;
#X connect 5 0 41 1;
#X connect 6 0 108 0;
#X connect 7 0 8 0;
#X connect 8 0 40 1;
#X connect 9 0 109 0;
#X connect 10 0 11 0;
#X connect 11 0 39 1;
#X connect 12 0 110 0;
#X connect 13 0 14 0;
#X connect 14 0 38 1;
#X connect 15 0 111 0;
#X connect 16 0 17 0;
#X connect 17 0 37 1;
#X connect 18 0 164 0;
#X connect 19 0 20 0;
#X connect 20 0 36 1;
#X connect 21 0 112 0;
#X connect 22 0 23 0;
#X connect 23 0 35 1;
#X connect 24 0 113 0;
#X connect 25 0 15 0;
#X connect 25 0 18 0;
#X connect 25 0 21 0;
#X connect 25 0 24 0;
#X connect 26 0 101 0;
#X connect 26 0 103 1;
#X connect 26 0 105 1;
#X connect 35 0 59 0;
#X connect 35 0 128 0;
#X connect 36 0 59 0;
#X connect 36 0 127 0;
#X connect 37 0 59 0;
#X connect 37 0 126 0;
#X connect 38 0 59 0;
#X connect 38 0 124 0;
#X connect 39 0 56 0;
#X connect 39 0 120 0;
#X connect 40 0 56 0;
#X connect 40 0 118 0;
#X connect 41 0 56 0;
#X connect 41 0 116 0;
#X connect 42 0 56 0;
#X connect 42 0 114 0;
#X connect 46 0 110 0;
#X connect 47 0 109 0;
#X connect 48 0 108 0;
#X connect 49 0 107 0;
#X connect 50 0 113 0;
#X connect 51 0 112 0;
#X connect 52 0 164 0;
#X connect 53 0 111 0;
#X connect 56 0 121 0;
#X connect 56 0 84 0;
#X connect 59 0 66 0;
#X connect 59 0 129 0;
#X connect 59 0 85 0;
#X connect 60 0 65 1;
#X connect 60 0 100 0;
#X connect 61 0 64 1;
#X connect 61 0 99 0;
#X connect 62 0 63 1;
#X connect 62 0 98 0;
#X connect 68 0 50 0;
#X connect 68 0 51 0;
#X connect 68 0 52 0;
#X connect 68 0 53 0;
#X connect 70 0 24 0;
#X connect 70 0 21 0;
#X connect 70 0 18 0;
#X connect 70 0 15 0;
#X connect 72 0 12 0;
#X connect 72 0 9 0;
#X connect 72 0 6 0;
#X connect 72 0 2 0;
#X connect 73 0 46 0;
#X connect 73 0 47 0;
#X connect 73 0 48 0;
#X connect 73 0 49 0;
#X connect 74 0 2 0;
#X connect 74 0 48 0;
#X connect 74 0 47 0;
#X connect 74 0 46 0;
#X connect 75 0 6 0;
#X connect 75 0 49 0;
#X connect 75 0 47 0;
#X connect 75 0 46 0;
#X connect 76 0 9 0;
#X connect 76 0 49 0;
#X connect 76 0 48 0;
#X connect 76 0 46 0;
#X connect 77 0 12 0;
#X connect 77 0 47 0;
#X connect 77 0 48 0;
#X connect 77 0 49 0;
#X connect 79 0 80 0;
#X connect 80 0 82 0;
#X connect 81 0 83 0;
#X connect 82 0 84 1;
#X connect 83 0 85 1;
#X connect 84 0 67 0;
#X connect 85 0 67 0;
#X connect 86 0 79 0;
#X connect 86 0 81 0;
#X connect 88 0 42 0;
#X connect 89 0 41 0;
#X connect 90 0 40 0;
#X connect 91 0 39 0;
#X connect 92 0 38 0;
#X connect 93 0 37 0;
#X connect 94 0 36 0;
#X connect 95 0 35 0;
#X connect 96 0 110 0;
#X connect 96 0 109 0;
#X connect 96 0 108 0;
#X connect 96 0 107 0;
#X connect 97 0 113 0;
#X connect 97 0 112 0;
#X connect 97 0 111 0;
#X connect 97 0 164 0;
#X connect 102 0 103 0;
#X connect 103 0 107 0;
#X connect 103 1 108 0;
#X connect 103 2 109 0;
#X connect 103 3 110 0;
#X connect 104 0 105 0;
#X connect 105 0 111 0;
#X connect 105 1 164 0;
#X connect 105 2 112 0;
#X connect 105 3 113 0;
#X connect 114 0 115 0;
#X connect 116 0 117 0;
#X connect 118 0 119 0;
#X connect 120 0 123 0;
#X connect 121 0 122 0;
#X connect 124 0 125 0;
#X connect 126 0 130 0;
#X connect 127 0 131 0;
#X connect 128 0 132 0;
#X connect 129 0 133 0;
#X connect 134 0 135 0;
#X connect 136 0 86 0;
#X connect 137 0 138 0;
#X connect 138 0 139 0;
#X connect 140 0 157 0;
#X connect 141 0 157 0;
#X connect 142 0 157 0;
#X connect 143 0 157 0;
#X connect 144 0 143 1;
#X connect 145 0 142 1;
#X connect 146 0 140 1;
#X connect 147 0 141 1;
#X connect 148 0 156 0;
#X connect 149 0 156 0;
#X connect 150 0 156 0;
#X connect 151 0 156 0;
#X connect 152 0 151 1;
#X connect 153 0 150 1;
#X connect 154 0 149 1;
#X connect 155 0 148 1;
#X connect 156 0 158 0;
#X connect 157 0 158 0;
#X connect 162 0 163 0;
#X connect 163 0 135 0;
