#N canvas 67 134 825 425 10;
#X obj 10 10 r sampler_select_i;
#X obj 278 16 r add_preset_i;
#X obj 309 38 r next_preset_i;
#X obj 340 62 r open_song_i;
#X obj 368 84 r save_song_i;
#X obj 395 105 r open_file_i;
#X obj 555 125 r send_output_i;
#X obj 450 149 r update_from_preview_i;
#X obj 481 170 r preview_solo_i;
#X obj 504 191 r output_solo_i;
#X obj 38 47 == \$1;
#X obj 276 84 outlet;
#X obj 276 41 gate;
#X floatatom 38 69 5 0 0 0 - - -;
#X obj 393 126 gate;
#X obj 420 149 gate;
#X obj 450 170 gate;
#X obj 475 191 gate;
#X obj 504 213 gate;
#X obj 339 128 outlet;
#X obj 309 109 outlet;
#X obj 366 149 outlet;
#X obj 393 170 outlet;
#X obj 420 190 outlet;
#X obj 449 304 outlet;
#X obj 475 234 outlet;
#X obj 504 255 outlet;
#X obj 47 135 gate;
#X obj 78 156 gate;
#X obj 105 177 gate;
#X obj 132 198 gate;
#X obj 157 222 gate;
#X obj 18 93 r global_time_i;
#X obj 48 114 r start_i;
#X obj 79 134 r length_i;
#X obj 107 156 r samp_rate_i;
#X obj 135 177 r activate_i;
#X obj 161 199 r repeat_i;
#X obj 186 244 gate;
#X obj 213 267 gate;
#X obj 247 245 r divisor_i;
#X obj 188 221 r volume_i;
#X obj 12 296 outlet;
#X obj 12 273 sampmsg_funnel a_little_wider;
#X obj 118 332 sampmsg_view;
#X obj 112 305 sampmsg_funnel_to_pack;
#X obj 361 228 bng 15 250 50 0 empty empty empty 0 -6 0 8 -262144 -1
-1;
#X floatatom 353 283 5 0 0 0 - - -;
#X obj 355 258 tgl 15 0 empty empty empty 0 -6 0 8 -262144 -1 -1 0
122;
#X obj 309 59 gate;
#X obj 534 236 gate;
#X obj 534 278 outlet;
#X obj 534 214 r clear_preset_i;
#X obj 34 343 print msg_in;
#X obj 562 258 gate;
#X obj 562 300 outlet;
#X obj 592 281 gate;
#X obj 592 323 outlet;
#X obj 562 236 r init_i;
#X obj 592 259 r zero_i;
#X obj 247 268 tool_round;
#X obj 248 290 change;
#X obj 199 133 r activate_oneshot_i;
#X msg 199 155 1;
#X obj 234 177 s activate_c;
#X msg 296 156 0;
#X obj 235 156 delay 50;
#X obj 620 304 gate;
#X obj 620 346 outlet;
#X obj 650 327 gate;
#X obj 650 369 outlet;
#X obj 620 282 r open_track_i;
#X obj 650 305 r save_track_i;
#X obj 448 276 change;
#X obj 429 127 bangbang 2;
#X obj 505 125 delay 1;
#X connect 0 0 10 0;
#X connect 1 0 12 1;
#X connect 2 0 49 1;
#X connect 3 0 19 0;
#X connect 4 0 21 0;
#X connect 5 0 14 1;
#X connect 6 0 74 0;
#X connect 7 0 16 1;
#X connect 8 0 17 1;
#X connect 9 0 18 1;
#X connect 10 0 12 0;
#X connect 10 0 13 0;
#X connect 12 0 11 0;
#X connect 13 0 27 0;
#X connect 13 0 28 0;
#X connect 13 0 29 0;
#X connect 13 0 30 0;
#X connect 13 0 31 0;
#X connect 13 0 38 0;
#X connect 13 0 39 0;
#X connect 13 0 14 0;
#X connect 13 0 15 0;
#X connect 13 0 16 0;
#X connect 13 0 17 0;
#X connect 13 0 18 0;
#X connect 13 0 49 0;
#X connect 13 0 50 0;
#X connect 13 0 54 0;
#X connect 13 0 56 0;
#X connect 13 0 67 0;
#X connect 13 0 69 0;
#X connect 14 0 22 0;
#X connect 15 0 23 0;
#X connect 16 0 73 0;
#X connect 17 0 25 0;
#X connect 18 0 26 0;
#X connect 27 0 43 0;
#X connect 28 0 43 1;
#X connect 29 0 43 2;
#X connect 30 0 43 3;
#X connect 31 0 43 4;
#X connect 32 0 43 7;
#X connect 33 0 27 1;
#X connect 34 0 28 1;
#X connect 35 0 29 1;
#X connect 36 0 30 1;
#X connect 37 0 31 1;
#X connect 38 0 43 5;
#X connect 39 0 43 6;
#X connect 40 0 60 0;
#X connect 41 0 38 1;
#X connect 43 0 42 0;
#X connect 43 0 45 0;
#X connect 43 0 53 0;
#X connect 45 0 44 0;
#X connect 49 0 20 0;
#X connect 50 0 51 0;
#X connect 52 0 50 1;
#X connect 54 0 55 0;
#X connect 56 0 57 0;
#X connect 58 0 54 1;
#X connect 59 0 56 1;
#X connect 60 0 61 0;
#X connect 61 0 39 1;
#X connect 62 0 63 0;
#X connect 62 0 66 0;
#X connect 63 0 30 1;
#X connect 63 0 64 0;
#X connect 65 0 64 0;
#X connect 66 0 65 0;
#X connect 67 0 68 0;
#X connect 69 0 70 0;
#X connect 71 0 67 1;
#X connect 72 0 69 1;
#X connect 73 0 24 0;
#X connect 74 0 15 1;
#X connect 74 1 75 0;
#X connect 75 0 15 1;
