#N canvas 55 262 668 596 10;
#X obj 136 59 hercmap_left_timejog;
#X obj 82 8 hercinp_gate;
#X obj 14 8 sampiface;
#X obj 64 148 sampmsg_unpack;
#X obj 160 148 sampmsg_defunnel;
#X floatatom 264 237 8 0 0 0 - - -;
#X obj 52 201 bng 15 250 50 0 empty empty empty 0 -6 0 8 -262144 -1
-1;
#X obj 146 181 bng 15 250 50 0 empty empty empty 0 -6 0 8 -262144 -1
-1;
#X obj 163 181 bng 15 250 50 0 empty empty empty 0 -6 0 8 -262144 -1
-1;
#X obj 182 181 bng 15 250 50 0 empty empty empty 0 -6 0 8 -262144 -1
-1;
#X obj 200 181 bng 15 250 50 0 empty empty empty 0 -6 0 8 -262144 -1
-1;
#X obj 218 181 bng 15 250 50 0 empty empty empty 0 -6 0 8 -262144 -1
-1;
#X obj 236 181 bng 15 250 50 0 empty empty empty 0 -6 0 8 -262144 -1
-1;
#X obj 227 207 r global_time_i;
#X obj 278 129 table 1-sample;
#X obj 84 236 samp_play 1 and_make_longer;
#X obj 158 357 dac~ 1 2 3 4;
#X obj 60 96 sampiface_msg_in 1 wider;
#X connect 0 0 4 0;
#X connect 3 0 6 0;
#X connect 3 0 15 2;
#X connect 3 1 15 3;
#X connect 3 2 15 4;
#X connect 3 3 15 5;
#X connect 3 4 15 6;
#X connect 3 5 15 1;
#X connect 3 6 15 8;
#X connect 3 7 15 7;
#X connect 3 8 15 0;
#X connect 4 0 7 0;
#X connect 4 0 15 2;
#X connect 4 1 8 0;
#X connect 4 1 15 3;
#X connect 4 2 9 0;
#X connect 4 2 15 4;
#X connect 4 3 10 0;
#X connect 4 3 15 5;
#X connect 4 4 11 0;
#X connect 4 4 15 6;
#X connect 4 5 12 0;
#X connect 4 5 15 1;
#X connect 4 6 15 8;
#X connect 4 7 15 7;
#X connect 4 8 15 0;
#X connect 5 0 15 6;
#X connect 13 0 15 7;
#X connect 15 0 16 2;
#X connect 15 0 16 3;
#X connect 15 2 5 0;
#X connect 17 0 4 0;
