#N canvas -3 225 547 278 10;
#X obj 9 8 inlet;
#X obj 80 8 inlet;
#X obj 115 8 inlet;
#X obj 150 8 inlet;
#X obj 185 8 inlet;
#X obj 220 8 inlet;
#X obj 45 8 inlet;
#X obj 255 8 inlet;
#X obj 138 144 outlet;
#X obj 291 7 inlet;
#X obj 138 121 funnel 9;
#X text 32 160 put changes after inlets to;
#X obj 9 52 change;
#X obj 45 30 change;
#X obj 80 54 change;
#X obj 115 30 change;
#X obj 150 55 change;
#X obj 185 29 change;
#X obj 219 55 change;
#X obj 255 29 change;
#X obj -6 110 bng 15 250 50 0 empty empty empty 0 -6 0 8 -262144 -1
-1;
#X obj 1 138 bng 15 250 50 0 empty empty empty 0 -6 0 8 -262144 -1
-1;
#X connect 0 0 12 0;
#X connect 0 0 20 0;
#X connect 1 0 14 0;
#X connect 2 0 15 0;
#X connect 3 0 16 0;
#X connect 4 0 17 0;
#X connect 5 0 18 0;
#X connect 6 0 13 0;
#X connect 7 0 19 0;
#X connect 9 0 10 8;
#X connect 10 0 8 0;
#X connect 12 0 10 0;
#X connect 12 0 21 0;
#X connect 13 0 10 1;
#X connect 14 0 10 2;
#X connect 15 0 10 3;
#X connect 16 0 10 4;
#X connect 17 0 10 5;
#X connect 18 0 10 6;
#X connect 19 0 10 7;
