#N canvas 0 0 456 306 10;
#X obj 21 24 inlet;
#X obj 160 23 inlet;
#X obj 21 94 outlet;
#X obj 147 117 outlet;
#X floatatom 21 73 5 0 0 0 - - -;
#X obj 147 52 delay 1;
#X obj 147 95 * 1;
#X msg 147 73 1;
#X text 14 4 this is rebuilt from my memory of a lost file!!!;
#X obj 21 50 + 1;
#X connect 0 0 9 0;
#X connect 1 0 6 1;
#X connect 4 0 2 0;
#X connect 4 0 5 0;
#X connect 5 0 7 0;
#X connect 6 0 3 0;
#X connect 7 0 6 0;
#X connect 9 0 4 0;
