#N canvas 452 284 554 374 10;
#X obj 13 312 catch~ sum;
#X obj 244 211 s frequency;
#X obj 358 211 s duration;
#X floatatom 359 139 0 0 0 0 - - -;
#X obj 358 186 * 100;
#X obj 244 186 mtof;
#X floatatom 244 137 0 0 0 0 - - -;
#X text 401 128 duration in tenths;
#X text 404 143 of a second;
#X obj 12 27 partial 1 1 0.56 0;
#X obj 245 84 loadbang;
#X msg 245 107 72;
#X msg 359 109 40;
#X obj 301 137 bng 25 250 50 0 empty empty empty 0 -6 0 8 -262144 -1
-1;
#X text 274 250 <-- click to play a note;
#X obj 248 273 s trigger;
#X obj 12 52 partial 0.67 0.9 0.56 1;
#X obj 12 77 partial 1 0.65 0.92 0;
#X obj 12 102 partial 1.8 0.55 0.92 1.7;
#X obj 12 127 partial 2.67 0.325 1.19 0;
#X obj 12 152 partial 1.67 0.35 1.7 0;
#X obj 12 177 partial 1.46 0.25 2 0;
#X obj 12 202 partial 1.33 0.2 2.74 0;
#X obj 12 227 partial 1.33 0.15 3 0;
#X obj 12 252 partial 1 0.1 3.76 0;
#X obj 12 277 partial 1.33 0.075 4.07 0;
#X obj 14 343 outlet~;
#X obj 243 12 inlet;
#X obj 355 11 inlet;
#X obj 195 11 inlet;
#X obj 407 30 OSCroute /t;
#X obj 421 49 OSCroute /pit;
#X obj 429 72 OSCroute /len;
#X obj 410 1 inlet;
#X text 294 162 trig(/t);
#X text 360 159 len;
#X text 241 155 pit;
#X connect 0 0 26 0;
#X connect 3 0 4 0;
#X connect 4 0 2 0;
#X connect 5 0 1 0;
#X connect 6 0 5 0;
#X connect 10 0 11 0;
#X connect 10 0 12 0;
#X connect 11 0 6 0;
#X connect 12 0 3 0;
#X connect 13 0 15 0;
#X connect 27 0 6 0;
#X connect 28 0 3 0;
#X connect 29 0 13 0;
#X connect 30 0 13 0;
#X connect 31 0 6 0;
#X connect 32 0 3 0;
#X connect 33 0 30 0;
#X connect 33 0 31 0;
#X connect 33 0 32 0;
#X coords 0 -1 1 1 170 50 1 230 130;
