#N canvas 593 48 632 573 10;
#X obj 11 418 osc~;
#X obj 21 37 hsl 128 15 1 1000 1 0 empty empty empty -2 -6 0 8 -262144
-1 -1 1400 1;
#X obj -14 176 +~;
#X obj 21 172 hsl 128 15 1 10000 1 0 empty empty empty -2 -6 0 8 -262144
-1 -1 10500 1;
#X obj -13 152 *~;
#X obj 23 153 hsl 128 15 1 10000 1 0 empty empty empty -2 -6 0 8 -262144
-1 -1 7700 1;
#X text 25 36 frequency;
#X text 23 169 offset;
#X floatatom 110 39 5 0 0 0 - - -;
#X floatatom 106 153 5 0 0 0 - - -;
#X floatatom 107 172 5 0 0 0 - - -;
#X obj 20 -14 inlet;
#X obj 229 -5 inlet;
#X obj 182 -2 inlet;
#X obj 274 -2 inlet;
#X obj 398 -4 inlet;
#X obj 9 454 outlet~;
#X obj 119 -1 inlet;
#X obj 158 151 line;
#X obj 458 8 inlet;
#X obj 20 6 line;
#X obj 157 173 line;
#X floatatom 458 31 5 0 0 0 - - -;
#X obj 194 151 pack f f;
#X obj 340 -1 inlet;
#X text 336 17 envelope;
#X text 109 -15 multi_osc;
#X text 458 -8 trans_time;
#X text 395 11 crossfade;
#X text 181 15 offset;
#X text 27 152 multiplier;
#X obj 60 190 bng 15 250 50 0 empty empty empty 0 -6 0 8 -262144 -1
-1;
#X obj 16 334 ../cmp/crossfade_st;
#X text 269 15 env trig;
#X obj 505 11 inlet;
#X obj 505 39 OSCroute /f;
#X obj 505 64 OSCroute /osc;
#X obj 504 87 OSCroute /off;
#X obj 505 109 OSCroute /mult;
#X obj 507 130 OSCroute /trig;
#X obj 506 152 OSCroute /env;
#X obj 507 173 OSCroute /x;
#X obj 192 171 pack f f;
#X obj 18 67 ../cmp/multi_osc;
#X obj 18 207 ../cmp/envelope;
#X connect 0 0 16 0;
#X connect 1 0 8 0;
#X connect 1 0 43 0;
#X connect 2 0 32 0;
#X connect 2 0 44 0;
#X connect 3 0 2 1;
#X connect 3 0 10 0;
#X connect 4 0 2 0;
#X connect 5 0 4 1;
#X connect 5 0 9 0;
#X connect 11 0 20 0;
#X connect 12 0 23 0;
#X connect 13 0 42 0;
#X connect 14 0 31 0;
#X connect 15 0 32 4;
#X connect 17 0 43 1;
#X connect 18 0 5 0;
#X connect 19 0 22 0;
#X connect 20 0 1 0;
#X connect 21 0 3 0;
#X connect 22 0 23 1;
#X connect 22 0 20 1;
#X connect 22 0 21 1;
#X connect 22 0 42 1;
#X connect 23 0 18 0;
#X connect 24 0 44 2;
#X connect 31 0 44 1;
#X connect 32 0 0 0;
#X connect 34 0 35 0;
#X connect 34 0 36 0;
#X connect 34 0 37 0;
#X connect 34 0 38 0;
#X connect 34 0 39 0;
#X connect 34 0 40 0;
#X connect 34 0 41 0;
#X connect 35 0 1 0;
#X connect 36 0 43 1;
#X connect 37 0 42 0;
#X connect 38 0 23 0;
#X connect 39 0 31 0;
#X connect 40 0 44 2;
#X connect 41 0 32 4;
#X connect 42 0 21 0;
#X connect 43 0 4 0;
#X connect 44 0 32 2;
#X coords 0 -1 1 1 160 340 1 15 20;
