#N canvas 112 140 677 636 10;
#X obj 193 212 moses;
#X floatatom 89 260 5 0 0 0 - - -;
#X floatatom 278 289 5 0 0 0 - - -;
#X floatatom 193 191 5 0 0 0 - - -;
#X obj 331 257 hsl 128 15 0 0.3 0 0 empty empty empty -2 -6 0 8 -262144
-1 -1 0 1;
#X floatatom 427 257 5 0 0 0 - - -;
#X obj 331 283 hsl 128 15 0 1 0 0 empty empty empty -2 -6 0 8 -262144
-1 -1 0 1;
#X floatatom 426 283 5 0 0 0 - - -;
#X obj 458 410 hsl 128 15 0.01 3 1 0 empty empty empty -2 -6 0 8 -262144
-1 -1 0 1;
#X floatatom 555 410 5 0 0 0 - - -;
#X text 335 256 threshold;
#X text 330 281 compr ratio;
#X text 465 408 limit;
#X obj 273 309 -;
#X floatatom 297 310 5 0 0 0 - - -;
#X obj 273 352 +;
#X obj 273 330 *;
#X floatatom 298 332 5 0 0 0 - - -;
#X floatatom 298 353 5 0 0 0 - - -;
#X obj 273 374 /;
#X floatatom 390 414 5 0 0 0 - - -;
#X msg 202 308 1;
#X obj 202 329 bng 15 250 50 0 empty empty empty 0 -6 0 8 -262144 -1
-1;
#X obj 427 413 bng 15 250 50 0 empty empty empty 0 -6 0 8 -262144 -1
-1;
#X obj 89 277 moses;
#X obj 122 361 hsl 128 15 0 0.2 0 0 empty empty empty -2 -6 0 8 -262144
-1 -1 0 1;
#X floatatom 218 361 5 0 0 0 - - -;
#X obj 121 386 hsl 128 15 -10 0 0 0 empty empty empty -2 -6 0 8 -262144
-1 -1 0 1;
#X floatatom 216 387 5 0 0 0 - - -;
#X text 122 385 exp ratio;
#X text 126 359 low threshold;
#X obj 89 312 bng 15 250 50 0 empty empty empty 0 -6 0 8 -262144 -1
-1;
#X floatatom 82 364 5 0 0 0 - - -;
#X obj 63 409 -;
#X floatatom 88 411 5 0 0 0 - - -;
#X obj 63 451 +;
#X obj 63 430 *;
#X floatatom 88 432 5 0 0 0 - - -;
#X floatatom 89 454 5 0 0 0 - - -;
#X obj 63 472 /;
#X floatatom 89 475 5 0 0 0 - - -;
#X obj 63 389 bng 15 250 50 0 empty empty empty 0 -6 0 8 -262144 -1
-1;
#X floatatom 158 520 5 0 0 0 - - -;
#X text 332 329 x compr ratio.;
#X text 331 353 + threshold;
#X text 125 451 + threshold;
#X text 126 474 / gain;
#X text 123 410 thrshhold - gain;
#X obj 390 456 moses;
#X obj 451 505 /;
#X obj 451 477 t b f;
#X obj 488 478 bng 15 250 50 0 empty empty empty 0 -6 0 8 -262144 -1
-1;
#X msg 302 65 0.153 0.11 0.023 1.22 0.242;
#X obj 304 128 unpack f f f f f;
#X obj 390 434 *;
#X floatatom 418 434 5 0 0 0 - - -;
#X msg 390 477 1;
#X obj 390 499 *;
#X obj 219 237 bng 15 250 50 0 empty empty empty 0 -6 0 8 -262144 -1
-1;
#X text 331 312 level - thrshhold;
#X text 295 374 / level;
#X text 271 393 gain;
#X text 452 432 output level;
#X text 477 505 limit / level;
#X msg 415 478 1;
#X obj 415 500 *;
#X obj 355 497 bng 15 250 50 0 empty empty empty 0 -6 0 8 -262144 -1
-1;
#X obj 113 214 max;
#X floatatom 130 192 5 0 0 0 - - -;
#X msg 129 166 0;
#X text 124 430 x exp ratio.;
#X obj 115 100 inlet;
#X obj 251 98 inlet;
#X obj 291 98 inlet;
#X obj 164 98 inlet;
#X obj 203 99 inlet;
#X obj 325 100 inlet;
#X obj 161 579 outlet;
#X connect 0 0 1 0;
#X connect 0 0 67 0;
#X connect 0 1 2 0;
#X connect 0 1 58 0;
#X connect 1 0 24 0;
#X connect 2 0 13 0;
#X connect 2 0 19 1;
#X connect 3 0 0 0;
#X connect 3 0 54 1;
#X connect 3 0 65 1;
#X connect 4 0 5 0;
#X connect 4 0 0 1;
#X connect 4 0 13 1;
#X connect 4 0 15 1;
#X connect 6 0 7 0;
#X connect 6 0 16 1;
#X connect 8 0 9 0;
#X connect 8 0 48 1;
#X connect 8 0 49 0;
#X connect 13 0 14 0;
#X connect 13 0 16 0;
#X connect 15 0 18 0;
#X connect 15 0 19 0;
#X connect 16 0 17 0;
#X connect 16 0 15 0;
#X connect 19 0 57 1;
#X connect 19 0 20 0;
#X connect 20 0 23 0;
#X connect 20 0 54 0;
#X connect 21 0 22 0;
#X connect 21 0 42 0;
#X connect 24 0 32 0;
#X connect 24 0 31 0;
#X connect 24 1 21 0;
#X connect 25 0 26 0;
#X connect 25 0 24 1;
#X connect 25 0 35 1;
#X connect 25 0 33 0;
#X connect 27 0 28 0;
#X connect 27 0 36 1;
#X connect 32 0 39 1;
#X connect 32 0 41 0;
#X connect 32 0 33 1;
#X connect 33 0 34 0;
#X connect 33 0 36 0;
#X connect 35 0 38 0;
#X connect 35 0 39 0;
#X connect 36 0 37 0;
#X connect 36 0 35 0;
#X connect 39 0 40 0;
#X connect 39 0 42 0;
#X connect 41 0 33 0;
#X connect 42 0 77 0;
#X connect 48 0 56 0;
#X connect 48 1 64 0;
#X connect 49 0 42 0;
#X connect 50 0 49 0;
#X connect 50 0 51 0;
#X connect 50 1 49 1;
#X connect 52 0 53 0;
#X connect 53 0 4 0;
#X connect 53 1 6 0;
#X connect 53 2 25 0;
#X connect 53 3 27 0;
#X connect 53 4 8 0;
#X connect 54 0 48 0;
#X connect 54 0 55 0;
#X connect 56 0 57 0;
#X connect 56 0 66 0;
#X connect 57 0 42 0;
#X connect 64 0 65 0;
#X connect 65 0 50 0;
#X connect 67 0 68 0;
#X connect 68 0 67 1;
#X connect 69 0 68 0;
#X connect 71 0 3 0;
#X connect 72 0 25 0;
#X connect 73 0 27 0;
#X connect 74 0 4 0;
#X connect 75 0 6 0;
#X connect 76 0 8 0;
