#N canvas 699 48 458 308 8;
#X obj 15 17 inlet~;
#X text 65 14 signal;
#X floatatom 249 98 5 0 0 0 - - -;
#X msg 244 31 1;
#X obj 245 3 loadbang;
#X obj 187 11 inlet;
#X obj 231 197 outlet~;
#X obj 31 36 inlet~;
#X text 81 33 signal;
#X obj 307 10 inlet;
#X obj 320 66 OSCroute /amp;
#X obj 17 59 delwrite~ \$0-delay1_l 500;
#X obj 32 80 delwrite~ \$0-delay1_r 500;
#X obj 237 125 delread~ \$0-delay1_l;
#X obj 296 152 delread~ \$0-delay1_r;
#X obj 297 208 outlet~;
#X obj 231 163 *~ 1;
#X obj 301 182 *~ 1;
#X obj 40 124 hsl 128 15 1 1000 1 0 empty empty empty -2 -6 0 8 -262144
-1 -1 6688 1;
#X obj 39 149 hsl 128 15 0 1 0 0 empty empty empty -2 -6 0 8 -262144
-1 -1 12700 1;
#X floatatom 131 125 5 0 0 0 - - -;
#X text 53 124 delay;
#X text 45 149 amp;
#X obj 308 42 OSCroute /del;
#X floatatom 131 151 5 0 0 0 - - -;
#X connect 0 0 11 0;
#X connect 2 0 13 0;
#X connect 2 0 14 0;
#X connect 3 0 19 0;
#X connect 3 0 18 0;
#X connect 4 0 3 0;
#X connect 5 0 18 0;
#X connect 7 0 12 0;
#X connect 9 0 23 0;
#X connect 10 0 17 1;
#X connect 13 0 16 0;
#X connect 14 0 17 0;
#X connect 16 0 6 0;
#X connect 17 0 15 0;
#X connect 18 0 2 0;
#X connect 18 0 20 0;
#X connect 19 0 16 1;
#X connect 19 0 17 1;
#X connect 19 0 24 0;
#X connect 23 0 2 0;
#X coords 0 -1 1 1 150 70 1 30 100;
