#N canvas 13 533 704 411 8;
#X obj 28 77 hsl 128 15 0 400 0 0 empty empty empty -2 -6 0 8 -262144
-1 -1 9800 1;
#X obj 339 80 * 1;
#X floatatom 364 80 8 0 0 0 - - -;
#X obj 152 99 osc~;
#X obj 26 35 hsl 128 15 0 100 0 0 empty empty empty -2 -6 0 8 -262144
-1 -1 281 1;
#X obj 175 135 *~ 1;
#X obj 27 58 hsl 128 15 0 127 0 0 empty empty empty -2 -6 0 8 -262144
-1 -1 8800 1;
#X obj 176 162 +~ 1;
#X obj 183 107 / 60;
#X obj 202 5 inlet;
#X obj 152 7 inlet;
#X obj 339 13 inlet;
#X obj 14 12 inlet~;
#X obj 180 329 outlet~;
#X text 64 9 signal;
#X text 32 36 osc_freq;
#X text 32 57 depth;
#X text 30 81 offset;
#X obj 30 142 hsl 128 15 0 127 0 0 empty empty empty -2 -6 0 8 -262144
-1 -1 10900 1;
#X obj 179 303 *~ 1;
#X obj 199 279 / 127;
#X obj 316 219 loadbang;
#X obj 506 13 inlet;
#X msg 317 240 62;
#X obj 341 122 pack 0 5;
#X obj 342 154 line~;
#X msg 393 101 20;
#X obj 28 100 hsl 128 15 0 127 0 0 empty empty empty -2 -6 0 8 -262144
-1 -1 8500 1;
#X obj 329 279 / 127;
#X obj 306 299 *~ 0;
#X obj 384 12 inlet;
#X text 381 34 feedback;
#X text 523 34 vol;
#X obj 283 329 simple_delay;
#X obj 30 120 hsl 128 15 0 300 0 0 empty empty empty -2 -6 0 8 -262144
-1 -1 5600 1;
#X obj 405 183 * 1;
#X floatatom 430 183 8 0 0 0 - - -;
#X obj 407 225 pack 0 5;
#X obj 409 258 line;
#X floatatom 447 294 5 0 0 0 - - -;
#X obj 441 15 inlet;
#X text 438 33 feedback_del;
#X text 41 97 feedback;
#X msg 459 204 50;
#X text 37 122 feedback_delay;
#X text 37 143 volume;
#X obj 570 16 inlet;
#X obj 540 126 OSCroute /dep;
#X obj 540 148 OSCroute /offset;
#X obj 540 171 OSCroute /fb;
#X obj 542 194 OSCroute /fbdel;
#X obj 542 218 OSCroute /vol;
#X obj 546 245 OSCroute /s;
#X obj 547 279 unpack f f f f f f;
#X obj 539 307 OSCroute /t;
#X obj 296 353 simple_delay;
#X obj 34 210 delwrite~ \$0-delay_r 500;
#X obj 15 185 delwrite~ \$0-delay_l 500;
#X obj 179 233 vd~ \$0-delay_l;
#X obj 220 358 outlet~;
#X obj 227 252 vd~ \$0-delay_r;
#X obj 96 3 inlet~;
#X obj 225 304 *~ 1;
#X obj 247 281 / 127;
#X obj 619 104 bng 15 250 50 0 empty empty empty 0 -6 0 8 -262144 -1
-1;
#X obj 625 149 bng 15 250 50 0 empty empty empty 0 -6 0 8 -262144 -1
-1;
#X obj 471 73 OSCroute /oscf;
#X obj 334 300 *~ 0;
#X text 342 0 comment;
#X floatatom 572 74 5 0 0 0 - - -;
#X connect 0 0 1 0;
#X connect 1 0 2 0;
#X connect 1 0 24 0;
#X connect 3 0 5 0;
#X connect 4 0 3 0;
#X connect 5 0 7 0;
#X connect 6 0 8 0;
#X connect 7 0 58 0;
#X connect 7 0 60 0;
#X connect 8 0 5 1;
#X connect 9 0 4 0;
#X connect 10 0 6 0;
#X connect 11 0 0 0;
#X connect 12 0 57 0;
#X connect 18 0 20 0;
#X connect 18 0 63 0;
#X connect 19 0 13 0;
#X connect 20 0 19 1;
#X connect 21 0 23 0;
#X connect 22 0 18 0;
#X connect 23 0 18 0;
#X connect 24 0 25 0;
#X connect 25 0 7 0;
#X connect 26 0 24 1;
#X connect 27 0 28 0;
#X connect 28 0 29 1;
#X connect 28 0 67 1;
#X connect 29 0 33 0;
#X connect 30 0 28 0;
#X connect 30 0 27 0;
#X connect 33 0 57 0;
#X connect 34 0 35 0;
#X connect 35 0 36 0;
#X connect 35 0 37 0;
#X connect 37 0 38 0;
#X connect 38 0 33 1;
#X connect 38 0 39 0;
#X connect 38 0 55 1;
#X connect 40 0 34 0;
#X connect 43 0 37 1;
#X connect 46 0 47 0;
#X connect 46 0 48 0;
#X connect 46 0 49 0;
#X connect 46 0 50 0;
#X connect 46 0 51 0;
#X connect 46 0 52 0;
#X connect 46 0 54 0;
#X connect 46 0 66 0;
#X connect 47 0 6 0;
#X connect 48 0 0 0;
#X connect 48 0 65 0;
#X connect 49 0 27 0;
#X connect 50 0 34 0;
#X connect 51 0 18 0;
#X connect 52 0 53 0;
#X connect 53 0 4 0;
#X connect 53 1 6 0;
#X connect 53 2 0 0;
#X connect 53 3 27 0;
#X connect 53 4 34 0;
#X connect 53 5 18 0;
#X connect 54 0 38 1;
#X connect 55 0 56 0;
#X connect 58 0 19 0;
#X connect 58 0 29 0;
#X connect 60 0 62 0;
#X connect 60 0 67 0;
#X connect 61 0 56 0;
#X connect 62 0 59 0;
#X connect 63 0 62 1;
#X connect 66 0 4 0;
#X connect 66 0 64 0;
#X connect 66 0 69 0;
#X connect 67 0 55 0;
#X coords 0 -1 1 1 148 140 1 20 20;
