#N canvas 30 238 683 411 10;
#X obj 29 79 hsl 128 15 0 400 0 0 empty empty empty -2 -6 0 8 -262144
-1 -1 0 1;
#X obj 339 80 * 1;
#X floatatom 364 80 8 0 0 0 - - -;
#X obj 176 102 osc~;
#X obj 27 39 hsl 128 15 0 100 0 0 empty empty empty -2 -6 0 8 -262144
-1 -1 0 1;
#X obj 178 133 *~ 1;
#X obj 27 58 hsl 128 15 0 127 0 0 empty empty empty -2 -6 0 8 -262144
-1 -1 0 1;
#X obj 179 162 +~ 1;
#X obj 207 110 / 60;
#X obj 202 5 inlet;
#X obj 152 7 inlet;
#X obj 339 13 inlet;
#X obj 15 186 delwrite~ \$0-delay1 500;
#X obj 161 215 vd~ \$0-delay1;
#X obj 14 12 inlet~;
#X obj 162 311 outlet~;
#X text 64 9 signal;
#X text 32 36 osc_freq;
#X text 32 57 depth;
#X text 25 79 offset;
#X obj 30 142 hsl 128 15 0 127 0 0 empty empty empty -2 -6 0 8 -262144
-1 -1 6200 1;
#X obj 159 284 *~ 1;
#X obj 181 261 / 127;
#X obj 316 219 loadbang;
#X obj 491 17 inlet;
#X msg 317 240 62;
#X obj 341 122 pack 0 5;
#X obj 342 154 line~;
#X msg 393 101 20;
#X obj 28 100 hsl 128 15 0 127 0 0 empty empty empty -2 -6 0 8 -262144
-1 -1 0 1;
#X obj 282 262 / 127;
#X obj 259 282 *~ 0;
#X obj 384 12 inlet;
#X text 381 28 feedback;
#X text 493 31 vol;
#X obj 236 312 simple_delay;
#X obj 26 120 hsl 128 15 0 300 0 0 empty empty empty -2 -6 0 8 -262144
-1 -1 0 1;
#X obj 405 183 * 1;
#X floatatom 430 183 8 0 0 0 - - -;
#X obj 407 225 pack 0 5;
#X obj 409 258 line;
#X floatatom 447 294 5 0 0 0 - - -;
#X obj 441 15 inlet;
#X text 438 1 feedback_del;
#X text 41 97 feedback;
#X msg 459 204 50;
#X text 36 121 feedback_delay;
#X text 37 143 volume;
#X obj 570 16 inlet;
#X obj 540 101 OSCroute /oscf;
#X obj 540 101 OSCroute /oscf;
#X obj 540 126 OSCroute /dep;
#X obj 540 148 OSCroute /offset;
#X obj 540 171 OSCroute /fb;
#X obj 542 194 OSCroute /fbdel;
#X obj 542 218 OSCroute /vol;
#X obj 546 245 OSCroute /s;
#X obj 547 279 unpack f f f f f f;
#X obj 539 307 OSCroute /t;
#X text 339 -2 offset;
#X connect 0 0 1 0;
#X connect 1 0 2 0;
#X connect 1 0 26 0;
#X connect 3 0 5 0;
#X connect 4 0 3 0;
#X connect 5 0 7 0;
#X connect 6 0 8 0;
#X connect 7 0 13 0;
#X connect 8 0 5 1;
#X connect 9 0 4 0;
#X connect 10 0 6 0;
#X connect 11 0 0 0;
#X connect 13 0 21 0;
#X connect 13 0 31 0;
#X connect 14 0 12 0;
#X connect 20 0 22 0;
#X connect 21 0 15 0;
#X connect 22 0 21 1;
#X connect 23 0 25 0;
#X connect 24 0 20 0;
#X connect 25 0 20 0;
#X connect 26 0 27 0;
#X connect 27 0 7 0;
#X connect 28 0 26 1;
#X connect 29 0 30 0;
#X connect 30 0 31 1;
#X connect 31 0 35 0;
#X connect 32 0 30 0;
#X connect 32 0 29 0;
#X connect 35 0 12 0;
#X connect 36 0 37 0;
#X connect 37 0 38 0;
#X connect 37 0 39 0;
#X connect 39 0 40 0;
#X connect 40 0 35 1;
#X connect 40 0 41 0;
#X connect 42 0 36 0;
#X connect 45 0 39 1;
#X connect 48 0 49 0;
#X connect 48 0 51 0;
#X connect 48 0 52 0;
#X connect 48 0 53 0;
#X connect 48 0 54 0;
#X connect 48 0 55 0;
#X connect 48 0 56 0;
#X connect 50 0 4 0;
#X connect 51 0 6 0;
#X connect 52 0 0 0;
#X connect 53 0 29 0;
#X connect 54 0 36 0;
#X connect 55 0 20 0;
#X connect 56 0 57 0;
#X connect 57 0 4 0;
#X connect 57 1 6 0;
#X connect 57 2 0 0;
#X connect 57 3 29 0;
#X connect 57 4 36 0;
#X connect 57 5 20 0;
#X coords 0 -1 1 1 148 140 1 20 20;
