#N canvas 341 240 608 349 8;
#X obj 235 282 outlet~;
#X obj 237 190 osc~;
#X msg 37 200 1;
#X floatatom 64 8 5 0 0 0 - - -;
#X obj 21 86 metro;
#X obj 21 35 tgl 15 0 empty empty empty 0 -6 0 8 -262144 -1 -1 1 1
;
#X obj 140 237 pack 0 1;
#X obj 75 134 + 1;
#X obj 36 137 f;
#X floatatom 36 158 5 0 0 0 - - -;
#X obj 75 156 mod 2;
#X obj 37 177 route 1;
#X floatatom 91 83 5 0 0 0 - - -;
#X obj 65 58 * 1000;
#X obj 141 261 line~;
#X msg 78 200 -1;
#X obj 143 182 sig~;
#X obj 35 111 delay;
#X obj 65 87 / 2;
#X obj 163 100 hsl 128 15 0 127 0 0 empty empty empty -2 -6 0 8 -262144
-1 -1 11900 1;
#X obj 141 285 *~ 1;
#X obj 176 262 / 127;
#X obj 165 78 hsl 128 15 0 127 0 0 empty empty empty -2 -6 0 8 -262144
-1 -1 0 1;
#X obj 144 211 *~ 1;
#X obj 174 182 / 127;
#X obj 164 122 hsl 128 15 0 127 0 0 empty empty empty -2 -6 0 8 -262144
-1 -1 6800 1;
#X obj 237 233 *~ 1;
#X obj 256 210 / 127;
#X text 211 100 sawtooth;
#X text 173 77 square pulse;
#X text 163 122 sin wave;
#X obj 65 33 expr 1/(2 * $f1);
#X floatatom 259 76 5 0 0 0 - - -;
#X floatatom 260 100 5 0 0 0 - - -;
#X msg 135 99 0;
#X msg 135 75 0;
#X msg 134 122 50;
#X obj 236 256 +~ 0;
#X obj 103 8 inlet;
#X text 139 7 frequency;
#X floatatom 261 123 5 0 0 0 - - -;
#X text 157 198 pulse;
#X text 176 278 saw;
#X text 265 188 sin;
#X obj 200 32 loadbang;
#X obj 301 125 r sn;
#X obj 301 99 r sw;
#X obj 304 74 r pl;
#X obj 275 11 inlet;
#X obj 261 32 unpack f f f;
#X obj 382 9 inlet;
#X obj 383 33 OSCroute /s;
#X obj 386 55 OSCroute /sq;
#X obj 387 78 OSCroute /saw;
#X obj 388 100 OSCroute /sin;
#X connect 1 0 26 0;
#X connect 2 0 6 0;
#X connect 2 0 16 0;
#X connect 3 0 31 0;
#X connect 4 0 8 0;
#X connect 4 0 17 0;
#X connect 5 0 4 0;
#X connect 6 0 14 0;
#X connect 7 0 10 0;
#X connect 8 0 9 0;
#X connect 8 0 7 0;
#X connect 9 0 11 0;
#X connect 10 0 8 1;
#X connect 11 0 2 0;
#X connect 11 1 15 0;
#X connect 13 0 4 1;
#X connect 13 0 12 0;
#X connect 13 0 6 1;
#X connect 13 0 18 0;
#X connect 14 0 20 0;
#X connect 15 0 6 0;
#X connect 15 0 16 0;
#X connect 16 0 23 0;
#X connect 17 0 8 0;
#X connect 18 0 17 1;
#X connect 19 0 21 0;
#X connect 19 0 33 0;
#X connect 20 0 37 0;
#X connect 21 0 20 1;
#X connect 22 0 24 0;
#X connect 22 0 32 0;
#X connect 23 0 37 0;
#X connect 24 0 23 1;
#X connect 25 0 27 0;
#X connect 25 0 40 0;
#X connect 26 0 37 0;
#X connect 27 0 26 1;
#X connect 31 0 13 0;
#X connect 34 0 19 0;
#X connect 35 0 22 0;
#X connect 36 0 25 0;
#X connect 37 0 0 0;
#X connect 38 0 3 0;
#X connect 38 0 1 0;
#X connect 44 0 5 0;
#X connect 44 0 35 0;
#X connect 44 0 34 0;
#X connect 44 0 36 0;
#X connect 45 0 25 0;
#X connect 46 0 19 0;
#X connect 47 0 22 0;
#X connect 48 0 49 0;
#X connect 49 0 22 0;
#X connect 49 1 19 0;
#X connect 49 2 25 0;
#X connect 50 0 51 0;
#X connect 50 0 52 0;
#X connect 50 0 53 0;
#X connect 50 0 54 0;
#X connect 51 0 49 0;
#X connect 52 0 22 0;
#X connect 53 0 19 0;
#X connect 54 0 25 0;
#X coords 0 -1 1 1 138 80 1 160 60;
