#N canvas 404 59 608 349 8;
#X obj 396 277 outlet~;
#X obj 398 185 osc~;
#X floatatom 64 8 5 0 0 0 - - -;
#X obj 164 99 hsl 128 15 0 127 0 0 empty empty empty -2 -6 0 8 -262144
-1 -1 0 1;
#X obj 243 287 *~ 1;
#X obj 271 288 / 127;
#X obj 165 78 hsl 128 15 0 127 0 0 empty empty empty -2 -6 0 8 -262144
-1 -1 4600 1;
#X obj 119 299 *~ 1;
#X obj 149 270 / 127;
#X obj 164 122 hsl 128 15 0 127 0 0 empty empty empty -2 -6 0 8 -262144
-1 -1 100 1;
#X obj 398 228 *~ 1;
#X obj 417 205 / 127;
#X text 211 100 sawtooth;
#X text 173 77 square pulse;
#X text 163 122 sin wave;
#X obj 65 33 expr 1/(2 * $f1);
#X floatatom 259 76 5 0 0 0 - - -;
#X floatatom 260 100 5 0 0 0 - - -;
#X msg 135 99 0;
#X msg 135 75 0;
#X msg 134 122 50;
#X obj 397 251 +~ 0;
#X obj 103 8 inlet;
#X text 139 7 frequency;
#X floatatom 261 123 5 0 0 0 - - -;
#X text 132 286 pulse;
#X text 299 287 saw;
#X text 426 183 sin;
#X obj 190 20 loadbang;
#X obj 301 125 r sn;
#X obj 301 99 r sw;
#X obj 304 74 r pl;
#X obj 275 11 inlet;
#X obj 261 32 unpack f f f;
#X obj 382 9 inlet;
#X obj 384 32 OSCroute /s;
#X obj 385 67 OSCroute /sq;
#X obj 386 90 OSCroute /saw;
#X obj 387 112 OSCroute /sin;
#X obj 242 192 phasor~;
#X obj 242 230 abs~;
#X obj 242 211 -~ 0.5;
#X obj 241 251 -~ 0.25;
#X obj 241 268 *~ 4;
#X obj 52 267 clip~ -1 1;
#X obj 52 234 *~ 10000;
#X obj 52 212 +~ 0;
#X obj 166 58 hsl 128 15 0 0.99 0 0 empty empty empty -2 -6 0 8 -262144
-1 -1 12350 1;
#X floatatom 263 61 5 0 0 0 - - -;
#X text 168 60 duty;
#X obj 384 49 OSCroute /dut;
#X floatatom 191 222 5 0 0 0 - - -;
#X connect 1 0 10 0;
#X connect 2 0 15 0;
#X connect 2 0 39 0;
#X connect 3 0 5 0;
#X connect 3 0 17 0;
#X connect 4 0 21 0;
#X connect 5 0 4 1;
#X connect 6 0 16 0;
#X connect 6 0 8 0;
#X connect 7 0 21 0;
#X connect 8 0 7 1;
#X connect 9 0 11 0;
#X connect 9 0 24 0;
#X connect 10 0 21 0;
#X connect 11 0 10 1;
#X connect 18 0 3 0;
#X connect 19 0 6 0;
#X connect 19 0 47 0;
#X connect 20 0 9 0;
#X connect 21 0 0 0;
#X connect 22 0 2 0;
#X connect 22 0 1 0;
#X connect 28 0 19 0;
#X connect 28 0 18 0;
#X connect 28 0 20 0;
#X connect 29 0 9 0;
#X connect 30 0 3 0;
#X connect 31 0 6 0;
#X connect 32 0 33 0;
#X connect 33 0 6 0;
#X connect 33 1 3 0;
#X connect 33 2 9 0;
#X connect 34 0 35 0;
#X connect 34 0 36 0;
#X connect 34 0 37 0;
#X connect 34 0 38 0;
#X connect 34 0 50 0;
#X connect 35 0 33 0;
#X connect 36 0 6 0;
#X connect 37 0 3 0;
#X connect 38 0 9 0;
#X connect 39 0 41 0;
#X connect 40 0 42 0;
#X connect 41 0 40 0;
#X connect 42 0 43 0;
#X connect 43 0 4 0;
#X connect 43 0 46 0;
#X connect 44 0 7 0;
#X connect 45 0 44 0;
#X connect 46 0 45 0;
#X connect 47 0 46 1;
#X connect 50 0 47 0;
#X coords 0 -1 1 1 138 95 1 160 45;
