#N canvas 654 382 536 378 8;
#X obj 20 54 phasor~;
#X obj 21 80 -~ 0.5;
#X obj 20 108 abs~;
#X obj 21 139 *~ 1;
#X obj 263 121 hsl 128 15 0 1 0 0 empty empty empty -2 -6 0 8 -262144
-1 -1 0 1;
#X obj 120 144 osc~;
#X obj 197 112 * -1;
#X obj 155 145 *~ 1;
#X obj 262 141 hsl 128 15 0 1 0 0 empty empty empty -2 -6 0 8 -262144
-1 -1 0 1;
#X obj 116 74 +~ 0;
#X obj 261 78 hsl 128 15 0 0.5 0 0 empty empty empty -2 -6 0 8 -262144
-1 -1 0 1;
#X obj 261 99 hsl 128 15 0 1 0 0 empty empty empty -2 -6 0 8 -262144
-1 -1 0 1;
#X text 353 77 duty;
#X text 370 98 sq;
#X text 367 140 sin;
#X text 366 121 saw;
#X floatatom 275 121 5 0 0 0 - - -;
#X floatatom 271 77 5 0 0 0 - - -;
#X floatatom 270 101 5 0 0 0 - - -;
#X obj 19 14 inlet~;
#X obj 83 273 outlet~;
#X floatatom 277 142 5 0 0 0 - - -;
#X obj 401 7 inlet;
#X obj 419 140 OSCroute /sin;
#X obj 419 118 OSCroute /saw;
#X obj 419 99 OSCroute /sq;
#X obj 418 78 OSCroute /duty;
#X obj 276 4 inlet;
#X obj 263 28 unpack f f f f;
#X obj 418 57 OSCroute /s;
#X obj 116 112 clip~ -0.2 0.2;
#X floatatom 173 47 5 0 0 0 - - -;
#X obj 116 27 *~ 1e+08;
#X obj 117 51 -~ 5e+07;
#X obj 153 74 * 1e+08;
#X connect 0 0 1 0;
#X connect 1 0 2 0;
#X connect 2 0 3 0;
#X connect 2 0 32 0;
#X connect 3 0 20 0;
#X connect 4 0 3 1;
#X connect 4 0 16 0;
#X connect 5 0 7 0;
#X connect 6 0 30 1;
#X connect 7 0 20 0;
#X connect 8 0 7 1;
#X connect 8 0 21 0;
#X connect 9 0 30 0;
#X connect 10 0 17 0;
#X connect 10 0 34 0;
#X connect 11 0 6 0;
#X connect 11 0 18 0;
#X connect 11 0 30 2;
#X connect 19 0 5 0;
#X connect 19 0 0 0;
#X connect 22 0 23 0;
#X connect 22 0 26 0;
#X connect 22 0 25 0;
#X connect 22 0 24 0;
#X connect 22 0 29 0;
#X connect 23 0 8 0;
#X connect 24 0 4 0;
#X connect 25 0 11 0;
#X connect 26 0 10 0;
#X connect 27 0 28 0;
#X connect 28 0 10 0;
#X connect 28 1 11 0;
#X connect 28 2 4 0;
#X connect 28 3 8 0;
#X connect 29 0 28 0;
#X connect 30 0 20 0;
#X connect 31 0 6 0;
#X connect 32 0 33 0;
#X connect 33 0 9 0;
#X connect 34 0 9 1;
#X coords 0 -1 1 1 150 100 1 250 60;
