#N canvas 136 165 1191 623 8;
#X obj -354 134 soundfiler;
#X obj -260 91 print;
#X obj -311 23 loadbang;
#X obj -458 -34 inlet;
#X floatatom -354 165 10 0 0 0 - - -;
#X obj -60 322 line~;
#X obj -53 228 + 0;
#X text -47 47 start;
#X obj -53 249 nbx 8 14 -1e+37 1e+37 0 0 empty empty empty 0 -6 0 10
-262144 -1 -1 200000 256;
#X obj 137 172 nbx 8 14 -1e+37 1e+37 0 0 empty empty empty 0 -6 0 10
-262144 -1 -1 44100 256;
#X obj -1 136 nbx 8 14 -1e+37 1e+37 0 0 empty empty empty 0 -6 0 10
-262144 -1 -1 200000 256;
#X obj -43 157 nbx 8 14 -1e+37 1e+37 0 0 empty empty empty 0 -6 0 10
-262144 -1 -1 0 256;
#X obj 70 179 / 1;
#X obj 159 209 nbx 16 14 -1e+37 1e+37 0 0 empty empty empty 0 -6 0
10 -262144 -1 -1 200000 256;
#X obj 212 74 tgl 15 0 empty empty empty 0 -6 0 8 -262144 -1 -1 1 1
;
#X obj 212 92 metro 30;
#X obj 212 122 bng 15 250 50 0 empty empty empty 0 -6 0 8 -262144 -1
-1;
#X obj -61 276 + 0;
#X obj -53 204 + 0;
#X obj 212 54 loadbang;
#X obj 88 74 inlet;
#X obj -45 64 inlet;
#X obj -4 62 inlet;
#X obj 138 74 inlet;
#X text -7 47 length;
#X obj 336 435 line~;
#X obj 329 337 pack 1 0;
#X obj 361 396 pack 0 0;
#X obj 410 243 hsl 128 15 1 200 1 0 empty empty empty -2 -6 0 8 -262144
-1 -1 2098 1;
#X obj 406 202 loadbang;
#X msg 406 222 2.4;
#X obj 188 487 *~;
#X obj 189 510 *~ 1;
#X msg 53 243 1;
#X floatatom -55 303 10 0 0 0 - - -;
#X text 135 56 trigger;
#X obj 385 264 delay;
#X msg 329 315 1;
#X obj 329 293 delay;
#X obj 208 255 bng 15 250 50 0 empty empty empty 0 -6 0 8 -262144 -1
-1;
#X text 86 56 speed;
#X obj -15 292 bng 15 250 50 0 empty empty empty 0 -6 0 8 -262144 -1
-1;
#X msg -52 183 0;
#X floatatom 433 267 5 0 0 0 - - -;
#X msg 459 405 0;
#X obj 458 364 delay 1;
#X msg 460 344 stop;
#X obj 459 386 bng 15 250 50 0 empty empty empty 0 -6 0 8 -262144 -1
-1;
#X obj -176 429 / 44100;
#X obj -176 450 * 1000;
#X floatatom -155 480 5 0 0 0 - - -;
#X obj -153 415 hsl 128 15 0 100000 0 0 empty empty empty -2 -6 0 8
-262144 -1 -1 5601 1;
#X floatatom -74 414 8 0 0 0 - - -;
#X text -130 405 samp_rate;
#X text -28 183 trigger;
#X obj -16 270 pack f f;
#X msg -134 382 44100;
#X obj -133 361 loadbang;
#X obj 186 536 outlet~;
#X obj -345 68 bng 15 250 50 0 empty empty empty 0 -6 0 8 -262144 -1
-1;
#X symbolatom -403 -28 70 0 0 0 - - -;
#X obj 209 369 inlet;
#X text 208 354 volume;
#X text -28 205 length buffer;
#X text -29 227 end_sample;
#X text -142 439 length / sr = time(n/(n/s) = s);
#X text -146 458 sec > msec;
#X obj 307 113 inlet;
#X obj 138 140 bng 15 250 50 0 empty empty empty 0 -6 0 8 -262144 -1
-1;
#X floatatom 210 437 5 0 0 0 - - -;
#X obj 307 144 unpack f f f f f;
#X msg 353 364 0;
#X text 377 366 init line;
#X text 358 316 start envelope;
#X text 485 381 end env at end play;
#X text 360 411 end env on trig;
#X text 381 439 env sig;
#X text 211 484 apply env;
#X text 219 509 apply volume;
#X obj -443 28 bng 15 250 50 0 empty empty empty 0 -6 0 8 -262144 -1
-1;
#X obj -423 -35 symbol;
#X text -448 -16 \$0-sample doesnt sem to be initing proerly;
#X obj -345 91 pack s s s;
#X obj -281 4 table \$0-sample_r;
#X obj -311 71 symbol \$0-sample_r;
#X obj -394 1 table \$0-sample_l;
#X obj 37 491 *~;
#X obj 38 514 *~ 1;
#X obj 44 537 outlet~;
#X text 60 488 apply env;
#X obj 40 461 tabread4~ \$0-sample_l;
#X obj 200 463 tabread4~ \$0-sample_r;
#X text 74 509 apply volume;
#X msg -504 112 read -resize -nframes 1e+07 -maxsize 1e+08 \$1 \$2
\$3;
#X obj -310 45 symbol \$0-sample_l;
#X obj 390 -26 inlet;
#X obj -395 232 hsl 128 15 0 1e+07 0 0 empty empty empty -2 -6 0 8
-262144 -1 -1 1700 1;
#X obj -395 254 hsl 128 15 0 1e+06 0 0 empty empty empty -2 -6 0 8
-262144 -1 -1 0 1;
#X obj -396 275 hsl 128 15 0 127 0 0 empty empty empty -2 -6 0 8 -262144
-1 -1 0 1;
#X obj -396 316 hsl 128 15 0 1 0 0 empty empty empty -2 -6 0 8 -262144
-1 -1 200 1;
#X obj -399 296 bng 15 250 50 0 empty empty empty 0 -6 0 8 -262144
-1 -1;
#X obj 415 28 OSCroute /len;
#X obj 414 6 OSCroute /st;
#X obj 416 49 OSCroute /sr;
#X obj 416 70 OSCroute /trig;
#X obj 417 92 OSCroute /vol;
#X obj 417 115 OSCroute /s;
#X obj -346 232 nbx 8 14 -1e+37 1e+37 0 0 empty empty empty 0 -6 0
10 -262144 -1 -1 0 256;
#X obj -347 254 nbx 8 14 -1e+37 1e+37 0 0 empty empty empty 0 -6 0
10 -262144 -1 -1 200000 256;
#X text -392 254 len;
#X floatatom -319 275 7 0 0 0 - - -;
#X text -388 274 sr;
#X text -388 233 st;
#X floatatom -306 317 5 0 0 0 - - -;
#X text -386 315 vol;
#X text -382 295 trig;
#X obj 420 137 OSCroute /file;
#X connect 0 0 4 0;
#X connect 0 0 90 0;
#X connect 0 0 91 0;
#X connect 2 0 84 0;
#X connect 2 0 94 0;
#X connect 3 0 79 0;
#X connect 3 0 80 0;
#X connect 5 0 90 0;
#X connect 5 0 91 0;
#X connect 6 0 8 0;
#X connect 6 0 39 0;
#X connect 6 0 55 0;
#X connect 9 0 48 1;
#X connect 9 0 110 0;
#X connect 10 0 18 1;
#X connect 10 0 48 0;
#X connect 10 0 12 0;
#X connect 10 0 108 0;
#X connect 11 0 6 1;
#X connect 11 0 17 1;
#X connect 11 0 107 0;
#X connect 12 0 13 0;
#X connect 14 0 15 0;
#X connect 15 0 16 0;
#X connect 15 0 12 0;
#X connect 15 0 48 0;
#X connect 17 0 5 0;
#X connect 17 0 34 0;
#X connect 18 0 6 0;
#X connect 19 0 14 0;
#X connect 20 0 9 0;
#X connect 20 0 12 1;
#X connect 21 0 11 0;
#X connect 22 0 10 0;
#X connect 23 0 68 0;
#X connect 25 0 31 1;
#X connect 25 0 86 1;
#X connect 26 0 25 0;
#X connect 27 0 25 0;
#X connect 28 0 36 1;
#X connect 28 0 26 1;
#X connect 28 0 27 1;
#X connect 28 0 43 0;
#X connect 28 0 38 1;
#X connect 29 0 30 0;
#X connect 30 0 28 0;
#X connect 31 0 32 0;
#X connect 32 0 58 0;
#X connect 33 0 17 0;
#X connect 36 0 33 0;
#X connect 36 0 42 0;
#X connect 37 0 26 0;
#X connect 38 0 37 0;
#X connect 39 0 38 0;
#X connect 41 0 45 0;
#X connect 42 0 18 0;
#X connect 44 0 25 0;
#X connect 45 0 47 0;
#X connect 46 0 45 0;
#X connect 47 0 44 0;
#X connect 48 0 49 0;
#X connect 49 0 50 0;
#X connect 49 0 55 1;
#X connect 49 0 45 1;
#X connect 51 0 48 1;
#X connect 51 0 52 0;
#X connect 55 0 5 0;
#X connect 55 0 41 0;
#X connect 56 0 48 1;
#X connect 56 0 51 0;
#X connect 57 0 56 0;
#X connect 59 0 82 0;
#X connect 61 0 99 0;
#X connect 67 0 70 0;
#X connect 68 0 46 0;
#X connect 68 0 36 0;
#X connect 68 0 71 0;
#X connect 69 0 32 1;
#X connect 69 0 87 1;
#X connect 70 0 11 0;
#X connect 70 1 10 0;
#X connect 70 2 9 0;
#X connect 70 4 99 0;
#X connect 71 0 27 0;
#X connect 80 0 60 0;
#X connect 80 0 82 0;
#X connect 82 0 93 0;
#X connect 82 0 1 0;
#X connect 84 0 82 2;
#X connect 86 0 87 0;
#X connect 87 0 88 0;
#X connect 90 0 86 0;
#X connect 91 0 31 0;
#X connect 93 0 0 0;
#X connect 94 0 82 1;
#X connect 95 0 102 0;
#X connect 95 0 101 0;
#X connect 95 0 103 0;
#X connect 95 0 104 0;
#X connect 95 0 105 0;
#X connect 95 0 106 0;
#X connect 95 0 116 0;
#X connect 96 0 107 0;
#X connect 96 0 11 0;
#X connect 97 0 108 0;
#X connect 97 0 10 0;
#X connect 98 0 110 0;
#X connect 98 0 9 0;
#X connect 99 0 69 0;
#X connect 99 0 113 0;
#X connect 100 0 68 0;
#X connect 101 0 10 0;
#X connect 102 0 11 0;
#X connect 103 0 9 0;
#X connect 104 0 100 0;
#X connect 105 0 99 0;
#X connect 106 0 70 0;
#X connect 116 0 80 0;
#X coords 0 -1 1 1 140 120 1 -400 220;
