#N canvas 0 0 450 300 10;
#X obj 16 54 delwrite~ \$0-delay1 500;
#X obj 14 12 inlet~;
#X text 64 9 signal;
#X floatatom 222 90 5 0 0 0 - - -;
#X msg 221 67 1;
#X obj 222 39 loadbang;
#X obj 210 16 inlet;
#X obj 223 132 outlet~;
#X obj 223 110 delread~ \$0-delay1;
#X connect 1 0 0 0;
#X connect 3 0 8 0;
#X connect 4 0 3 0;
#X connect 5 0 4 0;
#X connect 6 0 3 0;
#X connect 8 0 7 0;
