#N canvas 434 92 583 596 8;
#X obj 77 504 hip~ 5;
#X floatatom 77 98 0 0 0 0 - - -;
#X obj 142 370 *~;
#X obj 250 301 line~;
#X floatatom 250 93 0 0 0 0 - - -;
#X obj 250 275 pack 0 200;
#X obj 250 114 moses 1;
#X msg 250 136 1;
#X obj 250 71 r window;
#X obj 77 72 r transpose;
#X obj 77 154 exp;
#X floatatom 77 180 0 0 0 0 - - -;
#X obj 77 270 /;
#X obj 204 200 * 0.001;
#X obj 372 377 line~;
#X obj 373 349 pack 0 200;
#X floatatom 373 269 0 0 0 0 - - -;
#X text 372 213 delay (msec);
#X obj 373 243 r delay;
#X obj 142 396 +~;
#X msg 373 322 1;
#X obj 373 296 moses 1.5;
#X obj 77 421 cos~;
#X obj 77 448 *~;
#X obj 77 477 +~;
#X obj 164 328 wrap~;
#X obj 309 371 *~;
#X obj 309 404 +~;
#X obj 246 431 cos~;
#X obj 246 458 *~;
#X obj 204 227 t b f;
#X floatatom 77 296 0 0 0 0 - - -;
#X obj 77 323 phasor~ 0;
#X obj 164 301 +~ 0.5;
#X obj 77 369 -~ 0.5;
#X obj 77 395 *~ 0.5;
#X obj 246 370 -~ 0.5;
#X obj 246 403 *~ 0.5;
#X floatatom 250 158 0 0 0 0 - - -;
#X obj 77 207 - 1;
#X obj 77 128 * 0.05776;
#X obj 77 233 * -1;
#X text 111 97 <-- transposition;
#X text 154 110 (halftones);
#X text 144 188 speed;
#X text 143 202 change;
#X text 294 86 <--window (msec);
#X text 112 263 tape head;
#X text 113 276 rotation speed;
#X obj 12 38 delwrite~ \$0-tapedelay 5000;
#X obj 143 423 vd~ \$0-tapedelay;
#X obj 309 433 vd~ \$0-tapedelay;
#X obj 13 12 inlet~;
#X obj 82 535 outlet~;
#X obj 241 4 inlet;
#X obj 460 17 loadbang;
#X msg 460 43 \; transpose 0 \; window 30 \; delay 0;
#X obj 241 23 int;
#X obj 244 44 hsl 128 15 -32 32 0 0 empty empty empty -2 -6 0 8 -262144
-1 -1 8731 1;
#X text 282 44 transposition;
#X msg 356 16 0;
#X obj 454 104 OSCroute /pitch;
#X floatatom 253 46 5 0 0 0 - - -;
#X obj 529 8 inlet;
#X obj 453 147 - 60;
#X floatatom 452 179 5 0 0 0 - - -;
#X msg 500 173 60;
#X floatatom 493 128 5 0 0 0 - - -;
#X obj 453 127 int;
#X floatatom 503 146 5 0 0 0 - - -;
#X connect 0 0 53 0;
#X connect 1 0 40 0;
#X connect 2 0 19 0;
#X connect 3 0 2 1;
#X connect 3 0 26 1;
#X connect 4 0 6 0;
#X connect 5 0 3 0;
#X connect 6 0 7 0;
#X connect 6 1 38 0;
#X connect 7 0 38 0;
#X connect 8 0 4 0;
#X connect 9 0 1 0;
#X connect 10 0 11 0;
#X connect 11 0 39 0;
#X connect 12 0 31 0;
#X connect 13 0 30 0;
#X connect 14 0 19 1;
#X connect 14 0 27 1;
#X connect 15 0 14 0;
#X connect 16 0 21 0;
#X connect 18 0 16 0;
#X connect 19 0 50 0;
#X connect 20 0 15 0;
#X connect 21 0 20 0;
#X connect 21 1 15 0;
#X connect 22 0 23 0;
#X connect 23 0 24 0;
#X connect 24 0 0 0;
#X connect 25 0 26 0;
#X connect 25 0 36 0;
#X connect 26 0 27 0;
#X connect 27 0 51 0;
#X connect 28 0 29 0;
#X connect 29 0 24 1;
#X connect 30 0 12 0;
#X connect 30 1 12 1;
#X connect 31 0 32 0;
#X connect 32 0 2 0;
#X connect 32 0 34 0;
#X connect 32 0 33 0;
#X connect 33 0 25 0;
#X connect 34 0 35 0;
#X connect 35 0 22 0;
#X connect 36 0 37 0;
#X connect 37 0 28 0;
#X connect 38 0 5 0;
#X connect 38 0 13 0;
#X connect 39 0 41 0;
#X connect 40 0 10 0;
#X connect 41 0 12 0;
#X connect 50 0 23 1;
#X connect 51 0 29 1;
#X connect 52 0 49 0;
#X connect 54 0 57 0;
#X connect 55 0 56 0;
#X connect 55 0 60 0;
#X connect 55 0 66 0;
#X connect 57 0 58 0;
#X connect 58 0 1 0;
#X connect 58 0 62 0;
#X connect 60 0 58 0;
#X connect 61 0 67 0;
#X connect 61 0 68 0;
#X connect 63 0 61 0;
#X connect 64 0 58 0;
#X connect 64 0 65 0;
#X connect 66 0 64 1;
#X connect 68 0 64 0;
#X connect 68 0 69 0;
#X coords 0 -1 1 1 150 25 1 230 40;
