#N canvas 815 526 488 388 10;
#X obj 48 205 spigot;
#X obj 79 182 tgl 15 0 empty empty empty 17 7 0 10 -262144 -1 -1 1
1;
#X msg 49 145 1;
#X msg 77 144 0;
#X obj 73 118 delay 1000;
#X obj 77 96 bng 15 250 50 0 empty empty empty 17 7 0 10 -262144 -1
-1;
#X obj 66 303 translateXYZ;
#X obj 48 228 rotateXYZ;
#X obj 64 45 inlet;
#X obj 74 250 random \$1;
#X obj 103 269 random \$1;
#X obj 20 30 inlet;
#X text 17 11 gemhead;
#X text 69 29 osc beat;
#X floatatom 228 189 0 0 0 0 - - -;
#X msg 171 140 bang;
#X obj 228 164 + 1;
#X obj 171 165 float;
#X obj 230 221 + \$2;
#X obj 54 336 outlet;
#X connect 0 0 7 0;
#X connect 1 0 0 1;
#X connect 2 0 1 0;
#X connect 3 0 1 0;
#X connect 4 0 3 0;
#X connect 5 0 4 0;
#X connect 5 0 9 0;
#X connect 5 0 10 0;
#X connect 5 0 15 0;
#X connect 6 0 19 0;
#X connect 7 0 6 0;
#X connect 8 0 2 0;
#X connect 8 0 5 0;
#X connect 9 0 6 1;
#X connect 10 0 6 2;
#X connect 11 0 0 0;
#X connect 14 0 18 0;
#X connect 15 0 17 0;
#X connect 16 0 14 0;
#X connect 16 0 17 1;
#X connect 17 0 16 0;
#X connect 18 0 7 3;
