#N canvas 280 35 578 520 10;
#X floatatom 190 47 5 0 0 0 - - -;
#X msg 52 266 0 0 \$1;
#X floatatom 52 245 5 0 0 0 - - -;
#X text 28 224 Input: Height;
#X floatatom 141 177 5 0 0 0 - - -;
#X text 124 158 Input: Radius;
#X msg 141 198 \$1 0 0;
#X msg 107 356 1;
#X obj 107 332 loadbang;
#X msg 347 280 1;
#X obj 347 256 loadbang;
#X obj 394 39 cnv 15 100 60 empty empty empty 20 12 0 14 -195568 -66577
0;
#N canvas 609 24 559 396 gemwin 0;
#X obj 132 136 gemwin;
#X obj 67 89 outlet;
#X obj 67 10 inlet;
#X obj 67 41 route create;
#X msg 67 70 set destroy;
#X msg 142 68 set create;
#X msg 198 112 destroy;
#X obj 75 134 tgl 15 0 empty empty empty 0 -6 0 8 -262144 -1 -1 0 1
;
#X obj 313 45 gemhead;
#X obj 313 73 world_light;
#X msg 319 120 lighting \$1;
#X obj 319 100 tgl 15 0 empty empty empty 0 -6 0 8 -262144 -1 -1 0
1;
#N canvas 613 126 652 629 mouse3d 0;
#X obj 240 143 f;
#X obj 161 124 spigot;
#X obj 222 115 sel 0 1;
#X obj 192 96 t f f;
#X obj 161 172 -;
#X obj 158 211 +;
#X obj 222 185 f;
#X obj 114 140 f;
#X obj 35 121 spigot;
#X obj 96 112 sel 0 1;
#X obj 66 93 t f f;
#X obj 35 172 -;
#X obj 35 221 +;
#X obj 96 182 f;
#X obj 361 134 f;
#X obj 282 118 spigot;
#X obj 343 109 sel 0 1;
#X obj 313 90 t f f;
#X obj 282 169 -;
#X obj 343 179 f;
#X obj 35 437 * 4;
#X obj 90 439 * 4;
#X obj 111 280 t b f;
#X obj 49 344 cos;
#X obj 61 402 * 1;
#X obj 35 402 * 1;
#X obj 87 345 sin;
#X obj 62 438 * 4;
#X obj 49 366 t b f;
#X obj 49 320 / 200;
#X obj 413 21 gemmouse;
#X obj 392 217 t b f;
#X obj 392 246 |;
#X obj 364 322 gemhead;
#X obj 368 275 loadbang;
#X msg 364 297 0;
#X obj 364 397 curve 2;
#X obj 364 348 color 1 0 0;
#X obj 448 322 gemhead;
#X obj 448 397 curve 2;
#X obj 528 324 gemhead;
#X obj 528 399 curve 2;
#X msg 401 371 3 0 0;
#X msg 485 371 0 3 0;
#X msg 565 373 0 0 3;
#X obj 448 348 color 0 1 0;
#X obj 528 348 color 0 0 1;
#X obj 35 280 sin;
#X obj 61 281 cos;
#X obj 282 218 + 200;
#X obj 112 254 / 50;
#X floatatom 238 434 5 0 0 0 - - -;
#X floatatom 169 436 5 0 0 0 - - -;
#X obj 35 255 / -200;
#X obj 35 522 outlet;
#X obj 197 283 t f f;
#X obj 227 307 <= 314;
#X obj 35 461 pack f f f f;
#X msg 35 486 view \$1 \$2 \$3 0 0 0 0 \$4 0;
#X obj 227 329 select 1;
#X msg 226 350 1;
#X msg 278 350 -1;
#X text 237 450 mouseY;
#X text 166 451 mouseX;
#X connect 0 0 4 1;
#X connect 1 0 4 0;
#X connect 2 0 6 0;
#X connect 2 1 0 0;
#X connect 3 0 1 1;
#X connect 3 1 2 0;
#X connect 4 0 5 0;
#X connect 5 0 6 1;
#X connect 5 0 29 0;
#X connect 5 0 55 0;
#X connect 6 0 5 1;
#X connect 7 0 11 1;
#X connect 8 0 11 0;
#X connect 9 0 13 0;
#X connect 9 1 7 0;
#X connect 10 0 8 1;
#X connect 10 1 9 0;
#X connect 11 0 12 0;
#X connect 12 0 13 1;
#X connect 12 0 52 0;
#X connect 12 0 53 0;
#X connect 13 0 12 1;
#X connect 14 0 18 1;
#X connect 15 0 18 0;
#X connect 16 0 19 0;
#X connect 16 1 14 0;
#X connect 17 0 15 1;
#X connect 17 1 16 0;
#X connect 18 0 49 0;
#X connect 19 0 49 1;
#X connect 20 0 57 0;
#X connect 21 0 57 2;
#X connect 22 0 21 0;
#X connect 22 0 20 0;
#X connect 22 0 27 0;
#X connect 22 1 21 1;
#X connect 22 1 20 1;
#X connect 22 1 27 1;
#X connect 23 0 28 0;
#X connect 24 0 21 0;
#X connect 25 0 20 0;
#X connect 26 0 27 0;
#X connect 27 0 57 1;
#X connect 28 0 24 0;
#X connect 28 0 25 0;
#X connect 28 1 24 1;
#X connect 28 1 25 1;
#X connect 29 0 23 0;
#X connect 29 0 26 0;
#X connect 30 0 8 0;
#X connect 30 0 7 1;
#X connect 30 1 1 0;
#X connect 30 1 0 1;
#X connect 30 1 14 1;
#X connect 30 1 15 0;
#X connect 30 2 3 0;
#X connect 30 2 10 0;
#X connect 30 2 32 0;
#X connect 30 3 17 0;
#X connect 30 3 31 0;
#X connect 31 0 32 0;
#X connect 31 1 32 1;
#X connect 32 0 33 0;
#X connect 32 0 38 0;
#X connect 32 0 40 0;
#X connect 33 0 37 0;
#X connect 34 0 35 0;
#X connect 34 0 42 0;
#X connect 34 0 43 0;
#X connect 34 0 44 0;
#X connect 34 0 53 0;
#X connect 34 0 49 0;
#X connect 35 0 33 0;
#X connect 35 0 38 0;
#X connect 35 0 40 0;
#X connect 37 0 36 0;
#X connect 38 0 45 0;
#X connect 40 0 46 0;
#X connect 42 0 36 2;
#X connect 43 0 39 2;
#X connect 44 0 41 2;
#X connect 45 0 39 0;
#X connect 46 0 41 0;
#X connect 47 0 25 0;
#X connect 48 0 24 0;
#X connect 49 0 19 1;
#X connect 49 0 50 0;
#X connect 50 0 22 0;
#X connect 53 0 47 0;
#X connect 53 0 48 0;
#X connect 55 0 51 0;
#X connect 55 1 56 0;
#X connect 56 0 59 0;
#X connect 57 0 58 0;
#X connect 58 0 54 0;
#X connect 59 0 60 0;
#X connect 59 1 61 0;
#X connect 60 0 57 3;
#X connect 61 0 57 3;
#X restore 313 19 pd mouse3d;
#X msg 143 223 frame \$1;
#X floatatom 162 198 5 0 0 0 - - -;
#X msg 252 166 view 0 0 4 0 0 0 0 1 0;
#X msg 257 142 view 0 0 -4 0 0 0 0 1 0;
#X obj 173 22 inlet;
#X obj 243 20 inlet;
#X floatatom 230 240 5 0 0 0 - - -;
#X floatatom 348 192 5 0 0 0 - - -;
#X floatatom 285 213 5 0 0 0 - - -;
#X obj 285 232 t b f;
#X obj 417 267 select 1;
#X msg 417 289 1;
#X msg 468 289 -1;
#X obj 417 245 <= 0;
#X obj 346 228 t b f f;
#X obj 243 262 pack 0 0 0 0;
#X msg 243 316 view \$1 \$2 \$3 0 0 0 0 \$4 0;
#X msg 132 112 create;
#X connect 2 0 3 0;
#X connect 3 0 4 0;
#X connect 3 0 30 0;
#X connect 3 1 5 0;
#X connect 3 1 6 0;
#X connect 4 0 1 0;
#X connect 5 0 1 0;
#X connect 6 0 0 0;
#X connect 7 0 0 0;
#X connect 8 0 9 0;
#X connect 10 0 0 0;
#X connect 11 0 10 0;
#X connect 12 0 0 0;
#X connect 13 0 0 0;
#X connect 14 0 13 0;
#X connect 15 0 0 0;
#X connect 16 0 0 0;
#X connect 17 0 0 0;
#X connect 18 0 13 0;
#X connect 19 0 28 0;
#X connect 20 0 27 0;
#X connect 21 0 22 0;
#X connect 22 0 28 0;
#X connect 22 1 28 1;
#X connect 23 0 24 0;
#X connect 23 1 25 0;
#X connect 24 0 28 3;
#X connect 25 0 28 3;
#X connect 26 0 23 0;
#X connect 27 0 28 0;
#X connect 27 1 28 2;
#X connect 27 2 26 0;
#X connect 28 0 29 0;
#X connect 29 0 0 0;
#X connect 30 0 0 0;
#X restore 395 84 pd gemwin;
#X msg 395 60 create;
#X text 395 38 Create window:;
#X obj 492 238 s again;
#X obj 114 91 r again;
#X obj 433 201 repeat 20;
#X obj 490 177 r steps;
#X obj 173 76 s steps;
#X obj 239 60 t f f;
#X obj 433 225 t b a b;
#X obj 52 140 loadbang;
#X msg 52 164 1;
#X obj 52 188 t f f;
#X text 148 27 # of steps/slices;
#X obj 433 121 tgl 15 0 empty empty empty 0 -6 0 8 -262144 -1 -1 0
1;
#N canvas 0 22 664 510 lDelayOne 0;
#X obj 393 41 inlet;
#X obj 296 139 i 0;
#X obj 331 141 + 1;
#X obj 127 50 i 0;
#X obj 162 52 + 1;
#X obj 127 75 pack 0 1 2;
#X msg 127 24 bang;
#X msg 379 298 print;
#X obj 295 165 select 3;
#X msg 32 119 clear;
#X msg 32 87 0;
#X msg 30 67 bang;
#X obj 173 167 spigot;
#X msg 293 192 1;
#X msg 236 239 rewind;
#X msg 189 227 this;
#X msg 128 225 delete;
#X obj 426 435 print current;
#X obj 224 107 t b a b;
#X obj 426 382 r \$0-msgfile;
#X obj 277 380 s \$0-msgfile;
#X obj 426 408 msgfile;
#X obj 500 409 print msg;
#X obj 151 205 t b b b;
#X text 23 44 Reset all;
#X obj 224 81 inlet;
#X text 182 23 Test data;
#X msg 321 107 0;
#X msg 293 240 add \$1 \$2 \$3;
#X obj 32 144 s \$0-msgfile;
#X obj 341 435 outlet;
#X obj 28 13 loadbang;
#X obj 394 65 t b b f;
#X connect 0 0 32 0;
#X connect 1 0 2 0;
#X connect 1 0 8 0;
#X connect 2 0 1 1;
#X connect 3 0 4 0;
#X connect 3 0 5 0;
#X connect 4 0 3 1;
#X connect 5 0 18 0;
#X connect 6 0 3 0;
#X connect 7 0 20 0;
#X connect 8 0 13 0;
#X connect 9 0 29 0;
#X connect 10 0 9 0;
#X connect 10 0 3 1;
#X connect 10 0 12 1;
#X connect 10 0 1 1;
#X connect 11 0 10 0;
#X connect 12 0 23 0;
#X connect 13 0 12 1;
#X connect 14 0 20 0;
#X connect 15 0 20 0;
#X connect 16 0 20 0;
#X connect 18 0 12 0;
#X connect 18 1 28 0;
#X connect 18 2 1 0;
#X connect 19 0 21 0;
#X connect 21 0 30 0;
#X connect 23 0 16 0;
#X connect 23 1 15 0;
#X connect 23 2 14 0;
#X connect 25 0 18 0;
#X connect 27 0 1 1;
#X connect 28 0 20 0;
#X connect 31 0 10 0;
#X connect 32 0 27 0;
#X connect 32 1 10 0;
#X connect 32 2 8 1;
#X restore 49 376 pd lDelayOne;
#N canvas 0 22 660 506 lDelayTwo 0;
#X obj 393 41 inlet;
#X obj 296 139 i 0;
#X obj 331 141 + 1;
#X obj 127 50 i 0;
#X obj 162 52 + 1;
#X obj 127 75 pack 0 1 2;
#X msg 127 24 bang;
#X msg 379 298 print;
#X obj 295 165 select 3;
#X msg 29 153 clear;
#X msg 29 121 0;
#X msg 27 101 bang;
#X obj 173 167 spigot;
#X msg 293 192 1;
#X msg 236 239 rewind;
#X msg 189 227 this;
#X msg 128 225 delete;
#X obj 426 435 print current;
#X obj 224 107 t b a b;
#X obj 426 408 msgfile;
#X obj 500 409 print msg;
#X obj 151 205 t b b b;
#X text 20 78 Reset all;
#X obj 224 81 inlet;
#X text 182 23 Test data;
#X msg 321 107 0;
#X msg 293 239 add \$1 \$2 \$3;
#X obj 341 435 outlet;
#X obj 277 380 s \$0-msgfile2;
#X obj 426 382 r \$0-msgfile2;
#X obj 29 178 s \$0-msgfile2;
#X obj 17 55 loadbang;
#X obj 394 65 t b b f;
#X connect 0 0 32 0;
#X connect 1 0 2 0;
#X connect 1 0 8 0;
#X connect 2 0 1 1;
#X connect 3 0 4 0;
#X connect 3 0 5 0;
#X connect 4 0 3 1;
#X connect 5 0 18 0;
#X connect 6 0 3 0;
#X connect 7 0 28 0;
#X connect 8 0 13 0;
#X connect 9 0 30 0;
#X connect 10 0 9 0;
#X connect 10 0 3 1;
#X connect 10 0 12 1;
#X connect 10 0 1 1;
#X connect 11 0 10 0;
#X connect 12 0 21 0;
#X connect 13 0 12 1;
#X connect 14 0 28 0;
#X connect 15 0 28 0;
#X connect 16 0 28 0;
#X connect 18 0 12 0;
#X connect 18 1 26 0;
#X connect 18 2 1 0;
#X connect 19 0 27 0;
#X connect 21 0 16 0;
#X connect 21 1 15 0;
#X connect 21 2 14 0;
#X connect 23 0 18 0;
#X connect 25 0 1 1;
#X connect 26 0 28 0;
#X connect 29 0 19 0;
#X connect 31 0 11 0;
#X connect 32 0 11 0;
#X connect 32 1 25 0;
#X connect 32 2 8 1;
#X restore 289 299 pd lDelayTwo;
#X obj 433 177 ortho;
#X floatatom 518 54 5 0 0 0 - - -;
#X obj 505 28 tgl 15 0 empty empty empty 0 -6 0 8 -262144 -1 -1 0 1
;
#X obj 433 153 gemhead 20;
#X obj 217 240 t l l l;
#X obj 183 327 t l l;
#X obj 217 216 vecRotator;
#X obj 168 109 clock_linear;
#X obj 240 140 genop;
#X obj 287 395 vtx4Output;
#X obj 50 309 vecTranslator;
#X obj 287 449 rotateXYZ;
#X floatatom 300 421 5 0 0 0 - - -;
#X floatatom 347 420 5 0 0 0 - - -;
#X floatatom 364 450 5 0 0 0 - - -;
#X text 394 425 <-- for fun;
#X connect 0 0 20 0;
#X connect 1 0 39 1;
#X connect 2 0 1 0;
#X connect 4 0 6 0;
#X connect 6 0 35 0;
#X connect 7 0 27 1;
#X connect 8 0 7 0;
#X connect 9 0 28 1;
#X connect 10 0 9 0;
#X connect 12 0 13 0;
#X connect 13 0 12 0;
#X connect 16 0 36 0;
#X connect 17 0 21 0;
#X connect 18 0 17 1;
#X connect 20 0 19 0;
#X connect 20 1 36 1;
#X connect 21 1 38 0;
#X connect 21 2 15 0;
#X connect 22 0 23 0;
#X connect 23 0 24 0;
#X connect 24 0 1 0;
#X connect 24 1 6 0;
#X connect 26 0 32 0;
#X connect 27 0 38 2;
#X connect 28 0 38 1;
#X connect 29 0 17 0;
#X connect 30 0 12 2;
#X connect 31 0 12 1;
#X connect 32 0 29 0;
#X connect 33 0 38 4;
#X connect 33 1 28 0;
#X connect 33 2 39 0;
#X connect 34 0 38 3;
#X connect 34 1 27 0;
#X connect 35 0 33 0;
#X connect 36 0 37 0;
#X connect 37 0 35 2;
#X connect 38 0 40 0;
#X connect 39 0 34 0;
#X connect 41 0 40 1;
#X connect 42 0 40 2;
#X connect 43 0 40 3;
