#N canvas 304 61 632 617 10;
#X floatatom 269 28 5 0 0 0 - - -;
#X obj 58 66 bng 15 250 50 0 empty empty empty 0 -6 0 8 -262144 -1
-1;
#X msg 39 247 0 0 \$1;
#X floatatom 39 226 5 0 0 0 - - -;
#X text 15 205 Input: Height;
#X floatatom 223 147 5 0 0 0 - - -;
#X text 206 129 Input: Radius;
#X msg 223 168 \$1 0 0;
#X msg 149 411 1;
#X obj 149 387 loadbang;
#X msg 458 404 1;
#X obj 458 380 loadbang;
#X obj 432 23 cnv 15 100 60 empty empty empty 20 12 0 14 -195568 -66577
0;
#N canvas 609 24 559 396 gemwin 0;
#X obj 132 136 gemwin;
#X obj 67 89 outlet;
#X obj 67 10 inlet;
#X obj 67 41 route create;
#X msg 67 70 set destroy;
#X msg 142 68 set create;
#X msg 198 112 destroy;
#X obj 75 134 tgl 15 0 empty empty empty 0 -6 0 8 -262144 -1 -1 0 1
;
#X obj 313 45 gemhead;
#X obj 313 73 world_light;
#X msg 319 120 lighting \$1;
#X obj 319 100 tgl 15 0 empty empty empty 0 -6 0 8 -262144 -1 -1 0
1;
#N canvas 613 126 652 629 mouse3d 0;
#X obj 240 143 f;
#X obj 161 124 spigot;
#X obj 222 115 sel 0 1;
#X obj 192 96 t f f;
#X obj 161 172 -;
#X obj 158 211 +;
#X obj 222 185 f;
#X obj 114 140 f;
#X obj 35 121 spigot;
#X obj 96 112 sel 0 1;
#X obj 66 93 t f f;
#X obj 35 172 -;
#X obj 35 221 +;
#X obj 96 182 f;
#X obj 361 134 f;
#X obj 282 118 spigot;
#X obj 343 109 sel 0 1;
#X obj 313 90 t f f;
#X obj 282 169 -;
#X obj 343 179 f;
#X obj 35 437 * 4;
#X obj 90 439 * 4;
#X obj 111 280 t b f;
#X obj 49 344 cos;
#X obj 61 402 * 1;
#X obj 35 402 * 1;
#X obj 87 345 sin;
#X obj 62 438 * 4;
#X obj 49 366 t b f;
#X obj 49 320 / 200;
#X obj 413 21 gemmouse;
#X obj 392 217 t b f;
#X obj 392 246 |;
#X obj 364 322 gemhead;
#X obj 368 275 loadbang;
#X msg 364 297 0;
#X obj 364 397 curve 2;
#X obj 364 348 color 1 0 0;
#X obj 448 322 gemhead;
#X obj 448 397 curve 2;
#X obj 528 324 gemhead;
#X obj 528 399 curve 2;
#X msg 401 371 3 0 0;
#X msg 485 371 0 3 0;
#X msg 565 373 0 0 3;
#X obj 448 348 color 0 1 0;
#X obj 528 348 color 0 0 1;
#X obj 35 280 sin;
#X obj 61 281 cos;
#X obj 282 218 + 200;
#X obj 112 254 / 50;
#X floatatom 238 434 5 0 0 0 - - -;
#X floatatom 169 436 5 0 0 0 - - -;
#X obj 35 255 / -200;
#X obj 35 522 outlet;
#X obj 197 283 t f f;
#X obj 227 307 <= 314;
#X obj 35 461 pack f f f f;
#X msg 35 486 view \$1 \$2 \$3 0 0 0 0 \$4 0;
#X obj 227 329 select 1;
#X msg 226 350 1;
#X msg 278 350 -1;
#X text 237 450 mouseY;
#X text 166 451 mouseX;
#X connect 0 0 4 1;
#X connect 1 0 4 0;
#X connect 2 0 6 0;
#X connect 2 1 0 0;
#X connect 3 0 1 1;
#X connect 3 1 2 0;
#X connect 4 0 5 0;
#X connect 5 0 6 1;
#X connect 5 0 29 0;
#X connect 5 0 55 0;
#X connect 6 0 5 1;
#X connect 7 0 11 1;
#X connect 8 0 11 0;
#X connect 9 0 13 0;
#X connect 9 1 7 0;
#X connect 10 0 8 1;
#X connect 10 1 9 0;
#X connect 11 0 12 0;
#X connect 12 0 13 1;
#X connect 12 0 52 0;
#X connect 12 0 53 0;
#X connect 13 0 12 1;
#X connect 14 0 18 1;
#X connect 15 0 18 0;
#X connect 16 0 19 0;
#X connect 16 1 14 0;
#X connect 17 0 15 1;
#X connect 17 1 16 0;
#X connect 18 0 49 0;
#X connect 19 0 49 1;
#X connect 20 0 57 0;
#X connect 21 0 57 2;
#X connect 22 0 21 0;
#X connect 22 0 20 0;
#X connect 22 0 27 0;
#X connect 22 1 21 1;
#X connect 22 1 20 1;
#X connect 22 1 27 1;
#X connect 23 0 28 0;
#X connect 24 0 21 0;
#X connect 25 0 20 0;
#X connect 26 0 27 0;
#X connect 27 0 57 1;
#X connect 28 0 24 0;
#X connect 28 0 25 0;
#X connect 28 1 24 1;
#X connect 28 1 25 1;
#X connect 29 0 23 0;
#X connect 29 0 26 0;
#X connect 30 0 8 0;
#X connect 30 0 7 1;
#X connect 30 1 1 0;
#X connect 30 1 0 1;
#X connect 30 1 14 1;
#X connect 30 1 15 0;
#X connect 30 2 3 0;
#X connect 30 2 10 0;
#X connect 30 2 32 0;
#X connect 30 3 17 0;
#X connect 30 3 31 0;
#X connect 31 0 32 0;
#X connect 31 1 32 1;
#X connect 32 0 33 0;
#X connect 32 0 38 0;
#X connect 32 0 40 0;
#X connect 33 0 37 0;
#X connect 34 0 35 0;
#X connect 34 0 42 0;
#X connect 34 0 43 0;
#X connect 34 0 44 0;
#X connect 34 0 53 0;
#X connect 34 0 49 0;
#X connect 35 0 33 0;
#X connect 35 0 38 0;
#X connect 35 0 40 0;
#X connect 37 0 36 0;
#X connect 38 0 45 0;
#X connect 40 0 46 0;
#X connect 42 0 36 2;
#X connect 43 0 39 2;
#X connect 44 0 41 2;
#X connect 45 0 39 0;
#X connect 46 0 41 0;
#X connect 47 0 25 0;
#X connect 48 0 24 0;
#X connect 49 0 19 1;
#X connect 49 0 50 0;
#X connect 50 0 22 0;
#X connect 53 0 47 0;
#X connect 53 0 48 0;
#X connect 55 0 51 0;
#X connect 55 1 56 0;
#X connect 56 0 59 0;
#X connect 57 0 58 0;
#X connect 58 0 54 0;
#X connect 59 0 60 0;
#X connect 59 1 61 0;
#X connect 60 0 57 3;
#X connect 61 0 57 3;
#X restore 313 19 pd mouse3d;
#X msg 143 223 frame \$1;
#X floatatom 162 198 5 0 0 0 - - -;
#X msg 252 166 view 0 0 4 0 0 0 0 1 0;
#X msg 257 142 view 0 0 -4 0 0 0 0 1 0;
#X obj 173 22 inlet;
#X obj 243 20 inlet;
#X floatatom 230 240 5 0 0 0 - - -;
#X floatatom 348 192 5 0 0 0 - - -;
#X floatatom 285 213 5 0 0 0 - - -;
#X obj 285 232 t b f;
#X obj 417 267 select 1;
#X msg 417 289 1;
#X msg 468 289 -1;
#X obj 417 245 <= 0;
#X obj 346 228 t b f f;
#X obj 243 262 pack 0 0 0 0;
#X msg 243 316 view \$1 \$2 \$3 0 0 0 0 \$4 0;
#X msg 132 112 create;
#X connect 2 0 3 0;
#X connect 3 0 4 0;
#X connect 3 0 30 0;
#X connect 3 1 5 0;
#X connect 3 1 6 0;
#X connect 4 0 1 0;
#X connect 5 0 1 0;
#X connect 6 0 0 0;
#X connect 7 0 0 0;
#X connect 8 0 9 0;
#X connect 10 0 0 0;
#X connect 11 0 10 0;
#X connect 12 0 0 0;
#X connect 13 0 0 0;
#X connect 14 0 13 0;
#X connect 15 0 0 0;
#X connect 16 0 0 0;
#X connect 17 0 0 0;
#X connect 18 0 13 0;
#X connect 19 0 28 0;
#X connect 20 0 27 0;
#X connect 21 0 22 0;
#X connect 22 0 28 0;
#X connect 22 1 28 1;
#X connect 23 0 24 0;
#X connect 23 1 25 0;
#X connect 24 0 28 3;
#X connect 25 0 28 3;
#X connect 26 0 23 0;
#X connect 27 0 28 0;
#X connect 27 1 28 2;
#X connect 27 2 26 0;
#X connect 28 0 29 0;
#X connect 29 0 0 0;
#X connect 30 0 0 0;
#X restore 437 62 pd gemwin;
#X msg 437 43 create;
#X text 433 22 Create window:;
#N canvas 506 23 486 336 genop 0;
#X obj 101 41 inlet;
#X obj 103 88 unpack 0 0 0;
#X obj 144 248 outlet;
#X msg 144 209 0 0 \$1;
#X text 224 206 outputs 0 \, 0 \, (2pi)z;
#X obj 142 155 * 6.28319;
#X connect 0 0 1 0;
#X connect 1 2 5 0;
#X connect 3 0 2 0;
#X connect 5 0 3 0;
#X restore 373 134 pd genop;
#X msg 262 68 0;
#X obj 197 457 s again;
#X obj 22 88 r again;
#X obj 252 399 repeat 20;
#X obj 310 377 r steps;
#X obj 160 57 s steps;
#X obj 226 41 t f f;
#X obj 252 457 t b a b;
#X obj 366 570 rotateXYZ;
#X floatatom 390 551 5 0 0 0 - - -;
#X floatatom 437 550 5 0 0 0 - - -;
#X floatatom 437 571 5 0 0 0 - - -;
#X text 196 481 for fun;
#X obj 148 155 loadbang;
#X msg 148 174 1;
#X obj 152 203 t f f;
#N canvas 175 173 679 625 VecCtrlRot 0;
#X floatatom 411 57 5 0 0 0 - - -;
#X floatatom 455 57 5 0 0 0 - - -;
#X floatatom 499 57 5 0 0 0 - - -;
#X obj 481 101 t b f;
#X obj 424 101 t b f;
#X obj 284 132 pack 0 0 0;
#X floatatom 248 57 5 0 0 0 - - -;
#X floatatom 292 57 5 0 0 0 - - -;
#X floatatom 336 57 5 0 0 0 - - -;
#X obj 341 104 t b f;
#X obj 284 104 t b f;
#X text 262 37 (X1 \, Y1 \, Z1);
#X text 432 40 (X2 \, Y2 \, Z2);
#X floatatom 5 67 5 0 0 0 - - -;
#X floatatom 48 67 5 0 0 0 - - -;
#X floatatom 92 67 5 0 0 0 - - -;
#X obj 97 114 t b f;
#X obj 40 114 t b f;
#X text 44 25 point;
#X text 42 42 X Y Z;
#X obj 53 375 unpack s 0 0 0 0 0 0;
#X obj 189 505 pack 0 0 0;
#X text 329 7 arbitrary Axis input;
#X obj 181 78 loadbang;
#X msg 537 40 1;
#X obj 181 101 t b b b;
#X msg 217 40 0;
#X obj 424 125 pack 1 1 1;
#X floatatom 481 13 5 0 0 0 - - -;
#X msg 181 58 bang;
#X obj 53 352 mtx_*;
#X obj 271 161 s x1y1z1;
#X obj 411 161 s x2y2z2;
#X obj 57 304 t b a;
#X obj 23 327 mtx;
#X msg 137 33 0.5;
#X floatatom 137 53 5 0 0 0 - - -;
#X obj 289 392 t f f f;
#N canvas 400 22 742 699 transformation 0;
#X obj 57 624 outlet;
#X obj 57 244 mtx_*;
#X obj 57 320 mtx_*;
#X obj 57 425 mtx_*;
#X obj 57 485 mtx_*;
#X obj 57 538 mtx_*;
#X obj 57 593 mtx_*;
#N canvas 0 22 361 381 T- 0;
#X obj 138 250 matrix;
#X msg 18 108 eye 4;
#X msg 168 228 col 4 \$1 \$2 \$3 1;
#X obj 18 86 loadbang;
#X text 42 35 T( -x1 \, -y1 \, -z1 );
#X text 14 17 Translation Matrix to Origin;
#X obj 138 204 t b l;
#X obj 138 70 inlet X1Y1Z1;
#X obj 138 177 v* -1;
#X obj 138 273 outlet T;
#X connect 0 0 9 0;
#X connect 1 0 0 0;
#X connect 2 0 0 0;
#X connect 3 0 1 0;
#X connect 6 0 0 0;
#X connect 6 1 2 0;
#X connect 7 0 8 0;
#X connect 8 0 6 0;
#X restore 57 172 pd T-;
#N canvas 284 22 455 344 RotY- 0;
#X text 24 27 Rotation Matrix Around Y-axis;
#X text 52 45 RotY( Yan \, y );
#X obj 88 243 outlet;
#X text 161 228 c 0 s 0;
#X text 161 243 0 1 0 0;
#X text 161 271 0 0 0 1;
#X text 154 257 -s 0 c 0;
#X obj 88 103 t f f;
#X obj 118 123 sin;
#X obj 88 123 cos;
#X obj 118 143 t f f;
#X obj 148 163 * -1;
#X obj 88 185 pack 0 0 0;
#X msg 88 207 matrix 4 4 \$1 0 \$2 0 0 1 0 0 \$3 0 \$1 0 0 0 0 1;
#X obj 88 58 inlet Yang;
#X obj 88 80 * -1;
#X connect 7 0 9 0;
#X connect 7 1 8 0;
#X connect 8 0 10 0;
#X connect 9 0 12 0;
#X connect 10 0 12 1;
#X connect 10 1 11 0;
#X connect 11 0 12 2;
#X connect 12 0 13 0;
#X connect 13 0 2 0;
#X connect 14 0 15 0;
#X connect 15 0 7 0;
#X restore 97 220 pd RotY-;
#N canvas 210 306 398 302 RotZ+ 0;
#X text 14 17 Rotation Matrix Around Z-axis;
#X obj 43 215 outlet;
#X text 96 255 0 0 0 1;
#X obj 43 67 t f f;
#X obj 73 87 sin;
#X obj 43 87 cos;
#X obj 73 107 t f f;
#X obj 103 127 * -1;
#X obj 43 149 pack 0 0 0;
#X text 96 212 c -s 0 0;
#X text 96 227 s c 0 0;
#X text 96 241 0 0 1 0;
#X msg 43 181 matrix 4 4 \$1 \$3 0 0 \$2 \$1 0 0 0 0 1 0 0 0 0 1;
#X obj 43 44 inlet Zang;
#X connect 3 0 5 0;
#X connect 3 1 4 0;
#X connect 4 0 6 0;
#X connect 5 0 8 0;
#X connect 6 0 8 1;
#X connect 6 1 7 0;
#X connect 7 0 8 2;
#X connect 8 0 12 0;
#X connect 12 0 1 0;
#X connect 13 0 3 0;
#X restore 97 298 pd RotZ+;
#N canvas 0 22 417 339 RotZ- 0;
#X text 14 17 Rotation Matrix Around Z-axis;
#X text 42 35 RotZ( -Zan \, x );
#X obj 54 280 outlet;
#X text 106 305 0 0 0 1;
#X obj 54 127 t f f;
#X obj 84 147 sin;
#X obj 54 147 cos;
#X obj 84 167 t f f;
#X obj 114 187 * -1;
#X obj 54 209 pack 0 0 0;
#X text 106 262 c -s 0 0;
#X text 106 277 s c 0 0;
#X text 106 291 0 0 1 0;
#X msg 54 241 matrix 4 4 \$1 \$3 0 0 \$2 \$1 0 0 0 0 1 0 0 0 0 1;
#X obj 54 100 * -1;
#X obj 54 61 inlet Zang;
#X connect 4 0 6 0;
#X connect 4 1 5 0;
#X connect 5 0 7 0;
#X connect 6 0 9 0;
#X connect 7 0 9 1;
#X connect 7 1 8 0;
#X connect 8 0 9 2;
#X connect 9 0 13 0;
#X connect 13 0 2 0;
#X connect 14 0 4 0;
#X connect 15 0 14 0;
#X restore 97 463 pd RotZ-;
#N canvas 289 63 459 325 RotX+ 0;
#X text 14 17 Rotation Matrix Around X-axis;
#X obj 60 247 outlet;
#X text 114 221 1 0 0 0;
#X text 115 249 0 s c 0;
#X text 115 264 0 0 0 1;
#X text 115 235 0 c -s 0;
#X obj 60 88 t f f;
#X obj 60 110 cos;
#X obj 90 110 sin;
#X obj 90 131 t f f;
#X obj 120 152 * -1;
#X obj 60 173 pack 0 0 0;
#X obj 60 62 inlet phi;
#X msg 60 198 matrix 4 4 1 0 0 0 0 \$1 \$3 0 0 \$2 \$1 0 0 0 0 1;
#X connect 6 0 7 0;
#X connect 6 1 8 0;
#X connect 7 0 11 0;
#X connect 8 0 9 0;
#X connect 9 0 11 1;
#X connect 9 1 10 0;
#X connect 10 0 11 2;
#X connect 11 0 13 0;
#X connect 12 0 6 0;
#X connect 13 0 1 0;
#X restore 137 395 pd RotX+;
#N canvas 193 258 450 312 RotY+ 0;
#X text 14 17 Rotation Matrix Around Y-axis;
#X text 42 35 RotY( Yan \, y );
#X obj 78 233 outlet;
#X obj 78 58 inlet;
#X text 151 218 c 0 s 0;
#X text 151 233 0 1 0 0;
#X text 151 261 0 0 0 1;
#X text 144 247 -s 0 c 0;
#X obj 78 93 t f f;
#X obj 108 113 sin;
#X obj 78 113 cos;
#X obj 108 133 t f f;
#X obj 138 153 * -1;
#X obj 78 175 pack 0 0 0;
#X msg 78 197 matrix 4 4 \$1 0 \$2 0 0 1 0 0 \$3 0 \$1 0 0 0 0 1;
#X connect 3 0 8 0;
#X connect 8 0 10 0;
#X connect 8 1 9 0;
#X connect 9 0 11 0;
#X connect 10 0 13 0;
#X connect 11 0 13 1;
#X connect 11 1 12 0;
#X connect 12 0 13 2;
#X connect 13 0 14 0;
#X connect 14 0 2 0;
#X restore 97 517 pd RotY+;
#N canvas 0 22 458 308 T+ 0;
#X msg 55 198 eye 4;
#X msg 189 198 col 4 \$1 \$2 \$3 1;
#X obj 55 176 loadbang;
#X text 162 75 T( x1 \, y1 \, z1 );
#X text 134 57 Translation Matrix to Start;
#X obj 159 127 inlet;
#X obj 159 251 outlet;
#X obj 159 230 mtx;
#X obj 159 147 t b l;
#X connect 0 0 7 0;
#X connect 1 0 7 0;
#X connect 2 0 0 0;
#X connect 5 0 8 0;
#X connect 7 0 6 0;
#X connect 8 0 7 0;
#X connect 8 1 1 0;
#X restore 97 570 pd T+;
#X obj 97 277 t f f;
#N canvas 173 159 397 342 vLength 0;
#X obj 21 119 mtx_-;
#X obj 21 145 t a a;
#X obj 51 167 mtx_transpose;
#X obj 21 191 mtx_*;
#X obj 21 244 sqrt;
#X msg 21 213 \$3;
#X msg 21 89 matrix 1 3 \$1 \$2 \$3;
#X msg 236 56 matrix 1 3 \$1 \$2 \$3;
#X obj 21 270 outlet;
#X obj 206 10 inlet X2Y2Z2;
#X obj 21 34 inlet X1Y1Z1;
#X obj 206 34 t b l;
#X obj 21 61 pack 0 0 0;
#X text 69 256 sqrt((x1-x2)^2+(y1-y2)^2+(z1-z2)^2);
#X connect 0 0 1 0;
#X connect 1 0 3 0;
#X connect 1 1 2 0;
#X connect 2 0 3 1;
#X connect 3 0 5 0;
#X connect 4 0 8 0;
#X connect 5 0 4 0;
#X connect 6 0 0 0;
#X connect 7 0 0 1;
#X connect 11 0 12 0;
#X connect 11 1 7 0;
#X connect 12 0 6 0;
#X restore 137 332 pd vLength;
#X obj 234 59 t l l l;
#X obj 79 15 inlet x1y1z1;
#X obj 204 14 inlet x2y2z2;
#X obj 97 200 t f f;
#X obj 57 145 t l l;
#X obj 79 39 t l l l l;
#N canvas 0 22 518 429 calcYang 0;
#X obj 62 80 unpack 0 0 0;
#X obj 260 75 unpack 0 0 0;
#X obj 62 138 -;
#X obj 309 180 -;
#X obj 293 228 /;
#X text 55 187 x2 - x1;
#X text 300 328 Yan;
#X obj 62 32 inlet;
#X obj 216 23 inlet;
#X text 57 12 X1Y1Z1;
#X text 214 3 X2Y2Z2;
#X text 321 200 z1 - z2;
#X text 302 271 (x2-x1)/(z1-z2);
#X obj 62 160 * -1;
#X obj 216 49 t b b l;
#X obj 293 307 outlet Yan;
#X connect 0 0 2 0;
#X connect 0 2 3 0;
#X connect 1 0 2 1;
#X connect 1 2 3 1;
#X connect 2 0 13 0;
#X connect 3 0 4 1;
#X connect 4 0 15 0;
#X connect 7 0 0 0;
#X connect 8 0 14 0;
#X connect 13 0 4 0;
#X connect 14 0 2 0;
#X connect 14 1 3 0;
#X connect 14 2 1 0;
#X restore 98 85 pd calcYang;
#N canvas 0 22 401 439 calcZang 0;
#X obj 69 44 inlet X1Y1Z1;
#X obj 164 44 inlet X2Y2Z2;
#X text 106 227 sqrt((x2-x1)^2+(z2-z1)^2);
#X text 103 315 (y2-y1)/sqrt((x2-x1)^2+(z2-z1)^2);
#X obj 215 137 -;
#X obj 69 137 -;
#X obj 69 161 t f f;
#X obj 69 183 *;
#X obj 117 138 -;
#X obj 117 162 t f f;
#X obj 117 184 *;
#X obj 69 205 +;
#X obj 69 225 sqrt;
#X obj 69 302 /;
#X obj 215 171 * -1;
#X obj 69 96 unpack 0 0 0;
#X obj 163 96 unpack 0 0 0;
#X msg 69 277 \$2 \$1;
#X obj 69 251 pack;
#X obj 164 74 t b l;
#X obj 69 354 outlet Zan;
#X connect 4 0 14 0;
#X connect 5 0 6 0;
#X connect 6 0 7 0;
#X connect 6 1 7 1;
#X connect 7 0 11 0;
#X connect 8 0 9 0;
#X connect 9 0 10 0;
#X connect 9 1 10 1;
#X connect 10 0 11 1;
#X connect 11 0 12 0;
#X connect 12 0 18 0;
#X connect 13 0 20 0;
#X connect 14 0 18 1;
#X connect 15 0 5 0;
#X connect 15 1 4 0;
#X connect 15 2 8 0;
#X connect 16 0 5 1;
#X connect 16 1 4 1;
#X connect 16 2 8 1;
#X connect 17 0 13 0;
#X connect 18 0 17 0;
#X connect 19 0 5 0;
#X connect 19 1 16 0;
#X restore 184 84 pd calcZang;
#X obj 57 124 pack 0 0 0;
#X obj 204 38 t b l;
#X text 117 630 the transformation matrix;
#X obj 158 373 deg2rad;
#X obj 158 353 * 90;
#X text 217 369 1unit ~ 90deg;
#X text 214 389 (just to make it more understandable);
#X obj 266 332 t f f;
#X obj 335 348 print vLength;
#X connect 1 0 2 0;
#X connect 2 0 3 0;
#X connect 3 0 4 0;
#X connect 4 0 5 0;
#X connect 5 0 6 0;
#X connect 6 0 0 0;
#X connect 7 0 1 0;
#X connect 8 0 1 1;
#X connect 9 0 2 1;
#X connect 10 0 4 1;
#X connect 11 0 3 1;
#X connect 12 0 5 1;
#X connect 13 0 6 1;
#X connect 14 0 9 0;
#X connect 14 1 10 0;
#X connect 15 0 11 0;
#X connect 16 0 22 1;
#X connect 16 1 23 1;
#X connect 16 2 15 1;
#X connect 19 0 8 0;
#X connect 19 1 12 0;
#X connect 20 0 7 0;
#X connect 20 1 13 0;
#X connect 21 0 24 0;
#X connect 21 1 22 0;
#X connect 21 2 23 0;
#X connect 21 3 15 0;
#X connect 22 0 19 0;
#X connect 23 0 14 0;
#X connect 24 0 20 0;
#X connect 25 0 24 0;
#X connect 25 1 16 0;
#X connect 28 0 27 0;
#X restore 53 264 pd transformation matrix;
#X floatatom 299 373 5 0 0 0 - - -;
#X obj 12 6 inlet;
#X obj 217 10 inlet;
#X obj 190 531 outlet;
#X obj 396 27 inlet;
#X text 325 247 Vector-Controlled Rotator (VCR);
#X obj 157 441 /;
#X obj 234 440 /;
#X obj 309 440 /;
#X text 336 433 coord divisor (x/w \, y/w \, z/w);
#N canvas 0 22 726 688 singleMatrix 0;
#X obj 112 18 inlet x1y1z1;
#X obj 297 12 inlet x2y2z2;
#N canvas 0 22 466 316 vLength 0;
#X obj 21 119 mtx_-;
#X obj 21 145 t a a;
#X obj 51 167 mtx_transpose;
#X obj 21 191 mtx_*;
#X obj 21 244 sqrt;
#X msg 21 213 \$3;
#X msg 21 89 matrix 1 3 \$1 \$2 \$3;
#X msg 236 56 matrix 1 3 \$1 \$2 \$3;
#X obj 21 270 outlet;
#X obj 206 10 inlet X2Y2Z2;
#X obj 21 34 inlet X1Y1Z1;
#X obj 206 34 t b l;
#X obj 21 61 pack 0 0 0;
#X text 69 256 sqrt((x1-x2)^2+(y1-y2)^2+(z1-z2)^2);
#X connect 0 0 1 0;
#X connect 1 0 3 0;
#X connect 1 1 2 0;
#X connect 2 0 3 1;
#X connect 3 0 5 0;
#X connect 4 0 8 0;
#X connect 5 0 4 0;
#X connect 6 0 0 0;
#X connect 7 0 0 1;
#X connect 11 0 12 0;
#X connect 11 1 7 0;
#X connect 12 0 6 0;
#X restore 112 61 pd vLength;
#X obj 137 228 t f f;
#X obj 137 255 cos;
#X obj 167 255 sin;
#X obj 59 295 -;
#X msg 25 261 1;
#X obj 82 256 t b f f;
#X floatatom 34 421 10 0 0 0 - - -;
#X floatatom 123 313 5 0 0 0 - - -;
#X text 21 296 (1-c);
#N canvas 0 22 470 320 c+(1-c)x^2 0;
#X obj 123 52 inlet;
#X obj 183 52 inlet;
#X obj 261 52 inlet;
#X text 264 28 x;
#X text 189 31 1-c;
#X text 136 31 c;
#X obj 261 75 t f f;
#X obj 265 99 *;
#X obj 123 131 +;
#X obj 183 115 *;
#X obj 123 165 outlet;
#X connect 0 0 8 0;
#X connect 1 0 9 0;
#X connect 2 0 6 0;
#X connect 6 0 7 0;
#X connect 6 1 7 1;
#X connect 7 0 9 1;
#X connect 8 0 10 0;
#X connect 9 0 8 1;
#X restore 234 394 pd c+(1-c)x^2;
#N canvas 0 22 462 312 (1-c)y*x-s*z 0;
#X obj 77 34 inlet;
#X obj 163 34 inlet;
#X obj 275 37 inlet;
#X text 77 14 (1-c);
#X text 281 14 s*z;
#X text 170 11 y*x;
#X obj 183 185 outlet;
#X obj 197 137 -;
#X obj 120 86 *;
#X connect 0 0 8 0;
#X connect 1 0 8 1;
#X connect 2 0 7 1;
#X connect 7 0 6 0;
#X connect 8 0 7 0;
#X restore 358 392 pd (1-c)y*x-s*z;
#N canvas 0 22 454 304 (1-c)z*x+s*y 0;
#X obj 158 206 outlet;
#X obj 55 38 inlet;
#X obj 166 38 inlet;
#X obj 292 36 inlet;
#X text 50 15 (1-c);
#X obj 128 82 *;
#X obj 173 137 +;
#X text 158 15 z*x;
#X text 290 16 s*y;
#X connect 1 0 5 0;
#X connect 2 0 5 1;
#X connect 3 0 6 1;
#X connect 5 0 6 0;
#X connect 6 0 0 0;
#X restore 486 391 pd (1-c)z*x+s*y;
#X floatatom 156 134 5 0 0 0 - - -;
#N canvas 0 22 462 312 (1-c)x*y+s*z 0;
#X obj 62 27 inlet;
#X obj 168 33 inlet;
#X obj 295 28 inlet;
#X obj 197 176 outlet;
#X text 57 10 (1-c);
#X text 166 12 x*y;
#X text 292 8 s*z;
#X obj 152 90 *;
#X obj 227 125 +;
#X connect 0 0 7 0;
#X connect 1 0 7 1;
#X connect 2 0 8 1;
#X connect 7 0 8 0;
#X connect 8 0 3 0;
#X restore 238 430 pd (1-c)x*y+s*z;
#N canvas 0 22 458 308 (1-c)x*z-s*y 0;
#X obj 62 27 inlet;
#X obj 168 33 inlet;
#X obj 295 28 inlet;
#X obj 197 176 outlet;
#X text 57 10 (1-c);
#X obj 152 90 *;
#X text 166 12 x*z;
#X obj 227 125 -;
#X text 292 8 s*y;
#X connect 0 0 5 0;
#X connect 1 0 5 1;
#X connect 2 0 7 1;
#X connect 5 0 7 0;
#X connect 7 0 3 0;
#X restore 205 476 pd (1-c)x*z-s*y;
#N canvas 0 22 454 304 (1-c)y*z+s*x 0;
#X obj 62 27 inlet;
#X obj 168 33 inlet;
#X obj 295 28 inlet;
#X obj 197 176 outlet;
#X text 57 10 (1-c);
#X obj 152 90 *;
#X obj 227 125 +;
#X text 166 12 y*z;
#X text 292 8 s*x;
#X connect 0 0 5 0;
#X connect 1 0 5 1;
#X connect 2 0 6 1;
#X connect 5 0 6 0;
#X connect 6 0 3 0;
#X restore 334 476 pd (1-c)y*z+s*x;
#N canvas 0 22 458 308 c 0;
#X obj 62 27 inlet;
#X obj 168 33 inlet;
#X obj 295 28 inlet;
#X obj 177 178 outlet;
#X text 165 12 (1-c);
#X text 73 9 c;
#X obj 159 138 +;
#X text 292 8 z*z;
#X obj 222 104 *;
#X obj 295 48 t f f;
#X obj 295 72 *;
#X connect 0 0 6 0;
#X connect 1 0 8 0;
#X connect 2 0 9 0;
#X connect 6 0 3 0;
#X connect 8 0 6 1;
#X connect 9 0 10 0;
#X connect 9 1 10 1;
#X connect 10 0 8 1;
#X restore 460 474 pd c + (1-c)z*z;
#N canvas 0 22 454 304 (1-c)z*y-s*x 0;
#X obj 62 27 inlet;
#X obj 168 33 inlet;
#X obj 295 28 inlet;
#X obj 197 176 outlet;
#X text 57 10 (1-c);
#X obj 152 90 *;
#X text 166 12 z*y;
#X text 292 8 s*x;
#X obj 227 125 -;
#X connect 0 0 5 0;
#X connect 1 0 5 1;
#X connect 2 0 8 1;
#X connect 5 0 8 0;
#X connect 8 0 3 0;
#X restore 447 430 pd (1-c)z*y-s*x;
#N canvas 0 22 458 308 c+(1-c)y*y 0;
#X obj 62 27 inlet;
#X obj 168 33 inlet;
#X obj 295 28 inlet;
#X obj 197 176 outlet;
#X text 176 12 (1-c);
#X obj 222 111 *;
#X obj 151 129 +;
#X text 74 10 c;
#X text 292 8 y*y;
#X obj 277 53 t f f;
#X obj 275 84 *;
#X connect 0 0 6 0;
#X connect 1 0 5 0;
#X connect 2 0 9 0;
#X connect 5 0 6 1;
#X connect 6 0 3 0;
#X connect 9 0 10 0;
#X connect 9 1 10 1;
#X connect 10 0 5 1;
#X restore 350 430 pd c+(1-c)y*y;
#X obj 203 604 mtx_print;
#X obj 124 291 t f f f f;
#X obj 275 556 mtx;
#X msg 275 534 matrix 4 4 \$1 \$2 \$3 0 \$4 \$5 \$6 0 \$7 \$8 \$9 0
0 0 0 1;
#X obj 275 513 pack 0 0 0 0 0 0 0 0 0;
#X floatatom 364 175 5 0 0 0 - - -;
#X floatatom 446 171 5 0 0 0 - - -;
#X floatatom 510 183 5 0 0 0 - - -;
#X obj 225 234 t f f f;
#X obj 343 270 t f f;
#X obj 463 279 t f f;
#X obj 579 254 t f f;
#X obj 343 213 t f f f f;
#X obj 343 252 *;
#X obj 451 207 t f f f f;
#X obj 543 210 t f f f f;
#X obj 550 254 *;
#X obj 463 259 *;
#X text 440 232 sin*y;
#X text 333 232 sin*x;
#X text 539 231 sin*z;
#X obj 301 312 *;
#X text 271 311 x*y;
#X obj 281 340 t f f;
#X obj 52 329 t f f f f f f f f f f;
#X obj 386 312 *;
#X text 369 296 x*z;
#X obj 377 340 t f f;
#X obj 486 322 *;
#X text 453 306 y*z;
#X obj 481 345 t f f;
#X obj 275 604 outlet;
#X obj 340 130 unpack 0 0 0;
#X obj 297 44 t l l;
#X obj 112 91 t f f;
#N canvas 556 65 474 324 unitVector 0;
#X obj 176 42 inlet;
#X obj 180 241 outlet;
#X obj 304 81 inlet;
#X obj 246 122 unpack 0 0 0;
#X obj 209 164 /;
#X obj 257 164 /;
#X obj 310 170 /;
#X obj 166 89 t f f f;
#X obj 187 197 pack 0 0 0;
#X connect 0 0 7 0;
#X connect 2 0 3 0;
#X connect 3 0 4 0;
#X connect 3 1 5 0;
#X connect 3 2 6 0;
#X connect 4 0 8 0;
#X connect 5 0 8 1;
#X connect 6 0 8 2;
#X connect 7 0 4 1;
#X connect 7 1 5 1;
#X connect 7 2 6 1;
#X connect 8 0 1 0;
#X restore 340 102 pd unitVector;
#X obj 152 158 deg2rad;
#X msg 473 73 0.577 0.577 0.577;
#X msg 199 127 45;
#X connect 2 0 56 0;
#X connect 3 0 4 0;
#X connect 3 1 5 0;
#X connect 4 0 8 0;
#X connect 5 0 30 0;
#X connect 6 0 46 0;
#X connect 7 0 6 0;
#X connect 8 0 7 0;
#X connect 8 1 23 0;
#X connect 8 2 6 1;
#X connect 12 0 26 0;
#X connect 13 0 26 1;
#X connect 14 0 26 2;
#X connect 15 0 58 0;
#X connect 16 0 26 3;
#X connect 17 0 26 6;
#X connect 18 0 26 7;
#X connect 19 0 26 8;
#X connect 20 0 26 5;
#X connect 21 0 26 4;
#X connect 23 0 10 0;
#X connect 23 1 19 0;
#X connect 23 2 21 0;
#X connect 23 3 12 0;
#X connect 24 0 22 0;
#X connect 25 0 24 0;
#X connect 26 0 25 0;
#X connect 27 0 34 0;
#X connect 28 0 36 0;
#X connect 29 0 37 0;
#X connect 30 0 38 0;
#X connect 30 1 39 0;
#X connect 30 2 35 0;
#X connect 31 0 18 2;
#X connect 31 1 20 2;
#X connect 32 0 17 2;
#X connect 32 1 14 2;
#X connect 33 0 16 2;
#X connect 33 1 13 2;
#X connect 34 0 47 0;
#X connect 34 1 43 0;
#X connect 34 2 35 1;
#X connect 34 3 12 2;
#X connect 35 0 31 0;
#X connect 36 0 50 0;
#X connect 36 1 43 1;
#X connect 36 2 39 1;
#X connect 36 3 21 2;
#X connect 37 0 50 1;
#X connect 37 1 47 1;
#X connect 37 2 38 1;
#X connect 37 3 19 2;
#X connect 38 0 33 0;
#X connect 39 0 32 0;
#X connect 43 0 45 0;
#X connect 45 0 16 1;
#X connect 45 1 13 1;
#X connect 46 0 9 0;
#X connect 46 1 19 1;
#X connect 46 2 18 0;
#X connect 46 3 17 0;
#X connect 46 4 20 0;
#X connect 46 5 21 1;
#X connect 46 6 16 0;
#X connect 46 7 14 0;
#X connect 46 8 13 0;
#X connect 46 9 12 1;
#X connect 47 0 49 0;
#X connect 49 0 17 1;
#X connect 49 1 14 1;
#X connect 50 0 52 0;
#X connect 52 0 18 1;
#X connect 52 1 20 1;
#X connect 54 0 37 0;
#X connect 54 1 36 0;
#X connect 54 2 34 0;
#X connect 55 0 57 1;
#X connect 55 1 2 1;
#X connect 56 0 3 0;
#X connect 56 1 57 0;
#X connect 57 0 54 0;
#X connect 58 0 3 0;
#X connect 59 0 54 0;
#X connect 60 0 58 0;
#X restore 453 360 pd singleMatrix;
#X obj 333 265 r x1y1z1;
#X obj 496 265 r x2y2z2;
#N canvas 0 22 780 750 theMatrix 0;
#X obj 129 12 inlet x1y1z1;
#X obj 295 10 inlet x2y2z2;
#N canvas 0 22 466 316 vLength 0;
#X obj 21 119 mtx_-;
#X obj 21 145 t a a;
#X obj 51 167 mtx_transpose;
#X obj 21 191 mtx_*;
#X obj 21 244 sqrt;
#X msg 21 213 \$3;
#X msg 21 89 matrix 1 3 \$1 \$2 \$3;
#X msg 236 56 matrix 1 3 \$1 \$2 \$3;
#X obj 21 270 outlet;
#X obj 206 10 inlet X2Y2Z2;
#X obj 21 34 inlet X1Y1Z1;
#X obj 206 34 t b l;
#X obj 21 61 pack 0 0 0;
#X text 69 256 sqrt((x1-x2)^2+(y1-y2)^2+(z1-z2)^2);
#X connect 0 0 1 0;
#X connect 1 0 3 0;
#X connect 1 1 2 0;
#X connect 2 0 3 1;
#X connect 3 0 5 0;
#X connect 4 0 8 0;
#X connect 5 0 4 0;
#X connect 6 0 0 0;
#X connect 7 0 0 1;
#X connect 9 0 11 0;
#X connect 10 0 12 0;
#X connect 11 0 12 0;
#X connect 11 1 7 0;
#X connect 12 0 6 0;
#X restore 139 94 pd vLength;
#X obj 139 176 t f f;
#X obj 139 203 cos;
#X obj 169 203 sin;
#X obj 61 243 -;
#X msg 27 209 1;
#X obj 84 204 t b f f;
#X floatatom 36 369 10 0 0 0 - - -;
#X floatatom 66 58 5 0 0 0 - - -;
#X floatatom 120 271 5 0 0 0 - - -;
#X text 23 244 (1-c);
#N canvas 0 22 478 328 c+(1-c)x^2 0;
#X obj 123 52 inlet;
#X obj 183 52 inlet;
#X obj 261 52 inlet;
#X text 264 28 x;
#X text 189 31 1-c;
#X text 136 31 c;
#X obj 261 75 t f f;
#X obj 265 99 *;
#X obj 160 192 +;
#X obj 183 115 *;
#X obj 160 226 outlet;
#X connect 0 0 8 1;
#X connect 1 0 9 0;
#X connect 2 0 6 0;
#X connect 6 0 7 0;
#X connect 6 1 7 1;
#X connect 7 0 9 1;
#X connect 8 0 10 0;
#X connect 9 0 8 0;
#X restore 176 443 pd c+(1-c)x^2;
#N canvas 0 22 462 312 (1-c)y*x-s*z 0;
#X obj 77 34 inlet;
#X obj 163 34 inlet;
#X obj 275 37 inlet;
#X text 77 14 (1-c);
#X text 281 14 s*z;
#X text 170 11 y*x;
#X obj 183 185 outlet;
#X obj 197 137 -;
#X obj 120 86 *;
#X connect 0 0 8 0;
#X connect 1 0 8 1;
#X connect 2 0 7 1;
#X connect 7 0 6 0;
#X connect 8 0 7 0;
#X restore 356 451 pd (1-c)y*x-s*z;
#N canvas 0 22 458 308 (1-c)z*x+s*y 0;
#X obj 158 206 outlet;
#X obj 55 38 inlet;
#X obj 166 38 inlet;
#X obj 292 36 inlet;
#X text 50 15 (1-c);
#X obj 128 82 *;
#X obj 173 137 +;
#X text 158 15 z*x;
#X text 290 16 s*y;
#X floatatom 307 148 5 0 0 0 - - -;
#X floatatom 46 139 5 0 0 0 - - -;
#X connect 1 0 5 0;
#X connect 2 0 5 1;
#X connect 3 0 6 1;
#X connect 3 0 9 0;
#X connect 5 0 6 0;
#X connect 5 0 10 0;
#X connect 6 0 0 0;
#X restore 484 450 pd (1-c)z*x+s*y;
#X obj 71 143 deg2rad;
#X floatatom 228 262 10 0 0 0 - - -;
#N canvas 0 22 458 308 (1-c)x*y+s*z 0;
#X obj 62 27 inlet;
#X obj 168 33 inlet;
#X obj 295 28 inlet;
#X obj 197 176 outlet;
#X text 57 10 (1-c);
#X text 166 12 x*y;
#X text 292 8 s*z;
#X obj 152 90 *;
#X obj 227 125 +;
#X connect 0 0 7 0;
#X connect 1 0 7 1;
#X connect 2 0 8 1;
#X connect 7 0 8 0;
#X connect 8 0 3 0;
#X restore 236 489 pd (1-c)x*y+s*z;
#N canvas 0 22 458 308 (1-c)x*z-s*y 0;
#X obj 62 27 inlet;
#X obj 168 33 inlet;
#X obj 295 28 inlet;
#X obj 197 176 outlet;
#X text 57 10 (1-c);
#X obj 152 90 *;
#X text 166 12 x*z;
#X obj 227 125 -;
#X text 292 8 s*y;
#X connect 0 0 5 0;
#X connect 1 0 5 1;
#X connect 2 0 7 1;
#X connect 5 0 7 0;
#X connect 7 0 3 0;
#X restore 200 548 pd (1-c)x*z-s*y;
#N canvas 0 22 454 304 (1-c)y*z+s*x 0;
#X obj 62 27 inlet;
#X obj 168 33 inlet;
#X obj 295 28 inlet;
#X obj 197 176 outlet;
#X text 57 10 (1-c);
#X obj 152 90 *;
#X obj 227 125 +;
#X text 166 12 y*z;
#X text 292 8 s*x;
#X connect 0 0 5 0;
#X connect 1 0 5 1;
#X connect 2 0 6 1;
#X connect 5 0 6 0;
#X connect 6 0 3 0;
#X restore 329 548 pd (1-c)y*z+s*x;
#N canvas 0 22 462 312 c 0;
#X obj 62 27 inlet;
#X obj 168 33 inlet;
#X obj 295 28 inlet;
#X obj 177 178 outlet;
#X text 165 12 (1-c);
#X text 73 9 c;
#X obj 177 155 +;
#X text 292 8 z*z;
#X obj 222 104 *;
#X obj 295 48 t f f;
#X obj 295 72 *;
#X connect 0 0 6 1;
#X connect 1 0 8 0;
#X connect 2 0 9 0;
#X connect 6 0 3 0;
#X connect 8 0 6 0;
#X connect 9 0 10 0;
#X connect 9 1 10 1;
#X connect 10 0 8 1;
#X restore 506 545 pd c + (1-c)z*z;
#N canvas 0 22 458 308 (1-c)z*y-s*x 0;
#X obj 62 27 inlet;
#X obj 168 33 inlet;
#X obj 295 28 inlet;
#X obj 197 176 outlet;
#X text 57 10 (1-c);
#X obj 152 90 *;
#X text 166 12 z*y;
#X text 292 8 s*x;
#X obj 227 125 -;
#X connect 0 0 5 0;
#X connect 1 0 5 1;
#X connect 2 0 8 1;
#X connect 5 0 8 0;
#X connect 8 0 3 0;
#X restore 445 489 pd (1-c)z*y-s*x;
#N canvas 0 22 462 312 c+(1-c)y*y 0;
#X obj 62 27 inlet;
#X obj 168 33 inlet;
#X obj 295 28 inlet;
#X obj 197 176 outlet;
#X text 176 12 (1-c);
#X obj 222 111 *;
#X obj 197 156 +;
#X text 74 10 c;
#X text 292 8 y*y;
#X obj 277 53 t f f;
#X obj 275 84 *;
#X connect 0 0 6 1;
#X connect 1 0 5 0;
#X connect 2 0 9 0;
#X connect 5 0 6 0;
#X connect 6 0 3 0;
#X connect 9 0 10 0;
#X connect 9 1 10 1;
#X connect 10 0 5 1;
#X restore 348 489 pd c+(1-c)y*y;
#X obj 192 668 mtx_print;
#X obj 127 238 t f f f f;
#X obj 389 676 mtx;
#X msg 287 628 matrix 4 4 \$1 \$2 \$3 0 \$4 \$5 \$6 0 \$7 \$8 \$9 0
0 0 0 1;
#X obj 287 607 pack 0 0 0 0 0 0 0 0 0;
#X obj 422 245 t f f;
#X obj 542 254 t f f;
#X obj 658 229 t f f;
#X obj 348 179 t f f f f;
#X obj 422 227 *;
#X obj 456 173 t f f f f;
#X obj 548 176 t f f f f;
#X obj 629 229 *;
#X obj 542 234 *;
#X text 519 207 sin*y;
#X text 412 207 sin*x;
#X text 618 206 sin*z;
#X obj 266 280 *;
#X text 236 279 x*y;
#X obj 246 308 t f f;
#X obj 72 291 t f f f f f f f f f f;
#X obj 351 280 *;
#X text 334 264 x*z;
#X obj 342 308 t f f;
#X obj 451 290 *;
#X text 418 274 y*z;
#X obj 446 313 t f f;
#X obj 236 219 t f f f f;
#X msg 53 31 45;
#X msg 525 114 0.577 0.577 0.577;
#X obj 439 151 unpack 0 0 0;
#X msg 569 56 0 0 0.6;
#X obj 287 673 outlet;
#X obj 139 115 t f f;
#X obj 295 38 t l l;
#N canvas 0 22 458 308 unitVector 0;
#X obj 176 42 inlet;
#X obj 180 241 outlet;
#X obj 304 81 inlet;
#X obj 246 122 unpack 0 0 0;
#X obj 209 164 /;
#X obj 257 164 /;
#X obj 310 170 /;
#X obj 166 89 t f f f;
#X obj 187 197 pack 0 0 0;
#X connect 0 0 7 0;
#X connect 2 0 3 0;
#X connect 3 0 4 0;
#X connect 3 1 5 0;
#X connect 3 2 6 0;
#X connect 4 0 8 0;
#X connect 5 0 8 1;
#X connect 6 0 8 2;
#X connect 7 0 4 1;
#X connect 7 1 5 1;
#X connect 7 2 6 1;
#X connect 8 0 1 0;
#X restore 343 80 pd unitVector;
#X obj 221 140 print vLength;
#X connect 0 0 2 0;
#X connect 1 0 58 0;
#X connect 2 0 57 0;
#X connect 3 0 4 0;
#X connect 3 1 5 0;
#X connect 4 0 8 0;
#X connect 5 0 51 0;
#X connect 6 0 44 0;
#X connect 7 0 6 0;
#X connect 8 0 7 0;
#X connect 8 1 6 1;
#X connect 8 2 25 0;
#X connect 10 0 16 0;
#X connect 13 0 28 0;
#X connect 14 0 28 1;
#X connect 15 0 28 2;
#X connect 18 0 28 3;
#X connect 19 0 28 6;
#X connect 20 0 28 7;
#X connect 21 0 28 8;
#X connect 22 0 28 5;
#X connect 23 0 28 4;
#X connect 25 1 13 0;
#X connect 25 2 23 0;
#X connect 25 3 21 0;
#X connect 27 0 56 0;
#X connect 28 0 27 0;
#X connect 29 0 20 2;
#X connect 29 1 22 2;
#X connect 30 0 19 2;
#X connect 30 1 15 2;
#X connect 31 0 18 2;
#X connect 31 1 14 2;
#X connect 32 0 45 0;
#X connect 32 1 41 0;
#X connect 32 2 33 1;
#X connect 32 3 13 2;
#X connect 33 0 29 0;
#X connect 34 0 48 0;
#X connect 34 1 41 1;
#X connect 34 2 37 1;
#X connect 34 3 23 2;
#X connect 35 0 48 1;
#X connect 35 1 45 1;
#X connect 35 2 36 1;
#X connect 35 3 21 2;
#X connect 36 0 31 0;
#X connect 37 0 30 0;
#X connect 41 0 43 0;
#X connect 43 0 18 1;
#X connect 43 1 14 1;
#X connect 44 1 13 1;
#X connect 44 2 20 0;
#X connect 44 3 19 0;
#X connect 44 4 22 0;
#X connect 44 5 23 1;
#X connect 44 6 18 0;
#X connect 44 7 15 0;
#X connect 44 8 14 0;
#X connect 44 9 21 1;
#X connect 45 0 47 0;
#X connect 47 0 19 1;
#X connect 47 1 15 1;
#X connect 48 0 50 0;
#X connect 50 0 20 1;
#X connect 50 1 22 1;
#X connect 51 1 33 0;
#X connect 51 2 37 0;
#X connect 51 3 36 0;
#X connect 52 0 16 0;
#X connect 54 0 32 0;
#X connect 54 1 34 0;
#X connect 54 2 35 0;
#X connect 57 0 3 0;
#X connect 57 1 59 0;
#X connect 58 0 59 1;
#X connect 58 1 2 1;
#X connect 59 0 54 0;
#X restore 371 300 pd theMatrix;
#X obj 42 146 pack 0.5 0.5 0.5;
#X msg 23 204 \$1 \$2 \$3 0;
#X obj 23 224 matrix 4 1;
#X connect 0 0 27 0;
#X connect 1 0 4 0;
#X connect 2 0 3 0;
#X connect 3 0 27 0;
#X connect 3 1 27 2;
#X connect 4 0 27 0;
#X connect 4 1 27 1;
#X connect 5 0 31 0;
#X connect 6 0 5 0;
#X connect 7 0 10 0;
#X connect 8 0 9 0;
#X connect 9 0 5 0;
#X connect 9 1 5 2;
#X connect 10 0 5 0;
#X connect 10 1 5 1;
#X connect 13 0 53 0;
#X connect 14 0 17 0;
#X connect 15 0 16 0;
#X connect 16 0 53 0;
#X connect 16 1 53 2;
#X connect 17 0 53 0;
#X connect 17 1 53 1;
#X connect 20 3 21 0;
#X connect 20 4 21 1;
#X connect 20 5 21 2;
#X connect 20 6 39 0;
#X connect 21 0 42 0;
#X connect 23 0 25 0;
#X connect 24 0 2 0;
#X connect 24 0 1 0;
#X connect 24 0 0 0;
#X connect 25 0 53 0;
#X connect 25 1 5 0;
#X connect 25 2 27 0;
#X connect 26 0 6 0;
#X connect 26 0 7 0;
#X connect 26 0 8 0;
#X connect 27 0 32 0;
#X connect 28 0 0 0;
#X connect 28 0 2 0;
#X connect 29 0 25 0;
#X connect 30 0 20 0;
#X connect 33 0 34 0;
#X connect 33 1 30 1;
#X connect 34 0 30 0;
#X connect 35 0 36 0;
#X connect 36 0 15 0;
#X connect 36 0 14 0;
#X connect 36 0 13 0;
#X connect 39 0 37 0;
#X connect 40 0 54 0;
#X connect 41 0 31 0;
#X connect 43 0 32 0;
#X connect 50 0 52 0;
#X connect 51 0 52 1;
#X connect 52 0 34 0;
#X connect 53 0 54 0;
#X connect 54 0 55 0;
#X connect 55 0 33 0;
#X restore 310 184 pd VecCtrlRot;
#N canvas 0 22 462 312 VecCtrlTrans 0;
#X obj 170 171 mtx_+;
#X text 89 65 vector input 1;
#X text 230 64 vector input 2;
#X obj 120 88 inlet;
#X obj 259 88 inlet;
#X obj 171 243 outlet;
#X text 89 29 Vector-Controlled Translator (VCT);
#X msg 220 120 matrix 1 3 \$1 \$2 \$3;
#X msg 60 118 matrix 1 3 \$1 \$2 \$3;
#X obj 170 194 unpack s 0 0 0 0 0;
#X obj 237 224 pack 0 0 0;
#X connect 0 0 9 0;
#X connect 3 0 8 0;
#X connect 4 0 7 0;
#X connect 7 0 0 1;
#X connect 8 0 0 0;
#X connect 9 3 10 0;
#X connect 9 4 10 1;
#X connect 9 5 10 2;
#X connect 10 0 5 0;
#X restore 112 329 pd VecCtrlTrans;
#X text 224 9 # of steps/slices;
#N canvas 692 447 558 408 vtxDrawing 0;
#X obj 277 239 inlet;
#X obj 352 238 inlet;
#X obj 28 454 GEMglEnd;
#X obj 29 229 GEMglColor4f 1 0 0 0;
#X obj 29 362 GEMglColor3f 0 1 0;
#X obj 29 303 GEMglColor3f 0 0 1;
#X floatatom 59 54 5 0 0 0 - - -;
#X obj 198 125 GLdefine GL_SMOOTH;
#X obj 198 103 loadbang;
#X obj 334 162 loadbang;
#X obj 165 165 GLdefine GL_POLYGON;
#X obj 29 183 GEMglBegin;
#X obj 29 141 GEMglShadeModel;
#X obj 180 450 loadbang;
#X obj 27 490 GEMglShadeModel;
#X obj 180 472 GLdefine GL_FLAT;
#X obj 28 406 GEMglColor3fv 1 1 0;
#X obj 28 429 GEMglVertex3fv 0 1 0;
#X msg 219 409 1 0 1;
#X msg 221 432 1 1 0;
#X floatatom 210 256 3 0 100 0 - - -;
#X obj 210 277 * 0.01;
#X msg 268 105 bang;
#X obj 28 383 GEMglVertex3fv 1 0 0;
#X obj 29 326 GEMglVertex3fv 0 -1 0;
#X obj 29 250 GEMglVertex3fv -1 0 0;
#X obj 386 272 inlet;
#X obj 461 271 inlet;
#X obj 29 7 inlet;
#X obj 327 144 GLdefine GL_QUADS;
#X obj 402 59 GEMglFrontFace;
#X obj 391 32 GLdefine GL_CCW;
#X obj 264 38 GLdefine GL_CW;
#X msg 292 16 bang;
#X msg 401 11 bang;
#X msg 165 145 bang;
#X obj 316 184 GLdefine GL_LINE_LOOP;
#X floatatom 98 55 5 0 0 0 - - -;
#X floatatom 157 54 5 0 0 0 - - -;
#X floatatom 212 60 5 0 0 0 - - -;
#X obj 29 73 GEMglRotatef 0 0 0 0;
#X obj 29 29 GEMglPushMatrix;
#X obj 27 514 GEMglPopMatrix;
#X obj 24 113 GEMglTranslatef 0 0 -1;
#X msg 366 104 bang;
#X obj 193 208 GLdefine GL_LINE_STRIP;
#X obj 188 185 bng 15 250 50 0 empty empty empty 0 -6 0 8 -262144 -1
-1;
#X connect 0 0 25 1;
#X connect 1 0 24 1;
#X connect 2 0 14 0;
#X connect 3 0 25 0;
#X connect 4 0 23 0;
#X connect 5 0 24 0;
#X connect 6 0 40 1;
#X connect 7 0 12 1;
#X connect 8 0 7 0;
#X connect 9 0 36 0;
#X connect 10 0 11 1;
#X connect 11 0 3 0;
#X connect 12 0 11 0;
#X connect 13 0 15 0;
#X connect 14 0 42 0;
#X connect 15 0 14 1;
#X connect 16 0 17 0;
#X connect 17 0 2 0;
#X connect 18 0 16 1;
#X connect 19 0 16 1;
#X connect 20 0 21 0;
#X connect 21 0 5 2;
#X connect 22 0 7 0;
#X connect 23 0 16 0;
#X connect 24 0 4 0;
#X connect 25 0 5 0;
#X connect 26 0 23 1;
#X connect 27 0 17 1;
#X connect 28 0 41 0;
#X connect 29 0 11 1;
#X connect 31 0 30 1;
#X connect 32 0 30 1;
#X connect 33 0 32 0;
#X connect 34 0 31 0;
#X connect 35 0 10 0;
#X connect 36 0 11 1;
#X connect 37 0 40 2;
#X connect 38 0 40 3;
#X connect 39 0 40 4;
#X connect 41 0 12 0;
#X connect 44 0 29 0;
#X connect 45 0 11 1;
#X connect 46 0 45 0;
#X restore 241 588 pd vtxDrawing;
#X obj 251 276 tgl 15 0 empty empty empty 0 -6 0 8 -262144 -1 -1 0
1;
#X obj 310 203 t l l;
#X obj 160 365 t l l l;
#N canvas 0 22 664 510 lDelayOne 0;
#X obj 393 41 inlet;
#X obj 296 139 i 0;
#X obj 331 141 + 1;
#X obj 127 50 i 0;
#X obj 162 52 + 1;
#X obj 127 75 pack 0 1 2;
#X msg 127 24 bang;
#X msg 379 298 print;
#X obj 295 165 select 3;
#X msg 32 119 clear;
#X msg 32 87 0;
#X msg 30 67 bang;
#X obj 173 167 spigot;
#X msg 293 192 1;
#X msg 236 239 rewind;
#X msg 189 227 this;
#X msg 128 225 delete;
#X obj 426 435 print current;
#X obj 224 107 t b a b;
#X obj 426 382 r \$0-msgfile;
#X obj 277 380 s \$0-msgfile;
#X obj 426 408 msgfile;
#X obj 500 409 print msg;
#X obj 151 205 t b b b;
#X text 23 44 Reset all;
#X obj 224 81 inlet;
#X text 182 23 Test data;
#X msg 321 107 0;
#X msg 293 240 add \$1 \$2 \$3;
#X obj 32 144 s \$0-msgfile;
#X obj 341 435 outlet;
#X obj 28 13 loadbang;
#X obj 394 65 t b b f;
#X connect 0 0 32 0;
#X connect 1 0 2 0;
#X connect 1 0 8 0;
#X connect 2 0 1 1;
#X connect 3 0 4 0;
#X connect 3 0 5 0;
#X connect 4 0 3 1;
#X connect 5 0 18 0;
#X connect 6 0 3 0;
#X connect 7 0 20 0;
#X connect 8 0 13 0;
#X connect 9 0 29 0;
#X connect 10 0 9 0;
#X connect 10 0 3 1;
#X connect 10 0 12 1;
#X connect 10 0 1 1;
#X connect 11 0 10 0;
#X connect 12 0 23 0;
#X connect 13 0 12 1;
#X connect 14 0 20 0;
#X connect 15 0 20 0;
#X connect 16 0 20 0;
#X connect 18 0 12 0;
#X connect 18 1 28 0;
#X connect 18 2 1 0;
#X connect 19 0 21 0;
#X connect 21 0 30 0;
#X connect 23 0 16 0;
#X connect 23 1 15 0;
#X connect 23 2 14 0;
#X connect 25 0 18 0;
#X connect 27 0 1 1;
#X connect 28 0 20 0;
#X connect 31 0 10 0;
#X connect 32 0 27 0;
#X connect 32 1 10 0;
#X connect 32 2 8 1;
#X restore 91 431 pd lDelayOne;
#N canvas 0 22 660 506 lDelayTwo 0;
#X obj 393 41 inlet;
#X obj 296 139 i 0;
#X obj 331 141 + 1;
#X obj 127 50 i 0;
#X obj 162 52 + 1;
#X obj 127 75 pack 0 1 2;
#X msg 127 24 bang;
#X msg 379 298 print;
#X obj 295 165 select 3;
#X msg 29 153 clear;
#X msg 29 121 0;
#X msg 27 101 bang;
#X obj 173 167 spigot;
#X msg 293 192 1;
#X msg 236 239 rewind;
#X msg 189 227 this;
#X msg 128 225 delete;
#X obj 426 435 print current;
#X obj 224 107 t b a b;
#X obj 426 408 msgfile;
#X obj 500 409 print msg;
#X obj 151 205 t b b b;
#X text 20 78 Reset all;
#X obj 224 81 inlet;
#X text 182 23 Test data;
#X msg 321 107 0;
#X msg 293 239 add \$1 \$2 \$3;
#X obj 341 435 outlet;
#X obj 277 380 s \$0-msgfile2;
#X obj 426 382 r \$0-msgfile2;
#X obj 29 178 s \$0-msgfile2;
#X obj 17 55 loadbang;
#X obj 394 65 t b b f;
#X connect 0 0 32 0;
#X connect 1 0 2 0;
#X connect 1 0 8 0;
#X connect 2 0 1 1;
#X connect 3 0 4 0;
#X connect 3 0 5 0;
#X connect 4 0 3 1;
#X connect 5 0 18 0;
#X connect 6 0 3 0;
#X connect 7 0 28 0;
#X connect 8 0 13 0;
#X connect 9 0 30 0;
#X connect 10 0 9 0;
#X connect 10 0 3 1;
#X connect 10 0 12 1;
#X connect 10 0 1 1;
#X connect 11 0 10 0;
#X connect 12 0 21 0;
#X connect 13 0 12 1;
#X connect 14 0 28 0;
#X connect 15 0 28 0;
#X connect 16 0 28 0;
#X connect 18 0 12 0;
#X connect 18 1 26 0;
#X connect 18 2 1 0;
#X connect 19 0 27 0;
#X connect 21 0 16 0;
#X connect 21 1 15 0;
#X connect 21 2 14 0;
#X connect 23 0 18 0;
#X connect 25 0 1 1;
#X connect 26 0 28 0;
#X connect 29 0 19 0;
#X connect 31 0 11 0;
#X connect 32 0 11 0;
#X connect 32 1 25 0;
#X connect 32 2 8 1;
#X restore 400 423 pd lDelayTwo;
#X obj 251 334 ortho;
#X floatatom 556 38 5 0 0 0 - - -;
#X obj 543 11 tgl 15 0 empty empty empty 0 -6 0 8 -262144 -1 -1 0 1
;
#X obj 252 427 gemhead 10;
#X obj 251 308 gemhead 20;
#X obj 252 363 t b a b;
#N canvas 644 98 627 453 clockLinear 0;
#X floatatom 309 37 5 0 0 0 - - -;
#X text 319 19 n;
#X obj 296 129 /;
#X obj 309 82 - 1;
#X floatatom 259 173 10 0 0 0 - - -;
#X obj 340 262 +;
#X floatatom 340 287 10 0 0 0 - - -;
#X obj 359 58 inlet;
#X obj 238 355 outlet;
#X obj 122 69 inlet;
#X obj 175 49 loadbang;
#X obj 175 74 t b b b;
#X msg 276 54 20;
#X msg 238 309 \$1 \$1 \$1;
#X msg 260 209 0;
#X obj 260 247 f;
#X obj 219 272 t f f;
#X obj 209 232 bng 15 250 50 0 empty empty empty 0 -6 0 8 -262144 -1
-1;
#X text 200 6 increment from start to end by n steps;
#X obj 486 118 inlet;
#X text 484 96 reset;
#X text 60 381 bang increments to next clock tick value;
#X msg 226 100 1;
#X obj 296 107 t b f;
#X obj 30 325 print clock;
#N canvas 0 22 466 316 presteps 0;
#X obj 214 73 inlet;
#X text 207 48 ending #;
#X obj 346 70 inlet;
#X obj 261 135 t b f;
#X text 259 174 starting value;
#X obj 194 331 s switchOn;
#X obj 343 290 spigot 0;
#X msg 406 273 1;
#X msg 432 294 0;
#X obj 72 321 outlet;
#X text 331 50 total steps;
#X obj 78 68 inlet;
#X text 56 47 # of presteps;
#X obj 261 115 r onestep;
#X obj 230 171 *;
#X obj 214 230 -;
#X obj 230 192 t b f;
#X connect 0 0 15 0;
#X connect 3 0 14 0;
#X connect 3 1 14 1;
#X connect 7 0 6 1;
#X connect 8 0 6 1;
#X connect 11 0 14 0;
#X connect 13 0 3 0;
#X connect 14 0 16 0;
#X connect 15 0 9 0;
#X connect 16 0 15 0;
#X connect 16 1 15 1;
#X restore 118 204 pd presteps;
#X obj 118 234 t f f;
#X floatatom 157 274 5 0 0 0 - - -;
#X obj 340 145 t f f;
#X obj 357 357 select 0;
#X msg 118 177 1;
#X obj 226 121 t f f;
#X obj 309 53 t f f;
#X obj 340 168 s onestep;
#X floatatom 152 177 5 0 0 0 - - -;
#X obj 471 326 oneshot;
#X msg 213 206 1;
#X msg 30 129 bang;
#X obj 30 150 print >>>START<<<;
#X msg 72 212 1;
#X msg 120 117 0.999;
#X floatatom 418 70 5 0 0 0 - - -;
#X msg 299 207 1;
#X obj 355 329 > 2;
#X connect 0 0 32 0;
#X connect 2 0 4 0;
#X connect 2 0 28 0;
#X connect 3 0 23 0;
#X connect 5 0 15 1;
#X connect 5 0 43 0;
#X connect 7 0 3 0;
#X connect 9 0 15 0;
#X connect 10 0 11 0;
#X connect 11 0 14 0;
#X connect 11 1 22 0;
#X connect 11 2 12 0;
#X connect 12 0 3 0;
#X connect 13 0 8 0;
#X connect 14 0 15 0;
#X connect 15 0 16 0;
#X connect 16 0 5 0;
#X connect 16 1 13 0;
#X connect 17 0 15 0;
#X connect 19 0 15 0;
#X connect 22 0 31 0;
#X connect 23 0 2 0;
#X connect 23 1 2 1;
#X connect 25 0 26 0;
#X connect 26 0 27 0;
#X connect 26 1 15 0;
#X connect 28 0 33 0;
#X connect 28 1 5 1;
#X connect 29 1 42 0;
#X connect 30 0 25 0;
#X connect 31 0 25 1;
#X connect 31 1 2 0;
#X connect 32 0 3 0;
#X connect 32 1 25 2;
#X connect 34 0 25 0;
#X connect 36 0 15 0;
#X connect 37 0 38 0;
#X connect 39 0 26 0;
#X connect 40 0 15 0;
#X connect 41 0 23 0;
#X connect 42 0 15 1;
#X connect 43 0 29 0;
#X restore 155 90 pd clockLinear;
#N canvas 0 22 454 304 VecCtrlRot2 0;
#X floatatom 411 57 5 0 0 0 - - -;
#X floatatom 455 57 5 0 0 0 - - -;
#X floatatom 499 57 5 0 0 0 - - -;
#X obj 481 101 t b f;
#X obj 424 101 t b f;
#X obj 284 132 pack 0 0 0;
#X floatatom 248 57 5 0 0 0 - - -;
#X floatatom 292 57 5 0 0 0 - - -;
#X floatatom 336 57 5 0 0 0 - - -;
#X obj 341 104 t b f;
#X obj 284 104 t b f;
#X text 262 37 (X1 \, Y1 \, Z1);
#X text 432 40 (X2 \, Y2 \, Z2);
#X floatatom 5 67 5 0 0 0 - - -;
#X floatatom 48 67 5 0 0 0 - - -;
#X floatatom 92 67 5 0 0 0 - - -;
#X obj 97 114 t b f;
#X obj 40 114 t b f;
#X text 44 25 point;
#X text 42 42 X Y Z;
#X obj 53 375 unpack s 0 0 0 0 0 0;
#X obj 189 505 pack 0 0 0;
#X text 329 7 arbitrary Axis input;
#X obj 181 78 loadbang;
#X msg 537 40 1;
#X obj 181 101 t b b b;
#X msg 217 40 0;
#X obj 424 125 pack 1 1 1;
#X floatatom 481 13 5 0 0 0 - - -;
#X msg 181 58 bang;
#X obj 53 352 mtx_*;
#X obj 271 161 s x1y1z1;
#X obj 411 161 s x2y2z2;
#X obj 57 304 t b a;
#X obj 23 327 mtx;
#X msg 137 33 0.5;
#X floatatom 137 53 5 0 0 0 - - -;
#X obj 289 392 t f f f;
#X floatatom 299 373 5 0 0 0 - - -;
#X obj 12 6 inlet;
#X obj 217 10 inlet;
#X obj 190 531 outlet;
#X obj 396 27 inlet;
#X text 325 247 Vector-Controlled Rotator (VCR);
#X obj 157 441 /;
#X obj 234 440 /;
#X obj 309 440 /;
#X text 336 433 coord divisor (x/w \, y/w \, z/w);
#N canvas 0 22 730 692 singleMatrix 0;
#X obj 112 18 inlet x1y1z1;
#X obj 297 12 inlet x2y2z2;
#N canvas 0 22 466 316 vLength 0;
#X obj 21 119 mtx_-;
#X obj 21 145 t a a;
#X obj 51 167 mtx_transpose;
#X obj 21 191 mtx_*;
#X obj 21 244 sqrt;
#X msg 21 213 \$3;
#X msg 21 89 matrix 1 3 \$1 \$2 \$3;
#X msg 236 56 matrix 1 3 \$1 \$2 \$3;
#X obj 21 270 outlet;
#X obj 206 10 inlet X2Y2Z2;
#X obj 21 34 inlet X1Y1Z1;
#X obj 206 34 t b l;
#X obj 21 61 pack 0 0 0;
#X text 69 256 sqrt((x1-x2)^2+(y1-y2)^2+(z1-z2)^2);
#X connect 0 0 1 0;
#X connect 1 0 3 0;
#X connect 1 1 2 0;
#X connect 2 0 3 1;
#X connect 3 0 5 0;
#X connect 4 0 8 0;
#X connect 5 0 4 0;
#X connect 6 0 0 0;
#X connect 7 0 0 1;
#X connect 11 0 12 0;
#X connect 11 1 7 0;
#X connect 12 0 6 0;
#X restore 112 61 pd vLength;
#X obj 137 228 t f f;
#X obj 137 255 cos;
#X obj 167 255 sin;
#X obj 59 295 -;
#X msg 25 261 1;
#X obj 82 256 t b f f;
#X floatatom 34 421 10 0 0 0 - - -;
#X floatatom 123 313 5 0 0 0 - - -;
#X text 21 296 (1-c);
#N canvas 0 22 470 320 c+(1-c)x^2 0;
#X obj 123 52 inlet;
#X obj 183 52 inlet;
#X obj 261 52 inlet;
#X text 264 28 x;
#X text 189 31 1-c;
#X text 136 31 c;
#X obj 261 75 t f f;
#X obj 265 99 *;
#X obj 123 131 +;
#X obj 183 115 *;
#X obj 123 165 outlet;
#X connect 0 0 8 0;
#X connect 1 0 9 0;
#X connect 2 0 6 0;
#X connect 6 0 7 0;
#X connect 6 1 7 1;
#X connect 7 0 9 1;
#X connect 8 0 10 0;
#X connect 9 0 8 1;
#X restore 234 394 pd c+(1-c)x^2;
#N canvas 0 22 462 312 (1-c)y*x-s*z 0;
#X obj 77 34 inlet;
#X obj 163 34 inlet;
#X obj 275 37 inlet;
#X text 77 14 (1-c);
#X text 281 14 s*z;
#X text 170 11 y*x;
#X obj 183 185 outlet;
#X obj 197 137 -;
#X obj 120 86 *;
#X connect 0 0 8 0;
#X connect 1 0 8 1;
#X connect 2 0 7 1;
#X connect 7 0 6 0;
#X connect 8 0 7 0;
#X restore 358 392 pd (1-c)y*x-s*z;
#N canvas 0 22 454 304 (1-c)z*x+s*y 0;
#X obj 158 206 outlet;
#X obj 55 38 inlet;
#X obj 166 38 inlet;
#X obj 292 36 inlet;
#X text 50 15 (1-c);
#X obj 128 82 *;
#X obj 173 137 +;
#X text 158 15 z*x;
#X text 290 16 s*y;
#X connect 1 0 5 0;
#X connect 2 0 5 1;
#X connect 3 0 6 1;
#X connect 5 0 6 0;
#X connect 6 0 0 0;
#X restore 486 391 pd (1-c)z*x+s*y;
#X floatatom 156 134 5 0 0 0 - - -;
#N canvas 0 22 462 312 (1-c)x*y+s*z 0;
#X obj 62 27 inlet;
#X obj 168 33 inlet;
#X obj 295 28 inlet;
#X obj 197 176 outlet;
#X text 57 10 (1-c);
#X text 166 12 x*y;
#X text 292 8 s*z;
#X obj 152 90 *;
#X obj 227 125 +;
#X connect 0 0 7 0;
#X connect 1 0 7 1;
#X connect 2 0 8 1;
#X connect 7 0 8 0;
#X connect 8 0 3 0;
#X restore 238 430 pd (1-c)x*y+s*z;
#N canvas 0 22 458 308 (1-c)x*z-s*y 0;
#X obj 62 27 inlet;
#X obj 168 33 inlet;
#X obj 295 28 inlet;
#X obj 197 176 outlet;
#X text 57 10 (1-c);
#X obj 152 90 *;
#X text 166 12 x*z;
#X obj 227 125 -;
#X text 292 8 s*y;
#X connect 0 0 5 0;
#X connect 1 0 5 1;
#X connect 2 0 7 1;
#X connect 5 0 7 0;
#X connect 7 0 3 0;
#X restore 205 476 pd (1-c)x*z-s*y;
#N canvas 0 22 454 304 (1-c)y*z+s*x 0;
#X obj 62 27 inlet;
#X obj 168 33 inlet;
#X obj 295 28 inlet;
#X obj 197 176 outlet;
#X text 57 10 (1-c);
#X obj 152 90 *;
#X obj 227 125 +;
#X text 166 12 y*z;
#X text 292 8 s*x;
#X connect 0 0 5 0;
#X connect 1 0 5 1;
#X connect 2 0 6 1;
#X connect 5 0 6 0;
#X connect 6 0 3 0;
#X restore 334 476 pd (1-c)y*z+s*x;
#N canvas 0 22 458 308 c 0;
#X obj 62 27 inlet;
#X obj 168 33 inlet;
#X obj 295 28 inlet;
#X obj 177 178 outlet;
#X text 165 12 (1-c);
#X text 73 9 c;
#X obj 159 138 +;
#X text 292 8 z*z;
#X obj 222 104 *;
#X obj 295 48 t f f;
#X obj 295 72 *;
#X connect 0 0 6 0;
#X connect 1 0 8 0;
#X connect 2 0 9 0;
#X connect 6 0 3 0;
#X connect 8 0 6 1;
#X connect 9 0 10 0;
#X connect 9 1 10 1;
#X connect 10 0 8 1;
#X restore 460 474 pd c + (1-c)z*z;
#N canvas 0 22 454 304 (1-c)z*y-s*x 0;
#X obj 62 27 inlet;
#X obj 168 33 inlet;
#X obj 295 28 inlet;
#X obj 197 176 outlet;
#X text 57 10 (1-c);
#X obj 152 90 *;
#X text 166 12 z*y;
#X text 292 8 s*x;
#X obj 227 125 -;
#X connect 0 0 5 0;
#X connect 1 0 5 1;
#X connect 2 0 8 1;
#X connect 5 0 8 0;
#X connect 8 0 3 0;
#X restore 447 430 pd (1-c)z*y-s*x;
#N canvas 0 22 458 308 c+(1-c)y*y 0;
#X obj 62 27 inlet;
#X obj 168 33 inlet;
#X obj 295 28 inlet;
#X obj 197 176 outlet;
#X text 176 12 (1-c);
#X obj 222 111 *;
#X obj 151 129 +;
#X text 74 10 c;
#X text 292 8 y*y;
#X obj 277 53 t f f;
#X obj 275 84 *;
#X connect 0 0 6 0;
#X connect 1 0 5 0;
#X connect 2 0 9 0;
#X connect 5 0 6 1;
#X connect 6 0 3 0;
#X connect 9 0 10 0;
#X connect 9 1 10 1;
#X connect 10 0 5 1;
#X restore 350 430 pd c+(1-c)y*y;
#X obj 203 604 mtx_print;
#X obj 124 291 t f f f f;
#X obj 275 556 mtx;
#X msg 275 534 matrix 4 4 \$1 \$2 \$3 0 \$4 \$5 \$6 0 \$7 \$8 \$9 0
0 0 0 1;
#X obj 275 513 pack 0 0 0 0 0 0 0 0 0;
#X floatatom 364 175 5 0 0 0 - - -;
#X floatatom 446 171 5 0 0 0 - - -;
#X floatatom 510 183 5 0 0 0 - - -;
#X obj 225 234 t f f f;
#X obj 343 270 t f f;
#X obj 463 279 t f f;
#X obj 579 254 t f f;
#X obj 343 213 t f f f f;
#X obj 343 252 *;
#X obj 451 207 t f f f f;
#X obj 543 210 t f f f f;
#X obj 550 254 *;
#X obj 463 259 *;
#X text 440 232 sin*y;
#X text 333 232 sin*x;
#X text 539 231 sin*z;
#X obj 301 312 *;
#X text 271 311 x*y;
#X obj 281 340 t f f;
#X obj 52 329 t f f f f f f f f f f;
#X obj 386 312 *;
#X text 369 296 x*z;
#X obj 377 340 t f f;
#X obj 486 322 *;
#X text 453 306 y*z;
#X obj 481 345 t f f;
#X obj 275 604 outlet;
#X obj 340 130 unpack 0 0 0;
#X obj 297 44 t l l;
#X obj 112 91 t f f;
#N canvas 556 65 474 324 unitVector 0;
#X obj 176 42 inlet;
#X obj 180 241 outlet;
#X obj 304 81 inlet;
#X obj 246 122 unpack 0 0 0;
#X obj 209 164 /;
#X obj 257 164 /;
#X obj 310 170 /;
#X obj 166 89 t f f f;
#X obj 187 197 pack 0 0 0;
#X connect 0 0 7 0;
#X connect 2 0 3 0;
#X connect 3 0 4 0;
#X connect 3 1 5 0;
#X connect 3 2 6 0;
#X connect 4 0 8 0;
#X connect 5 0 8 1;
#X connect 6 0 8 2;
#X connect 7 0 4 1;
#X connect 7 1 5 1;
#X connect 7 2 6 1;
#X connect 8 0 1 0;
#X restore 340 102 pd unitVector;
#X obj 152 158 deg2rad;
#X msg 473 73 0.577 0.577 0.577;
#X msg 199 127 45;
#X connect 2 0 56 0;
#X connect 3 0 4 0;
#X connect 3 1 5 0;
#X connect 4 0 8 0;
#X connect 5 0 30 0;
#X connect 6 0 46 0;
#X connect 7 0 6 0;
#X connect 8 0 7 0;
#X connect 8 1 23 0;
#X connect 8 2 6 1;
#X connect 12 0 26 0;
#X connect 13 0 26 1;
#X connect 14 0 26 2;
#X connect 15 0 58 0;
#X connect 16 0 26 3;
#X connect 17 0 26 6;
#X connect 18 0 26 7;
#X connect 19 0 26 8;
#X connect 20 0 26 5;
#X connect 21 0 26 4;
#X connect 23 0 10 0;
#X connect 23 1 19 0;
#X connect 23 2 21 0;
#X connect 23 3 12 0;
#X connect 24 0 22 0;
#X connect 25 0 24 0;
#X connect 26 0 25 0;
#X connect 27 0 34 0;
#X connect 28 0 36 0;
#X connect 29 0 37 0;
#X connect 30 0 38 0;
#X connect 30 1 39 0;
#X connect 30 2 35 0;
#X connect 31 0 18 2;
#X connect 31 1 20 2;
#X connect 32 0 17 2;
#X connect 32 1 14 2;
#X connect 33 0 16 2;
#X connect 33 1 13 2;
#X connect 34 0 47 0;
#X connect 34 1 43 0;
#X connect 34 2 35 1;
#X connect 34 3 12 2;
#X connect 35 0 31 0;
#X connect 36 0 50 0;
#X connect 36 1 43 1;
#X connect 36 2 39 1;
#X connect 36 3 21 2;
#X connect 37 0 50 1;
#X connect 37 1 47 1;
#X connect 37 2 38 1;
#X connect 37 3 19 2;
#X connect 38 0 33 0;
#X connect 39 0 32 0;
#X connect 43 0 45 0;
#X connect 45 0 16 1;
#X connect 45 1 13 1;
#X connect 46 0 9 0;
#X connect 46 1 19 1;
#X connect 46 2 18 0;
#X connect 46 3 17 0;
#X connect 46 4 20 0;
#X connect 46 5 21 1;
#X connect 46 6 16 0;
#X connect 46 7 14 0;
#X connect 46 8 13 0;
#X connect 46 9 12 1;
#X connect 47 0 49 0;
#X connect 49 0 17 1;
#X connect 49 1 14 1;
#X connect 50 0 52 0;
#X connect 52 0 18 1;
#X connect 52 1 20 1;
#X connect 54 0 37 0;
#X connect 54 1 36 0;
#X connect 54 2 34 0;
#X connect 55 0 57 1;
#X connect 55 1 2 1;
#X connect 56 0 3 0;
#X connect 56 1 57 0;
#X connect 57 0 54 0;
#X connect 58 0 3 0;
#X connect 59 0 54 0;
#X connect 60 0 58 0;
#X restore 453 360 pd singleMatrix;
#X obj 333 265 r x1y1z1;
#X obj 496 265 r x2y2z2;
#N canvas 0 22 788 758 theMatrix 0;
#X obj 129 12 inlet x1y1z1;
#X obj 295 10 inlet x2y2z2;
#N canvas 0 22 466 316 vLength 0;
#X obj 21 119 mtx_-;
#X obj 21 145 t a a;
#X obj 51 167 mtx_transpose;
#X obj 21 191 mtx_*;
#X obj 21 244 sqrt;
#X msg 21 213 \$3;
#X msg 21 89 matrix 1 3 \$1 \$2 \$3;
#X msg 236 56 matrix 1 3 \$1 \$2 \$3;
#X obj 21 270 outlet;
#X obj 206 10 inlet X2Y2Z2;
#X obj 21 34 inlet X1Y1Z1;
#X obj 206 34 t b l;
#X obj 21 61 pack 0 0 0;
#X text 69 256 sqrt((x1-x2)^2+(y1-y2)^2+(z1-z2)^2);
#X connect 0 0 1 0;
#X connect 1 0 3 0;
#X connect 1 1 2 0;
#X connect 2 0 3 1;
#X connect 3 0 5 0;
#X connect 4 0 8 0;
#X connect 5 0 4 0;
#X connect 6 0 0 0;
#X connect 7 0 0 1;
#X connect 9 0 11 0;
#X connect 10 0 12 0;
#X connect 11 0 12 0;
#X connect 11 1 7 0;
#X connect 12 0 6 0;
#X restore 139 94 pd vLength;
#X obj 139 176 t f f;
#X obj 139 203 cos;
#X obj 169 203 sin;
#X obj 61 243 -;
#X msg 27 209 1;
#X obj 84 204 t b f f;
#X floatatom 36 369 10 0 0 0 - - -;
#X floatatom 66 58 5 0 0 0 - - -;
#X floatatom 120 271 5 0 0 0 - - -;
#X text 23 244 (1-c);
#N canvas 0 22 478 328 c+(1-c)x^2 0;
#X obj 123 52 inlet;
#X obj 183 52 inlet;
#X obj 261 52 inlet;
#X text 264 28 x;
#X text 189 31 1-c;
#X text 136 31 c;
#X obj 261 75 t f f;
#X obj 265 99 *;
#X obj 160 192 +;
#X obj 183 115 *;
#X obj 160 226 outlet;
#X connect 0 0 8 1;
#X connect 1 0 9 0;
#X connect 2 0 6 0;
#X connect 6 0 7 0;
#X connect 6 1 7 1;
#X connect 7 0 9 1;
#X connect 8 0 10 0;
#X connect 9 0 8 0;
#X restore 176 443 pd c+(1-c)x^2;
#N canvas 0 22 462 312 (1-c)y*x-s*z 0;
#X obj 77 34 inlet;
#X obj 163 34 inlet;
#X obj 275 37 inlet;
#X text 77 14 (1-c);
#X text 281 14 s*z;
#X text 170 11 y*x;
#X obj 183 185 outlet;
#X obj 197 137 -;
#X obj 120 86 *;
#X connect 0 0 8 0;
#X connect 1 0 8 1;
#X connect 2 0 7 1;
#X connect 7 0 6 0;
#X connect 8 0 7 0;
#X restore 356 451 pd (1-c)y*x-s*z;
#N canvas 0 22 458 308 (1-c)z*x+s*y 0;
#X obj 158 206 outlet;
#X obj 55 38 inlet;
#X obj 166 38 inlet;
#X obj 292 36 inlet;
#X text 50 15 (1-c);
#X obj 128 82 *;
#X obj 173 137 +;
#X text 158 15 z*x;
#X text 290 16 s*y;
#X floatatom 307 148 5 0 0 0 - - -;
#X floatatom 46 139 5 0 0 0 - - -;
#X connect 1 0 5 0;
#X connect 2 0 5 1;
#X connect 3 0 6 1;
#X connect 3 0 9 0;
#X connect 5 0 6 0;
#X connect 5 0 10 0;
#X connect 6 0 0 0;
#X restore 484 450 pd (1-c)z*x+s*y;
#X obj 71 143 deg2rad;
#X floatatom 228 262 10 0 0 0 - - -;
#N canvas 0 22 458 308 (1-c)x*y+s*z 0;
#X obj 62 27 inlet;
#X obj 168 33 inlet;
#X obj 295 28 inlet;
#X obj 197 176 outlet;
#X text 57 10 (1-c);
#X text 166 12 x*y;
#X text 292 8 s*z;
#X obj 152 90 *;
#X obj 227 125 +;
#X connect 0 0 7 0;
#X connect 1 0 7 1;
#X connect 2 0 8 1;
#X connect 7 0 8 0;
#X connect 8 0 3 0;
#X restore 236 489 pd (1-c)x*y+s*z;
#N canvas 0 22 458 308 (1-c)x*z-s*y 0;
#X obj 62 27 inlet;
#X obj 168 33 inlet;
#X obj 295 28 inlet;
#X obj 197 176 outlet;
#X text 57 10 (1-c);
#X obj 152 90 *;
#X text 166 12 x*z;
#X obj 227 125 -;
#X text 292 8 s*y;
#X connect 0 0 5 0;
#X connect 1 0 5 1;
#X connect 2 0 7 1;
#X connect 5 0 7 0;
#X connect 7 0 3 0;
#X restore 200 548 pd (1-c)x*z-s*y;
#N canvas 0 22 454 304 (1-c)y*z+s*x 0;
#X obj 62 27 inlet;
#X obj 168 33 inlet;
#X obj 295 28 inlet;
#X obj 197 176 outlet;
#X text 57 10 (1-c);
#X obj 152 90 *;
#X obj 227 125 +;
#X text 166 12 y*z;
#X text 292 8 s*x;
#X connect 0 0 5 0;
#X connect 1 0 5 1;
#X connect 2 0 6 1;
#X connect 5 0 6 0;
#X connect 6 0 3 0;
#X restore 329 548 pd (1-c)y*z+s*x;
#N canvas 0 22 462 312 c 0;
#X obj 62 27 inlet;
#X obj 168 33 inlet;
#X obj 295 28 inlet;
#X obj 177 178 outlet;
#X text 165 12 (1-c);
#X text 73 9 c;
#X obj 177 155 +;
#X text 292 8 z*z;
#X obj 222 104 *;
#X obj 295 48 t f f;
#X obj 295 72 *;
#X connect 0 0 6 1;
#X connect 1 0 8 0;
#X connect 2 0 9 0;
#X connect 6 0 3 0;
#X connect 8 0 6 0;
#X connect 9 0 10 0;
#X connect 9 1 10 1;
#X connect 10 0 8 1;
#X restore 506 545 pd c + (1-c)z*z;
#N canvas 0 22 458 308 (1-c)z*y-s*x 0;
#X obj 62 27 inlet;
#X obj 168 33 inlet;
#X obj 295 28 inlet;
#X obj 197 176 outlet;
#X text 57 10 (1-c);
#X obj 152 90 *;
#X text 166 12 z*y;
#X text 292 8 s*x;
#X obj 227 125 -;
#X connect 0 0 5 0;
#X connect 1 0 5 1;
#X connect 2 0 8 1;
#X connect 5 0 8 0;
#X connect 8 0 3 0;
#X restore 445 489 pd (1-c)z*y-s*x;
#N canvas 0 22 462 312 c+(1-c)y*y 0;
#X obj 62 27 inlet;
#X obj 168 33 inlet;
#X obj 295 28 inlet;
#X obj 197 176 outlet;
#X text 176 12 (1-c);
#X obj 222 111 *;
#X obj 197 156 +;
#X text 74 10 c;
#X text 292 8 y*y;
#X obj 277 53 t f f;
#X obj 275 84 *;
#X connect 0 0 6 1;
#X connect 1 0 5 0;
#X connect 2 0 9 0;
#X connect 5 0 6 0;
#X connect 6 0 3 0;
#X connect 9 0 10 0;
#X connect 9 1 10 1;
#X connect 10 0 5 1;
#X restore 348 489 pd c+(1-c)y*y;
#X obj 192 668 mtx_print;
#X obj 127 238 t f f f f;
#X obj 389 676 mtx;
#X msg 287 628 matrix 4 4 \$1 \$2 \$3 0 \$4 \$5 \$6 0 \$7 \$8 \$9 0
0 0 0 1;
#X obj 287 607 pack 0 0 0 0 0 0 0 0 0;
#X obj 422 245 t f f;
#X obj 542 254 t f f;
#X obj 658 229 t f f;
#X obj 348 179 t f f f f;
#X obj 422 227 *;
#X obj 456 173 t f f f f;
#X obj 548 176 t f f f f;
#X obj 629 229 *;
#X obj 542 234 *;
#X text 519 207 sin*y;
#X text 412 207 sin*x;
#X text 618 206 sin*z;
#X obj 266 280 *;
#X text 236 279 x*y;
#X obj 246 308 t f f;
#X obj 72 291 t f f f f f f f f f f;
#X obj 351 280 *;
#X text 334 264 x*z;
#X obj 342 308 t f f;
#X obj 451 290 *;
#X text 418 274 y*z;
#X obj 446 313 t f f;
#X obj 236 219 t f f f f;
#X msg 53 31 45;
#X msg 525 114 0.577 0.577 0.577;
#X obj 439 151 unpack 0 0 0;
#X msg 569 56 0 0 0.6;
#X obj 287 673 outlet;
#X obj 139 115 t f f;
#X obj 295 38 t l l;
#N canvas 0 22 458 308 unitVector 0;
#X obj 176 42 inlet;
#X obj 180 241 outlet;
#X obj 304 81 inlet;
#X obj 246 122 unpack 0 0 0;
#X obj 209 164 /;
#X obj 257 164 /;
#X obj 310 170 /;
#X obj 166 89 t f f f;
#X obj 187 197 pack 0 0 0;
#X connect 0 0 7 0;
#X connect 2 0 3 0;
#X connect 3 0 4 0;
#X connect 3 1 5 0;
#X connect 3 2 6 0;
#X connect 4 0 8 0;
#X connect 5 0 8 1;
#X connect 6 0 8 2;
#X connect 7 0 4 1;
#X connect 7 1 5 1;
#X connect 7 2 6 1;
#X connect 8 0 1 0;
#X restore 343 80 pd unitVector;
#X obj 221 140 print vLength;
#X connect 0 0 2 0;
#X connect 1 0 58 0;
#X connect 2 0 57 0;
#X connect 3 0 4 0;
#X connect 3 1 5 0;
#X connect 4 0 8 0;
#X connect 5 0 51 0;
#X connect 6 0 44 0;
#X connect 7 0 6 0;
#X connect 8 0 7 0;
#X connect 8 1 6 1;
#X connect 8 2 25 0;
#X connect 10 0 16 0;
#X connect 13 0 28 0;
#X connect 14 0 28 1;
#X connect 15 0 28 2;
#X connect 18 0 28 3;
#X connect 19 0 28 6;
#X connect 20 0 28 7;
#X connect 21 0 28 8;
#X connect 22 0 28 5;
#X connect 23 0 28 4;
#X connect 25 1 13 0;
#X connect 25 2 23 0;
#X connect 25 3 21 0;
#X connect 27 0 56 0;
#X connect 28 0 27 0;
#X connect 29 0 20 2;
#X connect 29 1 22 2;
#X connect 30 0 19 2;
#X connect 30 1 15 2;
#X connect 31 0 18 2;
#X connect 31 1 14 2;
#X connect 32 0 45 0;
#X connect 32 1 41 0;
#X connect 32 2 33 1;
#X connect 32 3 13 2;
#X connect 33 0 29 0;
#X connect 34 0 48 0;
#X connect 34 1 41 1;
#X connect 34 2 37 1;
#X connect 34 3 23 2;
#X connect 35 0 48 1;
#X connect 35 1 45 1;
#X connect 35 2 36 1;
#X connect 35 3 21 2;
#X connect 36 0 31 0;
#X connect 37 0 30 0;
#X connect 41 0 43 0;
#X connect 43 0 18 1;
#X connect 43 1 14 1;
#X connect 44 1 13 1;
#X connect 44 2 20 0;
#X connect 44 3 19 0;
#X connect 44 4 22 0;
#X connect 44 5 23 1;
#X connect 44 6 18 0;
#X connect 44 7 15 0;
#X connect 44 8 14 0;
#X connect 44 9 21 1;
#X connect 45 0 47 0;
#X connect 47 0 19 1;
#X connect 47 1 15 1;
#X connect 48 0 50 0;
#X connect 50 0 20 1;
#X connect 50 1 22 1;
#X connect 51 1 33 0;
#X connect 51 2 37 0;
#X connect 51 3 36 0;
#X connect 52 0 16 0;
#X connect 54 0 32 0;
#X connect 54 1 34 0;
#X connect 54 2 35 0;
#X connect 57 0 3 0;
#X connect 57 1 59 0;
#X connect 58 0 59 1;
#X connect 58 1 2 1;
#X connect 59 0 54 0;
#X restore 371 300 pd theMatrix;
#X obj 42 146 pack 0.5 0.5 0.5;
#X msg 23 204 \$1 \$2 \$3 0;
#X obj 23 224 matrix 4 1;
#X connect 0 0 27 0;
#X connect 1 0 4 0;
#X connect 2 0 3 0;
#X connect 3 0 27 0;
#X connect 3 1 27 2;
#X connect 4 0 27 0;
#X connect 4 1 27 1;
#X connect 5 0 31 0;
#X connect 6 0 5 0;
#X connect 7 0 10 0;
#X connect 8 0 9 0;
#X connect 9 0 5 0;
#X connect 9 1 5 2;
#X connect 10 0 5 0;
#X connect 10 1 5 1;
#X connect 13 0 52 0;
#X connect 14 0 17 0;
#X connect 15 0 16 0;
#X connect 16 0 52 0;
#X connect 16 1 52 2;
#X connect 17 0 52 0;
#X connect 17 1 52 1;
#X connect 20 3 21 0;
#X connect 20 4 21 1;
#X connect 20 5 21 2;
#X connect 20 6 38 0;
#X connect 21 0 41 0;
#X connect 23 0 25 0;
#X connect 24 0 2 0;
#X connect 24 0 1 0;
#X connect 24 0 0 0;
#X connect 25 0 52 0;
#X connect 25 1 5 0;
#X connect 25 2 27 0;
#X connect 26 0 6 0;
#X connect 26 0 7 0;
#X connect 26 0 8 0;
#X connect 27 0 32 0;
#X connect 28 0 0 0;
#X connect 28 0 2 0;
#X connect 29 0 25 0;
#X connect 30 0 20 0;
#X connect 33 0 34 0;
#X connect 33 1 30 1;
#X connect 34 0 30 0;
#X connect 35 0 36 0;
#X connect 36 0 15 0;
#X connect 36 0 14 0;
#X connect 36 0 13 0;
#X connect 38 0 37 0;
#X connect 39 0 53 0;
#X connect 40 0 51 0;
#X connect 42 0 51 1;
#X connect 51 0 34 0;
#X connect 52 0 53 0;
#X connect 53 0 54 0;
#X connect 54 0 33 0;
#X restore 322 245 pd VecCtrlRot2;
#X obj 279 274 t l l l l;
#N canvas 0 22 454 304 routeZXY 0;
#X obj 142 42 inlet;
#X obj 150 217 outlet;
#X obj 145 89 unpack 0 0 0;
#X obj 150 188 pack 0 0 0;
#X msg 143 132 \$3 \$1 \$2;
#X connect 0 0 4 0;
#X connect 4 0 1 0;
#X restore 426 215 pd routeZXY;
#X connect 0 0 23 0;
#X connect 1 0 48 0;
#X connect 3 0 2 0;
#X connect 5 0 7 0;
#X connect 7 0 33 0;
#X connect 8 0 40 1;
#X connect 9 0 8 0;
#X connect 10 0 41 1;
#X connect 11 0 10 0;
#X connect 13 0 14 0;
#X connect 14 0 13 0;
#X connect 16 0 33 2;
#X connect 17 0 48 2;
#X connect 19 0 48 0;
#X connect 20 0 24 0;
#X connect 21 0 20 1;
#X connect 23 0 22 0;
#X connect 23 1 48 1;
#X connect 24 0 18 0;
#X connect 24 1 25 0;
#X connect 25 0 36 0;
#X connect 26 0 25 1;
#X connect 27 0 25 2;
#X connect 28 0 25 3;
#X connect 30 0 31 0;
#X connect 31 0 32 0;
#X connect 32 0 2 0;
#X connect 32 1 7 0;
#X connect 33 0 38 0;
#X connect 34 0 39 0;
#X connect 37 0 46 0;
#X connect 38 0 49 0;
#X connect 38 1 51 0;
#X connect 39 1 40 0;
#X connect 39 2 36 3;
#X connect 40 0 36 2;
#X connect 41 0 36 1;
#X connect 42 0 20 0;
#X connect 43 0 13 2;
#X connect 44 0 13 1;
#X connect 46 0 42 0;
#X connect 48 0 16 0;
#X connect 49 0 50 0;
#X connect 50 0 36 4;
#X connect 50 1 41 0;
#X connect 50 2 34 0;
#X connect 50 3 34 1;
#X connect 51 0 49 2;
