#N canvas 527 96 498 520 10;
#N canvas 88 22 765 783 boxClock 0;
#X floatatom 37 114 5 0 0 0 - - -;
#X floatatom 97 116 5 0 0 0 - - -;
#X obj 118 160 -;
#X floatatom 118 186 5 0 0 0 - - -;
#X obj 21 164 t b f;
#X obj 22 196 f;
#X obj 89 436 +;
#X text 35 96 start;
#X text 101 98 end;
#X floatatom 89 461 5 0 0 0 - - -;
#X obj 77 212 select 0 1;
#X obj 106 397 t b f;
#X obj 76 187 <=;
#X obj 273 728 outlet;
#X floatatom 20 224 5 0 0 0 - - -;
#X obj 161 80 inlet;
#X obj 88 137 t f f;
#X obj 147 11 loadbang;
#X msg 30 75 0;
#X msg 100 79 1;
#X obj 43 36 t b b b;
#X msg 42 376 0;
#X obj 42 414 f;
#X obj 1 439 t f f;
#X obj -9 399 bng 15 250 50 0 empty empty empty 0 -6 0 8 -262144 -1
-1;
#X text 242 35 increment from start to end by n steps;
#X obj 543 37 inlet;
#X text 541 15 reset;
#X text 4 295 bang increments to next clock tick value;
#X msg 266 139 1;
#X floatatom 304 249 5 0 0 0 - - -;
#X floatatom 367 251 5 0 0 0 - - -;
#X floatatom 426 247 5 0 0 0 - - -;
#X text 309 223 Nx;
#X text 371 222 Ny;
#X text 426 222 Nz;
#X obj 305 296 /;
#X obj 139 476 select 0;
#X obj 139 506 t b b;
#X text 430 150 assuming that: start=(0 \, 0 \, 0) end=(1 \, 1 \, 1)
;
#X obj 367 294 /;
#X obj 426 294 /;
#X obj 263 677 pack 0 0 0;
#X obj 205 727 print;
#X obj 318 451 +;
#X floatatom 318 476 5 0 0 0 - - -;
#X obj 335 412 t b f;
#X msg 271 391 0;
#X obj 271 429 f;
#X obj 230 454 t f f;
#X obj 368 491 select 0;
#X obj 368 521 t b b;
#X obj 526 448 +;
#X floatatom 526 473 5 0 0 0 - - -;
#X obj 543 409 t b f;
#X msg 479 388 0;
#X obj 479 426 f;
#X obj 438 451 t f f;
#X obj 576 468 <= 1;
#X obj 576 488 select 0;
#X msg 531 534 0;
#X obj 576 518 t b b;
#X msg 213 410 bang;
#X msg 429 408 bang;
#X obj 271 372 loadbang;
#X obj 380 358 *;
#X obj 426 358 *;
#X obj 373 337 t b f;
#X obj 419 337 t b f;
#X obj 304 269 t b f f;
#X obj 367 269 t b f f;
#X obj 426 269 t b f f;
#X obj 476 724 outlet;
#X text 484 697 total # of steps;
#X obj 329 129 unpack 0 0 0;
#X obj 329 105 inlet;
#X obj 526 112 t f f f;
#X obj 139 456 <= 2;
#X msg 94 522 1;
#X obj 368 471 <= 2;
#X msg 323 537 1;
#X connect 0 0 4 0;
#X connect 1 0 16 0;
#X connect 2 0 3 0;
#X connect 4 0 2 0;
#X connect 4 1 2 1;
#X connect 4 1 5 0;
#X connect 5 0 14 0;
#X connect 6 0 22 1;
#X connect 6 0 77 0;
#X connect 11 1 6 1;
#X connect 12 0 10 0;
#X connect 15 0 22 0;
#X connect 16 0 12 1;
#X connect 16 1 2 0;
#X connect 17 0 20 0;
#X connect 17 0 21 0;
#X connect 17 0 29 0;
#X connect 18 0 4 0;
#X connect 19 0 16 0;
#X connect 20 0 18 0;
#X connect 20 1 19 0;
#X connect 21 0 22 0;
#X connect 22 0 23 0;
#X connect 23 0 6 0;
#X connect 23 1 42 0;
#X connect 24 0 22 0;
#X connect 26 0 76 0;
#X connect 29 0 36 0;
#X connect 29 0 40 0;
#X connect 29 0 41 0;
#X connect 30 0 69 0;
#X connect 31 0 70 0;
#X connect 32 0 71 0;
#X connect 36 0 11 0;
#X connect 37 0 38 0;
#X connect 38 0 78 0;
#X connect 38 1 62 0;
#X connect 40 0 46 0;
#X connect 41 0 54 0;
#X connect 42 0 13 0;
#X connect 44 0 48 1;
#X connect 44 0 79 0;
#X connect 46 1 44 1;
#X connect 47 0 48 0;
#X connect 48 0 49 0;
#X connect 49 0 44 0;
#X connect 49 1 42 1;
#X connect 50 0 51 0;
#X connect 51 0 80 0;
#X connect 51 1 63 0;
#X connect 52 0 56 1;
#X connect 52 0 58 0;
#X connect 54 1 52 1;
#X connect 55 0 56 0;
#X connect 56 0 57 0;
#X connect 57 0 52 0;
#X connect 57 1 42 2;
#X connect 58 0 59 0;
#X connect 59 0 61 0;
#X connect 60 0 56 1;
#X connect 61 0 60 0;
#X connect 62 0 48 0;
#X connect 63 0 56 0;
#X connect 64 0 47 0;
#X connect 64 0 55 0;
#X connect 65 0 66 0;
#X connect 66 0 72 0;
#X connect 67 0 65 0;
#X connect 67 1 65 1;
#X connect 68 0 66 0;
#X connect 68 1 66 1;
#X connect 69 0 36 0;
#X connect 69 1 36 1;
#X connect 69 2 65 0;
#X connect 70 0 40 0;
#X connect 70 1 40 1;
#X connect 70 2 67 0;
#X connect 71 0 41 0;
#X connect 71 1 41 1;
#X connect 71 2 68 0;
#X connect 74 0 69 0;
#X connect 74 1 70 0;
#X connect 74 2 71 0;
#X connect 75 0 74 0;
#X connect 76 0 22 0;
#X connect 76 1 48 0;
#X connect 76 2 56 0;
#X connect 77 0 37 0;
#X connect 78 0 22 1;
#X connect 79 0 50 0;
#X connect 80 0 48 1;
#X restore 113 116 pd boxClock;
#X floatatom 112 71 5 0 0 0 - - -;
#X floatatom 154 71 5 0 0 0 - - -;
#X floatatom 195 72 5 0 0 0 - - -;
#X text 122 56 Nx;
#X text 162 56 Ny;
#X text 202 54 Nz;
#X obj 122 91 pack 0 0 0;
#X obj 177 142 s steps;
#X obj 25 108 r again;
#N canvas 0 22 454 304 genop 0;
#X obj 169 45 inlet;
#X obj 169 73 unpack 0 0 0;
#X obj 222 138 *;
#X obj 149 106 t f f;
#X obj 176 180 pack 0 0 0;
#X obj 208 102 t f f;
#X obj 176 216 outlet;
#X text 125 236 output: ( x \, y \, x*y );
#X connect 0 0 1 0;
#X connect 1 0 3 0;
#X connect 1 1 5 0;
#X connect 2 0 4 2;
#X connect 3 0 4 0;
#X connect 3 1 2 0;
#X connect 4 0 6 0;
#X connect 5 0 4 1;
#X connect 5 1 2 1;
#X restore 105 148 pd genop;
#N canvas 0 22 458 308 1DelayOne 0;
#X obj 393 41 inlet;
#X obj 296 139 i 0;
#X obj 331 141 + 1;
#X obj 127 50 i 0;
#X obj 162 52 + 1;
#X obj 127 75 pack 0 1 2;
#X msg 127 24 bang;
#X msg 379 298 print;
#X obj 295 165 select 3;
#X msg 32 119 clear;
#X msg 32 87 0;
#X msg 30 67 bang;
#X obj 173 167 spigot;
#X msg 293 192 1;
#X msg 236 239 rewind;
#X msg 189 227 this;
#X msg 128 225 delete;
#X obj 426 435 print current;
#X obj 224 107 t b a b;
#X obj 426 382 r \$0-msgfile;
#X obj 277 380 s \$0-msgfile;
#X obj 426 408 msgfile;
#X obj 500 409 print msg;
#X obj 151 205 t b b b;
#X text 23 44 Reset all;
#X obj 224 81 inlet;
#X text 182 23 Test data;
#X obj 394 65 t b f;
#X msg 321 107 0;
#X msg 293 240 add \$1 \$2 \$3;
#X obj 32 144 s \$0-msgfile;
#X obj 341 435 outlet;
#X obj 22 16 loadbang;
#X connect 0 0 27 0;
#X connect 1 0 2 0;
#X connect 1 0 8 0;
#X connect 2 0 1 1;
#X connect 3 0 4 0;
#X connect 3 0 5 0;
#X connect 4 0 3 1;
#X connect 5 0 18 0;
#X connect 6 0 3 0;
#X connect 7 0 20 0;
#X connect 8 0 13 0;
#X connect 9 0 30 0;
#X connect 10 0 9 0;
#X connect 10 0 3 1;
#X connect 10 0 12 1;
#X connect 10 0 1 1;
#X connect 11 0 10 0;
#X connect 12 0 23 0;
#X connect 13 0 12 1;
#X connect 14 0 20 0;
#X connect 15 0 20 0;
#X connect 16 0 20 0;
#X connect 18 0 12 0;
#X connect 18 1 29 0;
#X connect 18 2 1 0;
#X connect 19 0 21 0;
#X connect 21 0 31 0;
#X connect 23 0 16 0;
#X connect 23 1 15 0;
#X connect 23 2 14 0;
#X connect 25 0 18 0;
#X connect 27 0 28 0;
#X connect 27 1 8 1;
#X connect 28 0 1 1;
#X connect 29 0 20 0;
#X connect 32 0 10 0;
#X restore 239 247 pd 1DelayOne;
#N canvas 0 22 466 316 1DelayTwo 0;
#X obj 393 41 inlet;
#X obj 296 139 i 0;
#X obj 331 141 + 1;
#X obj 127 50 i 0;
#X obj 162 52 + 1;
#X obj 127 75 pack 0 1 2;
#X msg 127 24 bang;
#X msg 379 298 print;
#X obj 295 165 select 3;
#X msg 32 119 clear;
#X msg 32 87 0;
#X msg 30 67 bang;
#X obj 173 167 spigot;
#X msg 293 192 1;
#X msg 236 239 rewind;
#X msg 189 227 this;
#X msg 128 225 delete;
#X obj 426 435 print current;
#X obj 224 107 t b a b;
#X obj 426 408 msgfile;
#X obj 500 409 print msg;
#X obj 151 205 t b b b;
#X text 23 44 Reset all;
#X obj 224 81 inlet;
#X text 182 23 Test data;
#X obj 394 65 t b f;
#X msg 321 107 0;
#X msg 293 239 add \$1 \$2 \$3;
#X obj 341 435 outlet;
#X obj 277 380 s \$0-msgfile2;
#X obj 426 382 r \$0-msgfile2;
#X obj 28 16 loadbang;
#X obj 32 144 s \$0-msgfile2;
#X connect 0 0 25 0;
#X connect 1 0 2 0;
#X connect 1 0 8 0;
#X connect 2 0 1 1;
#X connect 3 0 4 0;
#X connect 3 0 5 0;
#X connect 4 0 3 1;
#X connect 5 0 18 0;
#X connect 6 0 3 0;
#X connect 7 0 29 0;
#X connect 8 0 13 0;
#X connect 9 0 32 0;
#X connect 10 0 9 0;
#X connect 10 0 3 1;
#X connect 10 0 12 1;
#X connect 10 0 1 1;
#X connect 11 0 10 0;
#X connect 12 0 21 0;
#X connect 13 0 12 1;
#X connect 14 0 29 0;
#X connect 15 0 29 0;
#X connect 16 0 29 0;
#X connect 18 0 12 0;
#X connect 18 1 27 0;
#X connect 18 2 1 0;
#X connect 19 0 28 0;
#X connect 21 0 16 0;
#X connect 21 1 15 0;
#X connect 21 2 14 0;
#X connect 23 0 18 0;
#X connect 25 0 26 0;
#X connect 25 1 8 1;
#X connect 26 0 1 1;
#X connect 27 0 29 0;
#X connect 30 0 19 0;
#X connect 31 0 10 0;
#X restore 107 307 pd 1DelayTwo;
#N canvas 0 22 458 308 15DelayThree 0;
#X obj 393 41 inlet;
#X obj 296 139 i 0;
#X obj 331 141 + 1;
#X obj 127 50 i 0;
#X obj 162 52 + 1;
#X obj 127 75 pack 0 1 2;
#X msg 127 24 bang;
#X msg 379 298 print;
#X obj 295 165 select 3;
#X msg 32 119 clear;
#X msg 32 87 0;
#X msg 30 67 bang;
#X obj 173 167 spigot;
#X msg 293 192 1;
#X msg 236 239 rewind;
#X msg 189 227 this;
#X msg 128 225 delete;
#X obj 426 435 print current;
#X obj 224 107 t b a b;
#X obj 426 408 msgfile;
#X obj 500 409 print msg;
#X obj 151 205 t b b b;
#X text 23 44 Reset all;
#X obj 224 81 inlet;
#X text 182 23 Test data;
#X obj 394 65 t b f;
#X msg 321 107 0;
#X msg 293 239 add \$1 \$2 \$3;
#X obj 341 435 outlet;
#X obj 277 380 s \$0-msgfile3;
#X obj 426 382 r \$0-msgfile3;
#X obj 32 144 s \$0-msgfile3;
#X obj 19 17 loadbang;
#X connect 0 0 25 0;
#X connect 1 0 2 0;
#X connect 1 0 8 0;
#X connect 2 0 1 1;
#X connect 3 0 4 0;
#X connect 3 0 5 0;
#X connect 4 0 3 1;
#X connect 5 0 18 0;
#X connect 6 0 3 0;
#X connect 7 0 29 0;
#X connect 8 0 13 0;
#X connect 9 0 31 0;
#X connect 10 0 9 0;
#X connect 10 0 3 1;
#X connect 10 0 12 1;
#X connect 10 0 1 1;
#X connect 11 0 10 0;
#X connect 12 0 21 0;
#X connect 13 0 12 1;
#X connect 14 0 29 0;
#X connect 15 0 29 0;
#X connect 16 0 29 0;
#X connect 18 0 12 0;
#X connect 18 1 27 0;
#X connect 18 2 1 0;
#X connect 19 0 28 0;
#X connect 21 0 16 0;
#X connect 21 1 15 0;
#X connect 21 2 14 0;
#X connect 23 0 18 0;
#X connect 25 0 26 0;
#X connect 25 1 8 1;
#X connect 26 0 1 1;
#X connect 27 0 29 0;
#X connect 30 0 19 0;
#X connect 32 0 10 0;
#X restore 88 249 pd 15DelayThree;
#X msg 318 225 1;
#X msg 168 284 1;
#X msg 166 224 15;
#N canvas 0 22 474 324 vtxDrawing 0;
#X obj 277 239 inlet;
#X obj 352 238 inlet;
#X obj 28 454 GEMglEnd;
#X obj 29 229 GEMglColor4f 1 0 0 0;
#X obj 29 362 GEMglColor3f 0 1 0;
#X obj 29 303 GEMglColor3f 0 0 1;
#X floatatom 34 51 5 0 0 0 - - -;
#X obj 215 116 GLdefine GL_SMOOTH;
#X obj 215 94 loadbang;
#X obj 334 162 loadbang;
#X obj 165 165 GLdefine GL_POLYGON;
#X obj 29 183 GEMglBegin;
#X obj 29 141 GEMglShadeModel;
#X obj 180 450 loadbang;
#X obj 27 490 GEMglShadeModel;
#X obj 180 472 GLdefine GL_FLAT;
#X obj 28 406 GEMglColor3fv 1 1 0;
#X obj 28 429 GEMglVertex3fv 0 1 0;
#X msg 219 409 1 0 1;
#X msg 221 432 1 1 0;
#X floatatom 210 256 3 0 100 0 - - -;
#X obj 210 277 * 0.01;
#X msg 285 96 bang;
#X obj 28 383 GEMglVertex3fv 1 0 0;
#X obj 29 326 GEMglVertex3fv 0 -1 0;
#X obj 29 250 GEMglVertex3fv -1 0 0;
#X obj 386 272 inlet;
#X obj 461 271 inlet;
#X obj 29 7 inlet;
#X obj 366 125 GLdefine GL_QUADS;
#X obj 402 59 GEMglFrontFace;
#X obj 391 32 GLdefine GL_CCW;
#X obj 264 38 GLdefine GL_CW;
#X msg 292 16 bang;
#X msg 401 11 bang;
#X msg 165 145 bang;
#X obj 316 184 GLdefine GL_LINE_LOOP;
#X floatatom 73 52 5 0 0 0 - - -;
#X floatatom 114 52 5 0 0 0 - - -;
#X floatatom 156 52 5 0 0 0 - - -;
#X obj 29 29 GEMglPushMatrix;
#X obj 27 514 GEMglPopMatrix;
#X msg 366 104 bang;
#X floatatom 38 96 5 0 0 0 - - -;
#X floatatom 77 97 5 0 0 0 - - -;
#X floatatom 117 97 5 0 0 0 - - -;
#X msg 411 156 bang;
#X msg 181 195 bang;
#X obj 181 214 GLdefine GL_LINES;
#X obj 29 116 GEMglScalef 3 3 3 0;
#X obj 29 69 GEMglTranslatef -3 -2.5 -2 0;
#X connect 0 0 25 1;
#X connect 1 0 24 1;
#X connect 2 0 14 0;
#X connect 3 0 25 0;
#X connect 4 0 23 0;
#X connect 5 0 24 0;
#X connect 6 0 50 1;
#X connect 7 0 12 1;
#X connect 8 0 7 0;
#X connect 9 0 36 0;
#X connect 10 0 11 1;
#X connect 11 0 3 0;
#X connect 12 0 11 0;
#X connect 13 0 15 0;
#X connect 14 0 41 0;
#X connect 15 0 14 1;
#X connect 16 0 17 0;
#X connect 17 0 2 0;
#X connect 18 0 16 1;
#X connect 19 0 16 1;
#X connect 20 0 21 0;
#X connect 21 0 5 2;
#X connect 22 0 7 0;
#X connect 23 0 16 0;
#X connect 24 0 4 0;
#X connect 25 0 5 0;
#X connect 26 0 23 1;
#X connect 27 0 17 1;
#X connect 28 0 40 0;
#X connect 29 0 11 1;
#X connect 31 0 30 1;
#X connect 32 0 30 1;
#X connect 33 0 32 0;
#X connect 34 0 31 0;
#X connect 35 0 10 0;
#X connect 36 0 11 1;
#X connect 37 0 50 2;
#X connect 38 0 50 3;
#X connect 40 0 50 0;
#X connect 42 0 29 0;
#X connect 43 0 49 1;
#X connect 44 0 49 2;
#X connect 45 0 49 3;
#X connect 46 0 36 0;
#X connect 47 0 48 0;
#X connect 48 0 11 1;
#X connect 49 0 12 0;
#X connect 50 0 49 0;
#X restore 218 425 pd vtxDrawing;
#X obj 82 348 gemhead 10;
#X obj 82 387 repeat 1;
#X obj 146 387 r steps;
#X obj 82 409 t b a b;
#X obj 26 409 s again;
#X obj 293 34 cnv 15 100 60 empty empty empty 20 12 0 14 -195568 -66577
0;
#N canvas 609 24 563 400 gemwin 0;
#X obj 132 136 gemwin;
#X obj 67 89 outlet;
#X obj 67 10 inlet;
#X obj 67 41 route create;
#X msg 67 70 set destroy;
#X msg 142 68 set create;
#X msg 198 112 destroy;
#X obj 75 134 tgl 15 0 empty empty empty 0 -6 0 8 -262144 -1 -1 0 1
;
#X obj 313 45 gemhead;
#X obj 313 73 world_light;
#X msg 319 120 lighting \$1;
#X obj 319 100 tgl 15 0 empty empty empty 0 -6 0 8 -262144 -1 -1 0
1;
#N canvas 613 126 652 629 mouse3d 0;
#X obj 240 143 f;
#X obj 161 124 spigot;
#X obj 222 115 sel 0 1;
#X obj 192 96 t f f;
#X obj 161 172 -;
#X obj 158 211 +;
#X obj 222 185 f;
#X obj 114 140 f;
#X obj 35 121 spigot;
#X obj 96 112 sel 0 1;
#X obj 66 93 t f f;
#X obj 35 172 -;
#X obj 35 221 +;
#X obj 96 182 f;
#X obj 361 134 f;
#X obj 282 118 spigot;
#X obj 343 109 sel 0 1;
#X obj 313 90 t f f;
#X obj 282 169 -;
#X obj 343 179 f;
#X obj 35 437 * 4;
#X obj 90 439 * 4;
#X obj 111 280 t b f;
#X obj 49 344 cos;
#X obj 61 402 * 1;
#X obj 35 402 * 1;
#X obj 87 345 sin;
#X obj 62 438 * 4;
#X obj 49 366 t b f;
#X obj 49 320 / 200;
#X obj 413 21 gemmouse;
#X obj 392 217 t b f;
#X obj 392 246 |;
#X obj 364 322 gemhead;
#X obj 368 275 loadbang;
#X msg 364 297 0;
#X obj 364 397 curve 2;
#X obj 364 348 color 1 0 0;
#X obj 448 322 gemhead;
#X obj 448 397 curve 2;
#X obj 528 324 gemhead;
#X obj 528 399 curve 2;
#X msg 401 371 3 0 0;
#X msg 485 371 0 3 0;
#X msg 565 373 0 0 3;
#X obj 448 348 color 0 1 0;
#X obj 528 348 color 0 0 1;
#X obj 35 280 sin;
#X obj 61 281 cos;
#X obj 282 218 + 200;
#X obj 112 254 / 50;
#X floatatom 238 434 5 0 0 0 - - -;
#X floatatom 169 436 5 0 0 0 - - -;
#X obj 35 255 / -200;
#X obj 35 522 outlet;
#X obj 197 283 t f f;
#X obj 227 307 <= 314;
#X obj 35 461 pack f f f f;
#X msg 35 486 view \$1 \$2 \$3 0 0 0 0 \$4 0;
#X obj 227 329 select 1;
#X msg 226 350 1;
#X msg 278 350 -1;
#X text 237 450 mouseY;
#X text 166 451 mouseX;
#X connect 0 0 4 1;
#X connect 1 0 4 0;
#X connect 2 0 6 0;
#X connect 2 1 0 0;
#X connect 3 0 1 1;
#X connect 3 1 2 0;
#X connect 4 0 5 0;
#X connect 5 0 6 1;
#X connect 5 0 29 0;
#X connect 5 0 55 0;
#X connect 6 0 5 1;
#X connect 7 0 11 1;
#X connect 8 0 11 0;
#X connect 9 0 13 0;
#X connect 9 1 7 0;
#X connect 10 0 8 1;
#X connect 10 1 9 0;
#X connect 11 0 12 0;
#X connect 12 0 13 1;
#X connect 12 0 52 0;
#X connect 12 0 53 0;
#X connect 13 0 12 1;
#X connect 14 0 18 1;
#X connect 15 0 18 0;
#X connect 16 0 19 0;
#X connect 16 1 14 0;
#X connect 17 0 15 1;
#X connect 17 1 16 0;
#X connect 18 0 49 0;
#X connect 19 0 49 1;
#X connect 20 0 57 0;
#X connect 21 0 57 2;
#X connect 22 0 21 0;
#X connect 22 0 20 0;
#X connect 22 0 27 0;
#X connect 22 1 21 1;
#X connect 22 1 20 1;
#X connect 22 1 27 1;
#X connect 23 0 28 0;
#X connect 24 0 21 0;
#X connect 25 0 20 0;
#X connect 26 0 27 0;
#X connect 27 0 57 1;
#X connect 28 0 24 0;
#X connect 28 0 25 0;
#X connect 28 1 24 1;
#X connect 28 1 25 1;
#X connect 29 0 23 0;
#X connect 29 0 26 0;
#X connect 30 0 8 0;
#X connect 30 0 7 1;
#X connect 30 1 1 0;
#X connect 30 1 0 1;
#X connect 30 1 14 1;
#X connect 30 1 15 0;
#X connect 30 2 3 0;
#X connect 30 2 10 0;
#X connect 30 2 32 0;
#X connect 30 3 17 0;
#X connect 30 3 31 0;
#X connect 31 0 32 0;
#X connect 31 1 32 1;
#X connect 32 0 33 0;
#X connect 32 0 38 0;
#X connect 32 0 40 0;
#X connect 33 0 37 0;
#X connect 34 0 35 0;
#X connect 34 0 42 0;
#X connect 34 0 43 0;
#X connect 34 0 44 0;
#X connect 34 0 53 0;
#X connect 34 0 49 0;
#X connect 35 0 33 0;
#X connect 35 0 38 0;
#X connect 35 0 40 0;
#X connect 37 0 36 0;
#X connect 38 0 45 0;
#X connect 40 0 46 0;
#X connect 42 0 36 2;
#X connect 43 0 39 2;
#X connect 44 0 41 2;
#X connect 45 0 39 0;
#X connect 46 0 41 0;
#X connect 47 0 25 0;
#X connect 48 0 24 0;
#X connect 49 0 19 1;
#X connect 49 0 50 0;
#X connect 50 0 22 0;
#X connect 53 0 47 0;
#X connect 53 0 48 0;
#X connect 55 0 51 0;
#X connect 55 1 56 0;
#X connect 56 0 59 0;
#X connect 57 0 58 0;
#X connect 58 0 54 0;
#X connect 59 0 60 0;
#X connect 59 1 61 0;
#X connect 60 0 57 3;
#X connect 61 0 57 3;
#X restore 313 19 pd mouse3d;
#X msg 143 223 frame \$1;
#X floatatom 162 198 5 0 0 0 - - -;
#X msg 252 166 view 0 0 4 0 0 0 0 1 0;
#X msg 257 142 view 0 0 -4 0 0 0 0 1 0;
#X obj 173 22 inlet;
#X obj 243 20 inlet;
#X floatatom 230 240 5 0 0 0 - - -;
#X floatatom 348 192 5 0 0 0 - - -;
#X floatatom 285 213 5 0 0 0 - - -;
#X obj 285 232 t b f;
#X obj 417 267 select 1;
#X msg 417 289 1;
#X msg 468 289 -1;
#X obj 417 245 <= 0;
#X obj 346 228 t b f f;
#X obj 243 262 pack 0 0 0 0;
#X msg 243 316 view \$1 \$2 \$3 0 0 0 0 \$4 0;
#X msg 132 112 create;
#X connect 2 0 3 0;
#X connect 3 0 4 0;
#X connect 3 0 30 0;
#X connect 3 1 5 0;
#X connect 3 1 6 0;
#X connect 4 0 1 0;
#X connect 5 0 1 0;
#X connect 6 0 0 0;
#X connect 7 0 0 0;
#X connect 8 0 9 0;
#X connect 10 0 0 0;
#X connect 11 0 10 0;
#X connect 12 0 0 0;
#X connect 13 0 0 0;
#X connect 14 0 13 0;
#X connect 15 0 0 0;
#X connect 16 0 0 0;
#X connect 17 0 0 0;
#X connect 18 0 13 0;
#X connect 19 0 28 0;
#X connect 20 0 27 0;
#X connect 21 0 22 0;
#X connect 22 0 28 0;
#X connect 22 1 28 1;
#X connect 23 0 24 0;
#X connect 23 1 25 0;
#X connect 24 0 28 3;
#X connect 25 0 28 3;
#X connect 26 0 23 0;
#X connect 27 0 28 0;
#X connect 27 1 28 2;
#X connect 27 2 26 0;
#X connect 28 0 29 0;
#X connect 29 0 0 0;
#X connect 30 0 0 0;
#X restore 298 73 pd gemwin;
#X msg 298 54 create;
#X text 294 33 Create window:;
#X floatatom 417 49 5 0 0 0 - - -;
#X obj 404 22 tgl 15 0 empty empty empty 0 -6 0 8 -262144 -1 -1 0 1
;
#X obj 46 76 bng 15 250 50 0 empty empty empty 0 -6 0 8 -262144 -1
-1;
#X obj 172 176 t l l l l;
#X msg 234 91 0;
#X obj 103 273 t l l l;
#X obj 181 361 t l l;
#X obj 102 209 loadbang;
#X obj 99 466 rotateXYZ;
#X floatatom 59 441 5 0 0 0 - - -;
#X floatatom 115 439 5 0 0 0 - - -;
#X floatatom 169 468 5 0 0 0 - - -;
#X floatatom 293 445 5 0 0 0 - - -;
#X floatatom 349 443 5 0 0 0 - - -;
#X floatatom 403 445 5 0 0 0 - - -;
#X obj 333 470 translateXYZ;
#X obj 15 5 loadbang;
#X obj 132 6 t b b b;
#X msg 112 33 13;
#X msg 154 31 13;
#X msg 195 33 1;
#X obj 82 367 ortho;
#X connect 0 0 10 0;
#X connect 0 1 8 0;
#X connect 1 0 7 0;
#X connect 2 0 7 1;
#X connect 3 0 7 2;
#X connect 7 0 0 1;
#X connect 9 0 0 0;
#X connect 10 0 30 0;
#X connect 11 0 17 1;
#X connect 12 0 17 2;
#X connect 13 0 32 0;
#X connect 14 0 11 1;
#X connect 15 0 12 1;
#X connect 16 0 13 1;
#X connect 18 0 48 0;
#X connect 19 0 21 0;
#X connect 20 0 19 1;
#X connect 21 0 22 0;
#X connect 21 1 42 0;
#X connect 24 0 25 0;
#X connect 25 0 24 0;
#X connect 27 0 24 2;
#X connect 28 0 24 1;
#X connect 29 0 0 0;
#X connect 30 1 17 4;
#X connect 30 2 11 0;
#X connect 30 3 13 0;
#X connect 31 0 0 2;
#X connect 32 1 17 3;
#X connect 32 2 12 0;
#X connect 34 0 16 0;
#X connect 34 0 15 0;
#X connect 34 0 14 0;
#X connect 35 0 17 0;
#X connect 36 0 35 1;
#X connect 37 0 35 2;
#X connect 38 0 35 3;
#X connect 39 0 42 1;
#X connect 40 0 42 2;
#X connect 41 0 42 3;
#X connect 42 0 35 0;
#X connect 43 0 44 0;
#X connect 44 0 45 0;
#X connect 44 1 46 0;
#X connect 44 2 47 0;
#X connect 45 0 1 0;
#X connect 46 0 2 0;
#X connect 47 0 3 0;
#X connect 48 0 19 0;
