#N canvas 7 179 996 981 10;
#X obj 353 907 dac~;
#X obj 556 -48 dumpOSC 10001;
#X floatatom 574 35 5 0 0 0 - - -;
#X obj 300 641 ../cmp/mixer;
#X obj 622 297 ../drm/dd.bd;
#X obj 568 230 OSCroute /drm1;
#X obj 652 636 *~ 1;
#X obj 651 664 ../cmp/mixer;
#X obj 749 259 ../drm/dd.hh;
#X obj 799 769 bng 15 250 50 0 /base/f/freq empty empty 0 -6 0 8 -262144
-1 -1;
#X obj 840 820 sendOSC;
#X obj 856 780 bng 15 250 50 0 empty empty empty 0 -6 0 8 -262144 -1
-1;
#X msg 856 800 connect localhost 10011;
#X obj 855 764 loadbang;
#X obj 809 798 spigot;
#X obj 827 781 tgl 15 0 empty empty empty 0 -6 0 8 -262144 -1 -1 1
1;
#X msg 824 742 send /base/f/freq \$1;
#X obj 672 609 *~ 1;
#X obj 749 226 OSCroute /hh;
#X msg 761 188 bang;
#X obj 742 35 ../cmp/multi_osc1;
#X obj 763 -52 hsl 128 15 1 127 1 0 empty empty empty -2 -8 0 10 -262144
-1 -1 10500 1;
#X obj 753 0 mtof;
#X obj 753 -24 int;
#X obj 855 360 ../drm/dd.sn;
#X obj 363 197 ../cmp/bird_chirp;
#X obj 854 324 OSCroute /snare1;
#X obj 858 225 hsl 128 15 0 127 0 0 empty empty empty -2 -8 0 10 -262144
-1 -1 7800 1;
#X msg 947 223 tun \$1;
#X obj 859 201 hsl 128 15 0 127 0 0 empty empty empty -2 -8 0 10 -262144
-1 -1 9400 1;
#X msg 945 200 dec \$1;
#X obj 38 194 *~;
#X obj 4 41 ../cmp/multi_osc1;
#X obj 150 41 ../cmp/multi_osc1;
#X obj 349 602 *~ 1;
#X obj 115 -42 hsl 128 15 0 127 0 0 empty empty empty -2 -8 0 10 -262144
-1 -1 5100 0;
#X obj 105 10 mtof;
#X obj 105 -14 int;
#X obj 259 -52 hsl 128 15 0 127 0 0 empty empty empty -2 -8 0 10 -262144
-1 -1 0 1;
#X obj 249 0 mtof;
#X obj 249 -24 int;
#X obj 294 -25 hsl 128 15 0 127 0 0 empty empty empty -2 -8 0 10 -262144
-1 -1 400 1;
#X obj 131 240 ../cmp/multi_osc1;
#X obj 134 177 hsl 128 15 0 127 0 0 empty empty empty -2 -8 0 10 -262144
-1 -1 0 1;
#X obj 131 218 mtof;
#X obj 131 197 int;
#X obj 176 195 hsl 128 15 0 127 0 0 empty empty empty -2 -8 0 10 -262144
-1 -1 100 1;
#X obj 39 340 *~;
#X floatatom 390 -25 5 0 0 0 - - -;
#X floatatom 275 195 5 0 0 0 - - -;
#X obj 11 -62 OSCroute /buzz;
#X obj 3 -33 OSCroute /osc1;
#X obj 150 -16 OSCroute /osc2;
#X obj 218 216 OSCroute /osc3;
#X floatatom 210 -43 5 0 0 0 - - -;
#X obj 113 -63 OSCroute /n;
#X obj 586 169 hsl 128 15 0 127 0 0 empty empty empty -2 -8 0 10 -262144
-1 -1 4800 1;
#X obj 587 145 hsl 128 15 0 127 0 0 empty empty empty -2 -8 0 10 -262144
-1 -1 10700 1;
#X msg 661 147 decay \$1;
#X msg 672 171 afk \$1;
#X obj 586 193 hsl 128 15 0 127 0 0 empty empty empty -2 -8 0 10 -262144
-1 -1 1500 1;
#X msg 672 195 efk \$1;
#X obj 587 121 hsl 128 15 0 127 0 0 empty empty empty -2 -8 0 10 -262144
-1 -1 3500 1;
#X msg 661 123 dist \$1;
#X obj 49 502 expr~ tanh($f3*$v1)/$f2;
#X obj 119 430 hsl 128 15 0.5 5 0 0 empty empty empty -2 -8 0 10 -262144
-1 -1 1500 1;
#X obj 188 481 hsl 128 15 1 127 1 0 empty empty empty -2 -8 0 10 -262144
-1 -1 0 1;
#X floatatom 215 430 5 0 0 0 - - -;
#X floatatom 288 483 5 0 0 0 - - -;
#X obj 116 377 loadbang;
#X msg 116 406 1;
#X msg 185 457 1;
#X connect 1 0 5 0;
#X connect 1 0 18 0;
#X connect 1 0 26 0;
#X connect 1 0 50 0;
#X connect 3 0 0 0;
#X connect 3 1 0 1;
#X connect 4 0 6 0;
#X connect 5 0 4 0;
#X connect 6 0 7 0;
#X connect 6 0 7 1;
#X connect 7 0 0 0;
#X connect 7 1 0 1;
#X connect 8 0 17 0;
#X connect 11 0 12 0;
#X connect 12 0 10 0;
#X connect 13 0 11 0;
#X connect 14 0 10 0;
#X connect 15 0 14 1;
#X connect 16 0 9 0;
#X connect 16 0 14 0;
#X connect 17 0 7 2;
#X connect 17 0 7 3;
#X connect 18 0 8 0;
#X connect 19 0 8 0;
#X connect 20 0 7 4;
#X connect 20 0 7 5;
#X connect 21 0 23 0;
#X connect 22 0 20 0;
#X connect 23 0 22 0;
#X connect 24 0 7 6;
#X connect 24 0 7 7;
#X connect 25 0 3 2;
#X connect 25 0 3 3;
#X connect 26 0 24 0;
#X connect 27 0 28 0;
#X connect 28 0 24 0;
#X connect 29 0 30 0;
#X connect 30 0 24 0;
#X connect 31 0 47 0;
#X connect 32 0 31 0;
#X connect 33 0 31 1;
#X connect 34 0 3 4;
#X connect 34 0 3 5;
#X connect 35 0 37 0;
#X connect 35 0 54 0;
#X connect 36 0 32 0;
#X connect 37 0 36 0;
#X connect 38 0 40 0;
#X connect 39 0 33 0;
#X connect 40 0 39 0;
#X connect 41 0 33 0;
#X connect 41 0 48 0;
#X connect 42 0 47 1;
#X connect 43 0 45 0;
#X connect 44 0 42 0;
#X connect 45 0 44 0;
#X connect 46 0 42 0;
#X connect 46 0 49 0;
#X connect 47 0 34 0;
#X connect 47 0 64 0;
#X connect 50 0 51 0;
#X connect 50 0 52 0;
#X connect 50 0 53 0;
#X connect 50 0 55 0;
#X connect 51 0 32 2;
#X connect 52 0 33 2;
#X connect 53 0 42 2;
#X connect 55 0 35 0;
#X connect 56 0 59 0;
#X connect 57 0 58 0;
#X connect 58 0 4 0;
#X connect 59 0 4 0;
#X connect 60 0 61 0;
#X connect 61 0 4 0;
#X connect 62 0 63 0;
#X connect 63 0 4 0;
#X connect 64 0 3 0;
#X connect 64 0 3 1;
#X connect 65 0 64 1;
#X connect 65 0 67 0;
#X connect 66 0 64 2;
#X connect 66 0 68 0;
#X connect 69 0 70 0;
#X connect 69 0 71 0;
#X connect 70 0 65 0;
#X connect 71 0 66 0;
