#N canvas 113 171 689 525 10;
#N canvas 741 146 531 558 impl 0;
#X obj 48 281 osc~;
#X obj 50 129 hsl 128 15 1 1000 1 0 ipod_f empty empty -2 -6 0 8 -262144
-1 -1 0 1;
#X obj 48 255 +~;
#X obj 64 230 hsl 128 15 1 10000 1 0 ipod_o empty empty -2 -6 0 8 -262144
-1 -1 0 1;
#X obj 47 208 *~;
#X obj 63 176 hsl 128 15 1 10000 1 0 ipod_m empty empty -2 -6 0 8 -262144
-1 -1 0 1;
#X text 54 128 frequency;
#X text 68 229 offset;
#X floatatom 149 130 5 0 0 0 - - -;
#X floatatom 159 176 5 0 0 0 - - -;
#X floatatom 162 230 5 0 0 0 - - -;
#X text 67 175 multiplier;
#X obj 47 150 osc~;
#X obj 48 310 dac~;
#X obj 20 5 ipod_decode;
#X obj 47 97 route 1 2 3;
#X obj 80 61 pack f f;
#X obj 98 36 t f b;
#X msg 8 38 1;
#X msg 36 38 2;
#X msg 67 34 3;
#X obj 164 6 s ipod_1;
#X obj 165 30 s ipod_2;
#X obj 166 51 s ipod_3;
#X obj 165 111 s ipod_6;
#X obj 167 92 s ipod_5;
#X obj 167 72 s ipod_4;
#X obj 226 91 loadbang;
#X msg 226 114 1;
#X msg 227 137 \; pd dsp \$1;
#X obj 149 279 + 1;
#X obj 119 277 f;
#X obj 117 255 bng 15 250 50 0 empty empty empty 0 -6 0 8 -262144 -1
-1;
#X floatatom 125 304 5 0 0 0 - - accum;
#X connect 0 0 13 1;
#X connect 0 0 13 0;
#X connect 1 0 8 0;
#X connect 1 0 12 0;
#X connect 2 0 0 0;
#X connect 3 0 2 1;
#X connect 3 0 10 0;
#X connect 4 0 2 0;
#X connect 5 0 4 1;
#X connect 5 0 9 0;
#X connect 12 0 4 0;
#X connect 14 0 18 0;
#X connect 14 0 21 0;
#X connect 14 0 32 0;
#X connect 14 1 19 0;
#X connect 14 1 22 0;
#X connect 14 2 20 0;
#X connect 14 2 23 0;
#X connect 14 3 26 0;
#X connect 14 4 17 0;
#X connect 14 4 25 0;
#X connect 14 5 24 0;
#X connect 15 0 1 0;
#X connect 15 1 5 0;
#X connect 15 2 3 0;
#X connect 16 0 15 0;
#X connect 17 0 16 1;
#X connect 17 1 16 0;
#X connect 18 0 16 0;
#X connect 19 0 16 0;
#X connect 20 0 16 0;
#X connect 27 0 28 0;
#X connect 28 0 29 0;
#X connect 30 0 31 1;
#X connect 31 0 30 0;
#X connect 31 0 33 0;
#X connect 32 0 31 0;
#X restore 45 117 pd impl;
#X obj 13 10 hsl 128 15 1 1000 1 0 empty ipod_f empty -2 -6 0 8 -262144
-1 -1 0 1;
#X obj 14 28 hsl 128 15 1 10000 1 0 empty ipod_m empty -2 -6 0 8 -262144
-1 -1 0 1;
#X obj 15 47 hsl 128 15 1 10000 1 0 empty ipod_o empty -2 -6 0 8 -262144
-1 -1 0 1;
#X text 91 9 f;
#X text 92 26 m;
#X text 89 47 o;
#X floatatom 148 10 5 0 0 0 - ipod_f -;
#X floatatom 150 29 5 0 0 0 - ipod_m -;
#X floatatom 150 47 5 0 0 0 - ipod_o -;
#X floatatom 7 67 5 0 0 0 - ipod_1 -;
#X floatatom 40 68 5 0 0 0 - ipod_2 -;
#X floatatom 75 68 5 0 0 0 - ipod_3 -;
#X floatatom 9 84 5 0 0 0 - ipod_4 -;
#X floatatom 43 84 5 0 0 0 - ipod_5 -;
#X floatatom 78 85 5 0 0 0 - ipod_6 -;
#X floatatom 118 70 5 0 0 0 - accum -;
