#N canvas 554 325 487 432 10;
#X obj 19 6 r stdin;
#X obj 19 28 route 119 109 100 102;
#X obj 212 102 route 114 108 10;
#X obj 212 238 outlet;
#X obj 20 133 outlet;
#X obj 67 133 outlet;
#X obj 115 133 outlet;
#X obj 163 133 outlet;
#X obj 212 193 float;
#X floatatom 212 218 5 0 0 0 - - -;
#X obj 255 193 + 1;
#X msg 243 148 1;
#X msg 285 149 -1;
#X obj 212 127 t b b;
#X obj 255 127 t b b;
#X obj 292 284 outlet;
#X obj 346 264 spigot;
#X msg 366 211 0;
#X msg 336 210 1;
#X msg 346 291 \; pd quit;
#X obj 250 10 netreceive 3333 1;
#X obj 245 31 route w m d f;
#X obj 331 56 route r l b;
#X obj 176 11 inlet;
#X msg 366 166 bang;
#X msg 20 101 1;
#X msg 67 101 1;
#X msg 115 101 1;
#X msg 163 101 1;
#X obj 366 189 del 50;
#X connect 0 0 1 0;
#X connect 1 0 25 0;
#X connect 1 1 26 0;
#X connect 1 2 27 0;
#X connect 1 3 28 0;
#X connect 1 4 2 0;
#X connect 2 0 13 0;
#X connect 2 1 14 0;
#X connect 2 2 15 0;
#X connect 2 2 18 0;
#X connect 2 2 24 0;
#X connect 8 0 9 0;
#X connect 8 0 10 0;
#X connect 9 0 3 0;
#X connect 10 0 8 1;
#X connect 11 0 10 1;
#X connect 12 0 10 1;
#X connect 13 0 8 0;
#X connect 13 1 11 0;
#X connect 14 0 8 0;
#X connect 14 1 12 0;
#X connect 16 0 19 0;
#X connect 17 0 16 1;
#X connect 18 0 16 1;
#X connect 20 0 21 0;
#X connect 21 0 4 0;
#X connect 21 1 5 0;
#X connect 21 2 6 0;
#X connect 21 3 7 0;
#X connect 21 4 22 0;
#X connect 22 0 13 0;
#X connect 22 1 14 0;
#X connect 22 2 15 0;
#X connect 23 0 8 0;
#X connect 24 0 29 0;
#X connect 25 0 4 0;
#X connect 26 0 5 0;
#X connect 26 0 16 0;
#X connect 27 0 6 0;
#X connect 28 0 7 0;
#X connect 29 0 17 0;
