#N canvas 771 54 520 605 10;
#X obj 76 22 gemhead;
#X obj 76 347 glsl_program;
#X msg 33 143 print;
#X obj 164 197 change;
#X msg 34 308 print;
#X floatatom 164 223 2 0 0 0 ID - -;
#X obj 182 268 print linking;
#X obj 76 391 rotateXYZ;
#X floatatom 95 369 5 0 0 0 - - -;
#X floatatom 139 369 5 0 0 0 - - -;
#X floatatom 181 369 5 0 0 0 - - -;
#X obj 76 469 pix_image;
#X msg 103 440 open test.jpg;
#X obj 76 540 pix_texture;
#X msg 410 83 color 1 0 0;
#X obj 393 130 gemwin;
#X msg 393 59 create \, 1;
#X msg 425 107 destroy;
#X obj 86 123 bng 15 250 50 0 empty empty empty 0 -6 0 8 -262144 -1
-1;
#X msg 86 147 open texture.frag;
#X obj 76 177 glsl_fragment;
#X text 118 121 <-load shader;
#X text 215 439 <- load texture;
#X msg 106 515 mode \$1;
#X obj 106 495 tgl 15 0 empty empty empty 17 7 0 10 -262144 -1 -1 0
1;
#X obj 103 415 loadbang;
#X msg 162 490 0;
#X obj 162 471 loadbang;
#X obj 304 142 vradio 15 1 0 9 empty empty empty 0 -8 0 10 -262144
-1 -1 5;
#X floatatom 304 286 5 0 0 0 - - -;
#X msg 304 307 shader_ \$1;
#X obj 76 564 square 4;
#X msg 164 247 link \$1;
#X connect 0 0 20 0;
#X connect 1 0 7 0;
#X connect 2 0 20 0;
#X connect 3 0 5 0;
#X connect 4 0 1 0;
#X connect 5 0 32 0;
#X connect 7 0 11 0;
#X connect 8 0 7 1;
#X connect 9 0 7 2;
#X connect 10 0 7 3;
#X connect 11 0 13 0;
#X connect 12 0 11 0;
#X connect 13 0 31 0;
#X connect 14 0 15 0;
#X connect 16 0 15 0;
#X connect 17 0 15 0;
#X connect 18 0 19 0;
#X connect 19 0 20 0;
#X connect 20 0 1 0;
#X connect 20 1 3 0;
#X connect 23 0 13 0;
#X connect 24 0 23 0;
#X connect 25 0 12 0;
#X connect 26 0 23 0;
#X connect 27 0 26 0;
#X connect 28 0 29 0;
#X connect 29 0 30 0;
#X connect 30 0 1 0;
#X connect 32 0 1 0;
#X connect 32 0 6 0;
