#N canvas 801 182 681 767 10;
#N canvas 0 0 450 300 (subpatch) 0;
#X array \$0-tab 235199 float 0;
#X coords 0 1 235198 -1 50 50 1;
#X restore 27 -193 graph;
#X obj 9 -97 soundfiler;
#X obj 9 -139 symbol \$0-tab;
#X obj 9 -158 bng 15 250 50 0 empty empty empty 17 7 0 10 -262144 -1
-1;
#X msg 9 -118 read -resize 90reg_e2.wav \$1;
#X obj 54 458 dac~;
#X obj 53 416 *~ 1;
#X obj 90 416 hsl 128 15 0 1 0 0 empty empty empty -2 -8 0 10 -262144
-1 -1 0 1;
#X floatatom 186 416 5 0 0 0 - - -;
#X text 88 414 volume;
#X obj 52 -72 metro 1000;
#X obj 120 -73 tgl 15 0 empty empty empty 17 7 0 10 -262144 -1 -1 0
1;
#X obj 52 -50 tabplay~ \$0-tab;
#X obj 162 58 * 1;
#X obj 165 37 hsl 128 15 0 100 0 0 empty empty empty -2 -8 0 10 -262144
-1 -1 0 1;
#X text 169 37 threshold;
#X floatatom 262 38 5 0 0 0 - - -;
#X obj 70 287 vline~;
#X obj 54 328 *~;
#X obj 70 266 pack 0 50;
#X obj 141 287 loadbang;
#X msg 113 287 1;
#X obj 307 38 hsl 128 15 0 127 0 0 empty empty empty -2 -8 0 10 -262144
-1 -1 0 1;
#X text 314 36 attack;
#X floatatom 404 38 5 0 0 0 - - -;
#X obj 259 -1 hsl 128 15 1 10 0 0 empty empty empty -2 -8 0 10 -262144
-1 -1 0 1;
#X text 263 -1 ratio;
#X floatatom 356 0 5 0 0 0 - - -;
#X obj 147 116 -;
#X floatatom 125 28 5 0 0 0 - - -;
#X obj 147 139 / 1;
#X obj 147 160 +;
#X obj 125 225 spigot;
#X obj 162 -69 osc~;
#X obj 164 -89 hsl 128 15 0 10000 0 0 empty empty empty -2 -8 0 10
-262144 -1 -1 0 1;
#X obj 162 -48 *~ 1;
#X obj 198 -47 hsl 128 15 0.0001 1 1 0 empty empty empty -2 -8 0 10
-262144 -1 -1 0 1;
#X obj 192 -26 tgl 15 0 empty empty empty 17 7 0 10 -262144 -1 -1 0
1;
#X obj 161 -26 *~ 0;
#X obj 88 -23 tgl 15 0 empty empty empty 17 7 0 10 -262144 -1 -1 0
1;
#X obj 52 -22 *~ 0;
#X obj 53 5 *~ 1;
#X floatatom 260 -88 5 0 0 0 - - -;
#X floatatom 294 -47 5 0 0 0 - - -;
#X obj 153 196 tgl 15 0 empty empty empty 17 7 0 10 -262144 -1 -1 0
1;
#X msg 70 239 1;
#X obj 87 385 env~;
#X obj 184 196 dbtorms;
#X obj 79 329 snapshot~;
#X floatatom 81 349 5 0 0 0 - - -;
#X obj 146 328 metro 100;
#X obj 185 217 dbtorms;
#X floatatom 316 216 5 0 0 0 - - -;
#X obj 279 217 /;
#X obj 144 451 *~ 1;
#X obj 180 450 hsl 128 15 0 1 0 0 empty empty empty -2 -8 0 10 -262144
-1 -1 0 1;
#X floatatom 277 451 5 0 0 0 - - -;
#X text 179 449 volume;
#N canvas 1067 253 577 491 avg 0;
#X obj 166 119 biquad~;
#X msg 214 81 0 1 0 1 0;
#X obj 214 59 loadbang;
#X msg 216 100 clear;
#X obj 163 34 abs~;
#X obj 106 255 biquad~;
#X msg 157 212 0 1 0 1 0;
#X obj 157 190 loadbang;
#X msg 159 231 clear;
#X msg 93 190 1;
#X obj 94 214 sig~;
#X obj 125 282 /~;
#X obj 295 229 snapshot~;
#X obj 288 113 bng 15 250 50 0 empty empty empty 17 7 0 10 -262144
-1 -1;
#X obj 329 33 metro 10;
#X obj 329 13 tgl 15 0 empty empty empty 17 7 0 10 -262144 -1 -1 1
1;
#X obj 246 279 f;
#X obj 246 320 rmstodb;
#X obj 331 66 t b b b;
#X obj 162 12 inlet~;
#X obj 246 416 outlet;
#X obj 329 -9 loadbang;
#X obj 374 11 inlet;
#X obj 400 334 inlet;
#X obj 246 369 >;
#X obj 93 170 loadbang;
#X obj 292 417 outlet;
#X floatatom 268 341 5 0 0 0 - - -;
#X text 165 169 accumulator;
#X text 206 13 signal integrator;
#X connect 0 0 11 0;
#X connect 1 0 0 0;
#X connect 2 0 1 0;
#X connect 3 0 0 0;
#X connect 4 0 0 0;
#X connect 5 0 11 1;
#X connect 6 0 5 0;
#X connect 7 0 6 0;
#X connect 8 0 5 0;
#X connect 9 0 10 0;
#X connect 10 0 5 0;
#X connect 11 0 12 0;
#X connect 12 0 16 1;
#X connect 13 0 3 0;
#X connect 13 0 8 0;
#X connect 14 0 18 0;
#X connect 15 0 14 0;
#X connect 16 0 17 0;
#X connect 17 0 24 0;
#X connect 17 0 26 0;
#X connect 17 0 27 0;
#X connect 18 0 13 0;
#X connect 18 1 16 0;
#X connect 18 2 12 0;
#X connect 19 0 4 0;
#X connect 21 0 15 0;
#X connect 22 0 14 1;
#X connect 23 0 24 1;
#X connect 24 0 20 0;
#X connect 25 0 9 0;
#X restore 288 84 pd avg;
#X obj 72 206 moses 0.5;
#X obj 72 28 env~ 64;
#X obj 301 429 hsl 128 15 0 1 0 0 empty empty empty -2 -8 0 10 -262144
-1 -1 0 1;
#X floatatom 398 430 5 0 0 0 - - -;
#X text 300 428 mix;
#X msg 327 473 1;
#X obj 327 494 -;
#X obj 326 446 t b f;
#X text 217 -204 doesn't work very well ...;
#X text 216 -161 ~ seems to be ok for short attack times (<10ms);
#X text 217 -189 ~ for some reason the gain incerases a lot when the
attack time is long;
#X obj 125 246 min 1;
#X text 162 243 added at end for a hard limit on gain but sorta destory
the concept of attack/release;
#X text 216 -148 ~ possibly the averaging fn should only trigger when
avg goes over a certain level (in pd avg);
#X msg 173 306 1000;
#X msg 133 308 5;
#X obj 70 308 lop~ 1000;
#X obj 209 328 tgl 15 0 empty empty empty 17 7 0 10 -262144 -1 -1 0
1;
#X text 219 -122 ~ the compress~ (test_compress~) in the list folder
works much better.;
#X text 173 139 the levels are in sync with the output as well;
#X obj 447 91 block~ 64;
#X floatatom 123 386 5 0 0 0 - - -;
#X text 227 151 some latency in the circuit might need delay;
#X text 321 -97 actually it is wrong! the attack should start as soon
as the level exceeds threshold and the gain applied over the attack
time.;
#X connect 2 0 4 0;
#X connect 3 0 2 0;
#X connect 4 0 1 0;
#X connect 6 0 5 0;
#X connect 6 0 5 1;
#X connect 7 0 6 1;
#X connect 7 0 8 0;
#X connect 10 0 12 0;
#X connect 11 0 10 0;
#X connect 12 0 40 0;
#X connect 13 0 28 1;
#X connect 13 0 31 1;
#X connect 14 0 16 0;
#X connect 14 0 13 0;
#X connect 14 0 58 2;
#X connect 17 0 48 0;
#X connect 17 0 75 0;
#X connect 18 0 6 0;
#X connect 18 0 46 0;
#X connect 19 0 17 0;
#X connect 20 0 21 0;
#X connect 21 0 17 0;
#X connect 22 0 24 0;
#X connect 22 0 58 1;
#X connect 25 0 27 0;
#X connect 25 0 30 1;
#X connect 28 0 30 0;
#X connect 29 0 47 0;
#X connect 30 0 31 0;
#X connect 31 0 51 0;
#X connect 32 0 70 0;
#X connect 33 0 35 0;
#X connect 34 0 33 0;
#X connect 34 0 42 0;
#X connect 35 0 38 0;
#X connect 36 0 35 1;
#X connect 36 0 43 0;
#X connect 37 0 38 1;
#X connect 38 0 41 0;
#X connect 39 0 40 1;
#X connect 40 0 41 0;
#X connect 41 0 18 0;
#X connect 41 0 54 0;
#X connect 41 0 58 0;
#X connect 41 0 60 0;
#X connect 44 0 32 1;
#X connect 44 0 59 0;
#X connect 45 0 19 0;
#X connect 46 0 80 0;
#X connect 47 0 53 1;
#X connect 48 0 49 0;
#X connect 50 0 48 0;
#X connect 51 0 53 0;
#X connect 52 0 32 0;
#X connect 53 0 52 0;
#X connect 54 0 5 0;
#X connect 54 0 5 1;
#X connect 55 0 54 1;
#X connect 55 0 56 0;
#X connect 58 0 44 0;
#X connect 58 1 28 0;
#X connect 59 0 45 0;
#X connect 60 0 29 0;
#X connect 61 0 62 0;
#X connect 61 0 66 0;
#X connect 61 0 7 0;
#X connect 64 0 65 0;
#X connect 65 0 55 0;
#X connect 66 0 64 0;
#X connect 66 1 65 1;
#X connect 70 0 19 0;
#X connect 73 0 75 1;
#X connect 74 0 75 1;
#X connect 75 0 18 1;
#X connect 76 0 50 0;
