#N canvas 922 107 914 787 10;
#X obj 58 674 *~ 1;
#X obj 58 699 dac~;
#X obj 95 674 hsl 128 15 0 10 0 0 empty empty empty -2 -8 0 10 -262144
-1 -1 1600 1;
#X floatatom 191 674 5 0 0 0 - - -;
#X text 104 675 vol;
#N canvas 0 0 450 300 (subpatch) 0;
#X array \$0-tab 235199 float 0;
#X coords 0 1 235198 -1 200 140 1;
#X restore 120 27 graph;
#X obj 26 204 soundfiler;
#X obj 26 149 symbol \$0-tab;
#X obj 34 130 bng 15 250 50 0 empty empty empty 17 7 0 10 -262144 -1
-1;
#X obj 57 281 metro 1000;
#X obj 25 242 tgl 15 0 empty empty empty 17 7 0 10 -262144 -1 -1 0
1;
#X obj 57 303 tabplay~ \$0-tab;
#X obj 57 353 *~ 1;
#X obj 94 333 tgl 15 0 empty empty empty 17 7 0 10 -262144 -1 -1 1
1;
#X obj 58 334 *~ 0;
#X msg 26 170 read -resize /media/disk1/media/samples/pfx/Bass_Stuff/90reg_e2.wav
\$1;
#N canvas 323 643 280 330 delay-reader 0;
#X obj 89 267 outlet~;
#X obj 112 163 inlet~;
#X obj 89 237 +~;
#X obj 112 198 vd~ \$0-del;
#X connect 1 0 3 0;
#X connect 2 0 0 0;
#X connect 3 0 2 1;
#X restore 90 523 pd delay-reader;
#X obj 89 473 sig~;
#X obj 91 451 hsl 128 15 1 500 0 0 empty empty empty -2 -8 0 10 -262144
-1 -1 400 1;
#X obj 90 544 *~ 1;
#X obj 124 544 hsl 128 15 0 1 0 0 empty empty empty -2 -8 0 10 -262144
-1 -1 7300 1;
#X floatatom 221 544 5 0 0 0 - - -;
#X text 130 544 del level;
#X floatatom 184 452 5 0 0 0 - - -;
#X text 96 451 del time;
#N canvas 206 632 600 400 delay-writer 0;
#X obj 96 107 inlet~;
#X obj 116 144 delwrite~ \$0-del 1000;
#X connect 0 0 1 0;
#X restore 89 416 pd delay-writer;
#X obj 57 644 +~;
#X obj 91 500 lop~ 5;
#N canvas 323 643 280 330 delay-reader 0;
#X obj 89 267 outlet~;
#X obj 112 163 inlet~;
#X obj 89 237 +~;
#X obj 112 198 vd~ \$0-del;
#X connect 1 0 3 0;
#X connect 2 0 0 0;
#X connect 3 0 2 1;
#X restore 264 518 pd delay-reader;
#X obj 263 468 sig~;
#X obj 265 446 hsl 128 15 1 500 0 0 empty empty empty -2 -8 0 10 -262144
-1 -1 3100 1;
#X obj 264 539 *~ 1;
#X obj 298 539 hsl 128 15 0 1 0 0 empty empty empty -2 -8 0 10 -262144
-1 -1 5600 1;
#X floatatom 395 539 5 0 0 0 - - -;
#X text 304 539 del level;
#X floatatom 358 447 5 0 0 0 - - -;
#X text 270 446 del time;
#X obj 265 495 lop~ 5;
#N canvas 323 643 280 330 delay-reader 0;
#X obj 89 267 outlet~;
#X obj 112 163 inlet~;
#X obj 89 237 +~;
#X obj 112 198 vd~ \$0-del;
#X connect 1 0 3 0;
#X connect 2 0 0 0;
#X connect 3 0 2 1;
#X restore 438 520 pd delay-reader;
#X obj 437 470 sig~;
#X obj 439 448 hsl 128 15 1 500 0 0 empty empty empty -2 -8 0 10 -262144
-1 -1 7000 1;
#X obj 438 541 *~ 1;
#X obj 472 541 hsl 128 15 0 1 0 0 empty empty empty -2 -8 0 10 -262144
-1 -1 3700 1;
#X floatatom 569 541 5 0 0 0 - - -;
#X text 478 541 del level;
#X floatatom 532 449 5 0 0 0 - - -;
#X text 444 448 del time;
#X obj 439 497 lop~ 5;
#N canvas 323 643 280 330 delay-reader 0;
#X obj 89 267 outlet~;
#X obj 112 163 inlet~;
#X obj 89 237 +~;
#X obj 112 198 vd~ \$0-del;
#X connect 1 0 3 0;
#X connect 2 0 0 0;
#X connect 3 0 2 1;
#X restore 623 519 pd delay-reader;
#X obj 622 469 sig~;
#X obj 624 447 hsl 128 15 1 500 0 0 empty empty empty -2 -8 0 10 -262144
-1 -1 10600 1;
#X obj 623 540 *~ 1;
#X obj 657 540 hsl 128 15 0 1 0 0 empty empty empty -2 -8 0 10 -262144
-1 -1 2900 1;
#X floatatom 754 540 5 0 0 0 - - -;
#X text 663 540 del level;
#X floatatom 717 448 5 0 0 0 - - -;
#X text 629 447 del time;
#X obj 624 496 lop~ 5;
#X obj 177 583 +~;
#X obj 551 588 +~;
#X obj 314 612 +~;
#X obj 94 382 +~;
#X obj 358 643 *~;
#X obj 399 646 hsl 128 15 0 1 0 0 empty empty empty -2 -8 0 10 -262144
-1 -1 2200 1;
#X floatatom 495 647 5 0 0 0 - - -;
#X connect 0 0 1 0;
#X connect 0 0 1 1;
#X connect 2 0 0 1;
#X connect 2 0 3 0;
#X connect 7 0 15 0;
#X connect 8 0 7 0;
#X connect 9 0 11 0;
#X connect 10 0 9 0;
#X connect 11 0 14 0;
#X connect 12 0 26 0;
#X connect 12 0 61 0;
#X connect 13 0 14 1;
#X connect 14 0 12 0;
#X connect 15 0 6 0;
#X connect 16 0 19 0;
#X connect 17 0 27 0;
#X connect 18 0 17 0;
#X connect 18 0 23 0;
#X connect 19 0 58 0;
#X connect 20 0 19 1;
#X connect 20 0 21 0;
#X connect 26 0 0 0;
#X connect 27 0 16 0;
#X connect 28 0 31 0;
#X connect 29 0 37 0;
#X connect 30 0 29 0;
#X connect 30 0 35 0;
#X connect 31 0 58 1;
#X connect 32 0 31 1;
#X connect 32 0 33 0;
#X connect 37 0 28 0;
#X connect 38 0 41 0;
#X connect 39 0 47 0;
#X connect 40 0 39 0;
#X connect 40 0 45 0;
#X connect 41 0 59 0;
#X connect 42 0 41 1;
#X connect 42 0 43 0;
#X connect 47 0 38 0;
#X connect 48 0 51 0;
#X connect 49 0 57 0;
#X connect 50 0 49 0;
#X connect 50 0 55 0;
#X connect 51 0 59 1;
#X connect 52 0 51 1;
#X connect 52 0 53 0;
#X connect 57 0 48 0;
#X connect 58 0 60 0;
#X connect 59 0 60 1;
#X connect 60 0 26 1;
#X connect 60 0 62 0;
#X connect 61 0 25 0;
#X connect 62 0 61 1;
#X connect 63 0 62 1;
#X connect 63 0 64 0;
