#N canvas 971 88 700 524 10;
#X obj 67 105 rpole~;
#X obj 67 80 rzero_rev~;
#X obj 67 154 rpole~;
#X obj 67 129 rzero_rev~;
#X obj 67 202 rpole~;
#X obj 67 177 rzero_rev~;
#X obj 67 251 rpole~;
#X obj 67 226 rzero_rev~;
#X obj 233 80 phasor~ 0.3;
#N canvas 0 0 450 300 (subpatch) 0;
#X array \$0-tab 235199 float 0;
#X coords 0 1 235198 -1 50 50 1;
#X restore 566 -42 graph;
#X obj 534 71 soundfiler;
#X obj 534 16 symbol \$0-tab;
#X obj 542 -3 bng 15 250 50 0 empty empty empty 17 7 0 10 -262144 -1
-1;
#X obj 19 -27 metro 1000;
#X obj 19 -50 tgl 15 0 empty empty empty 17 7 0 10 -262144 -1 -1 1
1;
#X obj 19 -5 tabplay~ \$0-tab;
#X obj 56 25 tgl 15 0 empty empty empty 17 7 0 10 -262144 -1 -1 1 1
;
#X obj 20 26 *~ 0;
#X msg 534 37 read -resize 90reg_e2.wav \$1;
#X obj 45 51 *~ 1;
#X obj 20 343 dac~;
#X obj 69 274 *~ 1;
#X obj 105 276 hsl 128 15 0 1 0 0 empty empty empty -2 -8 0 10 -262144
-1 -1 5500 1;
#X obj 20 318 +~;
#X floatatom 199 276 5 0 0 0 - - -;
#X text 111 276 mix;
#X obj 233 105 expr~ 1 - 0.03 - 0.6*abs($v1-0.5)*abs($v1-0.5);
#X obj 222 229 *~ 1;
#X obj 225 186 hsl 128 15 0.01 1 0 0 empty empty empty -2 -8 0 10 -262144
-1 -1 11800 1;
#X obj 222 207 sig~;
#X obj 19 297 *~ 1;
#X msg 103 301 1;
#X obj 103 322 -;
#X floatatom 322 185 5 0 0 0 - - -;
#X text 226 186 position;
#X connect 0 0 3 0;
#X connect 1 0 0 0;
#X connect 2 0 5 0;
#X connect 3 0 2 0;
#X connect 4 0 7 0;
#X connect 5 0 4 0;
#X connect 6 0 21 0;
#X connect 7 0 6 0;
#X connect 8 0 26 0;
#X connect 11 0 18 0;
#X connect 12 0 11 0;
#X connect 13 0 15 0;
#X connect 14 0 13 0;
#X connect 15 0 17 0;
#X connect 16 0 17 1;
#X connect 17 0 19 0;
#X connect 17 0 30 0;
#X connect 18 0 10 0;
#X connect 19 0 1 0;
#X connect 21 0 23 1;
#X connect 22 0 21 1;
#X connect 22 0 24 0;
#X connect 22 0 32 1;
#X connect 22 0 31 0;
#X connect 23 0 20 0;
#X connect 23 0 20 1;
#X connect 27 0 1 1;
#X connect 27 0 0 1;
#X connect 27 0 3 1;
#X connect 27 0 2 1;
#X connect 27 0 5 1;
#X connect 27 0 4 1;
#X connect 27 0 7 1;
#X connect 27 0 6 1;
#X connect 28 0 29 0;
#X connect 28 0 33 0;
#X connect 29 0 27 0;
#X connect 30 0 23 0;
#X connect 31 0 32 0;
#X connect 32 0 30 1;
