#N canvas 521 97 1013 712 10;
#N canvas 0 0 450 300 (subpatch) 0;
#X array \$0-tab 235199 float 0;
#X coords 0 1 235198 -1 50 50 1;
#X restore 75 -162 graph;
#X obj 43 -49 soundfiler;
#X obj 43 -104 symbol \$0-tab;
#X obj 51 -123 bng 15 250 50 0 empty empty empty 17 7 0 10 -262144
-1 -1;
#X obj 19 -27 metro 1000;
#X obj 19 -50 tgl 15 0 empty empty empty 17 7 0 10 -262144 -1 -1 1
1;
#X obj 19 -5 tabplay~ \$0-tab;
#X obj 56 25 tgl 15 0 empty empty empty 17 7 0 10 -262144 -1 -1 1 1
;
#X obj 20 26 *~ 0;
#X msg 43 -83 read -resize 90reg_e2.wav \$1;
#X obj 45 51 *~ 1;
#X obj 21 370 dac~;
#X obj 69 274 *~ 1;
#X obj 105 276 hsl 128 15 0 1 0 0 empty empty empty -2 -8 0 10 -262144
-1 -1 3200 1;
#X obj 20 318 +~;
#X floatatom 199 276 5 0 0 0 - - -;
#X text 111 276 mix;
#X obj 19 297 *~ 1;
#X msg 103 301 1;
#X obj 103 322 -;
#X obj 352 -114 cos~;
#X obj 470 -117 -~;
#X obj 470 -139 sig~;
#X obj 470 -92 cos~;
#X obj 400 -206 hsl 128 15 0 1 0 0 empty empty empty -2 -8 0 10 -262144
-1 -1 0 1;
#X obj 400 -181 hsl 128 15 0 1 0 0 empty empty empty -2 -8 0 10 -262144
-1 -1 0 1;
#X floatatom 495 -180 5 0 0 0 - - -;
#X floatatom 493 -204 5 0 0 0 - - -;
#X obj 352 -91 *~;
#X obj 471 -69 *~;
#X obj 214 -174 hsl 128 15 0 1 0 0 empty empty empty -2 -8 0 10 -262144
-1 -1 2800 1;
#X floatatom 310 -172 5 0 0 0 - - -;
#X obj 357 -290 hsl 128 15 0.01 1 1 0 empty empty empty -2 -8 0 10
-262144 -1 -1 10800 1;
#X obj 353 -260 sig~;
#X floatatom 451 -288 5 0 0 0 - - -;
#X obj 573 -107 snapshot~;
#X obj 574 -86 snapshot~;
#X floatatom 642 -108 5 0 0 0 - - -;
#X floatatom 641 -87 5 0 0 0 - - -;
#X obj 561 -170 bng 15 250 50 0 empty empty empty 17 7 0 10 -262144
-1 -1;
#X obj 724 -89 vsl 15 128 -1 1 0 0 empty empty empty 0 -9 0 10 -262144
-1 -1 12700 1;
#X obj 742 -111 hsl 128 15 -1 1 0 0 empty empty empty -2 -8 0 10 -262144
-1 -1 6308 1;
#X obj 585 -193 tgl 15 0 empty empty empty 17 7 0 10 -262144 -1 -1
1 1;
#X obj 584 -174 metro 20;
#X obj 645 -175 snapshot~;
#X floatatom 708 -176 5 0 0 0 - - -;
#X obj 353 -136 *~ 0.5;
#X msg 470 -159 0.25;
#X obj 575 -212 loadbang;
#X text 353 -334 position on unit circle;
#X text 351 -320 from 0 to pi;
#X text 737 -128 real;
#X text 740 -87 imag;
#X floatatom 212 -155 5 0 0 0 - - -;
#X text 357 -151 theta = 0 .. pi;
#X text 394 -117 pi/2 - theta;
#X text 351 -306 should move notch around unit circle;
#X obj 353 -204 *~ 1;
#X obj 354 -180 +~ 0;
#X text 291 -114 cos theta;
#X text 409 -92 sin theta;
#X text 350 -77 real;
#X text 469 -50 imag;
#X obj 570 -300 phasor~;
#X obj 575 -322 hsl 128 15 0.1 20 1 0 empty empty empty -2 -8 0 10
-262144 -1 -1 3400 1;
#X obj 355 -239 *~ 0;
#X obj 392 -240 tgl 15 0 empty empty empty 17 7 0 10 -262144 -1 -1
1 1;
#X obj 569 -239 *~ 0;
#X obj 632 -240 tgl 15 0 empty empty empty 17 7 0 10 -262144 -1 -1
0 1;
#X obj 569 -259 abs~;
#X obj 570 -279 -~ 0.5;
#X obj 605 -240 * 2;
#X floatatom 671 -321 5 0 0 0 - - -;
#X obj 115 354 hsl 128 15 1e-06 1 1 0 empty empty empty -2 -8 0 10
-262144 -1 -1 12000 1;
#X obj 22 346 *~ 1;
#X floatatom 207 353 5 0 0 0 - - -;
#X obj 157 312 env~;
#X floatatom 157 333 5 0 0 0 - - -;
#X obj 681 -259 expr~ 1 - 0.03 - 0.6*abs($v1-0.5)*abs($v1-0.5);
#X obj 679 -237 *~ 0;
#X obj 742 -238 tgl 15 0 empty empty empty 17 7 0 10 -262144 -1 -1
0 1;
#X text 117 354 master;
#X text 213 -175 pole modulus;
#X msg 308 -154 0.77;
#X obj 715 -238 * 2;
#X text 714 -321 <- this moves notch across the whole spectrum;
#X text 760 -279 v;
#X text 760 -285 | this moves the notch on the rhs z-plane;
#X obj 682 -283 phasor~;
#X text 10 -328 this feedback phaser uses the fourth order complex
;
#X text 10 -316 pole-zero pair \, and feeds back the allpass output
;
#N canvas 152 137 208 276 poles-zeros 0;
#X text 115 -69 real;
#X text 157 -43 imag;
#X obj 22 -33 czero_rev~;
#X obj 22 -8 cpole~;
#X obj 22 16 czero_rev~;
#X obj 22 41 cpole~;
#X obj 22 64 czero_rev~;
#X obj 22 89 cpole~;
#X obj 22 113 czero_rev~;
#X obj 23 138 cpole~;
#X obj 117 -83 inlet~;
#X obj 160 -62 inlet~;
#X obj 24 160 outlet~;
#X obj 22 -79 inlet~;
#X connect 2 0 3 0;
#X connect 2 1 3 1;
#X connect 3 0 4 0;
#X connect 3 1 4 1;
#X connect 4 0 5 0;
#X connect 4 1 5 1;
#X connect 5 0 6 0;
#X connect 5 1 6 1;
#X connect 6 0 7 0;
#X connect 6 1 7 1;
#X connect 7 0 8 0;
#X connect 7 1 8 1;
#X connect 8 0 9 0;
#X connect 8 1 9 1;
#X connect 9 0 12 0;
#X connect 10 0 2 2;
#X connect 10 0 3 2;
#X connect 10 0 4 2;
#X connect 10 0 5 2;
#X connect 10 0 6 2;
#X connect 10 0 7 2;
#X connect 10 0 8 2;
#X connect 10 0 9 2;
#X connect 11 0 2 3;
#X connect 11 0 3 3;
#X connect 11 0 4 3;
#X connect 11 0 5 3;
#X connect 11 0 6 3;
#X connect 11 0 7 3;
#X connect 11 0 8 3;
#X connect 11 0 9 3;
#X connect 13 0 2 0;
#X restore 68 106 pd poles-zeros;
#X text 11 -296 might be nice to also add a delay in the feedback loop
;
#X text 10 -276 throw~/catch~ used to avoid pd dsp loop;
#X obj 505 170 hsl 128 15 0 1 0 0 empty empty empty -2 -8 0 10 -262144
-1 -1 10500 1;
#X floatatom 596 170 5 0 0 0 - - -;
#X text 508 170 feedback;
#X obj 467 170 *~ 0;
#X obj 466 118 sig~;
#X obj 504 118 hsl 128 15 0 1000 0 0 empty empty empty -2 -8 0 10 -262144
-1 -1 300 1;
#X floatatom 596 118 5 0 0 0 - - -;
#X text 508 118 feedback delay;
#X obj 465 144 vd~ \$0-fb;
#X obj 659 114 delwrite~ \$0-fb 1000;
#X text 465 84 this is the delay loop - it feed back the signal too
which;
#X text 465 95 trmaples over the phaser effect .. so not as good;
#X obj 121 131 hsl 128 15 1e-08 1 1 0 empty empty empty -2 -8 0 10
-262144 -1 -1 12000 1;
#X floatatom 212 131 5 0 0 0 - - -;
#X text 124 131 feedback;
#X obj 83 131 *~ 0;
#X obj 83 152 throw~ fb;
#X obj 86 50 catch~ fb;
#X obj 45 72 -~;
#X text 9 -262 seems to be quite unstable - but there were some nice
metallic sounds.;
#X connect 2 0 9 0;
#X connect 3 0 2 0;
#X connect 4 0 6 0;
#X connect 5 0 4 0;
#X connect 6 0 8 0;
#X connect 7 0 8 1;
#X connect 8 0 10 0;
#X connect 8 0 17 0;
#X connect 9 0 1 0;
#X connect 10 0 112 0;
#X connect 12 0 14 1;
#X connect 13 0 12 1;
#X connect 13 0 15 0;
#X connect 13 0 19 1;
#X connect 13 0 18 0;
#X connect 14 0 74 0;
#X connect 17 0 14 0;
#X connect 18 0 19 0;
#X connect 19 0 17 1;
#X connect 20 0 28 0;
#X connect 20 0 35 0;
#X connect 21 0 23 0;
#X connect 22 0 21 0;
#X connect 23 0 29 0;
#X connect 23 0 36 0;
#X connect 24 0 27 0;
#X connect 24 0 57 1;
#X connect 25 0 26 0;
#X connect 25 0 58 1;
#X connect 28 0 91 1;
#X connect 29 0 91 2;
#X connect 30 0 31 0;
#X connect 30 0 53 0;
#X connect 32 0 34 0;
#X connect 32 0 33 0;
#X connect 33 0 65 0;
#X connect 35 0 37 0;
#X connect 36 0 38 0;
#X connect 36 0 40 0;
#X connect 37 0 41 0;
#X connect 39 0 35 0;
#X connect 39 0 36 0;
#X connect 39 0 44 0;
#X connect 42 0 43 0;
#X connect 43 0 39 0;
#X connect 44 0 45 0;
#X connect 46 0 20 0;
#X connect 46 0 21 1;
#X connect 47 0 22 0;
#X connect 48 0 47 0;
#X connect 48 0 83 0;
#X connect 48 0 42 0;
#X connect 53 0 28 1;
#X connect 53 0 29 1;
#X connect 57 0 58 0;
#X connect 58 0 44 0;
#X connect 58 0 46 0;
#X connect 63 0 70 0;
#X connect 64 0 63 0;
#X connect 64 0 72 0;
#X connect 64 0 88 0;
#X connect 65 0 57 0;
#X connect 66 0 65 1;
#X connect 67 0 57 0;
#X connect 68 0 71 0;
#X connect 69 0 67 0;
#X connect 70 0 69 0;
#X connect 71 0 67 1;
#X connect 73 0 74 1;
#X connect 73 0 75 0;
#X connect 74 0 11 0;
#X connect 74 0 11 1;
#X connect 76 0 77 0;
#X connect 78 0 79 0;
#X connect 79 0 57 0;
#X connect 80 0 84 0;
#X connect 83 0 53 0;
#X connect 84 0 79 1;
#X connect 88 0 78 0;
#X connect 91 0 12 0;
#X connect 91 0 109 0;
#X connect 94 0 95 0;
#X connect 94 0 97 1;
#X connect 98 0 102 0;
#X connect 99 0 100 0;
#X connect 99 0 98 0;
#X connect 102 0 97 0;
#X connect 106 0 107 0;
#X connect 106 0 109 1;
#X connect 109 0 110 0;
#X connect 111 0 112 1;
#X connect 112 0 91 0;
