#N canvas 766 136 1081 953 10;
#X obj 20 338 dac~;
#X obj 37 292 *~ 1;
#X obj 81 258 hsl 128 15 0 1 0 0 empty empty empty -2 -8 0 10 -262144
-1 -1 0 1;
#X obj 408 -118 cos~;
#X obj 526 -121 -~;
#X obj 526 -143 sig~;
#X obj 526 -96 cos~;
#X obj 456 -210 hsl 128 15 0 1 0 0 empty empty empty -2 -8 0 10 -262144
-1 -1 0 1;
#X obj 456 -185 hsl 128 15 0 1 0 0 empty empty empty -2 -8 0 10 -262144
-1 -1 0 1;
#X floatatom 551 -184 5 0 0 0 - - -;
#X floatatom 549 -208 5 0 0 0 - - -;
#X obj 408 -95 *~;
#X obj 527 -73 *~;
#X obj 270 -178 hsl 128 15 0 5 0 0 empty empty empty -2 -8 0 10 -262144
-1 -1 0 1;
#X floatatom 366 -176 5 0 0 0 - - -;
#X obj 20 313 +~;
#X obj 9 -185 osc~;
#X obj 13 -204 hsl 128 15 20 22050 1 0 empty empty empty -2 -8 0 10
-262144 -1 -1 0 1;
#X floatatom 89 -204 8 0 0 0 - - -;
#X obj 413 -294 hsl 128 15 0.01 1 1 0 empty empty empty -2 -8 0 10
-262144 -1 -1 0 1;
#X obj 409 -264 sig~;
#X floatatom 507 -292 5 0 0 0 - - -;
#X obj 629 -111 snapshot~;
#X obj 630 -90 snapshot~;
#X floatatom 698 -112 5 0 0 0 - - -;
#X floatatom 697 -91 5 0 0 0 - - -;
#X obj 617 -174 bng 15 250 50 0 empty empty empty 17 7 0 10 -262144
-1 -1;
#X obj 630 -150 snapshot~;
#X floatatom 699 -151 5 0 0 0 - - -;
#X obj 629 -131 snapshot~;
#X floatatom 698 -132 5 0 0 0 - - -;
#X obj 780 -93 vsl 15 128 -1 1 0 0 empty empty empty 0 -9 0 10 -262144
-1 -1 6350 1;
#X obj 798 -115 hsl 128 15 -1 1 0 0 empty empty empty -2 -8 0 10 -262144
-1 -1 12700 1;
#X obj 641 -197 tgl 15 0 empty empty empty 17 7 0 10 -262144 -1 -1
1 1;
#X obj 640 -178 metro 20;
#X obj 701 -179 snapshot~;
#X floatatom 764 -180 5 0 0 0 - - -;
#X obj 409 -140 *~ 0.5;
#X msg 526 -163 0.25;
#X obj 258 205 env~;
#X floatatom 258 227 5 0 0 0 - - -;
#X obj 641 -244 loadbang;
#X obj 356 -24 czero~ 0.7 0.7;
#X text 409 -338 position on unit circle;
#X text 407 -324 from 0 to pi;
#X text 793 -132 real;
#X text 796 -91 imag;
#X obj 21 -163 env~;
#X floatatom 22 -144 5 0 0 0 - - -;
#X floatatom 268 -159 5 0 0 0 - - -;
#X msg 364 -158 1;
#X text 413 -155 theta = 0 .. pi;
#X text 450 -121 pi/2 - theta;
#X text 407 -310 should move notch around unit circle;
#X obj 409 -208 *~ 1;
#X obj 410 -184 +~ 0;
#X text 7 -225 test frequency;
#X text 347 -118 cos theta;
#X text 465 -96 sin theta;
#X text 406 -81 real;
#X text 525 -54 imag;
#X obj 263 244 /;
#N canvas 125 365 450 300 fresp 1;
#X obj 46 101 tabwrite \$0-mag;
#X obj 95 12 inlet;
#X obj 38 11 inlet;
#N canvas 0 0 450 300 (subpatch) 0;
#X array \$0-mag 150 float 2;
#X coords 0 2 149 0 200 140 1;
#X restore 77 139 graph;
#X obj 133 54 log;
#X obj 132 76 * 15;
#X floatatom 139 19 5 0 0 0 - - -;
#X floatatom 172 81 5 0 0 0 - - -;
#X connect 1 0 4 0;
#X connect 1 0 6 0;
#X connect 2 0 0 0;
#X connect 4 0 5 0;
#X connect 5 0 0 1;
#X connect 5 0 7 0;
#X restore 265 265 pd fresp;
#X text 320 266 frequency response;
#X text 19 -130 signal need to be complex !!;
#X msg 365 -68 1;
#X obj 366 -49 sig~;
#N canvas 0 0 660 424 chord 0;
#X obj 87 97 -~ 0.5;
#X obj 87 146 clip~ -0.5 0.5;
#X obj 87 169 cos~;
#X obj 91 252 hip~ 5;
#X obj 91 315 outlet~;
#X obj 87 122 *~ 3;
#X obj 87 74 phasor~ 220;
#X obj 221 97 -~ 0.5;
#X obj 221 146 clip~ -0.5 0.5;
#X obj 221 169 cos~;
#X obj 221 122 *~ 3;
#X obj 356 100 -~ 0.5;
#X obj 356 149 clip~ -0.5 0.5;
#X obj 356 172 cos~;
#X obj 356 125 *~ 3;
#X obj 491 100 -~ 0.5;
#X obj 491 149 clip~ -0.5 0.5;
#X obj 491 172 cos~;
#X obj 491 125 *~ 3;
#X obj 221 74 phasor~ 251;
#X obj 356 77 phasor~ 281;
#X obj 491 77 phasor~ 311;
#X text 147 32 test sound for phaser;
#X obj 91 285 *~ 0.2;
#X connect 0 0 5 0;
#X connect 1 0 2 0;
#X connect 2 0 3 0;
#X connect 3 0 23 0;
#X connect 5 0 1 0;
#X connect 6 0 0 0;
#X connect 7 0 10 0;
#X connect 8 0 9 0;
#X connect 9 0 3 0;
#X connect 10 0 8 0;
#X connect 11 0 14 0;
#X connect 12 0 13 0;
#X connect 13 0 3 0;
#X connect 14 0 12 0;
#X connect 15 0 18 0;
#X connect 16 0 17 0;
#X connect 17 0 3 0;
#X connect 18 0 16 0;
#X connect 19 0 7 0;
#X connect 20 0 11 0;
#X connect 21 0 15 0;
#X connect 23 0 4 0;
#X restore 15 -93 pd chord;
#X obj 15 -114 noise~;
#X msg 881 -300;
#X obj 585 -276 phasor~;
#X obj 587 -294 hsl 128 15 0.1 20 1 0 empty empty empty -2 -8 0 10
-262144 -1 -1 0 1;
#X text 13 -348 using a notch filter directly instead of;
#X text 13 -313 something wrong with the complex signal;
#X text 13 -360 this phaser attempts to work by;
#X text 13 -337 an allpass added to the original.;
#X text 12 -324 sort of works \, but i think there is;
#X text 319 291 open this window to measure the freq response;
#X text 320 302 of the filter \, using the "test frequency" slider
above;
#X obj 411 -243 *~ 0;
#X obj 448 -244 tgl 15 0 empty empty empty 17 7 0 10 -262144 -1 -1
0 1;
#X obj 561 -250 *~ 0;
#X obj 598 -251 tgl 15 0 empty empty empty 17 7 0 10 -262144 -1 -1
0 1;
#X floatatom 177 258 5 0 0 0 - - -;
#N canvas 0 0 450 300 (subpatch) 0;
#X array \$0-tab 235199 float 0;
#X coords 0 1 235198 -1 50 50 1;
#X restore 50 66 graph;
#X obj 18 179 soundfiler;
#X obj 18 124 symbol \$0-tab;
#X obj 26 105 bng 15 250 50 0 empty empty empty 17 7 0 10 -262144 -1
-1;
#X obj 19 -27 metro 1000;
#X obj 19 -50 tgl 15 0 empty empty empty 17 7 0 10 -262144 -1 -1 0
1;
#X obj 19 -5 tabplay~ \$0-tab;
#X obj 56 25 tgl 15 0 empty empty empty 17 7 0 10 -262144 -1 -1 0 1
;
#X obj 20 26 *~ 0;
#X msg 18 145 read -resize 90reg_e2.wav \$1;
#X obj 54 -183 *~ 0;
#X obj 91 -184 tgl 15 0 empty empty empty 17 7 0 10 -262144 -1 -1 0
1;
#X obj 297 152 *~ 0;
#X obj 334 151 tgl 15 0 empty empty empty 17 7 0 10 -262144 -1 -1 0
1;
#X obj 357 51 rzero~ -1;
#X obj 359 13 czero~ 0.7 0.7;
#X obj 461 -10 *~ -1;
#X text 12 -251 possibly a higher order filter (e.g. butterworth);
#X text 12 -241 might wor a bit better;
#X text 13 -297;
#X text 13 -287;
#X text 13 -277;
#X text 12 -283 the gain of the notch filter at the high;
#X text 12 -273 end is too high \, so as the filter moves it just sound
like it is attenuating the high/low end.;
#X text 13 -303 should only need 1 czero object but it doesnt work
for some reason;
#X connect 1 0 15 1;
#X connect 2 0 1 1;
#X connect 2 0 83 0;
#X connect 3 0 11 0;
#X connect 3 0 22 0;
#X connect 4 0 6 0;
#X connect 4 0 29 0;
#X connect 5 0 4 0;
#X connect 6 0 12 0;
#X connect 6 0 23 0;
#X connect 7 0 10 0;
#X connect 7 0 54 1;
#X connect 8 0 9 0;
#X connect 8 0 55 1;
#X connect 11 0 42 2;
#X connect 11 0 99 2;
#X connect 12 0 42 3;
#X connect 12 0 100 0;
#X connect 13 0 14 0;
#X connect 13 0 49 0;
#X connect 15 0 0 0;
#X connect 15 0 0 1;
#X connect 16 0 47 0;
#X connect 16 0 94 0;
#X connect 17 0 16 0;
#X connect 17 0 18 0;
#X connect 17 0 62 1;
#X connect 19 0 21 0;
#X connect 19 0 20 0;
#X connect 20 0 79 0;
#X connect 22 0 24 0;
#X connect 23 0 25 0;
#X connect 23 0 31 0;
#X connect 24 0 32 0;
#X connect 26 0 22 0;
#X connect 26 0 23 0;
#X connect 26 0 27 0;
#X connect 26 0 29 0;
#X connect 26 0 35 0;
#X connect 27 0 28 0;
#X connect 29 0 30 0;
#X connect 33 0 34 0;
#X connect 34 0 26 0;
#X connect 35 0 36 0;
#X connect 37 0 3 0;
#X connect 37 0 4 1;
#X connect 38 0 5 0;
#X connect 39 0 40 0;
#X connect 40 0 61 0;
#X connect 41 0 38 0;
#X connect 41 0 50 0;
#X connect 41 0 33 0;
#X connect 42 0 99 0;
#X connect 42 1 99 1;
#X connect 47 0 48 0;
#X connect 48 0 61 1;
#X connect 49 0 11 1;
#X connect 49 0 12 1;
#X connect 50 0 49 0;
#X connect 54 0 55 0;
#X connect 55 0 35 0;
#X connect 55 0 37 0;
#X connect 61 0 62 0;
#X connect 65 0 66 0;
#X connect 66 0 42 1;
#X connect 70 0 81 0;
#X connect 71 0 70 0;
#X connect 79 0 54 0;
#X connect 80 0 79 1;
#X connect 81 0 54 0;
#X connect 82 0 81 1;
#X connect 86 0 93 0;
#X connect 87 0 86 0;
#X connect 88 0 90 0;
#X connect 89 0 88 0;
#X connect 90 0 92 0;
#X connect 91 0 92 1;
#X connect 92 0 42 0;
#X connect 93 0 85 0;
#X connect 94 0 42 0;
#X connect 95 0 94 1;
#X connect 95 0 97 0;
#X connect 96 0 39 0;
#X connect 97 0 96 1;
#X connect 99 0 1 0;
#X connect 99 0 96 0;
#X connect 100 0 99 3;
