#N canvas 710 90 798 731 10;
#N canvas 0 0 450 300 (subpatch) 0;
#X array \$0-tab 235199 float 0;
#X coords 0 1 235198 -1 50 50 1;
#X restore 51 -201 graph;
#X obj 19 -88 soundfiler;
#X obj 19 -143 symbol \$0-tab;
#X obj 27 -162 bng 15 250 50 0 empty empty empty 17 7 0 10 -262144
-1 -1;
#X obj 19 -27 metro 1000;
#X obj 19 -50 tgl 15 0 empty empty empty 17 7 0 10 -262144 -1 -1 1
1;
#X obj 19 -5 tabplay~ \$0-tab;
#X obj 56 25 tgl 15 0 empty empty empty 17 7 0 10 -262144 -1 -1 1 1
;
#X obj 20 26 *~ 0;
#X msg 19 -122 read -resize 90reg_e2.wav \$1;
#X obj 72 55 *~ 1;
#X obj 21 370 dac~;
#X obj 118 275 *~ 1;
#X obj 163 275 hsl 128 15 0 1 0 0 empty empty empty -2 -8 0 10 -262144
-1 -1 5600 1;
#X obj 22 318 +~;
#X floatatom 257 275 5 0 0 0 - - -;
#X text 165 273 mix;
#X obj 231 -152 phasor~;
#X obj 236 -174 hsl 128 15 0.1 20 1 0 empty empty empty -2 -8 0 10
-262144 -1 -1 7200 1;
#X obj 230 -91 *~ 0;
#X obj 293 -92 tgl 15 0 empty empty empty 17 7 0 10 -262144 -1 -1 1
1;
#X obj 230 -111 abs~;
#X obj 231 -131 -~ 0.5;
#X obj 266 -92 * 2;
#X floatatom 332 -173 5 0 0 0 - - -;
#X obj 115 354 hsl 128 15 1e-06 1 1 0 empty empty empty -2 -8 0 10
-262144 -1 -1 11700 1;
#X obj 22 346 *~ 1;
#X floatatom 207 353 5 0 0 0 - - -;
#X text 11 -315 to create the allpass filter which when mix with;
#X text 12 -303 the input creates the notch filter;
#X text 117 354 master;
#N canvas 12 418 755 692 phaser 0;
#X obj 205 -58 cos~;
#X obj 323 -61 -~;
#X obj 323 -83 sig~;
#X obj 323 -36 cos~;
#X obj 253 -150 hsl 128 15 0 1 0 0 empty empty empty -2 -8 0 10 -262144
-1 -1 0 1;
#X obj 253 -125 hsl 128 15 0 1 0 0 empty empty empty -2 -8 0 10 -262144
-1 -1 0 1;
#X floatatom 348 -124 5 0 0 0 - - -;
#X floatatom 346 -148 5 0 0 0 - - -;
#X obj 205 -35 *~;
#X obj 324 -13 *~;
#X obj 67 -118 hsl 128 15 0 1 0 0 empty empty empty -2 -8 0 10 -262144
-1 -1 10200 1;
#X floatatom 163 -116 5 0 0 0 - - -;
#X obj 426 -51 snapshot~;
#X obj 427 -30 snapshot~;
#X floatatom 495 -52 5 0 0 0 - - -;
#X floatatom 494 -31 5 0 0 0 - - -;
#X obj 414 -114 bng 15 250 50 0 empty empty empty 17 7 0 10 -262144
-1 -1;
#X obj 577 -33 vsl 15 128 -1 1 0 0 empty empty empty 0 -9 0 10 -262144
-1 -1 0 1;
#X obj 595 -55 hsl 128 15 -1 1 0 0 empty empty empty -2 -8 0 10 -262144
-1 -1 0 1;
#X obj 438 -137 tgl 15 0 empty empty empty 17 7 0 10 -262144 -1 -1
0 1;
#X obj 437 -118 metro 20;
#X obj 498 -119 snapshot~;
#X floatatom 561 -120 5 0 0 0 - - -;
#X obj 206 -80 *~ 0.5;
#X msg 323 -103 0.25;
#X obj 428 -156 loadbang;
#X text 590 -72 real;
#X text 593 -31 imag;
#X floatatom 65 -99 5 0 0 0 - - -;
#X text 210 -95 theta = 0 .. pi;
#X text 247 -61 pi/2 - theta;
#X obj 206 -148 *~ 1;
#X obj 207 -124 +~ 0;
#X text 144 -58 cos theta;
#X text 262 -36 sin theta;
#X text 203 -21 real;
#X text 322 6 imag;
#X obj 87 -7 czero_rev~;
#X obj 87 18 cpole~;
#X obj 87 42 czero_rev~;
#X obj 87 67 cpole~;
#X obj 87 90 czero_rev~;
#X obj 87 115 cpole~;
#X obj 87 139 czero_rev~;
#X obj 88 164 cpole~;
#X text 71 -119 pole modulus;
#X msg 161 -98 0.77;
#X obj 67 -168 inlet;
#X obj 207 -183 inlet~;
#X obj 86 201 outlet~;
#X obj 8 -49 inlet~;
#X connect 0 0 8 0;
#X connect 0 0 12 0;
#X connect 1 0 3 0;
#X connect 2 0 1 0;
#X connect 3 0 9 0;
#X connect 3 0 13 0;
#X connect 4 0 7 0;
#X connect 4 0 31 1;
#X connect 5 0 6 0;
#X connect 5 0 32 1;
#X connect 8 0 37 2;
#X connect 8 0 38 2;
#X connect 8 0 39 2;
#X connect 8 0 40 2;
#X connect 8 0 41 2;
#X connect 8 0 42 2;
#X connect 8 0 43 2;
#X connect 8 0 44 2;
#X connect 9 0 37 3;
#X connect 9 0 38 3;
#X connect 9 0 39 3;
#X connect 9 0 40 3;
#X connect 9 0 41 3;
#X connect 9 0 42 3;
#X connect 9 0 43 3;
#X connect 9 0 44 3;
#X connect 10 0 11 0;
#X connect 10 0 28 0;
#X connect 12 0 14 0;
#X connect 13 0 15 0;
#X connect 13 0 17 0;
#X connect 14 0 18 0;
#X connect 16 0 12 0;
#X connect 16 0 13 0;
#X connect 16 0 21 0;
#X connect 19 0 20 0;
#X connect 20 0 16 0;
#X connect 21 0 22 0;
#X connect 23 0 0 0;
#X connect 23 0 1 1;
#X connect 24 0 2 0;
#X connect 25 0 24 0;
#X connect 25 0 46 0;
#X connect 25 0 19 0;
#X connect 28 0 8 1;
#X connect 28 0 9 1;
#X connect 31 0 32 0;
#X connect 32 0 21 0;
#X connect 32 0 23 0;
#X connect 37 0 38 0;
#X connect 37 1 38 1;
#X connect 38 0 39 0;
#X connect 38 1 39 1;
#X connect 39 0 40 0;
#X connect 39 1 40 1;
#X connect 40 0 41 0;
#X connect 40 1 41 1;
#X connect 41 0 42 0;
#X connect 41 1 42 1;
#X connect 42 0 43 0;
#X connect 42 1 43 1;
#X connect 43 0 44 0;
#X connect 43 1 44 1;
#X connect 44 0 49 0;
#X connect 46 0 28 0;
#X connect 47 0 10 0;
#X connect 48 0 31 0;
#X connect 50 0 37 0;
#X restore 84 102 pd phaser;
#X obj 112 78 hsl 128 15 0 1 0 0 empty empty empty -2 -8 0 10 -262144
-1 -1 10200 1;
#X obj 59 347 *~ 1;
#N canvas 9 408 755 692 phaser 0;
#X obj 205 -58 cos~;
#X obj 323 -61 -~;
#X obj 323 -83 sig~;
#X obj 323 -36 cos~;
#X obj 253 -150 hsl 128 15 0 1 0 0 empty empty empty -2 -8 0 10 -262144
-1 -1 0 1;
#X obj 253 -125 hsl 128 15 0 1 0 0 empty empty empty -2 -8 0 10 -262144
-1 -1 0 1;
#X floatatom 348 -124 5 0 0 0 - - -;
#X floatatom 346 -148 5 0 0 0 - - -;
#X obj 205 -35 *~;
#X obj 324 -13 *~;
#X obj 67 -118 hsl 128 15 0 1 0 0 empty empty empty -2 -8 0 10 -262144
-1 -1 10100 1;
#X floatatom 163 -116 5 0 0 0 - - -;
#X obj 426 -51 snapshot~;
#X obj 427 -30 snapshot~;
#X floatatom 495 -52 5 0 0 0 - - -;
#X floatatom 494 -31 5 0 0 0 - - -;
#X obj 414 -114 bng 15 250 50 0 empty empty empty 17 7 0 10 -262144
-1 -1;
#X obj 577 -33 vsl 15 128 -1 1 0 0 empty empty empty 0 -9 0 10 -262144
-1 -1 10793 1;
#X obj 595 -55 hsl 128 15 -1 1 0 0 empty empty empty -2 -8 0 10 -262144
-1 -1 1813 1;
#X obj 438 -137 tgl 15 0 empty empty empty 17 7 0 10 -262144 -1 -1
1 1;
#X obj 437 -118 metro 20;
#X obj 498 -119 snapshot~;
#X floatatom 561 -120 5 0 0 0 - - -;
#X obj 206 -80 *~ 0.5;
#X msg 323 -103 0.25;
#X obj 428 -156 loadbang;
#X text 590 -72 real;
#X text 593 -31 imag;
#X floatatom 65 -99 5 0 0 0 - - -;
#X text 210 -95 theta = 0 .. pi;
#X text 247 -61 pi/2 - theta;
#X obj 206 -148 *~ 1;
#X obj 207 -124 +~ 0;
#X text 144 -58 cos theta;
#X text 262 -36 sin theta;
#X text 203 -21 real;
#X text 322 6 imag;
#X obj 87 -7 czero_rev~;
#X obj 87 18 cpole~;
#X obj 87 42 czero_rev~;
#X obj 87 67 cpole~;
#X obj 87 90 czero_rev~;
#X obj 87 115 cpole~;
#X obj 87 139 czero_rev~;
#X obj 88 164 cpole~;
#X text 71 -119 pole modulus;
#X msg 161 -98 0.77;
#X obj 67 -168 inlet;
#X obj 207 -183 inlet~;
#X obj 86 201 outlet~;
#X obj 8 -49 inlet~;
#X connect 0 0 8 0;
#X connect 0 0 12 0;
#X connect 1 0 3 0;
#X connect 2 0 1 0;
#X connect 3 0 9 0;
#X connect 3 0 13 0;
#X connect 4 0 7 0;
#X connect 4 0 31 1;
#X connect 5 0 6 0;
#X connect 5 0 32 1;
#X connect 8 0 37 2;
#X connect 8 0 38 2;
#X connect 8 0 39 2;
#X connect 8 0 40 2;
#X connect 8 0 41 2;
#X connect 8 0 42 2;
#X connect 8 0 43 2;
#X connect 8 0 44 2;
#X connect 9 0 37 3;
#X connect 9 0 38 3;
#X connect 9 0 39 3;
#X connect 9 0 40 3;
#X connect 9 0 41 3;
#X connect 9 0 42 3;
#X connect 9 0 43 3;
#X connect 9 0 44 3;
#X connect 10 0 11 0;
#X connect 10 0 28 0;
#X connect 12 0 14 0;
#X connect 13 0 15 0;
#X connect 13 0 17 0;
#X connect 14 0 18 0;
#X connect 16 0 12 0;
#X connect 16 0 13 0;
#X connect 16 0 21 0;
#X connect 19 0 20 0;
#X connect 20 0 16 0;
#X connect 21 0 22 0;
#X connect 23 0 0 0;
#X connect 23 0 1 1;
#X connect 24 0 2 0;
#X connect 25 0 24 0;
#X connect 25 0 46 0;
#X connect 25 0 19 0;
#X connect 28 0 8 1;
#X connect 28 0 9 1;
#X connect 31 0 32 0;
#X connect 32 0 21 0;
#X connect 32 0 23 0;
#X connect 37 0 38 0;
#X connect 37 1 38 1;
#X connect 38 0 39 0;
#X connect 38 1 39 1;
#X connect 39 0 40 0;
#X connect 39 1 40 1;
#X connect 40 0 41 0;
#X connect 40 1 41 1;
#X connect 41 0 42 0;
#X connect 41 1 42 1;
#X connect 42 0 43 0;
#X connect 42 1 43 1;
#X connect 43 0 44 0;
#X connect 43 1 44 1;
#X connect 44 0 49 0;
#X connect 46 0 28 0;
#X connect 47 0 10 0;
#X connect 48 0 31 0;
#X connect 50 0 37 0;
#X restore 121 147 pd phaser;
#X obj 159 123 hsl 128 15 0 1 0 0 empty empty empty -2 -8 0 10 -262144
-1 -1 10100 1;
#X text 150 103 left;
#X text 182 148 right;
#X obj 60 318 +~;
#X obj 85 275 *~ 1;
#X obj 133 202 *~ 1;
#X obj 174 181 hsl 128 15 0 1 0 0 empty empty empty -2 -8 0 10 -262144
-1 -1 6900 1;
#X floatatom 268 181 5 0 0 0 - - -;
#X obj 93 184 *~ 1;
#X text 176 179 left mix;
#X obj 174 200 hsl 128 15 0 1 0 0 empty empty empty -2 -8 0 10 -262144
-1 -1 7300 1;
#X floatatom 268 200 5 0 0 0 - - -;
#X text 176 198 right mix;
#X floatatom 209 80 5 0 0 0 - - -;
#X floatatom 255 123 5 0 0 0 - - -;
#X obj 217 -31 phasor~;
#X obj 222 -53 hsl 128 15 0.1 20 1 0 empty empty empty -2 -8 0 10 -262144
-1 -1 7900 1;
#X obj 216 30 *~ 0;
#X obj 279 29 tgl 15 0 empty empty empty 17 7 0 10 -262144 -1 -1 1
1;
#X obj 216 10 abs~;
#X obj 217 -10 -~ 0.5;
#X obj 252 29 * 2;
#X floatatom 318 -52 5 0 0 0 - - -;
#X obj 127 252 *~ 1;
#X obj 168 232 hsl 128 15 0 1 0 0 empty empty empty -2 -8 0 10 -262144
-1 -1 700 1;
#X floatatom 262 232 5 0 0 0 - - -;
#X obj 85 234 *~ 1;
#X obj 168 251 hsl 128 15 0 1 0 0 empty empty empty -2 -8 0 10 -262144
-1 -1 1000 1;
#X floatatom 262 251 5 0 0 0 - - -;
#X text 170 230 left pass;
#X text 170 249 right pass;
#X obj 310 -140 * 1.75;
#X text 311 192 cross mix;
#X text 306 240 fwd mix;
#X text 10 -328 this phaser uses the fourth order complex pole-zero
pair;
#X text 13 -274 the fwd mix has to be low to get a decent stereo effect
;
#X text 13 -286 the channels are mixed across to the other channel
;
#X text 15 -259 by setting one oscillator to be a multiple of the other
;
#X text 161 122 r pole modulus;
#X text 114 79 l pole modulus;
#X text 369 -175 <- this moves left notch across the whole spectrum
;
#X text 361 -52 <- this moves right notch across the whole spectrum
;
#X text 14 -248 rhythmical qualities can be produced;
#X connect 2 0 9 0;
#X connect 3 0 2 0;
#X connect 4 0 6 0;
#X connect 5 0 4 0;
#X connect 6 0 8 0;
#X connect 7 0 8 1;
#X connect 8 0 10 0;
#X connect 8 0 14 0;
#X connect 8 0 38 0;
#X connect 9 0 1 0;
#X connect 10 0 31 0;
#X connect 10 0 34 0;
#X connect 12 0 38 1;
#X connect 13 0 12 1;
#X connect 13 0 15 0;
#X connect 13 0 39 1;
#X connect 14 0 26 0;
#X connect 17 0 22 0;
#X connect 18 0 17 0;
#X connect 18 0 24 0;
#X connect 18 0 66 0;
#X connect 19 0 31 2;
#X connect 20 0 23 0;
#X connect 21 0 19 0;
#X connect 22 0 21 0;
#X connect 23 0 19 1;
#X connect 25 0 26 1;
#X connect 25 0 27 0;
#X connect 25 0 33 1;
#X connect 26 0 11 0;
#X connect 31 0 43 0;
#X connect 31 0 61 0;
#X connect 32 0 31 1;
#X connect 32 0 48 0;
#X connect 33 0 11 1;
#X connect 34 0 40 0;
#X connect 34 0 58 0;
#X connect 35 0 34 1;
#X connect 35 0 49 0;
#X connect 38 0 33 0;
#X connect 39 0 14 1;
#X connect 40 0 39 0;
#X connect 41 0 42 0;
#X connect 41 0 43 1;
#X connect 43 0 12 0;
#X connect 45 0 46 0;
#X connect 45 0 40 1;
#X connect 50 0 55 0;
#X connect 51 0 50 0;
#X connect 51 0 57 0;
#X connect 52 0 34 2;
#X connect 53 0 56 0;
#X connect 54 0 52 0;
#X connect 55 0 54 0;
#X connect 56 0 52 1;
#X connect 58 0 12 0;
#X connect 59 0 60 0;
#X connect 59 0 61 1;
#X connect 61 0 39 0;
#X connect 62 0 63 0;
#X connect 62 0 58 1;
#X connect 66 0 50 0;
