#N canvas 810 166 738 543 10;
#X obj 17 476 *~ 1;
#X obj 14 519 dac~;
#X obj 75 445 hsl 128 15 0 10 0 0 empty empty empty -2 -8 0 10 -262144
-1 -1 0 1;
#X floatatom 171 445 5 0 0 0 - - -;
#X text 75 445 vol;
#N canvas 0 0 450 300 (subpatch) 0;
#X array \$0-tab 235199 float 0;
#X coords 0 1 235198 -1 200 140 1;
#X restore 475 29 graph;
#X obj 381 206 soundfiler;
#X obj 381 151 symbol \$0-tab;
#X obj 389 132 bng 15 250 50 0 empty empty empty 17 7 0 10 -262144
-1 -1;
#X obj 16 83 metro 1000;
#X obj -3 83 tgl 15 0 empty empty empty 17 7 0 10 -262144 -1 -1 0 1
;
#X obj 16 105 tabplay~ \$0-tab;
#X obj 16 155 *~ 1;
#X obj 53 135 tgl 15 0 empty empty empty 17 7 0 10 -262144 -1 -1 0
1;
#X obj 17 136 *~ 0;
#X msg 381 172 read -resize /media/disk1/media/samples/pfx/Bass_Stuff/90reg_e2.wav
\$1;
#N canvas 326 665 280 330 delay-reader 0;
#X obj 89 267 outlet~;
#X obj 112 163 inlet~;
#X obj 89 237 +~;
#X obj 112 198 vd~ \$0-del_left;
#X connect 1 0 3 0;
#X connect 2 0 0 0;
#X connect 3 0 2 1;
#X restore 49 325 pd delay-reader;
#X obj 48 275 sig~;
#X obj 50 253 hsl 128 15 1 500 0 0 empty empty empty -2 -8 0 10 -262144
-1 -1 0 1;
#X obj 49 346 *~ 1;
#X obj 83 346 hsl 128 15 0 1 0 0 empty empty empty -2 -8 0 10 -262144
-1 -1 0 1;
#X floatatom 180 346 5 0 0 0 - - -;
#X text 89 346 del level;
#X floatatom 143 254 5 0 0 0 - - -;
#X text 55 253 del time;
#N canvas 209 654 600 400 delay-writer 0;
#X obj 96 107 inlet~;
#X obj 116 144 delwrite~ \$0-del_left 1000;
#X connect 0 0 1 0;
#X restore 48 218 pd delay-writer;
#X obj 16 446 +~;
#X obj 50 302 lop~ 5;
#N canvas 329 687 280 330 delay-reader 0;
#X obj 89 267 outlet~;
#X obj 112 163 inlet~;
#X obj 89 237 +~;
#X obj 112 198 vd~ \$0-del_right;
#X connect 1 0 3 0;
#X connect 2 0 0 0;
#X connect 3 0 2 1;
#X restore 243 317 pd delay-reader;
#X obj 242 267 sig~;
#X obj 244 245 hsl 128 15 1 500 0 0 empty empty empty -2 -8 0 10 -262144
-1 -1 0 1;
#X obj 243 338 *~ 1;
#X obj 277 338 hsl 128 15 0 1 0 0 empty empty empty -2 -8 0 10 -262144
-1 -1 0 1;
#X floatatom 374 338 5 0 0 0 - - -;
#X text 283 338 del level;
#X floatatom 337 246 5 0 0 0 - - -;
#X text 249 245 del time;
#X obj 244 294 lop~ 5;
#X obj 50 373 +~;
#X obj 53 184 +~;
#X obj 51 409 *~;
#X obj 92 412 hsl 128 15 0 1 0 0 empty empty empty -2 -8 0 10 -262144
-1 -1 0 1;
#X floatatom 188 413 5 0 0 0 - - -;
#N canvas 212 676 600 400 delay-writer 0;
#X obj 96 107 inlet~;
#X obj 116 144 delwrite~ \$0-del_right 1000;
#X connect 0 0 1 0;
#X restore 240 213 pd delay-writer;
#X obj 239 188 +~;
#X text 99 412 feedback_right;
#X obj 244 364 +~;
#X obj 249 399 *~;
#X obj 290 402 hsl 128 15 0 1 0 0 empty empty empty -2 -8 0 10 -262144
-1 -1 0 1;
#X floatatom 386 403 5 0 0 0 - - -;
#X text 297 402 feedback_left;
#X obj 227 474 *~ 1;
#X obj 226 444 +~;
#X text 14 12 ping-pong delay;
#X text 14 34 the feedback line goes to the other channel;
#X text 14 24 two channels;
#X text 14 45 interestingly the feedback ca go to 1 without instability
;
#X text 14 57 as long as the delay level isnt 1 too;
#X connect 0 0 1 0;
#X connect 2 0 0 1;
#X connect 2 0 3 0;
#X connect 2 0 51 1;
#X connect 7 0 15 0;
#X connect 8 0 7 0;
#X connect 9 0 11 0;
#X connect 10 0 9 0;
#X connect 11 0 14 0;
#X connect 12 0 26 0;
#X connect 12 0 39 0;
#X connect 12 0 44 0;
#X connect 12 0 52 0;
#X connect 13 0 14 1;
#X connect 14 0 12 0;
#X connect 15 0 6 0;
#X connect 16 0 19 0;
#X connect 17 0 27 0;
#X connect 18 0 17 0;
#X connect 18 0 23 0;
#X connect 19 0 38 0;
#X connect 20 0 19 1;
#X connect 20 0 21 0;
#X connect 26 0 0 0;
#X connect 27 0 16 0;
#X connect 28 0 31 0;
#X connect 29 0 37 0;
#X connect 30 0 29 0;
#X connect 30 0 35 0;
#X connect 31 0 46 0;
#X connect 32 0 31 1;
#X connect 32 0 33 0;
#X connect 37 0 28 0;
#X connect 38 0 26 1;
#X connect 38 0 40 0;
#X connect 39 0 25 0;
#X connect 40 0 44 1;
#X connect 41 0 40 1;
#X connect 41 0 42 0;
#X connect 44 0 43 0;
#X connect 46 0 47 0;
#X connect 46 0 52 1;
#X connect 47 0 39 1;
#X connect 48 0 47 1;
#X connect 48 0 49 0;
#X connect 51 0 1 1;
#X connect 52 0 51 0;
