#N canvas 1244 117 642 736 10;
#N canvas 0 0 450 300 (subpatch) 0;
#X array \$0-tab 235199 float 0;
#X coords 0 1 235198 -1 200 140 1;
#X restore 100 20 graph;
#X obj 6 103 loadbang;
#X obj 6 197 soundfiler;
#X obj 6 142 symbol \$0-tab;
#X obj 14 123 bng 15 250 50 0 empty empty empty 17 7 0 10 -262144 -1
-1;
#X obj 61 667 *~ 1;
#X obj 61 692 dac~;
#X obj 98 667 hsl 128 15 0 10 0 0 empty empty empty -2 -8 0 10 -262144
-1 -1 3600 1;
#X floatatom 194 667 5 0 0 0 - - -;
#X text 107 668 vol;
#X obj 37 274 metro 1000;
#X obj 5 235 tgl 15 0 empty empty empty 17 7 0 10 -262144 -1 -1 1 1
;
#X floatatom 119 486 3 0 99 0 - - -;
#X obj 119 504 / 100;
#X floatatom 169 481 4 0 100 0 - - -;
#X obj 173 503 / 100;
#X obj 91 569 cpole~;
#X obj 91 596 czero~;
#X text 194 455 pole and zero;
#X text 212 470 radii (%);
#X obj 48 617 +~;
#X obj 92 617 *~ 1;
#X obj 128 617 hsl 128 15 0 1 0 0 empty empty empty -2 -8 0 10 -262144
-1 -1 0 1;
#X floatatom 224 617 5 0 0 0 - - -;
#X text 137 618 mix;
#X msg 120 463 98;
#X msg 167 462 88;
#X obj 120 434 loadbang;
#X obj 411 484 cos~;
#X obj 529 481 -~;
#X obj 529 459 sig~;
#X obj 529 506 cos~;
#X obj 459 392 hsl 128 15 0 1 0 0 empty empty empty -2 -8 0 10 -262144
-1 -1 0 1;
#X obj 459 417 hsl 128 15 0 1 0 0 empty empty empty -2 -8 0 10 -262144
-1 -1 0 1;
#X floatatom 554 418 5 0 0 0 - - -;
#X floatatom 552 394 5 0 0 0 - - -;
#X obj 416 308 hsl 128 15 0.01 1 1 0 empty empty empty -2 -8 0 10 -262144
-1 -1 0 1;
#X obj 412 355 sig~;
#X floatatom 510 310 5 0 0 0 - - -;
#X obj 412 462 *~ 0.5;
#X msg 529 439 0.25;
#X text 412 264 position on unit circle;
#X text 410 278 from 0 to pi;
#X text 416 447 theta = 0 .. pi;
#X text 453 481 pi/2 - theta;
#X text 410 292 should move notch around unit circle;
#X obj 413 396 *~ 1;
#X obj 413 418 +~ 0;
#X text 468 506 sin theta;
#X text 409 521 real;
#X obj 123 541 *~;
#X obj 159 542 *~;
#X obj 194 543 *~;
#X obj 229 543 *~;
#X obj 498 330 samplerate~;
#X obj 469 353 *;
#X floatatom 498 355 5 0 0 0 - - -;
#X obj 559 311 loadbang;
#X obj 575 332 bng 15 250 50 0 empty empty empty 17 7 0 10 -262144
-1 -1;
#X obj 469 330 / 2;
#X text 368 122 filter seem to have much more gain;
#X text 368 134 in low frequency ranges;
#X obj 37 296 tabplay~ \$0-tab;
#X obj 36 369 *~ 1;
#X obj 164 310 noise~;
#X text 369 156 think its because of the sample;
#X text 369 168 the noise seems fine in all ranges;
#X floatatom 322 57 0 0 500 0 - squelch-set -;
#X obj 322 81 s squelch;
#X text 356 58 <- squelch;
#N canvas 300 276 646 523 fft-analysis 0;
#X obj 115 409 *~;
#X obj 75 409 *~;
#X obj 76 114 *~;
#X obj 77 88 inlet~;
#X obj 76 137 rfft~;
#X obj 75 466 *~;
#X obj 171 177 *~;
#X obj 75 432 rifft~;
#X obj 75 489 outlet~;
#X obj 137 177 *~;
#X obj 137 200 +~;
#X obj 461 85 block~ 1024 4;
#X obj 137 351 clip~;
#X obj 178 306 r squelch;
#X obj 110 114 tabreceive~ \$0-hann;
#X obj 177 329 expr 0.01*$f1*$f1;
#X obj 461 116 loadbang;
#X obj 137 381 *~ 0.00065;
#X obj 137 225 +~ 1e-20;
#X obj 136 262 q8_rsqrt~;
#X obj 109 466 tabreceive~ \$0-hann;
#X text 31 5 As in the previous patch \, this works by multiplying
each channel of the Fourier analysis by a real number computed from
the magnitude. If the magnutude is "m" \, the correction factor is
1/m \, but only to an upper limit controlled by the "squelch" parameter.
;
#X text 211 174 squared magnitude;
#X text 219 225 protect against divide-by-zero;
#X text 223 261 quick 8-bit-accurate reciprocal square root;
#X text 222 277 (done by table lookup - about 0.25% accurate);
#X text 193 351 limit the gain to squelch*squelch/100;
#X text 238 381 normalize for 1024-point \, overlap-4 Hann;
#X text 151 409 multiply gain by real and complex part;
#X text 152 429 of the amplitude;
#X text 130 137 outputs complex amplitudes;
#X msg 461 139 \; pd dsp 1 \; window-size 1024 \; squelch 10 \; squelch-set
set 10;
#X connect 0 0 7 1;
#X connect 1 0 7 0;
#X connect 2 0 4 0;
#X connect 3 0 2 0;
#X connect 4 0 9 0;
#X connect 4 0 9 1;
#X connect 4 0 1 0;
#X connect 4 1 6 0;
#X connect 4 1 6 1;
#X connect 4 1 0 0;
#X connect 5 0 8 0;
#X connect 6 0 10 1;
#X connect 7 0 5 0;
#X connect 9 0 10 0;
#X connect 10 0 18 0;
#X connect 12 0 17 0;
#X connect 13 0 15 0;
#X connect 14 0 2 1;
#X connect 15 0 12 2;
#X connect 16 0 31 0;
#X connect 17 0 0 1;
#X connect 17 0 1 1;
#X connect 18 0 19 0;
#X connect 19 0 12 0;
#X connect 20 0 5 1;
#X restore 37 330 pd fft-analysis;
#N canvas 3 132 565 454 hann-window 0;
#N canvas 0 0 450 300 (subpatch) 0;
#X array \$0-hann 1024 float 0;
#X coords 0 1 1023 0 300 100 1;
#X restore 82 311 graph;
#X obj 378 165 osc~;
#X obj 378 190 *~ -0.5;
#X obj 378 214 +~ 0.5;
#X obj 331 247 tabwrite~ \$0-hann;
#X obj 37 88 r window-size;
#X obj 38 173 /;
#X obj 127 142 samplerate~;
#X obj 38 251 s window-sec;
#X obj 177 204 swap;
#X obj 177 228 /;
#X obj 177 252 s window-hz;
#X obj 49 201 * 1000;
#X obj 49 228 s window-msec;
#X obj 38 115 t f b f;
#X msg 173 92 resize \$1;
#X obj 173 116 s \$0-hann;
#X obj 330 105 r window-hz;
#X msg 382 130 0;
#X obj 330 131 t f b;
#X text 15 8 calculate Hann window table (variable window size) and
constants window-hz (fundamental frequency of analysis) \, window-sec
and window-msec (analysis window size in seconds and msec).;
#X connect 1 0 2 0;
#X connect 2 0 3 0;
#X connect 3 0 4 0;
#X connect 5 0 14 0;
#X connect 6 0 8 0;
#X connect 6 0 12 0;
#X connect 7 0 6 1;
#X connect 7 0 9 1;
#X connect 9 0 10 0;
#X connect 9 1 10 1;
#X connect 10 0 11 0;
#X connect 12 0 13 0;
#X connect 14 0 6 0;
#X connect 14 0 9 0;
#X connect 14 1 7 0;
#X connect 14 2 15 0;
#X connect 15 0 16 0;
#X connect 17 0 19 0;
#X connect 18 0 1 1;
#X connect 19 0 1 0;
#X connect 19 1 4 0;
#X connect 19 1 18 0;
#X restore 401 90 pd hann-window;
#X text 372 186 the fft-analysis patch flattens the;
#X text 371 198 magnitude spectrum (from I05 compressor);
#X text 373 211 the squelch is the flattening factor;
#X obj 234 296 osc~;
#X obj 234 384 *~;
#X obj 268 381 hsl 128 15 0.1 0.9 0 0 empty empty empty -2 -8 0 10
-262144 -1 -1 0 1;
#X text 271 381 sweep depth;
#X floatatom 365 382 5 0 0 0 - - -;
#X obj 237 278 hsl 128 15 0.1 20 1 0 empty empty empty -2 -8 0 10 -262144
-1 -1 5519 1;
#X floatatom 334 279 5 0 0 0 - - -;
#X text 234 277 sweep freq;
#X obj 268 405 hsl 128 15 0.1 0.9 0 0 empty empty empty -2 -8 0 10
-262144 -1 -1 0 1;
#X floatatom 363 405 5 0 0 0 - - -;
#X obj 234 406 +~;
#X text 271 405 delay;
#X obj 235 339 +~ 0.5;
#X obj 270 359 tgl 15 0 empty empty empty 17 7 0 10 -262144 -1 -1 1
1;
#X obj 234 360 *~ 0;
#X text 233 263 sine;
#X obj 235 318 *~ 0.5;
#X obj 449 374 tgl 15 0 empty empty empty 17 7 0 10 -262144 -1 -1 0
1;
#X obj 413 375 *~ 0;
#X msg 280 260 1;
#X obj 436 235 loadbang;
#X obj 199 333 tgl 15 0 empty empty empty 17 7 0 10 -262144 -1 -1 0
1;
#X obj 163 334 *~ 0;
#X obj 73 349 tgl 15 0 empty empty empty 17 7 0 10 -262144 -1 -1 1
1;
#X obj 37 350 *~ 0;
#X msg 6 163 read -resize /media/disk1/media/samples/pfx/Bass_Stuff/90reg_e2.wav
\$1;
#X connect 1 0 3 0;
#X connect 3 0 100 0;
#X connect 4 0 3 0;
#X connect 5 0 6 0;
#X connect 5 0 6 1;
#X connect 7 0 5 1;
#X connect 7 0 8 0;
#X connect 10 0 62 0;
#X connect 11 0 10 0;
#X connect 12 0 13 0;
#X connect 13 0 50 1;
#X connect 13 0 51 1;
#X connect 14 0 15 0;
#X connect 15 0 52 0;
#X connect 15 0 53 0;
#X connect 16 0 17 0;
#X connect 16 1 17 1;
#X connect 17 0 21 0;
#X connect 20 0 5 0;
#X connect 21 0 20 1;
#X connect 22 0 21 1;
#X connect 22 0 23 0;
#X connect 25 0 12 0;
#X connect 26 0 14 0;
#X connect 27 0 25 0;
#X connect 27 0 26 0;
#X connect 28 0 50 0;
#X connect 28 0 52 0;
#X connect 29 0 31 0;
#X connect 30 0 29 0;
#X connect 31 0 51 0;
#X connect 31 0 53 0;
#X connect 32 0 35 0;
#X connect 32 0 46 1;
#X connect 33 0 34 0;
#X connect 33 0 47 1;
#X connect 36 0 38 0;
#X connect 36 0 37 0;
#X connect 36 0 59 0;
#X connect 37 0 93 0;
#X connect 39 0 28 0;
#X connect 39 0 29 1;
#X connect 40 0 30 0;
#X connect 46 0 47 0;
#X connect 47 0 39 0;
#X connect 50 0 16 2;
#X connect 51 0 16 3;
#X connect 52 0 17 2;
#X connect 53 0 17 3;
#X connect 54 0 55 1;
#X connect 55 0 56 0;
#X connect 57 0 54 0;
#X connect 58 0 54 0;
#X connect 59 0 55 0;
#X connect 62 0 70 0;
#X connect 63 0 16 0;
#X connect 63 0 20 0;
#X connect 64 0 97 0;
#X connect 67 0 68 0;
#X connect 70 0 99 0;
#X connect 75 0 91 0;
#X connect 76 0 85 0;
#X connect 77 0 76 1;
#X connect 77 0 79 0;
#X connect 80 0 81 0;
#X connect 80 0 75 0;
#X connect 83 0 84 0;
#X connect 83 0 85 1;
#X connect 85 0 46 0;
#X connect 87 0 89 0;
#X connect 88 0 89 1;
#X connect 89 0 76 0;
#X connect 91 0 87 0;
#X connect 92 0 93 1;
#X connect 93 0 46 0;
#X connect 94 0 80 0;
#X connect 94 0 88 0;
#X connect 95 0 94 0;
#X connect 96 0 97 1;
#X connect 98 0 99 1;
#X connect 99 0 63 0;
#X connect 100 0 2 0;
