#N canvas 635 43 525 557 8;
#X obj 114 23 bng 15 250 50 0 empty empty empty 0 -6 0 8 -262144 -1
-1;
#X obj 112 154 line~;
#X obj 29 152 noise~;
#X obj 30 184 *~;
#X obj 31 444 *~ 0;
#X obj 37 306 lop~;
#X obj 38 241 hip~;
#X obj 78 304 +;
#X obj 78 254 bng 15 250 50 0 empty empty empty 0 -6 0 8 -262144 -1
-1;
#X obj 88 189 *~;
#X obj 88 213 *~;
#X obj 114 80 del 10;
#X msg 68 67 1 \$1;
#X msg 129 129 0 \$1;
#X obj 125 -32 unpack 0 0 0 0 0;
#X floatatom 133 102 5 0 0 0 - - -;
#X floatatom 112 236 5 0 0 0 - - -;
#X floatatom 94 279 5 0 0 0 - - -;
#X floatatom 92 336 5 0 0 0 - - -;
#X obj 49 -31 inlet;
#X obj 6 -31 inlet;
#X msg 252 -34 100 1000 3531 4451 1;
#X obj 204 8 loadbang;
#X msg 380 -35 100 1000 30 200 1;
#X obj 134 278 del 1;
#X obj 61 477 outlet~;
#X floatatom 111 308 5 0 0 0 - - -;
#X obj 37 340 lop~;
#X obj 38 262 hip~;
#X msg 216 30 3;
#X obj 234 195 hsl 128 15 0 5 0 0 empty empty empty -2 -6 0 8 -262144
-1 -1 12700 1;
#X obj 234 177 hsl 128 15 20 5000 0 0 empty empty empty -2 -6 0 8 -262144
-1 -1 10706 1;
#X obj 234 158 hsl 128 15 20 5000 1 0 empty empty empty -2 -6 0 8 -262144
-1 -1 12200 1;
#X obj 233 117 hsl 128 15 0 127 0 0 empty empty empty -2 -6 0 8 -262144
-1 -1 300 1;
#X obj 234 138 hsl 128 15 0 2000 0 0 empty empty empty -2 -6 0 8 -262144
-1 -1 3346 1;
#X obj 237 244 pack 0 0 0 0 0;
#X obj 203 191 bng 15 250 50 0 empty empty empty 0 -6 0 8 -262144 -1
-1;
#X floatatom 330 117 5 0 0 0 - - -;
#X floatatom 329 139 5 0 0 0 - - -;
#X floatatom 331 159 5 0 0 0 - - -;
#X floatatom 330 179 5 0 0 0 - - -;
#X floatatom 333 195 5 0 0 0 - - -;
#X text 243 114 attack;
#X text 244 136 decay;
#X text 236 155 hipass;
#X text 236 174 lowpass;
#X text 232 194 volume;
#X obj 234 81 unpack 0 0 0 0 0;
#X obj 369 108 bng 15 250 50 0 empty empty empty 0 -6 0 8 -262144 -1
-1;
#X obj 365 9 OSCroute /set;
#X obj 369 27 OSCroute /trig;
#X obj 373 -16 inlet;
#X obj 70 26 int;
#X text 443 282 maraccas;
#X text 431 300 rim shot;
#X text 437 316 loose snare;
#X text 419 337 tight snare;
#X text 428 354 long snare;
#X text 429 378 short hat;
#X text 428 395 long hat;
#X text 431 415 crash;
#X msg 335 355 3 1110 212 748 5;
#X msg 336 336 3 590 65 435 5;
#X msg 335 318 3 1000 30 200 5;
#X obj 237 215 hradio 15 1 0 7 empty empty empty 0 -6 0 8 -262144 -1
-1 6;
#X obj 339 254 route 0 1 2 3 4 5 6 7;
#X obj 86 -32 inlet;
#X obj 378 44 OSCroute /preset;
#X msg 335 378 3 118 4023 4218 5;
#X msg 334 395 3 527 4023 4218 5;
#X msg 333 283 60 1000 3531 4451 5;
#X msg 334 300 3 330 1190 2215 5;
#X msg 334 414 3 1047 2226 709 4;
#X connect 0 0 11 0;
#X connect 0 0 52 0;
#X connect 1 0 9 0;
#X connect 1 0 9 1;
#X connect 2 0 3 0;
#X connect 3 0 6 0;
#X connect 4 0 25 0;
#X connect 5 0 27 0;
#X connect 6 0 28 0;
#X connect 7 0 5 1;
#X connect 7 0 26 0;
#X connect 7 0 27 1;
#X connect 8 0 7 0;
#X connect 9 0 10 0;
#X connect 9 0 10 1;
#X connect 10 0 3 1;
#X connect 11 0 15 0;
#X connect 12 0 1 0;
#X connect 13 0 1 0;
#X connect 14 0 52 1;
#X connect 14 1 15 0;
#X connect 14 2 16 0;
#X connect 14 3 17 0;
#X connect 14 4 18 0;
#X connect 15 0 13 0;
#X connect 16 0 8 0;
#X connect 16 0 7 1;
#X connect 16 0 6 1;
#X connect 16 0 28 1;
#X connect 17 0 7 0;
#X connect 17 0 24 0;
#X connect 18 0 4 1;
#X connect 19 0 47 0;
#X connect 20 0 48 0;
#X connect 21 0 14 0;
#X connect 22 0 29 0;
#X connect 23 0 14 0;
#X connect 24 0 8 0;
#X connect 27 0 4 0;
#X connect 28 0 5 0;
#X connect 29 0 33 0;
#X connect 30 0 35 4;
#X connect 30 0 36 0;
#X connect 30 0 41 0;
#X connect 31 0 35 3;
#X connect 31 0 36 0;
#X connect 31 0 40 0;
#X connect 32 0 35 2;
#X connect 32 0 36 0;
#X connect 32 0 39 0;
#X connect 33 0 35 0;
#X connect 33 0 37 0;
#X connect 34 0 35 1;
#X connect 34 0 36 0;
#X connect 34 0 38 0;
#X connect 35 0 14 0;
#X connect 36 0 35 0;
#X connect 47 0 33 0;
#X connect 47 1 34 0;
#X connect 47 2 32 0;
#X connect 47 3 31 0;
#X connect 47 4 30 0;
#X connect 48 0 0 0;
#X connect 49 0 47 0;
#X connect 50 0 48 0;
#X connect 51 0 49 0;
#X connect 51 0 50 0;
#X connect 51 0 67 0;
#X connect 52 0 12 0;
#X connect 52 0 11 1;
#X connect 61 0 47 0;
#X connect 62 0 47 0;
#X connect 63 0 47 0;
#X connect 64 0 65 0;
#X connect 65 0 70 0;
#X connect 65 1 71 0;
#X connect 65 2 63 0;
#X connect 65 3 62 0;
#X connect 65 4 61 0;
#X connect 65 5 68 0;
#X connect 65 6 69 0;
#X connect 65 7 72 0;
#X connect 66 0 64 0;
#X connect 67 0 64 0;
#X connect 68 0 47 0;
#X connect 69 0 47 0;
#X connect 70 0 47 0;
#X connect 71 0 47 0;
#X connect 72 0 47 0;
#X coords 0 -1 1 1 170 130 1 220 105;
