#N canvas 724 89 518 368 12;
#X obj 52 43 inlet~;
#X obj 76 254 outlet~;
#X obj 53 76 delwrite~ \$1-del 500;
#X obj 54 143 inlet;
#X text 106 43 <- arg 1: signal;
#X text 109 135 <- arg 2: delay (ms);
#X obj 73 181 delread~ \$1-del \$2;
#X obj 341 153 block~ 1;
#X connect 0 0 2 0;
#X connect 3 0 6 0;
#X connect 6 0 1 0;
