#N canvas 0 0 655 597 12;
#X obj 62 462 outlet~;
#X msg 43 297 0 \, 1 \$1;
#X obj 118 267 pipe 20;
#X obj 26 116 * 0.5;
#X obj 24 34 inlet;
#X obj 124 80 inlet;
#X obj 59 375 vline~;
#X floatatom 41 65 5 0 0 0 - - -;
#X obj 68 421 lop~ 6000;
#X obj 25 214 * 0.5;
#X msg 134 296 0 \$1;
#X text 171 79 <- fraction of period (0-1);
#X text 68 35 <- excitation width (ms);
#X connect 1 0 6 0;
#X connect 2 0 10 0;
#X connect 3 0 9 0;
#X connect 4 0 3 0;
#X connect 4 0 7 0;
#X connect 5 0 3 1;
#X connect 6 0 8 0;
#X connect 8 0 0 0;
#X connect 9 0 1 0;
#X connect 9 0 2 1;
#X connect 9 0 2 0;
#X connect 10 0 6 0;
