#N canvas 0 0 462 312 12;
#X obj 75 157 * 1000;
#X text 7 8 converts frequency in Hz to period in msec;
#X obj 82 52 inlet;
#X obj 77 203 outlet;
#X obj 95 123 /;
#X msg 41 84 1;
#X connect 0 0 3 0;
#X connect 2 0 4 1;
#X connect 2 0 5 0;
#X connect 4 0 0 0;
#X connect 5 0 4 0;
