#N canvas 55 326 171 125 12;
#X obj 62 472 outlet;
#X obj 124 472 outlet;
#X obj 184 472 outlet;
#X obj 62 437 *;
#X obj 124 441 *;
#X obj 183 440 *;
#X obj 361 264 sel 1 0;
#X obj 436 264 sel 1 0;
#X obj 360 298 v L;
#X obj 477 184 v R;
#X obj 173 175 v L;
#X obj 437 300 v R;
#X obj 361 212 >;
#X obj 416 216 <;
#X obj 222 64 s posIN;
#X obj 210 93 s posOUT;
#X obj 358 330 s Right;
#X obj 215 32 r Right;
#X obj 209 7 r Left;
#X obj 438 334 s Left;
#X obj 126 323 r posIN;
#X obj 197 287 r posOUT;
#X obj 171 398 -;
#X obj 227 400 -;
#X obj 227 376 f 1;
#X obj 59 342 t b;
#X obj 3 19 cnv 15 160 100 empty empty empty 20 12 1 14 -233017 -66577
0;
#X obj 10 34 hsl 128 15 0 1 0 0 empty empty Excitation -2 -6 1 8 -114372
-1 -1 0 1;
#X obj 10 66 hsl 128 15 0 1 0 0 empty empty Output -2 -6 1 8 -241291
-1 -1 12700 1;
#X floatatom 101 93 5 0 0 0 frequency - -;
#X msg 235 337 bang;
#X msg 125 373 bang;
#X obj 4 177 loadbang;
#X obj 323 9 loadbang;
#X obj 326 44 f 0.1;
#X obj 400 47 f 0.7;
#X obj 76 391 f 10;
#X obj 231 434 t b;
#X obj 129 414 t b;
#X obj 21 407 t b;
#X obj 144 245 f2T;
#X obj 9 207 f 100;
#X obj 122 285 * 0.5;
#X connect 3 0 0 0;
#X connect 4 0 1 0;
#X connect 5 0 2 0;
#X connect 6 0 8 0;
#X connect 7 0 11 0;
#X connect 8 0 16 0;
#X connect 11 0 19 0;
#X connect 12 0 6 0;
#X connect 13 0 7 0;
#X connect 17 0 28 0;
#X connect 18 0 27 0;
#X connect 20 0 3 1;
#X connect 20 0 22 1;
#X connect 20 0 25 0;
#X connect 20 0 31 0;
#X connect 20 0 39 0;
#X connect 21 0 22 0;
#X connect 21 0 23 1;
#X connect 21 0 25 0;
#X connect 21 0 30 0;
#X connect 22 0 4 1;
#X connect 22 0 38 0;
#X connect 23 0 5 1;
#X connect 23 0 37 0;
#X connect 24 0 23 0;
#X connect 25 0 36 0;
#X connect 27 0 14 0;
#X connect 27 0 10 0;
#X connect 27 0 12 0;
#X connect 27 0 13 1;
#X connect 28 0 15 0;
#X connect 28 0 9 0;
#X connect 28 0 13 0;
#X connect 28 0 12 1;
#X connect 29 0 40 0;
#X connect 30 0 24 0;
#X connect 31 0 22 0;
#X connect 32 0 41 0;
#X connect 33 0 34 0;
#X connect 33 0 35 0;
#X connect 34 0 27 0;
#X connect 35 0 28 0;
#X connect 36 0 3 0;
#X connect 36 0 4 0;
#X connect 36 0 5 0;
#X connect 37 0 5 0;
#X connect 38 0 4 0;
#X connect 39 0 3 0;
#X connect 40 0 42 0;
#X connect 41 0 29 0;
#X connect 42 0 36 0;
#X coords 0 0 1 1 163 120 1;
