#N canvas 240 48 835 938 12;
#X obj 41 181 v \$0-volume;
#X obj 43 379 v \$0-loopstart;
#X obj 41 606 v \$0-offset;
#X obj 25 891 outlet~;
#X obj 41 208 outlet;
#X obj 42 304 outlet;
#X obj 43 412 outlet;
#X obj 41 530 outlet;
#X obj 41 639 outlet;
#X obj 197 753 tabread \$0-silence;
#N canvas 0 0 454 304 graph2 0;
#X array \$0-silence 8 float 1;
#A 0 0 0 0 0 0 0 0 0;
#X coords 0 1 7 -1 20 10 1;
#X restore 425 755 graph;
#X obj 268 301 v \$0-offset;
#X obj 268 387 trigger bang bang float;
#X obj 357 425 until;
#X obj 357 462 float;
#X obj 463 537 >=;
#X obj 562 301 v \$0-loopstart;
#X obj 522 579 *;
#X obj 357 497 t f f;
#X obj 357 652 float;
#X obj 375 691 v \$0-offset;
#X obj 543 652 <;
#X obj 581 552 select 1;
#X obj 268 359 +;
#X obj 197 791 *;
#X obj 636 730 v \$0-volume;
#X obj 302 40 bang~;
#X obj 461 301 samplerate~;
#X obj 41 504 v \$0-looplen;
#X obj 690 301 v \$0-looplen;
#X obj 562 440 +;
#X obj 503 610 -;
#X obj 35 764 loadbang;
#X obj 36 830 v \$0-blocksize;
#X obj 35 733 block~ 64;
#X obj 302 100 until;
#X obj 302 130 float;
#X obj 369 101 + 1;
#X obj 369 134 mod;
#X obj 401 91 v \$0-blocksize;
#X obj 422 120 select 0;
#X obj 302 159 t b f f;
#X obj 197 830 tabwrite \$0-block;
#X obj 196 862 tabreceive~ \$0-block;
#X msg 35 795 64;
#X obj 12 23 inlet;
#X obj 23 62 inlet;
#X obj 38 243 inlet;
#X obj 53 347 inlet;
#X obj 66 450 inlet;
#X obj 86 574 inlet;
#X obj 302 69 t b b;
#X obj 42 271 v \$0-period;
#X obj 366 301 v \$0-period;
#X obj 428 332 *;
#X obj 396 359 /;
#X obj 345 262 trigger bang bang bang bang bang bang bang;
#X msg 335 332 3.57955e+06;
#X text 8 668 blocksize set here \, must match \$0-block's array size
;
#X obj 41 478 max 2;
#X obj 41 87 / 64;
#X obj 64 143 clip 0 1;
#X obj 532 821 table \$0-block 64;
#X connect 0 0 4 0;
#X connect 1 0 6 0;
#X connect 2 0 8 0;
#X connect 9 0 24 0;
#X connect 11 0 23 0;
#X connect 12 0 19 0;
#X connect 12 1 13 0;
#X connect 12 2 14 1;
#X connect 13 0 14 0;
#X connect 14 0 18 0;
#X connect 15 0 17 0;
#X connect 16 0 30 0;
#X connect 17 0 31 1;
#X connect 18 0 31 0;
#X connect 18 1 15 0;
#X connect 19 0 20 0;
#X connect 19 0 9 0;
#X connect 21 0 22 0;
#X connect 22 0 13 1;
#X connect 23 0 12 0;
#X connect 24 0 42 0;
#X connect 25 0 24 1;
#X connect 26 0 51 0;
#X connect 27 0 54 1;
#X connect 28 0 7 0;
#X connect 29 0 30 1;
#X connect 29 0 17 1;
#X connect 30 0 21 1;
#X connect 30 0 15 1;
#X connect 31 0 19 1;
#X connect 31 0 21 0;
#X connect 31 0 14 1;
#X connect 32 0 44 0;
#X connect 35 0 36 0;
#X connect 36 0 41 0;
#X connect 37 0 38 0;
#X connect 38 0 36 1;
#X connect 38 0 40 0;
#X connect 39 0 38 1;
#X connect 40 0 35 1;
#X connect 41 0 56 0;
#X connect 41 1 42 1;
#X connect 41 2 37 0;
#X connect 43 0 3 0;
#X connect 44 0 33 0;
#X connect 45 0 9 0;
#X connect 46 0 60 0;
#X connect 47 0 52 0;
#X connect 48 0 1 0;
#X connect 49 0 59 0;
#X connect 50 0 2 0;
#X connect 51 0 35 0;
#X connect 51 1 39 0;
#X connect 52 0 5 0;
#X connect 53 0 54 0;
#X connect 54 0 55 1;
#X connect 55 0 23 1;
#X connect 56 0 11 0;
#X connect 56 1 57 0;
#X connect 56 2 53 0;
#X connect 56 3 27 0;
#X connect 56 4 16 0;
#X connect 56 5 29 0;
#X connect 56 6 25 0;
#X connect 57 0 55 0;
#X connect 59 0 28 0;
#X connect 60 0 61 0;
#X connect 61 0 0 0;
#X coords 0 0 0.00109409 0.00125 400 50 0;
