#N canvas 205 224 692 484 12;
#X obj 40 364 outlet~;
#X obj 153 364 outlet~;
#X obj 266 364 outlet~;
#X obj 379 364 outlet~;
#X obj -93 -78 inlet;
#X obj -93 -48 route 1 2 3 4;
#X obj 40 338 paulachannel~;
#X obj 431 20 print paulachannel1;
#X obj 429 113 print paulachannel2;
#X obj 429 197 print paulachannel3;
#X obj 428 287 print paulachannel4;
#X obj 56 -33 print paula;
#X obj 153 338 paulachannel~;
#X obj 266 338 paulachannel~;
#X obj 379 338 paulachannel~;
#X obj 9 259 route waveform volume period loopstart looplen offset
;
#X obj 10 171 route waveform volume period loopstart looplen offset
;
#X obj 10 86 route waveform volume period loopstart looplen offset
;
#X obj 12 -6 route waveform volume period loopstart looplen offset
;
#X connect 4 0 5 0;
#X connect 5 0 18 0;
#X connect 5 1 17 0;
#X connect 5 2 16 0;
#X connect 5 3 15 0;
#X connect 5 4 11 0;
#X connect 6 0 0 0;
#X connect 12 0 1 0;
#X connect 13 0 2 0;
#X connect 14 0 3 0;
#X connect 15 0 14 0;
#X connect 15 1 14 1;
#X connect 15 2 14 2;
#X connect 15 3 14 3;
#X connect 15 4 14 4;
#X connect 15 5 14 5;
#X connect 15 6 10 0;
#X connect 16 0 13 0;
#X connect 16 1 13 1;
#X connect 16 2 13 2;
#X connect 16 3 13 3;
#X connect 16 4 13 4;
#X connect 16 5 13 5;
#X connect 16 6 9 0;
#X connect 17 0 12 0;
#X connect 17 1 12 1;
#X connect 17 2 12 2;
#X connect 17 3 12 3;
#X connect 17 4 12 4;
#X connect 17 5 12 5;
#X connect 17 6 8 0;
#X connect 18 0 6 0;
#X connect 18 1 6 1;
#X connect 18 2 6 2;
#X connect 18 3 6 3;
#X connect 18 4 6 4;
#X connect 18 5 6 5;
#X connect 18 6 7 0;
#X coords 0 0 0.00110011 0.00152207 500 140 0;
