#N canvas 600 300 295 520 12;
#X obj 75 51 until;
#X obj 215 12 select 0;
#X obj 76 87 float;
#X obj 139 51 + 1;
#X obj 76 118 trigger bang float;
#X obj 76 146 random 256;
#X obj 76 174 - 128;
#X obj 76 202 / 128;
#X obj 75 -12 inlet;
#X obj 76 309 tabwrite \$1;
#X obj 76 278 +;
#X floatatom 240 200 5 0 0 1 f1 - -;
#X obj 6 200 bng 15 250 50 0 empty empty random 20 9 0 8 -225271 -1
-1;
#X obj 116 278 *;
#X msg 8 226 0;
#X obj 237 286 t a;
#X floatatom 236 459 5 0 0 1 f2 - -;
#X obj 139 87 mod 10240;
#X obj 6 12 t b b;
#X obj 146 338 table \$1 10240;
#X obj 76 232 expr $f1*$f2 + $f3*$f4 \; $f1;
#X msg 43 422 read \$1 \$2;
#X obj 43 397 pack s s;
#X obj 108 367 symbol \$1;
#X msg 252 133 0.8;
#X msg 249 400 0.2;
#X obj 110 15 t b b b b;
#X obj 135 -16 loadbang;
#X obj 18 370 openpanel;
#X obj 8 459 bng 15 250 50 0 empty empty load 20 9 0 8 -225271 -1 -1
;
#X obj 43 449 soundfiler;
#X connect 0 0 2 0;
#X connect 1 0 0 1;
#X connect 2 0 3 0;
#X connect 2 0 4 0;
#X connect 3 0 17 0;
#X connect 4 0 5 0;
#X connect 4 1 9 1;
#X connect 5 0 6 0;
#X connect 6 0 7 0;
#X connect 7 0 20 0;
#X connect 8 0 0 0;
#X connect 10 0 9 0;
#X connect 10 0 13 0;
#X connect 11 0 13 1;
#X connect 11 0 20 1;
#X connect 12 0 18 0;
#X connect 13 0 10 1;
#X connect 14 0 10 0;
#X connect 14 0 10 1;
#X connect 15 0 20 3;
#X connect 16 0 20 2;
#X connect 17 0 2 1;
#X connect 17 0 1 0;
#X connect 18 0 0 0;
#X connect 18 1 14 0;
#X connect 20 0 10 0;
#X connect 20 0 15 0;
#X connect 21 0 30 0;
#X connect 22 0 21 0;
#X connect 23 0 22 1;
#X connect 24 0 11 0;
#X connect 25 0 16 0;
#X connect 26 0 0 0;
#X connect 26 1 23 0;
#X connect 26 2 25 0;
#X connect 26 3 24 0;
#X connect 27 0 26 0;
#X connect 28 0 22 0;
#X connect 29 0 28 0;
#X coords 0 0 1 1 100 80 1;
