#N canvas 542 48 571 644 12;
#X obj 11 56 inlet;
#X text 65 56 <0-127:cc> <0-127:val>;
#X text 11 6 ARGS: <1-4:channel>;
#X obj 168 111 float \$1;
#X obj 168 84 loadbang;
#X obj 11 84 unpack f f;
#X text 12 22 uses 2 adjacent Fostex Mixtab channels 2*$1-1..2*$1;
#X text 189 137 CC now for channels 1 and 2;
#X obj 11 175 select 16 17 24 25 32 33 40 41 66 67;
#X obj 11 210 f;
#X obj 42 210 f;
#X obj 74 210 f;
#X obj 106 210 f;
#X obj 138 210 f;
#X obj 170 210 f;
#X obj 202 210 f;
#X obj 234 210 f;
#X obj 266 210 f;
#X obj 298 210 f;
#X obj 11 137 expr $f1-($f2*2-2);
#X msg 74 467 dsdt \$1;
#X obj 74 415 - 64;
#X obj 74 441 / 16;
#X obj 106 493 * 8;
#X msg 106 519 ds \$1;
#X obj 11 610 outlet;
#X text 78 610 <symbol:controller> <float:val>;
#X obj 11 241 - 64;
#X obj 11 267 / 64;
#X msg 11 293 dvdt \$1;
#X obj 42 319 / 2;
#X msg 42 345 dv \$1;
#X obj 202 415 - 64;
#X obj 138 241 - 64;
#X obj 138 267 / 32;
#X msg 138 293 dldt \$1;
#X msg 170 345 dl \$1;
#X obj 170 319 * 2;
#X msg 234 517 dp \$1;
#X msg 202 467 dpdt \$1;
#X obj 202 441 / 64;
#X obj 234 492 expr 428*pow(2 \, (60-$f1)/12);
#X msg 298 447 tmax \$1;
#X obj 266 241 expr $f1>=64 \; if($f1>=64 \, $f1-64 \, $f1);
#X obj 298 378 expr $f1>=64 \; if($f1>=64 \, $f1-64 \, $f1);
#X msg 266 328 t \$1;
#X obj 266 304 float 0;
#X obj 266 280 select 1;
#X obj 298 421 expr pow(2 \, 2*$f1+int($f2/8));
#X text 359 303 button sets;
#X text 360 317 t to knob;
#X text 307 358 button multiplies by 4;
#X connect 0 0 5 0;
#X connect 3 0 19 1;
#X connect 4 0 3 0;
#X connect 5 0 19 0;
#X connect 5 1 9 1;
#X connect 5 1 10 1;
#X connect 5 1 11 1;
#X connect 5 1 12 1;
#X connect 5 1 13 1;
#X connect 5 1 14 1;
#X connect 5 1 15 1;
#X connect 5 1 16 1;
#X connect 5 1 17 1;
#X connect 5 1 18 1;
#X connect 8 0 9 0;
#X connect 8 1 10 0;
#X connect 8 2 11 0;
#X connect 8 3 12 0;
#X connect 8 4 13 0;
#X connect 8 5 14 0;
#X connect 8 6 15 0;
#X connect 8 7 16 0;
#X connect 8 8 17 0;
#X connect 8 9 18 0;
#X connect 9 0 27 0;
#X connect 10 0 30 0;
#X connect 11 0 21 0;
#X connect 12 0 23 0;
#X connect 13 0 33 0;
#X connect 14 0 37 0;
#X connect 15 0 32 0;
#X connect 16 0 41 0;
#X connect 17 0 43 0;
#X connect 18 0 44 0;
#X connect 19 0 8 0;
#X connect 20 0 25 0;
#X connect 21 0 22 0;
#X connect 22 0 20 0;
#X connect 23 0 24 0;
#X connect 24 0 25 0;
#X connect 27 0 28 0;
#X connect 28 0 29 0;
#X connect 29 0 25 0;
#X connect 30 0 31 0;
#X connect 31 0 25 0;
#X connect 32 0 40 0;
#X connect 33 0 34 0;
#X connect 34 0 35 0;
#X connect 35 0 25 0;
#X connect 36 0 25 0;
#X connect 37 0 36 0;
#X connect 38 0 25 0;
#X connect 39 0 25 0;
#X connect 40 0 39 0;
#X connect 41 0 38 0;
#X connect 42 0 25 0;
#X connect 43 0 47 0;
#X connect 43 1 46 1;
#X connect 44 0 48 0;
#X connect 44 1 48 1;
#X connect 45 0 25 0;
#X connect 46 0 45 0;
#X connect 47 0 46 0;
#X connect 48 0 42 0;
