#N canvas 206 328 604 473 10;
#X obj 440 465 swingcalc 4;
#X obj 12 297 swinggui 1;
#X obj 294 465 swingcalc 3;
#X obj 4 465 swingcalc 1;
#X obj 149 465 swingcalc 2;
#X obj 4 17 inlet;
#X obj 448 111 tcounterwithmax;
#X obj 4 494 outlet;
#X text 4 -6 clock bang;
#X text 54 494 paula control;
#X obj 448 297 swinggui 4;
#X obj 157 297 swinggui 2;
#X obj 302 297 swinggui 3;
#X obj 22 89 swingmidi 1;
#X obj 164 89 swingmidi 2;
#X obj 315 89 swingmidi 3;
#X obj 458 89 swingmidi 4;
#X obj 150 240 gate 0;
#X obj 187 216 ==;
#X obj 150 70 t a a;
#X floatatom 554 8 5 1 16 0 midichannel - -;
#X obj 12 111 tcounterwithmax;
#X obj 157 111 tcounterwithmax;
#X obj 302 111 tcounterwithmax;
#X obj 150 44 route ctl;
#X obj 150 17 inlet;
#X text 147 -1 ctl <1-16:channel> <0-127:cc> <0-127:val>;
#X msg 187 193 \$1;
#X msg 150 265 \$2 \$3;
#X connect 0 0 7 0;
#X connect 1 0 3 1;
#X connect 2 0 7 0;
#X connect 3 0 7 0;
#X connect 4 0 7 0;
#X connect 5 0 6 0;
#X connect 5 0 21 0;
#X connect 5 0 22 0;
#X connect 5 0 23 0;
#X connect 6 0 0 0;
#X connect 6 1 10 0;
#X connect 10 0 0 1;
#X connect 11 0 4 1;
#X connect 12 0 2 1;
#X connect 13 0 21 1;
#X connect 14 0 22 1;
#X connect 15 0 23 1;
#X connect 16 0 6 1;
#X connect 17 0 28 0;
#X connect 18 0 17 1;
#X connect 19 0 17 0;
#X connect 19 1 27 0;
#X connect 20 0 18 1;
#X connect 21 0 3 0;
#X connect 21 1 1 0;
#X connect 22 0 4 0;
#X connect 22 1 11 0;
#X connect 23 0 2 0;
#X connect 23 1 12 0;
#X connect 24 0 19 0;
#X connect 25 0 24 0;
#X connect 27 0 18 0;
#X connect 28 0 16 0;
#X connect 28 0 15 0;
#X connect 28 0 14 0;
#X connect 28 0 13 0;
#X coords 0 0 1 1 600 80 1;
