#N canvas 502 226 728 718 12;
#X obj 66 215 * 0.1;
#X obj 138 215 * 0.5;
#X obj 183 246 + 60;
#X obj 66 38 inlet;
#X obj 118 246 + 0;
#X obj 101 64 inlet;
#X obj 263 304 expr $i1;
#X obj 227 238 * 1;
#X obj 263 269 + 0;
#X text 115 37 t;
#X obj 328 246 + 64;
#X obj 268 215 * -0.01;
#X obj 66 145 t f f f f;
#X obj 328 273 expr $i1;
#X obj 92 532 outlet;
#X obj 92 491 route list;
#X obj 92 425 pack f f f f \$1;
#X msg 92 451 \$5 loopstart \$1 \, \$5 looplen \$2 \, \$5 period \$3
\, \$5 volume \$4;
#X obj 101 100 route dsdt ds dldt dl dpdt dp dvdt dv;
#X obj 392 145 print swingcalc;
#X obj 118 293 expr $i1;
#X obj 118 342 expr $i1-($i1%2);
#X connect 0 0 4 0;
#X connect 1 0 2 0;
#X connect 2 0 21 0;
#X connect 3 0 12 0;
#X connect 4 0 20 0;
#X connect 5 0 18 0;
#X connect 6 0 16 2;
#X connect 7 0 8 0;
#X connect 8 0 6 0;
#X connect 10 0 13 0;
#X connect 11 0 10 0;
#X connect 12 0 0 0;
#X connect 12 1 1 0;
#X connect 12 2 7 0;
#X connect 12 3 11 0;
#X connect 13 0 16 3;
#X connect 15 0 14 0;
#X connect 16 0 17 0;
#X connect 17 0 15 0;
#X connect 18 0 0 1;
#X connect 18 1 4 1;
#X connect 18 2 1 1;
#X connect 18 3 2 1;
#X connect 18 4 7 1;
#X connect 18 5 8 1;
#X connect 18 6 11 1;
#X connect 18 7 10 1;
#X connect 18 8 19 0;
#X connect 20 0 16 0;
#X connect 21 0 16 1;
