#N canvas 504 111 670 730 12;
#X obj 19 647 dac~;
#X obj 20 531 paula~;
#X obj 14 574 +~;
#X obj 48 574 +~;
#X obj 31 437 loadbang;
#X obj 20 198 swings;
#X obj 20 91 metro 21;
#X obj 6 602 /~ 2;
#X obj 49 603 /~ 2;
#X msg 31 463 1 waveform set random \, 2 waveform set random \, 3 waveform
set random \, 4 waveform set random \, 1 looplen 2 \, 2 looplen 2 \,
3 looplen 2 \, 4 looplen 2;
#X obj 124 60 randomwaveform random;
#X obj 593 63 ctlin;
#X obj 544 119 pack 0 f f f;
#X obj 593 90 t b f;
#X obj 6 671 writewav;
#X obj 20 64 tgl 15 0 empty empty start 20 9 0 8 -262131 -1 -1 0 1
;
#X msg 544 146 ctl \$2 \$3 \$4;
#X text 559 38 MIDI Input;
#X text 121 437 paula~ Initialisation;
#X text 78 649 Output;
#X text 124 38 Source Waveform;
#X text 22 38 Timing;
#X text 11 6 Swings and Roundabouts;
#X text 95 574 Mixer;
#X text 28 176 with varying quantized parameters;
#X text 28 159 Swings - random waveforms \, looped \,;
#X text 401 660 ClaudiusMaximus 2004;
#X text 401 643 swingsandroundabouts.pd 0.3;
#X text 401 677 Released under GPL;
#X text 401 694 Requires: gate (iemlib);
#X text 88 530 Swings Synth;
#X connect 1 0 2 0;
#X connect 1 1 2 1;
#X connect 1 2 3 0;
#X connect 1 3 3 1;
#X connect 2 0 7 0;
#X connect 3 0 8 0;
#X connect 4 0 9 0;
#X connect 5 0 1 0;
#X connect 6 0 5 0;
#X connect 7 0 0 0;
#X connect 7 0 14 0;
#X connect 8 0 0 1;
#X connect 8 0 14 1;
#X connect 9 0 1 0;
#X connect 11 0 13 0;
#X connect 11 1 12 2;
#X connect 11 2 12 1;
#X connect 12 0 16 0;
#X connect 13 0 12 0;
#X connect 13 1 12 3;
#X connect 15 0 6 0;
#X connect 16 0 5 1;
