#N canvas 357 63 157 241 12;
#X obj 3 65 vsl 15 128 -4 4 0 0 empty empty ds 0 -8 0 8 -261689 -1
-1 0 1;
#X obj 21 65 vsl 15 128 0 1270 0 0 empty empty s 0 -8 0 8 -261689 -1
-1 0 1;
#X obj 40 65 vsl 15 128 -2 2 0 0 empty empty dl 0 -8 0 8 -257472 -1
-1 0 1;
#X obj 58 65 vsl 15 128 0 127 0 0 empty empty l 0 -8 0 8 -257472 -1
-1 0 1;
#X obj 77 65 vsl 15 128 -0.5 0.5 0 0 empty empty dp 0 -8 0 8 -228992
-1 -1 0 1;
#X obj 95 65 vsl 15 128 0 1000 0 0 empty empty p 0 -8 0 8 -228992 -1
-1 0 1;
#X obj 114 65 vsl 15 128 -1 1 0 0 empty empty dv 0 -8 0 8 -225280 -1
-1 0 1;
#X obj 133 65 vsl 15 128 0 64 0 0 empty empty v 0 -8 0 8 -225280 -1
-1 0 1;
#X obj 3 26 route dsdt ds dldt dl dpdt dp dvdt dv;
#X obj 3 231 route list;
#X obj 3 256 outlet;
#X obj 3 2 inlet;
#X obj 209 3 print swinggui;
#N canvas 778 414 450 441 swingguiguts 0;
#X obj 386 402 outlet;
#X obj 14 32 inlet;
#X obj 50 7 inlet;
#X obj 86 32 inlet;
#X obj 122 7 inlet;
#X obj 159 32 inlet;
#X obj 195 7 inlet;
#X obj 232 32 inlet;
#X obj 268 7 inlet;
#X obj 14 60 t b f;
#X obj 50 170 t b f;
#X obj 86 276 t b f;
#X obj 123 60 t b f;
#X obj 159 170 t b f;
#X obj 195 276 t b f;
#X obj 232 60 t b f;
#X obj 268 170 t b f;
#X msg 14 97 dsdt;
#X obj 14 130 pack s f;
#X msg 123 97 dl;
#X obj 123 130 pack s f;
#X msg 232 97 dvdt;
#X obj 232 130 pack s f;
#X msg 50 203 ds;
#X obj 50 236 pack s f;
#X msg 159 203 dpdt;
#X obj 159 236 pack s f;
#X obj 268 236 pack s f;
#X msg 268 203 dv;
#X msg 86 311 dldt;
#X msg 195 311 dp;
#X obj 195 344 pack s f;
#X obj 86 344 pack s f;
#X connect 1 0 9 0;
#X connect 2 0 10 0;
#X connect 3 0 11 0;
#X connect 4 0 12 0;
#X connect 5 0 13 0;
#X connect 6 0 14 0;
#X connect 7 0 15 0;
#X connect 8 0 16 0;
#X connect 9 0 17 0;
#X connect 9 1 18 1;
#X connect 10 0 23 0;
#X connect 10 1 24 1;
#X connect 11 0 29 0;
#X connect 11 1 32 1;
#X connect 12 0 19 0;
#X connect 12 1 20 1;
#X connect 13 0 25 0;
#X connect 13 1 26 1;
#X connect 14 0 30 0;
#X connect 14 1 31 1;
#X connect 15 0 21 0;
#X connect 15 1 22 1;
#X connect 16 0 28 0;
#X connect 16 1 27 1;
#X connect 17 0 18 0;
#X connect 18 0 0 0;
#X connect 19 0 20 0;
#X connect 20 0 0 0;
#X connect 21 0 22 0;
#X connect 22 0 0 0;
#X connect 23 0 24 0;
#X connect 24 0 0 0;
#X connect 25 0 26 0;
#X connect 26 0 0 0;
#X connect 27 0 0 0;
#X connect 28 0 27 0;
#X connect 29 0 32 0;
#X connect 30 0 31 0;
#X connect 31 0 0 0;
#X connect 32 0 0 0;
#X restore 3 206 pd swingguiguts;
#X connect 0 0 13 0;
#X connect 1 0 13 1;
#X connect 2 0 13 2;
#X connect 3 0 13 3;
#X connect 4 0 13 4;
#X connect 5 0 13 5;
#X connect 6 0 13 6;
#X connect 7 0 13 7;
#X connect 8 0 0 0;
#X connect 8 1 1 0;
#X connect 8 2 2 0;
#X connect 8 3 3 0;
#X connect 8 4 4 0;
#X connect 8 5 5 0;
#X connect 8 6 6 0;
#X connect 8 7 7 0;
#X connect 8 8 12 0;
#X connect 9 0 10 0;
#X connect 11 0 8 0;
#X connect 13 0 9 0;
#X coords 0 0 1 1 141 110 1;
