#N canvas 0 0 328 250 12;
#X obj 24 179 f 0;
#X obj 102 179 expr ($i1+1)%$i2;
#X obj 24 11 inlet;
#X obj 46 41 inlet;
#X obj 24 220 outlet;
#X obj 149 220 outlet;
#X text 77 10 clock bang;
#X text 96 40 control;
#X text 211 219 control thru;
#X text 85 219 t;
#X obj 46 77 route t tmax;
#X obj 241 11 loadbang;
#X msg 241 45 48;
#X floatatom 241 134 5 0 0 0 tmax - -;
#X floatatom 46 134 5 0 0 0 t - -;
#X connect 0 0 1 0;
#X connect 0 0 4 0;
#X connect 1 0 0 1;
#X connect 2 0 0 0;
#X connect 3 0 10 0;
#X connect 10 0 14 0;
#X connect 10 1 13 0;
#X connect 10 2 5 0;
#X connect 11 0 12 0;
#X connect 12 0 13 0;
#X connect 13 0 1 1;
#X connect 14 0 0 1;
#X coords 0 0 1 1 140 30 1;
