#N canvas 89 147 162 84 10;
#X obj 110 265 writesf~ 2;
#X msg 126 169 start;
#X msg 131 200 stop;
#X obj 5 161 del 15000;
#X obj 5 59 bng 15 250 50 0 empty empty write 20 9 0 8 -261681 -1 -1
;
#X obj 5 99 t b b b;
#X obj 194 224 print writewav;
#X msg 110 133 open /mnt/files/tmp/out.wav;
#X obj 63 100 * 1000;
#X floatatom 63 60 5 0 0 1 seconds - -;
#X obj 63 9 loadbang;
#X msg 63 33 15;
#X obj 5 204 inlet~;
#X obj 62 203 inlet~;
#X connect 1 0 0 0;
#X connect 1 0 6 0;
#X connect 2 0 0 0;
#X connect 2 0 6 0;
#X connect 3 0 2 0;
#X connect 4 0 5 0;
#X connect 5 0 3 0;
#X connect 5 1 1 0;
#X connect 5 2 7 0;
#X connect 7 0 0 0;
#X connect 7 0 6 0;
#X connect 8 0 3 1;
#X connect 9 0 8 0;
#X connect 10 0 11 0;
#X connect 11 0 9 0;
#X connect 12 0 0 0;
#X connect 13 0 0 1;
#X coords 0 0 1 1 140 30 1;
