#N canvas 220 259 456 306 10;
#X obj 72 62 outlet;
#X obj 72 38 pack f f f f f f f f s;
#X obj 6 7 inlet;
#X obj 41 7 inlet;
#X obj 76 7 inlet;
#X obj 111 7 inlet;
#X obj 146 6 inlet;
#X obj 182 6 inlet;
#X obj 218 6 inlet;
#X obj 254 5 inlet;
#X obj 290 4 inlet;
#X obj 358 4 inlet;
#X obj 389 30 bng 15 250 50 0 empty empty empty 0 -6 0 8 -262144 -1
-1;
#X obj 358 55 gate 1;
#X obj 280 35 loadbang;
#X obj 334 35 tgl 15 0 empty empty empty 0 -6 0 8 -262144 -1 -1 0 1
;
#X text 319 72 repack on any change;
#X connect 1 0 0 0;
#X connect 2 0 1 0;
#X connect 3 0 1 1;
#X connect 3 0 12 0;
#X connect 4 0 1 2;
#X connect 4 0 12 0;
#X connect 5 0 1 3;
#X connect 5 0 12 0;
#X connect 6 0 1 4;
#X connect 6 0 12 0;
#X connect 7 0 1 5;
#X connect 7 0 12 0;
#X connect 8 0 1 6;
#X connect 8 0 12 0;
#X connect 9 0 1 7;
#X connect 9 0 12 0;
#X connect 10 0 1 8;
#X connect 10 0 12 0;
#X connect 11 0 13 0;
#X connect 12 0 13 1;
#X connect 13 0 1 0;
#X connect 14 0 15 0;
#X connect 15 0 13 0;
