#N canvas 535 222 823 602 8;
#X obj 151 325 samp_play s1 a_little_widrer;
#X obj 66 76 sampiface;
#X obj 208 86 r global_time_i;
#X obj 150 165 r start_i;
#X obj 269 127 r length_i;
#X obj 297 149 r samp_rate_i;
#X obj 325 170 r activate_i;
#X obj 351 192 r repeat_i;
#X obj 413 208 r divisor_i;
#X obj 150 208 r volume_i;
#X obj 157 381 dac~;
#X obj 432 297 table s1-sample;
#X obj 144 258 r open_file_i;
#X connect 0 0 10 0;
#X connect 0 0 10 1;
#X connect 2 0 0 7;
#X connect 3 0 0 2;
#X connect 4 0 0 3;
#X connect 5 0 0 4;
#X connect 6 0 0 5;
#X connect 7 0 0 6;
#X connect 8 0 0 8;
#X connect 9 0 0 1;
#X connect 12 0 0 0;
