#N canvas 67 44 1299 1043 10;
#X obj 421 19 metro 100;
#X obj 508 -28 hsl 128 15 10 1000 1 0 empty empty empty -2 -8 0 10
-262144 -1 -1 7576 1;
#X obj 420 -1 tgl 15 0 empty empty empty 17 7 0 10 -262144 -1 -1 1
1;
#X floatatom 1066 132 0 0 0 0 - - -;
#X obj 1066 107 + 1;
#X obj 1009 108 float;
#X floatatom 1010 128 5 0 0 0 - - -;
#X obj 1011 147 mod 16;
#X obj 509 39 / 2;
#X obj 529 -2 hsl 128 15 1 16 0 0 empty empty empty -2 -8 0 10 -262144
-1 -1 0 1;
#X obj 516 19 t b f;
#X msg 725 -3 4;
#X msg 691 -4 2;
#X msg 663 -4 1;
#X floatatom 620 0 5 0 0 0 - - -;
#X floatatom 605 -28 5 0 0 0 - - -;
#X msg 646 -28 250;
#X obj 726 -30 loadbang;
#X obj 231 720 ../cmp/mixer;
#X obj 267 937 dac~;
#X obj 272 701 *~ 1;
#X obj 294 908 *~ 1;
#X obj 264 908 *~ 1;
#X obj 330 908 hsl 128 15 0 3 0 0 empty empty empty -2 -8 0 10 -262144
-1 -1 6900 1;
#X obj 322 669 *~ 1;
#X obj 224 700 *~ 1;
#X obj 246 673 *~ 1;
#X obj 307 701 *~ 1;
#X obj 18 103 ../cmp/multi_osc1;
#X obj 292 -66 loadbang;
#X obj 180 -46 mtof;
#X obj 201 683 *~ 1;
#X obj 177 104 ../cmp/multi_osc1;
#X obj 605 492 ringmod;
#X obj 547 377 ../cmp/multi_osc1;
#X obj 742 387 ../cmp/multi_osc1;
#X obj 603 600 env;
#X obj 797 564 bng 15 250 50 0 empty empty empty 17 7 0 10 -262144
-1 -1;
#X obj 544 351 random 1000;
#X obj 745 321 random 1000;
#X obj 742 354 + 1000;
#X obj 882 513 metro;
#X obj 884 491 tgl 15 0 empty empty empty 17 7 0 10 -262144 -1 -1 1
1;
#X obj 632 708 noise~;
#X obj 837 604 / 2;
#X obj 856 552 hsl 128 15 1 16 0 0 empty empty empty -2 -8 0 10 -262144
-1 -1 0 1;
#X obj 843 573 t b f;
#X msg 1052 551 4;
#X msg 1018 550 2;
#X msg 990 550 1;
#X floatatom 947 554 5 0 0 0 - - -;
#X obj 632 775 *~ 1;
#X obj 632 752 vcf~;
#X obj 644 737 hsl 128 10 10 10000 1 0 empty empty empty -2 -8 0 10
-262144 -1 -1 11411 1;
#X obj 670 753 hsl 128 15 0.5 100 1 0 empty empty empty -2 -8 0 10
-262144 -1 -1 3600 1;
#X floatatom 741 735 5 0 0 0 - - -;
#X obj 249 26 hsl 128 15 0 500 0 0 empty empty empty -2 -8 0 10 -262144
-1 -1 400 1;
#X obj 685 774 bng 15 250 50 0 empty empty empty 17 7 0 10 -262144
-1 -1;
#X obj 821 350 mtof;
#X obj 864 349 hsl 128 15 0 127 0 0 empty empty empty -2 -8 0 10 -262144
-1 -1 10000 1;
#X obj 825 321 mtof;
#X obj 868 320 hsl 128 15 0 127 0 0 empty empty empty -2 -8 0 10 -262144
-1 -1 10200 1;
#X obj 541 325 mtof;
#X obj 584 324 hsl 128 15 0 127 0 0 empty empty empty -2 -8 0 10 -262144
-1 -1 12100 1;
#X obj 576 687 *~ 1;
#X obj 576 664 vcf~;
#X obj 588 649 hsl 128 10 100 3000 1 0 empty empty empty -2 -8 0 10
-262144 -1 -1 3800 1;
#X obj 617 665 hsl 128 15 0.5 100 1 0 empty empty empty -2 -8 0 10
-262144 -1 -1 5900 1;
#X floatatom 685 647 5 0 0 0 - - -;
#X obj 629 686 bng 15 250 50 0 empty empty empty 17 7 0 10 -262144
-1 -1;
#N canvas 246 282 1579 733 drums 0;
#X obj 238 620 outlet~;
#X obj 326 263 pack s f;
#X obj 219 119 bng 15 250 50 0 empty empty empty 17 7 0 10 -262144
-1 -1;
#X obj 172 21 inlet;
#X obj 855 255 pack s f;
#X obj 749 121 bng 15 250 50 0 empty empty empty 17 7 0 10 -262144
-1 -1;
#X obj 745 33 seq2;
#X msg 848 150 /media/disk1/media/samples/PlatinumSelection/BonusBeats/Hits/Hats/20.wav
0;
#X msg 868 185 /media/disk1/media/samples/PlatinumSelection/BonusBeats/Hits/Hats/21.wav
1;
#X msg 324 159 /media/disk1/media/samples/PlatinumSelection/BonusBeats/Hits/Kicks/20.wav
0;
#X msg 882 218 /media/disk1/media/samples/PlatinumSelection/BonusBeats/Hits/Hats/22.wav
2;
#X obj 728 157 loadbang;
#X obj 4 12 hradio 15 1 0 4 empty empty empty 0 -8 0 10 -262144 -1
-1 2;
#X floatatom 67 13 5 0 0 0 - - -;
#X obj 17 245 spigot;
#X obj 37 160 t f b;
#X obj 51 185 select 0 1 2 3;
#X msg 165 185 0;
#X obj 74 247 spigot;
#X obj 133 245 spigot;
#X obj 663 112 bng 15 250 50 0 empty empty empty 17 7 0 10 -262144
-1 -1;
#X obj 766 377 I07.phase.vocoder;
#X msg 745 265 100;
#X obj 177 246 spigot;
#X obj 208 227 tgl 15 0 empty empty empty 17 7 0 10 -262144 -1 -1 0
1;
#X obj 169 224 tgl 15 0 empty empty empty 17 7 0 10 -262144 -1 -1 1
1;
#X obj 106 224 tgl 15 0 empty empty empty 17 7 0 10 -262144 -1 -1 0
1;
#X obj 54 225 tgl 15 0 empty empty empty 17 7 0 10 -262144 -1 -1 0
1;
#X obj 390 335 random 3;
#X obj 391 357 int;
#X obj 165 56 mod 16;
#X obj 165 78 == 0;
#X obj 165 99 t b f;
#X obj 158 127 spigot;
#X floatatom 434 362 5 0 0 0 - - -;
#X obj 151 157 bng 15 250 50 0 empty empty empty 17 7 0 10 -262144
-1 -1;
#X msg 354 230 /media/disk1/media/samples/PlatinumSelection/BonusBeats/Hits/Kicks/26.wav
2;
#X obj 6 34 hradio 15 1 0 4 empty empty empty 0 -8 0 10 -262144 -1
-1 1;
#X floatatom 69 35 5 0 0 0 - - -;
#X obj 1267 271 spigot;
#X obj 1287 186 t f b;
#X obj 1301 211 select 0 1 2 3;
#X msg 1415 211 0;
#X obj 1325 275 spigot;
#X obj 1383 271 spigot;
#X obj 1427 272 spigot;
#X obj 1419 250 tgl 15 0 empty empty empty 17 7 0 10 -262144 -1 -1
0 1;
#X obj 1356 250 tgl 15 0 empty empty empty 17 7 0 10 -262144 -1 -1
1 1;
#X obj 1304 251 tgl 15 0 empty empty empty 17 7 0 10 -262144 -1 -1
0 1;
#X obj 1415 82 mod 16;
#X obj 1415 104 == 0;
#X obj 1415 125 t b f;
#X obj 1408 153 spigot;
#X obj 1401 183 bng 15 250 50 0 empty empty empty 17 7 0 10 -262144
-1 -1;
#X obj 907 326 random 3;
#X obj 908 348 int;
#X floatatom 943 353 5 0 0 0 - - -;
#X obj 1454 235 tgl 15 0 empty empty empty 17 7 0 10 -262144 -1 -1
0 1;
#X msg 339 196 /media/disk1/media/samples/PlatinumSelection/BonusBeats/Hits/Kicks/08.wav
1;
#X obj 248 380 I07.phase.vocoder;
#X msg 803 268 0;
#X msg 475 5 1 0 1 1 1 0 1 1 0 1 1 1 0 0 0 0;
#X msg 436 5 1;
#X msg 896 7 1;
#X msg 1050 5 1 0 1 1 0 0 1 1 0 1 1 1 0 0 1 0;
#X obj 737 5 t b b;
#X obj 216 30 seq2;
#X obj 767 649 outlet~;
#X obj 497 523 outlet;
#X msg 490 453 send /kick \$1;
#X msg 586 453 send /hat \$1;
#X obj 493 383 f;
#X connect 1 0 59 3;
#X connect 2 0 18 0;
#X connect 2 0 59 2;
#X connect 2 0 71 0;
#X connect 3 0 6 0;
#X connect 3 0 30 0;
#X connect 3 0 49 0;
#X connect 3 0 66 0;
#X connect 4 0 21 3;
#X connect 5 0 21 2;
#X connect 5 0 43 0;
#X connect 5 0 56 0;
#X connect 6 0 5 0;
#X connect 6 3 44 0;
#X connect 7 0 4 0;
#X connect 8 0 4 0;
#X connect 9 0 1 0;
#X connect 10 0 4 0;
#X connect 11 0 9 0;
#X connect 11 0 58 0;
#X connect 11 0 36 0;
#X connect 11 0 7 0;
#X connect 11 0 8 0;
#X connect 11 0 10 0;
#X connect 11 0 22 0;
#X connect 11 0 60 0;
#X connect 11 0 65 0;
#X connect 12 0 15 0;
#X connect 13 0 30 1;
#X connect 14 0 28 0;
#X connect 15 0 16 0;
#X connect 15 1 17 0;
#X connect 16 0 27 0;
#X connect 16 1 26 0;
#X connect 16 2 25 0;
#X connect 16 3 24 0;
#X connect 17 0 24 0;
#X connect 17 0 25 0;
#X connect 17 0 26 0;
#X connect 17 0 27 0;
#X connect 18 0 28 0;
#X connect 19 0 28 0;
#X connect 20 0 19 0;
#X connect 21 0 67 0;
#X connect 22 0 21 1;
#X connect 22 0 59 1;
#X connect 23 0 28 0;
#X connect 24 0 23 1;
#X connect 25 0 19 1;
#X connect 26 0 18 1;
#X connect 27 0 14 1;
#X connect 28 0 29 0;
#X connect 29 0 34 0;
#X connect 29 0 59 6;
#X connect 30 0 31 0;
#X connect 31 0 32 0;
#X connect 32 0 33 0;
#X connect 32 1 33 1;
#X connect 33 0 23 0;
#X connect 33 0 35 0;
#X connect 34 0 71 1;
#X connect 36 0 1 0;
#X connect 37 0 40 0;
#X connect 38 0 49 1;
#X connect 39 0 54 0;
#X connect 40 0 41 0;
#X connect 40 1 42 0;
#X connect 41 0 48 0;
#X connect 41 1 47 0;
#X connect 41 2 46 0;
#X connect 41 3 57 0;
#X connect 42 0 46 0;
#X connect 42 0 47 0;
#X connect 42 0 48 0;
#X connect 42 0 57 0;
#X connect 43 0 54 0;
#X connect 44 0 54 0;
#X connect 45 0 54 0;
#X connect 46 0 44 1;
#X connect 47 0 43 1;
#X connect 48 0 39 1;
#X connect 49 0 50 0;
#X connect 50 0 51 0;
#X connect 51 0 52 0;
#X connect 51 1 52 1;
#X connect 52 0 45 0;
#X connect 52 0 53 0;
#X connect 54 0 55 0;
#X connect 55 0 56 0;
#X connect 55 0 21 6;
#X connect 56 0 70 0;
#X connect 57 0 45 1;
#X connect 58 0 1 0;
#X connect 59 0 0 0;
#X connect 60 0 59 7;
#X connect 60 0 21 7;
#X connect 61 0 66 2;
#X connect 62 0 66 1;
#X connect 63 0 6 1;
#X connect 64 0 6 2;
#X connect 65 0 62 0;
#X connect 65 0 63 0;
#X connect 65 1 64 0;
#X connect 65 1 61 0;
#X connect 66 0 2 0;
#X connect 66 3 20 0;
#X connect 69 0 68 0;
#X connect 70 0 68 0;
#X connect 71 0 69 0;
#X coords 0 -1 1 1 105 60 1 0 0;
#X restore 1014 169 pd drums;
#X obj 837 691 random 1000;
#X obj 834 724 + 1000;
#X obj 913 720 mtof;
#X obj 956 719 hsl 128 15 0 127 0 0 empty empty empty -2 -8 0 10 -262144
-1 -1 9900 1;
#X obj 917 691 mtof;
#X obj 960 690 hsl 128 15 0 127 0 0 empty empty empty -2 -8 0 10 -262144
-1 -1 11400 1;
#X obj 71 391 *~ 1;
#X obj 141 381 *~ 1;
#X obj 141 358 vcf~;
#X obj 153 343 hsl 128 10 100 10000 1 0 empty empty empty -2 -8 0 10
-262144 -1 -1 2677 1;
#X obj 179 359 hsl 128 15 0.5 100 1 0 empty empty empty -2 -8 0 10
-262144 -1 -1 8200 1;
#X obj 197 432 random 1000;
#X obj 194 465 + 1000;
#X obj 273 461 mtof;
#X obj 317 461 hsl 128 15 0 127 0 0 empty empty empty -2 -8 0 10 -262144
-1 -1 5400 1;
#X obj 277 432 mtof;
#X obj 320 431 hsl 128 15 0 127 0 0 empty empty empty -2 -8 0 10 -262144
-1 -1 4200 1;
#X obj 631 801 env;
#X obj 38 6 hsl 128 15 0 127 0 0 empty empty empty -2 -8 0 10 -262144
-1 -1 4000 1;
#X floatatom 135 8 5 0 0 0 - - -;
#X obj 45 -59 notein;
#X floatatom 43 -39 5 0 0 0 - - -;
#X obj 37 -16 spigot;
#X obj 434 514 ctlin;
#X floatatom 434 535 5 0 0 0 - - -;
#X floatatom 449 558 5 0 0 0 - - -;
#X floatatom 463 579 5 0 0 0 - - -;
#X obj 275 551 route 71 74 84 7;
#X obj 394 591 pack f f;
#X obj 393 568 f;
#X obj 392 545 t b f;
#X floatatom 276 580 5 0 0 0 - - -;
#X floatatom 303 597 5 0 0 0 - - -;
#X floatatom 316 582 5 0 0 0 - - -;
#X floatatom 345 599 5 0 0 0 - - -;
#X obj 272 624 pack f f f f;
#X obj 244 608 bng 15 250 50 0 empty empty empty 17 7 0 10 -262144
-1 -1;
#X msg 647 -58 156;
#X obj 212 27 * 2;
#X obj 199 57 + 0;
#X obj 177 -6 t f f;
#X floatatom 347 27 5 0 0 0 - - -;
#X floatatom 222 -45 5 0 0 0 - - -;
#X floatatom 231 59 5 0 0 0 - - -;
#X floatatom 260 6 5 0 0 0 - - -;
#X floatatom 261 46 5 0 0 0 - - -;
#X obj 211 6 / 1000;
#X obj 263 -18 t b f;
#X obj 178 -26 f;
#X floatatom 415 432 5 0 0 0 - - -;
#X floatatom 413 462 5 0 0 0 - - -;
#X floatatom 274 360 5 0 0 0 - - -;
#X floatatom 250 341 5 0 0 0 - - -;
#X floatatom 966 320 5 0 0 0 - - -;
#X floatatom 962 350 5 0 0 0 - - -;
#X floatatom 1056 691 5 0 0 0 - - -;
#X floatatom 1053 720 5 0 0 0 - - -;
#X floatatom 712 666 5 0 0 0 - - -;
#X floatatom 768 753 5 0 0 0 - - -;
#X floatatom 681 324 5 0 0 0 - - -;
#X obj 1047 265 ../cmp/mixer;
#X text 890 439 sine wave only !;
#X floatatom 1127 171 5 0 0 0 - - -;
#X floatatom 1154 188 5 0 0 0 - - -;
#X floatatom 1167 173 5 0 0 0 - - -;
#X floatatom 1196 190 5 0 0 0 - - -;
#X obj 1123 215 pack f f f f;
#X obj 1125 151 route 91 93 5 10;
#X obj 1134 190 bng 15 250 50 0 empty empty empty 17 7 0 10 -262144
-1 -1;
#X text 316 361 15;
#X text 379 25 15;
#X text 688 309 35;
#X text 519 -44 155;
#X text 667 12 1;
#X text 723 649 276;
#X text 994 567 1;
#X text 445 462 57;
#X text 455 432 100;
#X text 961 368 53;
#X text 960 304 85;
#X text 748 666 5;
#X text 808 753 2.5;
#X obj 1130 -24 sendOSC;
#X obj 1130 -74 loadbang;
#X msg 1129 -46 connect localhost 10002;
#X msg 1031 -63 send /time \$1;
#X obj 829 62 spigot;
#X msg 864 41 1;
#X msg 1019 -9 send /met \$1;
#X obj 852 -15 bng 15 250 50 0 empty empty empty 17 7 0 10 -262144
-1 -1;
#X obj 896 45 bng 15 250 50 0 empty empty empty 17 7 0 10 -262144 -1
-1;
#X msg 829 38 0;
#X obj 859 83 bng 15 250 50 0 empty empty empty 17 7 0 10 -262144 -1
-1;
#X obj 863 12 del 200;
#X obj 903 -40 hsl 128 15 100 3000 0 0 empty empty empty -2 -8 0 10
-262144 -1 -1 9600 1;
#X floatatom 997 -39 5 0 0 0 - - -;
#X obj 917 81 spigot;
#X obj 799 -6 t b b b;
#X obj 920 39 loadbang;
#X msg 899 -66 1600;
#X msg 939 -64 1600;
#X obj 926 146 == 0;
#X obj 891 176 t b f;
#X obj 894 200 spigot;
#X obj 940 179 bng 15 250 50 0 empty empty empty 17 7 0 10 -262144
-1 -1;
#X msg 1018 15 send /note \$1;
#X msg 1018 35 send /notef \$1;
#X msg 1017 55 send /noter \$1;
#X msg 1141 26 send /noisef \$1;
#X msg 1138 49 send /noiset \$1;
#X msg 1139 70 send /noiser \$1;
#X msg 1150 0 send /vols \$1 \$2 \$3 \$4;
#X text 793 801 env:65;
#X msg 1175 89 send /blipm \$1;
#X msg 1172 112 send /blipc \$1;
#X msg 323 -3 15;
#X obj 110 -62 pack f f;
#X obj 167 -84 hsl 128 15 10 500 0 0 empty empty empty -2 -8 0 10 -262144
-1 -1 9300 1;
#X floatatom 261 -82 5 0 0 0 - - -;
#X text 169 -85 porta;
#X text 41 4 note;
#X obj 106 -39 line 0 10;
#X text 244 84 put keyboard 1-octave up for 60-90 reigon;
#X connect 0 0 5 0;
#X connect 0 0 168 0;
#X connect 1 0 8 0;
#X connect 1 0 15 0;
#X connect 1 0 44 0;
#X connect 2 0 0 0;
#X connect 4 0 3 0;
#X connect 4 0 5 1;
#X connect 5 0 4 0;
#X connect 5 0 6 0;
#X connect 6 0 7 0;
#X connect 7 0 70 0;
#X connect 7 0 172 0;
#X connect 8 0 0 1;
#X connect 9 0 10 0;
#X connect 9 0 14 0;
#X connect 10 0 8 0;
#X connect 10 1 8 1;
#X connect 11 0 9 0;
#X connect 12 0 9 0;
#X connect 13 0 9 0;
#X connect 16 0 1 0;
#X connect 17 0 16 0;
#X connect 18 0 22 0;
#X connect 18 1 21 0;
#X connect 20 0 18 4;
#X connect 20 0 18 5;
#X connect 21 0 19 1;
#X connect 22 0 19 0;
#X connect 23 0 21 1;
#X connect 23 0 22 1;
#X connect 24 0 20 0;
#X connect 25 0 18 0;
#X connect 25 0 18 1;
#X connect 26 0 18 2;
#X connect 26 0 18 3;
#X connect 27 0 18 6;
#X connect 27 0 18 7;
#X connect 28 0 77 0;
#X connect 29 0 186 0;
#X connect 30 0 28 0;
#X connect 30 0 113 0;
#X connect 30 0 119 0;
#X connect 31 0 25 0;
#X connect 32 0 77 0;
#X connect 33 0 36 0;
#X connect 34 0 33 0;
#X connect 35 0 33 1;
#X connect 36 0 65 0;
#X connect 37 0 36 1;
#X connect 37 0 38 0;
#X connect 37 0 39 0;
#X connect 38 0 34 0;
#X connect 38 0 184 0;
#X connect 39 0 40 0;
#X connect 40 0 35 0;
#X connect 40 0 185 0;
#X connect 41 0 37 0;
#X connect 41 0 71 0;
#X connect 41 0 82 0;
#X connect 42 0 41 0;
#X connect 43 0 52 0;
#X connect 44 0 41 1;
#X connect 45 0 46 0;
#X connect 45 0 50 0;
#X connect 46 0 44 0;
#X connect 46 1 44 1;
#X connect 47 0 45 0;
#X connect 48 0 45 0;
#X connect 49 0 45 0;
#X connect 51 0 88 0;
#X connect 52 0 51 0;
#X connect 53 0 52 1;
#X connect 53 0 55 0;
#X connect 53 0 179 0;
#X connect 54 0 52 2;
#X connect 54 0 129 0;
#X connect 54 0 181 0;
#X connect 56 0 112 0;
#X connect 56 0 118 0;
#X connect 57 0 88 1;
#X connect 57 0 180 0;
#X connect 58 0 40 1;
#X connect 59 0 58 0;
#X connect 59 0 125 0;
#X connect 60 0 39 1;
#X connect 61 0 60 0;
#X connect 61 0 124 0;
#X connect 62 0 38 1;
#X connect 63 0 62 0;
#X connect 63 0 130 0;
#X connect 64 0 26 0;
#X connect 65 0 64 0;
#X connect 66 0 65 1;
#X connect 66 0 68 0;
#X connect 67 0 65 2;
#X connect 67 0 128 0;
#X connect 70 0 131 0;
#X connect 70 1 153 0;
#X connect 70 2 131 2;
#X connect 71 0 72 0;
#X connect 72 0 53 0;
#X connect 72 0 57 0;
#X connect 73 0 72 1;
#X connect 74 0 73 0;
#X connect 74 0 127 0;
#X connect 75 0 71 1;
#X connect 76 0 75 0;
#X connect 76 0 126 0;
#X connect 77 0 79 0;
#X connect 78 0 31 0;
#X connect 79 0 78 0;
#X connect 80 0 79 1;
#X connect 80 0 123 0;
#X connect 80 0 177 0;
#X connect 81 0 79 2;
#X connect 81 0 122 0;
#X connect 81 0 178 0;
#X connect 82 0 83 0;
#X connect 83 0 80 0;
#X connect 84 0 83 1;
#X connect 85 0 84 0;
#X connect 85 0 121 0;
#X connect 86 0 82 1;
#X connect 87 0 86 0;
#X connect 87 0 120 0;
#X connect 88 0 24 0;
#X connect 89 0 90 0;
#X connect 89 0 187 0;
#X connect 91 0 92 0;
#X connect 91 1 93 1;
#X connect 92 0 93 0;
#X connect 93 0 89 0;
#X connect 94 0 95 0;
#X connect 94 1 96 0;
#X connect 94 2 97 0;
#X connect 95 0 101 0;
#X connect 96 0 100 1;
#X connect 98 0 102 0;
#X connect 98 1 103 0;
#X connect 98 2 104 0;
#X connect 98 3 105 0;
#X connect 99 0 98 0;
#X connect 99 0 138 0;
#X connect 100 0 99 0;
#X connect 101 0 100 0;
#X connect 101 1 99 1;
#X connect 102 0 106 0;
#X connect 103 0 106 1;
#X connect 103 0 107 0;
#X connect 104 0 106 2;
#X connect 104 0 107 0;
#X connect 105 0 106 3;
#X connect 105 0 107 0;
#X connect 106 0 18 9;
#X connect 106 0 182 0;
#X connect 107 0 106 0;
#X connect 108 0 1 0;
#X connect 109 0 110 1;
#X connect 109 0 116 0;
#X connect 110 0 32 0;
#X connect 110 0 114 0;
#X connect 111 0 110 0;
#X connect 111 1 117 0;
#X connect 117 0 109 0;
#X connect 117 0 115 0;
#X connect 118 1 109 1;
#X connect 119 0 111 0;
#X connect 131 0 27 0;
#X connect 133 0 137 0;
#X connect 134 0 137 1;
#X connect 134 0 139 0;
#X connect 135 0 137 2;
#X connect 136 0 137 3;
#X connect 137 0 131 9;
#X connect 138 0 133 0;
#X connect 138 1 134 0;
#X connect 138 2 135 0;
#X connect 138 3 136 0;
#X connect 139 0 137 0;
#X connect 154 0 155 0;
#X connect 155 0 153 0;
#X connect 156 0 153 0;
#X connect 157 0 163 0;
#X connect 158 0 157 1;
#X connect 158 0 161 0;
#X connect 158 0 167 1;
#X connect 159 0 153 0;
#X connect 162 0 157 1;
#X connect 162 0 167 1;
#X connect 164 0 158 0;
#X connect 165 0 164 1;
#X connect 165 0 166 0;
#X connect 165 0 156 0;
#X connect 167 0 164 0;
#X connect 168 0 160 0;
#X connect 168 0 162 0;
#X connect 168 1 157 0;
#X connect 168 2 167 0;
#X connect 169 0 158 0;
#X connect 172 0 173 0;
#X connect 173 0 174 0;
#X connect 173 1 174 1;
#X connect 174 0 159 0;
#X connect 174 0 175 0;
#X connect 176 0 153 0;
#X connect 177 0 153 0;
#X connect 178 0 153 0;
#X connect 179 0 153 0;
#X connect 180 0 153 0;
#X connect 181 0 153 0;
#X connect 182 0 153 0;
#X connect 184 0 153 0;
#X connect 185 0 153 0;
#X connect 187 0 192 0;
#X connect 188 0 187 1;
#X connect 188 0 189 0;
#X connect 192 0 30 0;
#X connect 192 0 176 0;
