#N canvas 704 78 458 308 8;
#X obj 15 17 inlet~;
#X text 65 14 signal;
#X floatatom 243 58 5 0 0 0 - - -;
#X msg 244 31 1;
#X obj 245 3 loadbang;
#X obj 153 12 inlet;
#X obj 231 197 outlet~;
#X obj 31 36 inlet~;
#X text 81 33 signal;
#X obj 307 10 inlet;
#X obj 320 66 OSCroute /amp;
#X obj 17 59 delwrite~ \$0-delay1_l 500;
#X obj 32 80 delwrite~ \$0-delay1_r 500;
#X obj 297 208 outlet~;
#X obj 231 163 *~ 1;
#X obj 301 182 *~ 1;
#X obj 40 117 hsl 128 15 1 1000 1 0 empty empty del -2 8 1 6 -261689
-258699 -143491 0 1;
#X obj 39 139 hsl 128 15 0 1 0 0 empty empty amp -2 8 0 6 -261681 -260818
-143491 12700 1;
#X floatatom 131 118 5 0 0 0 - - -;
#X obj 308 42 OSCroute /del;
#X floatatom 131 141 5 0 0 0 - - -;
#X obj 237 125 vd~ \$0-delay1_l;
#X obj 296 152 vd~ \$0-delay1_r;
#X obj 239 100 line~ 0 10;
#X msg 246 80 \$1 10;
#X obj 191 13 inlet;
#X text 37 251 221009:added an inlet for amp \, might fuck things up
in old patches;
#X connect 0 0 11 0;
#X connect 2 0 24 0;
#X connect 3 0 17 0;
#X connect 3 0 16 0;
#X connect 4 0 3 0;
#X connect 5 0 16 0;
#X connect 7 0 12 0;
#X connect 9 0 19 0;
#X connect 9 0 10 0;
#X connect 10 0 15 1;
#X connect 14 0 6 0;
#X connect 15 0 13 0;
#X connect 16 0 2 0;
#X connect 16 0 18 0;
#X connect 17 0 14 1;
#X connect 17 0 15 1;
#X connect 17 0 20 0;
#X connect 19 0 2 0;
#X connect 21 0 14 0;
#X connect 22 0 15 0;
#X connect 23 0 21 0;
#X connect 23 0 22 0;
#X connect 24 0 23 0;
#X connect 25 0 17 0;
#X coords 0 -1 1 1 150 60 1 30 100;
