#N canvas 832 192 766 918 12;
#X floatatom 494 315 5 0 0 0 - #0-transpo-set -;
#X floatatom 167 383 3 0 0 0 - #0-speed-set -;
#X floatatom 55 385 7 0 0 0 - #0-location-set -;
#N canvas 937 359 821 693 fft-analysis 0;
#X obj 51 477 *~;
#X obj 18 477 *~;
#X obj 18 499 -~;
#X obj 167 475 *~;
#X obj 136 475 *~;
#X obj 136 497 +~;
#X obj 109 193 *~;
#X obj 78 193 *~;
#X obj 50 193 *~;
#X obj 19 193 *~;
#X obj 19 218 +~;
#X obj 127 379 *~;
#X obj 20 622 *~;
#X obj 238 430 rfft~;
#X obj 108 161 rfft~;
#X obj 19 564 rifft~;
#X obj 21 646 outlet~;
#X obj 97 379 *~;
#X obj 97 401 +~;
#X obj 124 218 -~;
#X obj 18 431 *~;
#X obj 51 432 *~;
#X obj 421 623 block~;
#X obj 19 349 +~ 1e-15;
#X obj 19 598 *~;
#X obj 52 598 tabreceive~ \$0-hann;
#X obj 127 643 expr 2/(3*$f1);
#X obj 586 542 loadbang;
#X obj 97 425 q8_rsqrt~;
#N canvas 879 311 1006 799 read-windows 0;
#X obj 18 693 *~;
#X obj 156 300 f;
#X obj 102 139 /;
#X obj 195 695 *~;
#X obj 156 255 bang~;
#X obj 17 551 line~;
#X obj 102 164 * 1000;
#X obj 198 302 +;
#X obj 288 272 *;
#X obj 183 470 +;
#X obj 143 446 t f f;
#X msg 17 523 \$1 \, \$2 \$3;
#X obj 17 496 pack 0 0 0;
#X obj 178 371 / 1000;
#X obj 156 394 *;
#X text 188 394 reading location (samples);
#X obj 51 597 / 4;
#X obj 288 245 * 0.01;
#X floatatom 364 498 7 0 0 0 - - -;
#X obj 364 474 *;
#X obj 502 369 * 0.01;
#X obj 504 390 + 69;
#X obj 505 411 mtof;
#X obj 505 433 / 440;
#X obj 399 474 t b f;
#X obj 19 719 outlet~;
#X obj 195 720 outlet~;
#X obj 218 664 tabreceive~ \$0-hann;
#X msg 803 420 0;
#X msg 768 532 set \$1;
#X text 432 498 stretched window size (samples);
#X msg 877 533 set \$1;
#X msg 826 278 set \$1;
#X obj 808 140 t b f;
#X obj 826 257 f;
#X obj 754 171 int;
#X obj 754 203 sel 0;
#X msg 813 174 1;
#X msg 813 197 0;
#X obj 754 228 del 300;
#X obj 178 347 r \$0-insamprate;
#X msg 593 717 \; location \$1;
#X floatatom 111 187 5 0 0 0 - - -;
#X obj 102 115 t f b;
#X obj 142 139 samplerate~;
#X obj 102 208 / 4;
#X obj 193 420 / 2;
#X obj 156 420 -;
#X text 229 417 back up 1/2 window;
#X obj 16 597 -~;
#X text 43 6 Read two windows out of the recorded sample \, one 1/4
ahead of the other. The mid point of the front window is specified
by "location". If "speed" is nonzero \, "location" automatically precesses.
;
#X obj 528 720 * -0.5;
#X text 91 587 "back" window 1/4 cycle behind "front" one;
#X text 168 176 computation period (msec) for overlap of 4;
#X text 164 186 msec in a window;
#X obj 528 666 /;
#X obj 528 691 * 1000;
#X obj 528 642 t f b;
#X obj 568 666 samplerate~;
#X obj 528 619 f;
#X text 321 280 loop to precess the location according;
#X text 320 296 to the "speed" parameter.;
#X text 611 31 if location changes \, update number box;
#X text 610 50 in main window via "location-set" \, but;
#X text 613 69 taking care to limit frequency of updates.;
#X text 756 462 reflect control changes;
#X text 756 479 in main window.;
#X text 754 344 setting location by hand;
#X text 752 362 sets speed to zero.;
#X text 760 653 misc controls;
#X text 496 527 "rewind" control takes us;
#X text 499 545 to a location depending on;
#X text 499 564 stretched window size.;
#X obj 593 457 t b f;
#X obj 617 395 samplerate~;
#X obj 593 348 r \$0-insamprate;
#X obj 593 418 /;
#X obj 505 455 * 1;
#X text 494 312 desired transposition and sample;
#X text 494 329 rate correction for soundfile;
#X obj 593 370 t f b;
#X obj 808 94 r \$0-location;
#X obj 817 116 r \$0-see-loc;
#X obj 826 302 s \$0-location-set;
#X obj 803 386 r \$0-location;
#X obj 803 443 s \$0-speed;
#X obj 877 507 r \$0-transpo;
#X obj 768 508 r \$0-speed;
#X obj 768 557 s \$0-speed-set;
#X obj 878 583 s \$0-transpo-set;
#X obj 730 685 r \$0-no-detune;
#X obj 502 347 r \$0-transpo;
#X obj 286 222 r \$0-speed;
#X obj 102 91 r \$0-window-size;
#X obj 809 775 s \$0-rewind;
#X obj 813 754 bng 15 250 50 0 empty empty empty 17 7 0 10 -262144
-1 -1;
#X obj 699 762 s \$0-detune;
#X msg 699 738 0;
#X obj 517 762 s \$0-location;
#X floatatom 381 226 5 0 0 0 - - -;
#X obj 910 773 s \$0-speed;
#X obj 364 448 r \$0-window-size;
#X obj 233 306 s \$0-see-loc;
#X floatatom 906 742 5 0 0 0 - - -;
#X obj 845 684 r \$0-auto;
#X floatatom 871 259 10 0 0 0 - - -;
#X obj 528 586 r \$0-rewind;
#X floatatom 763 592 5 0 0 0 - - -;
#X floatatom 613 695 5 0 0 0 - - -;
#X floatatom 924 173 5 0 0 0 - - -;
#X floatatom 920 148 5 0 0 0 - - -;
#X obj 178 276 r \$0-location;
#X obj 213 534 r \$0-sampbank;
#X msg 213 564 set \$1;
#X obj 17 637 tabread4~ \$0-sample0;
#X obj 194 637 tabread4~ \$0-sample0;
#X connect 0 0 25 0;
#X connect 1 0 7 0;
#X connect 1 0 14 0;
#X connect 2 0 6 0;
#X connect 3 0 26 0;
#X connect 4 0 1 0;
#X connect 5 0 49 0;
#X connect 5 0 115 0;
#X connect 6 0 42 0;
#X connect 6 0 45 0;
#X connect 7 0 1 1;
#X connect 7 0 102 0;
#X connect 8 0 7 1;
#X connect 9 0 12 1;
#X connect 10 0 12 0;
#X connect 10 1 9 0;
#X connect 11 0 5 0;
#X connect 12 0 11 0;
#X connect 13 0 14 1;
#X connect 14 0 47 0;
#X connect 16 0 49 1;
#X connect 17 0 8 0;
#X connect 18 0 16 0;
#X connect 18 0 9 1;
#X connect 18 0 46 0;
#X connect 18 0 59 1;
#X connect 19 0 18 0;
#X connect 20 0 21 0;
#X connect 21 0 22 0;
#X connect 22 0 23 0;
#X connect 23 0 77 0;
#X connect 24 0 19 0;
#X connect 24 1 19 1;
#X connect 27 0 3 1;
#X connect 27 0 0 1;
#X connect 28 0 85 0;
#X connect 29 0 88 0;
#X connect 29 0 107 0;
#X connect 31 0 89 0;
#X connect 32 0 83 0;
#X connect 33 0 35 0;
#X connect 33 1 34 1;
#X connect 34 0 32 0;
#X connect 34 0 105 0;
#X connect 35 0 36 0;
#X connect 36 0 37 0;
#X connect 36 0 39 0;
#X connect 37 0 35 1;
#X connect 38 0 35 1;
#X connect 39 0 38 0;
#X connect 39 0 34 0;
#X connect 40 0 13 0;
#X connect 43 0 2 0;
#X connect 43 1 44 0;
#X connect 44 0 2 1;
#X connect 45 0 12 2;
#X connect 45 0 8 1;
#X connect 46 0 47 1;
#X connect 47 0 10 0;
#X connect 49 0 114 0;
#X connect 51 0 98 0;
#X connect 51 0 108 0;
#X connect 55 0 56 0;
#X connect 56 0 51 0;
#X connect 57 0 55 0;
#X connect 57 1 58 0;
#X connect 58 0 55 1;
#X connect 59 0 57 0;
#X connect 73 0 77 0;
#X connect 73 1 77 1;
#X connect 74 0 76 1;
#X connect 75 0 80 0;
#X connect 76 0 73 0;
#X connect 77 0 24 0;
#X connect 80 0 76 0;
#X connect 80 1 74 0;
#X connect 81 0 33 0;
#X connect 81 0 109 0;
#X connect 82 0 33 0;
#X connect 82 0 110 0;
#X connect 86 0 31 0;
#X connect 87 0 29 0;
#X connect 90 0 97 0;
#X connect 91 0 20 0;
#X connect 92 0 17 0;
#X connect 92 0 99 0;
#X connect 93 0 43 0;
#X connect 95 0 94 0;
#X connect 97 0 96 0;
#X connect 101 0 19 0;
#X connect 104 0 95 0;
#X connect 104 0 100 0;
#X connect 104 0 103 0;
#X connect 106 0 59 0;
#X connect 111 0 1 1;
#X connect 112 0 113 0;
#X connect 113 0 114 0;
#X connect 113 0 115 0;
#X connect 114 0 0 0;
#X connect 115 0 3 0;
#X restore 109 133 pd read-windows;
#X text 272 5 recall previous output amplitude. Its phase will be added
to the phase difference we measure from two windows in the the recorded
sound.;
#X obj 121 69 *~;
#X obj 89 69 *~;
#X obj 89 91 +~;
#X obj 159 94 q8_rsqrt~;
#X obj 159 71 +~ 1e-20;
#X obj 73 119 *~;
#X obj 19 118 *~;
#X obj 181 290 r lock;
#X obj 29 245 lrshift~ 1;
#X obj 24 269 lrshift~ -1;
#X obj 141 245 lrshift~ 1;
#X obj 133 269 lrshift~ -1;
#X obj 35 300 *~;
#X obj 159 312 *~;
#X obj 19 325 +~;
#X obj 125 331 +~;
#X text 247 66 divide by the magnitude to make a unit-magnitude complex
amplitude (phase only). The 1e-20 is to prevent overflows. q8_rsqrt~
is reciprocal square root.;
#X text 247 165 Take FT of the window in back. Multiply its conjugate
by the normalized previous output. The result has the magnitude of
the input sound and phase (previous output phase) minus (back window
phase).;
#X text 249 370 Normalize again \, this time taking care to salt each
channel with 1e-15 so that we get a unit complex number even if everything
was zero heretofore.;
#X text 288 427 Now take the FT of the forward window and multiply
it by the unit complex number from above. The magnitude will be that
of the forward window and the phase will be the previous output phase
plus the phase difference between the two analysis windows -- except
that if "lock" is on \, they will be modified to agree progressively
better with the inter-channel phase relationships of the input.;
#X text 249 242 If "lock" is on \, encourage neighboring channels to
stay in phase by adding the two neighboring complex amplitudes. The
result will tend toward the channel with the strongest amplitude. If
the phase relationships between channels in the output and those in
the input are in parallel \, then neighboring channels of the quotient
will all have the same phase and this will not change any phases. (lrshift
shifts the signal to the left or right depending on its argument.)
;
#X text 382 539 'set' message to block;
#X text 385 556 allows variable size;
#X text 259 126 Read two windows \, one 1/4 length behind the other
\, of the input sound \, with Hann window function (see inside).;
#X obj 421 574 r \$0-window-size;
#X obj 591 622 s \$0-window-size;
#X msg 550 624 2048;
#X msg 551 647 0;
#X obj 590 646 s \$0-transpo;
#X obj 592 670 s \$0-rewind;
#X obj 553 672 bng 15 250 50 0 empty empty empty 17 7 0 10 -262144
-1 -1;
#X obj 137 543 tabsend~ \$0-prev-imag;
#X obj 136 567 tabsend~ \$0-prev-real;
#X obj 73 29 tabreceive~ \$0-prev-imag;
#X obj 20 8 tabreceive~ \$0-prev-real;
#X obj 127 622 r \$0-window-size;
#X msg 423 598 set \$1 4;
#X connect 0 0 2 1;
#X connect 1 0 2 0;
#X connect 2 0 15 0;
#X connect 2 0 63 0;
#X connect 3 0 5 1;
#X connect 4 0 5 0;
#X connect 5 0 15 1;
#X connect 5 0 62 0;
#X connect 6 0 19 1;
#X connect 7 0 19 0;
#X connect 8 0 10 1;
#X connect 9 0 10 0;
#X connect 10 0 40 0;
#X connect 10 0 39 0;
#X connect 10 0 45 0;
#X connect 11 0 18 1;
#X connect 12 0 16 0;
#X connect 13 0 1 1;
#X connect 13 0 3 1;
#X connect 13 1 0 1;
#X connect 13 1 4 1;
#X connect 14 0 9 1;
#X connect 14 0 7 1;
#X connect 14 1 6 1;
#X connect 14 1 8 1;
#X connect 15 0 24 0;
#X connect 17 0 18 0;
#X connect 18 0 28 0;
#X connect 19 0 41 0;
#X connect 19 0 42 0;
#X connect 19 0 46 0;
#X connect 20 0 1 0;
#X connect 20 0 4 0;
#X connect 21 0 0 0;
#X connect 21 0 3 0;
#X connect 23 0 17 1;
#X connect 23 0 17 0;
#X connect 23 0 20 0;
#X connect 24 0 12 0;
#X connect 25 0 24 1;
#X connect 26 0 12 1;
#X connect 27 0 57 0;
#X connect 27 0 58 0;
#X connect 27 0 61 0;
#X connect 28 0 20 1;
#X connect 28 0 21 1;
#X connect 29 0 14 0;
#X connect 29 1 13 0;
#X connect 31 0 33 1;
#X connect 32 0 33 0;
#X connect 33 0 35 0;
#X connect 34 0 36 1;
#X connect 34 0 37 1;
#X connect 35 0 34 0;
#X connect 36 0 8 0;
#X connect 36 0 7 0;
#X connect 37 0 9 0;
#X connect 37 0 6 0;
#X connect 38 0 43 1;
#X connect 38 0 44 1;
#X connect 39 0 43 0;
#X connect 40 0 43 0;
#X connect 41 0 44 0;
#X connect 42 0 44 0;
#X connect 43 0 45 1;
#X connect 44 0 46 1;
#X connect 45 0 23 0;
#X connect 46 0 11 0;
#X connect 46 0 11 1;
#X connect 46 0 21 0;
#X connect 55 0 67 0;
#X connect 57 0 56 0;
#X connect 58 0 59 0;
#X connect 61 0 60 0;
#X connect 64 0 31 1;
#X connect 64 0 31 0;
#X connect 64 0 36 0;
#X connect 65 0 32 1;
#X connect 65 0 32 0;
#X connect 65 0 37 0;
#X connect 66 0 26 0;
#X connect 67 0 22 0;
#X restore 52 510 pd fft-analysis;
#N canvas 275 133 647 768 phase-tables 0;
#N canvas 0 0 450 300 (subpatch) 0;
#X array \$0-prev-imag 4096 float 0;
#X coords 0 1000 4096 -1000 400 300 1;
#X restore 169 326 graph;
#N canvas 0 0 450 300 (subpatch) 0;
#X array \$0-prev-real 4096 float 0;
#X coords 0 500 4096 -500 400 300 1;
#X restore 170 17 graph;
#X restore 440 504 pd phase-tables;
#X text 164 364 hundredths;
#X text 493 294 in cents;
#X text 389 359 normal;
#N canvas 894 139 565 454 hann-window 0;
#N canvas 0 0 450 300 (subpatch) 0;
#X array \$0-hann 2048 float 0;
#X coords 0 1 2047 0 300 100 1;
#X restore 82 311 graph;
#X obj 378 165 osc~;
#X obj 378 190 *~ -0.5;
#X obj 378 214 +~ 0.5;
#X obj 331 247 tabwrite~ \$0-hann;
#X obj 38 173 /;
#X obj 127 142 samplerate~;
#X obj 177 204 swap;
#X obj 177 228 /;
#X obj 49 201 * 1000;
#X obj 38 115 t f b f;
#X msg 173 92 resize \$1;
#X obj 173 116 s \$0-hann;
#X msg 382 130 0;
#X obj 330 131 t f b;
#X text 15 8 calculate Hann window table (variable window size) and
constants window-hz (fundamental frequency of analysis) \, window-sec
and window-msec (analysis window size in seconds and msec).;
#X obj 330 105 r \$0-window-hz;
#X obj 37 88 r \$0-window-size;
#X obj 49 228 s \$0-window-msec;
#X obj 38 251 s \$0-window-sec;
#X obj 177 252 s \$0-window-hz;
#X connect 1 0 2 0;
#X connect 2 0 3 0;
#X connect 3 0 4 0;
#X connect 5 0 9 0;
#X connect 5 0 19 0;
#X connect 6 0 5 1;
#X connect 6 0 7 1;
#X connect 7 0 8 0;
#X connect 7 1 8 1;
#X connect 8 0 20 0;
#X connect 9 0 18 0;
#X connect 10 0 5 0;
#X connect 10 0 7 0;
#X connect 10 1 6 0;
#X connect 10 2 11 0;
#X connect 11 0 12 0;
#X connect 13 0 1 1;
#X connect 14 0 1 0;
#X connect 14 1 4 0;
#X connect 14 1 13 0;
#X connect 16 0 14 0;
#X connect 17 0 10 0;
#X restore 440 528 pd hann-window;
#N canvas 879 328 820 766 insample 0;
#N canvas 56 313 450 300 (subpatch) 0;
#X array \$0-sample0 17792 float 0;
#X coords 0 1 17791 -1 400 150 1;
#X restore 408 20 graph;
#X obj 28 184 unpack s f;
#X obj 28 294 soundfiler;
#X text 108 459 read a sample;
#X obj 27 453 loadbang;
#X obj 28 210 t s b;
#X obj 28 245 pack s s;
#X obj 83 156 44100;
#X obj 28 157 t a b;
#X obj 38 318 s \$0-samplength;
#X obj 112 181 s \$0-insamprate;
#X obj 28 357 /;
#X obj 28 381 * 1000;
#X obj 28 404 s \$0-samp-msec;
#X obj 66 357 r \$0-insamprate;
#X obj 37 68 hip~ 5;
#X obj 37 44 adc~ 1;
#X obj 29 9 inlet;
#X obj 99 44 samplerate~;
#X obj 99 68 s \$0-insamprate;
#X obj 276 20 inlet;
#X obj 276 42 openpanel;
#X obj 276 67 s \$0-read-sample;
#X obj 28 133 r \$0-read-sample;
#X obj 27 513 symbol;
#X msg 26 489 ../sound/voice.wav;
#X obj 26 539 s \$0-read-sample;
#N canvas 0 0 450 300 (subpatch) 0;
#X array \$0-sample1 30528 float 0;
#X coords 0 1 30527 -1 400 150 1;
#X restore 408 196 graph;
#N canvas 0 0 450 300 (subpatch) 0;
#X array \$0-sample2 25664 float 0;
#X coords 0 1 25663 -1 400 150 1;
#X restore 407 373 graph;
#X obj 29 93 tabwrite~ \$0-sample0;
#X obj 262 92 r \$0-sampnum;
#X obj 262 140 route 0 1 2;
#X obj 259 170 symbol \$0-sample0;
#X obj 272 194 symbol \$0-sample1;
#X obj 276 221 symbol \$0-sample2;
#X obj 260 249 s \$0-sampbank;
#X obj 114 203 r \$0-sampbank;
#X obj 275 116 s \$0-sampnum-set;
#X obj 99 228 symbol \$0-sample0;
#X msg 29 271 read -skip 0 -maxsize 2e+08 -resize \$1 \$2;
#X obj 229 316 print insample;
#X connect 1 0 5 0;
#X connect 1 1 10 0;
#X connect 2 0 9 0;
#X connect 2 0 11 0;
#X connect 5 0 6 0;
#X connect 5 1 38 0;
#X connect 6 0 39 0;
#X connect 7 0 10 0;
#X connect 8 0 1 0;
#X connect 8 1 7 0;
#X connect 11 0 12 0;
#X connect 12 0 13 0;
#X connect 14 0 11 1;
#X connect 15 0 29 0;
#X connect 16 0 15 0;
#X connect 17 0 18 0;
#X connect 17 0 29 0;
#X connect 18 0 19 0;
#X connect 20 0 21 0;
#X connect 21 0 22 0;
#X connect 23 0 8 0;
#X connect 24 0 26 0;
#X connect 25 0 24 0;
#X connect 30 0 31 0;
#X connect 30 0 37 0;
#X connect 31 0 32 0;
#X connect 31 1 33 0;
#X connect 31 2 34 0;
#X connect 32 0 35 0;
#X connect 33 0 35 0;
#X connect 34 0 35 0;
#X connect 36 0 38 1;
#X connect 38 0 6 1;
#X connect 39 0 2 0;
#X connect 39 0 40 0;
#X restore 441 480 pd insample;
#X msg 229 486 ../sound/bell.aiff;
#X msg 229 511 ../sound/voice.wav;
#X msg 229 536 ../sound/voice2.wav;
#X obj 441 439 bng 15 250 50 0 empty empty empty 0 -6 0 8 -262144 -1
-1;
#X text 460 438 <- record;
#X obj 493 387 tgl 15 0 empty empty empty 0 -6 0 8 -262144 -1 -1 0
1;
#X obj 262 386 bng 15 250 50 0 empty empty empty 0 -6 0 8 -262144 -1
-1;
#X msg 345 336 200;
#X msg 345 358 100;
#X text 386 335 contract;
#X text 390 380 expand;
#X text 494 277 detune;
#X text 55 330 location;
#X text 52 346 (stops;
#X text 57 361 motion);
#X text 165 348 motion in;
#X text 232 464 read input sound;
#X text 103 7 PHASE VOCODER FOR TIME STETCHING AND CONTRACTION;
#X floatatom 607 419 5 0 0 0 - #0-window-size -;
#X msg 607 307 512;
#X msg 607 329 1024;
#X msg 607 351 2048;
#X msg 607 373 4096;
#X text 607 274 window size \,;
#X text 607 289 samples;
#X text 648 306 <- set;
#X text 100 306 ------- location controls -------;
#X text 660 419 (check);
#X text 23 35 This patch takes a sound \, analyzes windows in it both
for channel magnitude and for phase precession in each channel (compared
to another operlapping window). The real-time output recreates the
same magnitudes and phase precession \, althought the phases themselves
are in general different. You can control either the location or its
motion (setting location stops motion \, while setting a non-zero motion
causes the location to change automatically). "Rewind" goes back to
the beginning. You can use different window sizes (use the message
boxes - the number box is for readout). The "lock" feature forces phase
coherency between neighboring channels \, which makes a more present
sound but can add artifacts to the sound. Look in "pd fft-analysis"
to see the workings.;
#X text 201 590 updated for Pd version 0.39;
#X obj 551 316 bng 15 250 50 0 no-detune empty empty 0 -6 0 8 -262144
-1 -1;
#X obj 535 460 bng 15 250 50 0 empty empty empty 0 -6 0 8 -262144 -1
-1;
#X text 466 458 file ->;
#X msg 345 380 20;
#X obj 607 395 s \$0-window-size;
#X obj 493 407 s \$0-lock;
#X obj 494 338 s \$0-transpo;
#X obj 345 407 s \$0-auto;
#X obj 262 408 s \$0-rewind;
#X obj 167 407 s \$0-speed;
#X obj 60 408 s \$0-location;
#X obj 229 562 s \$0-read-sample;
#X obj 173 234 hsl 128 15 -5000 5000 0 0 \$0-transpo-set empty empty
-2 -8 0 10 -262144 -1 -1 0 1;
#X obj 597 598 >;
#X obj 596 450 r \$0-location-set;
#X obj 600 624 route 1;
#X floatatom 552 480 5 0 0 0 - #0-samp-msec -;
#X obj 614 572 r \$0-samp-msec;
#X floatatom 629 600 5 0 0 0 - - -;
#X obj 598 476 unpack s f;
#X obj 476 790 random 48;
#X obj 476 844 * 100;
#X obj 475 817 - 24;
#X floatatom 474 877 5 0 0 0 - - #0-transpo;
#X obj 478 757 bng 15 250 50 0 empty empty empty 17 7 0 10 -262144
-1 -1;
#X obj 614 776 int;
#X obj 613 803 route 0 1 2 3 4;
#X msg 611 827 25;
#X msg 645 827 50;
#X msg 681 828 100;
#X msg 718 828 200;
#X obj 615 748 random 5;
#X msg 571 826 12.5;
#X floatatom 634 865 5 0 0 0 - - -;
#X obj 262 694 s \$0-read-sample;
#X obj 262 624 inlet;
#X obj 262 672 symbol;
#X obj 98 694 inlet;
#X obj 52 566 outlet~;
#X obj 35 630 inlet;
#X obj 183 787 bng 15 250 50 0 empty empty empty 0 -6 0 8 -262144 -1
-1;
#X obj 183 808 s \$0-rewind;
#X obj 183 763 inlet;
#X obj 314 766 inlet;
#X obj 595 683 s \$0-rewind;
#X floatatom 604 135 7 0 0 0 - #0-location-set -;
#X text 663 133 pos(ms);
#X floatatom 604 153 5 -1000 1000 0 - #0-speed-set -;
#X text 660 154 speed;
#X floatatom 606 189 5 0 0 0 - #0-transpo-set -;
#X text 654 189 detune(cents);
#X obj 608 116 hsl 128 15 0 100 0 0 empty empty empty -2 -8 0 10 -262144
-1 -1 0 1;
#X floatatom 701 116 5 0 0 0 - - -;
#X text 614 117 location;
#X floatatom 541 102 5 0 0 0 - - -;
#X obj 541 64 r \$0-samp-msec;
#X obj 558 132 / 100;
#X obj 527 178 * 1;
#X obj 609 172 hsl 128 15 -3000 3000 0 0 empty \$0-transpo-set empty
-2 -8 0 10 -262144 -1 -1 6350 1;
#X floatatom 679 176 6 0 0 0 - - -;
#X text 616 171 detune;
#X msg 689 63 0;
#X obj 689 39 loadbang;
#X msg 735 150 0;
#X obj 714 152 bng 15 250 50 0 empty empty empty 17 7 0 10 -262144
-1 -1;
#X text 730 150 0;
#X obj 598 654 spigot;
#X obj 711 134 tgl 15 0 empty \$0-loop empty 17 7 0 10 -262144 -1 -1
0 1;
#X obj 60 485 outlet;
#X obj 56 431 r \$0-location-set;
#X obj 52 458 unpack s f;
#X obj 314 794 s \$0-transpo;
#X obj 98 722 s \$0-speed;
#X obj 35 658 s \$0-location;
#X obj 607 212 hradio 15 1 0 3 empty \$0-sampnum-set empty 0 -8 0 10
-262144 -1 -1 2;
#X obj 378 741 inlet;
#X obj 378 769 s \$0-sampnum;
#X obj 272 647 unpack s f;
#X floatatom 422 741 5 0 0 0 - - -;
#X msg 722 62 1;
#X obj 638 241 s \$0-sampnum;
#X obj 684 616 bng 15 250 50 0 empty empty empty 17 7 0 10 -262144
-1 -1;
#X floatatom 690 509 5 0 0 0 - - -;
#X text 719 133 loop;
#X obj 691 9 inlet;
#X obj 718 308 inlet;
#X obj 718 336 s \$0-loop;
#X connect 0 0 46 0;
#X connect 1 0 49 0;
#X connect 2 0 50 0;
#X connect 3 0 78 0;
#X connect 10 0 51 0;
#X connect 11 0 51 0;
#X connect 12 0 51 0;
#X connect 13 0 9 0;
#X connect 15 0 45 0;
#X connect 16 0 48 0;
#X connect 17 0 47 0;
#X connect 18 0 47 0;
#X connect 29 0 44 0;
#X connect 30 0 44 0;
#X connect 31 0 44 0;
#X connect 32 0 44 0;
#X connect 41 0 9 1;
#X connect 43 0 47 0;
#X connect 53 0 55 0;
#X connect 54 0 59 0;
#X connect 55 0 106 0;
#X connect 57 0 53 1;
#X connect 57 0 58 0;
#X connect 59 1 53 0;
#X connect 59 1 122 0;
#X connect 60 0 62 0;
#X connect 61 0 63 0;
#X connect 62 0 61 0;
#X connect 64 0 60 0;
#X connect 65 0 66 0;
#X connect 66 0 72 0;
#X connect 66 1 67 0;
#X connect 66 2 68 0;
#X connect 66 3 69 0;
#X connect 66 4 70 0;
#X connect 67 0 73 0;
#X connect 68 0 73 0;
#X connect 69 0 73 0;
#X connect 70 0 73 0;
#X connect 71 0 65 0;
#X connect 72 0 73 0;
#X connect 75 0 117 0;
#X connect 76 0 74 0;
#X connect 77 0 112 0;
#X connect 79 0 113 0;
#X connect 80 0 81 0;
#X connect 82 0 80 0;
#X connect 83 0 111 0;
#X connect 87 0 112 0;
#X connect 91 0 92 0;
#X connect 91 0 96 0;
#X connect 94 0 97 1;
#X connect 95 0 94 0;
#X connect 96 0 97 0;
#X connect 97 0 113 0;
#X connect 98 0 99 0;
#X connect 98 0 111 0;
#X connect 102 0 101 0;
#X connect 102 0 119 0;
#X connect 103 0 98 0;
#X connect 104 0 103 0;
#X connect 106 0 84 0;
#X connect 107 0 106 1;
#X connect 109 0 110 0;
#X connect 110 1 108 0;
#X connect 114 0 120 0;
#X connect 115 0 116 0;
#X connect 115 0 118 0;
#X connect 117 0 76 0;
#X connect 117 1 116 0;
#X connect 119 0 107 0;
#X connect 121 0 106 1;
#X connect 124 0 114 0;
#X connect 125 0 126 0;
#X coords 0 -1 1 1 150 130 1 600 100;
