#N canvas 1060 479 450 430 10;
#X obj 113 9 random 360;
#X obj 113 30 - 180;
#X msg 113 57 15 0 0 \$1;
#X msg 139 180 16 \$1 \$2 0;
#X obj 141 90 random 8;
#X obj 141 112 - 4;
#X obj 170 111 random 8;
#X obj 170 133 - 4;
#X obj 142 155 pack f f;
#X obj 201 89 bng 15 250 50 0 empty empty empty 17 7 0 10 -262144 -1
-1;
#X obj 145 272 pack f f;
#X obj 204 206 bng 15 250 50 0 empty empty empty 17 7 0 10 -262144
-1 -1;
#X msg 145 293 18 \$1 \$2;
#X obj 144 207 random 5;
#X obj 181 227 random 5;
#X obj 143 229 + 0.2;
#X obj 173 250 + 0.2;
#X obj 18 8 inlet;
#X obj 70 362 outlet;
#X obj 11 360 outlet;
#X msg 299 226 tree_1000;
#X msg 298 184 yello_flwr;
#X msg 294 207 yello_flwr1;
#X msg 296 162 purlpe_flwr;
#X msg 298 140 pink_rose;
#X msg 290 117 pink_flwr;
#X msg 290 80 moon;
#X obj 290 57 route 1 2 3 4 5 6 7 8 9;
#X msg 290 249 building1_1024;
#X msg 292 272 building2_1024;
#X obj 285 29 random 30;
#X obj 196 327 random 360;
#X obj 196 348 - 180;
#X obj 276 328 random 360;
#X obj 276 349 - 180;
#X obj 199 373 pack f f;
#X obj 173 326 bng 15 250 50 0 empty empty empty 17 7 0 10 -262144
-1 -1;
#X msg 198 394 17 0 0 \$1;
#X connect 0 0 1 0;
#X connect 1 0 2 0;
#X connect 2 0 18 0;
#X connect 3 0 18 0;
#X connect 4 0 5 0;
#X connect 5 0 8 0;
#X connect 6 0 7 0;
#X connect 7 0 8 1;
#X connect 8 0 3 0;
#X connect 9 0 4 0;
#X connect 9 0 6 0;
#X connect 10 0 12 0;
#X connect 11 0 13 0;
#X connect 11 0 14 0;
#X connect 12 0 18 0;
#X connect 13 0 15 0;
#X connect 14 0 16 0;
#X connect 15 0 10 0;
#X connect 16 0 10 1;
#X connect 17 0 0 0;
#X connect 17 0 9 0;
#X connect 17 0 11 0;
#X connect 17 0 30 0;
#X connect 17 0 36 0;
#X connect 20 0 19 0;
#X connect 21 0 19 0;
#X connect 22 0 19 0;
#X connect 23 0 19 0;
#X connect 24 0 19 0;
#X connect 25 0 19 0;
#X connect 26 0 19 0;
#X connect 27 0 26 0;
#X connect 27 1 25 0;
#X connect 27 2 24 0;
#X connect 27 3 23 0;
#X connect 27 4 22 0;
#X connect 27 5 20 0;
#X connect 27 6 28 0;
#X connect 27 7 29 0;
#X connect 28 0 19 0;
#X connect 30 0 27 0;
#X connect 31 0 32 0;
#X connect 32 0 35 0;
#X connect 33 0 34 0;
#X connect 34 0 35 1;
#X connect 35 0 37 0;
#X connect 36 0 31 0;
#X connect 36 0 33 0;
#X connect 37 0 18 0;
