#N canvas 1309 78 467 453 10;
#X text 184 34 <- would be the music signal;
#X obj 54 117 *~;
#X obj 306 -37 hsl 128 15 0 1 0 0 empty empty empty -2 -8 0 10 -262144
-1 -1 10400 1;
#X floatatom 401 -36 5 0 0 0 - - -;
#X obj 53 23 *~ 1;
#X obj 55 143 *~ 1;
#X obj 305 3 hsl 128 15 0 1 0 0 empty empty empty -2 -8 0 10 -262144
-1 -1 10100 1;
#X floatatom 403 3 5 0 0 0 - - -;
#X obj 100 100 *~ 1;
#X obj 65 190 +~;
#X obj 66 212 *~ 1;
#X obj 305 21 hsl 128 15 0 1 0 0 empty empty empty -2 -8 0 10 -262144
-1 -1 10100 1;
#X floatatom 402 22 5 0 0 0 - - -;
#X text 304 20 volume;
#X obj 99 133 *~ 1;
#X obj 306 -16 hsl 128 15 0 1 0 0 empty empty empty -2 -8 0 10 -262144
-1 -1 9700 1;
#X floatatom 403 -15 5 0 0 0 - - -;
#X text 107 32 carrier xc(t);
#X text 22 120 xm(t);
#X obj 47 -57 inlet~;
#X text 72 -35 modulator am(t);
#X text 305 -17 carrier vol;
#X text 308 -38 mod vol;
#X obj 98 53 inlet~;
#X obj 176 -58 inlet;
#X obj 217 -57 inlet;
#X obj 255 -58 inlet;
#X text 304 2 modulator mix;
#X obj 67 244 outlet~;
#X obj 292 -59 inlet;
#X connect 1 0 5 0;
#X connect 2 0 3 0;
#X connect 2 0 4 1;
#X connect 4 0 1 0;
#X connect 5 0 9 0;
#X connect 6 0 5 1;
#X connect 6 0 7 0;
#X connect 8 0 1 1;
#X connect 8 0 14 0;
#X connect 9 0 10 0;
#X connect 10 0 28 0;
#X connect 11 0 10 1;
#X connect 11 0 12 0;
#X connect 14 0 9 1;
#X connect 15 0 14 1;
#X connect 15 0 16 0;
#X connect 19 0 4 0;
#X connect 23 0 8 0;
#X connect 24 0 2 0;
#X connect 25 0 15 0;
#X connect 26 0 6 0;
#X connect 29 0 11 0;
#X coords 0 -1 1 1 150 90 1 300 -50;
