#N canvas 749 164 1147 862 10;
#X text 369 682 todo: control sigs \,;
#X obj 6 -72 cnv 15 200 250 empty empty empty 20 12 0 14 -233017 -66577
0;
#X msg 20 -28 800 600 0 0;
#X msg 23 18 320 240 0 0;
#X msg 96 -29 800 600 1440 -1;
#X msg 21 -6 1024 768 0 0;
#X msg 105 -9 1024 768 1440 -1;
#X msg 19 63 offset \$3 \$4;
#X msg 102 63 dimen \$1 \$2;
#X obj 35 84 t b b;
#X msg 78 130 destroy;
#X obj 139 109 tgl 15 0 empty empty empty 0 -6 0 8 -262144 -1 -1 1
1;
#X text 153 107 render;
#X msg 82 111 0;
#X msg 31 111 1;
#X obj 133 130 gemwin 20;
#X msg 18 -48 640 480 0 0;
#X msg 104 15 400 300 0 0;
#X msg 13 41 1440 900 0 -1;
#X text 35 -69 open window;
#X obj 97 83 tgl 15 0 empty empty empty 0 -6 0 8 -262144 -1 -1 1 1
;
#X text 190 28 fullscreen;
#X msg 109 37 800 600 -1 -1;
#X msg 180 61 fullscreen 1;
#X obj 229 -68 t b b;
#X msg 194 84 border 0;
#X msg 95 -49 1024 768 1920 -1;
#X msg 191 41 fullscreen 0;
#X msg 22 153 create :0.0;
#X msg 210 -2 offset 1920 0;
#X msg 204 106 border 1;
#X obj 330 -63 dumpOSC 10002;
#X msg 121 82 lighting 0;
#X msg 206 -24 dimen 1024 768;
#X obj 50 337 translateXYZ;
#X obj 46 546 square;
#X obj 50 238 gemhead;
#X obj 50 416 color;
#X obj 126 266 OSCroute /kick;
#X floatatom 126 292 5 0 0 0 - - -;
#X msg 128 459 0;
#X msg 99 437 1;
#X obj 50 442 spigot;
#X obj 128 310 bng 15 250 50 0 empty empty empty 17 7 0 10 -262144
-1 -1;
#X obj 184 337 translateXYZ;
#X obj 186 521 square;
#X obj 184 416 color;
#X floatatom 260 292 5 0 0 0 - - -;
#X msg 262 459 0;
#X msg 233 437 1;
#X obj 184 442 spigot;
#X obj 262 310 bng 15 250 50 0 empty empty empty 17 7 0 10 -262144
-1 -1;
#X obj 260 266 OSCroute /hat;
#X obj 186 238 gemhead;
#X obj 263 437 del 80;
#X obj 129 437 del 80;
#X msg 216 204 -2;
#X obj 345 330 translateXYZ;
#X obj 345 409 color;
#X floatatom 424 230 5 0 0 0 - - -;
#X obj 423 303 bng 15 250 50 0 empty empty empty 17 7 0 10 -262144
-1 -1;
#X obj 347 231 gemhead;
#X msg 377 197 0;
#X obj 421 210 OSCroute /note;
#X obj 95 290 * 2;
#X obj 95 313 - 2;
#X obj 230 292 * 2;
#X obj 230 313 - 2;
#X obj 345 512 rectangle;
#X obj 399 408 OSCroute /notef;
#X obj 418 440 / 2000;
#X obj 453 265 > 50;
#X obj 455 306 route 0 1;
#X obj 455 285 pack f f;
#X obj 481 368 - 2;
#X obj 482 327 - 50;
#X obj 481 347 / 8;
#X obj 463 239 t f f;
#X obj 455 425 OSCroute /noter;
#X msg 464 480 50;
#X obj 477 505 - 0;
#X obj 465 456 t b f;
#X obj 479 535 / 25;
#X obj 568 342 translateXYZ;
#X obj 568 421 color;
#X obj 568 447 spigot;
#X obj 570 243 gemhead;
#X obj 620 446 tgl 15 0 empty empty empty 17 7 0 10 -262144 -1 -1 1
1;
#X obj 565 524 rectangle;
#X floatatom 683 363 5 0 0 0 - - -;
#X msg 671 445 0;
#X msg 642 423 1;
#X obj 685 381 bng 15 250 50 0 empty empty empty 17 7 0 10 -262144
-1 -1;
#X obj 672 423 del 80;
#X obj 683 337 OSCroute /noiset;
#X msg 600 209 2;
#X msg 660 532 50;
#X obj 673 557 - 0;
#X obj 661 508 t b f;
#X obj 651 477 OSCroute /noiser;
#X obj 650 285 / 1000;
#X obj 52 480 alpha;
#X obj 53 594 mblur;
#X msg 117 563 1024 768;
#X floatatom 696 277 5 0 0 0 - - -;
#X floatatom 706 301 5 0 0 0 - - -;
#X obj 650 255 OSCroute /noisef;
#X obj 622 313 - 3;
#X obj 503 39 unpack f f f f;
#X obj 503 18 OSCroute /vols;
#X obj 583 70 / 127;
#X floatatom 583 93 5 0 0 0 - - -;
#X msg 85 391 0.5 0 0 \$1;
#X msg 212 389 1 1 0 \$1;
#X obj 503 67 / 127;
#X floatatom 503 90 5 0 0 0 - - -;
#X msg 373 382 0.6 0 0.6 \$1;
#X msg 592 392 0.5 0.5 0.5 \$1;
#X obj 552 111 / 127;
#X floatatom 552 134 5 0 0 0 - - -;
#X obj 193 494 alpha;
#X obj 337 473 alpha;
#X obj 565 480 alpha;
#X msg 82 519 0.75;
#X msg 235 521 0.75;
#X obj 794 349 translateXYZ;
#X obj 794 394 color;
#X obj 794 305 gemhead;
#X floatatom 943 279 5 0 0 0 - - -;
#X floatatom 886 302 5 0 0 0 - - -;
#X obj 794 418 alpha;
#X text 209 635 3.7;
#X obj 539 63 / 127;
#X floatatom 539 86 5 0 0 0 - - -;
#X msg 821 371 0 0 1 \$1;
#X obj 847 278 OSCroute /blipm;
#X msg 816 328 3;
#X obj 675 587 / 50;
#X msg 846 416 0.75;
#X msg 67 199 -3;
#X obj 454 330 / 12.5;
#X obj 795 466 rectangle;
#X msg 820 439 0.2;
#X obj 829 243 loadbang;
#X obj 911 411 translateXYZ;
#X obj 911 456 color;
#X obj 911 367 gemhead;
#X floatatom 1060 341 5 0 0 0 - - -;
#X floatatom 1003 364 5 0 0 0 - - -;
#X obj 911 480 alpha;
#X msg 938 433 0 0 1 \$1;
#X msg 963 478 0.75;
#X obj 912 528 rectangle;
#X msg 937 501 0.2;
#X obj 946 305 loadbang;
#X obj 964 340 OSCroute /blipc;
#X msg 933 390 3.45;
#X obj 965 361 / 800;
#X obj 848 299 / 800;
#X obj 848 320 - 3;
#X obj 965 382 - 3;
#X obj 608 175 loadbang;
#X connect 2 0 7 0;
#X connect 2 0 8 0;
#X connect 2 0 9 0;
#X connect 3 0 7 0;
#X connect 3 0 8 0;
#X connect 3 0 9 0;
#X connect 4 0 7 0;
#X connect 4 0 8 0;
#X connect 4 0 9 0;
#X connect 5 0 7 0;
#X connect 5 0 8 0;
#X connect 5 0 9 0;
#X connect 6 0 8 0;
#X connect 6 0 7 0;
#X connect 6 0 9 0;
#X connect 7 0 15 0;
#X connect 8 0 15 0;
#X connect 9 0 28 0;
#X connect 9 0 14 0;
#X connect 9 1 10 0;
#X connect 9 1 13 0;
#X connect 10 0 15 0;
#X connect 11 0 15 0;
#X connect 13 0 11 0;
#X connect 13 0 20 0;
#X connect 14 0 11 0;
#X connect 14 0 20 0;
#X connect 16 0 7 0;
#X connect 16 0 8 0;
#X connect 16 0 9 0;
#X connect 17 0 7 0;
#X connect 17 0 8 0;
#X connect 17 0 9 0;
#X connect 18 0 8 0;
#X connect 18 0 7 0;
#X connect 18 0 9 0;
#X connect 20 0 32 0;
#X connect 22 0 8 0;
#X connect 22 0 9 0;
#X connect 23 0 15 0;
#X connect 24 0 5 0;
#X connect 24 1 25 0;
#X connect 25 0 15 0;
#X connect 26 0 9 0;
#X connect 27 0 15 0;
#X connect 28 0 15 0;
#X connect 29 0 15 0;
#X connect 30 0 15 0;
#X connect 31 0 38 0;
#X connect 31 0 52 0;
#X connect 31 0 63 0;
#X connect 31 0 69 0;
#X connect 31 0 78 0;
#X connect 31 0 94 0;
#X connect 31 0 99 0;
#X connect 31 0 106 0;
#X connect 31 0 109 0;
#X connect 31 0 135 0;
#X connect 31 0 155 0;
#X connect 32 0 15 0;
#X connect 33 0 15 0;
#X connect 34 0 37 0;
#X connect 36 0 34 0;
#X connect 37 0 42 0;
#X connect 38 0 39 0;
#X connect 39 0 43 0;
#X connect 39 0 64 0;
#X connect 40 0 42 1;
#X connect 41 0 42 1;
#X connect 42 0 101 0;
#X connect 43 0 41 0;
#X connect 43 0 55 0;
#X connect 44 0 46 0;
#X connect 46 0 50 0;
#X connect 47 0 51 0;
#X connect 47 0 66 0;
#X connect 48 0 50 1;
#X connect 49 0 50 1;
#X connect 50 0 120 0;
#X connect 51 0 49 0;
#X connect 51 0 54 0;
#X connect 52 0 47 0;
#X connect 53 0 44 0;
#X connect 54 0 48 0;
#X connect 55 0 40 0;
#X connect 56 0 44 1;
#X connect 57 0 58 0;
#X connect 58 0 121 0;
#X connect 59 0 60 0;
#X connect 59 0 77 0;
#X connect 61 0 57 0;
#X connect 62 0 57 1;
#X connect 63 0 59 0;
#X connect 64 0 65 0;
#X connect 65 0 34 2;
#X connect 66 0 67 0;
#X connect 67 0 44 2;
#X connect 69 0 70 0;
#X connect 70 0 68 1;
#X connect 71 0 73 0;
#X connect 72 0 140 0;
#X connect 72 1 75 0;
#X connect 73 0 72 0;
#X connect 74 0 57 2;
#X connect 75 0 76 0;
#X connect 76 0 74 0;
#X connect 77 0 71 0;
#X connect 77 1 73 1;
#X connect 78 0 81 0;
#X connect 79 0 80 0;
#X connect 80 0 82 0;
#X connect 81 0 79 0;
#X connect 81 1 80 1;
#X connect 82 0 68 2;
#X connect 83 0 84 0;
#X connect 84 0 85 0;
#X connect 85 0 122 0;
#X connect 86 0 83 0;
#X connect 87 0 85 1;
#X connect 89 0 92 0;
#X connect 90 0 87 0;
#X connect 91 0 87 0;
#X connect 92 0 91 0;
#X connect 92 0 93 0;
#X connect 93 0 90 0;
#X connect 94 0 89 0;
#X connect 95 0 83 1;
#X connect 96 0 97 0;
#X connect 97 0 137 0;
#X connect 98 0 96 0;
#X connect 98 1 97 1;
#X connect 99 0 98 0;
#X connect 100 0 105 0;
#X connect 100 0 107 0;
#X connect 101 0 35 0;
#X connect 103 0 102 1;
#X connect 106 0 100 0;
#X connect 106 0 104 0;
#X connect 107 0 83 2;
#X connect 108 0 114 0;
#X connect 108 1 132 0;
#X connect 108 2 118 0;
#X connect 108 3 110 0;
#X connect 109 0 108 0;
#X connect 110 0 111 0;
#X connect 111 0 112 0;
#X connect 111 0 113 0;
#X connect 112 0 37 1;
#X connect 113 0 46 1;
#X connect 114 0 115 0;
#X connect 115 0 116 0;
#X connect 116 0 58 1;
#X connect 117 0 84 1;
#X connect 118 0 119 0;
#X connect 119 0 117 0;
#X connect 120 0 45 0;
#X connect 121 0 68 0;
#X connect 122 0 88 0;
#X connect 123 0 35 1;
#X connect 124 0 45 1;
#X connect 125 0 126 0;
#X connect 126 0 130 0;
#X connect 127 0 125 0;
#X connect 130 0 141 0;
#X connect 132 0 133 0;
#X connect 133 0 134 0;
#X connect 133 0 150 0;
#X connect 134 0 126 1;
#X connect 135 0 128 0;
#X connect 135 0 158 0;
#X connect 136 0 125 1;
#X connect 137 0 88 1;
#X connect 138 0 141 2;
#X connect 139 0 34 1;
#X connect 140 0 74 0;
#X connect 142 0 141 1;
#X connect 143 0 136 0;
#X connect 143 0 142 0;
#X connect 143 0 138 0;
#X connect 144 0 145 0;
#X connect 145 0 149 0;
#X connect 146 0 144 0;
#X connect 149 0 152 0;
#X connect 150 0 145 1;
#X connect 151 0 152 2;
#X connect 153 0 152 1;
#X connect 154 0 156 0;
#X connect 154 0 153 0;
#X connect 154 0 151 0;
#X connect 155 0 147 0;
#X connect 155 0 157 0;
#X connect 156 0 144 1;
#X connect 157 0 148 0;
#X connect 157 0 160 0;
#X connect 158 0 129 0;
#X connect 158 0 159 0;
#X connect 159 0 125 2;
#X connect 160 0 144 2;
#X connect 161 0 95 0;
#X connect 161 0 62 0;
#X connect 161 0 56 0;
#X connect 161 0 139 0;
#X connect 161 0 124 0;
#X connect 161 0 123 0;
