#N canvas 289 202 437 281 12;
#N canvas 296 194 424 287 engine 0;
#N canvas 148 89 295 364 startup 0;
#X obj 19 12 loadbang;
#X msg 25 99 120;
#X obj 23 250 select 1 0;
#X obj 23 215 r start_stop;
#X obj 15 284 s s_st;
#X obj 76 284 s s_stp;
#X msg 73 55 1;
#X obj 73 83 s def_m_ch;
#X msg 104 38 2;
#X obj 144 62 s hat_range;
#X obj 114 131 s mute_s;
#X obj 124 153 s mute_b;
#X obj 135 177 s mute_h;
#X msg 36 62 0;
#X msg 19 155 100;
#X obj 19 183 s vol;
#X obj 25 130 s tempo_chg;
#X obj 192 112 s zero_st;
#X obj 75 108 delay 2000;
#X msg 193 90 0;
#X msg 168 8 \; pd dsp 1;
#X connect 0 0 6 0;
#X connect 0 0 1 0;
#X connect 0 0 8 0;
#X connect 0 0 13 0;
#X connect 0 0 15 0;
#X connect 0 0 18 0;
#X connect 0 0 20 0;
#X connect 1 0 16 0;
#X connect 2 0 4 0;
#X connect 2 1 5 0;
#X connect 3 0 2 0;
#X connect 6 0 7 0;
#X connect 8 0 9 0;
#X connect 13 0 10 0;
#X connect 13 0 11 0;
#X connect 13 0 12 0;
#X connect 18 0 19 0;
#X connect 19 0 17 0;
#X restore 9 164 pd startup;
#N canvas 113 165 528 413 voice1 0;
#X obj 99 112 monorhythm;
#X msg 12 90 exclusive;
#X msg 22 55 start;
#X msg 79 54 stop;
#X obj 171 66 r measure_interval;
#X obj 179 144 s v1_sync;
#X obj 225 567 / 16;
#X obj 12 7 r s_st;
#X obj 70 7 r s_stp;
#X msg 136 36 0 0 0 0 1 0 0 0 0 0 0 0 1 0 0 0;
#X obj 136 4 loadbang;
#X obj 16 143 s v1_out_b;
#X obj 104 527 spigot;
#X obj 78 432 r mute_s;
#X obj 78 456 select 1 0;
#X msg 78 489 0;
#X msg 115 489 1;
#X text 215 111 snare serving as master sync;
#X text 207 97 Basic monorhythm sequencer for;
#X obj 133 309 delay;
#X floatatom 225 289 5 0 0 0 - - -;
#X msg 182 276 0;
#X obj 252 310 t b f;
#X obj 190 249 select 0 1;
#X obj 195 225 r delay_s;
#X obj 416 211 r del_s;
#X obj 406 262 delay;
#X msg 376 280 1;
#X msg 413 287 0;
#X obj 367 319 s delay_s;
#X obj 281 189 r measure_16th;
#X floatatom 313 301 5 0 0 0 - - -;
#X msg 281 259 set \$1;
#X obj 292 215 r measure_half;
#X obj 7 359 r v1_improv;
#X obj 186 515 spigot;
#X obj 210 399 r arpegg2;
#X msg 217 486 1;
#X msg 334 456 0;
#X obj 210 455 delay;
#X obj 104 556 s v1_out;
#X obj 256 457 loadbang;
#X obj 245 426 r measure_quarter;
#X obj 83 256 bng 18 250 50 0 del_s empty delay_16th -20 30 128 7 -262144
-1 -1;
#X text 33 238 optional control;
#X obj 225 593 s midi_v1;
#X obj 225 542 r measure_interval;
#X text 300 569 MIDI note length;
#X text 295 486 Arpeggiator mutes the;
#X text 297 502 monorhythm output for a;
#X text 297 519 quarter note;
#X text 185 339 Logic for delaying the snare sequence;
#X text 198 357 by a sixteenth note after a bang;
#X text 256 144 Serves as master sync for 1 bar;
#X text 18 165 _________________________________________________________
;
#X text 5 526 snare mute->;
#X connect 0 0 11 0;
#X connect 0 0 19 0;
#X connect 0 2 5 0;
#X connect 1 0 0 0;
#X connect 2 0 0 0;
#X connect 3 0 0 0;
#X connect 4 0 0 2;
#X connect 6 0 45 0;
#X connect 7 0 1 0;
#X connect 7 0 2 0;
#X connect 8 0 3 0;
#X connect 9 0 0 1;
#X connect 10 0 9 0;
#X connect 10 0 21 0;
#X connect 12 0 40 0;
#X connect 13 0 14 0;
#X connect 14 0 15 0;
#X connect 14 1 16 0;
#X connect 15 0 12 1;
#X connect 16 0 12 1;
#X connect 19 0 35 0;
#X connect 20 0 22 0;
#X connect 21 0 19 1;
#X connect 22 1 19 1;
#X connect 23 0 21 0;
#X connect 23 1 20 0;
#X connect 24 0 23 0;
#X connect 25 0 27 0;
#X connect 25 0 26 0;
#X connect 26 0 28 0;
#X connect 27 0 29 0;
#X connect 27 0 31 0;
#X connect 28 0 29 0;
#X connect 28 0 31 0;
#X connect 30 0 32 0;
#X connect 32 0 20 0;
#X connect 33 0 26 1;
#X connect 34 0 12 0;
#X connect 35 0 12 0;
#X connect 35 0 6 0;
#X connect 36 0 38 0;
#X connect 36 0 39 0;
#X connect 37 0 35 1;
#X connect 38 0 35 1;
#X connect 39 0 37 0;
#X connect 41 0 37 0;
#X connect 42 0 39 1;
#X connect 46 0 6 0;
#X restore 13 48 pd voice1;
#N canvas 0 0 490 610 interval 0;
#X obj 16 20 r tempo;
#X obj 68 332 s measure_interval;
#X obj 25 49 t b f;
#X floatatom 21 152 8 0 0 0 - - -;
#X obj 63 436 s measure_quarter;
#X obj 61 468 / 2;
#X obj 61 491 s measure_8th;
#X obj 61 521 / 2;
#X obj 61 549 s measure_16th;
#X obj 4 -35 loadbang;
#X obj 4 -5 delay 65;
#X obj 67 386 s measure_half;
#X obj 61 359 / 2;
#X obj 26 218 *;
#X obj 218 -35 r orig_tempo;
#X obj 254 -3 r half_tempo;
#X obj 29 174 t b f;
#X msg 182 92 set 2;
#X msg 127 89 set 1;
#X floatatom 123 122 5 0 0 0 - - -;
#X floatatom 175 137 5 0 0 0 - - -;
#X obj 248 92 spigot;
#X obj 293 117 spigot;
#X msg 386 91 0;
#X msg 291 65 1;
#X msg 336 89 1;
#X obj 358 63 delay 1000;
#X obj 263 40 r clock_quarter;
#X obj 322 -33 r measure_quarter;
#X obj 109 161 t b f;
#X obj 62 413 / 2;
#X obj 24 100 /;
#X msg 24 75 60;
#X text 174 218 divided by 60;
#X text 174 239 times 4000 is;
#X text 175 260 a whole note time frame;
#X text 175 282 since bpm measures quarter notes;
#X text 224 331 whole note time;
#X text 188 386 half note time;
#X text 206 436 quarter note time;
#X text 174 490 eighth note time;
#X text 182 547 sixteenth note time;
#X text 4 -96 Original Tempo/Half Tempo bangs: A combination of a gated
quarter note bang and number box set to the multiply value(1 or 2)
is included in the initial tempo calculation.;
#X text 5 119 quarter note;
#X text 37 133 time in ms;
#X text 2 198 orig/half time;
#X text 172 198 tempo/bpm value;
#X obj 104 -2 r s_st;
#X msg 105 27 1;
#X obj 17 281 bng 15 250 50 0 empty empty empty 0 -6 0 8 -262144 -1
-1;
#X obj 61 301 * 4000;
#X connect 0 0 2 0;
#X connect 2 0 32 0;
#X connect 2 1 31 1;
#X connect 3 0 13 0;
#X connect 3 0 16 0;
#X connect 5 0 6 0;
#X connect 5 0 8 0;
#X connect 5 0 7 0;
#X connect 7 0 8 0;
#X connect 9 0 10 0;
#X connect 9 0 18 0;
#X connect 10 0 3 0;
#X connect 10 0 19 0;
#X connect 12 0 11 0;
#X connect 12 0 30 0;
#X connect 13 0 49 0;
#X connect 13 0 50 0;
#X connect 14 0 3 0;
#X connect 14 0 18 0;
#X connect 14 0 26 0;
#X connect 14 0 24 0;
#X connect 15 0 17 0;
#X connect 15 0 3 0;
#X connect 15 0 25 0;
#X connect 15 0 26 0;
#X connect 16 0 13 0;
#X connect 17 0 20 0;
#X connect 18 0 19 0;
#X connect 19 0 29 0;
#X connect 20 0 29 0;
#X connect 21 0 19 0;
#X connect 22 0 20 0;
#X connect 23 0 22 1;
#X connect 23 0 21 1;
#X connect 24 0 21 1;
#X connect 25 0 22 1;
#X connect 26 0 23 0;
#X connect 27 0 21 0;
#X connect 27 0 22 0;
#X connect 28 0 26 1;
#X connect 29 0 13 0;
#X connect 29 1 13 1;
#X connect 30 0 4 0;
#X connect 30 0 5 0;
#X connect 31 0 3 0;
#X connect 32 0 31 0;
#X connect 47 0 48 0;
#X connect 48 0 19 0;
#X connect 49 0 12 0;
#X connect 49 0 30 0;
#X connect 49 0 5 0;
#X connect 49 0 7 0;
#X connect 49 0 50 0;
#X connect 50 0 1 0;
#X connect 50 0 12 0;
#X restore 102 164 pd interval;
#N canvas 40 128 418 293 MIDI_voice1 0;
#X obj 96 166 makenote;
#X obj 96 207 noteout;
#X floatatom 169 186 3 1 16 0 - - -;
#X text 196 185 channel;
#X obj 169 157 r g_channel;
#X obj 132 81 loadbang;
#X msg 123 129 110;
#X floatatom 50 134 5 0 0 0 - - -;
#X msg 91 110 40;
#X text 132 108 <<<------------;
#X text 225 77 Snare Drum is;
#X text 224 101 E1: MIDI note 40;
#X obj 215 58 /;
#X obj -24 172 r v1_transpose;
#X obj -23 209 +;
#X obj -14 147 t b f;
#X msg 43 110 0;
#X obj 120 36 r arpegg2;
#X obj 13 11 r v1_out;
#X obj 209 26 r arp_midi_length_1;
#X obj 168 6 r measure_quarter;
#X obj 16 85 spigot;
#X msg -23 39 0;
#X msg 83 61 1;
#X obj 39 36 delay 0.1;
#X obj 155 133 r midi_v1;
#X connect 0 0 1 0;
#X connect 0 1 1 1;
#X connect 2 0 1 2;
#X connect 4 0 2 0;
#X connect 5 0 6 0;
#X connect 5 0 8 0;
#X connect 5 0 16 0;
#X connect 6 0 0 1;
#X connect 7 0 14 0;
#X connect 8 0 7 0;
#X connect 12 0 0 2;
#X connect 13 0 15 0;
#X connect 14 0 0 0;
#X connect 15 0 14 0;
#X connect 15 1 14 1;
#X connect 16 0 14 1;
#X connect 17 0 12 0;
#X connect 18 0 21 0;
#X connect 18 0 22 0;
#X connect 18 0 24 0;
#X connect 19 0 12 1;
#X connect 20 0 12 0;
#X connect 21 0 7 0;
#X connect 22 0 21 1;
#X connect 23 0 21 1;
#X connect 24 0 23 0;
#X connect 25 0 0 2;
#X restore 13 88 pd MIDI_voice1;
#N canvas 395 14 601 635 voice2 0;
#X obj 9 -21 r clock_8th;
#X obj 9 108 i 0;
#X obj 43 52 + 1;
#X obj 100 57 r s_st;
#X msg 128 88 0;
#X obj 111 136 r man_hats_togg;
#X obj 30 166 select 0 1;
#X obj 180 309 spigot;
#X msg 30 202 1;
#X msg 68 202 0;
#X obj 159 169 loadbang;
#X msg 167 203 0;
#X obj 136 283 int;
#X obj 102 257 r man_hats;
#X obj 9 271 spigot;
#X obj -9 638 monorhythm;
#X msg -90 586 start;
#X msg -27 581 stop;
#X obj 112 629 r measure_interval;
#X obj 29 536 loadbang;
#X obj -88 540 r s_st;
#X obj -32 547 r s_stp;
#X obj 184 674 /;
#X obj 185 604 t b f;
#X msg 29 565 1 1;
#X obj 134 384 <<;
#X msg 134 354 1;
#X obj -88 120 spigot;
#X obj 146 -42 random;
#X obj 159 -76 + 2;
#X obj 113 328 t b f;
#X text 214 -81 This convoluted wreck;
#X text 213 -60 traverses the following;
#X text 214 5 8th note intervals.;
#X text 194 73 The stepper can be overriden;
#X text 194 91 with the manual toggle.;
#X text 21 -112 <<<--- depth of clock division input;
#X text 170 377 clock division factorable by 2;
#X text -63 690 clock division;
#X text 239 137 <<< auto/manual switch;
#X text -63 670 monorhythm sequencer after;
#X text 170 358 Left shifted numerator keeps the;
#X text 16 -52 Randomizer-->>>;
#X obj -88 -108 r hat_range_i;
#X text 164 287 manual value;
#X msg 61 587 4;
#X text -66 78 counter---->>;
#X obj -9 865 spigot;
#X obj 4 798 select 1 0;
#X msg 4 831 0;
#X msg 41 831 1;
#X obj -9 891 s v2_out;
#X obj 4 774 r mute_h;
#X msg 102 289 1;
#X obj 180 334 s man_hats_on;
#X text 214 -17 randomizes the steps at;
#X text 214 -38 path: Takes the input and;
#X text 188 258 <<--manual slider activates switch;
#X text 217 675 <<<---clock division;
#X obj 229 467 * 0.75;
#X obj 170 425 select 0 1;
#X obj 172 400 r hats_triplets;
#X obj 114 519 spigot;
#X obj 214 509 spigot;
#X msg 129 457 0;
#X msg 162 457 1;
#X msg 194 471 0;
#X obj 309 752 / 8;
#X obj 315 721 r clock_8th;
#X obj 199 574 moses 9;
#X obj 266 867 bng 15 250 50 0 empty empty empty 0 -6 0 8 -262144 -1
-1;
#X text 3 923 Designing an Open High Hat:;
#X obj 264 888 delay;
#X obj 317 873 r measure_8th;
#X msg 227 911 1;
#X msg 260 912 0;
#X obj 318 922 s open_hh_voice;
#X obj 227 941 s mute_h;
#X text 3 941 Replace 32nd notes and;
#X text 3 959 beyond with a trigger for;
#X text 4 991 moses object connection above.;
#X obj 142 787 r hat_rest;
#X obj 184 820 delay;
#X obj 309 775 s midi_v2;
#X obj 45 81 mod 5;
#X text -38 294 auto random value;
#X text 260 448 triplets timing;
#X text 262 524 <<--Swing switching;
#X text 2 975 an open high-hat. Dont forget to delete the center;
#X text 327 905 send this to.;
#X text 313 893 Make a voice to;
#X connect 0 0 1 0;
#X connect 0 0 28 0;
#X connect 0 0 15 0;
#X connect 1 0 2 0;
#X connect 1 0 14 0;
#X connect 2 0 84 0;
#X connect 3 0 4 0;
#X connect 4 0 1 1;
#X connect 5 0 7 1;
#X connect 5 0 6 0;
#X connect 5 0 4 0;
#X connect 5 0 27 1;
#X connect 6 0 8 0;
#X connect 6 1 9 0;
#X connect 7 0 30 0;
#X connect 8 0 14 1;
#X connect 8 0 27 1;
#X connect 9 0 14 1;
#X connect 9 0 27 1;
#X connect 10 0 11 0;
#X connect 10 0 8 0;
#X connect 11 0 7 1;
#X connect 12 0 7 0;
#X connect 13 0 12 0;
#X connect 13 0 53 0;
#X connect 14 0 30 0;
#X connect 15 0 47 0;
#X connect 15 0 67 0;
#X connect 16 0 15 0;
#X connect 17 0 15 0;
#X connect 18 0 22 0;
#X connect 19 0 24 0;
#X connect 19 0 65 0;
#X connect 19 0 66 0;
#X connect 20 0 16 0;
#X connect 20 0 22 0;
#X connect 20 0 8 0;
#X connect 20 0 45 0;
#X connect 21 0 17 0;
#X connect 21 0 9 0;
#X connect 22 0 15 2;
#X connect 22 0 67 0;
#X connect 23 0 22 0;
#X connect 23 1 22 1;
#X connect 24 0 15 1;
#X connect 25 0 59 0;
#X connect 25 0 62 0;
#X connect 26 0 25 0;
#X connect 27 0 2 1;
#X connect 28 0 2 1;
#X connect 29 0 28 1;
#X connect 29 0 84 1;
#X connect 30 0 25 0;
#X connect 30 0 26 0;
#X connect 30 1 25 1;
#X connect 43 0 27 0;
#X connect 43 0 29 0;
#X connect 45 0 22 1;
#X connect 47 0 51 0;
#X connect 48 0 49 0;
#X connect 48 1 50 0;
#X connect 49 0 47 1;
#X connect 50 0 47 1;
#X connect 52 0 48 0;
#X connect 53 0 54 0;
#X connect 59 0 63 0;
#X connect 60 0 65 0;
#X connect 60 1 64 0;
#X connect 61 0 60 0;
#X connect 61 0 63 1;
#X connect 62 0 69 0;
#X connect 63 0 69 0;
#X connect 64 0 62 1;
#X connect 65 0 62 1;
#X connect 66 0 63 1;
#X connect 67 0 83 0;
#X connect 68 0 67 0;
#X connect 69 0 23 0;
#X connect 69 1 23 0;
#X connect 69 1 70 0;
#X connect 70 0 72 0;
#X connect 70 0 74 0;
#X connect 70 0 76 0;
#X connect 72 0 75 0;
#X connect 73 0 72 1;
#X connect 73 0 82 1;
#X connect 81 0 49 0;
#X connect 81 0 82 0;
#X connect 82 0 50 0;
#X connect 84 0 1 1;
#X restore 149 49 pd voice2;
#N canvas 0 0 376 323 MIDI_voice2 0;
#X obj 34 95 makenote;
#X obj 29 231 noteout;
#X floatatom 145 180 3 1 16 0 - - -;
#X text 175 182 channel;
#X obj 168 149 r g_channel;
#X obj 69 15 loadbang;
#X msg 30 42 38;
#X msg 63 62 110;
#X floatatom 20 68 5 0 0 0 - - -;
#X obj 140 -39 r v2_out;
#X text 63 41 <<<------------;
#X text 155 7 Hi-Hat is;
#X text 155 31 D1: MIDI note 38;
#X obj -67 152 +;
#X obj -58 78 t b f;
#X msg -1 41 0;
#X obj -68 115 r v2_transpose;
#X obj -36 15 spigot;
#X msg -75 -31 0;
#X msg 31 -9 1;
#X obj -13 -34 delay 0.1;
#X obj 109 75 r midi_v2;
#X connect 0 0 1 0;
#X connect 0 1 1 1;
#X connect 2 0 1 2;
#X connect 4 0 2 0;
#X connect 5 0 7 0;
#X connect 5 0 6 0;
#X connect 5 0 15 0;
#X connect 6 0 8 0;
#X connect 7 0 0 1;
#X connect 8 0 13 0;
#X connect 9 0 17 0;
#X connect 9 0 18 0;
#X connect 9 0 20 0;
#X connect 13 0 0 0;
#X connect 14 0 13 0;
#X connect 14 1 13 1;
#X connect 15 0 13 1;
#X connect 16 0 14 0;
#X connect 17 0 8 0;
#X connect 18 0 17 1;
#X connect 19 0 17 1;
#X connect 20 0 19 0;
#X connect 21 0 0 2;
#X restore 149 89 pd MIDI_voice2;
#N canvas 225 0 551 638 voice3 0;
#X obj 104 322 delay;
#X obj 20 10 r clock_8th;
#X obj 151 216 r measure_interval;
#X obj 85 154 t b f;
#X obj 76 95 t b f;
#X obj 85 129 <<;
#X obj 18 114 i 2;
#X obj 99 234 t b f;
#X obj 83 422 delay;
#X obj 21 164 + 1;
#X obj 3 223 int 0;
#X obj 25 192 mod 2;
#X obj 3 251 select 0 1;
#X msg 3 322 0;
#X obj 52 348 t b f;
#X obj 150 391 /;
#X obj 145 262 *;
#X msg 40 282 8;
#X obj 99 190 / 64;
#X obj 62 70 + 1;
#X text 197 28 BASS Drum depends on the;
#X text 162 295 <<<<<<<<--input is Snare Drum!;
#X text 179 327 Whole note delay is divided;
#X text 189 344 a bit randomly and then;
#X text 137 128 left shift 1-7 for factoring by 2;
#X text 197 52 SNARE Drum to play by using;
#X text 198 77 its delayed output trigger;
#X text 137 189 <<--Create fraction 1-7 / 64;
#X text 175 260 <- multiply by whole note time;
#X text 192 363 delayed once more out of sync;
#X text 205 383 by an 8th note or not at all.;
#X obj 74 294 r v1_out_b;
#X obj 86 784 spigot;
#X obj 96 474 select 1 0;
#X msg 96 507 0;
#X msg 133 507 1;
#X text 270 435 to the next measure;
#X text 269 421 Some delays carry over;
#X text 271 465 hits in the next one;
#X text 270 450 which allows for multiple;
#X obj 86 810 s v3_out;
#X obj 96 450 r mute_b;
#X text 214 399 (mod 2 counter at upper-left);
#X obj 145 700 spigot;
#X msg 171 644 1;
#X msg 349 618 0;
#X obj 176 616 delay;
#X obj 224 616 loadbang;
#X obj 347 573 r arpegg1;
#X obj 12 752 r v3_improv;
#X obj 322 873 + 1;
#X obj 274 874 int 0;
#X obj 438 822 random 2;
#X obj 215 860 spigot;
#X obj 261 766 select 0;
#X obj 386 658 delay 80;
#X obj 392 626 r s_st;
#X msg 334 686 0;
#X msg 371 686 1;
#X obj 6 610 r arpegg_s4;
#X obj 208 498 / 8;
#X obj 274 840 r clock_8th;
#X obj 459 798 delay;
#X obj 410 744 r measure_16th;
#X obj 152 743 s snare_react;
#X text 37 787 mute->;
#X text 3 588 pause above;
#X text 341 555 pause above;
#X text 404 676 no improv;
#X text 402 690 for 80 ms;
#X text 401 702 on load;
#X text 36 850 provides additional;
#X text 35 863 improv notes at random;
#X text 35 837 Counter at right;
#X obj 423 573 r hit_b;
#X obj 159 583 r measure_half;
#X obj 359 747 r bar;
#X obj 359 773 select 0;
#X msg 401 804 0;
#X msg 288 736 0;
#X obj 361 873 mod 4;
#X obj 420 863 random 4;
#X msg 7 643 0;
#X obj 42 643 delay;
#X msg 91 642 1;
#X obj 178 787 spigot;
#X obj 5 566 r arpegg_b4;
#X obj 462 603 random 2;
#X obj 462 629 select 0;
#X obj 222 527 s midi_v3;
#X obj 39 43 random 6;
#X text 9 728 Management;
#X text 6 714 Improvisation;
#X obj 28 420 r s_st;
#X connect 0 0 8 0;
#X connect 1 0 10 0;
#X connect 1 0 90 0;
#X connect 2 0 15 0;
#X connect 2 0 16 0;
#X connect 3 0 18 0;
#X connect 3 1 18 0;
#X connect 4 0 5 0;
#X connect 4 0 6 0;
#X connect 4 1 5 1;
#X connect 5 0 3 0;
#X connect 6 0 5 0;
#X connect 7 0 16 0;
#X connect 7 1 16 1;
#X connect 8 0 43 0;
#X connect 9 0 11 0;
#X connect 10 0 9 0;
#X connect 10 0 12 0;
#X connect 11 0 10 1;
#X connect 12 0 13 0;
#X connect 12 1 17 0;
#X connect 13 0 8 1;
#X connect 14 0 15 0;
#X connect 14 1 15 1;
#X connect 15 0 8 1;
#X connect 16 0 0 1;
#X connect 16 0 60 0;
#X connect 17 0 14 0;
#X connect 18 0 7 0;
#X connect 19 0 4 0;
#X connect 31 0 0 0;
#X connect 32 0 40 0;
#X connect 33 0 34 0;
#X connect 33 1 35 0;
#X connect 34 0 32 1;
#X connect 35 0 32 1;
#X connect 41 0 33 0;
#X connect 43 0 32 0;
#X connect 43 0 60 0;
#X connect 44 0 43 1;
#X connect 45 0 43 1;
#X connect 46 0 44 0;
#X connect 47 0 44 0;
#X connect 47 0 55 0;
#X connect 47 0 57 0;
#X connect 47 0 84 0;
#X connect 48 0 45 0;
#X connect 48 0 46 0;
#X connect 49 0 32 0;
#X connect 50 0 80 0;
#X connect 51 0 50 0;
#X connect 51 0 53 0;
#X connect 52 0 53 1;
#X connect 53 0 54 0;
#X connect 54 0 45 0;
#X connect 54 0 85 0;
#X connect 55 0 58 0;
#X connect 56 0 55 0;
#X connect 56 0 57 0;
#X connect 56 0 84 0;
#X connect 57 0 53 1;
#X connect 57 0 51 1;
#X connect 58 0 53 1;
#X connect 59 0 82 0;
#X connect 59 0 83 0;
#X connect 60 0 89 0;
#X connect 61 0 51 0;
#X connect 61 0 62 0;
#X connect 61 0 81 0;
#X connect 62 0 52 0;
#X connect 63 0 62 1;
#X connect 74 0 45 0;
#X connect 74 0 46 0;
#X connect 74 0 79 0;
#X connect 74 0 82 0;
#X connect 74 0 83 0;
#X connect 74 0 87 0;
#X connect 75 0 46 1;
#X connect 75 0 83 1;
#X connect 76 0 77 0;
#X connect 77 0 78 0;
#X connect 78 0 51 1;
#X connect 79 0 51 1;
#X connect 80 0 51 1;
#X connect 81 0 80 1;
#X connect 82 0 85 1;
#X connect 83 0 84 0;
#X connect 84 0 85 1;
#X connect 85 0 32 0;
#X connect 85 0 64 0;
#X connect 85 0 46 0;
#X connect 86 0 82 0;
#X connect 86 0 83 0;
#X connect 87 0 88 0;
#X connect 88 0 64 0;
#X connect 90 0 19 0;
#X connect 93 0 43 0;
#X restore 277 48 pd voice3;
#N canvas 0 0 451 329 MIDI_voice3 0;
#X obj 127 195 makenote;
#X obj 127 240 noteout;
#X floatatom 200 215 3 1 16 0 - - -;
#X text 227 214 channel;
#X obj 200 186 r g_channel;
#X obj 142 117 loadbang;
#X msg 113 146 36;
#X floatatom 96 173 5 0 0 0 - - -;
#X obj 49 5 r v3_out;
#X obj 137 31 r arpegg1;
#X text 240 109 Bass Drum is;
#X text 148 143 <<<------------;
#X text 239 133 C1: MIDI note 36;
#X obj 232 69 /;
#X obj 9 245 +;
#X obj 18 183 t b f;
#X msg 75 146 0;
#X obj 8 208 r v3_transpose;
#X obj 231 28 r arp_midi_length_3;
#X obj 212 8 r measure_quarter;
#X obj 42 97 spigot;
#X msg 3 51 0;
#X msg 109 73 1;
#X obj 65 48 delay 0.1;
#X msg 146 167 110;
#X obj 210 158 r midi_v3;
#X connect 0 0 1 0;
#X connect 0 1 1 1;
#X connect 2 0 1 2;
#X connect 4 0 2 0;
#X connect 5 0 24 0;
#X connect 5 0 6 0;
#X connect 5 0 16 0;
#X connect 6 0 7 0;
#X connect 7 0 14 0;
#X connect 8 0 20 0;
#X connect 8 0 21 0;
#X connect 8 0 23 0;
#X connect 9 0 13 0;
#X connect 13 0 0 2;
#X connect 14 0 0 0;
#X connect 15 0 14 0;
#X connect 15 1 14 1;
#X connect 16 0 14 1;
#X connect 17 0 15 0;
#X connect 18 0 13 1;
#X connect 19 0 13 0;
#X connect 20 0 7 0;
#X connect 21 0 20 1;
#X connect 22 0 20 1;
#X connect 23 0 22 0;
#X connect 24 0 0 1;
#X connect 25 0 0 2;
#X restore 277 90 pd MIDI_voice3;
#X text 17 11 SNARE DRUM;
#X text 277 11 BASS DRUM;
#N canvas 183 0 723 619 arpeggiation 0;
#X obj 27 592 s v1_improv;
#X obj 27 549 monorhythm;
#X msg -50 524 exclusive;
#X msg -50 495 start;
#X msg 0 495 stop;
#X obj 5 454 delay;
#X obj 30 806 monorhythm;
#X msg -47 763 exclusive;
#X msg -47 734 start;
#X msg 5 734 stop;
#X obj 5 708 delay;
#X obj 30 835 s v3_improv;
#X msg 282 -156 1 1 1 1;
#X msg 302 -178 1 1 1 1 1 1 1 1;
#X obj -71 618 cnv 15 120 20 empty empty empty 20 12 0 14 -24198 -66577
0;
#X text -61 618 ARPEGGIATORS;
#X text -71 805 BASS DRUM;
#X text -69 566 SNARE DRUM;
#X obj 1 -65 delay;
#X msg -46 -65 set 1;
#X msg 44 -65 set 0;
#X obj 91 46 select 0 1;
#X obj -7 6 delay;
#X msg -59 49 set 1;
#X msg 36 6 set 0;
#X obj 118 -27 select 0 1;
#X floatatom 10 -24 5 0 0 0 - - -;
#X floatatom 19 69 5 0 0 0 - - -;
#X obj 155 3 s arpegg1;
#X obj 128 81 s arpegg2;
#X obj -62 355 r arpegg2;
#X obj -60 645 r arpegg1;
#X obj 127 -173 r arpegg_b1;
#X obj 127 -174 r arpegg_b2;
#X obj 128 -173 r arpegg_b3;
#X obj 31 111 r arpegg_s1;
#X obj 30 112 r arpegg_s2;
#X obj 31 112 r arpegg_s3;
#X obj 408 208 s arpegg_s3;
#X obj 503 207 s arpegg_b3;
#X obj 408 184 r arpegg_both3;
#X obj 407 134 r arpegg_both2;
#X obj 407 158 s arpegg_s2;
#X obj 502 158 s arpegg_b2;
#X obj 132 -107 r measure_8th;
#X obj 407 82 r arpegg_both1;
#X obj 407 106 s arpegg_s1;
#X obj 502 108 s arpegg_b1;
#X obj 281 617 r measure_quarter;
#X floatatom 412 525 3 2 6 0 - - -;
#X obj 412 472 r hat_range;
#X obj 412 500 int;
#X obj 412 555 s hat_range_i;
#X obj 167 313 r arpegg_s1;
#X obj 186 343 r measure_16th;
#X obj -25 409 delay;
#X floatatom 39 361 5 0 0 0 - - -;
#X obj 35 390 t b f;
#X floatatom 167 411 5 0 0 0 - - -;
#X msg 221 400 0;
#X obj 344 726 r measure_16th;
#X floatatom 312 795 5 0 0 0 - - -;
#X msg 366 784 0;
#X obj -16 683 delay;
#X obj 208 437 s 8th_arpegg_delay_s;
#X obj -44 320 r 8th_arpegg_delay_s;
#X floatatom 90 695 5 0 0 0 - - -;
#X obj 81 720 t b f;
#X obj 312 696 r arpegg_b1;
#X obj 353 821 s 8th_arpegg_delay_b;
#X obj 39 652 r 8th_arpegg_delay_b;
#X obj 125 -69 r clock_8th;
#X text 444 498 convert hat range;
#X text 443 522 to an integer;
#X text 310 314 8th notes are a special case:;
#X text 311 345 They need an extra 16th note;
#X text 311 365 delay to be more flexible;
#X text 312 386 with the timing as you press;
#X obj 267 498 cnv 15 110 80 empty empty empty 20 12 0 14 -261689 -66577
0;
#X text 269 518 rigidly timed;
#X text 270 534 serve as;
#X text 270 547 arpeggiators;
#X text 288 111 32nd sequence;
#X text 215 137 16th sequence;
#X text 179 188 8th sequence;
#X text 435 -177 32nd sequence;
#X text 357 -155 16th sequence;
#X text 308 -128 8th sequence;
#X text 422 759 same as 8th note;
#X text 421 777 delay \, above;
#X text 270 502 Monorhythms;
#X msg -14 143 0;
#X obj -14 168 s mute_s;
#X msg 36 -162 0;
#X obj 1 -138 s mute_b;
#X obj 46 266 s arpegg_length_3;
#X obj 130 217 bng 15 250 50 0 empty empty empty 0 -6 0 8 -262144 -1
-1;
#X obj 112 217 bng 15 250 50 0 empty empty empty 0 -6 0 8 -262144 -1
-1;
#X obj 92 219 bng 15 250 50 0 empty empty empty 0 -6 0 8 -262144 -1
-1;
#X obj 473 -111 bng 15 250 50 0 empty empty empty 0 -6 0 8 -262144
-1 -1;
#X obj 455 -111 bng 15 250 50 0 empty empty empty 0 -6 0 8 -262144
-1 -1;
#X obj 435 -109 bng 15 250 50 0 empty empty empty 0 -6 0 8 -262144
-1 -1;
#X obj 240 -66 s arpegg_length_1;
#X text 421 612 sequence timing;
#X text 422 623 reference;
#X text 389 582 start-stop;
#X text 389 595 timing reference;
#X text -73 374 start trigger;
#X text -70 663 start trigger;
#X obj 198 374 delay;
#X obj 340 757 delay;
#X obj 89 341 r zero_st;
#X obj 122 672 r zero_st;
#X obj 165 730 r hit_b;
#X obj 199 804 select 0 1;
#X msg 160 791 set 1;
#X obj 185 773 delay;
#X msg 136 772 set 0;
#X floatatom 160 833 5 0 0 0 - - -;
#X obj 231 742 r clock_16th;
#X msg 211 704 0;
#X obj 228 723 s mute_b;
#X msg 159 113 1 1 1 1 1 1 1 1;
#X msg 139 135 1 1 1 1;
#X obj 29 112 r arpegg_s4;
#X text 177 160 3rd sequence;
#X obj 152 217 bng 15 250 50 0 empty empty empty 0 -6 0 8 -262144 -1
-1;
#X msg 129 159 1 1 1;
#X msg 109 185 1 1;
#X msg 259 -130 1 1;
#X obj 181 504 /;
#X obj 183 467 r arpegg_length_3;
#X msg 45 239 2;
#X msg 138 239 1;
#X obj 167 612 /;
#X obj 148 570 r arpegg_length_1;
#X obj 128 -174 r arpegg_b4;
#X msg 408 -86 2;
#X msg 505 -156 1 1 1;
#X text 511 -137 3rd sequence;
#X obj 493 -111 bng 15 250 50 0 empty empty empty 0 -6 0 8 -262144
-1 -1;
#X msg 465 -86 1;
#X obj 173 208 s improv_seq3;
#X obj 302 -99 s improv_seq1;
#X obj 217 648 r improv_seq3;
#X obj 218 672 r improv_seq1;
#X obj 407 253 s arpegg_s4;
#X obj 497 253 s arpegg_b4;
#X obj 409 230 r arpegg_both4;
#X obj 319 -13 s arp_midi_length_1;
#X msg 210 239 8;
#X msg 253 239 16;
#X msg 297 238 32;
#X obj 190 265 s arp_midi_length_3;
#X msg 347 -40 16;
#X msg 394 -40 32;
#X msg 436 -41 64;
#N canvas 236 0 491 493 snare_auto 0;
#X obj 21 -44 r snare_react;
#X obj 116 23 r snare_auto_improv;
#X obj 18 53 spigot;
#X obj 11 169 delay;
#X obj 187 113 r measure_16th;
#X floatatom 186 179 5 0 0 0 - - -;
#X msg 187 139 set \$1;
#X obj 212 -7 loadbang;
#X obj 224 76 delay;
#X obj 11 387 s auto_arpegg_s1;
#X obj 181 389 s auto_arpegg_s2;
#X obj 296 1 r arpegg_b4;
#X obj 321 50 spigot;
#X msg 224 48 0;
#X obj 342 24 delay;
#X msg 258 326 1;
#X msg 146 325 0;
#X obj 11 358 spigot;
#X obj 181 354 spigot;
#X msg 315 326 1;
#X msg 83 146 0;
#X obj 213 294 select 3 9;
#X obj 52 294 select 0 2 6 8 10 15;
#X obj 356 369 spigot;
#X msg 366 338 0;
#X msg 403 340 1;
#X obj 325 295 select 7 11 15;
#X obj 144 -39 r auto_arpegg_s1;
#X text 13 -61 bass drum is initial trigger;
#X obj 281 -39 r auto_arpegg_s2;
#X text 5 339 8th gate;
#X text 202 369 16th gate;
#X text 324 274 16th bar slot;
#X text 212 279 8th bar slot;
#X text 16 -19 probability distribution;
#X floatatom 219 163 5 0 0 0 - - -;
#X msg 123 158 0;
#X obj 21 27 random 8;
#X obj 12 78 select 0 1 2 3 4 5 6 7;
#X obj 57 114 select 0 1 2 3;
#X obj 84 55 random 4;
#X msg 42 0 8;
#X msg 78 1 2;
#X msg 123 0 3;
#X obj 309 115 r measure_8th;
#X msg 319 139 set \$1;
#X msg 362 77 set \$1;
#X floatatom 311 85 5 0 0 0 - - -;
#X obj 130 237 r c_bar;
#X connect 0 0 41 0;
#X connect 0 0 37 0;
#X connect 0 0 40 0;
#X connect 1 0 2 1;
#X connect 1 0 12 1;
#X connect 1 0 46 0;
#X connect 2 0 38 0;
#X connect 3 0 17 0;
#X connect 4 0 6 0;
#X connect 4 0 14 1;
#X connect 5 0 3 1;
#X connect 6 0 5 0;
#X connect 7 0 20 0;
#X connect 7 0 36 0;
#X connect 8 0 18 0;
#X connect 8 0 23 0;
#X connect 11 0 12 0;
#X connect 11 0 14 0;
#X connect 12 0 13 0;
#X connect 13 0 2 1;
#X connect 14 0 47 0;
#X connect 15 0 17 1;
#X connect 16 0 17 1;
#X connect 16 0 18 1;
#X connect 17 0 9 0;
#X connect 18 0 10 0;
#X connect 19 0 18 1;
#X connect 20 0 3 1;
#X connect 20 0 8 1;
#X connect 21 0 15 0;
#X connect 21 1 15 0;
#X connect 22 0 16 0;
#X connect 22 0 24 0;
#X connect 22 1 16 0;
#X connect 22 2 16 0;
#X connect 22 3 16 0;
#X connect 22 4 16 0;
#X connect 22 5 16 0;
#X connect 23 0 10 0;
#X connect 24 0 23 1;
#X connect 25 0 23 1;
#X connect 26 0 19 0;
#X connect 26 1 19 0;
#X connect 26 2 25 0;
#X connect 27 0 42 0;
#X connect 27 0 37 0;
#X connect 27 0 40 0;
#X connect 29 0 43 0;
#X connect 29 0 37 0;
#X connect 29 0 40 0;
#X connect 35 0 8 1;
#X connect 36 0 8 1;
#X connect 37 0 2 0;
#X connect 38 0 3 0;
#X connect 38 1 8 0;
#X connect 38 2 3 0;
#X connect 38 3 3 0;
#X connect 38 4 8 0;
#X connect 38 5 3 0;
#X connect 38 6 8 0;
#X connect 38 7 8 0;
#X connect 39 0 5 0;
#X connect 39 0 36 0;
#X connect 39 1 20 0;
#X connect 39 1 35 0;
#X connect 39 2 20 0;
#X connect 39 2 36 0;
#X connect 39 3 5 0;
#X connect 39 3 35 0;
#X connect 40 0 39 0;
#X connect 41 0 37 1;
#X connect 42 0 37 1;
#X connect 43 0 37 1;
#X connect 44 0 45 0;
#X connect 45 0 35 0;
#X connect 46 0 47 0;
#X connect 47 0 2 1;
#X connect 48 0 22 0;
#X connect 48 0 21 0;
#X connect 48 0 26 0;
#X restore 246 15 pd snare_auto;
#X text 355 17 <<--Automatic improv for snare;
#X obj 235 77 s snare_auto_chg;
#X msg 212 52 0;
#X obj -43 205 r auto_arpegg_s1;
#X obj -43 202 r auto_arpegg_s2;
#X obj 264 43 r mute_s;
#X obj 337 47 select 1;
#X obj 410 695 r v1_sync;
#X obj 261 405 r v1_sync;
#X connect 1 0 0 0;
#X connect 2 0 1 0;
#X connect 3 0 1 0;
#X connect 4 0 1 0;
#X connect 5 0 4 0;
#X connect 6 0 11 0;
#X connect 7 0 6 0;
#X connect 8 0 6 0;
#X connect 9 0 6 0;
#X connect 10 0 9 0;
#X connect 12 0 100 0;
#X connect 12 0 143 0;
#X connect 13 0 99 0;
#X connect 13 0 143 0;
#X connect 18 0 20 0;
#X connect 19 0 26 0;
#X connect 20 0 26 0;
#X connect 21 1 29 0;
#X connect 22 0 24 0;
#X connect 23 0 27 0;
#X connect 24 0 27 0;
#X connect 25 1 28 0;
#X connect 26 0 25 0;
#X connect 27 0 21 0;
#X connect 30 0 55 0;
#X connect 30 0 130 0;
#X connect 31 0 63 0;
#X connect 31 0 134 0;
#X connect 32 0 19 0;
#X connect 32 0 18 0;
#X connect 32 0 129 0;
#X connect 32 0 93 0;
#X connect 33 0 18 0;
#X connect 33 0 19 0;
#X connect 33 0 12 0;
#X connect 33 0 93 0;
#X connect 34 0 18 0;
#X connect 34 0 19 0;
#X connect 34 0 13 0;
#X connect 34 0 93 0;
#X connect 35 0 128 0;
#X connect 35 0 23 0;
#X connect 35 0 22 0;
#X connect 35 0 91 0;
#X connect 35 0 160 0;
#X connect 36 0 22 0;
#X connect 36 0 23 0;
#X connect 36 0 123 0;
#X connect 36 0 91 0;
#X connect 36 0 160 0;
#X connect 37 0 22 0;
#X connect 37 0 23 0;
#X connect 37 0 122 0;
#X connect 37 0 91 0;
#X connect 37 0 160 0;
#X connect 40 0 39 0;
#X connect 40 0 38 0;
#X connect 41 0 42 0;
#X connect 41 0 43 0;
#X connect 44 0 18 1;
#X connect 44 0 22 1;
#X connect 45 0 46 0;
#X connect 45 0 47 0;
#X connect 48 0 1 2;
#X connect 48 0 6 2;
#X connect 48 0 134 0;
#X connect 48 0 130 0;
#X connect 49 0 52 0;
#X connect 50 0 51 0;
#X connect 51 0 49 0;
#X connect 53 0 58 0;
#X connect 53 0 109 0;
#X connect 54 0 58 0;
#X connect 54 0 109 1;
#X connect 55 0 5 0;
#X connect 55 0 3 0;
#X connect 56 0 57 0;
#X connect 57 1 55 1;
#X connect 58 0 64 0;
#X connect 59 0 64 0;
#X connect 60 0 61 0;
#X connect 60 0 110 1;
#X connect 60 0 116 1;
#X connect 61 0 69 0;
#X connect 62 0 69 0;
#X connect 63 0 8 0;
#X connect 63 0 10 0;
#X connect 65 0 56 0;
#X connect 66 0 67 0;
#X connect 67 1 63 1;
#X connect 68 0 61 0;
#X connect 68 0 110 0;
#X connect 70 0 66 0;
#X connect 71 0 27 0;
#X connect 71 0 26 0;
#X connect 91 0 92 0;
#X connect 93 0 94 0;
#X connect 96 0 132 0;
#X connect 96 0 152 0;
#X connect 97 0 132 0;
#X connect 97 0 151 0;
#X connect 98 0 132 0;
#X connect 98 0 150 0;
#X connect 99 0 137 0;
#X connect 99 0 156 0;
#X connect 100 0 137 0;
#X connect 100 0 155 0;
#X connect 101 0 137 0;
#X connect 101 0 154 0;
#X connect 109 0 59 0;
#X connect 110 0 62 0;
#X connect 111 0 56 0;
#X connect 112 0 66 0;
#X connect 113 0 116 0;
#X connect 113 0 115 0;
#X connect 113 0 120 0;
#X connect 114 1 11 0;
#X connect 115 0 118 0;
#X connect 116 0 117 0;
#X connect 117 0 118 0;
#X connect 118 0 114 0;
#X connect 119 0 118 0;
#X connect 120 0 121 0;
#X connect 122 0 96 0;
#X connect 122 0 142 0;
#X connect 122 0 152 0;
#X connect 123 0 97 0;
#X connect 123 0 142 0;
#X connect 123 0 151 0;
#X connect 124 0 23 0;
#X connect 124 0 127 0;
#X connect 124 0 91 0;
#X connect 124 0 22 0;
#X connect 124 0 160 0;
#X connect 126 0 133 0;
#X connect 126 0 150 0;
#X connect 127 0 126 0;
#X connect 127 0 142 0;
#X connect 128 0 98 0;
#X connect 128 0 142 0;
#X connect 129 0 101 0;
#X connect 129 0 143 0;
#X connect 130 0 5 1;
#X connect 131 0 130 1;
#X connect 132 0 95 0;
#X connect 133 0 95 0;
#X connect 134 0 10 1;
#X connect 135 0 134 1;
#X connect 136 0 19 0;
#X connect 136 0 138 0;
#X connect 136 0 93 0;
#X connect 136 0 18 0;
#X connect 137 0 102 0;
#X connect 138 0 140 0;
#X connect 138 0 143 0;
#X connect 140 0 141 0;
#X connect 140 0 154 0;
#X connect 141 0 102 0;
#X connect 144 0 1 1;
#X connect 145 0 6 1;
#X connect 148 0 147 0;
#X connect 148 0 146 0;
#X connect 150 0 153 0;
#X connect 151 0 153 0;
#X connect 152 0 153 0;
#X connect 154 0 149 0;
#X connect 155 0 149 0;
#X connect 156 0 149 0;
#X connect 160 0 159 0;
#X connect 161 0 23 0;
#X connect 161 0 22 0;
#X connect 161 0 128 0;
#X connect 162 0 22 0;
#X connect 162 0 23 0;
#X connect 162 0 123 0;
#X connect 163 0 164 0;
#X connect 164 0 160 0;
#X connect 165 0 62 0;
#X connect 166 0 59 0;
#X restore 283 164 pd arpeggiation;
#N canvas 89 0 512 560 clocks 0;
#X obj 105 220 monorhythm;
#X msg 22 199 exclusive;
#X msg 22 167 start;
#X msg 85 162 stop;
#X obj 186 186 r measure_interval;
#X obj 138 105 loadbang;
#X obj 179 351 s clock_8th;
#X text 276 337 8th notes sequenced clock;
#X obj 58 257 + 1;
#X obj 36 372 s clock_quarter;
#X msg 138 146 1 1 1 1 1 1 1 1 1 1 1 1 1 1 1 1;
#X obj 145 256 s clock_16th;
#X text 250 259 16th notes sequenced clock;
#X text 166 375 Quarter notes sequenced clock;
#X obj 20 136 r s_st;
#X obj 73 115 r s_stp;
#X obj 12 270 i 0;
#X msg 40 34 0;
#X msg 47 226 -1;
#X obj 333 -58 r v1_sync;
#X obj 22 -6 select 4 8 12;
#X obj 202 -18 spigot;
#X obj 267 -17 random 2;
#X obj 240 9 spigot;
#X obj 350 -22 r more_variation;
#X obj 168 -48 select 1 3 5 9;
#X msg 367 0 0;
#X obj 360 23 s hats_trip_chg;
#X obj 11 -204 r v1_sync;
#X obj 191 -100 i 0;
#X obj 221 -100 + 1;
#X obj 302 -179 r s_st;
#X obj 299 -136 mod 16;
#X msg 242 -134 -1;
#X obj 360 -162 + 1;
#X text 381 -181 Bar count +1;
#X obj 368 -135 s s_bar;
#X obj 304 -110 s c_bar;
#X obj 232 -236 r orig_tempo;
#X obj 341 -237 r half_tempo;
#X obj 31 -140 spigot;
#X obj 133 -134 spigot;
#X msg 59 -173 0;
#X msg 101 -190 1;
#X msg 137 -187 0;
#X msg 179 -182 1;
#X obj 79 -239 r s_st;
#X obj 155 -238 loadbang;
#X obj 36 305 select 0 1 2 3 4 5 6 7;
#X obj 58 280 mod 8;
#X obj 287 -205 r s_stp;
#X msg 266 -180 0;
#X text 6 426 These are not clocks in the digital sense. They are bangs
used as regularly repeating triggers.;
#X text 1 -235 BAR LOGIC;
#X text 109 57 random \, based on what bar is playing;
#X text 93 43 This logic is used to gate the 16th offset;
#X obj 121 397 s clock_offset_half;
#X obj 108 -157 r clock_offset_half;
#X floatatom 17 343 5 0 0 0 - - -;
#X obj 15 -71 r v1_sync;
#X obj 31 -44 int 0;
#X obj 83 -42 + 1;
#X obj 115 -43 mod 16;
#X connect 0 0 11 0;
#X connect 0 0 16 0;
#X connect 2 0 0 0;
#X connect 3 0 0 0;
#X connect 4 0 0 2;
#X connect 5 0 10 0;
#X connect 8 0 49 0;
#X connect 10 0 0 1;
#X connect 14 0 2 0;
#X connect 14 0 17 0;
#X connect 15 0 3 0;
#X connect 16 0 8 0;
#X connect 17 0 16 1;
#X connect 18 0 16 1;
#X connect 19 0 22 0;
#X connect 20 0 17 0;
#X connect 20 1 17 0;
#X connect 20 2 17 0;
#X connect 20 3 17 0;
#X connect 21 0 23 0;
#X connect 22 0 21 1;
#X connect 23 0 18 0;
#X connect 24 0 23 1;
#X connect 24 0 26 0;
#X connect 25 0 21 0;
#X connect 25 1 21 0;
#X connect 25 2 21 0;
#X connect 25 3 21 0;
#X connect 26 0 27 0;
#X connect 28 0 40 0;
#X connect 29 0 30 0;
#X connect 30 0 32 0;
#X connect 31 0 33 0;
#X connect 32 0 29 1;
#X connect 32 0 34 0;
#X connect 32 0 37 0;
#X connect 33 0 29 1;
#X connect 33 0 60 1;
#X connect 34 0 36 0;
#X connect 38 0 43 0;
#X connect 38 0 44 0;
#X connect 39 0 42 0;
#X connect 39 0 45 0;
#X connect 40 0 29 0;
#X connect 41 0 29 0;
#X connect 42 0 40 1;
#X connect 43 0 40 1;
#X connect 44 0 41 1;
#X connect 45 0 41 1;
#X connect 46 0 43 0;
#X connect 46 0 44 0;
#X connect 47 0 33 0;
#X connect 47 0 44 0;
#X connect 47 0 43 0;
#X connect 48 0 9 0;
#X connect 48 0 6 0;
#X connect 48 2 6 0;
#X connect 48 4 6 0;
#X connect 48 4 9 0;
#X connect 48 4 56 0;
#X connect 48 6 6 0;
#X connect 49 0 16 1;
#X connect 49 0 48 0;
#X connect 49 0 58 0;
#X connect 50 0 51 0;
#X connect 51 0 32 0;
#X connect 57 0 41 0;
#X connect 59 0 60 0;
#X connect 60 0 20 0;
#X connect 60 0 61 0;
#X connect 60 0 25 0;
#X connect 61 0 62 0;
#X connect 62 0 60 1;
#X restore 201 164 pd clocks;
#X text 138 11 CLOSED HI-HAT;
#X text 16 200 Be sure you have the MJlib external at;
#X text 23 217 http://www.pagefall.com/pd/mjLib.zip;
#X restore 31 247 pd engine;
#X obj 344 47 nbx 3 14 1 1280 0 0 tempo tempo_chg Tempo -2 -8 192 10
-241291 -1 -1 120 256;
#X obj 37 46 tgl 17 0 start_stop start_stop Start-Stop -20 -10 192
8 -261689 -1 -1 0 1;
#X obj 292 72 cnv 15 130 170 empty empty empty 10 10 0 12 -262131 -1
0;
#X obj 374 183 tgl 15 0 man_hats_togg man_hats_on Manual -8 -6 192
8 -262144 -1 -1 0 1;
#X obj 337 218 hsl 64 15 1.3 5 0 0 man_hats empty Manual_Speed -10
-6 128 8 -262144 -1 -1 0 1;
#X obj 307 109 hsl 64 15 1 6 0 0 hat_range hat_range Speed_Range -2
-6 192 8 -262144 -1 -1 1260 1;
#X text 300 150 ______________;
#X text 81 4 Compact MIDI Drum Generator for PD;
#X obj 14 72 cnv 15 270 170 empty empty Arpeggiator 75 13 0 14 -225280
-66577 0;
#X obj 156 104 bng 30 250 50 0 arpegg_b1 empty 8 10 16 128 8 -257472
-1 -1;
#X obj 156 136 bng 29 250 50 0 arpegg_s1 empty 8 10 16 128 8 -262131
-1 -1;
#X obj 187 104 bng 30 250 50 0 arpegg_b2 empty 16 8 16 128 8 -257472
-1 -1;
#X obj 217 104 bng 30 250 50 0 arpegg_b3 empty 32 8 16 128 8 -257472
-1 -1;
#X obj 187 136 bng 29 250 50 0 arpegg_s2 empty 16 8 16 128 8 -262131
-1 -1;
#X obj 218 136 bng 29 250 50 0 arpegg_s3 empty 32 8 16 128 8 -262131
-1 -1;
#X obj 220 190 bng 26 250 50 0 arpegg_both3 empty 32 7 14 128 8 -44926
-1 -1;
#X obj 189 190 bng 26 250 50 0 arpegg_both2 empty 16 7 14 128 8 -44926
-1 -1;
#X obj 158 190 bng 26 250 50 0 arpegg_both1 empty 8 9 14 128 8 -44926
-1 -1;
#X text 120 191 both;
#X text 19 141 SNARE E1;
#X obj 228 47 nbx 2 15 1 16 0 0 g_channel def_m_ch empty 0 -6 192 10
-261681 -1 -1 1 256;
#X text 199 28 MIDI Channel;
#X obj 91 109 tgl 15 0 mute_b mute_b Mute -4 -6 192 8 -262144 -1 -1
0 1;
#X obj 92 144 tgl 15 0 mute_s mute_s Mute -4 -6 192 8 -262144 -1 -1
0 1;
#X text 297 76 HI-HAT D1;
#X obj 394 88 tgl 12 0 mute_h empty Mute -4 -6 128 8 -262144 -1 -1
0 1;
#N canvas 287 193 465 318 LOAD_Samples 0;
#N canvas 311 33 646 303 open_samples 0;
#X obj 21 76 r readfile;
#X obj 10 103 symbol;
#X obj 10 158 soundfiler;
#X obj 10 53 openpanel;
#X obj 10 35 bng 15 250 50 0 empty empty empty 0 -6 0 8 -262144 -1
-1;
#X obj 10 7 r open_s1;
#X msg 10 131 read -resize \$1 sample1-L sample1-R;
#X obj 158 75 r readfile;
#X obj 147 102 symbol;
#X obj 148 184 soundfiler;
#X obj 147 52 openpanel;
#X obj 147 32 bng 15 250 50 0 empty empty empty 0 -6 0 8 -262144 -1
-1;
#X obj 147 6 r open_s2;
#X msg 148 157 read -resize \$1 sample2-L sample2-R;
#X obj 314 78 r readfile;
#X obj 303 105 symbol;
#X obj 303 206 soundfiler;
#X obj 303 55 openpanel;
#X obj 303 35 bng 15 250 50 0 empty empty empty 0 -6 0 8 -262144 -1
-1;
#X obj 303 9 r open_s3;
#X msg 303 179 read -resize \$1 sample3-L sample3-R;
#X obj 10 186 s s1_length;
#X obj 148 217 s s2_length;
#X obj 303 231 s s3_length;
#N canvas 0 0 464 314 startup 0;
#X obj 31 26 loadbang;
#X obj 36 125 s rel_s1;
#X obj 106 125 s pitch_s1;
#X obj 192 126 s s1_vol;
#X obj 127 68 s vol;
#X msg 119 46 90;
#X msg 38 88 1;
#X obj 35 153 s rel_s2;
#X obj 221 154 s s2_vol;
#X obj 192 180 s s3_vol;
#X obj 106 179 s pitch_s3;
#X obj 35 179 s rel_s3;
#X obj 291 154 s sus_s2;
#X obj 45 216 r open_s1;
#X obj 45 268 s setmono1;
#X obj 135 216 r open_s2;
#X obj 135 268 s setmono2;
#X obj 225 217 r open_s3;
#X obj 225 269 s setmono3;
#X msg 169 97 0.5;
#X obj 262 117 s s1_pan;
#X obj 329 115 s s2_pan;
#X obj 330 136 s s3_pan;
#X msg 45 242 1;
#X msg 135 242 1;
#X msg 225 243 1;
#X obj 106 153 s pitch_s2_set;
#X obj 360 155 s pitch_s2;
#X connect 0 0 5 0;
#X connect 0 0 6 0;
#X connect 0 0 19 0;
#X connect 5 0 4 0;
#X connect 6 0 1 0;
#X connect 6 0 2 0;
#X connect 6 0 3 0;
#X connect 6 0 7 0;
#X connect 6 0 8 0;
#X connect 6 0 11 0;
#X connect 6 0 10 0;
#X connect 6 0 9 0;
#X connect 6 0 12 0;
#X connect 6 0 26 0;
#X connect 6 0 27 0;
#X connect 13 0 23 0;
#X connect 15 0 24 0;
#X connect 17 0 25 0;
#X connect 19 0 20 0;
#X connect 19 0 21 0;
#X connect 19 0 22 0;
#X connect 23 0 14 0;
#X connect 24 0 16 0;
#X connect 25 0 18 0;
#X restore 19 251 pd startup;
#X connect 0 0 1 0;
#X connect 1 0 6 0;
#X connect 2 0 21 0;
#X connect 3 0 1 0;
#X connect 4 0 3 0;
#X connect 5 0 4 0;
#X connect 6 0 2 0;
#X connect 7 0 8 0;
#X connect 8 0 13 0;
#X connect 9 0 22 0;
#X connect 10 0 8 0;
#X connect 11 0 10 0;
#X connect 12 0 11 0;
#X connect 13 0 9 0;
#X connect 14 0 15 0;
#X connect 15 0 20 0;
#X connect 16 0 23 0;
#X connect 17 0 15 0;
#X connect 18 0 17 0;
#X connect 19 0 18 0;
#X connect 20 0 16 0;
#X restore 323 261 pd open_samples;
#N canvas 225 114 616 411 play_samples 0;
#X obj 562 224 dac~;
#X obj 412 71 r vol;
#N canvas 0 0 450 300 graph3 0;
#X array sample1-L 5243 float 0;
#X coords 0 1 5242 -1 40 30 1;
#X restore 76 244 graph;
#X floatatom 412 99 5 0 0 0 - - -;
#X obj 412 121 dbtorms;
#X obj 412 143 pack 0 100;
#X obj 412 165 line~;
#N canvas 0 0 450 300 graph4 0;
#X array sample1-R 5243 float 0;
#X coords 0 1 5242 -1 40 30 1;
#X restore 76 274 graph;
#X obj 256 203 *~;
#X obj 159 203 *~;
#N canvas 0 0 450 300 graph3 0;
#X array sample2-R 3341 float 0;
#X coords 0 1 3340 -1 40 30 1;
#X restore 338 272 graph;
#N canvas 0 0 450 300 graph4 0;
#X array sample2-L 3341 float 0;
#X coords 0 1 3340 -1 40 30 1;
#X restore 338 242 graph;
#N canvas 0 0 450 300 graph5 0;
#X array sample3-L 2416 float 0;
#X coords 0 1 2415 -1 40 30 1;
#X restore 211 242 graph;
#N canvas 0 0 450 300 graph6 0;
#X array sample3-R 2416 float 0;
#X coords 0 1 2415 -1 40 30 1;
#X restore 211 272 graph;
#X obj 163 23 r v3_out;
#X obj 297 3 r v2_out;
#X obj 20 23 r v1_out;
#X obj 163 3 r v3_improv;
#X obj 20 2 r v1_improv;
#X obj 38 83 r s1_vol;
#X obj 20 113 *~ 0.5;
#X obj 72 113 *~ 0.5;
#X obj 284 113 *~ 0.5;
#X obj 340 113 *~ 0.5;
#X obj 311 83 r s2_vol;
#X obj 144 120 *~ 0.5;
#X obj 200 120 *~ 0.5;
#X obj 166 89 r s3_vol;
#N canvas 3 5 686 640 voice_1 0;
#X obj 14 188 line~;
#X obj 32 301 line~;
#X obj 14 332 *~;
#X obj 46 584 outlet~;
#X obj 45 556 hip~ 5;
#X obj 83 474 line~;
#X obj 40 531 *~;
#X text 474 265 env-attk;
#X obj 230 62 inlet;
#X obj 125 160 select 1 0;
#X msg 74 188 set sample1-L;
#X msg 183 187 set sample1-R;
#X obj 125 134 r setmono1;
#X obj 330 169 bng 15 250 50 0 empty empty empty 0 -6 0 8 -262144 -1
-1;
#X obj 546 116 nbx 5 14 0 44100 0 0 empty empty Sustain 0 -6 0 10 -262144
-1 -1 26.9141 256;
#X obj 453 116 nbx 5 14 0 44100 0 0 empty empty Release 0 -6 0 10 -262144
-1 -1 118.889 256;
#X obj 381 116 nbx 5 14 0 44100 0 0 empty empty Attack 0 -6 0 10 -262144
-1 -1 0 256;
#X msg 410 191 1;
#X obj 268 6 r s1_length;
#X floatatom 271 140 5 0 0 0 - - -;
#X text 397 266 env-amp 1;
#X text 404 278 env-amp 0;
#X text 526 144 env_sustain;
#X obj 330 407 *;
#X obj 323 337 t b f;
#X obj 332 384 * 0.001;
#X obj 330 431 t b f;
#X obj 345 458 / 44.1;
#X obj 332 361 44100;
#X obj 331 304 nbx 5 14 0 2 0 0 empty empty empty 0 -6 0 10 -262144
-1 -1 1 256;
#X obj 15 76 r phase1;
#X obj 317 550 s phase1;
#X obj 317 524 pack 0 0;
#X text 313 313 pitch ratio;
#X obj 466 238 f 1;
#X obj 513 166 delay 100;
#X obj 434 300 pack 0 1;
#X obj 13 252 tabread4~ sample1-L;
#X msg 31 131 0;
#X obj 28 111 bng 15 250 50 0 empty empty empty 0 -6 0 8 -262144 -1
-1;
#X msg 57 400 0;
#X obj 54 380 bng 15 250 50 0 empty empty empty 0 -6 0 8 -262144 -1
-1;
#X msg 566 229 0;
#X obj 131 374 r envelope1_r;
#X obj 53 353 r envelope1_a;
#X obj 139 399 bng 15 250 50 0 empty empty empty 0 -6 0 8 -262144 -1
-1;
#X msg 133 419 1;
#X obj 434 328 s envelope1_a;
#X obj 569 259 pack 0 0;
#X obj 522 300 s envelope1_r;
#X obj 378 -21 r atk_s1;
#X obj 447 -22 r rel_s1;
#X obj 523 -22 r sus_s1;
#X obj 285 32 bng 15 250 50 0 empty empty empty 0 -6 0 8 -262144 -1
-1;
#X msg 329 50 0;
#X floatatom 419 498 5 0 0 0 - - -;
#X text 378 363 <<<---sample rate;
#X obj 439 535 s ms_length1;
#X obj 377 26 delay 250;
#X floatatom 470 48 5 0 0 0 - - -;
#X obj 467 19 r ms_length1;
#X obj 386 5 bng 15 250 50 0 empty empty empty 0 -6 0 8 -262144 -1
-1;
#X obj 459 1 bng 15 250 50 0 empty empty empty 0 -6 0 8 -262144 -1
-1;
#X obj 534 2 bng 15 250 50 0 empty empty empty 0 -6 0 8 -262144 -1
-1;
#X msg 330 250 1;
#X obj 330 222 loadbang;
#X obj 307 274 r pitch_s1;
#X obj 382 64 *;
#X obj 544 64 *;
#X obj 444 74 *;
#X obj 68 530 *~;
#X obj 118 557 hip~ 5;
#X obj 134 583 outlet~;
#X obj 43 332 *~;
#X obj 33 225 tabread4~ sample1-R;
#X text 6 17 phase message is:;
#X text 13 35 0 \, sample-length sample-time;
#X text 83 301 envelope messages are:;
#X text 83 316 0 \, 1 attack-time;
#X text 83 332 1 \, 0 release-time;
#X text 481 278 env-rel;
#X text 210 137 **;
#X text 157 210 **;
#X text 168 248 **;
#X text 165 356 **;
#X text 82 77 **;
#X text 249 7 **;
#X text 359 -21 **;
#X text 566 21 **;
#X text 547 322 **;
#X text 344 567 **;
#X text 447 552 **;
#X text 292 260 **;
#X msg 150 277 1 2;
#X text 176 277 click-removal;
#X connect 0 0 37 0;
#X connect 0 0 74 0;
#X connect 1 0 2 1;
#X connect 1 0 73 1;
#X connect 2 0 6 0;
#X connect 4 0 3 0;
#X connect 5 0 6 1;
#X connect 5 0 70 1;
#X connect 6 0 4 0;
#X connect 8 0 13 0;
#X connect 9 0 10 0;
#X connect 9 1 11 0;
#X connect 10 0 74 0;
#X connect 11 0 74 0;
#X connect 12 0 9 0;
#X connect 13 0 93 0;
#X connect 13 0 14 0;
#X connect 13 0 15 0;
#X connect 13 0 16 0;
#X connect 13 0 17 0;
#X connect 13 0 19 0;
#X connect 13 0 34 0;
#X connect 13 0 35 0;
#X connect 13 0 55 0;
#X connect 14 0 35 1;
#X connect 15 0 48 1;
#X connect 16 0 34 1;
#X connect 17 0 36 0;
#X connect 18 0 19 0;
#X connect 18 0 53 0;
#X connect 18 0 27 0;
#X connect 19 0 32 0;
#X connect 23 0 26 0;
#X connect 24 0 28 0;
#X connect 24 0 32 0;
#X connect 24 1 23 1;
#X connect 25 0 23 0;
#X connect 26 0 27 0;
#X connect 26 1 27 1;
#X connect 27 0 55 0;
#X connect 27 0 57 0;
#X connect 28 0 25 0;
#X connect 29 0 24 0;
#X connect 30 0 39 0;
#X connect 30 0 0 0;
#X connect 32 0 31 0;
#X connect 34 0 36 1;
#X connect 35 0 42 0;
#X connect 36 0 47 0;
#X connect 37 0 2 0;
#X connect 38 0 0 0;
#X connect 39 0 38 0;
#X connect 40 0 5 0;
#X connect 41 0 40 0;
#X connect 42 0 48 0;
#X connect 43 0 45 0;
#X connect 43 0 5 0;
#X connect 44 0 41 0;
#X connect 44 0 5 0;
#X connect 45 0 46 0;
#X connect 46 0 5 0;
#X connect 48 0 49 0;
#X connect 50 0 61 0;
#X connect 50 0 67 1;
#X connect 51 0 62 0;
#X connect 51 0 69 1;
#X connect 52 0 63 0;
#X connect 52 0 68 1;
#X connect 53 0 54 0;
#X connect 53 0 58 0;
#X connect 54 0 16 0;
#X connect 55 0 32 1;
#X connect 58 0 59 0;
#X connect 59 0 14 0;
#X connect 59 0 69 0;
#X connect 59 0 67 0;
#X connect 59 0 68 0;
#X connect 60 0 59 0;
#X connect 61 0 67 0;
#X connect 62 0 69 0;
#X connect 63 0 68 0;
#X connect 64 0 29 0;
#X connect 65 0 64 0;
#X connect 66 0 29 0;
#X connect 67 0 16 0;
#X connect 68 0 14 0;
#X connect 69 0 15 0;
#X connect 70 0 71 0;
#X connect 71 0 72 0;
#X connect 73 0 70 0;
#X connect 74 0 73 0;
#X connect 93 0 1 0;
#X restore 20 55 pd voice_1;
#N canvas 0 0 688 622 voice_2 0;
#X obj 14 188 line~;
#X obj 32 301 line~;
#X obj 14 332 *~;
#X obj 46 584 outlet~;
#X obj 45 556 hip~ 5;
#X obj 83 474 line~;
#X obj 40 531 *~;
#X text 474 265 env-attk;
#X obj 321 119 inlet;
#X obj 125 160 select 1 0;
#X obj 330 169 bng 15 250 50 0 empty empty empty 0 -6 0 8 -262144 -1
-1;
#X obj 546 116 nbx 5 14 0 44100 0 0 empty empty Sustain 0 -6 0 10 -262144
-1 -1 75.7637 256;
#X obj 453 116 nbx 5 14 0 44100 0 0 empty empty Release 0 -6 0 10 -262144
-1 -1 75.7637 256;
#X obj 381 116 nbx 5 14 0 44100 0 0 empty empty Attack 0 -6 0 10 -262144
-1 -1 0 256;
#X msg 410 191 1;
#X floatatom 271 140 5 0 0 0 - - -;
#X text 397 266 env-amp 1;
#X text 404 278 env-amp 0;
#X text 526 144 env_sustain;
#X obj 330 407 *;
#X obj 323 337 t b f;
#X obj 332 384 * 0.001;
#X obj 330 431 t b f;
#X obj 345 458 / 44.1;
#X obj 332 361 44100;
#X obj 331 304 nbx 5 14 0 2 0 0 empty empty empty 0 -6 0 10 -262144
-1 -1 0.999946 256;
#X obj 317 524 pack 0 0;
#X text 313 313 pitch ratio;
#X obj 466 238 f 1;
#X obj 513 166 delay 100;
#X obj 434 300 pack 0 1;
#X msg 31 131 0;
#X obj 28 111 bng 15 250 50 0 empty empty empty 0 -6 0 8 -262144 -1
-1;
#X msg 57 400 0;
#X obj 54 380 bng 15 250 50 0 empty empty empty 0 -6 0 8 -262144 -1
-1;
#X msg 566 229 0;
#X obj 139 399 bng 15 250 50 0 empty empty empty 0 -6 0 8 -262144 -1
-1;
#X msg 133 419 1;
#X obj 569 259 pack 0 0;
#X obj 285 32 bng 15 250 50 0 empty empty empty 0 -6 0 8 -262144 -1
-1;
#X msg 329 50 0;
#X floatatom 419 498 5 0 0 0 - - -;
#X text 378 363 <<<---sample rate;
#X obj 377 26 delay 250;
#X floatatom 463 48 5 0 0 0 - - -;
#X obj 386 5 bng 15 250 50 0 empty empty empty 0 -6 0 8 -262144 -1
-1;
#X obj 459 1 bng 15 250 50 0 empty empty empty 0 -6 0 8 -262144 -1
-1;
#X obj 534 2 bng 15 250 50 0 empty empty empty 0 -6 0 8 -262144 -1
-1;
#X msg 328 251 1;
#X obj 321 219 loadbang;
#X obj 382 64 *;
#X obj 544 64 *;
#X obj 444 74 *;
#X obj 68 530 *~;
#X obj 118 557 hip~ 5;
#X obj 134 583 outlet~;
#X obj 43 332 *~;
#X obj 15 76 r phase2;
#X obj 125 134 r setmono2;
#X obj 268 6 r s2_length;
#X obj 378 -21 r atk_s2;
#X obj 447 -22 r rel_s2;
#X obj 523 -22 r sus_s2;
#X obj 467 19 r ms_length2;
#X obj 522 300 s envelope2_r;
#X obj 436 328 s envelope2_a;
#X obj 439 535 s ms_length2;
#X obj 317 550 s phase2;
#X obj 307 274 r pitch_s2;
#X obj 131 374 r envelope2_r;
#X obj 53 353 r envelope2_a;
#X obj 13 252 tabread4~ sample2-L;
#X obj 33 225 tabread4~ sample2-R;
#X msg 74 188 set sample2-L;
#X msg 183 187 set sample2-R;
#X text 6 17 phase message is:;
#X text 13 35 0 \, sample-length sample-time;
#X text 83 301 envelope messages are:;
#X text 83 316 0 \, 1 attack-time;
#X text 83 332 1 \, 0 release-time;
#X text 481 278 env-rel;
#X text 210 137 **;
#X text 157 210 **;
#X text 168 248 **;
#X text 165 356 **;
#X text 82 77 **;
#X text 249 7 **;
#X text 359 -21 **;
#X text 566 21 **;
#X text 547 322 **;
#X text 344 567 **;
#X text 447 552 **;
#X text 292 260 **;
#X text 176 277 click-removal;
#X msg 150 277 1 2;
#X connect 0 0 71 0;
#X connect 0 0 72 0;
#X connect 1 0 2 1;
#X connect 1 0 56 1;
#X connect 2 0 6 0;
#X connect 4 0 3 0;
#X connect 5 0 6 1;
#X connect 5 0 53 1;
#X connect 6 0 4 0;
#X connect 8 0 10 0;
#X connect 9 0 73 0;
#X connect 9 1 74 0;
#X connect 10 0 94 0;
#X connect 10 0 11 0;
#X connect 10 0 12 0;
#X connect 10 0 13 0;
#X connect 10 0 14 0;
#X connect 10 0 15 0;
#X connect 10 0 28 0;
#X connect 10 0 29 0;
#X connect 10 0 41 0;
#X connect 11 0 29 1;
#X connect 12 0 38 1;
#X connect 13 0 28 1;
#X connect 14 0 30 0;
#X connect 15 0 26 0;
#X connect 19 0 22 0;
#X connect 20 0 24 0;
#X connect 20 0 26 0;
#X connect 20 1 19 1;
#X connect 21 0 19 0;
#X connect 22 0 23 0;
#X connect 22 1 23 1;
#X connect 23 0 41 0;
#X connect 23 0 66 0;
#X connect 24 0 21 0;
#X connect 25 0 20 0;
#X connect 26 0 67 0;
#X connect 28 0 30 1;
#X connect 29 0 35 0;
#X connect 30 0 65 0;
#X connect 31 0 0 0;
#X connect 32 0 31 0;
#X connect 33 0 5 0;
#X connect 34 0 33 0;
#X connect 35 0 38 0;
#X connect 36 0 37 0;
#X connect 37 0 5 0;
#X connect 38 0 64 0;
#X connect 39 0 40 0;
#X connect 39 0 43 0;
#X connect 40 0 13 0;
#X connect 40 0 12 0;
#X connect 41 0 26 1;
#X connect 43 0 44 0;
#X connect 44 0 11 0;
#X connect 44 0 52 0;
#X connect 44 0 50 0;
#X connect 44 0 51 0;
#X connect 45 0 50 0;
#X connect 46 0 52 0;
#X connect 47 0 51 0;
#X connect 48 0 25 0;
#X connect 49 0 48 0;
#X connect 50 0 13 0;
#X connect 51 0 11 0;
#X connect 52 0 12 0;
#X connect 53 0 54 0;
#X connect 54 0 55 0;
#X connect 56 0 53 0;
#X connect 57 0 32 0;
#X connect 57 0 0 0;
#X connect 58 0 9 0;
#X connect 59 0 15 0;
#X connect 59 0 39 0;
#X connect 59 0 23 0;
#X connect 60 0 45 0;
#X connect 60 0 50 1;
#X connect 61 0 46 0;
#X connect 61 0 52 1;
#X connect 62 0 47 0;
#X connect 62 0 51 1;
#X connect 63 0 44 0;
#X connect 68 0 25 0;
#X connect 69 0 36 0;
#X connect 69 0 5 0;
#X connect 70 0 34 0;
#X connect 70 0 5 0;
#X connect 71 0 2 0;
#X connect 72 0 56 0;
#X connect 73 0 72 0;
#X connect 74 0 72 0;
#X connect 94 0 1 0;
#X restore 289 60 pd voice_2;
#N canvas 3 4 679 644 voice_3 0;
#X obj 14 188 line~;
#X obj 32 301 line~;
#X obj 14 332 *~;
#X obj 46 584 outlet~;
#X obj 45 556 hip~ 5;
#X obj 83 474 line~;
#X obj 40 531 *~;
#X text 474 265 env-attk;
#X obj 321 119 inlet;
#X obj 125 160 select 1 0;
#X obj 330 169 bng 15 250 50 0 empty empty empty 0 -6 0 8 -262144 -1
-1;
#X obj 546 116 nbx 5 14 0 44100 0 0 empty empty Sustain 0 -6 0 10 -262144
-1 -1 1.33584 256;
#X obj 453 116 nbx 5 14 0 44100 0 0 empty empty Release 0 -6 0 10 -262144
-1 -1 54.7846 256;
#X obj 381 116 nbx 5 14 0 44100 0 0 empty empty Attack 0 -6 0 10 -262144
-1 -1 0 256;
#X msg 410 191 1;
#X floatatom 271 140 5 0 0 0 - - -;
#X text 397 266 env-amp 1;
#X text 404 278 env-amp 0;
#X text 526 144 env_sustain;
#X obj 330 407 *;
#X obj 323 337 t b f;
#X obj 332 384 * 0.001;
#X obj 330 431 t b f;
#X obj 345 458 / 44.1;
#X obj 332 361 44100;
#X obj 331 304 nbx 5 14 0 2 0 0 empty empty empty 0 -6 0 10 -262144
-1 -1 1 256;
#X obj 317 524 pack 0 0;
#X text 313 313 pitch ratio;
#X obj 466 238 f 1;
#X obj 513 166 delay 100;
#X obj 434 300 pack 0 1;
#X msg 31 131 0;
#X obj 28 111 bng 15 250 50 0 empty empty empty 0 -6 0 8 -262144 -1
-1;
#X msg 57 400 0;
#X obj 54 380 bng 15 250 50 0 empty empty empty 0 -6 0 8 -262144 -1
-1;
#X msg 566 229 0;
#X obj 139 399 bng 15 250 50 0 empty empty empty 0 -6 0 8 -262144 -1
-1;
#X msg 133 419 1;
#X obj 569 259 pack 0 0;
#X obj 285 32 bng 15 250 50 0 empty empty empty 0 -6 0 8 -262144 -1
-1;
#X msg 329 50 0;
#X floatatom 419 498 5 0 0 0 - - -;
#X text 378 363 <<<---sample rate;
#X obj 377 26 delay 250;
#X floatatom 463 48 5 0 0 0 - - -;
#X obj 386 5 bng 15 250 50 0 empty empty empty 0 -6 0 8 -262144 -1
-1;
#X obj 459 1 bng 15 250 50 0 empty empty empty 0 -6 0 8 -262144 -1
-1;
#X obj 534 2 bng 15 250 50 0 empty empty empty 0 -6 0 8 -262144 -1
-1;
#X msg 328 251 1;
#X obj 321 219 loadbang;
#X obj 382 64 *;
#X obj 544 64 *;
#X obj 444 74 *;
#X obj 68 530 *~;
#X obj 118 557 hip~ 5;
#X obj 134 583 outlet~;
#X obj 43 332 *~;
#X obj 15 76 r phase3;
#X obj 268 6 r s3_length;
#X obj 378 -21 r atk_s3;
#X obj 447 -22 r rel_s3;
#X obj 523 -22 r sus_s3;
#X obj 467 19 r ms_length3;
#X obj 307 274 r pitch_s3;
#X obj 522 300 s envelope3_r;
#X obj 436 328 s envelope3_a;
#X obj 439 535 s ms_length3;
#X obj 317 550 s phase3;
#X obj 131 374 r envelope3_r;
#X obj 53 353 r envelope3_a;
#X obj 13 252 tabread4~ sample3-L;
#X obj 33 225 tabread4~ sample3-R;
#X msg 74 188 set sample3-L;
#X msg 183 187 set sample3-R;
#X obj 125 134 r setmono3;
#X text 6 17 phase message is:;
#X text 13 35 0 \, sample-length sample-time;
#X text 83 301 envelope messages are:;
#X text 83 316 0 \, 1 attack-time;
#X text 83 332 1 \, 0 release-time;
#X text 483 278 env-rel;
#X text 210 137 **;
#X text 157 210 **;
#X text 168 248 **;
#X text 165 356 **;
#X text 82 77 **;
#X text 249 7 **;
#X text 359 -21 **;
#X text 566 21 **;
#X text 547 322 **;
#X text 344 567 **;
#X text 447 552 **;
#X text 292 260 **;
#X text 176 277 click-removal;
#X msg 150 277 1 2;
#X connect 0 0 70 0;
#X connect 0 0 71 0;
#X connect 1 0 2 1;
#X connect 1 0 56 1;
#X connect 2 0 6 0;
#X connect 4 0 3 0;
#X connect 5 0 6 1;
#X connect 5 0 53 1;
#X connect 6 0 4 0;
#X connect 8 0 10 0;
#X connect 9 0 72 0;
#X connect 9 1 73 0;
#X connect 10 0 94 0;
#X connect 10 0 11 0;
#X connect 10 0 12 0;
#X connect 10 0 13 0;
#X connect 10 0 14 0;
#X connect 10 0 15 0;
#X connect 10 0 28 0;
#X connect 10 0 29 0;
#X connect 10 0 41 0;
#X connect 11 0 29 1;
#X connect 12 0 38 1;
#X connect 13 0 28 1;
#X connect 14 0 30 0;
#X connect 15 0 26 0;
#X connect 19 0 22 0;
#X connect 20 0 24 0;
#X connect 20 0 26 0;
#X connect 20 1 19 1;
#X connect 21 0 19 0;
#X connect 22 0 23 0;
#X connect 22 1 23 1;
#X connect 23 0 41 0;
#X connect 23 0 66 0;
#X connect 24 0 21 0;
#X connect 25 0 20 0;
#X connect 26 0 67 0;
#X connect 28 0 30 1;
#X connect 29 0 35 0;
#X connect 30 0 65 0;
#X connect 31 0 0 0;
#X connect 32 0 31 0;
#X connect 33 0 5 0;
#X connect 34 0 33 0;
#X connect 35 0 38 0;
#X connect 36 0 37 0;
#X connect 37 0 5 0;
#X connect 38 0 64 0;
#X connect 39 0 40 0;
#X connect 39 0 43 0;
#X connect 40 0 13 0;
#X connect 40 0 12 0;
#X connect 41 0 26 1;
#X connect 43 0 44 0;
#X connect 44 0 11 0;
#X connect 44 0 52 0;
#X connect 44 0 50 0;
#X connect 44 0 51 0;
#X connect 45 0 50 0;
#X connect 46 0 52 0;
#X connect 47 0 51 0;
#X connect 48 0 25 0;
#X connect 49 0 48 0;
#X connect 50 0 13 0;
#X connect 51 0 11 0;
#X connect 52 0 12 0;
#X connect 53 0 54 0;
#X connect 54 0 55 0;
#X connect 56 0 53 0;
#X connect 57 0 32 0;
#X connect 57 0 0 0;
#X connect 58 0 15 0;
#X connect 58 0 39 0;
#X connect 58 0 23 0;
#X connect 59 0 45 0;
#X connect 59 0 50 1;
#X connect 60 0 46 0;
#X connect 60 0 52 1;
#X connect 61 0 47 0;
#X connect 61 0 51 1;
#X connect 62 0 44 0;
#X connect 63 0 25 0;
#X connect 68 0 36 0;
#X connect 68 0 5 0;
#X connect 69 0 34 0;
#X connect 69 0 5 0;
#X connect 70 0 2 0;
#X connect 71 0 56 0;
#X connect 72 0 71 0;
#X connect 73 0 71 0;
#X connect 74 0 9 0;
#X connect 94 0 1 0;
#X restore 162 59 pd voice_3;
#X text 171 316 Bass Drum;
#X text 28 313 Snare Drum;
#X text 307 318 Hi-Hat;
#N canvas 114 257 456 306 pan_1 0;
#X obj 9 186 inlet~;
#X obj 71 296 outlet~;
#X obj 248 187 inlet~;
#X obj 154 296 outlet~;
#X obj 253 33 r s1_pan;
#X obj 98 26 loadbang;
#X floatatom 72 203 8 0 0 0 - - -;
#X floatatom 150 203 8 0 0 0 - - -;
#X msg 137 56 0.5;
#X obj 172 75 bng 15 250 50 0 empty empty empty 0 -6 0 8 -262144 -1
-1;
#X obj 152 103 -;
#X msg 98 57 1;
#X obj 179 147 clip 0 0.5;
#X obj 50 147 clip 0 0.5;
#X obj 72 228 * 2;
#X obj 150 229 * 2;
#X obj 29 276 *~;
#X obj 237 277 *~;
#X connect 0 0 16 0;
#X connect 2 0 17 0;
#X connect 4 0 9 0;
#X connect 4 0 12 0;
#X connect 4 0 10 1;
#X connect 5 0 8 0;
#X connect 5 0 11 0;
#X connect 6 0 14 0;
#X connect 7 0 15 0;
#X connect 8 0 6 0;
#X connect 8 0 7 0;
#X connect 9 0 10 0;
#X connect 10 0 13 0;
#X connect 11 0 10 0;
#X connect 12 0 7 0;
#X connect 13 0 6 0;
#X connect 14 0 16 1;
#X connect 15 0 17 1;
#X connect 16 0 1 0;
#X connect 17 0 3 0;
#X restore 42 171 pd pan_1;
#N canvas 0 0 458 308 pan_2 0;
#X obj 9 186 inlet~;
#X obj 71 296 outlet~;
#X obj 248 187 inlet~;
#X obj 154 296 outlet~;
#X obj 98 26 loadbang;
#X floatatom 72 203 8 0 0 0 - - -;
#X floatatom 150 203 8 0 0 0 - - -;
#X msg 137 56 0.5;
#X obj 172 75 bng 15 250 50 0 empty empty empty 0 -6 0 8 -262144 -1
-1;
#X obj 152 103 -;
#X msg 98 57 1;
#X obj 179 147 clip 0 0.5;
#X obj 50 147 clip 0 0.5;
#X obj 72 228 * 2;
#X obj 150 229 * 2;
#X obj 29 276 *~;
#X obj 237 277 *~;
#X obj 253 33 r s2_pan;
#X connect 0 0 15 0;
#X connect 2 0 16 0;
#X connect 4 0 7 0;
#X connect 4 0 10 0;
#X connect 5 0 13 0;
#X connect 6 0 14 0;
#X connect 7 0 5 0;
#X connect 7 0 6 0;
#X connect 8 0 9 0;
#X connect 9 0 12 0;
#X connect 10 0 9 0;
#X connect 11 0 6 0;
#X connect 12 0 5 0;
#X connect 13 0 15 1;
#X connect 14 0 16 1;
#X connect 15 0 1 0;
#X connect 16 0 3 0;
#X connect 17 0 8 0;
#X connect 17 0 11 0;
#X connect 17 0 9 1;
#X restore 305 164 pd pan_2;
#N canvas 0 0 460 310 pan_3 0;
#X obj 9 186 inlet~;
#X obj 71 296 outlet~;
#X obj 248 187 inlet~;
#X obj 154 296 outlet~;
#X obj 98 26 loadbang;
#X floatatom 72 203 8 0 0 0 - - -;
#X floatatom 150 203 8 0 0 0 - - -;
#X msg 137 56 0.5;
#X obj 172 75 bng 15 250 50 0 empty empty empty 0 -6 0 8 -262144 -1
-1;
#X obj 152 103 -;
#X msg 98 57 1;
#X obj 179 147 clip 0 0.5;
#X obj 50 147 clip 0 0.5;
#X obj 72 228 * 2;
#X obj 150 229 * 2;
#X obj 29 276 *~;
#X obj 237 277 *~;
#X obj 253 33 r s3_pan;
#X connect 0 0 15 0;
#X connect 2 0 16 0;
#X connect 4 0 7 0;
#X connect 4 0 10 0;
#X connect 5 0 13 0;
#X connect 6 0 14 0;
#X connect 7 0 5 0;
#X connect 7 0 6 0;
#X connect 8 0 9 0;
#X connect 9 0 12 0;
#X connect 10 0 9 0;
#X connect 11 0 6 0;
#X connect 12 0 5 0;
#X connect 13 0 15 1;
#X connect 14 0 16 1;
#X connect 15 0 1 0;
#X connect 16 0 3 0;
#X connect 17 0 8 0;
#X connect 17 0 11 0;
#X connect 17 0 9 1;
#X restore 168 173 pd pan_3;
#X text 339 21 Each voice module is triggered;
#X text 337 37 by the notes generator and;
#X text 378 53 processed for volume;
#X obj 468 224 s~ write_r;
#X obj 380 224 s~ write_l;
#N canvas 0 0 458 308 filt_3 0;
#X obj 11 12 inlet~;
#X obj 91 12 inlet~;
#X obj 121 148 vcf~;
#X obj 267 -1 loadbang;
#X obj 142 103 sig~;
#X obj 184 147 vcf~;
#X obj 12 264 outlet~;
#X obj 84 263 outlet~;
#X obj 186 47 * 1250;
#X msg 141 66 20000;
#X msg 192 94 0;
#X obj 194 218 *~;
#X obj 121 224 *~;
#X obj 265 165 +;
#X obj 303 224 t b f;
#X obj 278 136 * 0.7;
#X obj 56 65 select 1 0;
#X msg 7 93 1;
#X msg 50 94 0;
#X obj 12 152 *~;
#X obj 69 120 *~;
#X obj 100 113 *~;
#X obj 47 151 *~;
#X obj 250 36 r filter_togg_v3;
#X obj 251 58 r v3_cutoff;
#X obj 250 80 r v3_Q;
#X obj 252 102 r s3_vol;
#X connect 0 0 19 0;
#X connect 0 0 20 0;
#X connect 1 0 22 0;
#X connect 1 0 21 0;
#X connect 2 0 12 0;
#X connect 3 0 10 0;
#X connect 3 0 9 0;
#X connect 3 0 17 0;
#X connect 4 0 2 1;
#X connect 4 0 5 1;
#X connect 5 0 11 0;
#X connect 8 0 4 0;
#X connect 9 0 4 0;
#X connect 10 0 2 2;
#X connect 10 0 5 2;
#X connect 10 0 21 1;
#X connect 10 0 20 1;
#X connect 11 0 7 0;
#X connect 12 0 6 0;
#X connect 13 0 11 1;
#X connect 13 0 12 1;
#X connect 14 0 13 0;
#X connect 14 1 13 1;
#X connect 15 0 14 0;
#X connect 16 0 18 0;
#X connect 16 1 17 0;
#X connect 17 0 19 1;
#X connect 17 0 22 1;
#X connect 18 0 19 1;
#X connect 18 0 22 1;
#X connect 19 0 6 0;
#X connect 20 0 2 0;
#X connect 21 0 5 0;
#X connect 22 0 7 0;
#X connect 23 0 16 0;
#X connect 23 0 20 1;
#X connect 23 0 21 1;
#X connect 24 0 8 0;
#X connect 25 0 2 2;
#X connect 25 0 5 2;
#X connect 25 0 15 0;
#X connect 26 0 13 0;
#X restore 158 145 pd filt_3;
#N canvas 0 0 460 310 filt_2 0;
#X obj 16 14 inlet~;
#X obj 96 14 inlet~;
#X obj 126 150 vcf~;
#X obj 272 1 loadbang;
#X obj 147 105 sig~;
#X obj 189 149 vcf~;
#X obj 17 266 outlet~;
#X obj 89 265 outlet~;
#X obj 255 82 r v2_Q;
#X obj 256 60 r v2_cutoff;
#X obj 191 49 * 1250;
#X msg 146 68 20000;
#X msg 197 96 0;
#X obj 199 220 *~;
#X obj 257 104 r s2_vol;
#X obj 126 226 *~;
#X obj 270 167 +;
#X obj 308 226 t b f;
#X obj 283 138 * 0.7;
#X obj 255 38 r filter_togg_v2;
#X obj 61 67 select 1 0;
#X msg 12 95 1;
#X msg 55 96 0;
#X obj 17 154 *~;
#X obj 74 122 *~;
#X obj 103 115 *~;
#X obj 52 153 *~;
#X connect 0 0 23 0;
#X connect 0 0 24 0;
#X connect 1 0 26 0;
#X connect 1 0 25 0;
#X connect 2 0 15 0;
#X connect 3 0 12 0;
#X connect 3 0 11 0;
#X connect 3 0 21 0;
#X connect 4 0 2 1;
#X connect 4 0 5 1;
#X connect 5 0 13 0;
#X connect 8 0 2 2;
#X connect 8 0 5 2;
#X connect 8 0 18 0;
#X connect 9 0 10 0;
#X connect 10 0 4 0;
#X connect 11 0 4 0;
#X connect 12 0 2 2;
#X connect 12 0 5 2;
#X connect 12 0 25 1;
#X connect 12 0 24 1;
#X connect 13 0 7 0;
#X connect 14 0 16 0;
#X connect 15 0 6 0;
#X connect 16 0 13 1;
#X connect 16 0 15 1;
#X connect 17 0 16 0;
#X connect 17 1 16 1;
#X connect 18 0 17 0;
#X connect 19 0 20 0;
#X connect 19 0 24 1;
#X connect 19 0 25 1;
#X connect 20 0 22 0;
#X connect 20 1 21 0;
#X connect 21 0 23 1;
#X connect 21 0 26 1;
#X connect 22 0 23 1;
#X connect 22 0 26 1;
#X connect 23 0 6 0;
#X connect 24 0 2 0;
#X connect 25 0 5 0;
#X connect 26 0 7 0;
#X restore 296 137 pd filt_2;
#N canvas 0 0 456 306 filt_1 0;
#X obj 16 14 inlet~;
#X obj 96 14 inlet~;
#X obj 126 150 vcf~;
#X obj 272 1 loadbang;
#X obj 147 105 sig~;
#X obj 189 149 vcf~;
#X obj 17 266 outlet~;
#X obj 89 265 outlet~;
#X obj 191 49 * 1250;
#X msg 146 68 20000;
#X msg 197 96 0;
#X obj 199 220 *~;
#X obj 126 226 *~;
#X obj 270 167 +;
#X obj 308 226 t b f;
#X obj 283 138 * 0.7;
#X obj 61 67 select 1 0;
#X msg 12 95 1;
#X msg 55 96 0;
#X obj 17 154 *~;
#X obj 74 122 *~;
#X obj 103 115 *~;
#X obj 52 153 *~;
#X obj 257 104 r s1_vol;
#X obj 255 82 r v1_Q;
#X obj 258 60 r v1_cutoff;
#X obj 255 38 r filter_togg_v1;
#X connect 0 0 19 0;
#X connect 0 0 20 0;
#X connect 1 0 22 0;
#X connect 1 0 21 0;
#X connect 2 0 12 0;
#X connect 3 0 10 0;
#X connect 3 0 9 0;
#X connect 3 0 17 0;
#X connect 4 0 2 1;
#X connect 4 0 5 1;
#X connect 5 0 11 0;
#X connect 8 0 4 0;
#X connect 9 0 4 0;
#X connect 10 0 2 2;
#X connect 10 0 5 2;
#X connect 10 0 21 1;
#X connect 10 0 20 1;
#X connect 11 0 7 0;
#X connect 12 0 6 0;
#X connect 13 0 11 1;
#X connect 13 0 12 1;
#X connect 14 0 13 0;
#X connect 14 1 13 1;
#X connect 15 0 14 0;
#X connect 16 0 18 0;
#X connect 16 1 17 0;
#X connect 17 0 19 1;
#X connect 17 0 22 1;
#X connect 18 0 19 1;
#X connect 18 0 22 1;
#X connect 19 0 6 0;
#X connect 20 0 2 0;
#X connect 21 0 5 0;
#X connect 22 0 7 0;
#X connect 23 0 13 0;
#X connect 24 0 2 2;
#X connect 24 0 5 2;
#X connect 24 0 15 0;
#X connect 25 0 8 0;
#X connect 26 0 16 0;
#X connect 26 0 20 1;
#X connect 26 0 21 1;
#X restore 38 142 pd filt_1;
#N canvas 0 0 408 399 v2_r_pitch 0;
#X obj 231 121 r v2_out;
#X obj 223 21 r v2_vary_p;
#X floatatom 232 297 8 0 0 0 - - -;
#X msg 215 266 set \$1;
#X obj 149 78 spigot;
#X obj 258 50 r v2_vary_p_amt;
#X obj 108 206 +;
#X obj 264 82 bng 15 250 50 0 empty empty empty 0 -6 0 8 -262144 -1
-1;
#X obj 170 205 *;
#X obj 134 333 s pitch_s2;
#X obj 22 21 r pitch_s2_ctl;
#X obj 78 45 r clock_8th;
#X floatatom 112 300 5 0 0 0 - - -;
#X msg 71 242 set \$1;
#X msg 21 156 1;
#X msg 64 153 0;
#X obj 22 123 select 0 1;
#X obj 22 272 spigot;
#X obj 7 209 bng 15 250 50 0 empty empty empty 0 -6 0 8 -262144 -1
-1;
#X obj 11 -1 loadbang;
#X obj 151 7 select 0;
#X obj 247 146 random 8;
#X obj 220 174 - 4;
#X obj 170 118 * 0.006;
#X connect 0 0 21 0;
#X connect 0 0 22 0;
#X connect 1 0 4 1;
#X connect 1 0 16 0;
#X connect 1 0 20 0;
#X connect 2 0 9 0;
#X connect 3 0 2 0;
#X connect 4 0 2 0;
#X connect 4 0 8 0;
#X connect 4 0 6 0;
#X connect 5 0 7 0;
#X connect 5 0 23 1;
#X connect 6 0 3 0;
#X connect 7 0 23 0;
#X connect 8 0 6 1;
#X connect 10 0 6 0;
#X connect 10 0 13 0;
#X connect 10 0 18 0;
#X connect 10 0 23 0;
#X connect 11 0 4 0;
#X connect 12 0 9 0;
#X connect 13 0 12 0;
#X connect 14 0 17 1;
#X connect 15 0 17 1;
#X connect 16 0 14 0;
#X connect 16 1 15 0;
#X connect 17 0 12 0;
#X connect 18 0 17 0;
#X connect 19 0 14 0;
#X connect 20 0 18 0;
#X connect 21 0 22 0;
#X connect 22 0 8 1;
#X connect 23 0 8 0;
#X restore 443 322 pd v2_r_pitch;
#X connect 1 0 3 0;
#X connect 3 0 4 0;
#X connect 4 0 5 0;
#X connect 5 0 6 0;
#X connect 6 0 9 1;
#X connect 6 0 8 1;
#X connect 8 0 0 1;
#X connect 8 0 40 0;
#X connect 9 0 0 0;
#X connect 9 0 41 0;
#X connect 14 0 30 0;
#X connect 15 0 29 0;
#X connect 16 0 28 0;
#X connect 17 0 30 0;
#X connect 18 0 28 0;
#X connect 19 0 21 1;
#X connect 19 0 20 1;
#X connect 20 0 44 0;
#X connect 21 0 44 1;
#X connect 22 0 43 0;
#X connect 23 0 43 1;
#X connect 24 0 23 1;
#X connect 24 0 22 1;
#X connect 25 0 42 0;
#X connect 26 0 42 1;
#X connect 27 0 26 1;
#X connect 27 0 25 1;
#X connect 28 0 20 0;
#X connect 28 1 21 0;
#X connect 29 0 22 0;
#X connect 29 1 23 0;
#X connect 30 0 25 0;
#X connect 30 1 26 0;
#X connect 34 0 9 0;
#X connect 34 1 8 0;
#X connect 35 0 9 0;
#X connect 35 1 8 0;
#X connect 36 0 9 0;
#X connect 36 1 8 0;
#X connect 42 0 36 0;
#X connect 42 1 36 1;
#X connect 43 0 35 0;
#X connect 43 1 35 1;
#X connect 44 0 34 0;
#X connect 44 1 34 1;
#X restore 323 285 pd play_samples;
#X obj 409 41 vsl 15 128 0 108 0 0 vol vol Volume -12 -8 192 8 -262144
-1 -1 10583 1;
#X obj 13 174 cnv 15 370 73 empty empty empty 20 12 0 14 -262131 -66577
0;
#X obj 63 214 tgl 15 0 setmono2 setmono2 mono 0 -6 192 8 -262144 -1
-1 1 1;
#X obj 27 214 bng 15 250 50 0 open_s2 empty Open 0 -6 128 8 -262144
-1 -1;
#X text 21 177 HI-HAT;
#X obj 107 188 hsl 32 15 0 1 0 1 s2_vol s2_vol volume -2 -6 192 8 -262144
-1 -1 3100 1;
#X obj 234 195 vsl 10 32 0.01 1 1 0 atk_s2 empty Attack 0 -8 128 8
-262144 -1 -1 0 1;
#X obj 331 196 vsl 10 32 0.01 1 1 0 rel_s2 rel_s2 Release 0 -8 192
8 -262144 -1 -1 3100 1;
#X obj 278 195 vsl 10 32 0.01 1 1 1 sus_s2 sus_s2 Sustain 0 -8 192
8 -262144 -1 -1 3100 1;
#X obj 144 212 hsl 64 10 0.01 2 0 1 pitch_s2_ctl pitch_s2_set Pitch
-40 6 192 8 -262144 -1 -1 3134 1;
#X obj 170 189 hsl 32 15 0 1.1 0 0 s2_pan s2_pan pan -2 -6 192 8 -262144
-1 -1 1409 1;
#X obj 13 104 cnv 15 370 60 empty empty empty 20 12 0 14 -225280 -66577
0;
#X obj 63 139 tgl 15 0 setmono1 setmono1 mono 0 -6 192 8 -262144 -1
-1 1 1;
#X obj 28 139 bng 15 250 50 0 open_s1 empty Open 0 -6 128 8 -262144
-1 -1;
#X text 17 108 SNARE Drum;
#X obj 112 117 hsl 32 15 0 1 0 1 s1_vol s1_vol volume -2 -6 192 8 -262144
-1 -1 3100 1;
#X obj 231 118 vsl 10 32 0 1 0 0 atk_s1 empty Attack 0 -8 128 8 -262144
-1 -1 0 1;
#X obj 334 118 vsl 10 32 0.01 1 1 0 rel_s1 rel_s1 Release 0 -8 192
8 -262144 -1 -1 3100 1;
#X obj 280 118 vsl 10 32 0.01 1 1 1 sus_s1 empty Sustain 0 -8 128 8
-262144 -1 -1 2100 1;
#X obj 144 142 hsl 64 10 0 2 0 1 pitch_s1 pitch_s1 Pitch -40 6 192
8 -262144 -1 -1 3150 1;
#X obj 173 118 hsl 32 15 0 1.1 0 0 s1_pan s1_pan pan -2 -6 192 8 -262144
-1 -1 1409 1;
#X obj 14 33 cnv 15 370 60 empty empty empty 20 12 0 14 -228992 -66577
0;
#X obj 62 66 tgl 15 0 setmono3 setmono3 mono 0 -6 192 8 -262144 -1
-1 1 1;
#X obj 27 66 bng 15 250 50 0 open_s3 empty Open 0 -6 128 8 -262144
-1 -1;
#X text 22 35 BASS Drum;
#X obj 114 48 hsl 32 15 0 1 0 1 s3_vol s3_vol volume -2 -6 192 8 -262144
-1 -1 3100 1;
#X obj 229 51 vsl 10 32 0.01 1 1 0 atk_s3 empty Attack 0 -8 128 8 -262144
-1 -1 0 1;
#X obj 328 51 vsl 10 32 0.01 1 1 0 rel_s3 rel_s3 Release 0 -8 192 8
-262144 -1 -1 3100 1;
#X obj 275 51 vsl 10 32 0.01 1 1 1 sus_s3 empty Sustain 0 -8 128 8
-262144 -1 -1 600 1;
#X obj 147 73 hsl 64 10 0 2 0 1 pitch_s3 pitch_s3 Pitch -40 6 192 8
-262144 -1 -1 3150 1;
#X obj 174 49 hsl 32 15 0 1.1 0 0 s3_pan s3_pan pan -2 -6 192 8 -262144
-1 -1 1409 1;
#X text 17 -3 Pick a sample with Open;
#X text 17 15 Disable mono for stereo samples;
#X obj 413 218 tgl 15 0 start_stop start_stop Start-Stop -24 -8 192
8 -261689 -1 -1 0 1;
#N canvas 0 0 456 306 record 0;
#X obj 33 44 bng 15 250 50 0 openrec empty empty 0 -6 128 8 -258699
-1 -1;
#X text 12 20 Open File;
#X obj 33 101 tgl 15 0 startstoprecord empty empty 0 -6 128 8 -225280
-1 -1 0 1;
#X text 19 78 Record;
#X text 54 40 <<--press to;
#X text 85 55 prepare a file;
#X text 84 71 for writing;
#X text 59 102 <<--then press;
#X text 90 118 record;
#X text 16 162 Turning Record off marks the file with an end;
#X text 25 180 of file marker \, so open another to record again;
#N canvas 0 0 452 302 record_modules 0;
#X msg 157 78 start;
#X msg 214 79 stop;
#X obj 157 28 select 1 0;
#X msg 79 78 open \$1;
#X obj 79 45 savepanel;
#X obj 79 13 r openrec;
#X obj 157 5 r startstoprecord;
#X obj 61 166 writesf~ 2;
#X obj 8 123 r~ write_l;
#X obj 162 121 r~ write_r;
#X connect 0 0 7 0;
#X connect 1 0 7 0;
#X connect 2 0 0 0;
#X connect 2 1 1 0;
#X connect 3 0 7 0;
#X connect 4 0 3 0;
#X connect 5 0 4 0;
#X connect 6 0 2 0;
#X connect 8 0 7 0;
#X connect 9 0 7 1;
#X restore 235 80 pd record_modules;
#X restore 17 282 pd record;
#X text 110 255 <<--click for filters;
#X obj 176 226 hsl 32 12 0.002 0.16 1 0 v2_vary_p_amt empty empty -2
-6 128 8 -262144 -1 -1 0 1;
#X obj 151 226 tgl 12 0 v2_vary_p empty Random -47 6 128 8 -262144
-1 -1 0 1;
#N canvas 0 0 183 298 FILTERS 0;
#X obj 10 37 cnv 15 160 80 empty empty empty 20 12 0 14 -228992 -66577
0;
#X obj 11 120 cnv 15 160 80 empty empty empty 20 12 0 14 -225280 -66577
0;
#X obj 12 203 cnv 15 160 80 empty empty empty 20 12 0 14 -262131 -66577
0;
#X obj 101 130 vsl 15 64 0.02 16 1 0 v1_cutoff empty Cutoff -12 -8
128 8 -262144 -1 -1 0 1;
#X obj 139 130 vsl 15 64 0.14 15 1 0 v1_Q empty Q 4 -8 128 8 -262144
-1 -1 0 1;
#X obj 29 172 tgl 15 0 filter_togg_v1 empty Enable -6 -6 128 8 -262144
-1 -1 0 1;
#X text 16 124 Snare;
#X text 15 40 Bass;
#X obj 101 49 vsl 15 64 0.02 16 1 0 v3_cutoff empty Cutoff -12 -8 128
8 -262144 -1 -1 0 1;
#X obj 139 48 vsl 15 64 0.14 15 1 0 v3_Q empty Q 4 -8 128 8 -262144
-1 -1 0 1;
#X obj 27 86 tgl 15 0 filter_togg_v3 empty Enable -6 -6 128 8 -262144
-1 -1 0 1;
#X obj 102 215 vsl 15 64 0.02 16 1 0 v2_cutoff empty Cutoff -12 -8
128 8 -262144 -1 -1 0 1;
#X obj 140 215 vsl 15 64 0.14 15 1 0 v2_Q empty Q 4 -8 128 8 -262144
-1 -1 0 1;
#X obj 31 257 tgl 15 0 filter_togg_v2 empty Enable -6 -6 128 8 -262144
-1 -1 0 1;
#X text 20 210 Hi-Hat;
#X text 24 9 BP FILTER SECTION;
#X restore 17 255 pd FILTERS;
#X restore 153 248 pd LOAD_Samples;
#X text 20 106 BASS C1;
#X obj 393 122 tgl 15 0 hats_triplets hats_trip_chg Swing -10 -6 192
8 -262144 -1 -1 0 1;
#X obj 125 108 bng 24 250 50 0 hit_b empty Hit 4 -6 128 8 -257472 -1
-1;
#X obj 248 104 bng 30 250 50 0 arpegg_b4 empty 3 11 16 128 8 -257472
-1 -1;
#X obj 249 136 bng 29 250 50 0 arpegg_s4 empty 3 11 14 128 8 -262131
-1 -1;
#X obj 251 190 bng 26 250 50 0 arpegg_both4 empty 3 10 13 128 8 -44926
-1 -1;
#X text 277 249 <<--get samples;
#X obj 15 167 cnv 15 90 75 empty empty empty 20 12 0 14 -228992 -66577
0;
#X obj 15 172 nbx 2 10 -48 48 0 0 v3_transpose empty transpose_bass
0 14 128 7 -262144 -1 -1 0 256;
#X obj 15 191 nbx 2 10 -48 48 0 0 v1_transpose empty transpose_snare
0 14 128 7 -262144 -1 -1 0 256;
#X obj 15 210 nbx 2 10 -48 48 0 0 v2_transpose empty transpose_hats
0 14 128 7 -262144 -1 -1 0 256;
#X text 17 227 MIDI notes;
#X obj 129 143 tgl 15 0 snare_auto_improv snare_auto_chg AUTO -6 22
192 8 -262131 -1 -1 0 1;
#X text 305 122 >>|>| :);
#X obj 357 154 tgl 9 0 more_variation empty 16th_offset_random -40
-6 128 7 -262144 -1 -1 0 1;
#X floatatom 108 46 3 0 15 2 Bar_1-16 s_bar -;
#X obj 311 183 bng 15 250 50 0 hat_rest empty Rest_8th -16 -6 128 8
-262144 -1 -1;
#X obj 389 27 bng 15 250 50 0 orig_tempo empty original -12 -6 128
8 -241291 -1 -1;
#X obj 389 48 bng 15 250 50 0 half_tempo empty half 0 18 128 8 -241291
-1 -1;
