#N canvas 296 139 641 577 8;
#X obj 116 40 metro;
#X obj 139 7 hsl 128 15 0 2000 0 0 empty empty empty -2 -6 0 8 -262144
-1 -1 2800 1;
#X obj 188 405 line~;
#X obj 68 441 *~;
#X obj 66 119 bng 15 250 50 0 empty empty empty 0 -6 0 8 -241291 -1
-1;
#X obj 68 410 osc~;
#X obj 68 372 line~;
#X msg 128 377 0.5;
#X obj 69 541 output~;
#X obj 110 510 hsl 128 15 0 110 0 0 empty empty empty -2 -6 0 8 -262144
-1 -1 11300 1;
#X floatatom 63 285 5 0 0 0 - - -;
#X floatatom 98 295 5 0 0 0 - - -;
#X obj 63 311 pack 0 0;
#X obj 66 236 hsl 128 15 0 400 0 0 empty empty empty -2 -6 0 8 -262144
-1 -1 2445 1;
#X obj 116 8 tgl 15 0 empty empty empty 0 -6 0 8 -262144 -1 -1 1 1
;
#X obj 63 262 delay 1;
#X floatatom 248 335 5 0 0 0 - - -;
#X floatatom 284 334 5 0 0 0 - - -;
#X obj 248 352 pack 0 0;
#X obj 248 318 delay 1;
#X obj 225 449 s~ scope;
#X floatatom 120 258 5 0 0 0 - - -;
#X obj 247 32 s \$0-trigger;
#X obj 63 145 random 100;
#X msg 181 338 1 7;
#X obj 394 127 noise~;
#X obj 451 127 line~;
#X obj 394 181 *~;
#X msg 451 99 1 \, 0 50;
#X obj 105 64 random 20;
#X obj 61 92 delay 1;
#X obj 168 63 hsl 128 15 0 127 0 0 empty empty empty -2 -6 0 8 -262144
-1 -1 7100 1;
#X obj 208 203 hsl 128 15 0 127 0 0 empty empty empty -2 -6 0 8 -262144
-1 -1 7700 1;
#X obj 65 202 hsl 128 15 0 127 0 0 empty empty empty -2 -6 0 8 -262144
-1 -1 5000 1;
#X obj 62 184 bng 15 250 50 0 empty empty empty 0 -6 0 8 -262144 -1
-1;
#X obj 206 185 bng 15 250 50 0 empty empty empty 0 -6 0 8 -262144 -1
-1;
#X obj 277 116 metro;
#X obj 277 93 * 1;
#X obj 349 66 hradio 15 1 0 5 empty empty empty 0 -6 0 8 -262144 -1
-1 4;
#X obj 62 162 moses 60;
#X obj 420 258 dbtorms;
#X obj 421 196 vsl 15 50 0 127 0 0 empty empty empty 0 -8 0 8 -262144
-1 -1 3800 1;
#X obj 392 259 *~ 1;
#X obj 199 478 *~ 1;
#X obj 314 59 bng 15 250 50 0 empty empty empty 0 -6 0 8 -262144 -1
-1;
#X floatatom 173 29 5 0 0 0 - - -;
#X connect 0 0 29 0;
#X connect 0 0 30 0;
#X connect 1 0 0 1;
#X connect 1 0 37 0;
#X connect 1 0 45 0;
#X connect 2 0 3 1;
#X connect 3 0 20 0;
#X connect 3 0 43 0;
#X connect 4 0 7 0;
#X connect 4 0 19 0;
#X connect 4 0 24 0;
#X connect 4 0 22 0;
#X connect 4 0 23 0;
#X connect 5 0 3 0;
#X connect 6 0 5 0;
#X connect 7 0 5 1;
#X connect 9 0 8 1;
#X connect 10 0 12 0;
#X connect 11 0 12 1;
#X connect 12 0 6 0;
#X connect 13 0 15 0;
#X connect 13 0 6 0;
#X connect 13 0 21 0;
#X connect 14 0 0 0;
#X connect 14 0 36 0;
#X connect 15 0 10 0;
#X connect 16 0 18 0;
#X connect 17 0 18 1;
#X connect 18 0 2 0;
#X connect 19 0 16 0;
#X connect 23 0 39 0;
#X connect 24 0 2 0;
#X connect 25 0 27 0;
#X connect 26 0 27 1;
#X connect 27 0 42 0;
#X connect 28 0 26 0;
#X connect 29 0 30 1;
#X connect 30 0 4 0;
#X connect 31 0 29 1;
#X connect 32 0 13 0;
#X connect 33 0 13 0;
#X connect 34 0 33 0;
#X connect 35 0 32 0;
#X connect 36 0 28 0;
#X connect 37 0 36 1;
#X connect 38 0 37 1;
#X connect 38 0 44 0;
#X connect 39 0 34 0;
#X connect 39 1 35 0;
#X connect 40 0 42 1;
#X connect 41 0 40 0;
#X connect 42 0 43 0;
#X connect 43 0 8 0;
#X connect 44 0 37 0;
