#N canvas 518 36 888 298 8;
#N canvas 376 188 562 613 fft 0;
#X obj 19 61 inlet~;
#X obj 224 210 inlet;
#X obj 29 92 rfft~;
#X obj 29 125 *~;
#X obj 60 125 *~;
#X obj 29 155 sqrt~;
#X obj 29 181 biquad~ 0 0 0 0 1;
#X text 93 93 Fourier series;
#X text 98 146 magnitude;
#X text 96 131 calculate;
#X text 21 3 This subpatch computes the spectrum of the incoming signal
with a (rectangular windowed) FFT. FFTs aren't properly introduced
until much later.;
#X text 83 61 signal to analyze;
#X text 193 164 delay two samples;
#X text 191 182 for better graphing;
#X obj 264 434 samplerate~;
#X obj 251 232 inlet;
#X text 301 232 toggle to graph repeatedly;
#X text 278 210 bang to graph once;
#X obj 264 409 bang~;
#X obj 264 457 / 512;
#X obj 19 295 tabwrite~ F04-signal;
#X obj 264 483 s freq/2;
#X msg 224 321 \; pd dsp 1;
#X obj 253 296 tabwrite~ fftspec;
#X obj 251 255 metro 100;
#X obj 164 257 *~ 2;
#X obj 332 109 block~ 4096 1;
#X obj 30 205 /~ 4096;
#X obj 315 251 inlet;
#X connect 0 0 2 0;
#X connect 0 0 20 0;
#X connect 1 0 20 0;
#X connect 1 0 22 0;
#X connect 1 0 23 0;
#X connect 2 0 3 0;
#X connect 2 0 3 1;
#X connect 2 1 4 0;
#X connect 2 1 4 1;
#X connect 3 0 5 0;
#X connect 4 0 5 0;
#X connect 5 0 6 0;
#X connect 6 0 27 0;
#X connect 14 0 19 0;
#X connect 15 0 22 0;
#X connect 15 0 24 0;
#X connect 18 0 14 0;
#X connect 19 0 21 0;
#X connect 24 0 20 0;
#X connect 24 0 23 0;
#X connect 25 0 23 0;
#X connect 27 0 25 0;
#X connect 28 0 24 1;
#X restore 93 248 pd fft;
#X obj 105 198 bng 18 250 50 0 empty empty empty 0 -6 0 8 -262144 -1
-1;
#X obj 118 221 tgl 18 0 empty empty empty 0 -6 0 8 -262144 -1 -1 1
1;
#X text 140 226 <-- repeatedly;
#X text 127 202 <-- graph once;
#N canvas 0 0 450 300 graph1 0;
#X array fftspec 1027 float 0;
#X coords 0 1.01 1027 -0.008 512 200 1;
#X restore 367 25 graph;
#X text 394 224 2;
#X text 425 224 4;
#X text 366 223 0;
#X text 402 239 -- partial number --;
#X text 457 224 6;
#X text 490 224 8;
#X text 518 224 10;
#X text 550 224 12;
#X text 582 224 14;
#X text 878 213 0;
#X obj 65 127 r~ fft;
#N canvas 0 0 450 300 graph1 0;
#X array F04-signal 882 float 0;
#X coords 0 1.02 882 -1.02 200 130 1;
#X restore 147 13 graph;
#X text 147 146 ---- 0.02 seconds ----;
#X obj 196 254 hsl 128 15 5 500 1 0 empty empty empty -2 -6 0 8 -262144
-1 -1 0 1;
#X obj 228 235 loadbang;
#X msg 206 254 100;
#X floatatom 297 255 5 0 0 0 - - -;
#X text 242 254 graph rate;
#X connect 1 0 0 1;
#X connect 2 0 0 2;
#X connect 16 0 0 0;
#X connect 19 0 0 3;
#X connect 19 0 22 0;
#X connect 20 0 21 0;
#X connect 21 0 19 0;
