#N canvas 228 83 680 545 8;
#X floatatom 106 52 8 0 0 0 - - -;
#X floatatom 119 75 8 0 0 0 - - -;
#X floatatom 132 96 7 0 0 0 - - -;
#X floatatom 146 118 7 0 0 0 - - -;
#X floatatom 159 144 7 0 0 0 - - -;
#X floatatom 180 165 7 0 0 0 - - -;
#X floatatom 192 53 7 0 0 0 - - -;
#X floatatom 206 71 7 0 0 0 - - -;
#X floatatom 219 89 7 0 0 0 - - -;
#X floatatom 232 108 7 0 0 0 - - -;
#X floatatom 246 123 7 0 0 0 - - -;
#X floatatom 259 138 7 0 0 0 - - -;
#X floatatom 273 154 7 0 0 0 - - -;
#X floatatom 286 171 7 0 0 0 - - -;
#X floatatom 300 188 7 0 0 0 - - -;
#X floatatom 319 47 5 0 0 0 - - -;
#X floatatom 333 64 5 0 0 0 - - -;
#X obj 175 385 sendOSC;
#X msg 205 322 connect localhost 10011;
#X obj 107 20 joystick 0 5 512 0 a_little_wider_so_i_can_see;
#X obj 298 206 + 64;
#X floatatom 298 226 5 0 0 0 - - -;
#X msg 175 356 send /midi 0 1 \$1 \$2;
#X msg 297 251 46 \$1;
#X obj 267 215 + 64;
#X floatatom 267 235 5 0 0 0 - - -;
#X msg 266 260 46 \$1;
#X obj 220 215 + 64;
#X floatatom 220 235 5 0 0 0 - - -;
#X msg 218 260 40 \$1;
#X connect 8 0 27 0;
#X connect 13 0 24 0;
#X connect 14 0 20 0;
#X connect 18 0 17 0;
#X connect 19 0 0 0;
#X connect 19 1 1 0;
#X connect 19 2 2 0;
#X connect 19 3 3 0;
#X connect 19 4 4 0;
#X connect 19 5 5 0;
#X connect 19 6 6 0;
#X connect 19 7 7 0;
#X connect 19 8 8 0;
#X connect 19 9 9 0;
#X connect 19 10 10 0;
#X connect 19 11 11 0;
#X connect 19 12 12 0;
#X connect 19 13 13 0;
#X connect 19 14 14 0;
#X connect 19 15 15 0;
#X connect 19 16 16 0;
#X connect 20 0 21 0;
#X connect 21 0 23 0;
#X connect 22 0 17 0;
#X connect 23 0 22 0;
#X connect 24 0 25 0;
#X connect 25 0 26 0;
#X connect 26 0 22 0;
#X connect 27 0 28 0;
#X connect 28 0 29 0;
