#N canvas 185 148 450 300 10;
#X floatatom 103 55 5 0 0 0 - - -;
#X floatatom 106 144 5 0 0 0 - - -;
#X obj 104 20 bng 15 250 50 0 empty empty empty 0 -6 0 8 -262144 -1
-1;
#X msg 261 72 0;
#X obj 100 95 ../effects/moving_avg;
#X connect 0 0 4 0;
#X connect 2 0 0 0;
#X connect 3 0 4 1;
#X connect 4 0 1 0;
